<svg id="Group_1108" data-name="Group 1108" xmlns="http://www.w3.org/2000/svg" width="28.758" height="24.65" viewBox="0 0 28.758 24.65">
  <path id="Icon_material-settings-backup-restore" data-name="Icon material-settings-backup-restore" d="M16.433,4.5A12.326,12.326,0,0,0,4.108,16.825H0L5.478,22.3l5.478-5.478H6.847a9.592,9.592,0,1,1,4.026,7.806L8.929,26.6a12.325,12.325,0,1,0,7.5-22.1Z" transform="translate(0 -4.5)" fill="#201d56"/>
  <path id="Icon_metro-dollar2" data-name="Icon metro-dollar2" d="M16.774,10.861a2.779,2.779,0,0,1-.727,1.925,3.138,3.138,0,0,1-1.889,1v1.279a.225.225,0,0,1-.234.234h-.986a.237.237,0,0,1-.234-.234V13.783a4.605,4.605,0,0,1-.931-.226,4.487,4.487,0,0,1-1.282-.676,4.164,4.164,0,0,1-.34-.274q-.091-.088-.128-.132a.222.222,0,0,1-.015-.3l.753-.986a.227.227,0,0,1,.168-.088.181.181,0,0,1,.175.066l.015.015a3.815,3.815,0,0,0,1.775.913,2.552,2.552,0,0,0,.541.058,1.771,1.771,0,0,0,1.041-.314,1.023,1.023,0,0,0,.449-.891.741.741,0,0,0-.11-.387,1.369,1.369,0,0,0-.245-.307,2.005,2.005,0,0,0-.427-.274q-.292-.15-.482-.234t-.584-.237l-.449-.183q-.164-.066-.449-.194t-.457-.226q-.172-.1-.413-.259a2.573,2.573,0,0,1-.391-.311,4.553,4.553,0,0,1-.318-.358,1.787,1.787,0,0,1-.259-.424,2.93,2.93,0,0,1-.153-.486,2.536,2.536,0,0,1-.062-.57,2.5,2.5,0,0,1,.716-1.768A3.343,3.343,0,0,1,12.7,3.752V2.437a.237.237,0,0,1,.234-.234h.986a.225.225,0,0,1,.234.234V3.723a4.064,4.064,0,0,1,.807.168,4.681,4.681,0,0,1,.636.245,3.52,3.52,0,0,1,.464.274q.219.153.285.212t.11.1A.211.211,0,0,1,16.5,5L15.9,6.068a.2.2,0,0,1-.168.117.233.233,0,0,1-.2-.051q-.022-.022-.106-.088t-.285-.194a3.77,3.77,0,0,0-.427-.234,3.263,3.263,0,0,0-.544-.19,2.437,2.437,0,0,0-.625-.084,1.9,1.9,0,0,0-1.132.314.982.982,0,0,0-.376,1.162.822.822,0,0,0,.216.3,3.22,3.22,0,0,0,.289.241,2.573,2.573,0,0,0,.409.226q.274.128.442.2t.511.2q.387.146.592.23t.555.256a4.414,4.414,0,0,1,.552.311,4.664,4.664,0,0,1,.453.365,1.892,1.892,0,0,1,.387.464,2.648,2.648,0,0,1,.23.559,2.41,2.41,0,0,1,.095.687Z" transform="translate(3.19 3.575)" fill="#201d56"/>
</svg>
