<svg width="21" height="21" viewBox="0 0 13 10" fill="none" xmlns="http://www.w3.org/2000/svg">
<path fill-rule="evenodd" clip-rule="evenodd" d="M3.81097 5C3.81097 6.33331 4.90243 7.41818 6.25 7.41818C7.59143 7.41818 8.68293 6.33331 8.68293 5C8.68293 3.6606 7.59143 2.57576 6.25 2.57576C4.90243 2.57576 3.81097 3.6606 3.81097 5ZM9.83537 1.27879C10.9024 2.10303 11.811 3.30909 12.4634 4.81819C12.5122 4.93331 12.5122 5.06669 12.4634 5.17575C11.1586 8.19393 8.83537 10 6.25 10H6.24387C3.66463 10 1.34146 8.19393 0.036584 5.17575C-0.0121972 5.06669 -0.0121972 4.93331 0.036584 4.81819C1.34146 1.8 3.66463 0 6.24387 0H6.25C7.54268 0 8.76831 0.448487 9.83537 1.27879ZM6.25074 6.50775C7.08612 6.50775 7.76899 5.829 7.76899 4.99869C7.76899 4.16231 7.08612 3.48351 6.25074 3.48351C6.17756 3.48351 6.10437 3.48957 6.03731 3.5017C6.01293 4.16837 5.46412 4.70169 4.78731 4.70169H4.75683C4.73853 4.79869 4.72634 4.89562 4.72634 4.99869C4.72634 5.829 5.40925 6.50775 6.25074 6.50775Z" fill="#201D56"/>
</svg>
