<svg width="21" height="21" viewBox="0 0 13 12" fill="none" xmlns="http://www.w3.org/2000/svg">
<path fill-rule="evenodd" clip-rule="evenodd" d="M3.81099 6C3.81099 7.33331 4.90245 8.41818 6.25001 8.41818C7.59145 8.41818 8.68295 7.33331 8.68295 6C8.68295 4.6606 7.59145 3.57576 6.25001 3.57576C4.90245 3.57576 3.81099 4.6606 3.81099 6ZM9.83539 2.27879C10.9024 3.10303 11.811 4.30909 12.4634 5.81819C12.5122 5.93331 12.5122 6.06669 12.4634 6.17575C11.1586 9.19393 8.83539 11 6.25001 11H6.24389C3.66464 11 1.34148 9.19393 0.0366012 6.17575C-0.0121801 6.06669 -0.0121801 5.93331 0.0366012 5.81819C1.34148 2.8 3.66464 1 6.24389 1H6.25001C7.5427 1 8.76832 1.44849 9.83539 2.27879ZM6.25076 7.50775C7.08614 7.50775 7.76901 6.829 7.76901 5.99869C7.76901 5.16231 7.08614 4.48351 6.25076 4.48351C6.17757 4.48351 6.10439 4.48957 6.03732 4.5017C6.01295 5.16837 5.46414 5.70169 4.78733 5.70169H4.75684C4.73855 5.79869 4.72636 5.89562 4.72636 5.99869C4.72636 6.829 5.40926 7.50775 6.25076 7.50775Z" fill="#201D56"/>
<line x1="12.3379" y1="0.368577" x2="0.337878" y2="11.3686" stroke="#201D56"/>
</svg>
