<svg width="42" height="14" viewBox="0 0 42 14" fill="none" xmlns="http://www.w3.org/2000/svg">
<path d="M24.948 12V3.252H28.692C29.164 3.252 29.592 3.316 29.976 3.444C30.368 3.572 30.7 3.76 30.972 4.008C31.244 4.248 31.452 4.548 31.596 4.908C31.748 5.26 31.824 5.664 31.824 6.12C31.824 6.696 31.7 7.204 31.452 7.644C31.204 8.076 30.848 8.416 30.384 8.664C29.92 8.904 29.356 9.024 28.692 9.024L26.652 9.012V7.56L28.38 7.572C28.66 7.572 28.916 7.532 29.148 7.452C29.38 7.364 29.568 7.22 29.712 7.02C29.856 6.82 29.928 6.544 29.928 6.192C29.928 5.848 29.852 5.576 29.7 5.376C29.556 5.176 29.368 5.036 29.136 4.956C28.912 4.876 28.66 4.836 28.38 4.836H26.58L26.82 4.584V12H24.948ZM37.0268 12.108C36.3708 12.108 35.7748 12.008 35.2388 11.808C34.7028 11.608 34.2388 11.316 33.8468 10.932C33.4548 10.548 33.1548 10.08 32.9468 9.528C32.7388 8.968 32.6348 8.332 32.6348 7.62C32.6348 6.916 32.7388 6.288 32.9468 5.736C33.1548 5.176 33.4548 4.704 33.8468 4.32C34.2388 3.936 34.7028 3.644 35.2388 3.444C35.7748 3.244 36.3708 3.144 37.0268 3.144C37.7788 3.144 38.4468 3.276 39.0308 3.54C39.6148 3.796 40.0868 4.156 40.4468 4.62C40.8068 5.084 41.0268 5.632 41.1068 6.264H39.2108C39.1388 5.96 39.0028 5.696 38.8028 5.472C38.6028 5.24 38.3508 5.06 38.0468 4.932C37.7508 4.804 37.4108 4.74 37.0268 4.74C36.5228 4.74 36.0868 4.848 35.7188 5.064C35.3508 5.272 35.0668 5.592 34.8668 6.024C34.6668 6.448 34.5668 6.98 34.5668 7.62C34.5668 8.108 34.6228 8.532 34.7348 8.892C34.8548 9.252 35.0188 9.552 35.2268 9.792C35.4428 10.032 35.7028 10.212 36.0068 10.332C36.3108 10.452 36.6508 10.512 37.0268 10.512C37.4028 10.512 37.7428 10.448 38.0468 10.32C38.3508 10.192 38.6028 10.012 38.8028 9.78C39.0108 9.548 39.1468 9.28 39.2108 8.976H41.1068C41.0348 9.608 40.8148 10.16 40.4468 10.632C40.0788 11.096 39.6028 11.46 39.0188 11.724C38.4348 11.98 37.7708 12.108 37.0268 12.108Z" fill="white"/>
<path d="M16.0791 0.689453H13.5043C12.9927 0.689635 12.5021 0.886006 12.1404 1.23538C11.7787 1.58476 11.5755 2.05855 11.5755 2.55255H0.640316C0.470494 2.55255 0.307627 2.61769 0.187544 2.73364C0.0674617 2.8496 0 3.00686 0 3.17084V10.6246C0 10.7886 0.0674617 10.9459 0.187544 11.0618C0.307627 11.1778 0.470494 11.2429 0.640316 11.2429H4.50142V11.8612H3.86111C3.69053 11.8612 3.52694 11.9266 3.40632 12.0431C3.28571 12.1595 3.21794 12.3175 3.21794 12.4822C3.21794 12.6469 3.28571 12.8049 3.40632 12.9213C3.52694 13.0378 3.69053 13.1032 3.86111 13.1032H9.00569C9.17627 13.1032 9.33986 13.0378 9.46048 12.9213C9.58109 12.8049 9.64885 12.6469 9.64885 12.4822C9.64885 12.3175 9.58109 12.1595 9.46048 12.0431C9.33986 11.9266 9.17627 11.8612 9.00569 11.8612H8.36538V11.2429H11.5755V12.485C11.5755 12.6489 11.643 12.8062 11.763 12.9222C11.8831 13.0381 12.046 13.1032 12.2158 13.1032H17.3597C17.5295 13.1032 17.6924 13.0381 17.8125 12.9222C17.9325 12.8062 18 12.6489 18 12.485V2.55255C18 2.05985 17.7979 1.58721 17.4379 1.23805C17.0779 0.888886 16.5893 0.691633 16.0791 0.689453ZM7.07407 11.8667H5.78775V11.2484H7.07407V11.8667ZM1.28632 10.0036V3.79393H11.5755V10.0036H1.28632ZM16.7194 11.8667H12.8618V2.55255C12.8618 2.38857 12.9293 2.23131 13.0494 2.11536C13.1694 1.99941 13.3323 1.93427 13.5021 1.93427H16.0791C16.2489 1.93427 16.4117 1.99941 16.5318 2.11536C16.6519 2.23131 16.7194 2.38857 16.7194 2.55255V11.8667Z" fill="white"/>
<path d="M14.8696 9.38408C14.7414 9.38408 14.6161 9.42034 14.5095 9.48826C14.4029 9.55619 14.3198 9.65273 14.2707 9.76568C14.2217 9.87863 14.2088 10.0029 14.2339 10.1228C14.2589 10.2427 14.3206 10.3529 14.4113 10.4393C14.5019 10.5258 14.6174 10.5847 14.7432 10.6085C14.8689 10.6324 14.9993 10.6201 15.1177 10.5733C15.2362 10.5265 15.3374 10.4473 15.4086 10.3457C15.4799 10.244 15.5179 10.1245 15.5179 10.0022C15.5179 9.83829 15.4496 9.68106 15.328 9.56514C15.2064 9.44921 15.0416 9.38408 14.8696 9.38408ZM9.19897 5.21912L6.59448 7.70202C6.53071 7.75926 6.47963 7.82812 6.4443 7.90453C6.40896 7.98094 6.39008 8.06334 6.38876 8.14684C6.38745 8.23034 6.40374 8.31325 6.43667 8.39063C6.46959 8.46802 6.51848 8.53831 6.58042 8.59733C6.64237 8.65636 6.71612 8.70293 6.7973 8.73426C6.87848 8.76559 6.96543 8.78106 7.05299 8.77975C7.14056 8.77843 7.22695 8.76036 7.30706 8.7266C7.38716 8.69285 7.45934 8.64409 7.5193 8.58323L10.1238 6.10032C10.2402 5.9822 10.3038 5.82551 10.3011 5.66345C10.2984 5.50138 10.2297 5.34668 10.1095 5.23211C9.98922 5.11755 9.82693 5.05212 9.65697 5.04969C9.48702 5.04727 9.32275 5.10803 9.19897 5.21912ZM6.21706 5.21912C6.15672 5.16055 6.08476 5.11404 6.00537 5.08229C5.92597 5.05053 5.84074 5.03418 5.75465 5.03418C5.66855 5.03418 5.58332 5.05053 5.50393 5.08229C5.42454 5.11404 5.35257 5.16055 5.29224 5.21912L2.68919 7.70202C2.62541 7.75926 2.57434 7.82812 2.539 7.90453C2.50367 7.98094 2.48478 8.06334 2.48347 8.14684C2.48216 8.23034 2.49845 8.31325 2.53137 8.39063C2.5643 8.46802 2.61318 8.53831 2.67513 8.59733C2.73708 8.65636 2.81083 8.70293 2.89201 8.73426C2.97319 8.76559 3.06014 8.78106 3.1477 8.77975C3.23527 8.77843 3.32166 8.76036 3.40176 8.7266C3.48187 8.69285 3.55404 8.64409 3.61401 8.58323L6.2185 6.10032C6.2798 6.0428 6.32849 5.97422 6.36172 5.89857C6.39496 5.82293 6.41207 5.74173 6.41207 5.65972C6.41207 5.57771 6.39496 5.49651 6.36172 5.42087C6.32849 5.34522 6.2798 5.27664 6.2185 5.21912H6.21706Z" fill="white"/>
</svg>
