<svg width="17" height="17" viewBox="0 0 17 17" fill="none" xmlns="http://www.w3.org/2000/svg">
<g clip-path="url(#clip0_2665_3179)">
<path d="M10.625 5.31258C10.625 5.10243 10.6873 4.89701 10.8041 4.72228C10.9208 4.54755 11.0868 4.41137 11.2809 4.33095C11.475 4.25054 11.6887 4.22949 11.8948 4.27049C12.1009 4.31149 12.2902 4.41268 12.4388 4.56127C12.5874 4.70987 12.6886 4.89919 12.7296 5.10529C12.7706 5.3114 12.7495 5.52503 12.6691 5.71918C12.5887 5.91332 12.4525 6.07926 12.2778 6.19601C12.1031 6.31276 11.8976 6.37507 11.6875 6.37507C11.4057 6.37507 11.1355 6.26313 10.9362 6.06388C10.7369 5.86462 10.625 5.59437 10.625 5.31258ZM9.5625 8.50007C9.77264 8.50007 9.97807 8.43776 10.1528 8.32101C10.3275 8.20426 10.4637 8.03832 10.5441 7.84418C10.6245 7.65003 10.6456 7.4364 10.6046 7.23029C10.5636 7.02419 10.4624 6.83487 10.3138 6.68627C10.1652 6.53768 9.97589 6.43649 9.76978 6.39549C9.56368 6.35449 9.35005 6.37553 9.1559 6.45595C8.96175 6.53637 8.79581 6.67255 8.67906 6.84728C8.56231 7.02201 8.5 7.22743 8.5 7.43757C8.5 7.71937 8.61194 7.98962 8.8112 8.18888C9.01046 8.38813 9.28071 8.50007 9.5625 8.50007ZM7.4375 10.6251C7.64764 10.6251 7.85307 10.5628 8.02779 10.446C8.20252 10.3293 8.3387 10.1633 8.41912 9.96918C8.49954 9.77503 8.52058 9.5614 8.47958 9.35529C8.43859 9.14919 8.33739 8.95987 8.1888 8.81127C8.04021 8.66268 7.85089 8.56149 7.64478 8.52049C7.43868 8.47949 7.22505 8.50053 7.0309 8.58095C6.83675 8.66137 6.67081 8.79755 6.55406 8.97228C6.43731 9.14701 6.375 9.35243 6.375 9.56257C6.375 9.84437 6.48694 10.1146 6.6862 10.3139C6.88546 10.5131 7.15571 10.6251 7.4375 10.6251ZM16.8874 2.51678L16.8343 2.66483C15.6627 5.91537 14.5435 8.9867 11.9645 11.6543C11.7728 13.4812 10.9455 15.1828 9.62696 16.4617C9.26562 16.8057 8.78636 16.9983 8.2875 17.0001C8.03635 17.0001 7.78765 16.9506 7.55562 16.8545C7.32358 16.7584 7.11275 16.6175 6.93516 16.4399C6.75757 16.2623 6.61669 16.0515 6.52058 15.8195C6.42447 15.5874 6.375 15.3387 6.375 15.0876V13.9323C5.95894 13.7796 5.57347 13.5539 5.23671 13.2657L3.93904 14.5641C3.73972 14.7634 3.46938 14.8754 3.1875 14.8754C2.90562 14.8754 2.63528 14.7634 2.43596 14.5641C2.23664 14.3648 2.12466 14.0945 2.12466 13.8126C2.12466 13.5307 2.23664 13.2604 2.43596 13.061L3.73504 11.7619C3.30099 11.2327 3.02046 10.5944 2.924 9.91674H1.9125C1.40527 9.91674 0.918822 9.71525 0.560158 9.35658C0.201495 8.99792 0 8.51147 0 8.00424C0.00195723 7.50563 0.194562 7.02665 0.538333 6.66549C1.27588 5.91194 2.1552 5.31171 3.12566 4.89935C4.09612 4.487 5.13856 4.27068 6.19296 4.26283C8.65512 2.21362 11.4247 1.21699 14.3388 0.165826L14.4861 0.112701C14.8216 -0.00817365 15.1845 -0.0310837 15.5325 0.0466476C15.8804 0.124379 16.1991 0.299541 16.4512 0.551665C16.7034 0.803789 16.8785 1.12246 16.9563 1.47044C17.034 1.81842 17.0111 2.18134 16.8902 2.51678H16.8874ZM14.7107 2.28941C11.6252 3.40362 8.94979 4.42007 6.65833 6.70941C6.17061 7.26002 5.71623 7.83928 5.29763 8.44412C5.07464 8.76116 4.9709 9.14681 5.00472 9.53294C5.03855 9.91907 5.20778 10.2808 5.4825 10.5542L6.49117 11.5601C6.76474 11.8339 7.1262 12.0024 7.51184 12.0359C7.89748 12.0693 8.28255 11.9655 8.59917 11.7428C9.20324 11.3266 9.76929 10.8578 10.2907 10.3417C12.58 8.05028 13.6 5.37491 14.7107 2.28941Z" fill="#A9A9A9"/>
</g>
<defs>
<clipPath id="clip0_2665_3179">
<rect width="17" height="17" fill="white"/>
</clipPath>
</defs>
</svg>
