<svg width="30" height="22" viewBox="0 0 30 22" fill="none" xmlns="http://www.w3.org/2000/svg">
<path d="M29.1131 6.63972C29.1131 6.35335 28.9769 6.08388 28.7452 5.91186L21.0281 0.18348C20.7477 -0.0243372 20.3709 -0.0581444 20.0547 0.0949837C19.7395 0.249106 19.5406 0.564311 19.5406 0.911335V3.36834H13.3359C12.8238 3.36834 12.4082 3.77503 12.4082 4.28015V9.00226C12.4082 9.50639 12.8238 9.91407 13.3359 9.91407H19.5406V12.3691C19.5406 12.7161 19.7395 13.0313 20.0557 13.1854C20.1869 13.2491 20.3281 13.2809 20.4693 13.2809C20.6682 13.2809 20.865 13.2183 21.0291 13.096L28.7462 7.36558C28.9769 7.19257 29.1131 6.92509 29.1131 6.63972ZM21.397 10.5375V9.00226C21.397 8.49913 20.9814 8.09046 20.4683 8.09046H14.2646V5.19097H20.4683C20.9814 5.19097 21.397 4.78329 21.397 4.28015V2.74191L26.6461 6.63972L21.397 10.5375Z" fill="#A9A9A9"/>
<path d="M0.000198945 14.5956C0.00019892 14.882 0.136422 15.1515 0.368102 15.3235L8.08516 21.0519C8.36556 21.2597 8.74242 21.2935 9.05862 21.1404C9.37382 20.9862 9.57269 20.671 9.57269 20.324L9.57269 17.867L15.7774 17.867C16.2894 17.867 16.7051 17.4603 16.7051 16.9552L16.7051 12.2331C16.7051 11.729 16.2894 11.3213 15.7774 11.3213L9.57269 11.3213L9.57269 8.86626C9.57269 8.51923 9.37382 8.20403 9.05762 8.04991C8.92637 7.98627 8.78518 7.95445 8.64398 7.95445C8.44511 7.95445 8.24823 8.01709 8.08417 8.1394L0.367108 13.8698C0.136422 14.0428 0.00019897 14.3103 0.000198945 14.5956ZM7.71626 10.6978L7.71626 12.2331C7.71626 12.7362 8.1319 13.1449 8.64497 13.1449L14.8486 13.1449L14.8486 16.0444L8.64497 16.0444C8.1319 16.0444 7.71626 16.4521 7.71626 16.9552L7.71626 18.4934L2.46715 14.5956L7.71626 10.6978Z" fill="#A9A9A9"/>
</svg>
