<svg width="23" height="22" viewBox="0 0 23 22" fill="none" xmlns="http://www.w3.org/2000/svg">
<path d="M0 17.4164V19.2508C0 20.7677 3.86215 22 8.62327 22C13.3844 22 17.2465 20.766 17.2465 19.2492V17.4164C14.6028 18.7742 11.6192 19.4089 8.62327 19.2508C5.6273 19.4089 2.64373 18.7742 0 17.4164ZM14.3715 5.50662C19.1327 5.50662 22.9948 4.27263 22.9948 2.75579C22.9948 1.23895 19.1327 0 14.3715 0C9.61042 0 5.74827 1.23398 5.74827 2.75083C5.74827 4.26767 9.61042 5.5 14.3715 5.5V5.50662ZM0 12.9023V15.1188C0 16.6356 3.86215 17.8696 8.62327 17.8696C13.3844 17.8696 17.2465 16.6356 17.2465 15.1188V12.9023C14.6884 14.4928 11.6701 15.2686 8.62327 15.1188C5.57646 15.2686 2.55815 14.4928 0 12.9023ZM18.6832 13.3753C21.2643 12.9023 22.9931 12.0189 22.9931 11V9.16556C21.6807 9.94527 20.2118 10.4525 18.6814 10.6543L18.6832 13.3753ZM8.62327 6.87459C3.86215 6.87459 0 8.41293 0 10.3135C0 12.2141 3.86215 13.7508 8.62327 13.7508C13.3844 13.7508 17.2465 12.2125 17.2465 10.3135C17.2465 8.41459 13.3827 6.87459 8.62327 6.87459ZM18.4774 9.29459C21.1727 8.82977 23 7.92 23 6.87459V5.04015C20.7953 6.22671 18.3066 6.84567 15.7771 6.83654C16.9711 7.29578 17.9356 8.17548 18.4723 9.29459H18.4774Z" fill="white"/>
</svg>
