<svg width="51" height="11" viewBox="0 0 51 11" fill="none" xmlns="http://www.w3.org/2000/svg">
<path d="M4.27551 3.87019C5.90226 3.1247 7.67539 2.7532 9.46458 2.78299C11.2538 2.81279 13.0135 3.24313 14.6146 4.04239C14.6558 4.06817 14.7023 4.08423 14.7507 4.08934C14.799 4.09445 14.8479 4.08848 14.8936 4.07188C14.9393 4.05529 14.9806 4.0285 15.0144 3.99355C15.0482 3.95861 15.0736 3.91642 15.0887 3.87019L15.692 2.01787C15.7122 1.96982 15.7226 1.91824 15.7227 1.86612C15.7228 1.814 15.7125 1.76239 15.6925 1.71427C15.6725 1.66616 15.6431 1.6225 15.6061 1.58583C15.569 1.54916 15.5251 1.52022 15.4768 1.50067C13.0419 0.304583 10.3228 -0.191859 7.6224 0.0666831C4.922 0.325225 2.34645 1.32859 0.182811 2.96495C0.0960217 3.026 0.0348378 3.11695 0.0110023 3.22035C-0.0128332 3.32375 0.00235916 3.43231 0.0536635 3.52519L1.4755 6.6702C1.51802 6.77683 1.59984 6.86306 1.70409 6.91112C1.80833 6.95918 1.92705 6.9654 2.03574 6.9285C4.11702 6.11716 6.36374 5.82155 8.58406 6.06691C7.1205 6.3203 5.71758 6.84642 4.44831 7.61789C4.36239 7.67893 4.30184 7.76937 4.27815 7.87207C4.25446 7.97477 4.26927 8.08259 4.31977 8.1751L5.18136 10.1566C5.19875 10.196 5.22538 10.2307 5.25901 10.2577C5.29263 10.2847 5.33226 10.3032 5.37454 10.3116C5.41682 10.3201 5.46051 10.3182 5.50192 10.3062C5.54333 10.2942 5.58124 10.2724 5.61246 10.2427C5.90741 9.94201 6.24049 9.6813 6.60319 9.46718C8.38124 8.49989 10.4006 8.0662 12.4191 8.21815C12.5143 8.22242 12.6083 8.19498 12.6863 8.14012C12.7643 8.08526 12.822 8.00609 12.8502 7.91499L13.4965 5.97475C13.5353 5.8823 13.5392 5.77893 13.5075 5.68382C13.4758 5.58872 13.4107 5.50832 13.3243 5.45755C10.5853 3.84646 7.35532 3.28253 4.23246 3.87019H4.27551Z" fill="white"/>
<path d="M28.041 8.57053H27.2778C27.2443 8.571 27.2111 8.56413 27.1806 8.55043C27.1501 8.53672 27.123 8.5165 27.1012 8.49121C27.0794 8.46591 27.0635 8.43616 27.0546 8.40406C27.0456 8.37196 27.0439 8.3383 27.0495 8.30546V3.83453H25.1457C25.0852 3.83453 25.0271 3.8106 24.9843 3.768C24.9415 3.7254 24.9175 3.66763 24.9175 3.60738V2.92508C24.9162 2.89491 24.9212 2.86479 24.9322 2.83665C24.9432 2.8085 24.96 2.78294 24.9814 2.76159C25.0029 2.74023 25.0286 2.72354 25.0569 2.71259C25.0851 2.70163 25.1154 2.69664 25.1457 2.69794H30.1717C30.2021 2.69664 30.2323 2.70163 30.2606 2.71259C30.2889 2.72354 30.3146 2.74023 30.336 2.76159C30.3575 2.78294 30.3743 2.8085 30.3853 2.83665C30.3963 2.86479 30.4013 2.89491 30.4 2.92508V3.60695C30.3959 3.66585 30.3706 3.72129 30.3286 3.76304C30.2866 3.80478 30.2309 3.83002 30.1717 3.83409H28.268V8.30502C28.2693 8.33519 28.2643 8.36531 28.2533 8.39345C28.2422 8.4216 28.2255 8.44716 28.204 8.46852C28.1826 8.48987 28.1569 8.50656 28.1286 8.51751C28.1003 8.52847 28.07 8.53346 28.0397 8.53216L28.041 8.57053ZM23.015 8.57053H19.5098C19.4796 8.566 19.4506 8.55548 19.4246 8.5396C19.3986 8.52373 19.376 8.50281 19.3582 8.47809C19.3404 8.45337 19.3278 8.42536 19.3211 8.3957C19.3144 8.36605 19.3138 8.33536 19.3192 8.30546V7.62315C19.3151 7.56806 19.3326 7.51351 19.3682 7.4711C19.4038 7.42869 19.4546 7.40175 19.5098 7.39601H23.2415C23.3424 7.39578 23.4392 7.35579 23.5105 7.28479C23.5819 7.21379 23.6221 7.11756 23.6223 7.01715V6.5245C23.6155 6.42623 23.5732 6.33372 23.5033 6.26408C23.4333 6.19443 23.3403 6.15236 23.2415 6.14563H20.7678C20.2787 6.20022 19.7875 6.06446 19.3968 5.76677C19.2459 5.59071 19.1339 5.38501 19.0681 5.16305C19.0024 4.94108 18.9843 4.70783 19.0152 4.47846V4.4026C18.9837 4.17898 19.0014 3.95121 19.0671 3.73508C19.1329 3.51895 19.2451 3.31962 19.3959 3.15092C19.5819 2.98888 19.8004 2.86804 20.0369 2.79641C20.2734 2.72478 20.5226 2.704 20.7678 2.73543H24.0806C24.1116 2.73107 24.1432 2.73394 24.1729 2.74381C24.2026 2.75369 24.2296 2.77029 24.2517 2.79232C24.2738 2.81435 24.2905 2.8412 24.3004 2.87075C24.3104 2.90029 24.3133 2.93173 24.3089 2.96258V3.64488C24.3102 3.67505 24.3052 3.70517 24.2941 3.73331C24.2831 3.76146 24.2664 3.78702 24.2449 3.80838C24.2234 3.82973 24.1978 3.84642 24.1695 3.85737C24.1412 3.86833 24.1109 3.87332 24.0806 3.87202H20.5754C20.4744 3.87202 20.3776 3.91194 20.3062 3.98299C20.2348 4.05404 20.1947 4.1504 20.1947 4.25088V4.70561C20.1949 4.80602 20.2351 4.90225 20.3064 4.97325C20.3778 5.04425 20.4745 5.08424 20.5754 5.08447H23.0124C23.2634 5.05392 23.518 5.07516 23.7603 5.14687C24.0027 5.21858 24.2276 5.33922 24.421 5.50126C24.5668 5.67287 24.6757 5.87231 24.7412 6.08732C24.8067 6.30234 24.8273 6.5284 24.8018 6.75164V6.90336C24.824 7.12645 24.8018 7.3517 24.7365 7.56625C24.6711 7.7808 24.564 7.98043 24.421 8.15374C24.2277 8.31566 24.003 8.43624 23.7607 8.50794C23.5185 8.57965 23.2641 8.60096 23.0133 8.57053H23.015ZM41.3296 3.37981C41.0498 3.13554 40.7238 2.94939 40.3707 2.83229C40.0176 2.7152 39.6445 2.66952 39.2734 2.69794H36.6068C36.5758 2.69358 36.5442 2.69645 36.5145 2.70632C36.4848 2.71619 36.4579 2.7328 36.4357 2.75483C36.4136 2.77686 36.3969 2.8037 36.387 2.83325C36.377 2.8628 36.3742 2.89424 36.3785 2.92508V8.34295C36.377 8.36825 36.3809 8.39359 36.3899 8.41729C36.399 8.44099 36.4129 8.46252 36.431 8.48044C36.449 8.49837 36.4706 8.51228 36.4944 8.52127C36.5182 8.53027 36.5437 8.53412 36.5691 8.5326H39.2725C39.6436 8.56102 40.0167 8.51534 40.3698 8.39825C40.7229 8.28115 41.049 8.095 41.3287 7.85073C41.862 7.35808 42.014 6.75207 42.014 5.65342V5.61549C42.0136 4.47846 41.8615 3.91039 41.3283 3.37981H41.3296ZM40.7964 5.65298C40.7964 6.41071 40.7964 6.75164 40.4538 7.05464C40.1383 7.32625 39.7276 7.46247 39.3115 7.4335H37.5966V3.7966H39.2721C39.4847 3.77019 39.7005 3.79043 39.9045 3.85588C40.1084 3.92133 40.2954 4.03041 40.4524 4.17546C40.7592 4.44053 40.8332 4.8194 40.8332 5.57712L40.7964 5.65298ZM43.7666 8.57053H43.0038C42.9703 8.571 42.9371 8.56413 42.9066 8.55043C42.8761 8.53672 42.849 8.5165 42.8272 8.49121C42.8055 8.46591 42.7895 8.43616 42.7806 8.40406C42.7717 8.37196 42.7699 8.3383 42.7755 8.30546V2.92508C42.7742 2.89491 42.7792 2.86479 42.7902 2.83665C42.8012 2.8085 42.818 2.78294 42.8395 2.76159C42.8609 2.74023 42.8866 2.72354 42.9149 2.71259C42.9432 2.70163 42.9735 2.69664 43.0038 2.69794H43.7653C43.7963 2.69358 43.8279 2.69645 43.8576 2.70632C43.8873 2.71619 43.9143 2.7328 43.9364 2.75483C43.9585 2.77686 43.9752 2.8037 43.9851 2.83325C43.9951 2.8628 43.9979 2.89424 43.9936 2.92508V8.30502C43.9936 8.45674 43.9173 8.53216 43.803 8.53216L43.7666 8.57053ZM35.8466 8.19167L33.3321 3.0768C33.2751 2.94501 33.1815 2.83218 33.0622 2.75163C32.9429 2.67107 32.8029 2.62615 32.6588 2.62216C32.5147 2.61818 32.3724 2.65529 32.2488 2.72913C32.1252 2.80296 32.0254 2.91044 31.9611 3.03887L29.4483 8.19167C29.4269 8.22313 29.4151 8.26011 29.4143 8.29813C29.4135 8.33614 29.4238 8.37357 29.444 8.40586C29.4642 8.43816 29.4933 8.46394 29.5279 8.48009C29.5625 8.49624 29.6011 8.50206 29.6389 8.49685H30.4767C30.5303 8.49573 30.5828 8.48126 30.6293 8.45476C30.6758 8.42825 30.715 8.39056 30.7431 8.34513L31.1238 7.51154H34.1698L34.5506 8.34513C34.5787 8.39056 34.6178 8.42825 34.6644 8.45476C34.7109 8.48126 34.7634 8.49573 34.817 8.49685H35.6547C35.6913 8.49814 35.7276 8.48979 35.76 8.47264C35.7923 8.4555 35.8195 8.43016 35.8389 8.3992C35.8582 8.36823 35.869 8.33273 35.8701 8.29629C35.8713 8.25985 35.8627 8.22376 35.8453 8.19167H35.8466ZM32.6481 4.17546L33.676 6.48613H31.6185L32.6464 4.17546H32.6481ZM51 8.19167L48.4868 3.03887C48.4261 2.90344 48.3273 2.7884 48.2023 2.70768C48.0773 2.62695 47.9315 2.58398 47.7825 2.58398C47.6334 2.58398 47.4876 2.62695 47.3626 2.70768C47.2376 2.7884 47.1388 2.90344 47.0781 3.03887L44.5649 8.19167C44.4887 8.34339 44.603 8.49685 44.7932 8.49685H45.5928C45.6464 8.49573 45.6989 8.48126 45.7454 8.45476C45.792 8.42825 45.8311 8.39056 45.8592 8.34513L46.24 7.51154H49.286L49.6667 8.34513C49.7031 8.39174 49.7495 8.42959 49.8026 8.45585C49.8557 8.48212 49.9141 8.49613 49.9734 8.49685H50.773C50.8097 8.49814 50.846 8.48979 50.8783 8.47264C50.9106 8.4555 50.9378 8.43016 50.9572 8.3992C50.9765 8.36823 50.9873 8.33273 50.9884 8.29629C50.9896 8.25985 50.981 8.22376 50.9636 8.19167H51ZM47.7634 4.13709L48.7913 6.44776H46.7351L47.7634 4.13709Z" fill="white"/>
</svg>
