<svg width="42" height="31" viewBox="0 0 42 31" fill="none" xmlns="http://www.w3.org/2000/svg">
<path d="M41.6983 9.39534C41.6983 8.99012 41.5055 8.60882 41.1777 8.36541L30.2579 0.259627C29.8611 -0.0344376 29.3279 -0.0822755 28.8804 0.134404C28.4344 0.35249 28.153 0.798512 28.153 1.28956V4.76628H19.3733C18.6487 4.76628 18.0605 5.34174 18.0605 6.05651V12.7384C18.0605 13.4517 18.6487 14.0286 19.3733 14.0286H28.153V17.5025C28.153 17.9936 28.4344 18.4396 28.8819 18.6577C29.0676 18.7477 29.2674 18.7928 29.4672 18.7928C29.7486 18.7928 30.0272 18.7041 30.2593 18.531L41.1791 10.4225C41.5055 10.1776 41.6983 9.79915 41.6983 9.39534ZM30.7799 14.9108V12.7384C30.7799 12.0264 30.1918 11.4482 29.4658 11.4482H20.6874V7.34532H29.4658C30.1918 7.34532 30.7799 6.76845 30.7799 6.05651V3.87986L38.2075 9.39534L30.7799 14.9108Z" fill="white"/>
<path d="M0.502874 20.6535C0.502874 21.0587 0.695632 21.44 1.02347 21.6834L11.9433 29.7892C12.34 30.0833 12.8733 30.1311 13.3207 29.9144C13.7667 29.6963 14.0481 29.2503 14.0481 28.7593L14.0481 25.2826L22.8279 25.2826C23.5525 25.2826 24.1406 24.7071 24.1406 23.9923L24.1406 17.3104C24.1406 16.5971 23.5525 16.0202 22.8279 16.0202L14.0481 16.0202L14.0481 12.5463C14.0481 12.0553 13.7667 11.6092 13.3193 11.3911C13.1336 11.3011 12.9338 11.2561 12.734 11.2561C12.4526 11.2561 12.174 11.3447 11.9419 11.5178L1.02206 19.6264C0.695633 19.8712 0.502874 20.2497 0.502874 20.6535ZM11.4213 15.138L11.4213 17.3104C11.4213 18.0224 12.0094 18.6007 12.7354 18.6007L21.5137 18.6007L21.5137 22.7035L12.7354 22.7035C12.0094 22.7035 11.4213 23.2804 11.4213 23.9923L11.4213 26.169L3.99366 20.6535L11.4213 15.138Z" fill="white"/>
</svg>
