<svg width="24" height="18" viewBox="0 0 24 18" fill="none" xmlns="http://www.w3.org/2000/svg">
<path d="M20.6063 0H2.68778C1.97494 0 1.29129 0.284464 0.787233 0.790812C0.283176 1.29716 0 1.98392 0 2.7V15.3C0 16.0161 0.283176 16.7028 0.787233 17.2092C1.29129 17.7155 1.97494 18 2.68778 18H20.6063C21.3192 18 22.0028 17.7155 22.5069 17.2092C23.0109 16.7028 23.2941 16.0161 23.2941 15.3V2.7C23.2941 1.98392 23.0109 1.29716 22.5069 0.790812C22.0028 0.284464 21.3192 0 20.6063 0ZM1.79186 5.4H21.5023V7.2H16.036C15.6229 7.20023 15.2227 7.34379 14.9029 7.6064C14.5831 7.86901 14.3634 8.23454 14.2811 8.64112C14.1556 9.24908 13.8253 9.79501 13.3459 10.1869C12.8666 10.5789 12.2674 10.7929 11.6493 10.7929C11.0312 10.7929 10.432 10.5789 9.95265 10.1869C9.47327 9.79501 9.14302 9.24908 9.01751 8.64112C8.93501 8.23378 8.7147 7.86767 8.39399 7.60498C8.07328 7.34228 7.67194 7.19919 7.25813 7.2H1.79186V5.4ZM2.68778 1.8H20.6063C20.8439 1.8 21.0718 1.89482 21.2399 2.0636C21.4079 2.23239 21.5023 2.46131 21.5023 2.7V3.6H1.79186V2.7C1.79186 2.46131 1.88625 2.23239 2.05427 2.0636C2.22229 1.89482 2.45017 1.8 2.68778 1.8ZM20.6063 16.2H2.68778C2.45017 16.2 2.22229 16.1052 2.05427 15.9364C1.88625 15.7676 1.79186 15.5387 1.79186 15.3V9H7.25701C7.46318 10.0167 8.01273 10.9305 8.81264 11.5869C9.61255 12.2432 10.6137 12.6017 11.6465 12.6017C12.6793 12.6017 13.6805 12.2432 14.4804 11.5869C15.2803 10.9305 15.8298 10.0167 16.036 9H21.5023V15.3C21.5023 15.5387 21.4079 15.7676 21.2399 15.9364C21.0718 16.1052 20.8439 16.2 20.6063 16.2Z" fill="#A9A9A9"/>
</svg>
