<svg width="31" height="19" viewBox="0 0 31 19" fill="none" xmlns="http://www.w3.org/2000/svg">
<path fill-rule="evenodd" clip-rule="evenodd" d="M11.9801 14.4783H18.5599C18.9976 15.9931 20.0052 17.2816 21.3735 18.0716C22.7766 18.8816 24.444 19.1012 26.0089 18.6818C26.0101 18.6815 26.0112 18.6812 26.0124 18.6809C27.5773 18.2616 28.9116 17.2378 29.7216 15.8347C30.5317 14.4316 30.7512 12.7642 30.3319 11.1993C29.7672 9.09195 29.1089 6.63501 28.5442 4.52766C28.1249 2.96275 27.1011 1.62847 25.698 0.818418C24.295 0.00836401 22.6276 -0.211155 21.0627 0.208163C21.0615 0.208458 21.0603 0.208786 21.0591 0.209114C20.1588 0.450322 19.3348 0.891656 18.6431 1.4902C18.6435 1.4898 11.8965 1.4898 11.8965 1.4898C11.2056 0.891853 10.3815 0.450387 9.48092 0.209081C9.47977 0.208785 9.47859 0.208458 9.47744 0.208163C7.91252 -0.211155 6.24509 0.00836401 4.84204 0.818418C3.43896 1.62847 2.41516 2.96275 1.99585 4.52766C1.43117 6.63501 0.772841 9.09195 0.208162 11.1993C-0.211155 12.7642 0.0083642 14.4316 0.818418 15.8347C1.62851 17.2378 2.96275 18.2616 4.52766 18.6809C4.52884 18.6812 4.52999 18.6815 4.53117 18.6818C6.09609 19.1012 7.76348 18.8816 9.16657 18.0716C10.5348 17.2816 11.5424 15.9931 11.9801 14.4783ZM20.3405 13.2055C20.1072 12.4048 19.3605 12.4274 19.3452 12.4275C15.2376 12.4403 11.1949 12.4275 11.1949 12.4275C10.6636 12.4402 10.3089 12.7923 10.1996 13.2055C10.13 13.4687 10.0893 13.6167 10.0358 13.8168C9.94958 14.1395 9.94932 14.1395 10.0318 13.8316C9.75329 14.8711 9.07318 15.7574 8.14116 16.2955C7.20914 16.8336 6.10151 16.9794 5.06196 16.7009L5.05845 16.7C4.0189 16.4214 3.13259 15.7413 2.59449 14.8093C2.05639 13.8773 1.91057 12.7696 2.18912 11.7301C2.75376 9.62273 3.41209 7.16579 3.97677 5.05844C4.25532 4.0189 4.9354 3.13259 5.86745 2.59445C6.79947 2.05635 7.90711 1.91053 8.94662 2.18908L8.95013 2.19003C9.64413 2.37598 10.2698 2.7409 10.7692 3.24028C10.9615 3.43259 11.2223 3.54062 11.4943 3.54062H19.0458C19.3177 3.54062 19.5786 3.43259 19.7708 3.24028C20.2702 2.7409 20.8959 2.37598 21.5899 2.19003L21.5934 2.18908C22.633 1.91053 23.7406 2.05635 24.6726 2.59445C25.6047 3.13259 26.2848 4.0189 26.5633 5.05844C27.128 7.16579 27.7863 9.62273 28.351 11.7301C28.6295 12.7696 28.4837 13.8773 27.9456 14.8093C27.4075 15.7413 26.5212 16.4214 25.4816 16.7L25.4781 16.7009C24.4385 16.9794 23.3309 16.8336 22.3989 16.2955C21.4761 15.7627 20.8002 14.8885 20.5166 13.8622L20.3405 13.2055ZM11.9741 14.4783H11.9736L11.9708 14.4858L11.9494 14.5349C11.9582 14.5164 11.9664 14.4975 11.9741 14.4783ZM7.0668 6.82867H6.04874C5.48282 6.82867 5.02334 7.28815 5.02334 7.85408C5.02334 8.42 5.48282 8.87948 6.04874 8.87948H7.0668V9.89754C7.0668 10.4635 7.52625 10.9229 8.0922 10.9229C8.65813 10.9229 9.11761 10.4635 9.11761 9.89754V8.87948H10.1356C10.7016 8.87948 11.161 8.42 11.161 7.85408C11.161 7.28815 10.7016 6.82867 10.1356 6.82867H9.11761V5.81062C9.11761 5.24469 8.65813 4.78521 8.0922 4.78521C7.52625 4.78521 7.0668 5.24469 7.0668 5.81062V6.82867Z" fill="white"/>
<path fill-rule="evenodd" clip-rule="evenodd" d="M21.3704 9.83763C21.3704 9.2387 21.8566 8.75241 22.4556 8.75241C23.0546 8.75241 23.5408 9.2387 23.5408 9.83763C23.5408 10.4366 23.0546 10.9229 22.4556 10.9229C21.8566 10.9229 21.3704 10.4366 21.3704 9.83763ZM24.4392 6.7688C25.0382 6.7688 25.5245 7.25506 25.5245 7.85402C25.5245 8.45299 25.0382 8.93925 24.4392 8.93925C23.8403 8.93925 23.354 8.45299 23.354 7.85402C23.354 7.25506 23.8403 6.7688 24.4392 6.7688ZM20.472 6.7688C21.0709 6.7688 21.5572 7.25506 21.5572 7.85402C21.5572 8.45299 21.0709 8.93925 20.472 8.93925C19.873 8.93925 19.3867 8.45299 19.3867 7.85402C19.3867 7.25506 19.873 6.7688 20.472 6.7688ZM21.3704 5.87041C21.3704 5.27144 21.8566 4.78516 22.4556 4.78516C23.0546 4.78516 23.5408 5.27144 23.5408 5.87041C23.5408 6.46935 23.0546 6.95564 22.4556 6.95564C21.8566 6.95564 21.3704 6.46935 21.3704 5.87041Z" fill="white"/>
</svg>
