<svg width="47" height="15" viewBox="0 0 47 15" fill="none" xmlns="http://www.w3.org/2000/svg">
<path d="M6.37506 1.04449C5.84446 1.1113 5.3226 1.23505 4.81849 1.41358C4.46079 1.53085 4.12146 1.69806 3.81055 1.91026C3.81055 1.94353 3.90943 1.97269 4.06982 1.9891C4.99784 2.20035 5.88239 2.57033 6.68446 3.08271C6.84328 3.18695 7.01324 3.27315 7.19117 3.3397C7.36794 3.27442 7.53622 3.18814 7.69241 3.08271C8.2927 2.72336 8.92224 2.4153 9.57433 2.16179C9.79162 2.09368 10.0131 2.03965 10.2373 2.00003C10.4515 1.97087 10.5627 1.9335 10.5627 1.9007C10.5627 1.7804 9.60304 1.36984 8.93593 1.20397C8.10027 0.988145 7.23105 0.934012 6.37506 1.04449Z" fill="white"/>
<path d="M2.39267 2.97511C1.32925 4.02504 0.659038 5.40859 0.494346 6.89388C0.398835 7.60981 0.428128 8.33689 0.580924 9.04282C0.743817 9.84081 1.05379 10.6015 1.495 11.2861C1.7684 11.6925 1.81397 11.6884 1.84495 11.2528C1.97254 9.61697 3.23475 7.37279 5.32856 5.06618C5.45316 4.93783 5.56488 4.79757 5.66211 4.64742C5.33125 4.25994 4.96748 3.90181 4.57488 3.57705C4.09834 3.12662 3.53509 2.77794 2.91943 2.55225C2.8292 2.55225 2.71346 2.64748 2.39267 2.97511Z" fill="white"/>
<path d="M11.1505 2.67404C10.4481 3.05988 9.80582 3.5462 9.24395 4.11761C9.06019 4.27897 8.89456 4.45987 8.75 4.65712C8.88085 4.85936 9.03117 5.0483 9.19884 5.22124C10.976 7.21662 12.106 9.12087 12.456 10.7139C12.5018 10.9185 12.5294 11.1268 12.5384 11.3363C12.5384 11.5687 12.5467 11.5979 12.6168 11.5979C12.9236 11.2829 13.1631 10.9088 13.3208 10.4984C13.7835 9.54133 13.9919 8.48127 13.926 7.42031C13.9132 6.13576 13.5034 4.88661 12.7526 3.8442C12.4096 3.3479 11.9866 2.91198 11.5009 2.5542C11.3788 2.57676 11.2608 2.61714 11.1505 2.67404Z" fill="white"/>
<path d="M6.73294 6.33606C5.65213 7.29879 4.64968 8.34604 3.73508 9.46788C2.95679 10.4553 2.12109 11.7918 2.12109 12.0397C2.35185 12.3625 2.62936 12.6492 2.94449 12.8904C3.67716 13.4707 4.52126 13.8942 5.42442 14.1347C6.32757 14.3752 7.27051 14.4275 8.19473 14.2884C9.65528 14.0667 11.0078 13.3872 12.0575 12.3477C12.2265 12.186 12.2511 12.1404 12.2511 11.9909C12.247 11.2277 10.7606 9.33619 8.30227 6.96716C7.97068 6.60831 7.60436 6.2832 7.20866 5.99658C7.03244 6.08271 6.87169 6.19742 6.73294 6.33606Z" fill="white"/>
<path d="M40.6589 3.35205L43.1197 6.69433L45.5786 3.35205H46.7122L43.6918 7.45121L46.9991 11.9602H45.8683L43.1197 8.22781L40.372 11.9602H39.2402L42.5458 7.45121L39.5272 3.35295L40.6589 3.35205Z" fill="white"/>
<path d="M30.7342 7.77592C30.5633 7.63137 30.3736 7.51069 30.1702 7.41721C30.4827 7.25098 30.744 7.0028 30.9262 6.69931C31.1083 6.39582 31.2044 6.04847 31.2041 5.69451C31.2041 5.14389 31.0015 3.35303 28.4062 3.35303H24.9088V7.06298H23.743C23.5914 7.25938 23.2489 7.73198 23.1152 7.92658H24.9088V11.9621H28.4062C30.2993 11.9621 31.4759 11.0007 31.4759 9.4511C31.4841 9.13493 31.4217 8.82092 31.2932 8.53191C31.1648 8.2429 30.9735 7.98617 30.7333 7.7804M25.8791 4.25429H28.408C29.0931 4.25429 30.2383 4.42467 30.2383 5.62187C30.2383 6.52671 29.5702 7.06657 28.408 7.06657H25.8791V4.25429ZM28.408 11.0653H25.8791V7.93106H28.408C29.3667 7.93106 30.5136 8.20009 30.5136 9.43137C30.5136 10.8519 29.1945 11.0653 28.408 11.0653Z" fill="white"/>
<path d="M36.0232 3.15381C33.602 3.15381 31.916 5.00296 31.916 7.65024C31.916 10.2975 33.6055 12.1503 36.0232 12.1503C38.441 12.1503 40.1233 10.302 40.1233 7.65024C40.1233 4.99847 38.4383 3.15381 36.0232 3.15381ZM36.0232 11.24C34.1813 11.24 32.8917 9.76393 32.8917 7.65293C32.8917 5.54192 34.1822 4.06583 36.0232 4.06583C37.8643 4.06583 39.1458 5.54192 39.1458 7.65293C39.1458 9.76393 37.8625 11.24 36.0232 11.24Z" fill="white"/>
<path d="M16.9731 3.35303L19.9898 7.45129L16.6816 11.9594H17.8152L20.5611 8.2279L23.3088 11.9594H24.4414L21.1332 7.45129L24.1518 3.35303H23.0209L20.5602 6.6962L18.1012 3.35303H16.9731Z" fill="white"/>
</svg>
