<svg width="25" height="18" viewBox="0 0 25 18" fill="none" xmlns="http://www.w3.org/2000/svg">
<path d="M17.8588 5.06966V4.5C17.8588 1.935 14.0202 0 8.92941 0C3.83863 0 0 1.935 0 4.5V8.59091C0 10.7274 2.6636 12.4251 6.49412 12.9334V13.5C6.49412 16.065 10.3328 18 15.4235 18C20.5143 18 24.3529 16.065 24.3529 13.5V9.40909C24.3529 7.29205 21.7736 5.59227 17.8588 5.06966ZM22.7294 9.40909C22.7294 10.7611 19.6051 12.2727 15.4235 12.2727C15.045 12.2727 14.6696 12.2594 14.2992 12.2349C16.488 11.431 17.8588 10.125 17.8588 8.59091V6.72341C20.8897 7.17852 22.7294 8.41398 22.7294 9.40909ZM6.49412 11.2756V8.8425C7.3016 8.94855 8.11511 9.00116 8.92941 9C9.74372 9.00116 10.5572 8.94855 11.3647 8.8425V11.2756C10.5584 11.3956 9.74444 11.4554 8.92941 11.4545C8.11438 11.4554 7.3004 11.3956 6.49412 11.2756ZM16.2353 7.15193V8.59091C16.2353 9.44898 14.976 10.3705 12.9882 10.9299V8.53977C14.2982 8.21966 15.4073 7.74307 16.2353 7.15193ZM8.92941 1.63636C13.111 1.63636 16.2353 3.14795 16.2353 4.5C16.2353 5.85205 13.111 7.36364 8.92941 7.36364C4.74781 7.36364 1.62353 5.85205 1.62353 4.5C1.62353 3.14795 4.74781 1.63636 8.92941 1.63636ZM1.62353 8.59091V7.15193C2.45153 7.74307 3.5606 8.21966 4.87059 8.53977V10.9299C2.88278 10.3705 1.62353 9.44898 1.62353 8.59091ZM8.11765 13.5V13.0735C8.38451 13.0837 8.65443 13.0909 8.92941 13.0909C9.32312 13.0909 9.70769 13.0776 10.0852 13.0551C10.5045 13.2064 10.9316 13.3348 11.3647 13.4397V15.839C9.3769 15.2795 8.11765 14.3581 8.11765 13.5ZM12.9882 16.1847V13.7455C13.7955 13.8548 14.609 13.9095 15.4235 13.9091C16.2378 13.9102 17.0513 13.8576 17.8588 13.7516V16.1847C16.2439 16.4233 14.6031 16.4233 12.9882 16.1847ZM19.4824 15.839V13.4489C20.7923 13.1287 21.9014 12.6522 22.7294 12.061V13.5C22.7294 14.3581 21.4702 15.2795 19.4824 15.839Z" fill="white"/>
</svg>
