<svg width="53" height="18" viewBox="0 0 53 18" fill="none" xmlns="http://www.w3.org/2000/svg">
<path d="M6.8623 2V15.3648L9.8901 16.325V5.11161C9.8901 4.59419 10.1238 4.2368 10.5022 4.35771C10.9971 4.49462 11.093 4.98003 11.093 5.50189V9.98261C12.9801 10.8939 14.4629 9.98261 14.4629 7.58223C14.4629 5.11783 13.5967 4.0261 11.0406 3.15218C9.67159 2.68661 8.27641 2.30189 6.8623 2Z" fill="white"/>
<path d="M10.5525 14.3409L15.4283 12.5948C15.9809 12.3966 16.0662 12.113 15.6175 11.9672C15.0154 11.8272 14.3861 11.8596 13.8015 12.0605L10.5525 13.2074V11.3831L10.7391 11.3209C11.4738 11.0817 12.2312 10.9193 12.9993 10.8363C14.4206 10.6908 15.8565 10.8626 17.2034 11.3395C18.6329 11.7956 18.7937 12.4624 18.4312 12.9238C18.0754 13.2728 17.6475 13.5395 17.1776 13.7052L10.5525 16.1056V14.3409ZM1.38653 14.1942C-0.0722793 13.7799 -0.314822 12.9167 0.355059 12.4161C0.87166 12.0774 1.42976 11.8066 2.01555 11.6107L6.33335 10.0469V11.8143L3.23981 12.9407C2.69076 13.1389 2.60813 13.4199 3.05146 13.5692C3.64974 13.7092 4.27541 13.6765 4.85588 13.475L6.34579 12.9273V14.5276L6.04905 14.5747C4.49464 14.8295 2.90155 14.6997 1.40874 14.1969" fill="white"/>
<path d="M42.3313 0.0102937H38.4957C38.2789 -0.0133493 38.0596 0.0106324 37.853 0.0805662C37.6464 0.1505 37.4576 0.264701 37.2997 0.415198C37.1418 0.565696 37.0186 0.748865 36.9387 0.951922C36.8588 1.15498 36.8242 1.37303 36.8372 1.59086V4.30856C36.8372 4.86176 36.574 5.25954 36.0211 5.25954H32.4084C32.3975 5.25954 32.387 5.26389 32.3793 5.27163C32.3715 5.27937 32.3672 5.28986 32.3672 5.30081V5.84698C32.3672 5.85793 32.3715 5.86843 32.3793 5.87617C32.387 5.88391 32.3975 5.88826 32.4084 5.88826H36.4344C36.6513 5.91202 36.8708 5.88813 37.0775 5.81827C37.2842 5.7484 37.4732 5.63424 37.6313 5.48374C37.7894 5.33324 37.9128 5.15004 37.9928 4.94692C38.0728 4.74379 38.1076 4.52564 38.0947 4.30768V1.59086C38.0947 1.03591 38.3579 0.63813 38.909 0.63813H42.3313C42.3367 0.63813 42.3421 0.637063 42.3471 0.634989C42.3521 0.632915 42.3566 0.629875 42.3604 0.626043C42.3643 0.622211 42.3673 0.617661 42.3694 0.612653C42.3715 0.607646 42.3725 0.60228 42.3725 0.59686V0.0524416C42.3725 0.041496 42.3682 0.0309991 42.3604 0.0232594C42.3527 0.0155197 42.3422 0.0102937 42.3313 0.0102937Z" fill="white"/>
<path d="M30.9925 0.0113553H24.0452C24.0343 0.0113553 24.0238 0.0157037 24.0161 0.0234434C24.0083 0.0311831 24.004 0.04168 24.004 0.0526256V0.598801C24.0045 0.609905 24.0092 0.620403 24.0172 0.628096C24.0252 0.635789 24.0359 0.64008 24.047 0.640071H30.5756C31.1285 0.640071 31.39 1.03785 31.39 1.59105C31.39 2.14425 31.1267 2.54378 30.5756 2.54378H25.408C25.2117 2.5508 25.0188 2.5974 24.8409 2.68078C24.663 2.76416 24.5037 2.88261 24.3726 3.02903C24.2415 3.17546 24.1413 3.34685 24.078 3.53294C24.0146 3.71903 23.9895 3.916 24.004 4.11205V5.84541C24.0037 5.8509 24.0046 5.85638 24.0066 5.8615C24.0086 5.86662 24.0116 5.87127 24.0155 5.87515C24.0194 5.87903 24.0241 5.88206 24.0292 5.88405C24.0343 5.88604 24.0398 5.88693 24.0452 5.88668H25.2211C25.232 5.88668 25.2425 5.88233 25.2503 5.87459C25.258 5.86685 25.2623 5.85636 25.2623 5.84541V4.11118C25.2623 3.55798 25.5826 3.16986 26.0389 3.16986H30.9898C31.2066 3.1935 31.426 3.16952 31.6325 3.09959C31.8391 3.02965 32.0279 2.91545 32.1859 2.76495C32.3438 2.61446 32.467 2.43129 32.5468 2.22823C32.6267 2.02517 32.6613 1.80712 32.6483 1.58929C32.6612 1.3715 32.6265 1.15351 32.5465 0.950529C32.4666 0.747545 32.3434 0.56444 32.1855 0.413976C32.0276 0.263511 31.8389 0.149305 31.6324 0.0793149C31.4259 0.00932473 31.2066 -0.014766 30.9898 0.00872161" fill="white"/>
<path d="M51.4594 4.63247H50.2836C50.2725 4.63248 50.2618 4.62819 50.2538 4.6205C50.2458 4.6128 50.2411 4.6023 50.2406 4.5912V0.639777C50.2406 0.0312578 49.8203 -0.166313 49.2297 0.20073L42.143 4.5552C41.8639 4.73082 41.7709 4.91873 41.8385 5.06186C41.906 5.20499 42.0482 5.26997 42.3553 5.26997H48.9305C48.9391 5.2709 48.9472 5.2743 48.9539 5.27975C48.9606 5.28521 48.9656 5.29248 48.9682 5.3007V5.85566C48.9682 5.86677 48.9725 5.87746 48.9802 5.88548C48.9879 5.8935 48.9984 5.89823 49.0095 5.89868H50.1906C50.2017 5.89823 50.2122 5.8935 50.2199 5.88548C50.2275 5.87746 50.2318 5.86677 50.2318 5.85566V5.30773C50.2318 5.29661 50.2361 5.28593 50.2438 5.2779C50.2515 5.26988 50.262 5.26515 50.2731 5.2647H51.4594C51.4706 5.26471 51.4812 5.26042 51.4893 5.25272C51.4973 5.24503 51.502 5.23453 51.5025 5.22343V4.67901C51.502 4.66791 51.4973 4.65741 51.4893 4.64971C51.4812 4.64202 51.4706 4.63773 51.4594 4.63774M48.9779 4.59296C48.9779 4.60407 48.9736 4.61476 48.9659 4.62278C48.9582 4.6308 48.9477 4.63553 48.9366 4.63598H43.4259C43.3811 4.63598 43.3583 4.62369 43.3522 4.60876C43.346 4.59383 43.3522 4.56398 43.3934 4.54115L48.877 1.16137C48.9147 1.13766 48.9787 1.14205 48.9787 1.21669L48.9779 4.59296Z" fill="white"/>
<path d="M38.7336 11.4413C38.4979 11.4149 38.2592 11.4402 38.0343 11.5156C37.8094 11.5909 37.6036 11.7145 37.4314 11.8776C37.2591 12.0408 37.1245 12.2396 37.0369 12.4602C36.9493 12.6808 36.9109 12.9179 36.9244 13.1548V15.8431C36.9341 15.9837 36.9158 16.1249 36.8703 16.2583C36.8248 16.3918 36.7531 16.5148 36.6595 16.6201C36.5659 16.7255 36.4522 16.8111 36.3251 16.8719C36.198 16.9327 36.06 16.9674 35.9193 16.9742H32.7768C32.765 16.9742 32.7536 16.9789 32.7452 16.9873C32.7368 16.9957 32.7321 17.0071 32.7321 17.019V17.6115C32.7321 17.6233 32.7368 17.6347 32.7452 17.6431C32.7536 17.6515 32.765 17.6563 32.7768 17.6563H36.4812C37.6965 17.6563 38.2923 17.0162 38.2923 16.0506V13.1548C38.2884 13.0173 38.3128 12.8805 38.3639 12.7528C38.415 12.6251 38.4918 12.5092 38.5894 12.4124C38.687 12.3156 38.8035 12.2398 38.9316 12.1898C39.0596 12.1397 39.1966 12.1165 39.334 12.1216H42.4937C42.4996 12.1216 42.5054 12.1204 42.5109 12.1182C42.5163 12.1159 42.5212 12.1126 42.5254 12.1085C42.5295 12.1043 42.5328 12.0994 42.5351 12.0939C42.5373 12.0885 42.5385 12.0827 42.5385 12.0768V11.4861C42.5385 11.4802 42.5373 11.4744 42.5351 11.469C42.5328 11.4635 42.5295 11.4586 42.5254 11.4544C42.5212 11.4503 42.5163 11.447 42.5109 11.4447C42.5054 11.4425 42.4996 11.4413 42.4937 11.4413H38.7336ZM31.3569 11.4121H24.0514C24.0395 11.4121 24.0281 11.4168 24.0197 11.4252C24.0113 11.4336 24.0066 11.445 24.0066 11.4569V12.1024C24.0071 12.1145 24.0122 12.1258 24.0209 12.1342C24.0296 12.1426 24.0412 12.1472 24.0532 12.1472H30.9064C31.0293 12.1517 31.1501 12.1808 31.2616 12.2327C31.3732 12.2846 31.4732 12.3583 31.5559 12.4495C31.6385 12.5406 31.7021 12.6474 31.743 12.7635C31.7838 12.8796 31.801 13.0027 31.7936 13.1256C31.7993 13.3717 31.7104 13.6105 31.5454 13.793C31.3803 13.9756 31.1516 14.0878 30.9064 14.1067H25.5417C25.3247 14.1191 25.1123 14.1746 24.917 14.2701C24.7217 14.3656 24.5474 14.4992 24.4043 14.6629C24.2611 14.8266 24.1521 15.0173 24.0835 15.2237C24.0149 15.4301 23.9882 15.6481 24.0048 15.865V17.6398C24.0045 17.6458 24.0055 17.6517 24.0077 17.6573C24.0098 17.6628 24.0131 17.6679 24.0173 17.6721C24.0215 17.6763 24.0266 17.6796 24.0321 17.6817C24.0377 17.6839 24.0436 17.6849 24.0496 17.6846H25.3288C25.3407 17.6846 25.3521 17.6799 25.3605 17.6715C25.3689 17.6631 25.3736 17.6517 25.3736 17.6398V15.8586C25.3623 15.5929 25.4554 15.3332 25.633 15.1353C25.8107 14.9374 26.0586 14.817 26.3239 14.7998L31.3496 14.8382C31.5857 14.8652 31.8249 14.8401 32.0503 14.7648C32.2757 14.6894 32.482 14.5657 32.6545 14.4021C32.8271 14.2386 32.9618 14.0393 33.0492 13.8181C33.1367 13.5969 33.1747 13.3593 33.1606 13.1219C33.174 12.8851 33.1357 12.6482 33.0482 12.4278C32.9608 12.2073 32.8263 12.0086 32.6542 11.8455C32.4822 11.6824 32.2766 11.5588 32.0519 11.4833C31.8272 11.4078 31.5888 11.3822 31.3532 11.4084" fill="white"/>
<path fill-rule="evenodd" clip-rule="evenodd" d="M43.9044 11.4404H52.6655C52.707 11.4404 52.7277 11.4566 52.7277 11.4889V12.0896C52.7277 12.1189 52.707 12.132 52.6655 12.129H45.2459C45.2056 12.129 45.1801 12.1427 45.17 12.1701V13.6203C45.1718 13.7394 45.2193 13.8533 45.3026 13.9384C45.386 14.0235 45.4988 14.0733 45.6177 14.0775H51.1917C51.4285 14.0726 51.6639 14.1152 51.884 14.2029C52.1041 14.2906 52.3044 14.4216 52.4731 14.5881C52.6417 14.7545 52.7754 14.9531 52.866 15.1722C52.9567 15.3912 53.0025 15.6262 53.0009 15.8632C53.0023 16.3182 52.8313 16.7568 52.5224 17.0906C52.2134 17.4243 51.7895 17.6285 51.336 17.6618H43.909C43.8725 17.6618 43.8551 17.6563 43.8551 17.6115C43.8551 17.5667 43.8551 17.0464 43.8551 17.0181C43.8551 16.9897 43.867 16.9751 43.909 16.9751H50.4625C50.7633 16.9779 51.0533 16.8634 51.2712 16.6559C51.489 16.4483 51.6175 16.164 51.6294 15.8632C51.6222 15.5931 51.5156 15.3351 51.3302 15.1387C51.1447 14.9423 50.8933 14.8213 50.6242 14.7989H44.7406C44.6212 14.7956 44.5038 14.7675 44.3959 14.7163C44.288 14.6651 44.1919 14.5921 44.1137 14.5017C44.0186 14.405 43.9464 14.2882 43.9024 14.1599C43.8585 14.0315 43.8439 13.8949 43.8597 13.7602V11.4925C43.8506 11.4569 43.8688 11.4404 43.9044 11.4404Z" fill="white"/>
</svg>
