<svg width="37" height="26" viewBox="0 0 37 26" fill="none" xmlns="http://www.w3.org/2000/svg">
    <path d="M32.1601 0.666992H27.0105C25.9873 0.667356 25.0061 1.0601 24.2827 1.75886C23.5593 2.45761 23.1529 3.40518 23.1529 4.39319H1.28259C0.942941 4.39319 0.617207 4.52347 0.377042 4.75537C0.136877 4.98728 0.00195312 5.3018 0.00195312 5.62976V20.5373C0.00195313 20.8653 0.136877 21.1798 0.377042 21.4117C0.617207 21.6436 0.942941 21.7739 1.28259 21.7739H9.0048V23.0104H7.72417C7.38301 23.0104 7.05583 23.1413 6.8146 23.3742C6.57337 23.6072 6.43784 23.9231 6.43784 24.2525C6.43784 24.5819 6.57337 24.8979 6.8146 25.1308C7.05583 25.3637 7.38301 25.4946 7.72417 25.4946H18.0133C18.3545 25.4946 18.6817 25.3637 18.9229 25.1308C19.1641 24.8979 19.2997 24.5819 19.2997 24.2525C19.2997 23.9231 19.1641 23.6072 18.9229 23.3742C18.6817 23.1413 18.3545 23.0104 18.0133 23.0104H16.7327V21.7739H23.1529V24.258C23.1529 24.586 23.2879 24.9005 23.528 25.1324C23.7682 25.3643 24.0939 25.4946 24.4336 25.4946H34.7213C35.061 25.4946 35.3867 25.3643 35.6269 25.1324C35.867 24.9005 36.002 24.586 36.002 24.258V4.39319C36.002 3.40779 35.5977 2.46251 34.8777 1.76418C34.1577 1.06586 33.1806 0.671352 32.1601 0.666992ZM14.1501 23.0214H11.5774V21.7849H14.1501V23.0214ZM2.5746 19.2952V6.87595H23.1529V19.2952H2.5746ZM33.4407 23.0214H25.7256V4.39319C25.7256 4.06523 25.8605 3.75071 26.1007 3.5188C26.3408 3.2869 26.6666 3.15662 27.0062 3.15662H32.1601C32.4997 3.15662 32.8254 3.2869 33.0656 3.5188C33.3058 3.75071 33.4407 4.06523 33.4407 4.39319V23.0214Z" fill="white"/>
    <path d="M29.7412 18.0553C29.4848 18.0553 29.2342 18.1278 29.0209 18.2636C28.8077 18.3995 28.6416 18.5926 28.5434 18.8185C28.4453 19.0444 28.4196 19.293 28.4697 19.5328C28.5197 19.7726 28.6432 19.9929 28.8245 20.1658C29.0058 20.3387 29.2368 20.4564 29.4883 20.5041C29.7398 20.5518 30.0005 20.5273 30.2374 20.4338C30.4743 20.3402 30.6768 20.1817 30.8192 19.9784C30.9617 19.7751 31.0377 19.5361 31.0377 19.2916C31.0377 18.9637 30.9011 18.6492 30.658 18.4174C30.4148 18.1855 30.0851 18.0553 29.7412 18.0553ZM18.3999 9.72534L13.1909 14.6912C13.0634 14.8056 12.9612 14.9434 12.8905 15.0962C12.8199 15.249 12.7821 15.4138 12.7795 15.5808C12.7769 15.7478 12.8094 15.9136 12.8753 16.0684C12.9411 16.2231 13.0389 16.3637 13.1628 16.4818C13.2867 16.5998 13.4342 16.693 13.5966 16.7556C13.7589 16.8183 13.9328 16.8492 14.1079 16.8466C14.2831 16.844 14.4559 16.8078 14.6161 16.7403C14.7763 16.6728 14.9206 16.5753 15.0406 16.4536L20.2495 11.4878C20.4823 11.2515 20.6095 10.9381 20.6042 10.614C20.5988 10.2899 20.4613 9.98047 20.2209 9.75134C19.9804 9.5222 19.6558 9.39135 19.3159 9.3865C18.976 9.38164 18.6475 9.50317 18.3999 9.72534ZM12.4361 9.72534C12.3154 9.60821 12.1715 9.51518 12.0127 9.45168C11.8539 9.38818 11.6834 9.35547 11.5112 9.35547C11.3391 9.35547 11.1686 9.38818 11.0098 9.45168C10.851 9.51518 10.7071 9.60821 10.5864 9.72534L5.38033 14.6912C5.25278 14.8056 5.15064 14.9434 5.07996 15.0962C5.00929 15.249 4.97152 15.4138 4.9689 15.5808C4.96627 15.7478 4.99885 15.9136 5.0647 16.0684C5.13055 16.2231 5.22832 16.3637 5.35222 16.4818C5.47612 16.5998 5.62362 16.693 5.78597 16.7556C5.94833 16.8183 6.12223 16.8492 6.29736 16.8466C6.47249 16.844 6.64528 16.8078 6.80548 16.7403C6.96569 16.6728 7.11004 16.5753 7.22998 16.4536L12.439 11.4878C12.5616 11.3727 12.6589 11.2355 12.7254 11.0843C12.7919 10.933 12.8261 10.7706 12.8261 10.6065C12.8261 10.4425 12.7919 10.2801 12.7254 10.1288C12.6589 9.97755 12.5616 9.84039 12.439 9.72534H12.4361Z" fill="white"/>
</svg>
