<svg width="33" height="19" viewBox="0 0 33 19" fill="none" xmlns="http://www.w3.org/2000/svg">
    <path d="M0.262909 18V1.2H7.17491C8.66291 1.2 9.93491 1.44 10.9909 1.92C12.0629 2.4 12.8869 3.088 13.4629 3.984C14.0389 4.88 14.3269 5.944 14.3269 7.176C14.3269 8.408 14.0389 9.472 13.4629 10.368C12.8869 11.264 12.0629 11.952 10.9909 12.432C9.93491 12.912 8.66291 13.152 7.17491 13.152H1.99091L3.38291 11.688V18H0.262909ZM3.38291 12.024L1.99091 10.512H7.03091C8.40691 10.512 9.43891 10.224 10.1269 9.648C10.8309 9.056 11.1829 8.232 11.1829 7.176C11.1829 6.104 10.8309 5.28 10.1269 4.704C9.43891 4.128 8.40691 3.84 7.03091 3.84H1.99091L3.38291 2.304V12.024ZM25.453 18.24C24.173 18.24 22.981 18.032 21.877 17.616C20.789 17.184 19.837 16.584 19.021 15.816C18.221 15.032 17.597 14.112 17.149 13.056C16.701 12 16.477 10.848 16.477 9.6C16.477 8.352 16.701 7.2 17.149 6.144C17.597 5.088 18.229 4.176 19.045 3.408C19.861 2.624 20.813 2.024 21.901 1.608C22.989 1.176 24.181 0.959999 25.477 0.959999C26.853 0.959999 28.109 1.2 29.245 1.68C30.381 2.144 31.341 2.84 32.125 3.768L30.109 5.664C29.501 5.008 28.821 4.52 28.069 4.2C27.317 3.864 26.501 3.696 25.621 3.696C24.741 3.696 23.933 3.84 23.197 4.128C22.477 4.416 21.845 4.824 21.301 5.352C20.773 5.88 20.357 6.504 20.053 7.224C19.765 7.944 19.621 8.736 19.621 9.6C19.621 10.464 19.765 11.256 20.053 11.976C20.357 12.696 20.773 13.32 21.301 13.848C21.845 14.376 22.477 14.784 23.197 15.072C23.933 15.36 24.741 15.504 25.621 15.504C26.501 15.504 27.317 15.344 28.069 15.024C28.821 14.688 29.501 14.184 30.109 13.512L32.125 15.432C31.341 16.344 30.381 17.04 29.245 17.52C28.109 18 26.845 18.24 25.453 18.24Z" fill="white"/>
</svg>
