<svg width="38" height="30" viewBox="0 0 38 30" fill="none" xmlns="http://www.w3.org/2000/svg">
    <path d="M13.8438 0.285156V27.1315L19.9258 29.0602V6.53555C19.9258 5.4962 20.3951 4.7783 21.1554 5.02117C22.1494 5.29619 22.3422 6.27125 22.3422 7.31953V16.3201C26.1327 18.1506 29.1113 16.3201 29.1113 11.4984C29.1113 6.54805 27.3713 4.35506 22.2369 2.59959C19.4869 1.66438 16.6843 0.891575 13.8438 0.285156Z" fill="white"/>
    <path d="M21.2558 25.0738L31.0499 21.5664C32.1599 21.1682 32.3313 20.5985 31.43 20.3056C30.2206 20.0245 28.9565 20.0895 27.7822 20.4931L21.2558 22.7969V19.1323L21.6306 19.0073C23.1063 18.5269 24.6278 18.2007 26.1707 18.0341C29.0257 17.7416 31.91 18.0868 34.6156 19.0448C37.4871 19.961 37.8101 21.3003 37.082 22.2272C36.3673 22.9282 35.5077 23.464 34.5638 23.7969L21.2558 28.6186V25.0738ZM2.84377 24.7791C-0.0865961 23.9469 -0.573801 22.2129 0.771812 21.2075C1.80953 20.5269 2.9306 19.9831 4.10729 19.5895L12.7806 16.4482V19.9985L6.56652 22.2611C5.46361 22.6593 5.29764 23.2237 6.18817 23.5237C7.38995 23.8048 8.64676 23.7392 9.81276 23.3344L12.8056 22.2343V25.4488L12.2095 25.5435C9.08713 26.0552 5.88703 25.7946 2.88839 24.7845" fill="white"/>
</svg>
