<svg width="60" height="13" viewBox="0 0 60 13" fill="none" xmlns="http://www.w3.org/2000/svg">
    <path d="M39.5993 0.0532514H31.3138C30.8455 0.00217865 30.3717 0.0539831 29.9254 0.205052C29.4792 0.35612 29.0713 0.602813 28.7302 0.927912C28.389 1.25301 28.1229 1.64869 27.9504 2.08732C27.7778 2.52596 27.703 2.99699 27.7312 3.46754V9.33822C27.7312 10.5332 27.1625 11.3925 25.9683 11.3925H18.1643C18.1407 11.3925 18.118 11.4019 18.1013 11.4186C18.0846 11.4353 18.0752 11.458 18.0752 11.4816V12.6615C18.0752 12.6851 18.0846 12.7078 18.1013 12.7245C18.118 12.7412 18.1407 12.7506 18.1643 12.7506H26.8611C27.3297 12.8019 27.8037 12.7503 28.2503 12.5994C28.6968 12.4485 29.1051 12.2019 29.4466 11.8768C29.7881 11.5517 30.0546 11.1559 30.2274 10.7172C30.4003 10.2784 30.4754 9.80714 30.4475 9.33632V3.46754C30.4475 2.26874 31.0162 1.40948 32.2066 1.40948H39.5993C39.611 1.40948 39.6225 1.40718 39.6333 1.4027C39.6442 1.39822 39.654 1.39165 39.6623 1.38337C39.6705 1.37509 39.6771 1.36526 39.6816 1.35445C39.686 1.34363 39.6884 1.33204 39.6884 1.32033V0.144298C39.6884 0.120654 39.679 0.0979784 39.6623 0.0812594C39.6456 0.0645404 39.6229 0.0532514 39.5993 0.0532514Z" fill="white"/>
    <path d="M15.1049 0.0567558H0.0977231C0.0740947 0.0567558 0.0514347 0.066149 0.0347269 0.0828681C0.018019 0.0995871 0.00863749 0.122262 0.00863749 0.145907V1.32573C0.00961671 1.34972 0.0198282 1.3724 0.037142 1.38902C0.0544558 1.40563 0.0775357 1.4149 0.101527 1.41488H14.2045C15.3987 1.41488 15.9635 2.27415 15.9635 3.46915C15.9635 4.66415 15.3949 5.5272 14.2045 5.5272H3.04153C2.61742 5.54237 2.20073 5.64303 1.81641 5.82314C1.43209 6.00326 1.08804 6.25913 0.804869 6.57543C0.521697 6.89173 0.305228 7.26196 0.168413 7.66395C0.0315984 8.06595 -0.0227479 8.49143 0.00863749 8.91494V12.6593C0.00809833 12.6711 0.0100346 12.683 0.014321 12.694C0.0186075 12.7051 0.0251436 12.7151 0.0335265 12.7235C0.0419094 12.7319 0.0519613 12.7384 0.0630144 12.7427C0.0740676 12.747 0.0858802 12.749 0.0977231 12.7484H2.63778C2.66141 12.7484 2.68407 12.739 2.70077 12.7223C2.71748 12.7056 2.72686 12.6829 2.72686 12.6593V8.91304C2.72686 7.71804 3.41875 6.87964 4.40444 6.87964H15.0992C15.5675 6.93071 16.0413 6.87891 16.4875 6.72784C16.9337 6.57677 17.3417 6.33008 17.6828 6.00498C18.0239 5.67988 18.29 5.28421 18.4626 4.84557C18.6351 4.40693 18.7099 3.9359 18.6818 3.46535C18.7096 2.99488 18.6346 2.52401 18.4619 2.08553C18.2892 1.64705 18.0231 1.25151 17.6821 0.926481C17.341 0.601453 16.9332 0.35475 16.4872 0.20356C16.0411 0.0523695 15.5674 0.000329632 15.0992 0.0510667" fill="white"/>
    <path d="M59.3167 10.0365H56.7767C56.7527 10.0366 56.7296 10.0273 56.7123 10.0107C56.695 9.99405 56.6848 9.97138 56.6838 9.94739V1.41167C56.6838 0.0971678 55.7758 -0.329618 54.5001 0.463255L39.1916 9.86962C38.5888 10.249 38.3879 10.6549 38.5338 10.9641C38.6798 11.2733 38.9869 11.4136 39.6503 11.4136H53.8537C53.8723 11.4157 53.8898 11.423 53.9043 11.4348C53.9188 11.4466 53.9295 11.4623 53.9352 11.48V12.6788C53.9352 12.7028 53.9445 12.7259 53.9611 12.7432C53.9777 12.7606 54.0004 12.7708 54.0243 12.7718H56.5757C56.5997 12.7708 56.6224 12.7606 56.639 12.7432C56.6556 12.7259 56.6648 12.7028 56.6648 12.6788V11.4952C56.6648 11.4712 56.6741 11.4481 56.6907 11.4308C56.7073 11.4135 56.73 11.4032 56.7539 11.4023H59.3167C59.3407 11.4023 59.3638 11.393 59.3811 11.3764C59.3984 11.3598 59.4086 11.3371 59.4096 11.3131V10.1371C59.4086 10.1131 59.3984 10.0904 59.3811 10.0738C59.3638 10.0572 59.3407 10.0479 59.3167 10.0479M53.9561 9.95118C53.9561 9.97519 53.9468 9.99827 53.9302 10.0156C53.9136 10.0329 53.891 10.0431 53.867 10.0441H41.9629C41.8662 10.0441 41.8169 10.0176 41.8037 9.98532C41.7904 9.95308 41.8037 9.88859 41.8927 9.83927L53.7381 2.53838C53.8196 2.48717 53.958 2.49665 53.958 2.65788L53.9561 9.95118Z" fill="white"/>
</svg>
