<svg width="61" height="14" viewBox="0 0 61 14" fill="none" xmlns="http://www.w3.org/2000/svg">
    <path d="M30.5644 0.712975C30.0754 0.658086 29.5804 0.710644 29.1138 0.866981C28.6472 1.02332 28.2203 1.27967 27.8629 1.61813C27.5055 1.9566 27.2263 2.36904 27.0446 2.82665C26.863 3.28426 26.7833 3.77603 26.8112 4.26763V9.8443C26.8315 10.1361 26.7933 10.4289 26.699 10.7057C26.6046 10.9825 26.456 11.2377 26.2618 11.4563C26.0676 11.6748 25.8317 11.8524 25.568 11.9785C25.3043 12.1046 25.0181 12.1767 24.7261 12.1907H18.2073C18.1826 12.1907 18.159 12.2005 18.1416 12.2179C18.1242 12.2353 18.1144 12.259 18.1144 12.2836V13.5128C18.1144 13.5374 18.1242 13.561 18.1416 13.5785C18.159 13.5959 18.1826 13.6057 18.2073 13.6057H25.8919C28.413 13.6057 29.6489 12.2779 29.6489 10.2749V4.26763C29.6409 3.98237 29.6915 3.6985 29.7975 3.43359C29.9035 3.16867 30.0627 2.92834 30.2653 2.72744C30.4678 2.52655 30.7094 2.36936 30.975 2.2656C31.2407 2.16185 31.5248 2.11372 31.8098 2.12421H38.3646C38.3768 2.12421 38.3889 2.12181 38.4002 2.11714C38.4115 2.11247 38.4217 2.10562 38.4303 2.09699C38.439 2.08836 38.4458 2.07811 38.4505 2.06684C38.4551 2.05556 38.4575 2.04347 38.4575 2.03127V0.805919C38.4575 0.793713 38.4551 0.781627 38.4505 0.770351C38.4458 0.759074 38.439 0.748828 38.4303 0.740197C38.4217 0.731567 38.4115 0.72472 38.4002 0.720049C38.3889 0.715378 38.3768 0.712975 38.3646 0.712975H30.5644ZM15.2616 0.652276H0.106607C0.0819728 0.652276 0.0583538 0.662068 0.040935 0.679499C0.0235162 0.696929 0.0137321 0.72057 0.0137321 0.74522V2.08438C0.0147123 2.10937 0.0253255 2.13301 0.0433502 2.15034C0.0613748 2.16767 0.0853999 2.17734 0.110396 2.17732H14.3271C14.5821 2.18672 14.8326 2.24704 15.064 2.35472C15.2954 2.4624 15.5029 2.61528 15.6744 2.80437C15.8459 2.99346 15.9778 3.21495 16.0625 3.45581C16.1473 3.69667 16.183 3.95205 16.1677 4.20693C16.1794 4.71741 15.9951 5.21296 15.6527 5.59157C15.3103 5.97018 14.8359 6.20304 14.3271 6.24222H3.19827C2.74805 6.26789 2.30745 6.38315 1.90229 6.58127C1.49713 6.77939 1.13552 7.05638 0.838628 7.39604C0.541737 7.73569 0.31554 8.13119 0.173247 8.55939C0.0309548 8.98759 -0.0245642 9.43989 0.00994303 9.88982V13.5716C0.00940571 13.5839 0.0114382 13.5962 0.0159158 13.6078C0.0203935 13.6193 0.0272112 13.6297 0.0359456 13.6385C0.0446801 13.6472 0.0551361 13.654 0.0666484 13.6585C0.0781606 13.663 0.0904771 13.665 0.102818 13.6645H2.7566C2.78124 13.6645 2.80485 13.6547 2.82227 13.6373C2.83969 13.6199 2.84949 13.5962 2.84949 13.5716V9.87654C2.82604 9.32524 3.01922 8.78666 3.38768 8.37612C3.75614 7.96558 4.27058 7.71571 4.82086 7.68002L15.2464 7.75968C15.7363 7.81561 16.2324 7.76362 16.7001 7.60735C17.1677 7.45108 17.5956 7.19431 17.9536 6.85507C18.3115 6.51582 18.591 6.10231 18.7724 5.64354C18.9537 5.18477 19.0326 4.69184 19.0034 4.19934C19.0312 3.7081 18.9516 3.2167 18.7702 2.75938C18.5888 2.30207 18.3099 1.88985 17.953 1.55145C17.596 1.21305 17.1696 0.956608 16.7035 0.800003C16.2374 0.643398 15.7427 0.590395 15.254 0.644688" fill="white"/>
    <path fill-rule="evenodd" clip-rule="evenodd" d="M41.2902 0.710938H59.4649C59.5508 0.710938 59.5937 0.744451 59.5937 0.811472V2.05768C59.5937 2.11838 59.5508 2.14557 59.4649 2.13925H44.0729C43.9895 2.13925 43.9364 2.1677 43.9156 2.22461V5.23297C43.9193 5.48009 44.0178 5.71632 44.1907 5.89284C44.3636 6.06936 44.5976 6.17265 44.8444 6.18138H56.4074C56.8987 6.17123 57.387 6.25974 57.8436 6.44167C58.3002 6.6236 58.7157 6.89526 59.0656 7.2406C59.4155 7.58595 59.6927 7.99797 59.8808 8.45231C60.0688 8.90666 60.1639 9.39412 60.1605 9.88589C60.1635 10.8297 59.8088 11.7395 59.1679 12.4319C58.5269 13.1244 57.6474 13.5478 56.7068 13.6169H41.2997C41.2239 13.6169 41.1879 13.6056 41.1879 13.5126C41.1879 13.4197 41.1879 12.3404 41.1879 12.2816C41.1879 12.2228 41.2125 12.1924 41.2997 12.1924H54.8946C55.5186 12.1983 56.1203 11.9608 56.5722 11.5302C57.0241 11.0996 57.2907 10.5098 57.3153 9.88589C57.3005 9.32552 57.0794 8.79036 56.6946 8.38294C56.3099 7.97552 55.7884 7.7245 55.2302 7.67798H43.0247C42.7771 7.67111 42.5336 7.61275 42.3097 7.50662C42.0859 7.40049 41.8865 7.2489 41.7243 7.06151C41.527 6.86093 41.3773 6.61857 41.2861 6.35232C41.1949 6.08607 41.1646 5.80272 41.1974 5.52319V0.819055C41.1785 0.745079 41.2163 0.710938 41.2902 0.710938Z" fill="white"/>
</svg>
