<svg width="160" height="16" viewBox="0 0 160 16" fill="none" xmlns="http://www.w3.org/2000/svg">
    <path d="M37.5357 1.31055L41.3876 6.54331L45.2369 1.31055H47.007L42.2845 7.72558L47.4554 14.785H45.6919L41.3889 8.94205L37.0885 14.785H35.3145L40.4854 7.7269L35.7642 1.31055H37.5357Z" fill="white"/>
    <path d="M21.9991 8.23648C21.7317 8.01023 21.4349 7.82132 21.1167 7.67493C21.606 7.41467 22.0151 7.0261 22.3003 6.55092C22.5855 6.07574 22.736 5.53187 22.7355 4.97767C22.7355 4.11497 22.4173 1.3125 18.355 1.3125H12.8842V7.12128H11.0614C10.8247 7.42901 10.2882 8.17336 10.083 8.4732H12.8842V14.7857H18.355C21.3192 14.7857 23.1603 13.2799 23.1603 10.8522C23.1732 10.3572 23.0756 9.86555 22.8745 9.41305C22.6734 8.96055 22.3752 8.5586 21.9991 8.23648ZM14.3952 2.71834H18.3536C19.4255 2.71834 21.2192 2.98136 21.2192 4.85931C21.2192 6.27699 20.1672 7.12128 18.3536 7.12128H14.3952V2.71834ZM18.3536 13.3811H14.3952V8.47451H18.3536C19.8555 8.47451 21.6506 8.88877 21.6506 10.8233C21.6506 13.0471 19.5859 13.3798 18.3536 13.3798" fill="white"/>
    <path d="M30.2781 1C26.4946 1 23.8486 3.89321 23.8486 8.03971C23.8486 12.1862 26.4933 15.0834 30.2781 15.0834C34.063 15.0834 36.6971 12.1902 36.6971 8.03971C36.6971 3.88927 34.0604 1 30.2781 1ZM30.2781 13.6591C27.3954 13.6591 25.3755 11.3485 25.3755 8.03971C25.3755 4.73093 27.3954 2.42425 30.2781 2.42425C33.1608 2.42425 35.1663 4.73487 35.1663 8.03971C35.1663 11.3445 33.1569 13.6591 30.2781 13.6591Z" fill="white"/>
    <path d="M0.455024 1.31055L5.17885 7.72558L0 14.7837H1.77406L6.07311 8.94205L10.3748 14.7837H12.1475L6.96869 7.72558L11.6938 1.31055H9.9224L6.06522 6.54463L2.2212 1.31055H0.455024Z" fill="white"/>
    <path d="M103.675 1.01691C102.429 0.957706 101.198 1.30227 100.165 1.99929C99.7533 2.3079 99.4234 2.71198 99.2032 3.17664C98.983 3.64129 98.8792 4.15257 98.9008 4.6663C98.874 5.15001 98.9544 5.63365 99.1363 6.08266C99.3181 6.53166 99.597 6.93494 99.9529 7.26362C100.862 8.00268 101.951 8.48693 103.109 8.66682L104.234 8.94694C105.065 9.11181 105.869 9.39572 106.619 9.78991C106.823 9.94704 106.987 10.1503 107.098 10.383C107.208 10.6157 107.262 10.8712 107.254 11.1287C107.26 11.4492 107.194 11.767 107.061 12.0585C106.927 12.3499 106.729 12.6075 106.482 12.812C105.777 13.2119 104.975 13.4064 104.165 13.3735C103.192 13.4278 102.229 13.1562 101.428 12.6016C101.11 12.3251 100.862 11.9775 100.703 11.587C100.545 11.1965 100.48 10.7741 100.516 10.3541H98.5497C98.5067 11.0305 98.6243 11.7076 98.8928 12.3299C99.1614 12.9522 99.5733 13.5023 100.095 13.9351C101.288 14.8151 102.758 15.2383 104.236 15.1279C105.603 15.2058 106.959 14.8365 108.097 14.0758C108.545 13.7285 108.906 13.2809 109.149 12.7691C109.393 12.2573 109.513 11.6954 109.5 11.1287C109.521 10.6561 109.437 10.1848 109.255 9.74809C109.073 9.31138 108.798 8.91984 108.448 8.60107C107.473 7.83776 106.308 7.35287 105.079 7.19786L103.886 6.91774C103.067 6.78872 102.28 6.50248 101.569 6.07477C101.353 5.91365 101.182 5.70034 101.072 5.45489C100.961 5.20944 100.914 4.93989 100.937 4.67156C100.919 4.39646 100.975 4.12163 101.098 3.87512C101.222 3.62861 101.408 3.41923 101.639 3.26835C102.248 2.89234 102.961 2.72049 103.675 2.77782C104.542 2.70218 105.408 2.9254 106.131 3.41038C106.391 3.65406 106.599 3.94729 106.744 4.27276C106.888 4.59824 106.966 4.94937 106.973 5.30544H109.077C109.098 4.70738 108.982 4.11242 108.739 3.5656C108.496 3.01878 108.132 2.53443 107.674 2.14921C106.516 1.31129 105.1 0.910165 103.675 1.01691ZM153.619 1.01691C152.374 0.957706 151.143 1.30227 150.109 1.99929C149.698 2.30805 149.369 2.71219 149.149 3.17684C148.929 3.64149 148.825 4.15268 148.847 4.6663C148.82 5.15001 148.9 5.63365 149.082 6.08266C149.264 6.53166 149.543 6.93494 149.899 7.26362C150.809 8.00379 151.9 8.48853 153.059 8.66814L154.182 8.94825C155.014 9.11318 155.818 9.39708 156.569 9.79123C156.772 9.94817 156.935 10.1507 157.044 10.3824C157.154 10.6142 157.207 10.8685 157.2 11.1247C157.206 11.4453 157.14 11.7631 157.007 12.0545C156.873 12.346 156.675 12.6035 156.428 12.8081C155.723 13.2061 154.92 13.3988 154.111 13.3643C153.138 13.4186 152.175 13.147 151.373 12.5924C151.055 12.3159 150.807 11.9683 150.648 11.5778C150.489 11.1873 150.425 10.7649 150.46 10.3449H148.425C148.382 11.0213 148.499 11.6984 148.768 12.3207C149.036 12.943 149.448 13.4931 149.97 13.9259C151.163 14.8059 152.633 15.2291 154.111 15.1187C155.478 15.1966 156.834 14.8273 157.972 14.0666C158.418 13.7198 158.777 13.2735 159.02 12.7634C159.263 12.2533 159.383 11.6935 159.372 11.1287C159.448 10.6645 159.405 10.1883 159.245 9.74572C159.085 9.30316 158.815 8.90902 158.459 8.60107C157.483 7.83782 156.319 7.35293 155.09 7.19786L153.897 6.91774C153.077 6.78872 152.29 6.50248 151.58 6.07477C151.364 5.91358 151.193 5.70023 151.083 5.45477C150.972 5.2093 150.926 4.93979 150.948 4.67156C150.931 4.39646 150.987 4.12163 151.11 3.87512C151.233 3.62861 151.42 3.41923 151.651 3.26835C152.259 2.89227 152.972 2.7204 153.685 2.77782C154.552 2.70218 155.419 2.9254 156.142 3.41038C156.402 3.654 156.61 3.94718 156.755 4.27265C156.9 4.59812 156.978 4.94929 156.985 5.30544H159.02C159.041 4.70727 158.925 4.11225 158.682 3.56542C158.439 3.01859 158.074 2.5343 157.616 2.14921C156.459 1.31189 155.043 0.910797 153.619 1.01691ZM110.484 1.36804V14.9135H120.101V13.0185H112.527V8.87723H119.261V7.1229H112.527V3.19208H120.108V1.36672L110.484 1.36804ZM121.443 1.36804V14.9135H123.477V9.36908H127.415C127.718 9.34681 128.023 9.38484 128.312 9.48099C128.601 9.57714 128.868 9.72952 129.098 9.92932C129.513 10.4432 129.714 11.0967 129.66 11.7547L129.729 13.2302C129.692 13.8438 129.838 14.4547 130.15 14.9845H132.254C132.024 14.425 131.882 13.8332 131.833 13.2302L131.694 11.126C131.7 10.4836 131.53 9.85176 131.202 9.29938C130.868 8.82731 130.366 8.50116 129.799 8.38802C130.465 8.20081 131.04 7.776 131.414 7.19391C131.851 6.58148 132.073 5.84171 132.046 5.08976C132.076 4.56501 131.976 4.04106 131.756 3.56391C131.535 3.08675 131.201 2.67097 130.783 2.35305C129.775 1.65586 128.566 1.31055 127.342 1.37067L121.443 1.36804ZM133.593 1.36804V14.9135H135.629V1.36804H133.593ZM137.882 1.36804V14.9135H147.575V13.0185H139.924V8.87723H146.662V7.1229H139.924V3.19208H147.575V1.36672L137.882 1.36804ZM123.625 3.12238H127.274C127.974 3.08318 128.666 3.28051 129.24 3.68261C129.469 3.88296 129.651 4.13177 129.773 4.41106C129.894 4.69036 129.952 4.99315 129.942 5.29754C129.963 5.60724 129.918 5.91788 129.809 6.20849C129.7 6.49909 129.529 6.76292 129.31 6.98218C129.062 7.20306 128.774 7.3727 128.46 7.48128C128.147 7.58986 127.815 7.63522 127.484 7.61474H123.625V3.12238Z" fill="white"/>
    <path d="M67.714 3.96824L75.6953 14.7888H77.2024V1.33016H75.7019V12.3875L67.5575 1.32227H66.2227V14.781H67.7206L67.714 3.96824Z" fill="white"/>
    <path d="M58.4308 1.01758C54.646 1.01758 52 3.91079 52 8.05729C52 12.2038 54.646 15.1036 58.4308 15.1036C62.2157 15.1036 64.8498 12.2104 64.8498 8.05729C64.8498 3.90421 62.2117 1.01758 58.4308 1.01758ZM58.4308 13.6767C55.5481 13.6767 53.5255 11.3661 53.5255 8.05729C53.5255 4.7485 55.5468 2.44051 58.4308 2.44051C61.3148 2.44051 63.319 4.75114 63.319 8.05729C63.319 11.3634 61.3109 13.6767 58.4308 13.6767Z" fill="white"/>
    <path d="M88.3042 2.63736V1.32227H78.8789V14.7928H88.3963V13.4777H80.3886V8.49348H87.7992V7.17839H80.3886V2.63736H88.3042Z" fill="white"/>
    <path d="M93.4736 1.01758V14.5736V1.01758Z" fill="white"/>
    <path d="M93.4736 1.01758V14.5736" stroke="white" stroke-linecap="round"/>
</svg>
