<svg width="34" height="34" viewBox="0 0 34 34" fill="none" xmlns="http://www.w3.org/2000/svg">
    <path d="M14.9118 0.137492C13.5782 0.305293 12.2666 0.616186 10.9995 1.06479C10.0995 1.36022 9.24586 1.78149 8.46387 2.31607C8.46387 2.39959 8.71153 2.47302 9.11615 2.51478C11.449 3.0471 13.6722 3.97851 15.6879 5.26789C16.0868 5.53004 16.5138 5.74689 16.9608 5.91441C17.4061 5.75035 17.8301 5.53329 18.2236 5.26789C19.7324 4.36493 21.3147 3.59088 22.9537 2.95395C23.4997 2.78296 24.0562 2.64732 24.6196 2.5479C25.1582 2.47447 25.4375 2.38087 25.4375 2.29735C24.2062 1.44519 22.816 0.849708 21.3496 0.546426C19.2493 0.0010711 17.0642 -0.137732 14.9118 0.137492Z" fill="white"/>
    <path d="M4.90847 4.99517C2.2351 7.63453 0.550768 11.113 0.138054 14.847C-0.102086 16.6464 -0.0285223 18.4738 0.35548 20.2481C0.767825 22.2514 1.54905 24.1605 2.65933 25.8782C3.34185 26.9005 3.4556 26.8861 3.53912 25.7946C3.86022 21.6866 7.02658 16.0465 12.2952 10.2436C12.6083 9.92101 12.889 9.56847 13.1332 9.19106C12.3006 8.21721 11.3853 7.31727 10.3974 6.50131C9.19977 5.36983 7.78443 4.49387 6.23751 3.92676C6.00568 3.93252 5.71626 4.17298 4.90847 4.99517Z" fill="white"/>
    <path d="M26.9219 4.235C25.1565 5.20484 23.5421 6.42726 22.1299 7.86357C21.6682 8.26882 21.252 8.72315 20.8887 9.21852C21.2173 9.72693 21.5949 10.202 22.0161 10.6368C26.4798 15.652 29.3222 20.4368 30.202 24.4412C30.317 24.9553 30.3864 25.4786 30.4093 26.005C30.4093 26.5881 30.4295 26.6616 30.6066 26.6616C31.377 25.8703 31.9786 24.9307 32.3748 23.8998C33.5384 21.4945 34.0626 18.83 33.8968 16.1632C33.8648 12.9347 32.8347 9.79519 30.9479 7.17529C30.0858 5.92775 29.0226 4.83197 27.8017 3.93262C27.4952 3.98979 27.1988 4.09167 26.9219 4.235Z" fill="white"/>
    <path d="M15.8178 13.4417C13.1012 15.8616 10.5816 18.4939 8.28278 21.3137C6.63372 23.267 5.26821 25.443 4.22656 27.7774C4.80654 28.5883 5.50389 29.3085 6.29571 29.9143C8.13716 31.3726 10.2586 32.4369 12.5285 33.0413C14.7984 33.6457 17.1682 33.7772 19.491 33.4276C23.162 32.8698 26.5612 31.1611 29.1989 28.5478C29.6237 28.1417 29.6856 28.0265 29.6856 27.6507C29.6755 25.7328 25.9418 20.9782 19.7603 15.0242C18.9255 14.1221 18.0033 13.305 17.0072 12.585C16.5662 12.8031 16.1644 13.0925 15.8178 13.4417Z" fill="white"/>
</svg>
