<svg width="16" height="16" viewBox="0 0 16 16" fill="none" xmlns="http://www.w3.org/2000/svg">
    <path fill-rule="evenodd" clip-rule="evenodd" d="M5 1C5.41421 1 5.75 1.33579 5.75 1.75V3H10.25V1.75C10.25 1.33579 10.5858 1 11 1C11.4142 1 11.75 1.33579 11.75 1.75V3H13C14.1046 3 15 3.89543 15 5V13C15 14.1046 14.1046 15 13 15H3C1.89543 15 1 14.1046 1 13V5C1 3.89543 1.89543 3 3 3H4.25V1.75C4.25 1.33579 4.58579 1 5 1ZM10.25 4.5V5.25C10.25 5.66421 10.5858 6 11 6C11.4142 6 11.75 5.66421 11.75 5.25V4.5H12.5C13.0523 4.5 13.5 4.94772 13.5 5.5V7C13.5 7.55228 13.0523 8 12.5 8H3.5C2.94771 8 2.5 7.55228 2.5 7V5.5C2.5 4.94772 2.94772 4.5 3.5 4.5H4.25V5.25C4.25 5.66421 4.58579 6 5 6C5.41421 6 5.75 5.66421 5.75 5.25V4.5H10.25Z" fill="#201D56"/>
</svg>
