<svg width="15" height="14" viewBox="0 0 15 14" fill="none" xmlns="http://www.w3.org/2000/svg">
    <path d="M0 9.70703V11.317C0 12.648 3.243 13.73 7.239 13.73C11.235 13.73 14.478 12.648 14.478 11.317V9.70703C12.921 10.807 10.078 11.317 7.239 11.317C4.4 11.317 1.557 10.807 0 9.70703ZM0 5.75203V7.69803C0 9.02703 3.243 10.107 7.239 10.107C11.235 10.107 14.478 9.02503 14.478 7.69403V5.75103C12.921 7.03303 10.07 7.69703 7.239 7.69703C4.408 7.69703 1.557 7.03403 0 5.75203ZM7.239 0.457031C3.243 0.457031 0 1.80703 0 3.47303C0 5.13903 3.243 6.48903 7.239 6.48903C11.235 6.48903 14.478 5.13903 14.478 3.47303C14.478 1.80703 11.236 0.457031 7.239 0.457031Z" fill="#FEC42D"/>
</svg>
