<svg width="35" height="38" viewBox="0 0 35 38" fill="none" xmlns="http://www.w3.org/2000/svg">
    <path d="M33.0325 32.2454H27.4571L24.6209 37.0441C24.5327 37.1971 24.4213 37.3353 24.2906 37.4538C23.9257 37.807 23.4377 38.003 22.9308 38L33.0325 32.2454ZM33.0325 32.2454C33.3748 32.2467 33.7114 32.1572 34.0082 31.986M33.0325 32.2454L34.0082 31.986M34.0082 31.986C34.305 31.8147 34.5514 31.5677 34.7226 31.27L34.0082 31.986ZM34.2894 29.5105L34.2894 29.5106L34.2935 29.5175C34.4286 29.7432 34.5 30.0017 34.5 30.2654C34.5 30.529 34.4286 30.7876 34.2935 31.0133L34.2934 31.0132L34.2891 31.0208C34.1618 31.2423 33.9786 31.4257 33.7583 31.5529C33.538 31.68 33.2883 31.7464 33.0345 31.7454H33.0325H27.4571H27.1718L27.0267 31.9909L24.1904 36.7897L24.1904 36.7897L24.1877 36.7944C24.1255 36.9024 24.0469 36.9999 23.9548 37.0833L23.9488 37.0888L23.9429 37.0945C23.6717 37.357 23.3096 37.5022 22.9338 37.5H22.9308H22.6938C22.4885 37.4687 22.292 37.3932 22.118 37.2783C21.9366 37.1585 21.7842 36.9989 21.6725 36.8115C21.6719 36.8105 21.6713 36.8096 21.6708 36.8086L17.9251 30.2799L17.4934 29.5274L17.0587 30.2782L13.3094 36.7546L13.3089 36.7555C13.1986 36.9469 13.0463 37.1103 12.8638 37.2333C12.6901 37.3504 12.4934 37.428 12.2873 37.4609L12.054 37.461C12.0538 37.461 12.0535 37.4609 12.0532 37.4609C11.6827 37.4592 11.3267 37.3142 11.0594 37.0555L11.0595 37.0554L11.0504 37.047C10.9496 36.9541 10.8624 36.8472 10.7914 36.7295C10.7911 36.729 10.7908 36.7285 10.7905 36.728L7.95616 31.9324L7.811 31.6868H7.52572L1.95036 31.6868L1.94836 31.6868C1.69504 31.6878 1.44582 31.6218 1.22582 31.4951C1.00581 31.3684 0.822692 31.1856 0.695161 30.9648C0.567623 30.7439 0.500252 30.4931 0.500001 30.2376C0.499749 29.9821 0.566596 29.7312 0.693644 29.5101C0.693673 29.5101 0.693702 29.51 0.693731 29.51L5.95795 20.3812L6.09765 20.1389L5.96435 19.8931C4.92703 17.98 4.38655 15.835 4.393 13.6565V13.655C4.393 10.1654 5.77351 6.81917 8.23017 4.35228C10.6868 1.88546 14.0182 0.5 17.4914 0.5C20.9647 0.5 24.2961 1.88546 26.7527 4.35228C29.2093 6.81917 30.5898 10.1654 30.5898 13.655L30.5899 13.6565C30.5963 15.835 30.0558 17.98 29.0185 19.8931L28.8852 20.1389L29.0249 20.3812L34.2894 29.5105ZM11.6029 32.501L12.0375 33.2316L12.4648 32.4967L15.4371 27.3858L15.793 26.7738L15.0972 26.6431C12.5823 26.1707 10.2601 24.9689 8.41734 23.1858L7.95584 22.7393L7.63606 23.2962L4.85809 28.1339L4.42801 28.8829H5.29169H8.64973C8.89641 28.8859 9.13834 28.9524 9.35233 29.0763C9.56703 29.2005 9.74646 29.3784 9.87312 29.593L9.87396 29.5944L11.6029 32.501ZM26.3355 28.8829L26.3391 28.8829L29.6999 28.8243L30.5463 28.8096L30.1248 28.0754L27.3468 23.2376L27.0277 22.6819L26.5662 23.1266C24.7242 24.9016 22.4098 26.1027 19.903 26.585L19.2166 26.717L19.5633 27.3239L22.5161 32.4934L22.9415 33.2381L23.3799 32.501L25.1089 29.5944L25.1097 29.593C25.2364 29.3784 25.4158 29.2005 25.6305 29.0763C25.8452 28.952 26.088 28.8854 26.3355 28.8829ZM11.8165 22.18C13.4961 23.307 15.471 23.9086 17.4914 23.9086C20.2008 23.9086 22.7988 22.8278 24.714 20.9047C26.6291 18.9816 27.7046 16.3738 27.7046 13.655C27.7046 11.6275 27.1059 9.64537 25.9839 7.95923C24.8619 6.27307 23.267 4.95855 21.4005 4.18222C19.534 3.40589 17.4801 3.20273 15.4985 3.59853C13.517 3.99433 11.6971 4.97123 10.2689 6.40537C8.84071 7.8395 7.86834 9.66643 7.47443 11.655C7.08051 13.6436 7.28266 15.7049 8.05541 17.5782C8.82817 19.4516 10.1369 21.0531 11.8165 22.18Z" fill="#A6A6A6" stroke="#EAEAEA"/>
    <path d="M17.144 18.096C16.552 18.096 15.976 18.004 15.416 17.82C14.864 17.636 14.412 17.388 14.06 17.076L14.612 16.128C14.892 16.392 15.256 16.608 15.704 16.776C16.152 16.944 16.632 17.028 17.144 17.028C17.768 17.028 18.252 16.896 18.596 16.632C18.948 16.36 19.124 15.996 19.124 15.54C19.124 15.1 18.956 14.748 18.62 14.484C18.292 14.212 17.768 14.076 17.048 14.076H16.376V13.236L18.872 10.164L19.04 10.644H14.444V9.6H19.988V10.416L17.504 13.476L16.88 13.104H17.276C18.292 13.104 19.052 13.332 19.556 13.788C20.068 14.244 20.324 14.824 20.324 15.528C20.324 16 20.208 16.432 19.976 16.824C19.744 17.216 19.392 17.528 18.92 17.76C18.456 17.984 17.864 18.096 17.144 18.096Z" fill="#201D56"/>
</svg>
