<svg width="78" height="18" viewBox="0 0 78 18" fill="none" xmlns="http://www.w3.org/2000/svg">
<rect width="78" height="18" fill="#515151"/>
<g id="Fixed one with right sizes" clip-path="url(#clip0_0_1)">
<rect width="1920" height="1407" transform="translate(-1037 -280)" fill="white"/>
<g id="Group 3466794">
<rect id="Rectangle 6637" x="-1037" y="-103" width="1920" height="668" fill="url(#paint0_linear_0_1)"/>
</g>
<g id="Group 3466229">
<g id="Group 3466410">
<g id="Rectangle 6516" filter="url(#filter0_d_0_1)">
<rect x="-253" y="-44.4844" width="351" height="74.5487" rx="5" fill="#150B53"/>
</g>
<g id="Group 3466228">
<g id="Group 950">
<path id="Path 443" d="M3.13021 1.04102H15.6888L15.0521 4.69085H7.13941L6.59667 7.75455H12.9673L12.3306 11.4005H5.9313L4.80147 17.7138H0.154297L3.13021 1.04102Z" fill="white"/>
<path id="Path 444" d="M17.3106 1.04102H21.9603L18.9857 17.7125H14.3359L17.3106 1.04102Z" fill="white"/>
<path id="Path 445" d="M23.5859 1.04102H36.1432L35.5066 4.69085H27.5964L27.0537 7.75455H33.4243L32.7877 11.4005H26.387L25.2572 17.7138H20.6113L23.5859 1.04102Z" fill="white"/>
<path id="Path 446" d="M40.0558 1.01953H45.2744L47.9894 17.7143H43.3578L42.9795 14.7926H37.1529L35.7374 17.7143H31.252L40.0558 1.01953ZM42.5346 11.3067L41.7518 5.29941H41.6579L38.8268 11.3067H42.5346Z" fill="white"/>
<path id="Path 447" d="M50.9924 15.157L56.6403 9.82876C57.8823 8.64227 59.8667 6.84382 59.8667 5.28034C59.8688 5.09461 59.8306 4.9106 59.7547 4.74072C59.6788 4.57085 59.567 4.41905 59.4267 4.29559C59.2865 4.17212 59.1212 4.07985 58.9418 4.025C58.7625 3.97016 58.5734 3.95402 58.3872 3.97766C56.8816 3.97766 56.5046 5.23516 56.3311 6.41777H52.091C52.1131 6.34676 52.2345 5.56309 52.2566 5.49208C52.8985 2.08238 55.8418 0.597656 59.2352 0.597656C61.9124 0.597656 64.3756 1.66149 64.3756 4.64643C64.3756 7.9593 60.9561 10.5195 58.686 12.531L57.0734 13.9485L57.0512 14.0673H62.9522L62.3077 17.7133H50.5371L50.9924 15.157Z" fill="white"/>
<path id="Path 448" d="M64.1621 14.1872C64.1639 13.6606 64.2269 13.136 64.35 12.6237H68.5562C68.5116 12.8581 68.4798 13.0947 68.4609 13.3325C68.4609 14.3021 69.5373 14.541 70.3253 14.541C70.8918 14.5254 71.4289 14.288 71.8186 13.8808C72.2083 13.4736 72.4187 12.93 72.4036 12.3694C72.4036 11.25 71.2751 10.784 70.277 10.784H69.4681L69.99 7.77708H70.9463C71.2635 7.81995 71.5864 7.79332 71.892 7.69909C72.1977 7.60486 72.4787 7.44532 72.7151 7.23176C72.9516 7.0182 73.1378 6.75583 73.2605 6.46321C73.3831 6.17059 73.4394 5.85487 73.4251 5.53837C73.4372 5.34893 73.4072 5.15917 73.3372 4.98244C73.2672 4.8057 73.159 4.64627 73.0201 4.51535C72.8812 4.38443 72.715 4.28519 72.5332 4.22461C72.3515 4.16403 72.1585 4.14357 71.9679 4.16468C71.7015 4.12934 71.4305 4.14968 71.1726 4.2244C70.9146 4.29913 70.6754 4.42657 70.4703 4.59849C70.2652 4.77041 70.0989 4.98299 69.982 5.2225C69.8651 5.462 69.8003 5.72311 69.7917 5.98895H65.6833L65.7773 5.44413C66.3487 2.08736 69.3403 0.538086 72.5889 0.538086C75.0964 0.538086 77.801 1.65744 77.801 4.56362C77.8549 5.55117 77.5737 6.52822 77.0022 7.33949C76.4306 8.15075 75.6014 8.74966 74.6463 9.04103L74.6202 9.1611C75.3245 9.31452 75.953 9.70545 76.398 10.2669C76.8431 10.8284 77.0771 11.5256 77.0599 12.239C77.0599 16.1716 72.8537 18.0643 69.5777 17.9933C67.0271 17.9661 64.1621 17.2199 64.1621 14.1872Z" fill="white"/>
</g>
</g>
</g>
</g>
</g>
<defs>
<filter id="filter0_d_0_1" x="-257" y="-48.4844" width="359" height="82.5488" filterUnits="userSpaceOnUse" color-interpolation-filters="sRGB">
<feFlood flood-opacity="0" result="BackgroundImageFix"/>
<feColorMatrix in="SourceAlpha" type="matrix" values="0 0 0 0 0 0 0 0 0 0 0 0 0 0 0 0 0 0 127 0" result="hardAlpha"/>
<feOffset/>
<feGaussianBlur stdDeviation="2"/>
<feComposite in2="hardAlpha" operator="out"/>
<feColorMatrix type="matrix" values="0 0 0 0 0 0 0 0 0 0 0 0 0 0 0 0 0 0 0.25 0"/>
<feBlend mode="normal" in2="BackgroundImageFix" result="effect1_dropShadow_0_1"/>
<feBlend mode="normal" in="SourceGraphic" in2="effect1_dropShadow_0_1" result="shape"/>
</filter>
<linearGradient id="paint0_linear_0_1" x1="-77" y1="-103" x2="-77" y2="565" gradientUnits="userSpaceOnUse">
<stop stop-color="#5751BC"/>
<stop offset="0.761137" stop-color="#201D56" stop-opacity="0.45"/>
<stop offset="1" stop-color="#201D56" stop-opacity="0"/>
</linearGradient>
<clipPath id="clip0_0_1">
<rect width="1920" height="1407" fill="white" transform="translate(-1037 -280)"/>
</clipPath>
</defs>
</svg>
