<svg width="17" height="13" viewBox="0 0 17 13" fill="none" xmlns="http://www.w3.org/2000/svg">
<g clip-path="url(#clip0_2610_2004)">
<path d="M10.6911 6.06733C11.2952 6.06733 11.8858 5.88944 12.3881 5.55615C12.8904 5.22286 13.2819 4.74914 13.5131 4.1949C13.7442 3.64066 13.8047 3.03079 13.6869 2.44241C13.569 1.85403 13.2781 1.31357 12.8509 0.889375C12.4238 0.465177 11.8795 0.176295 11.287 0.0592596C10.6945 -0.0577762 10.0804 0.00229074 9.52226 0.231865C8.96413 0.461439 8.4871 0.850208 8.15147 1.34901C7.81585 1.84782 7.63671 2.43425 7.63671 3.03415C7.63662 3.4325 7.71557 3.82696 7.86904 4.195C8.02251 4.56304 8.2475 4.89745 8.53114 5.17912C8.81479 5.46079 9.15154 5.68421 9.52216 5.83661C9.89278 5.98901 10.29 6.06741 10.6911 6.06733ZM10.6911 1.51757C10.9932 1.51757 11.2885 1.60651 11.5396 1.77316C11.7908 1.9398 11.9865 2.17666 12.1021 2.45378C12.2177 2.7309 12.2479 3.03584 12.189 3.33003C12.1301 3.62422 11.9846 3.89445 11.771 4.10654C11.5575 4.31864 11.2853 4.46308 10.9891 4.5216C10.6928 4.58012 10.3858 4.55009 10.1067 4.4353C9.82764 4.32051 9.58912 4.12613 9.4213 3.87673C9.25349 3.62732 9.16392 3.33411 9.16392 3.03415C9.16492 2.63218 9.32613 2.24694 9.6123 1.96264C9.89847 1.67834 10.2863 1.51873 10.6911 1.51757ZM10.6911 7.58455C8.65232 7.58455 4.58165 8.60062 4.58165 10.6177V12.1343H16.8006V10.6171C16.8006 8.6 12.73 7.58455 10.6911 7.58455ZM6.10949 10.6177C6.2775 10.0714 8.6359 9.10114 10.6911 9.10114C12.7464 9.10114 15.1206 10.0796 15.2728 10.6177H6.10949ZM3.81804 8.34221V6.06733H6.10886V4.55012H3.81804V2.27523H2.29082V4.55012H0V6.0667H2.29082V8.34221H3.81804Z" fill="white"/>
</g>
<defs>
<clipPath id="clip0_2610_2004">
<rect width="16.8" height="12.1333" fill="white"/>
</clipPath>
</defs>
</svg>
