<svg width="18" height="18" viewBox="0 0 18 18" fill="none" xmlns="http://www.w3.org/2000/svg">
<path d="M8.59712 1.24178L1.24118 8.59771C1.11716 8.7217 1.01879 8.86891 0.951666 9.03092C0.884546 9.19293 0.85 9.36658 0.85 9.54195C0.85 9.71732 0.884546 9.89097 0.951666 10.053C1.01879 10.215 1.11716 10.3622 1.24118 10.4862L7.51381 16.7588C7.6378 16.8828 7.78501 16.9812 7.94702 17.0483C8.10903 17.1155 8.28268 17.15 8.45805 17.15C8.63342 17.15 8.80707 17.1155 8.96908 17.0483C9.13109 16.9812 9.2783 16.8828 9.40229 16.7588L16.7582 9.40288C16.7583 9.40281 16.7584 9.40275 16.7584 9.40268C16.883 9.27907 16.9817 9.13194 17.049 8.96983C17.1162 8.80772 17.1505 8.63387 17.15 8.45838M8.59712 1.24178L8.70361 1.34742C8.81326 1.23688 8.9438 1.14925 9.08763 1.08961C9.23145 1.02997 9.38569 0.999509 9.54139 1.00001V0.850006H9.54162H16.4074C16.6043 0.850006 16.7932 0.928244 16.9325 1.06751C17.0718 1.20677 17.15 1.39566 17.15 1.5926V8.45838M8.59712 1.24178C8.59719 1.24171 8.59725 1.24164 8.59732 1.24158L8.59712 1.24178ZM17.15 8.45838C17.15 8.45829 17.15 8.45821 17.15 8.45813L17 8.45861H17.15V8.45838ZM15.6648 8.39647V2.3352H9.60353L2.39715 9.54158L8.45842 15.6028L15.6648 8.39647ZM12.2843 5.42908C12.1701 5.25823 12.1092 5.05737 12.1092 4.8519C12.1092 4.57637 12.2187 4.31212 12.4135 4.11729C12.6083 3.92246 12.8726 3.813 13.1481 3.813C13.3536 3.813 13.5544 3.87393 13.7253 3.98809C13.8961 4.10224 14.0293 4.2645 14.1079 4.45433C14.1865 4.64416 14.2071 4.85305 14.167 5.05458C14.127 5.2561 14.028 5.44122 13.8827 5.58651C13.7374 5.7318 13.5523 5.83075 13.3508 5.87084C13.1493 5.91092 12.9404 5.89035 12.7505 5.81172C12.5607 5.73308 12.3984 5.59993 12.2843 5.42908Z" fill="#EEF1F6" stroke="#EEF1F6" stroke-width="0.3"/>
</svg>
