<svg width="13" height="8" viewBox="0 0 13 8" fill="none" xmlns="http://www.w3.org/2000/svg">
<path d="M11.7081 0.293286C11.801 0.386159 11.8748 0.496448 11.9251 0.617846C11.9754 0.739245 12.0013 0.869371 12.0013 1.00079C12.0013 1.1322 11.9754 1.26233 11.9251 1.38373C11.8748 1.50513 11.801 1.61541 11.7081 1.70829L6.70806 6.70829C6.61518 6.80126 6.50489 6.87502 6.3835 6.92535C6.2621 6.97567 6.13197 7.00157 6.00056 7.00157C5.86914 7.00157 5.73901 6.97567 5.61762 6.92535C5.49622 6.87502 5.38593 6.80126 5.29306 6.70829L0.293056 1.70829C0.105415 1.52065 0 1.26615 0 1.00079C0 0.735423 0.105415 0.480927 0.293056 0.293286C0.480696 0.105646 0.735192 0.000230789 1.00056 0.000230789C1.26592 0.000230789 1.52042 0.105646 1.70806 0.293286L6.00056 4.58704L10.2931 0.293286C10.3859 0.20031 10.4962 0.126551 10.6176 0.0762272C10.739 0.0259029 10.8691 0 11.0006 0C11.132 0 11.2621 0.0259029 11.3835 0.0762272C11.5049 0.126551 11.6152 0.20031 11.7081 0.293286Z" fill="white"/>
</svg>
