<svg width="43" height="42" viewBox="0 0 43 42" fill="none" xmlns="http://www.w3.org/2000/svg">
<path d="M12.0479 16.615L9.16346 23.3554L14.8575 28.5031L33.3447 24.7029L30.5548 12.6892L12.0479 16.615Z" fill="#FF7600"/>
<path d="M32.5975 25.5181L15.4564 29.1623C15.2434 29.2095 15.0221 29.203 14.8123 29.1433C14.6025 29.0837 14.4109 28.9728 14.2546 28.8207L11.646 26.4112L11.5698 26.5286C10.9303 26.944 10.1844 27.1659 9.42186 27.1675C8.6593 27.1692 7.91249 26.9506 7.27119 26.538C6.43774 26.0066 5.84807 25.1674 5.63066 24.2032C5.41326 23.239 5.58574 22.228 6.11053 21.3904C6.53503 20.7491 7.15045 20.2576 7.86969 19.9853C8.58893 19.7131 9.37557 19.674 10.1183 19.8734L11.5843 16.4316C11.6622 16.226 11.7916 16.0438 11.9603 15.9027C12.129 15.7617 12.3312 15.6664 12.5474 15.6262L29.6874 11.9837C29.8634 11.9417 30.0461 11.936 30.2244 11.9668C30.4027 11.9976 30.5729 12.0643 30.7247 12.1628C30.8764 12.2614 31.0066 12.3897 31.1072 12.5401C31.2079 12.6905 31.277 12.8597 31.3102 13.0376L33.6514 23.8953C33.6933 24.0713 33.6991 24.254 33.6683 24.4323C33.6375 24.6106 33.5708 24.7808 33.4722 24.9326C33.3737 25.0843 33.2453 25.2145 33.095 25.3151C32.9446 25.4158 32.7754 25.4849 32.5975 25.5181ZM6.88378 21.8925C6.49131 22.5249 6.36452 23.2867 6.53102 24.012C6.69753 24.7374 7.14385 25.3677 7.7728 25.7656C8.24914 26.0732 8.80462 26.2358 9.37167 26.2336C9.93872 26.2314 10.4929 26.0645 10.9669 25.7532L9.26393 24.1524C9.06045 23.9608 8.92029 23.7117 8.86218 23.4383C8.80407 23.1649 8.83078 22.8803 8.93874 22.6225L9.76082 20.6846C9.21585 20.5871 8.65433 20.6493 8.14388 20.8636C7.63342 21.0779 7.19582 21.4352 6.88378 21.8925ZM32.7592 24.085L30.4431 13.1886C30.432 13.1293 30.409 13.0729 30.3755 13.0227C30.3419 12.9726 30.2986 12.9298 30.248 12.8969C30.1974 12.8641 30.1406 12.8419 30.0812 12.8316C30.0217 12.8214 29.9608 12.8233 29.9021 12.8373L12.7601 16.481C12.6281 16.5148 12.5144 16.5989 12.4434 16.7153L10.9774 20.1571L11.2852 20.357C11.607 20.5537 11.8879 20.8106 12.1125 21.1137C12.4999 21.0445 12.8989 21.1266 13.2276 21.3429C13.4083 21.4558 13.5646 21.6037 13.6874 21.7778C13.8102 21.9519 13.897 22.1488 13.9426 22.357C13.9916 22.5623 13.9983 22.7754 13.9624 22.9834C13.9265 23.1914 13.8487 23.3899 13.7338 23.5669C13.6188 23.7439 13.4691 23.8957 13.2937 24.0131C13.1183 24.1305 12.9208 24.2111 12.7134 24.2499C12.372 24.3229 12.0161 24.2818 11.7004 24.1329C11.3846 23.984 11.1266 23.7355 10.9658 23.4256C10.8051 23.1157 10.7506 22.7616 10.8108 22.4177C10.8709 22.0739 11.0423 21.7593 11.2987 21.5223C11.1421 21.3731 10.9691 21.2423 10.7828 21.1324L10.6285 21.0322L9.78547 23.0078C9.7548 23.0946 9.7487 23.1883 9.76785 23.2783C9.78699 23.3684 9.83064 23.4514 9.89397 23.5183L14.8427 28.1629L14.9199 28.213C14.9697 28.2473 15.0263 28.2704 15.0859 28.2807C15.1455 28.291 15.2067 28.2882 15.2651 28.2726L32.4079 24.6259C32.4672 24.6149 32.5236 24.5919 32.5738 24.5583C32.6239 24.5248 32.6667 24.4814 32.6996 24.4308C32.7324 24.3802 32.7546 24.3235 32.7649 24.264C32.7751 24.2046 32.7732 24.1436 32.7592 24.085ZM11.7513 22.856C11.7864 23.0454 11.894 23.2137 12.0512 23.325C12.0705 23.3412 12.0931 23.3529 12.1175 23.3592C12.1419 23.3656 12.1673 23.3664 12.192 23.3616C12.1785 23.298 12.1399 23.2729 12.1264 23.2093C12.0921 22.891 11.9929 22.5832 11.8351 22.3047C11.7765 22.3824 11.7382 22.4735 11.7236 22.5698C11.7089 22.666 11.7185 22.7644 11.7513 22.856ZM12.9801 22.9946C13.0262 22.8633 13.0422 22.7232 13.0267 22.5849C13.0112 22.5006 12.9776 22.4207 12.9281 22.3507C12.8787 22.2807 12.8146 22.2223 12.7403 22.1795C12.8815 22.4293 12.9635 22.7081 12.9801 22.9946Z" fill="#231F20"/>
<path d="M20.5468 19.2461C20.605 19.4959 20.6114 19.755 20.5655 20.0074C20.5171 20.2697 20.4384 20.5255 20.331 20.7697C20.2184 21.0281 20.0867 21.2777 19.9369 21.5165C19.784 21.7584 19.6311 21.9925 19.4781 22.2187C19.4021 22.3341 19.3196 22.4629 19.2307 22.6052C19.1417 22.7476 19.0579 22.8911 18.9791 23.0359C18.9008 23.1798 18.8319 23.3127 18.7725 23.4346C18.7235 23.5246 18.6912 23.6229 18.6773 23.7244L21.6423 23.0399L21.9297 24.2851L17.3268 25.3478C17.291 25.259 17.2629 25.1673 17.243 25.0736L17.1877 24.8339C17.1148 24.5355 17.0984 24.226 17.1392 23.9215C17.1802 23.6344 17.2583 23.3539 17.3714 23.0868C17.4855 22.8174 17.6241 22.5591 17.7853 22.3149C17.9486 22.0679 18.1102 21.8209 18.2701 21.5739C18.394 21.3845 18.5101 21.2058 18.6184 21.0378C18.7193 20.8818 18.8115 20.7204 18.8947 20.5543C18.9663 20.4126 19.0196 20.2623 19.0532 20.1072C19.0828 19.9719 19.0827 19.8319 19.0528 19.6967C19.0388 19.5785 18.9959 19.4656 18.9281 19.3679C18.8602 19.2701 18.7695 19.1904 18.6637 19.1359C18.4539 19.0537 18.2232 19.0407 18.0055 19.099C17.834 19.1372 17.6704 19.2052 17.5223 19.2998C17.386 19.3857 17.2578 19.484 17.1396 19.5935C17.0384 19.6881 16.9447 19.7904 16.8592 19.8994C16.7839 19.9968 16.7282 20.0743 16.6922 20.1319L15.7184 19.2699C15.9553 18.9224 16.2476 18.6161 16.5835 18.363C16.9352 18.0955 17.3405 17.9071 17.7717 17.8106C18.123 17.7221 18.4858 17.6879 18.8474 17.709C19.1308 17.725 19.4076 17.8011 19.6594 17.932C19.8864 18.0564 20.0789 18.2352 20.2198 18.4523C20.3753 18.6953 20.486 18.9641 20.5468 19.2461ZM25.1268 18.1466C25.2828 18.6604 25.2302 19.2149 24.9803 19.6902C24.8517 19.8969 24.6812 20.0745 24.4798 20.2113C24.2785 20.3481 24.0506 20.4412 23.811 20.4845C23.5767 20.5506 23.3311 20.5668 23.0901 20.5321C22.8491 20.4974 22.618 20.4126 22.4118 20.2831C21.9777 19.9665 21.6858 19.4914 21.5996 18.961C21.4443 18.4466 21.498 17.8918 21.7491 17.4168C21.8776 17.21 22.0481 17.0325 22.2495 16.8956C22.4509 16.7588 22.6787 16.6657 22.9183 16.6224C23.1527 16.5563 23.3983 16.5401 23.6393 16.5748C23.8803 16.6095 24.1113 16.6943 24.3175 16.8238C24.7507 17.1412 25.0415 17.6164 25.1268 18.1466ZM24.0024 18.4062C23.964 18.1428 23.8415 17.899 23.6531 17.711C23.5828 17.6524 23.4999 17.6108 23.4108 17.5896C23.3218 17.5684 23.2291 17.568 23.1399 17.5886C23.0507 17.6092 22.9675 17.6502 22.8968 17.7083C22.8261 17.7664 22.7698 17.8401 22.7323 17.9236C22.649 18.1756 22.6475 18.4475 22.7279 18.7005C22.7675 18.9644 22.8883 19.2095 23.0735 19.4017C23.1432 19.462 23.2261 19.5049 23.3154 19.5271C23.4048 19.5493 23.4982 19.55 23.5879 19.5293C23.6777 19.5086 23.7612 19.467 23.8318 19.4079C23.9025 19.3488 23.9581 19.2738 23.9943 19.1891C24.0798 18.9356 24.0833 18.6612 24.0024 18.4062ZM26.6588 15.9271L28.0424 15.6077L25.7425 23.4049L24.3589 23.7243L26.6588 15.9271ZM30.8192 20.367C30.9752 20.8808 30.9225 21.4353 30.6727 21.9106C30.5441 22.1173 30.3736 22.2949 30.1722 22.4317C29.9708 22.5685 29.743 22.6616 29.5034 22.7049C29.2692 22.7715 29.0237 22.7883 28.7826 22.7541C28.5416 22.72 28.3104 22.6357 28.1039 22.5067C27.671 22.1891 27.3806 21.7137 27.2956 21.1836C27.1396 20.6698 27.1922 20.1153 27.4421 19.6401C27.5707 19.4333 27.7412 19.2558 27.9426 19.119C28.1439 18.9821 28.3718 18.889 28.6114 18.8457C28.8457 18.7796 29.0913 18.7634 29.3323 18.7981C29.5733 18.8328 29.8044 18.9176 30.0106 19.0471C30.4426 19.3637 30.7331 19.8384 30.8192 20.367ZM29.6948 20.6266C29.6564 20.3633 29.5339 20.1194 29.3454 19.9314C29.2751 19.8728 29.1922 19.8312 29.1032 19.81C29.0142 19.7888 28.9214 19.7884 28.8322 19.809C28.7431 19.8296 28.6599 19.8706 28.5891 19.9287C28.5184 19.9868 28.4621 20.0605 28.4246 20.144C28.3397 20.3955 28.3364 20.6675 28.4152 20.921C28.4548 21.185 28.5756 21.4301 28.7608 21.6222C28.8304 21.6825 28.9133 21.7255 29.0027 21.7477C29.0921 21.7698 29.1855 21.7706 29.2752 21.7499C29.3649 21.7292 29.4485 21.6876 29.5191 21.6284C29.5897 21.5693 29.6454 21.4944 29.6816 21.4097C29.769 21.1563 29.7732 20.8817 29.6936 20.6259L29.6948 20.6266Z" fill="white"/>
</svg>
