<svg width="43" height="43" viewBox="0 0 43 43" fill="none" xmlns="http://www.w3.org/2000/svg">
<path d="M12.0479 17.614L9.16346 24.3545L14.8575 29.5021L33.3447 25.7019L30.5548 13.6882L12.0479 17.614Z" fill="#EA3030"/>
<path d="M32.5975 26.5172L15.4564 30.1613C15.2434 30.2085 15.0221 30.202 14.8123 30.1424C14.6025 30.0827 14.4109 29.9718 14.2546 29.8197L11.646 27.4102L11.5698 27.5277C10.9303 27.943 10.1844 28.1649 9.42186 28.1665C8.6593 28.1682 7.91249 27.9496 7.27119 27.537C6.43774 27.0057 5.84807 26.1664 5.63066 25.2022C5.41326 24.238 5.58574 23.227 6.11053 22.3894C6.53503 21.7481 7.15045 21.2566 7.86969 20.9844C8.58893 20.7121 9.37557 20.673 10.1183 20.8724L11.5843 17.4306C11.6622 17.225 11.7916 17.0428 11.9603 16.9018C12.129 16.7607 12.3312 16.6654 12.5474 16.6252L29.6874 12.9827C29.8634 12.9408 30.0461 12.935 30.2244 12.9658C30.4027 12.9966 30.5729 13.0633 30.7247 13.1619C30.8764 13.2604 31.0066 13.3888 31.1072 13.5391C31.2079 13.6895 31.277 13.8587 31.3102 14.0366L33.6514 24.8943C33.6933 25.0704 33.6991 25.2531 33.6683 25.4314C33.6375 25.6097 33.5708 25.7798 33.4722 25.9316C33.3737 26.0834 33.2453 26.2135 33.095 26.3142C32.9446 26.4148 32.7754 26.4839 32.5975 26.5172ZM6.88378 22.8915C6.49131 23.5239 6.36452 24.2857 6.53102 25.0111C6.69753 25.7364 7.14385 26.3667 7.7728 26.7646C8.24914 27.0722 8.80462 27.2348 9.37167 27.2326C9.93872 27.2304 10.4929 27.0635 10.9669 26.7522L9.26393 25.1515C9.06045 24.9599 8.92029 24.7107 8.86218 24.4373C8.80407 24.1639 8.83078 23.8793 8.93874 23.6215L9.76082 21.6836C9.21585 21.5861 8.65433 21.6483 8.14388 21.8626C7.63342 22.0769 7.19582 22.4342 6.88378 22.8915ZM32.7592 25.084L30.4431 14.1877C30.432 14.1283 30.409 14.0719 30.3755 14.0218C30.3419 13.9716 30.2986 13.9288 30.248 13.896C30.1974 13.8631 30.1406 13.8409 30.0812 13.8306C30.0217 13.8204 29.9608 13.8223 29.9021 13.8364L12.7601 17.48C12.6281 17.5138 12.5144 17.5979 12.4434 17.7143L10.9774 21.1561L11.2852 21.356C11.607 21.5527 11.8879 21.8097 12.1125 22.1127C12.4999 22.0436 12.8989 22.1256 13.2276 22.3419C13.4083 22.4548 13.5646 22.6027 13.6874 22.7768C13.8102 22.951 13.897 23.1479 13.9426 23.356C13.9916 23.5613 13.9983 23.7744 13.9624 23.9824C13.9265 24.1904 13.8487 24.3889 13.7338 24.5659C13.6188 24.743 13.4691 24.8948 13.2937 25.0122C13.1183 25.1296 12.9208 25.2101 12.7134 25.2489C12.372 25.3219 12.0161 25.2809 11.7004 25.1319C11.3846 24.983 11.1266 24.7345 10.9658 24.4246C10.8051 24.1147 10.7506 23.7606 10.8108 23.4168C10.8709 23.0729 11.0423 22.7583 11.2987 22.5213C11.1421 22.3721 10.9691 22.2413 10.7828 22.1315L10.6285 22.0313L9.78547 24.0068C9.7548 24.0937 9.7487 24.1873 9.76785 24.2773C9.78699 24.3674 9.83064 24.4504 9.89397 24.5173L14.8427 29.1619L14.9199 29.212C14.9697 29.2463 15.0263 29.2694 15.0859 29.2797C15.1455 29.29 15.2067 29.2873 15.2651 29.2716L32.4079 25.6249C32.4672 25.6139 32.5236 25.5909 32.5738 25.5573C32.6239 25.5238 32.6667 25.4804 32.6996 25.4298C32.7324 25.3792 32.7546 25.3225 32.7649 25.263C32.7751 25.2036 32.7732 25.1427 32.7592 25.084ZM11.7513 23.855C11.7864 24.0445 11.894 24.2127 12.0512 24.3241C12.0705 24.3402 12.0931 24.3519 12.1175 24.3583C12.1419 24.3646 12.1673 24.3654 12.192 24.3606C12.1785 24.297 12.1399 24.2719 12.1264 24.2083C12.0921 23.8901 11.9929 23.5822 11.8351 23.3037C11.7765 23.3815 11.7382 23.4725 11.7236 23.5688C11.7089 23.665 11.7185 23.7634 11.7513 23.855ZM12.9801 23.9936C13.0262 23.8623 13.0422 23.7223 13.0267 23.5839C13.0112 23.4996 12.9776 23.4197 12.9281 23.3497C12.8787 23.2797 12.8146 23.2213 12.7403 23.1785C12.8815 23.4283 12.9635 23.7072 12.9801 23.9936Z" fill="#231F20"/>
<path d="M17.5513 20.1929C17.3722 20.6072 17.1836 21.0562 16.9853 21.5399C16.7925 22.0082 16.6444 22.4937 16.543 22.99L18.1489 22.5896L17.5513 20.1929ZM18.5803 17.9586L19.6414 22.2143L20.3982 22.0256L20.7096 23.2744L19.9528 23.4631L20.3481 25.0486L18.8548 25.4209L18.4595 23.8354L15.4001 24.5982L15.1219 23.4824C15.1972 23.1448 15.3002 22.7588 15.4309 22.3242C15.5617 21.8897 15.7156 21.4391 15.8926 20.9724C16.0693 20.5044 16.2631 20.0414 16.4739 19.5835C16.672 19.1501 16.8936 18.7278 17.1375 18.3184L18.5803 17.9586ZM24.0683 18.5248C24.2385 19.0521 24.194 19.6253 23.9446 20.1201C23.8155 20.3356 23.6428 20.5217 23.4375 20.6664C23.2322 20.8112 22.9988 20.9113 22.7525 20.9605C22.5119 21.0327 22.2589 21.0538 22.0096 21.0224C21.7604 20.991 21.5205 20.9078 21.3054 20.7781C20.8529 20.4583 20.5445 19.9731 20.4472 19.4276C20.2765 18.9002 20.3205 18.3268 20.5697 17.8316C20.6988 17.6159 20.8717 17.4297 21.0772 17.2849C21.2827 17.1402 21.5162 17.04 21.7628 16.991C22.0034 16.9187 22.2564 16.8976 22.5056 16.929C22.7548 16.9604 22.9947 17.0436 23.2099 17.1733C23.6627 17.4933 23.9711 17.9789 24.0683 18.5248ZM22.9127 18.8129C22.8683 18.5419 22.7374 18.2926 22.5396 18.102C22.4661 18.0429 22.3798 18.0015 22.2876 17.9813C22.1954 17.961 22.0997 17.9623 22.0081 17.9852C21.9165 18.008 21.8314 18.0517 21.7595 18.1129C21.6876 18.1741 21.6308 18.2511 21.5936 18.3379C21.5122 18.5994 21.5154 18.8799 21.6028 19.1395C21.6485 19.4114 21.7777 19.6623 21.9725 19.8574C22.0451 19.9191 22.1314 19.9626 22.2241 19.9843C22.3169 20.006 22.4136 20.0053 22.506 19.9823C22.5985 19.9592 22.6841 19.9145 22.7558 19.8517C22.8276 19.789 22.8833 19.7101 22.9185 19.6215C23.0022 19.3582 22.9998 19.075 22.9117 18.8132L22.9127 18.8129ZM25.6092 16.2061L27.0297 15.852L24.7988 23.9389L23.3764 24.2935L25.6092 16.2061ZM29.9824 20.713C30.1525 21.2404 30.1081 21.8135 29.8587 22.3084C29.7296 22.5239 29.5568 22.71 29.3515 22.8547C29.1462 22.9994 28.9129 23.0996 28.6665 23.1487C28.426 23.221 28.1729 23.2421 27.9237 23.2107C27.6745 23.1793 27.4346 23.0961 27.2194 22.9664C26.7666 22.6468 26.4579 22.1617 26.3603 21.6161C26.1901 21.0888 26.2346 20.5156 26.484 20.0208C26.6131 19.8053 26.7858 19.6192 26.9911 19.4745C27.1964 19.3297 27.4298 19.2296 27.6761 19.1805C27.9167 19.1082 28.1697 19.0871 28.419 19.1185C28.6682 19.1499 28.9081 19.2331 29.1232 19.3628C29.576 19.6824 29.8847 20.1675 29.9824 20.713ZM28.8287 21.0007C28.7843 20.7297 28.6534 20.4803 28.4556 20.2898C28.3821 20.2307 28.2958 20.1893 28.2036 20.169C28.1114 20.1488 28.0157 20.1501 27.9241 20.1729C27.8325 20.1958 27.7474 20.2395 27.6755 20.3007C27.6036 20.3619 27.5468 20.4389 27.5096 20.5257C27.4282 20.7872 27.4314 21.0677 27.5188 21.3273C27.5645 21.5992 27.6937 21.8501 27.8885 22.0452C27.9611 22.1069 28.0474 22.1504 28.1402 22.1721C28.2329 22.1938 28.3296 22.1931 28.422 22.17C28.5145 22.147 28.6001 22.1022 28.6718 22.0395C28.7436 21.9768 28.7993 21.8979 28.8345 21.8093C28.9186 21.546 28.9165 21.2628 28.8287 21.0007Z" fill="white"/>
</svg>
