<svg width="22" height="22" viewBox="0 0 22 22" fill="none" xmlns="http://www.w3.org/2000/svg">
<path d="M11.1597 21.432H11.1594C10.7576 21.432 10.3723 21.2724 10.0882 20.9883C9.80413 20.7042 9.64453 20.3189 9.64453 19.9172V2.22052V2.21176L9.64468 2.21177C9.65843 1.81944 9.82395 1.44777 10.1064 1.17508C10.3888 0.902401 10.766 0.75 11.1586 0.75C11.5511 0.75 11.9284 0.902401 12.2108 1.17508C12.4932 1.44777 12.6587 1.81944 12.6725 2.21177L12.6728 2.22052H12.6726V19.9121V19.9125H12.4226C12.4232 20.0789 12.391 20.2437 12.3278 20.3976L11.1597 21.432ZM11.1597 21.432C11.3589 21.4317 11.5561 21.3922 11.7401 21.3156L11.644 21.0848L11.1597 21.432Z" fill="white" stroke="white" stroke-width="0.5"/>
<path d="M2.3133 12.5826H19.9969C20.1986 12.589 20.3997 12.5551 20.5881 12.4828C20.778 12.4099 20.9513 12.2995 21.0976 12.1583C21.2439 12.017 21.3603 11.8477 21.4398 11.6605C21.5193 11.4732 21.5602 11.2719 21.5602 11.0685C21.5602 10.8651 21.5193 10.6638 21.4398 10.4766C21.3603 10.2894 21.2439 10.1201 21.0976 9.9788C20.9513 9.83752 20.778 9.72715 20.5881 9.65427C20.3997 9.58195 20.1986 9.54803 19.9969 9.55449H2.3133C2.11157 9.54803 1.91056 9.58195 1.72209 9.65427C1.5322 9.72715 1.35892 9.83752 1.21261 9.9788C1.06629 10.1201 0.949918 10.2894 0.870439 10.4766C0.79096 10.6638 0.75 10.8651 0.75 11.0685C0.75 11.2719 0.790961 11.4732 0.870439 11.6605C0.949918 11.8477 1.06629 12.017 1.21261 12.1583C1.35892 12.2995 1.5322 12.4099 1.72209 12.4828C1.91056 12.5551 2.11157 12.589 2.3133 12.5826Z" fill="white" stroke="white" stroke-width="0.5"/>
</svg>
