<svg width="24" height="24" viewBox="0 0 24 24" fill="none" xmlns="http://www.w3.org/2000/svg">
<rect width="24" height="24" fill="#515151"/>
<g id="Fixed one with right sizes" clip-path="url(#clip0_0_1)">
<rect width="1920" height="1407" transform="translate(-1177 -583)" fill="white"/>
<rect id="Rectangle 6637" x="-1177" y="-406" width="1920" height="668" fill="url(#paint0_linear_0_1)"/>
<rect id="Rectangle 6559" x="-528" y="-186" width="622" height="289" rx="8" fill="#150B53" fill-opacity="0.3"/>
<rect id="Rectangle 6614" x="-490" y="-94" width="544" height="183" rx="6" fill="#767FAA"/>
<rect id="Rectangle 6620" x="-82" y="-16" width="124" height="56" rx="6" fill="#150B53"/>
<g id="Group 3466459">
<g id="Group 3466461">
<g id="Group 3466444">
<g id="Group 3466109">
<path id="Path 266" d="M1.70738 8.10693L1.65545 8.24267H1.80078H3.51939H3.58351L3.61027 8.1844C4.50586 6.23412 6.04133 4.64866 7.96192 3.69105C9.8825 2.73344 12.0728 2.46124 14.1693 2.91961C16.2659 3.37799 18.1427 4.53939 19.4884 6.21112C20.8342 7.88285 21.5679 9.96444 21.5679 12.1105C21.5679 14.2566 20.8342 16.3382 19.4884 18.0099C18.1427 19.6817 16.2659 20.843 14.1693 21.3014C12.0728 21.7598 9.8825 21.4876 7.96192 20.53C6.04133 19.5724 4.50586 17.9869 3.61027 16.0366L3.58351 15.9784H3.51939H1.80184H1.65656L1.70844 16.1141C2.43803 18.0227 3.67536 19.6956 5.28673 20.9521C6.89809 22.2085 8.8222 23.0007 10.8511 23.243C12.88 23.4853 14.9366 23.1685 16.7985 22.3268C18.6604 21.4851 20.2569 20.1506 21.4154 18.4674C22.5739 16.7843 23.2504 14.8165 23.3717 12.7768C23.4931 10.7371 23.0547 8.70301 22.1039 6.89437C21.1531 5.08574 19.7261 3.57135 17.9771 2.51486C16.2281 1.45837 14.2236 0.899967 12.1803 0.9C9.91033 0.900184 7.69388 1.58923 5.82392 2.87604C3.95396 4.16286 2.51853 5.98686 1.70738 8.10693Z" fill="white" stroke="white" stroke-width="0.2"/>
<path id="Path 267" d="M9.67328 15.4055L9.60245 15.4762L9.67322 15.5469L10.796 16.6697L10.8667 16.7404L10.9374 16.6697L15.4264 12.1808L15.4971 12.1101L15.4264 12.0393L10.9374 7.55038L10.8667 7.47967L10.796 7.55038L9.67322 8.67316L9.60251 8.74387L9.67322 8.81458L12.0757 11.217H1.07031H0.970312V11.317V12.9073V13.0073H1.07031H12.0754L9.67328 15.4055Z" fill="white" stroke="white" stroke-width="0.2"/>
</g>
</g>
</g>
</g>
</g>
<defs>
<linearGradient id="paint0_linear_0_1" x1="-217" y1="-406" x2="-217" y2="262" gradientUnits="userSpaceOnUse">
<stop stop-color="#5751BC"/>
<stop offset="0.761137" stop-color="#201D56" stop-opacity="0.45"/>
<stop offset="1" stop-color="#201D56" stop-opacity="0"/>
</linearGradient>
<clipPath id="clip0_0_1">
<rect width="1920" height="1407" fill="white" transform="translate(-1177 -583)"/>
</clipPath>
</defs>
</svg>
