<svg width="22" height="5" viewBox="0 0 22 5" fill="none" xmlns="http://www.w3.org/2000/svg">
<path d="M2.3133 3.77887H19.9969C20.1986 3.78533 20.3997 3.75141 20.5881 3.67908C20.778 3.60621 20.9513 3.49584 21.0976 3.35456C21.2439 3.21328 21.3603 3.04398 21.4398 2.85675C21.5193 2.66953 21.5602 2.46822 21.5602 2.26482C21.5602 2.06143 21.5193 1.86011 21.4398 1.67289C21.3603 1.48567 21.2439 1.31637 21.0976 1.17508C20.9513 1.0338 20.778 0.923435 20.5881 0.850562C20.3997 0.778236 20.1986 0.744316 19.9969 0.750776H2.3133C2.11157 0.744316 1.91056 0.778236 1.72209 0.850562C1.5322 0.923435 1.35892 1.0338 1.21261 1.17508C1.06629 1.31637 0.949918 1.48567 0.870439 1.67289C0.79096 1.86011 0.75 2.06143 0.75 2.26482C0.75 2.46822 0.790961 2.66953 0.870439 2.85675C0.949918 3.04398 1.06629 3.21328 1.21261 3.35456C1.35892 3.49584 1.5322 3.60621 1.72209 3.67908C1.91056 3.75141 2.11157 3.78533 2.3133 3.77887Z" fill="white" stroke="white" stroke-width="0.5"/>
</svg>
