<svg width="22" height="15" viewBox="0 0 22 15" fill="none" xmlns="http://www.w3.org/2000/svg">
<path d="M15.5902 13.7257C15.4461 13.8698 15.2749 13.9838 15.0864 14.0612L15.0294 13.9224L15.0864 14.0612C14.8978 14.1385 14.6958 14.1776 14.4921 14.1762C14.492 14.1762 14.4919 14.1762 14.4919 14.1762L2.20093 14.139C1.99732 14.1384 1.79581 14.0977 1.60793 14.0192C1.42004 13.9407 1.24945 13.826 1.10591 13.6816C0.962369 13.5372 0.848681 13.3659 0.77134 13.1775C0.694 12.9892 0.654524 12.7874 0.655164 12.5838L0.686916 2.10303C0.68751 1.89942 0.728208 1.69791 0.806688 1.51002C0.885169 1.32214 0.999893 1.15155 1.14431 1.00801C1.28872 0.864467 1.46 0.750779 1.64836 0.673438C1.83672 0.596097 2.03847 0.556622 2.24208 0.557261L14.533 0.594498C14.5331 0.594498 14.5332 0.594498 14.5332 0.594498C14.737 0.594331 14.9388 0.634656 15.1268 0.713129L15.069 0.851559C15.2388 0.922405 15.3928 1.02629 15.5221 1.15717L15.6285 1.05143L15.6286 1.05159L21.3472 6.8049C21.5061 6.96482 21.595 7.18133 21.5944 7.4068C21.5937 7.63227 21.5034 7.84824 21.3435 8.00719L15.5902 13.7257ZM15.5902 13.7257C15.5903 13.7257 15.5903 13.7256 15.5904 13.7256L15.4843 13.6195L15.5901 13.7259L15.5902 13.7257ZM2.35607 12.4396L14.4355 12.4762L19.5419 7.40058L14.4663 2.29414L2.38691 2.25755L2.35607 12.4396ZM14.1219 7.15001C14.1689 6.91733 14.2839 6.70382 14.4522 6.53647C14.678 6.31207 14.9837 6.18655 15.302 6.18751C15.6203 6.18847 15.9252 6.31585 16.1496 6.54162C16.317 6.70998 16.4306 6.92418 16.4762 7.15714C16.5218 7.3901 16.4973 7.63135 16.4058 7.85039C16.3143 8.06943 16.1599 8.25641 15.9621 8.38769C15.7644 8.51898 15.5321 8.58867 15.2947 8.58795C15.0573 8.58723 14.8255 8.51613 14.6285 8.38365C14.4315 8.25117 14.2783 8.06326 14.1881 7.84367C14.0979 7.62409 14.0749 7.38269 14.1219 7.15001Z" fill="white" stroke="white" stroke-width="0.3"/>
</svg>
