<svg width="9" height="16" viewBox="0 0 9 16" fill="none" xmlns="http://www.w3.org/2000/svg">
<g clip-path="url(#clip0_2598_1853)">
<path d="M1.74304 9.24853L5.57025 4.8783C5.70563 4.72313 5.78153 4.51285 5.78125 4.29373C5.78097 4.07461 5.70453 3.8646 5.56875 3.70988C5.43297 3.55517 5.24896 3.46843 5.05722 3.46875C4.86548 3.46907 4.6817 3.55643 4.54632 3.71159L0.210356 8.66127C0.07935 8.81156 0.00406813 9.01377 0.0001601 9.22586C-0.00374793 9.43795 0.0640186 9.64361 0.189373 9.80007L4.54332 14.7884C4.6787 14.9436 4.86248 15.0309 5.05422 15.0312C5.24597 15.0316 5.42997 14.9448 5.56575 14.7901C5.70153 14.6354 5.77797 14.4254 5.77825 14.2063C5.77853 13.9871 5.70263 13.7769 5.56725 13.6217L1.74304 9.24853Z" fill="white"/>
</g>
<defs>
<clipPath id="clip0_2598_1853">
<rect width="8.09375" height="15.0313" fill="white"/>
</clipPath>
</defs>
</svg>
