<svg width="25" height="25" viewBox="0 0 25 25" fill="none" xmlns="http://www.w3.org/2000/svg">
<path d="M12.9355 9.97266V13.0977" stroke="white" stroke-width="2" stroke-linecap="round" stroke-linejoin="round"/>
<path d="M9.9668 12.1309L12.9355 13.0977" stroke="white" stroke-width="2" stroke-linecap="round" stroke-linejoin="round"/>
<path d="M11.0996 15.627L12.9355 13.0977" stroke="white" stroke-width="2" stroke-linecap="round" stroke-linejoin="round"/>
<path d="M14.7715 15.627L12.9355 13.0977" stroke="white" stroke-width="2" stroke-linecap="round" stroke-linejoin="round"/>
<path d="M15.9043 12.1309L12.9355 13.0977" stroke="white" stroke-width="2" stroke-linecap="round" stroke-linejoin="round"/>
<path d="M7.79297 9.73633H3.10547V5.04883" stroke="white" stroke-width="2" stroke-linecap="round" stroke-linejoin="round"/>
<path d="M6.42578 18.5742C7.62736 19.7768 9.15861 20.596 10.8258 20.9281C12.493 21.2603 14.2213 21.0905 15.792 20.4403C17.3627 19.79 18.7053 18.6886 19.6499 17.2752C20.5945 15.8618 21.0987 14.2 21.0987 12.5C21.0987 10.8 20.5945 9.13823 19.6499 7.72484C18.7053 6.31146 17.3627 5.20998 15.792 4.55974C14.2213 3.90951 12.493 3.73973 10.8258 4.07189C9.15861 4.40405 7.62736 5.22323 6.42578 6.42579L3.10547 9.73633" stroke="white" stroke-width="2" stroke-linecap="round" stroke-linejoin="round"/>
</svg>
