<svg width="34" height="34" viewBox="0 0 34 34" fill="none" xmlns="http://www.w3.org/2000/svg">
<path fill-rule="evenodd" clip-rule="evenodd" d="M26.8111 18.8324C28.1882 16.447 23.881 11.3807 17.1903 7.51764C10.4976 3.65466 3.95751 2.45715 2.58037 4.84253C1.81551 6.16368 1.05257 7.48676 0.289624 8.80984C-1.08751 11.1953 3.21973 16.2596 9.91235 20.1227C16.6031 23.9857 23.1451 25.1852 24.5223 22.7997C25.2852 21.4766 26.0481 20.1555 26.8111 18.8324Z" fill="#FE9923"/>
<path fill-rule="evenodd" clip-rule="evenodd" d="M26.81 18.8322C27.8608 17.0146 25.6067 13.6383 21.5139 10.4263C20.4071 10.942 19.2772 11.5291 18.1434 12.1839C14.1646 14.4805 10.9292 17.1518 8.97266 19.5642C9.28275 19.7549 9.59569 19.941 9.91137 20.1224C13.6121 22.2586 17.2665 23.5798 20.0266 23.9313C21.2628 23.3712 22.5298 22.7222 23.8027 21.9882C24.4217 21.6297 25.0322 21.2568 25.6338 20.8698L26.81 18.8322Z" fill="#CE7C1D"/>
<path fill-rule="evenodd" clip-rule="evenodd" d="M17.1905 7.5177C10.4979 3.65465 3.95777 2.45715 2.58064 4.84253C1.20351 7.22598 5.51075 12.2923 12.2034 16.1554C18.8941 20.0183 25.4361 21.2178 26.8113 18.8324C28.1885 16.447 23.8812 11.3807 17.1905 7.5177Z" fill="#FECD3D"/>
<path fill-rule="evenodd" clip-rule="evenodd" d="M12.3223 16.2247C18.9725 20.0317 25.4429 21.2021 26.8104 18.8322C27.8612 17.0146 25.6071 13.6383 21.5143 10.4263C20.4076 10.942 19.2776 11.5291 18.1438 12.1839C15.9457 13.451 13.9756 14.834 12.3223 16.2247Z" fill="#CEA732"/>
<path fill-rule="evenodd" clip-rule="evenodd" d="M16.0239 9.53623C10.7006 6.46315 5.79076 5.00102 5.05677 6.27197C4.32471 7.54292 8.04479 11.064 13.368 14.1371C18.6913 17.2101 23.6012 18.6722 24.3351 17.4013C25.0691 16.1323 21.3471 12.6112 16.0239 9.53623Z" fill="#FEA832"/>
<path fill-rule="evenodd" clip-rule="evenodd" d="M14.3145 14.668C19.2611 17.3741 23.6455 18.5967 24.3351 17.4011C24.9088 16.4064 22.7532 14.0326 19.236 11.5737C18.8693 11.772 18.5055 11.9755 18.1446 12.1841C16.7714 12.976 15.4888 13.8124 14.3145 14.668Z" fill="#CE8829"/>
<path d="M21.7974 22.3479L20.8375 24.009C20.4299 23.9839 19.9954 23.9356 19.5414 23.8622L20.7621 21.7472L21.7974 22.3479ZM7.57187 18.6607C7.90239 18.8839 8.2366 19.1015 8.57434 19.3136L9.68306 17.3936L8.64779 16.7987L7.57187 18.6607ZM1.08398 12.6035C1.30996 12.9454 1.56882 13.2969 1.86047 13.6542L3.08122 11.5412L2.04402 10.9424L1.08398 12.6035ZM4.12227 15.9894C4.42466 16.2589 4.73248 16.5223 5.04552 16.7794L6.20829 14.7667L5.17302 14.1719L4.12227 15.9894ZM11.2804 20.878C11.6345 21.0633 11.9913 21.2436 12.3505 21.4188L13.4263 19.5569L12.391 18.9562L11.2804 20.878ZM15.2419 22.6666C15.6208 22.8094 16.0027 22.944 16.3873 23.0703L17.4381 21.2508L16.4028 20.6559L15.2419 22.6666Z" fill="#C85929"/>
<path d="M3.23747 19.864V21.0731H4.44659V22.0273H3.23747V23.2364H2.28334V22.0273H1.07422V21.0731H2.28334V19.864H3.23747ZM24.5439 5.44531V6.65251H25.753V7.6067H24.5439V8.81576H23.5897V7.6067H22.3806V6.65251H23.5897V5.44531H24.5439Z" fill="#FEA832"/>
<path fill-rule="evenodd" clip-rule="evenodd" d="M7.188 25.1907C5.8108 22.8054 10.12 17.741 16.8107 13.8779C23.5015 10.013 30.0434 8.81543 31.4206 11.2009C32.1835 12.5237 32.9471 13.8462 33.7114 15.1682C35.0886 17.5536 30.7794 22.618 24.0887 26.4829C17.396 30.3459 10.856 31.5435 9.47875 29.1581C8.71581 27.8369 7.95094 26.5138 7.188 25.1907Z" fill="#FE9923"/>
<path fill-rule="evenodd" clip-rule="evenodd" d="M16.8107 13.8779C23.5015 10.013 30.0434 8.81543 31.4206 11.2009C32.7978 13.5863 28.4886 18.6507 21.7979 22.5137C15.1052 26.3786 8.5652 27.5762 7.188 25.1907C5.8108 22.8053 10.12 17.741 16.8107 13.8779Z" fill="#FECD3D"/>
<path fill-rule="evenodd" clip-rule="evenodd" d="M17.974 15.8967C23.2972 12.8217 28.2091 11.3615 28.941 12.6305C29.675 13.9014 25.955 17.4225 20.6298 20.4956C15.3066 23.5705 10.3967 25.0307 9.66464 23.7618C8.93065 22.4909 12.6507 18.9697 17.974 15.8967Z" fill="#FEA832"/>
<path d="M17.5978 27.0143L18.7587 29.0249C18.3796 29.1689 17.9971 29.3035 17.6114 29.4286L16.5606 27.6092L17.5978 27.0143ZM20.5743 25.9153L21.6482 27.7772C22.0082 27.6035 22.3649 27.4232 22.7183 27.2364L21.6096 25.3165L20.5743 25.9153ZM12.2031 28.7063L13.1611 30.3674C13.5706 30.3442 14.0033 30.294 14.4591 30.2206L13.2383 28.1075L12.2031 28.7063ZM31.9547 17.3008L30.9194 17.8996L32.1381 20.0126C32.4298 19.6553 32.6906 19.3057 32.9146 18.9638L31.9547 17.3008ZM24.3175 23.752L25.4262 25.6739C25.7635 25.4605 26.0977 25.2422 26.4287 25.0191L25.3528 23.1571L24.3175 23.752ZM27.7923 21.1251L28.9551 23.1397C29.2757 22.8751 29.5828 22.6124 29.8764 22.3478L28.8276 20.5302L27.7923 21.1251Z" fill="#C85929"/>
</svg>
