<svg width="28" height="24" viewBox="0 0 28 24" fill="none" xmlns="http://www.w3.org/2000/svg">
<mask id="path-1-outside-1_3573_5371" maskUnits="userSpaceOnUse" x="0" y="0" width="28" height="24" fill="black">
<rect fill="white" width="28" height="24"/>
<path d="M2.5274 8.27122C2.12246 8.27172 1.73425 8.4328 1.44792 8.71914C1.16158 9.00547 1.0005 9.39368 1 9.79862V14.4751C1.0005 14.8801 1.16158 15.2683 1.44792 15.5546C1.73425 15.8409 2.12246 16.002 2.5274 16.0025H4.05782C4.70423 17.1019 5.63048 18.0809 6.76642 18.8725V22.1461C6.76642 22.3461 6.84588 22.538 6.98734 22.6794C7.12879 22.8209 7.32064 22.9003 7.52069 22.9003H11.4165C11.6166 22.9003 11.8084 22.8209 11.9499 22.6794C12.0913 22.538 12.1708 22.3461 12.1708 22.1461V20.86C12.6448 20.9128 13.1257 20.943 13.6114 20.943C14.0972 20.943 14.578 20.9128 15.0521 20.86V22.1461C15.0521 22.3461 15.1316 22.538 15.273 22.6794C15.4145 22.8209 15.6063 22.9003 15.8064 22.9003H19.7022C19.9022 22.9003 20.0941 22.8209 20.2355 22.6794C20.377 22.538 20.4565 22.3461 20.4565 22.1461V18.8725C22.6341 17.3595 23.9638 15.2271 24.2003 12.8911H24.2143C25.9585 12.8911 27.3777 11.4716 27.3777 9.72734V8.89727C27.3777 8.69722 27.2982 8.50537 27.1568 8.36392C27.0153 8.22246 26.8234 8.14299 26.6234 8.14299C26.4234 8.14299 26.2315 8.22246 26.09 8.36392C25.9486 8.50537 25.8691 8.69722 25.8691 8.89727V9.72734C25.8686 10.1661 25.6941 10.5868 25.3839 10.8971C25.0737 11.2074 24.653 11.382 24.2143 11.3826H24.2011C23.7372 6.8811 19.1663 3.33451 13.6111 3.33451C12.4578 3.33451 11.3294 3.48536 10.2515 3.7833L6.68269 1.14825C6.56889 1.06386 6.4336 1.01327 6.29236 1.00227C6.15111 0.991278 6.00963 1.02032 5.88414 1.08608C5.75865 1.15184 5.65424 1.25164 5.58289 1.37404C5.51154 1.49643 5.47614 1.63647 5.48076 1.77806L5.61879 6.33123C5.01068 6.90098 4.48651 7.55416 4.06197 8.27122H2.52703H2.5274ZM5.17754 9.37095C5.58409 8.58198 6.15055 7.86542 6.8607 7.24013C6.9502 7.16694 7.02168 7.07415 7.06962 6.96893C7.11755 6.86371 7.14065 6.74889 7.13714 6.63332L7.03531 3.28435L9.63378 5.20284C9.73011 5.27968 9.84379 5.33175 9.96489 5.35449C10.086 5.37724 10.2108 5.36998 10.3285 5.33333C11.3918 5.00504 12.4986 4.83973 13.6114 4.84305C18.6417 4.84305 22.7344 8.11509 22.7344 12.1369C22.7344 14.3646 21.4811 16.4423 19.296 17.8369C19.2938 17.8388 19.2922 17.8407 19.2896 17.8422C19.2632 17.8595 19.2398 17.8799 19.2161 17.9003C19.2017 17.9127 19.1859 17.9233 19.1723 17.9365C19.1546 17.9542 19.1395 17.9746 19.1233 17.9942C19.1082 18.0123 19.0916 18.0292 19.0784 18.0489C19.0656 18.0677 19.0558 18.0892 19.0448 18.1092C19.0328 18.1318 19.0188 18.1526 19.009 18.1756C19 18.1963 18.9951 18.2189 18.9879 18.2404C18.98 18.2653 18.9705 18.2895 18.9653 18.3151C18.9611 18.3332 18.9607 18.3528 18.9577 18.3713C18.954 18.4022 18.9491 18.4328 18.9487 18.4641L18.9479 18.4728V21.3918H16.5606V19.9888C16.5606 19.7888 16.4812 19.597 16.3397 19.4555C16.1983 19.314 16.0064 19.2346 15.8064 19.2346C15.7598 19.2349 15.7133 19.2396 15.6676 19.2485V19.2474C14.308 19.4952 12.9149 19.4952 11.5553 19.2474V19.2485C11.5096 19.2396 11.4631 19.2349 11.4165 19.2346C11.2165 19.2346 11.0246 19.314 10.8832 19.4555C10.7417 19.597 10.6622 19.7888 10.6622 19.9888V21.3918H8.27496V18.4728L8.27421 18.4645C8.27383 18.4324 8.26893 18.4007 8.2644 18.369C8.26214 18.3513 8.26176 18.3328 8.25799 18.3155C8.25233 18.2891 8.24215 18.2635 8.23385 18.2378C8.22706 18.2171 8.22254 18.1956 8.21386 18.176C8.2033 18.1511 8.1886 18.1284 8.1754 18.1047C8.16484 18.0862 8.15654 18.0666 8.14447 18.0492C8.13052 18.0285 8.11241 18.01 8.0962 17.9908C8.08111 17.9727 8.06754 17.9531 8.05094 17.9365C8.03661 17.9229 8.01964 17.9112 8.00418 17.8984C7.98155 17.8791 7.95892 17.8592 7.93365 17.8426C7.93101 17.8411 7.92913 17.8388 7.92686 17.8369C6.71098 17.06 5.75946 16.0463 5.1749 14.9047C5.1117 14.781 5.01558 14.6772 4.89713 14.6046C4.77867 14.5321 4.64249 14.4937 4.5036 14.4936L2.50855 14.4747L2.5274 9.77939H4.50737C4.6458 9.77936 4.78155 9.74124 4.89976 9.6692C5.01797 9.59716 5.11407 9.49397 5.17754 9.37095Z"/>
</mask>
<path d="M2.5274 8.27122C2.12246 8.27172 1.73425 8.4328 1.44792 8.71914C1.16158 9.00547 1.0005 9.39368 1 9.79862V14.4751C1.0005 14.8801 1.16158 15.2683 1.44792 15.5546C1.73425 15.8409 2.12246 16.002 2.5274 16.0025H4.05782C4.70423 17.1019 5.63048 18.0809 6.76642 18.8725V22.1461C6.76642 22.3461 6.84588 22.538 6.98734 22.6794C7.12879 22.8209 7.32064 22.9003 7.52069 22.9003H11.4165C11.6166 22.9003 11.8084 22.8209 11.9499 22.6794C12.0913 22.538 12.1708 22.3461 12.1708 22.1461V20.86C12.6448 20.9128 13.1257 20.943 13.6114 20.943C14.0972 20.943 14.578 20.9128 15.0521 20.86V22.1461C15.0521 22.3461 15.1316 22.538 15.273 22.6794C15.4145 22.8209 15.6063 22.9003 15.8064 22.9003H19.7022C19.9022 22.9003 20.0941 22.8209 20.2355 22.6794C20.377 22.538 20.4565 22.3461 20.4565 22.1461V18.8725C22.6341 17.3595 23.9638 15.2271 24.2003 12.8911H24.2143C25.9585 12.8911 27.3777 11.4716 27.3777 9.72734V8.89727C27.3777 8.69722 27.2982 8.50537 27.1568 8.36392C27.0153 8.22246 26.8234 8.14299 26.6234 8.14299C26.4234 8.14299 26.2315 8.22246 26.09 8.36392C25.9486 8.50537 25.8691 8.69722 25.8691 8.89727V9.72734C25.8686 10.1661 25.6941 10.5868 25.3839 10.8971C25.0737 11.2074 24.653 11.382 24.2143 11.3826H24.2011C23.7372 6.8811 19.1663 3.33451 13.6111 3.33451C12.4578 3.33451 11.3294 3.48536 10.2515 3.7833L6.68269 1.14825C6.56889 1.06386 6.4336 1.01327 6.29236 1.00227C6.15111 0.991278 6.00963 1.02032 5.88414 1.08608C5.75865 1.15184 5.65424 1.25164 5.58289 1.37404C5.51154 1.49643 5.47614 1.63647 5.48076 1.77806L5.61879 6.33123C5.01068 6.90098 4.48651 7.55416 4.06197 8.27122H2.52703H2.5274ZM5.17754 9.37095C5.58409 8.58198 6.15055 7.86542 6.8607 7.24013C6.9502 7.16694 7.02168 7.07415 7.06962 6.96893C7.11755 6.86371 7.14065 6.74889 7.13714 6.63332L7.03531 3.28435L9.63378 5.20284C9.73011 5.27968 9.84379 5.33175 9.96489 5.35449C10.086 5.37724 10.2108 5.36998 10.3285 5.33333C11.3918 5.00504 12.4986 4.83973 13.6114 4.84305C18.6417 4.84305 22.7344 8.11509 22.7344 12.1369C22.7344 14.3646 21.4811 16.4423 19.296 17.8369C19.2938 17.8388 19.2922 17.8407 19.2896 17.8422C19.2632 17.8595 19.2398 17.8799 19.2161 17.9003C19.2017 17.9127 19.1859 17.9233 19.1723 17.9365C19.1546 17.9542 19.1395 17.9746 19.1233 17.9942C19.1082 18.0123 19.0916 18.0292 19.0784 18.0489C19.0656 18.0677 19.0558 18.0892 19.0448 18.1092C19.0328 18.1318 19.0188 18.1526 19.009 18.1756C19 18.1963 18.9951 18.2189 18.9879 18.2404C18.98 18.2653 18.9705 18.2895 18.9653 18.3151C18.9611 18.3332 18.9607 18.3528 18.9577 18.3713C18.954 18.4022 18.9491 18.4328 18.9487 18.4641L18.9479 18.4728V21.3918H16.5606V19.9888C16.5606 19.7888 16.4812 19.597 16.3397 19.4555C16.1983 19.314 16.0064 19.2346 15.8064 19.2346C15.7598 19.2349 15.7133 19.2396 15.6676 19.2485V19.2474C14.308 19.4952 12.9149 19.4952 11.5553 19.2474V19.2485C11.5096 19.2396 11.4631 19.2349 11.4165 19.2346C11.2165 19.2346 11.0246 19.314 10.8832 19.4555C10.7417 19.597 10.6622 19.7888 10.6622 19.9888V21.3918H8.27496V18.4728L8.27421 18.4645C8.27383 18.4324 8.26893 18.4007 8.2644 18.369C8.26214 18.3513 8.26176 18.3328 8.25799 18.3155C8.25233 18.2891 8.24215 18.2635 8.23385 18.2378C8.22706 18.2171 8.22254 18.1956 8.21386 18.176C8.2033 18.1511 8.1886 18.1284 8.1754 18.1047C8.16484 18.0862 8.15654 18.0666 8.14447 18.0492C8.13052 18.0285 8.11241 18.01 8.0962 17.9908C8.08111 17.9727 8.06754 17.9531 8.05094 17.9365C8.03661 17.9229 8.01964 17.9112 8.00418 17.8984C7.98155 17.8791 7.95892 17.8592 7.93365 17.8426C7.93101 17.8411 7.92913 17.8388 7.92686 17.8369C6.71098 17.06 5.75946 16.0463 5.1749 14.9047C5.1117 14.781 5.01558 14.6772 4.89713 14.6046C4.77867 14.5321 4.64249 14.4937 4.5036 14.4936L2.50855 14.4747L2.5274 9.77939H4.50737C4.6458 9.77936 4.78155 9.74124 4.89976 9.6692C5.01797 9.59716 5.11407 9.49397 5.17754 9.37095Z" fill="white"/>
<path d="M2.5274 8.27122C2.12246 8.27172 1.73425 8.4328 1.44792 8.71914C1.16158 9.00547 1.0005 9.39368 1 9.79862V14.4751C1.0005 14.8801 1.16158 15.2683 1.44792 15.5546C1.73425 15.8409 2.12246 16.002 2.5274 16.0025H4.05782C4.70423 17.1019 5.63048 18.0809 6.76642 18.8725V22.1461C6.76642 22.3461 6.84588 22.538 6.98734 22.6794C7.12879 22.8209 7.32064 22.9003 7.52069 22.9003H11.4165C11.6166 22.9003 11.8084 22.8209 11.9499 22.6794C12.0913 22.538 12.1708 22.3461 12.1708 22.1461V20.86C12.6448 20.9128 13.1257 20.943 13.6114 20.943C14.0972 20.943 14.578 20.9128 15.0521 20.86V22.1461C15.0521 22.3461 15.1316 22.538 15.273 22.6794C15.4145 22.8209 15.6063 22.9003 15.8064 22.9003H19.7022C19.9022 22.9003 20.0941 22.8209 20.2355 22.6794C20.377 22.538 20.4565 22.3461 20.4565 22.1461V18.8725C22.6341 17.3595 23.9638 15.2271 24.2003 12.8911H24.2143C25.9585 12.8911 27.3777 11.4716 27.3777 9.72734V8.89727C27.3777 8.69722 27.2982 8.50537 27.1568 8.36392C27.0153 8.22246 26.8234 8.14299 26.6234 8.14299C26.4234 8.14299 26.2315 8.22246 26.09 8.36392C25.9486 8.50537 25.8691 8.69722 25.8691 8.89727V9.72734C25.8686 10.1661 25.6941 10.5868 25.3839 10.8971C25.0737 11.2074 24.653 11.382 24.2143 11.3826H24.2011C23.7372 6.8811 19.1663 3.33451 13.6111 3.33451C12.4578 3.33451 11.3294 3.48536 10.2515 3.7833L6.68269 1.14825C6.56889 1.06386 6.4336 1.01327 6.29236 1.00227C6.15111 0.991278 6.00963 1.02032 5.88414 1.08608C5.75865 1.15184 5.65424 1.25164 5.58289 1.37404C5.51154 1.49643 5.47614 1.63647 5.48076 1.77806L5.61879 6.33123C5.01068 6.90098 4.48651 7.55416 4.06197 8.27122H2.52703H2.5274ZM5.17754 9.37095C5.58409 8.58198 6.15055 7.86542 6.8607 7.24013C6.9502 7.16694 7.02168 7.07415 7.06962 6.96893C7.11755 6.86371 7.14065 6.74889 7.13714 6.63332L7.03531 3.28435L9.63378 5.20284C9.73011 5.27968 9.84379 5.33175 9.96489 5.35449C10.086 5.37724 10.2108 5.36998 10.3285 5.33333C11.3918 5.00504 12.4986 4.83973 13.6114 4.84305C18.6417 4.84305 22.7344 8.11509 22.7344 12.1369C22.7344 14.3646 21.4811 16.4423 19.296 17.8369C19.2938 17.8388 19.2922 17.8407 19.2896 17.8422C19.2632 17.8595 19.2398 17.8799 19.2161 17.9003C19.2017 17.9127 19.1859 17.9233 19.1723 17.9365C19.1546 17.9542 19.1395 17.9746 19.1233 17.9942C19.1082 18.0123 19.0916 18.0292 19.0784 18.0489C19.0656 18.0677 19.0558 18.0892 19.0448 18.1092C19.0328 18.1318 19.0188 18.1526 19.009 18.1756C19 18.1963 18.9951 18.2189 18.9879 18.2404C18.98 18.2653 18.9705 18.2895 18.9653 18.3151C18.9611 18.3332 18.9607 18.3528 18.9577 18.3713C18.954 18.4022 18.9491 18.4328 18.9487 18.4641L18.9479 18.4728V21.3918H16.5606V19.9888C16.5606 19.7888 16.4812 19.597 16.3397 19.4555C16.1983 19.314 16.0064 19.2346 15.8064 19.2346C15.7598 19.2349 15.7133 19.2396 15.6676 19.2485V19.2474C14.308 19.4952 12.9149 19.4952 11.5553 19.2474V19.2485C11.5096 19.2396 11.4631 19.2349 11.4165 19.2346C11.2165 19.2346 11.0246 19.314 10.8832 19.4555C10.7417 19.597 10.6622 19.7888 10.6622 19.9888V21.3918H8.27496V18.4728L8.27421 18.4645C8.27383 18.4324 8.26893 18.4007 8.2644 18.369C8.26214 18.3513 8.26176 18.3328 8.25799 18.3155C8.25233 18.2891 8.24215 18.2635 8.23385 18.2378C8.22706 18.2171 8.22254 18.1956 8.21386 18.176C8.2033 18.1511 8.1886 18.1284 8.1754 18.1047C8.16484 18.0862 8.15654 18.0666 8.14447 18.0492C8.13052 18.0285 8.11241 18.01 8.0962 17.9908C8.08111 17.9727 8.06754 17.9531 8.05094 17.9365C8.03661 17.9229 8.01964 17.9112 8.00418 17.8984C7.98155 17.8791 7.95892 17.8592 7.93365 17.8426C7.93101 17.8411 7.92913 17.8388 7.92686 17.8369C6.71098 17.06 5.75946 16.0463 5.1749 14.9047C5.1117 14.781 5.01558 14.6772 4.89713 14.6046C4.77867 14.5321 4.64249 14.4937 4.5036 14.4936L2.50855 14.4747L2.5274 9.77939H4.50737C4.6458 9.77936 4.78155 9.74124 4.89976 9.6692C5.01797 9.59716 5.11407 9.49397 5.17754 9.37095Z" stroke="white" stroke-width="0.8" mask="url(#path-1-outside-1_3573_5371)"/>
<path d="M7.48279 10.6757C7.73588 10.6757 7.9786 10.5752 8.15756 10.3962C8.33652 10.2173 8.43706 9.97456 8.43706 9.72147V9.05017C8.43706 8.79708 8.33652 8.55436 8.15756 8.3754C7.9786 8.19644 7.73588 8.0959 7.48279 8.0959C7.2297 8.0959 6.98698 8.19644 6.80802 8.3754C6.62905 8.55436 6.52852 8.79708 6.52852 9.05017V9.72147C6.52852 9.97456 6.62905 10.2173 6.80802 10.3962C6.98698 10.5752 7.2297 10.6757 7.48279 10.6757Z" fill="white" stroke="white" stroke-width="0.4"/>
</svg>
