<svg width="17" height="14" viewBox="0 0 17 14" fill="none" xmlns="http://www.w3.org/2000/svg">
<path d="M8.916 0.254972C8.74445 0.426158 8.64746 0.658181 8.64614 0.900532C8.64483 1.14288 8.73931 1.37594 8.909 1.54897L13.184 5.83097H0.914C0.671592 5.83097 0.439112 5.92727 0.267704 6.09868C0.0962958 6.27008 0 6.50256 0 6.74497C0 6.98738 0.0962958 7.21986 0.267704 7.39127C0.439112 7.56268 0.671592 7.65897 0.914 7.65897H13.177L8.902 11.945C8.73375 12.1188 8.64026 12.3515 8.64157 12.5934C8.64288 12.8353 8.73888 13.067 8.909 13.239C8.99396 13.323 9.09465 13.3895 9.20531 13.4347C9.31597 13.4798 9.43444 13.5027 9.55395 13.502C9.67346 13.5014 9.79167 13.4772 9.90184 13.4309C10.012 13.3845 10.112 13.3169 10.196 13.232L15.99 7.39597C16.0691 7.31139 16.1334 7.21401 16.18 7.10797C16.2275 6.99676 16.2513 6.87689 16.25 6.75597C16.2502 6.51688 16.1569 6.2872 15.99 6.11597L10.196 0.279972C10.114 0.193659 10.0156 0.124483 9.90665 0.0764541C9.79769 0.0284248 9.68028 0.00249695 9.56122 0.000171626C9.44216 -0.00215369 9.32383 0.0191702 9.21307 0.0629081C9.10232 0.106646 9.00134 0.171929 8.916 0.254972Z" fill="white"/>
</svg>
