<svg id="icon-comfort-trade" xmlns="http://www.w3.org/2000/svg" width="14.435" height="17" viewBox="0 0 14.435 17">
  <path id="Path_65" data-name="Path 65" d="M52.041,181.449a1.026,1.026,0,0,0-1.026,1.026v4.947H40.685v-4.947a1.026,1.026,0,0,0-2.052,0v7.539a1.026,1.026,0,0,0,.528.9v1.513h1v-1.384H51.543v1.384h1v-1.513a1.026,1.026,0,0,0,.528-.9v-7.539A1.026,1.026,0,0,0,52.041,181.449Z" transform="translate(-38.633 -175.424)" fill="#201d56"/>
  <path id="Path_66" data-name="Path 66" d="M71.559,9.447H79.9V11H71.559Zm0-2.4v1.4H79.9v-1.4a2.025,2.025,0,0,1,2.022-2.022v-4A1.026,1.026,0,0,0,80.893,0H70.563a1.026,1.026,0,0,0-1.026,1.026v4A2.025,2.025,0,0,1,71.559,7.051Z" transform="translate(-68.511)" fill="#201d56"/>
</svg>
