<svg width="20" height="12" viewBox="0 0 20 12" fill="none" xmlns="http://www.w3.org/2000/svg">
<path d="M10 2.66667C9.34073 2.66667 8.69626 2.86216 8.1481 3.22844C7.59994 3.59471 7.17269 4.1153 6.9204 4.72439C6.66811 5.33348 6.6021 6.0037 6.73072 6.6503C6.85933 7.29691 7.1768 7.89085 7.64298 8.35702C8.10915 8.8232 8.7031 9.14067 9.3497 9.26929C9.9963 9.3979 10.6665 9.33189 11.2756 9.0796C11.8847 8.82731 12.4053 8.40006 12.7716 7.8519C13.1378 7.30374 13.3333 6.65927 13.3333 6C13.3333 5.11595 12.9821 4.2681 12.357 3.64298C11.7319 3.01786 10.8841 2.66667 10 2.66667ZM10 8C9.60444 8 9.21776 7.8827 8.88886 7.66294C8.55996 7.44318 8.30362 7.13082 8.15224 6.76537C8.00087 6.39991 7.96126 5.99778 8.03843 5.60982C8.1156 5.22186 8.30608 4.86549 8.58579 4.58579C8.86549 4.30608 9.22186 4.1156 9.60982 4.03843C9.99778 3.96126 10.3999 4.00087 10.7654 4.15224C11.1308 4.30362 11.4432 4.55996 11.6629 4.88886C11.8827 5.21776 12 5.60444 12 6C12 6.53043 11.7893 7.03914 11.4142 7.41421C11.0391 7.78929 10.5304 8 10 8ZM19.3333 0H0.666667C0.489856 0 0.320286 0.070238 0.195262 0.195262C0.0702379 0.320287 0 0.489856 0 0.666667V11.3333C0 11.5101 0.0702379 11.6797 0.195262 11.8047C0.320286 11.9298 0.489856 12 0.666667 12H19.3333C19.5101 12 19.6797 11.9298 19.8047 11.8047C19.9298 11.6797 20 11.5101 20 11.3333V0.666667C20 0.489856 19.9298 0.320287 19.8047 0.195262C19.6797 0.070238 19.5101 0 19.3333 0ZM15.4708 10.6667H4.52917C4.30534 9.90967 3.89567 9.2207 3.33749 8.66251C2.7793 8.10433 2.09033 7.69466 1.33333 7.47083V4.52917C2.09033 4.30534 2.7793 3.89567 3.33749 3.33749C3.89567 2.7793 4.30534 2.09033 4.52917 1.33333H15.4708C15.6947 2.09033 16.1043 2.7793 16.6625 3.33749C17.2207 3.89567 17.9097 4.30534 18.6667 4.52917V7.47083C17.9097 7.69466 17.2207 8.10433 16.6625 8.66251C16.1043 9.2207 15.6947 9.90967 15.4708 10.6667ZM18.6667 3.11417C17.867 2.77033 17.2297 2.13297 16.8858 1.33333H18.6667V3.11417ZM3.11417 1.33333C2.77033 2.13297 2.13297 2.77033 1.33333 3.11417V1.33333H3.11417ZM1.33333 8.88583C2.13297 9.22967 2.77033 9.86703 3.11417 10.6667H1.33333V8.88583ZM16.8858 10.6667C17.2297 9.86703 17.867 9.22967 18.6667 8.88583V10.6667H16.8858Z" fill="#EFEFF4"/>
</svg>
