<svg width="18" height="18" viewBox="0 0 18 18" fill="none" xmlns="http://www.w3.org/2000/svg">
    <path d="M12.259 6.72058L9.97875 9L12.259 11.2794C12.3234 11.3437 12.3744 11.4201 12.4092 11.5041C12.444 11.5882 12.4619 11.6783 12.4619 11.7692C12.4619 11.8602 12.444 11.9503 12.4092 12.0343C12.3744 12.1184 12.3234 12.1947 12.259 12.259C12.1947 12.3234 12.1184 12.3744 12.0343 12.4092C11.9503 12.444 11.8602 12.4619 11.7692 12.4619C11.6783 12.4619 11.5882 12.444 11.5041 12.4092C11.4201 12.3744 11.3437 12.3234 11.2794 12.259L9 9.97875L6.72058 12.259C6.65626 12.3234 6.5799 12.3744 6.49585 12.4092C6.41181 12.444 6.32174 12.4619 6.23077 12.4619C6.13981 12.4619 6.04973 12.444 5.96569 12.4092C5.88165 12.3744 5.80529 12.3234 5.74096 12.259C5.67664 12.1947 5.62562 12.1184 5.59081 12.0343C5.556 11.9503 5.53808 11.8602 5.53808 11.7692C5.53808 11.6783 5.556 11.5882 5.59081 11.5041C5.62562 11.4201 5.67664 11.3437 5.74096 11.2794L8.02125 9L5.74096 6.72058C5.61106 6.59067 5.53808 6.41448 5.53808 6.23077C5.53808 6.04705 5.61106 5.87086 5.74096 5.74096C5.87087 5.61105 6.04706 5.53808 6.23077 5.53808C6.41449 5.53808 6.59067 5.61105 6.72058 5.74096L9 8.02125L11.2794 5.74096C11.3437 5.67664 11.4201 5.62561 11.5041 5.5908C11.5882 5.55599 11.6783 5.53808 11.7692 5.53808C11.8602 5.53808 11.9503 5.55599 12.0343 5.5908C12.1184 5.62561 12.1947 5.67664 12.259 5.74096C12.3234 5.80528 12.3744 5.88164 12.4092 5.96569C12.444 6.04973 12.4619 6.1398 12.4619 6.23077C12.4619 6.32173 12.444 6.41181 12.4092 6.49585C12.3744 6.57989 12.3234 6.65625 12.259 6.72058ZM18 9C18 10.78 17.4722 12.5201 16.4832 14.0001C15.4943 15.4802 14.0887 16.6337 12.4442 17.3149C10.7996 17.9961 8.99002 18.1743 7.24419 17.8271C5.49836 17.4798 3.89471 16.6226 2.63604 15.364C1.37737 14.1053 0.520203 12.5016 0.172936 10.7558C-0.17433 9.00998 0.00389956 7.20038 0.685088 5.55585C1.36628 3.91131 2.51983 2.50571 3.99987 1.51677C5.47991 0.527841 7.21997 0 9 0C11.3862 0.00251984 13.6739 0.95154 15.3612 2.63882C17.0485 4.3261 17.9975 6.61382 18 9ZM16.6154 9C16.6154 7.49382 16.1688 6.02146 15.332 4.76912C14.4952 3.51677 13.3058 2.54069 11.9143 1.9643C10.5228 1.38791 8.99155 1.2371 7.51431 1.53094C6.03707 1.82478 4.68014 2.55008 3.61511 3.61511C2.55008 4.68014 1.82479 6.03707 1.53095 7.51431C1.23711 8.99155 1.38792 10.5227 1.96431 11.9143C2.5407 13.3058 3.51678 14.4952 4.76912 15.332C6.02146 16.1687 7.49382 16.6154 9 16.6154C11.019 16.6131 12.9547 15.81 14.3824 14.3824C15.81 12.9547 16.6131 11.019 16.6154 9Z" fill="#201D56"/>
</svg>
