<svg width="28" height="28" viewBox="0 0 28 28" fill="none" xmlns="http://www.w3.org/2000/svg">
<path d="M10.5 13.125C15.3325 13.125 19.25 11.3621 19.25 9.1875C19.25 7.01288 15.3325 5.25 10.5 5.25C5.66751 5.25 1.75 7.01288 1.75 9.1875C1.75 11.3621 5.66751 13.125 10.5 13.125Z" stroke="white" stroke-width="2" stroke-linecap="round" stroke-linejoin="round"/>
<path d="M1.75 9.1875V13.5625C1.75 15.7391 5.66562 17.5 10.5 17.5C15.3344 17.5 19.25 15.7391 19.25 13.5625V9.1875" stroke="white" stroke-width="2" stroke-linecap="round" stroke-linejoin="round"/>
<path d="M7 12.7969V17.1719" stroke="white" stroke-width="2" stroke-linecap="round" stroke-linejoin="round"/>
<path d="M19.25 10.5767C23.2422 10.9485 26.25 12.5345 26.25 14.4376C26.25 16.6142 22.3344 18.3751 17.5 18.3751C15.3562 18.3751 13.3875 18.0251 11.8672 17.4563" stroke="white" stroke-width="2" stroke-linecap="round" stroke-linejoin="round"/>
<path d="M8.75 17.4234V18.8125C8.75 20.9891 12.6656 22.75 17.5 22.75C22.3344 22.75 26.25 20.9891 26.25 18.8125V14.4375" stroke="white" stroke-width="2" stroke-linecap="round" stroke-linejoin="round"/>
<path d="M21 18.0469V22.4219" stroke="white" stroke-width="2" stroke-linecap="round" stroke-linejoin="round"/>
<path d="M14 12.7969V22.4219" stroke="white" stroke-width="2" stroke-linecap="round" stroke-linejoin="round"/>
</svg>
