<svg width="13" height="13" viewBox="0 0 13 13" fill="none" xmlns="http://www.w3.org/2000/svg">
<path d="M11.3146 4.4717C11.1077 4.46696 10.9074 4.54452 10.7577 4.68738C10.608 4.83024 10.5211 5.02669 10.5162 5.23356V8.90486H2.48482V5.23356C2.47689 5.02727 2.38936 4.83207 2.2406 4.68893C2.09185 4.54578 1.89343 4.46582 1.68699 4.46582C1.48055 4.46582 1.28213 4.54578 1.13338 4.68893C0.984621 4.83207 0.897093 5.02727 0.88916 5.23356V10.8296C0.890393 10.9675 0.929275 11.1024 1.0016 11.2199C1.07393 11.3373 1.17696 11.4327 1.29957 11.4959V12.6186H2.07441V11.5914H10.9278V12.6186H11.7003V11.49C11.8229 11.4268 11.9259 11.3314 11.9982 11.214C12.0706 11.0966 12.1094 10.9616 12.1107 10.8237V5.22766C12.1042 5.02224 12.017 4.82766 11.8679 4.68614C11.7189 4.54461 11.5201 4.46757 11.3146 4.4717Z" fill="white"/>
<path d="M3.25762 7.01261H9.74404V8.16602H3.25762V7.01261ZM3.25762 5.23416V6.27316H9.74404V5.23416C9.75425 4.8275 9.92491 4.44139 10.2188 4.16012C10.5126 3.87884 10.9059 3.72524 11.3126 3.73285V0.762065C11.3076 0.555401 11.2209 0.359136 11.0715 0.216314C10.922 0.0734926 10.722 -0.00422525 10.5153 0.000205782H2.48396C2.27708 -0.00454215 2.07678 0.0730346 1.92707 0.21589C1.77736 0.358745 1.69049 0.555192 1.68555 0.762065V3.73285C2.09287 3.72429 2.48698 3.87747 2.78162 4.15885C3.07626 4.44022 3.24741 4.82687 3.25762 5.23416Z" fill="white"/>
</svg>
