<svg width="13" height="13" viewBox="0 0 13 13" fill="none" xmlns="http://www.w3.org/2000/svg">
<path d="M12.7179 6.25933L6.74082 0.282276C6.65172 0.192467 6.54566 0.121263 6.4288 0.0728051C6.31195 0.0243469 6.18662 -0.000399296 6.06012 4.87201e-06H0.481492C0.353793 4.87201e-06 0.231325 0.0507329 0.141029 0.141029C0.0507329 0.231325 4.87201e-06 0.353793 4.87201e-06 0.481492V6.06012C-0.000399296 6.18662 0.0243469 6.31195 0.0728051 6.4288C0.121263 6.54566 0.192467 6.65172 0.282276 6.74082L6.25933 12.7179C6.34875 12.8073 6.45492 12.8783 6.57177 12.9267C6.68862 12.9751 6.81386 13 6.94033 13C7.06681 13 7.19205 12.9751 7.3089 12.9267C7.42575 12.8783 7.53191 12.8073 7.62134 12.7179L12.7179 7.62134C12.8073 7.53191 12.8783 7.42575 12.9267 7.3089C12.9751 7.19205 13 7.06681 13 6.94033C13 6.81386 12.9751 6.68862 12.9267 6.57177C12.8783 6.45492 12.8073 6.34875 12.7179 6.25933ZM6.94003 12.0372L0.962978 6.06012V0.962978H6.06012L12.0372 6.94003L6.94003 12.0372ZM3.8519 3.12967C3.8519 3.27251 3.80954 3.41215 3.73018 3.53092C3.65082 3.64969 3.53802 3.74226 3.40605 3.79692C3.27408 3.85159 3.12887 3.86589 2.98877 3.83802C2.84867 3.81015 2.71998 3.74137 2.61897 3.64036C2.51797 3.53936 2.44918 3.41067 2.42132 3.27057C2.39345 3.13047 2.40775 2.98525 2.46241 2.85328C2.51708 2.72131 2.60965 2.60852 2.72842 2.52916C2.84719 2.4498 2.98682 2.40744 3.12967 2.40744C3.32122 2.40744 3.50492 2.48353 3.64036 2.61897C3.77581 2.75442 3.8519 2.93812 3.8519 3.12967Z" fill="white"/>
</svg>
