<svg width="37" height="29" viewBox="0 0 37 29" fill="none" xmlns="http://www.w3.org/2000/svg">
    <path d="M30.9876 3.26944C28.6573 2.17913 26.1656 1.38674 23.5605 0.935547C23.2406 1.51396 22.8668 2.29195 22.6091 2.91083C19.8399 2.49437 17.0962 2.49437 14.3779 2.91083C14.1203 2.29195 13.738 1.51396 13.4152 0.935547C10.8074 1.38674 8.31282 2.18205 5.98248 3.27522C1.28215 10.378 0.00797077 17.3044 0.645062 24.1324C3.76257 26.4605 6.7838 27.8748 9.75405 28.8002C10.4874 27.7909 11.1415 26.7179 11.705 25.5871C10.6318 25.1794 9.60398 24.6762 8.6328 24.092C8.89045 23.9011 9.14247 23.7015 9.38596 23.4962C15.3095 26.2668 21.7455 26.2668 27.5983 23.4962C27.8446 23.7015 28.0966 23.9011 28.3515 24.092C27.3774 24.679 26.3468 25.1822 25.2736 25.5901C25.8371 26.7179 26.4883 27.7938 27.2245 28.8031C30.1976 27.8776 33.2217 26.4634 36.3392 24.1324C37.0867 16.217 35.0622 9.35424 30.9876 3.26944ZM12.512 19.9333C10.7338 19.9333 9.27552 18.2732 9.27552 16.2517C9.27552 14.2302 10.7026 12.5673 12.512 12.5673C14.3213 12.5673 15.7795 14.2273 15.7484 16.2517C15.7512 18.2732 14.3213 19.9333 12.512 19.9333ZM24.4723 19.9333C22.6941 19.9333 21.2359 18.2732 21.2359 16.2517C21.2359 14.2302 22.6629 12.5673 24.4723 12.5673C26.2816 12.5673 27.7399 14.2273 27.7087 16.2517C27.7087 18.2732 26.2816 19.9333 24.4723 19.9333Z" fill="white"/>
</svg>
