<svg xmlns="http://www.w3.org/2000/svg" width="45.966" height="45.91" viewBox="0 0 45.966 45.91">
  <g id="Group_810" data-name="Group 810" transform="translate(45.966 37.849) rotate(168)">
    <path id="Path_286" data-name="Path 286" d="M34.7,13.153,32.748,1.895,20.938,0,0,20.658,13.843,33.992Z" transform="translate(0.364 3.87)" fill="#ea3030"/>
    <path id="Path_285" data-name="Path 285" d="M.646,22.829,19.958,3.518a2.05,2.05,0,0,1,1.867-.574l5.456.933q0-.108,0-.215A6.171,6.171,0,0,1,32.881,0a5.838,5.838,0,0,1,5.887,5.743,5.714,5.714,0,0,1-3.949,5.384l1.005,5.743a2,2,0,0,1-.574,1.867L15.938,38.049a2.082,2.082,0,0,1-3.015,0L.646,25.844a2.082,2.082,0,0,1,0-3.015ZM37.332,5.743a4.4,4.4,0,0,0-4.451-4.307,4.56,4.56,0,0,0-4.164,2.728l3.59.646a2.14,2.14,0,0,1,1.723,1.723L34.6,9.763A4.475,4.475,0,0,0,37.332,5.743ZM1.651,24.839,13.927,37.115a.694.694,0,0,0,1.005,0L34.245,17.8a.815.815,0,0,0,.215-.574h0l-1.005-5.743h-.574a4.577,4.577,0,0,1-1.723-.287,2.4,2.4,0,0,1-1.651.646,2.492,2.492,0,0,1-1.795-.718,2.429,2.429,0,0,1,0-3.518,2.483,2.483,0,0,1,4.164,2.369,4.415,4.415,0,0,0,1.005.072h.287l-.574-3.3a.779.779,0,0,0-.574-.574L21.609,4.307h-.144a.652.652,0,0,0-.5.215L1.651,23.834a.694.694,0,0,0,0,1.005Zm28.5-16.225a1.153,1.153,0,0,0-.79-.359.264.264,0,0,0-.215.072c.072.072.144.072.215.144a3.652,3.652,0,0,0,1.149.933A.915.915,0,0,0,30.153,8.615Zm-1.723.861a1.443,1.443,0,0,0,.287.574.922.922,0,0,0,.718.287A2.923,2.923,0,0,1,28.43,9.476Z" transform="translate(0 0)" fill="#231f20"/>
  </g>
</svg>
