<svg width="22" height="22" viewBox="0 0 22 22" fill="none" xmlns="http://www.w3.org/2000/svg">
  <path d="M10.838 0.274921C13.2905 0.276841 15.667 1.12636 17.565 2.6796C19.463 4.23284 20.7658 6.39433 21.2528 8.79803C21.7399 11.2017 21.3811 13.6999 20.2374 15.8694C19.0937 18.0389 17.2353 19.7465 14.977 20.7029C12.3847 21.7692 9.47626 21.7689 6.88416 20.7022C4.29205 19.6355 2.22588 17.5886 1.13494 15.0066C0.0439985 12.4246 0.016506 9.51635 1.05844 6.9142C2.10038 4.31204 4.12748 2.22644 6.69895 1.11092C8.00832 0.5566 9.41609 0.272257 10.838 0.274921ZM10.838 19.6059C12.8508 19.6061 14.8014 18.9083 16.3574 17.6315C17.9134 16.3546 18.9786 14.5778 19.3714 12.6036C19.7641 10.6295 19.4603 8.58024 18.5115 6.80505C17.5627 5.02986 16.0277 3.63857 14.1682 2.86825C12.3086 2.09793 10.2394 1.99624 8.31323 2.58051C6.38706 3.16478 4.72308 4.39887 3.60482 6.07247C2.48655 7.74608 1.9832 9.75566 2.18052 11.7588C2.37784 13.7619 3.26363 15.6347 4.68695 17.0579C5.49282 17.8682 6.45141 18.5107 7.50723 18.948C8.56305 19.3854 9.69514 19.609 10.838 19.6059Z" fill="#D6D6D6"/>
  <path d="M10.839 15.7402C10.7121 15.7403 10.5865 15.7153 10.4693 15.6668C10.3521 15.6182 10.2456 15.547 10.156 15.4572L6.28899 11.5902C6.11607 11.4072 6.02132 11.1641 6.02488 10.9123C6.02843 10.6606 6.13 10.4202 6.30801 10.2422C6.48601 10.0642 6.72642 9.96263 6.97814 9.95908C7.22985 9.95553 7.47303 10.0503 7.65599 10.2232L10.839 13.4062L14.022 10.2232C14.2049 10.0503 14.4481 9.95553 14.6998 9.95908C14.9516 9.96263 15.192 10.0642 15.37 10.2422C15.548 10.4202 15.6495 10.6606 15.6531 10.9123C15.6566 11.1641 15.5619 11.4072 15.389 11.5902L11.523 15.4562C11.4333 15.5463 11.3267 15.6178 11.2093 15.6665C11.092 15.7152 10.9661 15.7403 10.839 15.7402Z" fill="#D6D6D6"/>
  <path d="M10.839 15.7391C10.5828 15.7391 10.3372 15.6375 10.1559 15.4565C9.9746 15.2756 9.87249 15.0302 9.87196 14.7741V7.04106C9.86779 6.91152 9.88971 6.78247 9.9364 6.66157C9.9831 6.54067 10.0536 6.43039 10.1438 6.33728C10.2339 6.24417 10.3419 6.17014 10.4612 6.11958C10.5806 6.06902 10.7089 6.04297 10.8385 6.04297C10.9681 6.04297 11.0963 6.06902 11.2157 6.11958C11.335 6.17014 11.443 6.24417 11.5331 6.33728C11.6233 6.43039 11.6938 6.54067 11.7405 6.66157C11.7872 6.78247 11.8091 6.91152 11.805 7.04106V14.7741C11.8044 15.03 11.7025 15.2753 11.5214 15.4562C11.3403 15.6371 11.0949 15.7388 10.839 15.7391Z" fill="#D6D6D6"/>
  </svg>
  