<?xml version="1.0" encoding="utf-8"?><!-- Uploaded to: SVG Repo, www.svgrepo.com, Generator: SVG Repo Mixer Tools -->
<svg width="20px" height="20px" viewBox="0 0 24 24" fill="none" xmlns="http://www.w3.org/2000/svg">
<path d="M13 20.75H12.85C11.1283 20.7123 9.45596 20.1674 8.04255 19.1835C6.62915 18.1996 5.5375 16.8205 4.90437 15.219C4.27123 13.6175 4.12477 11.8648 4.48331 10.1804C4.84186 8.49597 5.68948 6.95484 6.91999 5.75002C7.73905 4.94129 8.71314 4.30649 9.78374 3.88374C10.8543 3.461 11.9994 3.25905 13.15 3.29002C15.3968 3.32202 17.5452 4.21718 19.15 5.79002C19.2904 5.93064 19.3693 6.12127 19.3693 6.32002C19.3693 6.51877 19.2904 6.70939 19.15 6.85002C19.0094 6.99047 18.8187 7.06936 18.62 7.06936C18.4212 7.06936 18.2306 6.99047 18.09 6.85002C17.078 5.85423 15.7963 5.17702 14.4034 4.90218C13.0105 4.62734 11.5675 4.76695 10.2532 5.30371C8.9388 5.84048 7.81065 6.75085 7.00834 7.92217C6.20602 9.0935 5.76476 10.4744 5.73915 11.8939C5.71353 13.3134 6.1047 14.7093 6.86423 15.9088C7.62376 17.1083 8.71833 18.0588 10.0125 18.6426C11.3066 19.2264 12.7436 19.418 14.1455 19.1936C15.5474 18.9692 16.8527 18.3386 17.9 17.38L18.12 17.17C18.2669 17.03 18.4621 16.9519 18.665 16.9519C18.8679 16.9519 19.0631 17.03 19.21 17.17C19.2799 17.2318 19.3367 17.3069 19.3771 17.391C19.4176 17.475 19.4408 17.5663 19.4455 17.6595C19.4501 17.7527 19.4361 17.8458 19.4043 17.9335C19.3724 18.0212 19.3234 18.1016 19.26 18.17L19.21 18.22L18.92 18.5C17.2984 19.9654 15.1856 20.7684 13 20.75Z" fill="#000000"/>
<path d="M17 11.25H3C2.80109 11.25 2.61032 11.171 2.46967 11.0303C2.32902 10.8897 2.25 10.6989 2.25 10.5C2.25 10.3011 2.32902 10.1103 2.46967 9.96967C2.61032 9.82902 2.80109 9.75 3 9.75H17C17.1989 9.75 17.3897 9.82902 17.5303 9.96967C17.671 10.1103 17.75 10.3011 17.75 10.5C17.75 10.6989 17.671 10.8897 17.5303 11.0303C17.3897 11.171 17.1989 11.25 17 11.25Z" fill="#000000"/>
<path d="M15.5 14.25H3C2.80109 14.25 2.61032 14.171 2.46967 14.0303C2.32902 13.8897 2.25 13.6989 2.25 13.5C2.25 13.3011 2.32902 13.1103 2.46967 12.9697C2.61032 12.829 2.80109 12.75 3 12.75H15.5C15.6989 12.75 15.8897 12.829 16.0303 12.9697C16.171 13.1103 16.25 13.3011 16.25 13.5C16.25 13.6989 16.171 13.8897 16.0303 14.0303C15.8897 14.171 15.6989 14.25 15.5 14.25Z" fill="#000000"/>
</svg>