<svg xmlns="http://www.w3.org/2000/svg" width="42" height="42" viewBox="0 0 42 42">
  <g id="Group_1533" data-name="Group 1533" transform="translate(0.027 0.17)">
    <circle id="Ellipse_102" data-name="Ellipse 102" cx="21" cy="21" r="21" transform="translate(-0.028 -0.17)" fill="#201d57"/>
    <g id="Group_925" data-name="Group 925" transform="translate(7.023 10.058)">
      <path id="Path_392" data-name="Path 392" d="M25.521,15.974H16.189v-3.23a2.523,2.523,0,0,0-2.323-2.679L2.323,10.06A2.518,2.518,0,0,0,0,12.734v8.523a2.523,2.523,0,0,0,2.323,2.679h.431v1.5a.734.734,0,0,0,.331.632.557.557,0,0,0,.644-.035l2.728-2.1h5.2V27.17a2.518,2.518,0,0,0,2.319,2.674h7.413l2.728,2.107a.557.557,0,0,0,.644.035.734.734,0,0,0,.331-.632v-1.5h.431a2.524,2.524,0,0,0,2.328-2.674V18.658a2.54,2.54,0,0,0-2.332-2.684ZM12.3,22.5H6.261a.57.57,0,0,0-.348.12L4,24.091v-.878a.675.675,0,0,0-.622-.717H2.323a1.168,1.168,0,0,1-1.075-1.239V12.734a1.168,1.168,0,0,1,1.075-1.239l11.542.005a1.168,1.168,0,0,1,1.075,1.239v8.518A1.168,1.168,0,0,1,13.865,22.5H12.3Zm14.3,4.68a1.169,1.169,0,0,1-1.079,1.239H24.463a.675.675,0,0,0-.622.717v.878l-1.914-1.48a.56.56,0,0,0-.348-.12h-7.6A1.168,1.168,0,0,1,12.9,27.17V23.935h.961a2.522,2.522,0,0,0,2.323-2.679V17.4h9.332A1.17,1.17,0,0,1,26.6,18.648Z" transform="translate(0 -10.06)" fill="#fff" stroke="#fff" stroke-width="1"/>
      <path id="Path_393" data-name="Path 393" d="M18.326,22.928a.276.276,0,0,0-.106-.058c-.043-.014-.106-.039-.183-.072a2.835,2.835,0,0,1-.284-.149,2.944,2.944,0,0,1-.384-.289,1.6,1.6,0,0,0,.255-.332,1.849,1.849,0,0,0,.187-.419,2.584,2.584,0,0,0,.115-.5,3.625,3.625,0,0,0,.038-.573,3.385,3.385,0,0,0-.139-1.021,1.76,1.76,0,0,0-.408-.713,1.645,1.645,0,0,0-.658-.419,2.712,2.712,0,0,0-.9-.135,2.482,2.482,0,0,0-.947.164,1.885,1.885,0,0,0-.687.472,2.092,2.092,0,0,0-.418.747,3.345,3.345,0,0,0-.139.992,3.755,3.755,0,0,0,.13,1.05,1.856,1.856,0,0,0,.394.727,1.582,1.582,0,0,0,.658.419,2.821,2.821,0,0,0,.923.135,2.364,2.364,0,0,0,.509-.053,1.935,1.935,0,0,0,.389-.13,2.648,2.648,0,0,0,.418.39,3.141,3.141,0,0,0,.442.289,2.871,2.871,0,0,0,.4.183.962.962,0,0,0,.3.063.1.1,0,0,0,.053-.014.1.1,0,0,0,.043-.053.463.463,0,0,0,.034-.12,1.168,1.168,0,0,0,.014-.2,1.1,1.1,0,0,0-.019-.246c-.014-.058-.01-.111-.038-.135Zm-1.379-1.72a1.509,1.509,0,0,1-.2.511.974.974,0,0,1-.37.342,1.135,1.135,0,0,1-.567.125,1.284,1.284,0,0,1-.562-.111.854.854,0,0,1-.356-.323,1.4,1.4,0,0,1-.187-.511,3.564,3.564,0,0,1-.058-.674,3.048,3.048,0,0,1,.058-.6,1.457,1.457,0,0,1,.2-.5,1.013,1.013,0,0,1,.37-.342A1.135,1.135,0,0,1,15.842,19a1.217,1.217,0,0,1,.562.116.933.933,0,0,1,.36.323,1.415,1.415,0,0,1,.192.5,3.323,3.323,0,0,1,.058.646A3.677,3.677,0,0,1,16.947,21.208Zm12.633,3.175a.34.34,0,0,0-.053-.111.189.189,0,0,0-.106-.063.719.719,0,0,0-.2-.024c-.086,0-.2,0-.351,0-.125,0-.226,0-.3,0a1.135,1.135,0,0,0-.178.024.2.2,0,0,0-.1.058.329.329,0,0,0-.053.1l-1.48,4.269a1.6,1.6,0,0,0-.058.207.139.139,0,0,0,.024.12.185.185,0,0,0,.135.053,2.056,2.056,0,0,0,.269.01c.106,0,.192,0,.259-.01a.545.545,0,0,0,.154-.029.163.163,0,0,0,.077-.058.362.362,0,0,0,.038-.087l.3-.939h1.8l.322.968a.23.23,0,0,0,.038.077A.163.163,0,0,0,30.2,29a.922.922,0,0,0,.163.024c.072,0,.168,0,.293,0s.216,0,.284-.01a.253.253,0,0,0,.144-.048.114.114,0,0,0,.029-.116,1.207,1.207,0,0,0-.058-.212l-1.475-4.259Zm-1.4,2.78.678-2.043h0l.678,2.043Z" transform="translate(-8.467 -13.92)" fill="#fff" stroke="#fff" stroke-width="1"/>
    </g>
  </g>
</svg>
