<svg width="85" height="19" viewBox="0 0 85 19" fill="none" xmlns="http://www.w3.org/2000/svg">
    <path d="M3.23894 0.546875H16.9075L16.2145 4.51929H7.60248L7.01177 7.85376H13.9454L13.2525 11.822H6.28759L5.0579 18.6932H0L3.23894 0.546875Z" fill="#35BBB8"/>
    <path d="M18.6731 0.546875H23.7338L20.4963 18.6918H15.4355L18.6731 0.546875Z" fill="#35BBB8"/>
    <path d="M25.5031 0.546875H39.1703L38.4773 4.51929H29.8681L29.2774 7.85376H36.2111L35.5181 11.822H28.5518L27.3221 18.6932H22.2656L25.5031 0.546875Z" fill="#35BBB8"/>
    <path d="M43.4296 0.522949H49.1094L52.0644 18.6932H47.0235L46.6117 15.5133H40.2701L38.7295 18.6932H33.8477L43.4296 0.522949ZM46.1275 11.7193L45.2755 5.18109H45.1733L42.092 11.7193H46.1275Z" fill="#35BBB8"/>
    <path d="M55.3354 15.9106L61.4824 10.1114C62.8342 8.82007 64.994 6.86267 64.994 5.16101C64.9963 4.95886 64.9547 4.75859 64.8721 4.5737C64.7895 4.3888 64.6678 4.22359 64.5152 4.08921C64.3625 3.95483 64.1826 3.85441 63.9874 3.79472C63.7922 3.73503 63.5864 3.71746 63.3838 3.74319C61.7451 3.74319 61.3348 5.11182 61.1459 6.39896H56.531C56.5552 6.32168 56.6872 5.46874 56.7114 5.39145C57.41 1.6804 60.6134 0.0644531 64.3067 0.0644531C67.2205 0.0644531 69.9014 1.22231 69.9014 4.47107C69.9014 8.07674 66.1797 10.8632 63.7089 13.0524L61.9539 14.5953L61.9297 14.7246H68.3522L67.6507 18.6928H54.8398L55.3354 15.9106Z" fill="#35BBB8"/>
    <path d="M69.666 14.8555C69.6679 14.2824 69.7365 13.7114 69.8705 13.1538H74.4484C74.4 13.4089 74.3654 13.6664 74.3448 13.9252C74.3448 14.9805 75.5163 15.2405 76.3739 15.2405C76.9905 15.2236 77.575 14.9651 77.9992 14.522C78.4233 14.0788 78.6523 13.4871 78.6359 12.877C78.6359 11.6587 77.4076 11.1514 76.3214 11.1514H75.441L76.009 7.87879H77.0498C77.395 7.92545 77.7464 7.89647 78.0791 7.79391C78.4118 7.69135 78.7176 7.51772 78.975 7.28528C79.2323 7.05284 79.435 6.76728 79.5685 6.4488C79.702 6.13032 79.7632 5.78669 79.7477 5.44222C79.7609 5.23604 79.7282 5.02951 79.652 4.83715C79.5759 4.64479 79.4581 4.47127 79.3069 4.32878C79.1557 4.18629 78.9749 4.07828 78.777 4.01234C78.5792 3.94641 78.3691 3.92415 78.1616 3.94712C77.8717 3.90865 77.5768 3.9308 77.2961 4.01212C77.0153 4.09345 76.7549 4.23215 76.5317 4.41927C76.3085 4.60638 76.1275 4.83775 76.0002 5.09843C75.873 5.35911 75.8025 5.64329 75.7932 5.93263H71.3217L71.4239 5.33965C72.0459 1.6862 75.3018 0 78.8375 0C81.5667 0 84.5103 1.21828 84.5103 4.38132C84.569 5.45615 84.263 6.51956 83.6409 7.40252C83.0188 8.28549 82.1163 8.93734 81.0768 9.25445L81.0484 9.38513C81.8149 9.55212 82.499 9.97759 82.9834 10.5887C83.4678 11.1998 83.7224 11.9586 83.7038 12.7351C83.7038 17.0152 79.1258 19.0752 75.5603 18.9979C72.7843 18.9684 69.666 18.1562 69.666 14.8555Z" fill="#35BBB8"/>
</svg>
