<svg id="Group_1855" data-name="Group 1855" xmlns="http://www.w3.org/2000/svg" width="25.424" height="25.43" viewBox="0 0 25.424 25.43">
  <path id="Path_271" data-name="Path 271" d="M12.712,25.43A12.712,12.712,0,1,1,21.7,21.712a12.682,12.682,0,0,1-8.993,3.719Zm0-23.4a10.684,10.684,0,1,0,7.554,3.13,10.611,10.611,0,0,0-7.554-3.13Zm8.273,18.958h0Z" transform="translate(25.424 25.43) rotate(180)" fill="#fff"/>
  <path id="Path_272" data-name="Path 272" d="M5.693,6.711a1.014,1.014,0,0,1-.719-.3L.3,1.737A1.017,1.017,0,0,1,1.737.3L5.693,4.255,9.65.3a1.017,1.017,0,1,1,1.439,1.439L6.412,6.413a1.014,1.014,0,0,1-.719.3Z" transform="translate(18.405 16.072) rotate(180)" fill="#fff"/>
</svg>
