<svg width="37" height="38" viewBox="0 0 37 38" fill="none" xmlns="http://www.w3.org/2000/svg">
    <path d="M18.9727 0.736463C14.2203 0.719191 9.65553 2.5706 6.28235 5.88351C2.90917 9.19642 1.00383 13.6995 0.985375 18.4025C0.981288 21.6203 1.87472 24.7769 3.56727 27.5245L0.316406 37.0025L10.2772 33.8715C13.0089 35.354 16.0823 36.1105 19.1976 36.067C22.3129 36.0234 25.3635 35.1815 28.0518 33.6232C30.7402 32.0649 32.9744 29.8435 34.5364 27.1759C36.0984 24.5083 36.9348 21.4854 36.9642 18.4025C36.955 16.0735 36.4824 13.7691 35.5733 11.6208C34.6642 9.47255 33.3364 7.52254 31.6658 5.88209C29.9951 4.24165 28.0143 2.94291 25.8364 2.06002C23.6585 1.17713 21.3263 0.727384 18.9727 0.736463ZM27.9189 25.1115C27.5621 25.6518 27.0944 26.1118 26.5462 26.4616C25.9979 26.8113 25.3814 27.043 24.7368 27.1415C23.893 27.1855 23.8687 27.7885 19.2688 25.8115C14.6689 23.8345 11.9021 19.0245 11.6838 18.7115C10.6635 17.3345 10.0737 15.6918 9.98714 13.9865C10.0022 13.283 10.1657 12.5904 10.4673 11.9532C10.7689 11.316 11.2019 10.7482 11.7384 10.2865C11.9013 10.1231 12.0953 9.9931 12.3091 9.90404C12.5229 9.81497 12.7524 9.76856 12.9844 9.76746C13.3461 9.76146 13.5816 9.75646 13.8494 9.76746C14.1172 9.77846 14.5194 9.71246 14.868 10.6285C15.2166 11.5445 16.0493 13.7975 16.1564 14.0285C16.2246 14.1491 16.2611 14.2847 16.2625 14.4229C16.2639 14.5612 16.2302 14.6975 16.1645 14.8195C16.038 15.0862 15.8737 15.3337 15.6764 15.5545C15.4359 15.8095 15.1711 16.1245 14.9569 16.3195C14.7184 16.5355 14.4688 16.7705 14.7194 17.2315C15.3663 18.4171 16.1874 19.5013 17.1558 20.4485C18.2103 21.4404 19.431 22.2433 20.7634 22.8215C21.2141 23.0645 21.4839 23.0375 21.7638 22.7465C22.0437 22.4555 22.9613 21.4715 23.2847 21.0325C23.608 20.5935 23.9112 20.6785 24.3265 20.8435C24.7418 21.0085 26.9539 22.1835 27.4086 22.4265C27.8634 22.6695 28.1604 22.7935 28.2686 22.9855C28.3653 23.7127 28.2437 24.4521 27.9189 25.1115Z" fill="white"/>
</svg>
