<svg width="38" height="38" viewBox="0 0 38 38" fill="none" xmlns="http://www.w3.org/2000/svg">
    <path d="M37.3818 18.9792C37.381 15.4931 36.3708 12.0801 34.4709 9.14439C32.5709 6.20868 29.8607 3.87316 26.6611 2.41433C23.4615 0.955494 19.9065 0.434433 16.417 0.912831C12.9274 1.39123 9.64945 2.84905 6.97113 5.11372C4.29281 7.37838 2.32629 10.3551 1.30437 13.6913C0.282463 17.0276 0.247953 20.5838 1.20493 23.9389C2.16191 27.294 4.0703 30.3075 6.70418 32.6226C9.33806 34.9378 12.5871 36.4576 16.0667 37.0023V24.2533H11.384V18.9792H16.0667V14.9603C16.0667 10.3883 18.8174 7.86025 23.0293 7.86025C24.4119 7.87924 25.7912 7.99822 27.1563 8.21625V12.7033H24.8321C24.436 12.6513 24.0331 12.6882 23.6534 12.8111C23.2736 12.934 22.9267 13.1399 22.6382 13.4135C22.3497 13.687 22.1271 14.0213 21.9868 14.3915C21.8465 14.7617 21.7922 15.1584 21.8278 15.5523V18.9762H26.94L26.1225 24.2502H21.8278V37.0023C26.1639 36.3221 30.1127 34.1333 32.9638 30.8296C35.815 27.5258 37.3815 23.3238 37.3818 18.9792Z" fill="white"/>
</svg>
