<svg width="38" height="38" viewBox="0 0 38 38" fill="none" xmlns="http://www.w3.org/2000/svg">
    <path d="M18.7456 9.57087C16.8868 9.57087 15.0698 10.1163 13.5244 11.1382C11.9789 12.1601 10.7743 13.6126 10.063 15.3119C9.35172 17.0113 9.16561 18.8812 9.52823 20.6852C9.89085 22.4892 10.7859 24.1463 12.1002 25.447C13.4146 26.7476 15.0891 27.6333 16.9121 27.9922C18.7351 28.351 20.6247 28.1668 22.342 27.463C24.0592 26.7591 25.527 25.5671 26.5596 24.0377C27.5923 22.5083 28.1434 20.7102 28.1434 18.8709C28.1457 17.649 27.9042 16.4386 27.4327 15.3093C26.9612 14.1799 26.269 13.1538 25.3959 12.2898C24.5228 11.4258 23.4859 10.7408 22.3446 10.2742C21.2034 9.80766 19.9803 9.56863 18.7456 9.57087ZM18.7456 24.9139C17.5374 24.9139 16.3563 24.5593 15.3518 23.8951C14.3472 23.2309 13.5643 22.2868 13.1019 21.1822C12.6396 20.0776 12.5186 18.8622 12.7543 17.6896C12.99 16.5169 13.5718 15.4398 14.4261 14.5944C15.2804 13.749 16.3689 13.1733 17.5538 12.94C18.7388 12.7068 19.967 12.8265 21.0832 13.284C22.1994 13.7416 23.1535 14.5164 23.8247 15.5105C24.4959 16.5045 24.8542 17.6733 24.8542 18.8689C24.8512 20.4712 24.2067 22.0071 23.0618 23.1401C21.9168 24.2732 20.3648 24.911 18.7456 24.9139ZM30.7173 9.19088C30.7173 9.61986 30.5887 10.0392 30.3479 10.3959C30.107 10.7526 29.7647 11.0306 29.3642 11.1948C28.9637 11.3589 28.523 11.4019 28.0978 11.3182C27.6726 11.2345 27.2821 11.0279 26.9756 10.7246C26.669 10.4212 26.4603 10.0348 26.3757 9.61403C26.2911 9.19328 26.3345 8.75717 26.5004 8.36083C26.6663 7.9645 26.9473 7.62575 27.3077 7.38742C27.6682 7.14908 28.0919 7.02187 28.5254 7.02187C28.8134 7.02122 29.0988 7.07687 29.365 7.18564C29.6312 7.29441 29.8731 7.45415 30.0768 7.65569C30.2804 7.85723 30.4419 8.0966 30.5518 8.36006C30.6617 8.62351 30.7179 8.90585 30.7173 9.19088ZM36.9401 11.3909C36.8006 8.48588 36.1317 5.91288 33.9802 3.79087C31.8288 1.66887 29.2368 1.00687 26.3002 0.861875C23.2747 0.691875 14.2053 0.691875 11.1797 0.861875C8.24921 0.999875 5.65216 1.66188 3.49974 3.78288C1.34732 5.90388 0.689465 8.47888 0.541928 11.3839C0.370139 14.3779 0.370139 23.3519 0.541928 26.3469C0.681381 29.2519 1.35035 31.8249 3.50176 33.9469C5.65317 36.0689 8.24517 36.7309 11.1818 36.8759C14.2073 37.0459 23.2768 37.0459 26.3023 36.8759C29.2378 36.7379 31.8379 36.0759 33.9823 33.9469C36.1266 31.8179 36.7956 29.2529 36.9421 26.3469C37.1139 23.3529 37.1139 14.3869 36.9421 11.3919L36.9401 11.3909ZM33.0314 29.5589C32.7204 30.3389 32.2507 31.0474 31.6515 31.6404C31.0523 32.2334 30.3363 32.6981 29.5481 33.0059C27.136 33.9529 21.4113 33.7339 18.7456 33.7339C16.0798 33.7339 10.3471 33.9439 7.94302 33.0059C7.15494 32.698 6.43918 32.2332 5.84016 31.6402C5.24114 31.0473 4.77162 30.3388 4.46075 29.5589C3.50378 27.1719 3.72509 21.5069 3.72509 18.8689C3.72509 16.2309 3.51085 10.5589 4.46075 8.17987C4.77151 7.39972 5.24097 6.6911 5.84 6.09796C6.43902 5.50483 7.15484 5.03985 7.94302 4.73187C10.3551 3.78487 16.0818 3.99888 18.7456 3.99888C21.4093 3.99888 27.144 3.78888 29.5481 4.72688C30.3363 5.03462 31.0523 5.4994 31.6515 6.09236C32.2507 6.68532 32.7204 7.39381 33.0314 8.17388C33.9883 10.5609 33.767 16.2259 33.767 18.8639C33.767 21.5019 33.9883 27.1799 33.0314 29.5589Z" fill="white"/>
</svg>
