<svg width="9" height="5" viewBox="0 0 9 5" fill="none" xmlns="http://www.w3.org/2000/svg">
<path d="M4.14621 3.33748L7.30721 0.173484C7.41954 0.0623406 7.57118 0 7.72921 0C7.88723 0 8.03888 0.0623406 8.15121 0.173484C8.26296 0.285901 8.32568 0.437972 8.32568 0.596484C8.32568 0.754995 8.26296 0.907066 8.15121 1.01948L4.56921 4.60348C4.46001 4.71102 4.31381 4.77269 4.16059 4.77585C4.00737 4.77901 3.85875 4.72342 3.74521 4.62048L0.139208 1.02048C0.0433202 0.905566 -0.00615464 0.758959 0.000492096 0.609438C0.00713883 0.459917 0.0694274 0.318279 0.175134 0.212322C0.28084 0.106365 0.42233 0.0437413 0.571835 0.0367407C0.72134 0.02974 0.868063 0.0788686 0.983208 0.174484L4.14621 3.33748Z" fill="white"/>
</svg>
