<svg id="icon-player" xmlns="http://www.w3.org/2000/svg" width="10.926" height="11.079" viewBox="0 0 10.926 11.079">
  <path id="Path_67" data-name="Path 67" d="M9.365,96.037,7.36,94.3a.584.584,0,0,0-.2-.112l-2.077-.7,0-1.622,1.009.4a.488.488,0,0,0,.465-.059l1.448-1.047a.488.488,0,1,0-.572-.791l-1.232.891-1.148-.452a.667.667,0,0,0-.141-.246,1.3,1.3,0,0,1-1.183-.219H3.412a1.637,1.637,0,0,0-.529.088l-1.865.638a.488.488,0,0,0-.3.28l-.685,1.7a.5.5,0,0,0,.254.641.488.488,0,0,0,.648-.265l.606-1.5,1.012-.345,0,2.868,1.041,2.375-.624,1.807A.586.586,0,1,0,4.076,99l.7-2.014a.586.586,0,0,0-.011-.411L3.9,94.442h.355l2.43.82L8.6,96.923a.586.586,0,1,0,.767-.886Zm0,0" transform="translate(-0.001 -88.32)" fill="#fff"/>
  <path id="Path_68" data-name="Path 68" d="M171.259,5.253a.991.991,0,1,0-.6,1.266.991.991,0,0,0,.6-1.266Zm-6.33-3.27a.991.991,0,1,0-.978-.841A.992.992,0,0,0,164.929,1.983Zm0,0" transform="translate(-160.391 0)" fill="#fff"/>
</svg>
