<svg xmlns="http://www.w3.org/2000/svg" xmlns:xlink="http://www.w3.org/1999/xlink" width="24" height="24" viewBox="0 0 24 24">
  <defs>
    <clipPath id="clip-path">
      <rect id="Rectangle_6045" data-name="Rectangle 6045" width="24" height="24" rx="12" transform="translate(-0.096 -0.096)" fill="#fff" stroke="#707070" stroke-width="1"/>
    </clipPath>
  </defs>
  <g id="Mask_Group_23" data-name="Mask Group 23" transform="translate(0.096 0.096)" clip-path="url(#clip-path)">
    <g id="Group_20" data-name="Group 20" transform="translate(-7.08 -1.024)">
      <rect id="Rectangle_82" data-name="Rectangle 82" width="36.801" height="22.08" transform="translate(0.993 1.889)" fill="#00247d"/>
      <path id="Path_10" data-name="Path 10" d="M2.7,22.4H34.5L18.6,11.8Z" transform="translate(0.792 3.457)" fill="none"/>
      <path id="Path_11" data-name="Path 11" d="M0,1.8V23L15.9,12.4Z" transform="translate(0 0.528)" fill="none"/>
      <path id="Path_12" data-name="Path 12" d="M34.5,0H2.7L18.6,10.6Z" transform="translate(0.792)" fill="none"/>
      <path id="Path_13" data-name="Path 13" d="M33.6,23V1.8L17.7,12.4Z" transform="translate(5.185 0.528)" fill="none"/>
      <path id="Path_14" data-name="Path 14" d="M19.393,10.6,3.5,0H0V2.331l15.9,10.6L0,23.527v2.331H3.5l15.9-10.6,15.9,10.6h3.5V23.527l-15.9-10.6,15.9-10.6V0h-3.5Z" fill="#fff"/>
      <g id="Group_19" data-name="Group 19" transform="translate(0.993 1.889)">
        <rect id="Rectangle_83" data-name="Rectangle 83" width="7.36" height="22.08" transform="translate(14.72 0)" fill="#fff"/>
        <rect id="Rectangle_84" data-name="Rectangle 84" width="36.801" height="7.36" transform="translate(0 7.36)" fill="#fff"/>
        <rect id="Rectangle_85" data-name="Rectangle 85" width="36.801" height="3.68" transform="translate(0 9.2)" fill="#cf142b"/>
        <rect id="Rectangle_86" data-name="Rectangle 86" width="3.68" height="22.08" transform="translate(16.56 0)" fill="#cf142b"/>
      </g>
    </g>
  </g>
</svg>
