<svg id="icon-comfort-trade" xmlns="http://www.w3.org/2000/svg" width="15.855" height="17.827" viewBox="0 0 15.855 17.827">
  <path id="Path_65" data-name="Path 65" d="M53.361,181.449a1.1,1.1,0,0,0-1.127,1.076v5.187H40.887v-5.187a1.128,1.128,0,0,0-2.254,0v7.906a1.069,1.069,0,0,0,.58.941v1.586h1.094v-1.451H52.814v1.451h1.094v-1.586a1.069,1.069,0,0,0,.58-.941v-7.906A1.1,1.1,0,0,0,53.361,181.449Z" transform="translate(-38.633 -175.131)" fill="#201D56"/>
  <path id="Path_66" data-name="Path 66" d="M71.758,9.906h9.158v1.63H71.758Zm0-2.513V8.862h9.158V7.394a2.175,2.175,0,0,1,2.221-2.121v-4.2A1.1,1.1,0,0,0,82.011,0H70.664a1.1,1.1,0,0,0-1.127,1.076v4.2A2.175,2.175,0,0,1,71.758,7.394Z" transform="translate(-68.41 0)" fill="#201D56"/>
</svg>
