<svg xmlns="http://www.w3.org/2000/svg" xmlns:xlink="http://www.w3.org/1999/xlink" width="23.356" height="23.354" viewBox="0 0 23.356 23.354">
  <defs>
    <clipPath id="clip-path">
      <rect id="Rectangle_6029" data-name="Rectangle 6029" width="23.356" height="23.354" fill="#fff"/>
    </clipPath>
  </defs>
  <g id="Group_1597" data-name="Group 1597" clip-path="url(#clip-path)">
    <path id="Path_729" data-name="Path 729" d="M344.41,290.317a5.932,5.932,0,0,0-2.429-2.148.456.456,0,0,0-.4.822,5.022,5.022,0,0,1,2.262,6.878.457.457,0,1,0,.807.428,5.936,5.936,0,0,0-.244-5.98Z" transform="translate(-323.816 -278.055)" fill="#35bbb8"/>
    <path id="Path_730" data-name="Path 730" d="M340.982,296.913a5.022,5.022,0,0,1-2.262-6.878.456.456,0,1,0-.8-.428,5.927,5.927,0,0,0,2.671,8.128.428.428,0,0,0,.2.046.456.456,0,0,0,.2-.868Z" transform="translate(-327.554 -276.926)" fill="#35bbb8"/>
    <path id="Path_731" data-name="Path 731" d="M349.833,290.778a2.062,2.062,0,0,0-.2-.373h1.188a2.1,2.1,0,1,0,0-4.2h-3.653a2.1,2.1,0,0,0-1.729-3.284H334.261a2.1,2.1,0,1,0,0,4.2h3.653a2.093,2.093,0,0,0,0,2.373h-1.19a2.1,2.1,0,0,0-1.3,3.739,2.094,2.094,0,0,0,0,3.284,2.094,2.094,0,0,0,0,3.284,2.1,2.1,0,0,0,1.3,3.741H342.1a7.753,7.753,0,1,0,7.735-12.765Zm.986-3.657a1.187,1.187,0,1,1,0,2.373H339.644a1.187,1.187,0,0,1,0-2.373Zm-16.558-.911a1.186,1.186,0,1,1,0-2.373h11.176a1.186,1.186,0,0,1,0,2.373Zm2.463,4.2H347.9a1.189,1.189,0,0,1,.518.119c-.216-.017-.434-.027-.655-.027a7.737,7.737,0,0,0-5.488,2.281h-5.551a1.187,1.187,0,1,1,0-2.373Zm0,3.284H341.5a7.735,7.735,0,0,0-1.173,2.371h-3.6a1.186,1.186,0,1,1,0-2.371Zm0,3.284h3.39a7.786,7.786,0,0,0-.105,1.276,7.656,7.656,0,0,0,.078,1.095h-3.363a1.186,1.186,0,1,1,0-2.371Zm0,5.655a1.186,1.186,0,1,1,0-2.371h3.548a7.67,7.67,0,0,0,1.095,2.371Zm11.038,2.463a6.842,6.842,0,1,1,6.844-6.842A6.85,6.85,0,0,1,347.762,305.092Z" transform="translate(-332.163 -282.789)" fill="#35bbb8"/>
  </g>
</svg>
