<svg xmlns="http://www.w3.org/2000/svg" width="25.223" height="25.223" viewBox="0 0 25.223 25.223">
  <path id="Icon_awesome-linkedin" data-name="Icon awesome-linkedin" d="M23.421,2.25H1.8A1.809,1.809,0,0,0,0,4.069V25.654a1.809,1.809,0,0,0,1.8,1.819H23.421a1.814,1.814,0,0,0,1.8-1.819V4.069A1.814,1.814,0,0,0,23.421,2.25ZM7.623,23.87H3.885V11.832H7.629V23.87ZM5.754,10.188A2.168,2.168,0,1,1,7.922,8.021a2.169,2.169,0,0,1-2.168,2.168ZM21.637,23.87H17.9V18.014c0-1.4-.028-3.192-1.942-3.192-1.948,0-2.246,1.52-2.246,3.091V23.87H9.971V11.832h3.586v1.644h.051a3.938,3.938,0,0,1,3.541-1.942c3.783,0,4.487,2.494,4.487,5.737Z" transform="translate(0 -2.25)" fill="#2593bd"/>
</svg>
