<svg width="30" height="21" viewBox="0 0 30 21" fill="none" xmlns="http://www.w3.org/2000/svg">
<path d="M28.499 1.32233C26.839 0.6357 25.0573 0.291809 23.261 0.311334C17.719 0.311334 12.177 3.11633 6.635 3.11633C5.22177 3.1277 3.81535 2.91955 2.466 2.49933C2.31534 2.45118 2.15816 2.42656 2 2.42633C1.8101 2.42381 1.6216 2.45909 1.44546 2.53012C1.26933 2.60114 1.10908 2.70649 0.974047 2.84003C0.839015 2.97358 0.731894 3.13265 0.658922 3.30798C0.58595 3.48332 0.548584 3.67142 0.548998 3.86133V18.1323C0.544676 18.4126 0.622734 18.6879 0.773484 18.9241C0.924234 19.1604 1.14104 19.3472 1.397 19.4613C3.05694 20.1482 4.83868 20.4921 6.635 20.4723C12.177 20.4723 17.719 17.6673 23.261 17.6673C24.6742 17.656 26.0806 17.8641 27.43 18.2843C27.5807 18.3325 27.7378 18.3571 27.896 18.3573C28.086 18.3601 28.2746 18.3251 28.4509 18.2542C28.6272 18.1834 28.7877 18.0782 28.9229 17.9447C29.0581 17.8112 29.1654 17.6522 29.2386 17.4768C29.3118 17.3015 29.3493 17.1133 29.349 16.9233V2.64833C29.3525 2.36867 29.274 2.09411 29.1233 1.85849C28.9727 1.62286 28.7563 1.43649 28.501 1.32233H28.499ZM14.949 14.7103C12.961 14.7103 11.349 12.7763 11.349 10.3903C11.349 8.00433 12.961 6.07033 14.949 6.07033C16.937 6.07033 18.549 8.00433 18.549 10.3903C18.549 12.7763 16.935 14.7103 14.949 14.7103Z" fill="#002F87"/>
</svg>
