<svg xmlns="http://www.w3.org/2000/svg" width="22.058" height="19.096" viewBox="0 0 22.058 19.096">
  <path id="Icon_awesome-coins" data-name="Icon awesome-coins" d="M0,15.117v1.593C0,18.026,3.705,19.1,8.272,19.1s8.272-1.07,8.272-2.387V15.117c-1.779,1.085-5.032,1.593-8.272,1.593S1.779,16.2,0,15.117ZM13.786,4.774c4.567,0,8.272-1.07,8.272-2.387S18.353,0,13.786,0,5.515,1.07,5.515,2.387,9.22,4.774,13.786,4.774ZM0,11.2v1.925c0,1.317,3.705,2.387,8.272,2.387s8.272-1.07,8.272-2.387V11.2c-1.779,1.268-5.036,1.925-8.272,1.925S1.779,12.472,0,11.2Zm17.922.41c2.469-.414,4.136-1.182,4.136-2.066V7.956a11.655,11.655,0,0,1-4.136,1.287ZM8.272,5.968C3.705,5.968,0,7.3,0,8.951s3.705,2.984,8.272,2.984,8.272-1.335,8.272-2.984S12.839,5.968,8.272,5.968Zm9.448,2.1c2.585-.4,4.338-1.194,4.338-2.1V4.375c-1.529.936-4.157,1.44-6.923,1.559A4.58,4.58,0,0,1,17.72,8.067Z" transform="translate(0 0)" fill="#fff"/>
</svg>
