<svg xmlns="http://www.w3.org/2000/svg" width="28.826" height="23.412" viewBox="0 0 28.826 23.412">
  <path id="Icon_awesome-twitter" data-name="Icon awesome-twitter" d="M25.863,9.215c.018.256.018.512.018.768,0,7.81-5.944,16.809-16.809,16.809A16.7,16.7,0,0,1,0,24.141a12.221,12.221,0,0,0,1.427.073A11.832,11.832,0,0,0,8.761,21.69a5.918,5.918,0,0,1-5.524-4.1,7.451,7.451,0,0,0,1.116.091,6.248,6.248,0,0,0,1.555-.2,5.909,5.909,0,0,1-4.737-5.8v-.073a5.95,5.95,0,0,0,2.67.75,5.917,5.917,0,0,1-1.829-7.9,16.793,16.793,0,0,0,12.182,6.182,6.669,6.669,0,0,1-.146-1.353A5.914,5.914,0,0,1,24.272,5.246a11.632,11.632,0,0,0,3.75-1.427,5.892,5.892,0,0,1-2.6,3.256,11.844,11.844,0,0,0,3.4-.915,12.7,12.7,0,0,1-2.963,3.055Z" transform="translate(0 -3.381)" fill="#3e8fc8"/>
</svg>
