<svg xmlns="http://www.w3.org/2000/svg" width="14.478" height="13.272" viewBox="0 0 14.478 13.272">
  <path id="Icon_awesome-coins" data-name="Icon awesome-coins" d="M0,20.5v1.61c0,1.331,3.243,2.413,7.239,2.413s7.239-1.082,7.239-2.413V20.5c-1.557,1.1-4.4,1.61-7.239,1.61S1.557,21.6,0,20.5Zm0-3.955v1.946C0,19.82,3.243,20.9,7.239,20.9s7.239-1.082,7.239-2.413V16.544c-1.557,1.282-4.408,1.946-7.239,1.946S1.557,17.826,0,16.544ZM7.239,11.25C3.243,11.25,0,12.6,0,14.266s3.243,3.016,7.239,3.016,7.239-1.35,7.239-3.016S11.236,11.25,7.239,11.25Z" transform="translate(0 -11.25)" fill="#ddb200"/>
</svg>
