<svg width="23" height="23" viewBox="0 0 23 23" fill="none" xmlns="http://www.w3.org/2000/svg">
<path d="M11.5 0C9.22552 0 7.00211 0.674463 5.11095 1.9381C3.21978 3.20174 1.7458 4.99779 0.87539 7.09914C0.00498274 9.20049 -0.222756 11.5128 0.220974 13.7435C0.664704 15.9743 1.75997 18.0234 3.36828 19.6317C4.97658 21.24 7.02568 22.3353 9.25646 22.779C11.4872 23.2228 13.7995 22.995 15.9009 22.1246C18.0022 21.2542 19.7983 19.7802 21.0619 17.8891C22.3255 15.9979 23 13.7745 23 11.5C23 8.45001 21.7884 5.52494 19.6317 3.36827C17.4751 1.2116 14.55 0 11.5 0ZM17.8582 18.9997C17.508 17.5712 16.6888 16.3015 15.5317 15.3937C14.3745 14.4859 12.9462 13.9925 11.4755 13.9925C10.0047 13.9925 8.57646 14.4859 7.41929 15.3937C6.26211 16.3015 5.4429 17.5712 5.09275 18.9997C3.55507 17.6932 2.45537 15.9462 1.94215 13.9948C1.42893 12.0434 1.52692 9.98152 2.22288 8.08757C2.91884 6.19362 4.17924 4.55887 5.83389 3.40407C7.48853 2.24927 9.4577 1.63007 11.4755 1.63007C13.4932 1.63007 15.4624 2.24927 17.1171 3.40407C18.7717 4.55887 20.0321 6.19362 20.7281 8.08757C21.424 9.98152 21.522 12.0434 21.0088 13.9948C20.4956 15.9462 19.3959 17.6932 17.8582 18.9997ZM11.5 4.92832C10.6878 4.92832 9.89392 5.16911 9.21859 5.62025C8.54326 6.07139 8.01684 6.71263 7.70588 7.4629C7.39493 8.21317 7.3134 9.03879 7.47159 9.83539C7.62978 10.632 8.0206 11.3638 8.59464 11.9383C9.16868 12.5129 9.90017 12.9043 10.6966 13.0631C11.4931 13.222 12.3188 13.1412 13.0693 12.8308C13.8199 12.5205 14.4615 11.9946 14.9132 11.3197C15.3649 10.6447 15.6064 9.85101 15.6071 9.03885C15.6071 8.4995 15.5008 7.96543 15.2944 7.46714C15.088 6.96884 14.7855 6.51608 14.4041 6.1347C14.0228 5.75333 13.57 5.4508 13.0717 5.2444C12.5734 5.038 12.0394 4.93177 11.5 4.93177V4.92832Z" fill="white"/>
</svg>
