<svg id="icon-player" xmlns="http://www.w3.org/2000/svg" width="16.766" height="17" viewBox="0 0 16.766 17">
  <path id="Path_67" data-name="Path 67" d="M14.371,99.117l-3.077-2.662a.9.9,0,0,0-.3-.172L7.805,95.207l0-2.489,1.548.609a.749.749,0,0,0,.713-.09l2.222-1.607a.749.749,0,1,0-.878-1.214l-1.89,1.367-1.762-.693a1.023,1.023,0,0,0-.217-.378,2,2,0,0,1-1.816-.337H5.235a2.511,2.511,0,0,0-.813.135l-2.862.979a.749.749,0,0,0-.453.429L.057,94.528a.761.761,0,0,0,.389.983A.749.749,0,0,0,1.44,95.1L2.369,92.8l1.553-.53-.006,4.4,1.6,3.644-.958,2.772a.9.9,0,1,0,1.7.587l1.068-3.091a.9.9,0,0,0-.017-.631L5.977,96.67h.545l3.728,1.259,2.944,2.547a.9.9,0,1,0,1.176-1.36Zm0,0" transform="translate(-0.001 -87.276)" fill="white"/>
  <path id="Path_68" data-name="Path 68" d="M175.172,8.06a1.52,1.52,0,1,0-.92,1.943,1.52,1.52,0,0,0,.92-1.943Zm-9.714-5.018a1.521,1.521,0,1,0-1.5-1.29A1.522,1.522,0,0,0,165.458,3.042Zm0,0" transform="translate(-158.495)" fill="white"/>
</svg>
