<svg width="7" height="13" viewBox="0 0 7 13" fill="none" xmlns="http://www.w3.org/2000/svg">
<path d="M2.11001 6.49844L6.74298 1.58333C6.90687 1.40882 6.99875 1.17233 6.99841 0.925888C6.99807 0.679448 6.90553 0.443245 6.74116 0.269242C6.5768 0.0952378 6.35406 -0.0023134 6.12195 -0.00195213C5.88983 -0.00159085 5.66736 0.0966533 5.50348 0.271168L0.254644 5.83796C0.0960559 6.00699 0.00492462 6.23441 0.000193806 6.47295C-0.004537 6.71148 0.0774967 6.94278 0.229242 7.11875L5.49985 12.729C5.66374 12.9035 5.8862 13.0018 6.11832 13.0021C6.35043 13.0025 6.57317 12.905 6.73754 12.7309C6.9019 12.5569 6.99444 12.3207 6.99478 12.0743C6.99512 11.8279 6.90324 11.5914 6.73935 11.4169L2.11001 6.49844Z" fill="#201D56"/>
</svg>
