<svg width="13" height="14" viewBox="0 0 13 14" fill="none" xmlns="http://www.w3.org/2000/svg">
<path d="M8.18805 0C7.42783 0.000681663 6.67856 0.181147 6.00139 0.52666C5.32423 0.872174 4.73838 1.37294 4.29168 1.98807C3.84497 2.60321 3.55009 3.31526 3.43109 4.06611C3.31209 4.81696 3.37235 5.5853 3.60696 6.30841L0.140883 9.77388C0.0961691 9.81865 0.060713 9.87178 0.0365399 9.93025C0.0123668 9.98872 -4.96031e-05 10.0514 1.48925e-07 10.1147V12.5229C1.48925e-07 12.6506 0.0507453 12.7732 0.141072 12.8635C0.231399 12.9538 0.353909 13.0046 0.48165 13.0046H2.8899C3.01764 13.0046 3.14015 12.9538 3.23048 12.8635C3.32081 12.7732 3.37155 12.6506 3.37155 12.5229V11.5596H4.33485C4.46259 11.5596 4.5851 11.5089 4.67543 11.4185C4.76576 11.3282 4.8165 11.2057 4.8165 11.078V10.1147H5.7798C5.84307 10.1147 5.90573 10.1023 5.9642 10.0781C6.02267 10.0539 6.07581 10.0185 6.12057 9.97377L6.69614 9.3976C7.35812 9.61252 8.05882 9.68143 8.74999 9.59957C9.44115 9.51771 10.1064 9.28703 10.6998 8.92341C11.2933 8.5598 11.8009 8.07188 12.1877 7.49326C12.5745 6.91465 12.8313 6.25907 12.9404 5.57168C13.0496 4.88429 13.0084 4.18142 12.8198 3.51146C12.6312 2.84149 12.2997 2.22036 11.848 1.69082C11.3964 1.16129 10.8353 0.735931 10.2035 0.444039C9.57164 0.152148 8.88405 0.00065788 8.18805 0ZM8.18805 8.6697C7.70048 8.67053 7.21722 8.57837 6.76417 8.39817C6.67555 8.35971 6.57741 8.34879 6.48249 8.36682C6.38758 8.38486 6.30029 8.43103 6.23195 8.49932L5.58052 9.15135H4.33485C4.20711 9.15135 4.0846 9.2021 3.99427 9.29242C3.90395 9.38275 3.8532 9.50526 3.8532 9.633V10.5963H2.8899C2.76216 10.5963 2.63965 10.647 2.54932 10.7374C2.459 10.8277 2.40825 10.9502 2.40825 11.078V12.0413H0.9633V10.3139L4.50523 6.7726C4.57353 6.70427 4.61969 6.61697 4.63773 6.52206C4.65577 6.42715 4.64484 6.329 4.60638 6.24038C4.30179 5.47446 4.25084 4.63106 4.461 3.83404C4.67116 3.03703 5.13136 2.32841 5.77401 1.81227C6.41666 1.29613 7.20789 0.99967 8.03148 0.966434C8.85506 0.933198 9.6676 1.16494 10.3498 1.62762C11.0319 2.0903 11.5477 2.75953 11.8214 3.53702C12.0951 4.3145 12.1123 5.15927 11.8704 5.94724C11.6285 6.73521 11.1403 7.42485 10.4775 7.91486C9.81476 8.40488 9.01231 8.66944 8.18805 8.6697ZM10.1147 3.61238C10.1147 3.75527 10.0723 3.89495 9.99289 4.01376C9.91351 4.13257 9.80067 4.22517 9.66866 4.27986C9.53664 4.33454 9.39138 4.34885 9.25123 4.32097C9.11108 4.29309 8.98235 4.22428 8.88131 4.12324C8.78027 4.0222 8.71146 3.89347 8.68358 3.75332C8.65571 3.61318 8.67001 3.46791 8.7247 3.3359C8.77938 3.20388 8.87198 3.09105 8.99079 3.01166C9.1096 2.93227 9.24928 2.8899 9.39218 2.8899C9.58379 2.8899 9.76755 2.96602 9.90304 3.10151C10.0385 3.237 10.1147 3.42076 10.1147 3.61238Z" fill="white"/>
</svg>
