<svg width="16" height="13" viewBox="0 0 16 13" fill="none" xmlns="http://www.w3.org/2000/svg">
<path d="M15.3846 0H0.615385C0.452174 0 0.295649 0.0684821 0.180242 0.190381C0.064835 0.312279 0 0.477609 0 0.65V11.7C0 12.0448 0.12967 12.3754 0.360484 12.6192C0.591298 12.863 0.904349 13 1.23077 13H14.7692C15.0957 13 15.4087 12.863 15.6395 12.6192C15.8703 12.3754 16 12.0448 16 11.7V0.65C16 0.477609 15.9352 0.312279 15.8198 0.190381C15.7044 0.0684821 15.5478 0 15.3846 0ZM13.8023 1.3L8 6.91844L2.19769 1.3H13.8023ZM14.7692 11.7H1.23077V2.12794L7.58385 8.27937C7.69738 8.38946 7.84588 8.45054 8 8.45054C8.15412 8.45054 8.30262 8.38946 8.41615 8.27937L14.7692 2.12794V11.7Z" fill="white"/>
</svg>
