<svg width="16" height="19" viewBox="0 0 16 19" fill="none" xmlns="http://www.w3.org/2000/svg">
<path d="M0.655142 2.2885L2.74809 0.789551L7.08555 0.99772L9.47027 2.63515V4.86689L12.0421 5.07143L14.2443 5.89888L15.1269 7.50476V10.4495L14.9835 12.924L13.5806 14.3187L10.062 14.7044L9.02282 15.0068L8.84757 16.5875L6.33631 17.6428L2.35663 17.1974L0.626465 15.93V13.518L0.797615 11.6175L2.36027 11.0037L3.09676 10.1354L1.27875 9.45092L0.656052 8.48294L0.655142 2.2885Z" fill="white"/>
<path fill-rule="evenodd" clip-rule="evenodd" d="M0.144843 2.76243V5.59378C0.166214 5.95806 0.277903 6.31135 0.469892 6.62196C0.661882 6.93258 0.928166 7.19081 1.24486 7.37348C2.39001 8.05615 3.70742 8.39693 5.04086 8.35539C6.37412 8.39749 7.69152 8.05736 8.83686 7.37534C9.15312 7.19205 9.41883 6.93333 9.61016 6.6224C9.80149 6.31146 9.91248 5.95803 9.93316 5.59378V2.76243C9.93316 2.5935 9.86588 2.43149 9.74612 2.31204C9.62637 2.19259 9.46394 2.12549 9.29458 2.12549C9.12523 2.12549 8.9628 2.19259 8.84305 2.31204C8.72329 2.43149 8.65601 2.5935 8.65601 2.76243V5.59378C8.65601 5.87738 8.42576 6.10891 8.11346 6.32091C7.18103 6.86 6.114 7.12317 5.03713 7.07965C3.96027 7.12317 2.89324 6.86 1.96081 6.32091C1.64758 6.10891 1.41825 5.87738 1.41825 5.59378V2.76243C1.41825 2.5935 1.35098 2.43149 1.23122 2.31204C1.11147 2.19259 0.949044 2.12549 0.779685 2.12549C0.610325 2.12549 0.447902 2.19259 0.328147 2.31204C0.208391 2.43149 0.141113 2.5935 0.141113 2.76243H0.144843Z" fill="#DB025D"/>
<path fill-rule="evenodd" clip-rule="evenodd" d="M0.144843 5.59494V8.4263C0.166214 8.79058 0.277903 9.14387 0.469892 9.45448C0.661882 9.7651 0.928166 10.0233 1.24486 10.206C2.39001 10.8887 3.70742 11.2294 5.04086 11.1879C6.37412 11.23 7.69152 10.8899 8.83686 10.2079C9.15312 10.0246 9.41883 9.76585 9.61016 9.45492C9.80149 9.14398 9.91248 8.79054 9.93316 8.4263V5.59494C9.93316 5.42602 9.86588 5.26401 9.74612 5.14456C9.62637 5.02511 9.46394 4.95801 9.29458 4.95801C9.12523 4.95801 8.9628 5.02511 8.84305 5.14456C8.72329 5.26401 8.65601 5.42602 8.65601 5.59494V8.4263C8.65601 8.7099 8.42576 8.94142 8.11346 9.15343C7.18103 9.69251 6.114 9.95569 5.03713 9.91217C3.96027 9.95569 2.89324 9.69251 1.96081 9.15343C1.64758 8.94142 1.41825 8.7099 1.41825 8.4263V5.59494C1.41825 5.42602 1.35098 5.26401 1.23122 5.14456C1.11147 5.02511 0.949044 4.95801 0.779685 4.95801C0.610325 4.95801 0.447902 5.02511 0.328147 5.14456C0.208391 5.26401 0.141113 5.42602 0.141113 5.59494H0.144843Z" fill="#DB025D"/>
<path fill-rule="evenodd" clip-rule="evenodd" d="M5.04202 0.0034563C3.70907 -0.0384624 2.39202 0.301656 1.24695 0.983503C0.930133 1.16613 0.663708 1.42432 0.47156 1.73493C0.279411 2.04554 0.167547 2.39886 0.145996 2.76321C0.167547 3.12756 0.279411 3.48088 0.47156 3.79149C0.663708 4.1021 0.930133 4.36029 1.24695 4.54292C2.39202 5.22476 3.70907 5.56488 5.04202 5.52296C6.37496 5.56488 7.69201 5.22476 8.83708 4.54292C9.1532 4.35984 9.41889 4.10145 9.61037 3.79087C9.80185 3.48029 9.91315 3.1272 9.93431 2.76321C9.91276 2.39886 9.80089 2.04554 9.60874 1.73493C9.4166 1.42432 9.15017 1.16613 8.83336 0.983503C7.68936 0.302345 6.3737 -0.037747 5.04202 0.0034563ZM5.04202 1.27733C6.11882 1.23438 7.1857 1.49752 8.11834 2.03608C8.43157 2.24901 8.66089 2.47961 8.66089 2.76321C8.66089 3.04681 8.43064 3.27741 8.11834 3.49034C7.1857 4.0289 6.11882 4.29204 5.04202 4.24909C3.96521 4.29204 2.89834 4.0289 1.96569 3.49034C1.65246 3.27741 1.42314 3.04681 1.42314 2.76321C1.42314 2.47961 1.6534 2.24901 1.96569 2.03608C2.89834 1.49752 3.96521 1.23438 5.04202 1.27733Z" fill="#DB025D"/>
<path d="M6.53174 5.52393H12.208V11.1857H6.53174V5.52393Z" fill="white"/>
<path fill-rule="evenodd" clip-rule="evenodd" d="M5.82258 7.00901V9.84036C5.84395 10.2046 5.95564 10.5579 6.14763 10.8685C6.33962 11.1792 6.6059 11.4374 6.9226 11.6201C8.06774 12.3027 9.38516 12.6435 10.7186 12.602C12.0519 12.6441 13.3693 12.3039 14.5146 11.6219C14.8309 11.4386 15.0966 11.1799 15.2879 10.869C15.4792 10.558 15.5902 10.2046 15.6109 9.84036V7.00901C15.6109 6.84008 15.5436 6.67807 15.4239 6.55862C15.3041 6.43918 15.1417 6.37207 14.9723 6.37207C14.803 6.37207 14.6405 6.43918 14.5208 6.55862C14.401 6.67807 14.3337 6.84008 14.3337 7.00901V9.84036C14.3337 10.124 14.1035 10.3555 13.7912 10.5675C12.8588 11.1066 11.7917 11.3698 10.7149 11.3262C9.638 11.3698 8.57097 11.1066 7.63854 10.5675C7.32532 10.3555 7.09599 10.124 7.09599 9.84036V7.00901C7.09599 6.84008 7.02871 6.67807 6.90896 6.55862C6.7892 6.43918 6.62678 6.37207 6.45742 6.37207C6.28806 6.37207 6.12564 6.43918 6.00588 6.55862C5.88613 6.67807 5.81885 6.84008 5.81885 7.00901H5.82258Z" fill="#DB025D"/>
<path fill-rule="evenodd" clip-rule="evenodd" d="M5.82258 9.84104V12.6724C5.84395 13.0367 5.95564 13.39 6.14763 13.7006C6.33962 14.0112 6.6059 14.2694 6.9226 14.4521C8.06774 15.1348 9.38516 15.4755 10.7186 15.434C12.0519 15.4761 13.3693 15.136 14.5146 14.454C14.8309 14.2707 15.0966 14.0119 15.2879 13.701C15.4792 13.3901 15.5902 13.0366 15.6109 12.6724V9.84104C15.6109 9.67211 15.5436 9.5101 15.4239 9.39066C15.3041 9.27121 15.1417 9.2041 14.9723 9.2041C14.803 9.2041 14.6405 9.27121 14.5208 9.39066C14.401 9.5101 14.3337 9.67211 14.3337 9.84104V12.6724C14.3337 12.956 14.1035 13.1875 13.7912 13.3995C12.8588 13.9386 11.7917 14.2018 10.7149 14.1583C9.638 14.2018 8.57097 13.9386 7.63854 13.3995C7.32532 13.1875 7.09599 12.956 7.09599 12.6724V9.84104C7.09599 9.67211 7.02871 9.5101 6.90896 9.39066C6.7892 9.27121 6.62678 9.2041 6.45742 9.2041C6.28806 9.2041 6.12564 9.27121 6.00588 9.39066C5.88613 9.5101 5.81885 9.67211 5.81885 9.84104H5.82258Z" fill="#DB025D"/>
<path fill-rule="evenodd" clip-rule="evenodd" d="M10.7178 4.25053C9.38486 4.20861 8.0678 4.54873 6.92273 5.23057C6.60591 5.4132 6.33949 5.67139 6.14734 5.982C5.95519 6.29261 5.84333 6.64593 5.82178 7.01028C5.84333 7.37463 5.95519 7.72795 6.14734 8.03856C6.33949 8.34917 6.60591 8.60736 6.92273 8.78999C8.0678 9.47183 9.38486 9.81195 10.7178 9.77003C12.0507 9.81195 13.3678 9.47183 14.5129 8.78999C14.829 8.60691 15.0947 8.34852 15.2862 8.03794C15.4776 7.72736 15.5889 7.37427 15.6101 7.01028C15.5885 6.64593 15.4767 6.29261 15.2845 5.982C15.0924 5.67139 14.826 5.4132 14.5091 5.23057C13.3651 4.54942 12.0495 4.20932 10.7178 4.25053ZM10.7178 5.5244C11.7946 5.48145 12.8615 5.74459 13.7941 6.28315C14.1074 6.49608 14.3367 6.72668 14.3367 7.01028C14.3367 7.29388 14.1064 7.52448 13.7941 7.73741C12.8615 8.27597 11.7946 8.53911 10.7178 8.49616C9.64099 8.53911 8.57412 8.27597 7.64147 7.73741C7.32824 7.52448 7.09892 7.29388 7.09892 7.01028C7.09892 6.72668 7.32918 6.49608 7.64147 6.28315C8.57412 5.74459 9.64099 5.48145 10.7178 5.5244Z" fill="#DB025D"/>
<path d="M1.42236 11.186H8.51749V16.1402H1.42236V11.186Z" fill="white"/>
<path fill-rule="evenodd" clip-rule="evenodd" d="M0.0037295 12.6711V15.5025C0.0251009 15.8667 0.13679 16.22 0.328779 16.5307C0.520768 16.8413 0.787053 17.0995 1.10375 17.2822C2.2489 17.9648 3.56631 18.3056 4.89975 18.2641C6.23301 18.3062 7.55041 17.9661 8.69575 17.284C9.012 17.1007 9.27771 16.842 9.46905 16.5311C9.66038 16.2202 9.77136 15.8667 9.79204 15.5025V12.6711C9.79204 12.5022 9.72476 12.3402 9.60501 12.2207C9.48525 12.1013 9.32283 12.0342 9.15347 12.0342C8.98411 12.0342 8.82169 12.1013 8.70193 12.2207C8.58218 12.3402 8.5149 12.5022 8.5149 12.6711V15.5025C8.5149 15.7861 8.28464 16.0176 7.97235 16.2296C7.03992 16.7687 5.97288 17.0319 4.89602 16.9883C3.81916 17.0319 2.75213 16.7687 1.81969 16.2296C1.50647 16.0176 1.27714 15.7861 1.27714 15.5025V12.6711C1.27714 12.5022 1.20986 12.3402 1.09011 12.2207C0.970354 12.1013 0.807931 12.0342 0.638571 12.0342C0.469212 12.0342 0.306789 12.1013 0.187033 12.2207C0.067278 12.3402 0 12.5022 0 12.6711H0.0037295Z" fill="#DB025D"/>
<path fill-rule="evenodd" clip-rule="evenodd" d="M4.89993 9.91166C3.56698 9.86974 2.24993 10.2099 1.10486 10.8917C0.788043 11.0743 0.521618 11.3325 0.32947 11.6431C0.137322 11.9537 0.0254575 12.3071 0.00390625 12.6714C0.0254575 13.0358 0.137322 13.3891 0.32947 13.6997C0.521618 14.0103 0.788043 14.2685 1.10486 14.4511C2.24993 15.133 3.56698 15.4731 4.89993 15.4312C6.23287 15.4731 7.54992 15.133 8.69499 14.4511C9.01111 14.268 9.2768 14.0097 9.46828 13.6991C9.65976 13.3885 9.77106 13.0354 9.79222 12.6714C9.77067 12.3071 9.6588 11.9537 9.46665 11.6431C9.27451 11.3325 9.00808 11.0743 8.69127 10.8917C7.54727 10.2105 6.23161 9.87046 4.89993 9.91166ZM4.89993 11.1855C5.97673 11.1426 7.04361 11.4057 7.97625 11.9443C8.28948 12.1572 8.5188 12.3878 8.5188 12.6714C8.5188 12.955 8.28855 13.1856 7.97625 13.3985C7.04361 13.9371 5.97673 14.2002 4.89993 14.1573C3.82312 14.2002 2.75625 13.9371 1.8236 13.3985C1.51037 13.1856 1.28105 12.955 1.28105 12.6714C1.28105 12.3878 1.51131 12.1572 1.8236 11.9443C2.75625 11.4057 3.82312 11.1426 4.89993 11.1855Z" fill="#DB025D"/>
</svg>
