<svg xmlns="http://www.w3.org/2000/svg" xmlns:xlink="http://www.w3.org/1999/xlink" width="780.218" height="38.867" viewBox="0 0 780.218 38.867">
  <defs>
    <linearGradient id="linear-gradient" x1="0.5" x2="0.5" y2="1" gradientUnits="objectBoundingBox">
      <stop offset="0" stop-color="#1d4c80"/>
      <stop offset="1" stop-color="#173a63"/>
    </linearGradient>
  </defs>
  <g id="Group_954" data-name="Group 954" transform="translate(-792.348 -3776.898)">
    <g id="Group_708" data-name="Group 708" transform="translate(792.348 3780.931)">
      <rect id="Rectangle_612" data-name="Rectangle 612" width="49.712" height="31.247" rx="3" fill="#fff"/>
      <path id="Rectangle_610" data-name="Rectangle 610" d="M3,0H46.712a3,3,0,0,1,3,3V8.522a0,0,0,0,1,0,0H0a0,0,0,0,1,0,0V3A3,3,0,0,1,3,0Z" fill="#1962af"/>
      <path id="Rectangle_611" data-name="Rectangle 611" d="M0,0H49.712a0,0,0,0,1,0,0V5.522a3,3,0,0,1-3,3H3a3,3,0,0,1-3-3V0A0,0,0,0,1,0,0Z" transform="translate(0 22.725)" fill="#fdb625"/>
      <g id="Group_704" data-name="Group 704" transform="translate(11.001 11.129)">
        <g id="Group_703" data-name="Group 703" transform="translate(0)">
          <path id="Path_324" data-name="Path 324" d="M23.238,60.359H20.977l1.413-8.685h2.261Zm-4.163-8.685L16.92,57.647l-.255-1.286h0L15.9,52.456a.968.968,0,0,0-1.073-.782H11.268l-.042.147a8.459,8.459,0,0,1,2.365.993l1.964,7.545h2.356l3.6-8.685ZM36.86,60.359h2.076l-1.81-8.685H35.308a1.039,1.039,0,0,0-1.044.647l-3.372,8.038h2.357l.471-1.29h2.874Zm-2.488-3.072,1.188-3.25.668,3.25Zm-3.3-3.524.323-1.865a6.526,6.526,0,0,0-2.034-.379c-1.122,0-3.787.49-3.787,2.875,0,2.244,3.127,2.271,3.127,3.45s-2.805.967-3.731.224l-.336,1.95a6.336,6.336,0,0,0,2.552.49c1.543,0,3.871-.8,3.871-2.973,0-2.258-3.155-2.468-3.155-3.45S30.1,53.229,31.069,53.763Z" transform="translate(-11.226 -51.519)" fill="#2566af"/>
        </g>
        <path id="Path_327" data-name="Path 327" d="M16.665,56.874,15.9,52.968a.968.968,0,0,0-1.073-.782H11.268l-.042.147a8.76,8.76,0,0,1,3.356,1.685A6.772,6.772,0,0,1,16.665,56.874Z" transform="translate(-11.226 -52.031)" fill="#e6a540"/>
      </g>
    </g>
    <g id="Group_950" data-name="Group 950" transform="translate(861.264 3780.931)">
      <g id="Layer_x0020_1" transform="translate(0 0)">
        <g id="_235782456" transform="translate(0 0)">
          <path id="Path_337" data-name="Path 337" d="M3,0H45.875a3,3,0,0,1,3,3V28.246a3,3,0,0,1-3,3H3a3,3,0,0,1-3-3V3A3,3,0,0,1,3,0Z" fill="url(#linear-gradient)"/>
          <path id="Path_328" data-name="Path 328" d="M549.192,1264.885l.218-.859c.836-.252,2.543-.367,2.864.538a14.251,14.251,0,0,1-.447,3.356l-.813.011c-.183-.229-.034.2-.16-.366-.779.7-2.44.584-2.314-.825s1.34-1.214,2.658-1.42c-.023-.893-1.145-.653-2.016-.447Zm6.128-.137c-.744,0-.859-.16-1.512.126.08.813.5.492,1.088.882,1.111.733-.08,3-2.726,2.027l.149-.825c.744.149,1.122.3,1.7-.022.137-1.157-1.913-.4-1.34-2.257.309-1.008,1.672-.87,2.795-.767l-.16.836ZM543.911,1263l1.752.057.183,2.749.951-2.2c.321-.791.1-.618,2.119-.6l-.9,4.914-.985-.011.538-3.528-1.455,3.551-1.18-.034a25.544,25.544,0,0,0-.275-3.562l-.6,3.574-1.031-.012Zm16.712,10.435.481-.573c-.962-.126-1.134.149-1.569-.63l2.21-.023a6.393,6.393,0,0,0,.481-.71c-2.52-.172-3.23.469-3.631-.63h4.043l.447-.7-4.994-.023-.229-.584,5.383-.022c.309-.172.309-.367.39-.722l-5.1-.012c-.916.012-.974.218-1.145-.618h6.415l.206-.71-1.879-.023-.092.481-1.076-.046.676-4,1.019.138c0,.023.023.1.023.137s.011.057.011.069l.057.207a1.165,1.165,0,0,1,1.134-.573l-.344.928c-.195.252-.768-.035-1.008.653l1.123.045a7.22,7.22,0,0,1,.47-1.523l.012-.344-7.022.012-.023.252c.378,0,.367-.069.584.114l-.1.676c-.71.172-.687-.252-.756.676.1.172-.023.08.195.137l.447.012c.722-2.348,2.875-1.833,3.367-1.1.263.39.527,1.672-.126,1.776l-2.188.023c.1,1.157,1.432.917,2.291.63-.034.481,0,.87-.447,1.031a3.426,3.426,0,0,1-1.489,0,1.631,1.631,0,0,1-1.443-1.741l-.412-.012c-.378-.172-.08,0-.275-.47-.16.962-.6,1.58.6,1.443-.069.573.012.767-.618.836-1.833.218-1.237-1.008-.94-2.646.47-2.612.1-2.291,1.432-2.268l6.827.011-.137-.71-6.6-.023.126-.572,6.243-.034c-.16-.974-.195-.734-2.463-.734h-3.459c.241-.836.115-.607,2.36-.607h3.035l-.321-.721-4.4-.011.3-.6,3.677-.023c-.469-.962-.447-.687-3.047-.733.332-.824.916-.618,1.936-.618-.286-.458-.493-.424-.664-.813a12.025,12.025,0,0,1-1.226-.905,11.136,11.136,0,1,0-4.238,20.137c3.276-.561,4.1-1.89,5.452-2.634Z" transform="translate(-536.157 -1249.56)" fill="#e41d2c" fill-rule="evenodd"/>
          <path id="Path_329" data-name="Path 329" d="M1875.973,1268.328c3.551-.722,2.967,1.031,2.68,2.451-.092.424-.092,1.26-.423,1.489a4.938,4.938,0,0,1-.6-.011c-.321-.126-.172.252-.218-.332-.962.55-2.485.675-2.3-.859.149-1.226,1.386-1.42,2.646-1.363-.046-.9-.871-.756-2.016-.47l.24-.9Zm3.505-.1.95.011a.213.213,0,0,1,.023.08l.148.424a1.166,1.166,0,0,1,1-.5l-.138.813-.47.183c-.939.309-.882,1.489-1.134,3.035h-1.065Zm5.052-.871h.974l-.836,4.926c-1.088.011-.824.068-1.168-.344-.71,1.054-2.841.08-2.188-2.1.481-1.626,2.108-2.062,2.909-1.1l.321-1.4Zm-16.025-6.185c.172.389.39.355.665.813-1.019,0-1.6-.218-1.936.618,2.6.046,2.578-.229,3.047.734l-3.677.022-.3.6,4.4.011.321.721h-3.036c-2.234,0-2.119-.218-2.359.607h3.459c2.268,0,2.3-.241,2.462.733l-6.242.034-.126.573,6.6.023.138.71-6.827-.011-.092.641,7.022-.011-.012.344c.527-.5.436-.768,1.42-1.053a3.855,3.855,0,0,1,2.131.114l-.172,1.054c-1.375-.413-2.268-.309-2.588,1.111-.355,1.523.847,2.1,2.119,1.489-.115,1.111-.3,1.386-1.6,1.214a2.044,2.044,0,0,1-1.581-1.088H1870.1l-.092.63,1.879.023-.206.71h-6.415c.172.836.229.63,1.146.618l5.1.012c-.092.343-.081.549-.39.721l-5.383.023.229.584,4.994.023-.447.7h-4.044c.4,1.088,1.111.458,3.631.63a6.394,6.394,0,0,1-.481.71l-2.211.023c.424.767.607.5,1.57.63l-.481.573a11.211,11.211,0,0,0,12.405,1.672,11.132,11.132,0,0,0-.07-19.988,11.478,11.478,0,0,0-9.93.069,15.437,15.437,0,0,0-2.383,1.649Z" transform="translate(-1844.027 -1253.895)" fill="#f8b02b" fill-rule="evenodd"/>
          <path id="Path_330" data-name="Path 330" d="M634,2033.1l1.031.011.6-3.573a25.625,25.625,0,0,1,.275,3.562l1.18.034,1.455-3.551-.538,3.528.985.012.9-4.914c-2.016-.023-1.8-.2-2.119.595l-.951,2.2-.183-2.749-1.752-.057Zm31.912-.9c-.859-.883-.126-2.348.676-2.153S667.229,2032.17,665.912,2032.193Zm1.4-2.6c-.8-.962-2.417-.527-2.909,1.1-.653,2.165,1.477,3.151,2.187,2.1.344.413.08.344,1.169.344l.836-4.925h-.974l-.321,1.4Zm-7.869,2.612c-.16-.767.55-1.065,1.225-.928A.852.852,0,0,1,659.44,2032.2Zm-.367-3.012-.241.9c1.146-.275,1.981-.424,2.016.469-1.26-.057-2.5.137-2.646,1.363-.195,1.535,1.34,1.409,2.3.859.046.584-.1.207.218.333a5.061,5.061,0,0,0,.6.011c.344-.218.344-1.065.424-1.489.3-1.432.87-3.173-2.68-2.451Zm-17.09,2.05a.951.951,0,0,1-.3.882c-.172.126-.687.275-.894.08-.641-.584.561-.973,1.18-.962Zm-1.821-1.168c.871-.206,1.993-.447,2.016.447-1.317.206-2.531.023-2.657,1.421s1.523,1.523,2.314.824c.126.562-.023.138.16.367l.813-.011a14.331,14.331,0,0,0,.447-3.357c-.321-.916-2.016-.8-2.863-.538l-.218.859Zm9.5.573c.149-.584.4-.825,1.077-.734.241.344.241.241.287.734Zm-1.214.057-.046.619a1.647,1.647,0,0,0,1.443,1.741,3.442,3.442,0,0,0,1.489,0c.447-.149.412-.55.447-1.031-.859.287-2.188.527-2.291-.63l2.188-.023c.653-.1.389-1.374.126-1.775-.492-.733-2.646-1.249-3.368,1.1Zm6.667-1.523a7.222,7.222,0,0,0-.47,1.523v.63l.195.7a2.046,2.046,0,0,0,1.581,1.089c1.306.171,1.489-.1,1.6-1.214-1.283.607-2.474.035-2.119-1.489.332-1.432,1.226-1.523,2.589-1.111l.172-1.053a4.081,4.081,0,0,0-2.131-.115c-.985.275-.893.55-1.42,1.054Zm-8.671-.08c-1.122-.092-2.486-.24-2.795.768-.573,1.855,1.466,1.1,1.34,2.256-.584.32-.951.172-1.7.023l-.149.825c2.646.974,3.826-1.282,2.726-2.028-.584-.389-1.008-.057-1.088-.881.653-.3.756-.126,1.512-.126l.161-.837Z" transform="translate(-627.128 -2014.748)" fill="#fefefe" fill-rule="evenodd"/>
          <path id="Path_331" data-name="Path 331" d="M1720.076,2043.565l.08-.275c.069-.928.045-.5.756-.676l.1-.676c-.219-.183-.207-.115-.585-.115l.023-.251.092-.642c-1.329-.022-.962-.343-1.432,2.268-.3,1.638-.893,2.863.939,2.646.619-.069.55-.263.619-.836C1719.492,2045.146,1719.927,2044.527,1720.076,2043.565Zm5.383,1.821.092-.63.114-.688.207-.687c.251-.688.824-.4,1.008-.653l.343-.927a1.142,1.142,0,0,0-1.134.573l-.058-.206c0-.012-.011-.046-.011-.068s-.023-.115-.023-.138l-1.02-.137-.676,4,1.077.046.092-.481Zm8.786.458h1.065c.252-1.546.195-2.726,1.134-3.036l.469-.183.138-.814a1.167,1.167,0,0,0-1,.5l-.148-.424c-.011-.023-.011-.057-.023-.08l-.95-.011Z" transform="translate(-1699.481 -2027.472)" fill="#fefefe" fill-rule="evenodd"/>
          <path id="Path_332" data-name="Path 332" d="M3386.521,2203.635c1.328-.022,1.478-1.958.677-2.153S3385.663,2202.752,3386.521,2203.635Z" transform="translate(-3347.737 -2186.19)" fill="#f8b02b" fill-rule="evenodd"/>
          <path id="Path_333" data-name="Path 333" d="M1213.387,2307.978c-.619-.01-1.821.379-1.18.963.206.183.722.035.893-.08a.968.968,0,0,0,.3-.883Zm11.214.779,1.638.012-.195-.7h-1.329Z" transform="translate(-1198.531 -2291.484)" fill="#e41d2c" fill-rule="evenodd"/>
          <path id="Path_334" data-name="Path 334" d="M2326.128,2257.559a.854.854,0,0,0,1.226-.928C2326.667,2256.5,2325.968,2256.8,2326.128,2257.559Zm-6.128-.872h1.329v-.629l-1.122-.058Z" transform="translate(-2293.815 -2240.101)" fill="#f8b02b" fill-rule="evenodd"/>
          <path id="Path_335" data-name="Path 335" d="M2001,2191.1h1.363c-.035-.481-.046-.39-.287-.733C2001.4,2190.276,2001.149,2190.516,2001,2191.1Z" transform="translate(-1978.47 -2175.202)" fill="#e41d2c" fill-rule="evenodd"/>
          <path id="Path_336" data-name="Path 336" d="M1832,2248.286c.195.47-.1.3.275.47l.413.011.045-.618-.447-.012c-.229-.045-.1.035-.195-.136l-.08.275Z" transform="translate(-1811.405 -2232.193)" fill="#f8b02b" fill-rule="evenodd"/>
        </g>
      </g>
    </g>
    <g id="Group_949" data-name="Group 949" transform="translate(928.435 3776.898)">
      <ellipse id="Ellipse_111" data-name="Ellipse 111" cx="19.433" cy="19.433" rx="19.433" ry="19.433" transform="translate(0 0)" fill="#f5b300"/>
      <path id="Path_411" data-name="Path 411" d="M20.7,14.738c.674.184,1.349.307,2.023.49s1.349.307,2.023.49c.184.061.245,0,.307-.184.245-1.042.49-2.023.736-3.065.061-.184.123-.245.307-.184.613.184,1.165.307,1.778.429.184.061.184.123.123.245-.245.981-.49,2.023-.736,3a.463.463,0,0,1-.061.245c.49.123,1.042.245,1.533.368.061,0,.123-.123.184-.184.184-.8.368-1.533.613-2.33l.184-.736c0-.123.061-.184.184-.123.613.184,1.226.307,1.9.49.061,0,.061.061.123.061-.184.8-.368,1.533-.552,2.268a5.107,5.107,0,0,1-.245.92c-.061.184,0,.245.184.307l2.023.92a5.2,5.2,0,0,1,1.594,1.471,3.672,3.672,0,0,1,.368,2.881,3.81,3.81,0,0,1-.92,1.778,3.748,3.748,0,0,1-1.349.8c-.061,0-.123.061-.245.061.245.184.49.307.736.49a3.865,3.865,0,0,1,1.471,2.084,4.806,4.806,0,0,1-.123,2.084,6.022,6.022,0,0,1-1.1,2.268,3.807,3.807,0,0,1-2.513,1.349,12.693,12.693,0,0,1-3.74-.123.257.257,0,0,0-.368.184c-.245.981-.49,2.023-.736,3-.061.245-.061.307-.368.184-.552-.123-1.165-.307-1.717-.429-.184-.061-.184-.123-.123-.245.245-1.042.49-2.084.8-3.065,0-.123.061-.184-.061-.245-.49-.123-.981-.245-1.533-.368-.123.552-.307,1.1-.429,1.655s-.307,1.1-.429,1.655c-.061.123-.061.184-.245.123-.613-.184-1.226-.307-1.839-.429-.184-.061-.184-.123-.123-.245.245-1.042.49-2.084.8-3.065,0-.061.061-.123.061-.245-1.41-.368-2.82-.736-4.291-1.1.123-.245.184-.429.307-.674.245-.552.49-1.1.674-1.594.061-.184.123-.184.307-.184a10.677,10.677,0,0,0,1.349.307.681.681,0,0,0,.92-.552c.8-3.126,1.594-6.253,2.33-9.441a1.063,1.063,0,0,0-.736-1.226c-.552-.184-1.1-.307-1.594-.429-.123,0-.184-.061-.123-.184.184-.674.368-1.41.552-2.084-.245.184-.245.184-.184.123ZM23.827,29.88a.214.214,0,0,1,.123.061,16.968,16.968,0,0,0,3.065.613A4.755,4.755,0,0,0,29.1,30.37a1.956,1.956,0,0,0,.981-2.881,3.744,3.744,0,0,0-1.287-1.1,12.371,12.371,0,0,0-3.617-1.1c-.184-.061-.184,0-.245.184-.123.613-.307,1.165-.429,1.778C24.256,28.1,24.073,28.96,23.827,29.88Zm5.15-6.253a4,4,0,0,0,.674-.123,1.786,1.786,0,0,0,1.165-2.636,2.914,2.914,0,0,0-1.41-1.165,18.736,18.736,0,0,0-2.636-.8c-.184-.061-.245,0-.307.184-.307,1.287-.613,2.513-.981,3.8-.061.123,0,.184.123.245.245.061.429.123.674.184a19.1,19.1,0,0,0,2.7.307Z" transform="translate(-6.54 -5.236)" fill="#fff"/>
    </g>
    <g id="Page-1" transform="translate(986.01 3776.898)">
      <g id="crypto" transform="translate(0 0)">
        <g id="Etherium" transform="translate(0 0)">
          <g id="Group">
            <path id="Shape" d="M12.516.8V15.084a.132.132,0,0,1-.123.123c-.429.184-.8.368-1.226.552-.552.245-1.165.49-1.717.8l-2.023.92-1.655.736-2.023.92c-.552.245-1.1.49-1.717.8-.429.184-.92.429-1.349.613-.061,0-.061.061-.123,0H.5c.184-.307.368-.552.552-.858.981-1.655,2.023-3.31,3-4.966C5.1,12.938,6.2,11.16,7.243,9.383c.981-1.655,1.962-3.31,2.943-4.9.736-1.226,1.471-2.391,2.146-3.617.123,0,.123-.061.184-.061h0Z" transform="translate(-0.5 -0.8)" fill="#8a92b2"/>
            <path id="Shape-2" data-name="Shape" d="M31.954,29.595c-.92.613-1.9,1.165-2.82,1.717-3,1.778-5.946,3.494-8.95,5.272-.061,0-.061.061-.123.061A.06.06,0,0,1,20,36.583V24.261c0-.061.061-.061.123-.061.245.123.49.245.8.368.736.368,1.533.674,2.268,1.042.674.307,1.287.613,1.962.858.674.307,1.287.613,1.962.92.552.245,1.165.49,1.717.8.552.245,1.165.49,1.717.8.429.184.858.429,1.349.613C31.893,29.533,31.893,29.595,31.954,29.595Z" transform="translate(-8.046 -9.855)" fill="#454a75"/>
            <path id="Shape-3" data-name="Shape" d="M12.554,53.536h0c-.061,0-.061,0-.123-.061-1.226-1.716-2.391-3.372-3.617-5.088l-3.678-5.15c-1.165-1.655-2.391-3.31-3.556-5.027l-.92-1.287c0-.061-.061-.061-.061-.123.061,0,.061.061.123.061,1.655.981,3.372,1.962,5.027,2.943,1.9,1.165,3.862,2.268,5.763,3.433.307.184.674.368.981.552.061,0,.061.061.061.123Z" transform="translate(-0.539 -14.731)" fill="#8a92b2"/>
            <path id="Shape-4" data-name="Shape" d="M.6,33Z" transform="translate(-0.539 -13.26)" fill="gray"/>
            <path id="Shape-5" data-name="Shape" d="M.7,29.617h0c.613-.307,1.226-.552,1.839-.858l2.391-1.1c.613-.307,1.226-.552,1.839-.858.858-.429,1.778-.8,2.636-1.226.613-.245,1.226-.552,1.839-.8a12.253,12.253,0,0,0,1.287-.613c.061,0,.061-.061.123-.061V36.606c-.061.061-.061,0-.123,0a3.421,3.421,0,0,1-.49-.307L.823,29.679A.19.19,0,0,0,.7,29.617Z" transform="translate(-0.577 -9.816)" fill="#62688f"/>
            <path id="Shape-6" data-name="Shape" d="M31.932,36.8c0,.061,0,.061-.061.123C28.315,41.95,24.759,46.915,21.2,51.942c-.368.552-.736,1.042-1.1,1.594V43.789c.8-.49,1.594-.981,2.391-1.41l9.379-5.517a.06.06,0,0,1,.061-.061Z" transform="translate(-8.084 -14.731)" fill="#62688f"/>
            <path id="Shape-7" data-name="Shape" d="M20.1,15.184V.9L31.87,20.395c.061.061.123.123.123.184-.245-.123-.49-.245-.8-.368s-.613-.307-.92-.429a6.36,6.36,0,0,0-.613-.245c-.307-.123-.674-.307-.981-.429-.184-.061-.368-.184-.552-.245l-1.287-.552c-.245-.123-.429-.184-.674-.307-.307-.123-.613-.307-.92-.429-.184-.061-.368-.184-.552-.245l-1.287-.552c-.245-.123-.429-.184-.674-.307-.307-.123-.613-.307-.92-.429-.184-.123-.429-.184-.613-.307l-1.1-.552Z" transform="translate(-8.084 -0.839)" fill="#62688f"/>
          </g>
        </g>
      </g>
    </g>
    <g id="Page-1-2" data-name="Page-1" transform="translate(1028.755 3776.898)">
      <g id="crypto-2" data-name="crypto" transform="translate(0 0)">
        <g id="Tether-Wallet" transform="translate(0 0)">
          <ellipse id="Oval" cx="19.433" cy="19.433" rx="19.433" ry="19.433" fill="#00a478"/>
          <path id="Shape-8" data-name="Shape" d="M24.46,23.518V18.553H17.9V14.2H36.23v4.414H29.67v4.9Z" transform="translate(-7.233 -5.924)" fill="#fff"/>
          <path id="Shape-9" data-name="Shape" d="M25.132,25.89c6.866,0,10.422,1.9,10.851,2.513-.429.613-3.923,1.533-10.851,1.533-6.866,0-10.422-.92-10.851-1.533C14.71,27.73,18.266,25.89,25.132,25.89Zm0-.49c-6.56,0-11.832,1.349-11.832,3s5.272,3,11.832,3,11.832-1.349,11.832-3S31.691,25.4,25.132,25.4Z" transform="translate(-5.453 -10.258)" fill="#fff"/>
          <g id="Group-2" data-name="Group" transform="translate(17.226 15.571)">
            <path id="Shape-10" data-name="Shape" d="M5.85,3.656V.223C4.991.161,4.072.1,3.152.1,2.294.1,1.5.1.7.161V3.594c.736,0,1.594.061,2.452.061a19.8,19.8,0,0,0,2.7,0Z" transform="translate(-0.639 -0.1)" fill="#fff"/>
            <path id="Shape-11" data-name="Shape" d="M3.052,9.123c-.858,0-1.655,0-2.452-.061V18.2H5.75V9C4.891,9.061,3.972,9.123,3.052,9.123Z" transform="translate(-0.6 -3.544)" fill="#fff"/>
          </g>
        </g>
      </g>
    </g>
    <g id="Group_862" data-name="Group 862" transform="translate(1194.834 3780.931)">
      <path id="Path_152" data-name="Path 152" d="M54.521,27.006a31.1,31.1,0,0,0-6.853,1.111l-.556,4.26a24.26,24.26,0,0,1,5.742-1.3c2.223,0,3.519.37,3.149,2.408-6.668,0-11.113,1.3-12.039,5.742-1.3,7.409,6.853,7.594,10,4.26l-.37,2.037h5.927l2.593-12.039C63.041,28.488,58.6,26.821,54.521,27.006Zm.37,12.409c-.37,1.482-1.667,2.037-3.149,2.223-1.3,0-2.408-.741-1.667-2.223.741-1.111,2.408-1.111,3.7-1.111h1.482c-.185-.185-.37.556-.37,1.111Z" transform="translate(33.827 -21.45)" fill="#fff" fill-rule="evenodd"/>
      <path id="Path_153" data-name="Path 153" d="M47.112,32.286a24.262,24.262,0,0,1,5.742-1.3c2.223,0,3.519.37,3.149,2.408-6.668,0-11.113,1.3-12.039,5.742-1.3,7.409,6.853,7.594,10,4.26l-.37,2.037h5.927L62.115,33.4c1.111-5-3.519-6.3-7.594-6.3m.37,12.224c-.37,1.482-1.667,2.037-3.149,2.223-1.3,0-2.408-.741-1.667-2.223.741-1.111,2.408-1.111,3.7-1.111h1.482C55.077,38.028,54.892,38.769,54.892,39.324Z" transform="translate(33.827 -21.358)" fill="#fff" fill-rule="evenodd"/>
      <path id="Path_154" data-name="Path 154" d="M58.616,24,53.8,48.078h5.927l5-24.078Z" transform="translate(42.327 -24)" fill="#fff" fill-rule="evenodd"/>
      <path id="Path_155" data-name="Path 155" d="M62.876,24,53.8,48.078h5.927l5-24.078H62.876Z" transform="translate(42.327 -24)" fill="#fff" fill-rule="evenodd"/>
      <path id="Path_156" data-name="Path 156" d="M48.743,24H37.816L33,48.078h6.483l1.667-7.409h4.63a8.8,8.8,0,0,0,9.076-7.223C55.782,28.075,51.892,24,48.743,24Zm-.185,8.335a3.781,3.781,0,0,1-3.7,2.778H41.89l1.3-5.556h3.149a2.1,2.1,0,0,1,2.223,2.778Z" transform="translate(24.602 -24)" fill="#fff" fill-rule="evenodd"/>
      <path id="Path_157" data-name="Path 157" d="M48.829,24H41.42L32.9,48.078h6.483l1.667-7.409h4.63a8.8,8.8,0,0,0,9.076-7.223C55.867,28.075,51.977,24,48.829,24Zm-.185,8.335a3.781,3.781,0,0,1-3.7,2.778H41.976l1.3-5.556h3.149a2.1,2.1,0,0,1,2.223,2.778Z" transform="translate(24.517 -24)" fill="#fff" fill-rule="evenodd"/>
      <path id="Path_158" data-name="Path 158" d="M23.152,27.006a27.529,27.529,0,0,0-6.668,1.111l-.556,4.26a22.15,22.15,0,0,1,5.742-1.3c2.223,0,3.519.37,3.149,2.408-6.483,0-10.928,1.3-11.854,5.742-1.3,7.409,6.668,7.594,9.816,4.26l-.37,2.037h5.927l2.593-12.039c.926-5-3.7-6.668-7.779-6.483Zm.556,12.409c-.37,1.482-1.667,2.037-3.149,2.223-1.3,0-2.408-.741-1.482-2.223C19.818,38.3,21.485,38.3,22.6,38.3h1.482c-.185-.185-.37.556-.37,1.111Z" transform="translate(7.409 -21.45)" fill="#fff" fill-rule="evenodd"/>
      <path id="Path_159" data-name="Path 159" d="M16.029,32.286a22.151,22.151,0,0,1,5.742-1.3c2.223,0,3.519.37,3.149,2.408-6.483,0-10.928,1.3-11.854,5.742-1.3,7.409,6.668,7.594,9.816,4.26l-.556,2.037h5.927L30.846,33.4c1.111-5-3.519-6.3-7.594-6.3m.37,12.224c-.37,1.482-1.667,2.037-3.149,2.223-1.3,0-2.408-.741-1.482-2.223.741-1.111,2.408-1.111,3.519-1.111h1.482C23.808,38.028,23.622,38.769,23.622,39.324Z" transform="translate(7.494 -21.358)" fill="#fff" fill-rule="evenodd"/>
      <path id="Path_160" data-name="Path 160" d="M24.752,27h5.927l.926,10.372L37.532,27h6.112L29.568,52.93H22.9l4.26-7.779Z" transform="translate(15.995 -21.444)" fill="#fff" fill-rule="evenodd"/>
      <path id="Path_161" data-name="Path 161" d="M30.679,27.37l.926,10.187L37.532,27h6.112L29.568,52.93H22.9l4.26-7.594" transform="translate(15.995 -21.444)" fill="#fff" fill-rule="evenodd"/>
      <path id="Path_162" data-name="Path 162" d="M17.829,24H6.716L1.9,48.078H8.383l1.667-7.409h4.63a8.8,8.8,0,0,0,9.076-7.223C24.867,28.075,20.977,24,17.829,24Zm-.185,8.335a3.781,3.781,0,0,1-3.7,2.778H10.976l1.3-5.556h3.149A2.1,2.1,0,0,1,17.643,32.335Z" transform="translate(-1.9 -24)" fill="#fff" fill-rule="evenodd"/>
      <g id="Group_336" data-name="Group 336" transform="translate(0 0)">
        <path id="Path_163" data-name="Path 163" d="M17.829,24h-5L1.9,48.078H8.383l1.667-7.409h4.63a8.8,8.8,0,0,0,9.076-7.223C24.867,28.075,20.977,24,17.829,24Zm-.185,8.335a3.781,3.781,0,0,1-3.7,2.778H10.976l1.3-5.556h3.149A2.1,2.1,0,0,1,17.643,32.335Z" transform="translate(-1.9 -24)" fill="#fff" fill-rule="evenodd"/>
      </g>
      <g id="Group_337" data-name="Group 337" transform="translate(20.232 12.039)">
        <path id="Path_164" data-name="Path 164" d="M22.041,30.5c-5,.37-8.335,1.852-9.076,5.556-1.3,7.409,6.668,7.594,9.816,4.26l-.37,2.223h5.927l.926-4.445L22.041,30.5Zm1.667,5.927c-.37,1.482-1.667,2.037-3.149,2.223-1.3,0-2.408-.741-1.482-2.223.741-1.111,2.408-1.111,3.519-1.111h1.482c-.185-.185-.37.556-.37,1.111Z" transform="translate(-12.824 -30.5)" fill="#fff" fill-rule="evenodd"/>
      </g>
      <g id="Group_338" data-name="Group 338" transform="translate(47.601 5.556)">
        <path id="Path_165" data-name="Path 165" d="M27.97,37.187l-.37.556,3.89,3.7L39.639,27H33.527Z" transform="translate(-27.6 -27)" fill="#fff" fill-rule="evenodd"/>
      </g>
      <g id="Group_339" data-name="Group 339" transform="translate(0.556 16.669)">
        <path id="Path_166" data-name="Path 166" d="M8.127,40.409,9.794,33,2.2,40.409Z" transform="translate(-2.2 -33)" fill="#fff" fill-rule="evenodd"/>
      </g>
      <g id="Group_340" data-name="Group 340" transform="translate(57.973 16.299)">
        <path id="Path_167" data-name="Path 167" d="M39.127,40.579,40.794,32.8v.185L33.2,40.579Z" transform="translate(-33.2 -32.8)" fill="#fff" fill-rule="evenodd"/>
      </g>
      <g id="Group_341" data-name="Group 341" transform="translate(77.838 12.039)">
        <path id="Path_168" data-name="Path 168" d="M53.139,30.5c-5,.37-8.335,1.852-9.076,5.556-1.3,7.409,6.853,7.594,10,4.26l-.556,2.223h5.927l.926-4.445Zm1.667,5.927c-.37,1.482-1.667,2.037-3.149,2.223-1.3,0-2.408-.741-1.667-2.223.741-1.111,2.408-1.111,3.7-1.111h1.482C54.992,35.13,54.806,35.871,54.806,36.427Z" transform="translate(-43.925 -30.5)" fill="#fff" fill-rule="evenodd"/>
      </g>
      <g id="Group_342" data-name="Group 342" transform="translate(96.127 13.15)">
        <path id="Path_169" data-name="Path 169" d="M58.06,31.1,53.8,42.028h5.927l1.667-7.409Z" transform="translate(-53.8 -31.1)" fill="#fff" fill-rule="evenodd"/>
      </g>
      <g id="Group_343" data-name="Group 343" transform="translate(107.425 0.741)">
        <path id="Path_170" data-name="Path 170" d="M60.826,27.463V24.87H59.9V24.5h2.408v.37h-.926v2.593Z" transform="translate(-59.9 -24.315)" fill="#fff"/>
        <path id="Path_171" data-name="Path 171" d="M61.4,27.549V24.585h.556l.741,2.037a.647.647,0,0,0,.185.37c0-.185,0-.185.185-.556l.741-2.037h.556v2.963h-.37V24.77l-.926,2.593h-.556l-.926-2.593v2.593H61.4Z" transform="translate(-58.622 -24.4)" fill="#fff"/>
      </g>
    </g>
    <g id="Group_863" data-name="Group 863" transform="translate(1086.331 3780.931)">
      <g id="Group_590" data-name="Group 590" transform="translate(0 0)">
        <path id="Path_172" data-name="Path 172" d="M71.752,24.388l7.22-1.3V51.1h-7.22Zm11.551,0V51.1h7.22V23.088ZM61.644,51.1h7.22V30.885h-7.22ZM12.263,33.629c-1.011,0-3.177-.144-3.177-2.166,0-2.31,3.177-2.31,4.332-2.31a25.626,25.626,0,0,1,6.642,1.155l2.166.722h.289v-6.5l-.289-.144A29.167,29.167,0,0,0,12.407,22.8C4.032,23.088,1,28,1,32.185c0,2.455,1.011,8.086,10.685,8.808.866,0,3.032.144,3.032,2.166,0,1.733-2.021,2.6-5.054,2.6-3.321,0-5.776-.866-8.663-1.588v6.642a42.679,42.679,0,0,0,10.252,1.155c8.23,0,11.984-4.621,11.984-9.241,0-5.2-4.043-8.519-10.974-9.1Zm44.906-3.177c-6.931.144-9.963,3.321-9.963,9.385V51.1h7.22V42c0-3.61,0-5.2,4.332-5.342V30.6C58.757,30.308,57.168,30.452,57.168,30.452Zm-20.07.433a36.591,36.591,0,0,1-4.332,7.075V23.088l-7.22,1.588V51.1h7.22V43.3a16.555,16.555,0,0,1,3.465,7.8h9.241c-.866-2.888-4.909-10.4-4.909-10.4,3.61-4.476,5.2-9.819,5.342-9.819ZM65.254,28.72a3.61,3.61,0,1,0-3.61-3.61A3.575,3.575,0,0,0,65.254,28.72Z" transform="translate(-0.856 -21.5)" fill="#fff"/>
        <path id="Path_173" data-name="Path 173" d="M74.684,23.81l4.332-.722V51.1H71.8Zm11.263.144L83.347,51.1h7.22V23.088ZM61.689,51.1h7.22V30.885H65.876ZM1.044,32.185c0,2.455,1.011,8.086,10.541,8.808.866,0,4.332.144,4.332,2.166,0,1.733-3.465,2.6-6.353,2.6-3.321,0-5.776-.866-8.663-1.588v6.642a42.679,42.679,0,0,0,10.252,1.155c8.23,0,11.984-4.621,11.984-9.241,0-5.2-4.043-8.519-10.974-9.1-1.011,0-3.032-.144-3.032-2.166,0-2.31,3.177-2.31,4.332-2.31A25.627,25.627,0,0,1,20.1,30.308l2.166.722h.289v-6.5l-.289-.144A29.167,29.167,0,0,0,12.451,22.8m34.8,16.749V51.1h7.22V42c0-3.61,0-5.2,4.332-5.342V30.6c0-.144-1.588-.144-1.588-.144M25.591,51.1h7.22V43.3c2.888,3.321,6.209,7.8,6.209,7.8h6.353c-.866-2.888-4.909-10.4-4.909-10.4,3.61-4.476,5.2-9.819,5.342-9.819H41.474a40.485,40.485,0,0,0-8.663,7.075V23.666M65.3,28.72a3.61,3.61,0,0,0,0-7.22" transform="translate(-0.9 -21.5)" fill="#fff"/>
      </g>
    </g>
    <g id="logo" transform="translate(1462.95 3778.243)">
      <path id="Path_345" data-name="Path 345" d="M4.34,15.266a5.973,5.973,0,0,0-3.137.782A5.392,5.392,0,0,0-.3,17.494V15.753H-4.179V35.433H-.3V28.3a5.936,5.936,0,0,0,4.718,2.027,6.976,6.976,0,0,0,4.239-1.312A6.46,6.46,0,0,0,11,25.846a6.88,6.88,0,0,0,1.161,2.086,6.382,6.382,0,0,0,5.189,2.4,5.977,5.977,0,0,0,4.895-2.422v1.926h3.877V16.594L30.756,29.5l-1.362,3.9A3.9,3.9,0,0,1,33.1,34.626l7.1-18.872H36.08l-3.288,8.368-2.851-8.368h-7.7v1.783a6.977,6.977,0,0,0-1.64-1.472,5.666,5.666,0,0,0-2.977-.791,6.77,6.77,0,0,0-3.608.984,6.515,6.515,0,0,0-2.456,2.573,8.562,8.562,0,0,0-.53,1.2,6.877,6.877,0,0,0-2.784-3.6,6.825,6.825,0,0,0-3.911-1.169ZM3.567,18.52a3.448,3.448,0,0,1,2.691,1.2,4.658,4.658,0,0,1,1.068,3.213,4.618,4.618,0,0,1-.774,2.674,3.528,3.528,0,0,1-3.1,1.589A3.52,3.52,0,0,1,.758,26.073,4.364,4.364,0,0,1-.3,22.97a4.93,4.93,0,0,1,.757-2.8,3.551,3.551,0,0,1,3.112-1.648Zm14.869.025a3.556,3.556,0,0,1,2.969,1.4,4.507,4.507,0,0,1,.9,2.834,4.685,4.685,0,0,1-1,2.96A3.538,3.538,0,0,1,18.4,27.2a3.379,3.379,0,0,1-2.5-1.051A4.391,4.391,0,0,1,14.676,22.9a4.911,4.911,0,0,1,.9-2.944,3.337,3.337,0,0,1,2.859-1.413ZM29.823,34.811a2.984,2.984,0,1,0,2.868,2.077,3,3,0,0,0-2.868-2.077ZM4.475,38.133A2.381,2.381,0,1,0,6.754,39.79a2.371,2.371,0,0,0-2.279-1.657ZM21.791,39.26a4.125,4.125,0,1,0,3.961,2.876,4.136,4.136,0,0,0-3.961-2.876Zm-9.932,1.716A2.968,2.968,0,1,0,14.7,43.044a2.982,2.982,0,0,0-2.843-2.069Z" transform="translate(4.179 -10.021)" fill="#fff"/>
      <path id="Path_346" data-name="Path 346" d="M186.23,1.092h-3.881V-1.872h3.881ZM176.807-4.22V3.073a6.343,6.343,0,0,0-2.052-1.532,6.7,6.7,0,0,0-2.6-.52,6.829,6.829,0,0,0-4.787,1.933,7.424,7.424,0,0,0-2.26,5.724,7.525,7.525,0,0,0,1.739,5.16,6.606,6.606,0,0,0,5.234,2.245,6.215,6.215,0,0,0,3.049-.728,5.363,5.363,0,0,0,1.68-1.605v1.843h3.881V-4.22Zm-.922,15.754a3.416,3.416,0,0,1-2.855,1.427,3.562,3.562,0,0,1-2.647-1.13,4.273,4.273,0,0,1-1.16-3.138,4.911,4.911,0,0,1,.759-2.722,3.473,3.473,0,0,1,3.077-1.695,3.369,3.369,0,0,1,2.691,1.249,4.653,4.653,0,0,1,1.055,3.137,4.582,4.582,0,0,1-.922,2.87m10.345,4.059h-3.881V1.512h3.881Zm39.23-10.9v6.751a.828.828,0,0,0,.252.714,1.51,1.51,0,0,0,.848.193h2.6v3.242h-5.026a2.7,2.7,0,0,1-2.008-.669,2.924,2.924,0,0,1-.55-2.022V-3.548h3.881V1.438h3.7V4.694Zm-4.252-3.182h-4.476l-3.94,5.4V-3.5h-3.881v9.65a7.147,7.147,0,0,0-1.334-2.487,7.289,7.289,0,0,0-5.933-2.646A7.8,7.8,0,0,0,197.719,2a6.538,6.538,0,0,0-1.449,1.117V1.466H191.85a6,6,0,0,0-2.211.612,4.911,4.911,0,0,0-1.514,1.238,3.4,3.4,0,0,0-.7,2.267V15.57h3.884V6.056a1.5,1.5,0,0,1,.347-.612,2.287,2.287,0,0,1,.616-.417,2.327,2.327,0,0,1,1.026-.194h1.762a8.142,8.142,0,0,0-.854,3.7,7.194,7.194,0,0,0,1.9,5.16,7.587,7.587,0,0,0,5.769,2.393,7.465,7.465,0,0,0,4.714-1.635,7.723,7.723,0,0,0,2.126-2.662l-3.539-.981a3.083,3.083,0,0,1-1.011,1.13,3.908,3.908,0,0,1-2.245.7,3.59,3.59,0,0,1-2.855-1.279,3.72,3.72,0,0,1-.833-1.888h10.672v6.126h3.881V9.749l3.925,5.844h4.491l-4.8-7.331Zm-22.984,5.74a3.9,3.9,0,0,1,.788-1.785,3.359,3.359,0,0,1,2.677-1.174,3.578,3.578,0,0,1,2.8,1.174,3.466,3.466,0,0,1,.8,1.785Z" transform="translate(-119.548 4.22)" fill="#fff"/>
    </g>
    <g id="Group_676" data-name="Group 676" transform="translate(1316.639 3784.963)">
      <path id="Path_145" data-name="Path 145" d="M24.378,18.963a1.447,1.447,0,0,1,1.394-.884h7.167a2.683,2.683,0,0,1,.172-.257,19.318,19.318,0,0,1,5.671-5.108H25.574a7.768,7.768,0,0,0-7.74,5.366L11.562,35.317h6.866l3.227-8.861h6.073l1.726-4.744H23.4l.981-2.75Z" transform="translate(34.333 -12.392)" fill="#fff"/>
      <path id="Path_146" data-name="Path 146" d="M25.454,21.488s-.348-.107-.761-.22l-1.126-.322a1.506,1.506,0,0,1-.884-.643,1.26,1.26,0,0,1-.134-1.013,1.485,1.485,0,0,1,.74-.89,3,3,0,0,1,1.447-.322h8.3a2.68,2.68,0,0,1,.172-.257,18.316,18.316,0,0,1,5.36-5.108H25.6a12.5,12.5,0,0,0-5.811.906c-1.774.9-3.345,2.707-4.556,6.32a7.255,7.255,0,0,0-.418,2.026,3.029,3.029,0,0,0,.306,1.506,4.345,4.345,0,0,0,1.265,1.437,6.134,6.134,0,0,0,1.924.97l.858.247,1.308.386a2.653,2.653,0,0,1,.606.257,1.072,1.072,0,0,1,.595.954,1.528,1.528,0,0,1-.086.536,1.474,1.474,0,0,1-.9,1,6.627,6.627,0,0,1-2.251.268H5.112L3,35.317H17.274a15.581,15.581,0,0,0,6.164-1,9.447,9.447,0,0,0,5.575-7.022,4.756,4.756,0,0,0-.338-3.7,5.243,5.243,0,0,0-3.222-2.107Z" transform="translate(-3 -12.392)" fill="#fff"/>
      <path id="Path_147" data-name="Path 147" d="M28.842,15.092c-1.126-1.613-3.055-2.439-5.752-2.439a11.846,11.846,0,0,0-5.065,1.158A15.815,15.815,0,0,0,11.968,19.1,22.833,22.833,0,0,0,9.18,24.483c-1.394,3.811-1.372,6.9.054,8.941.8,1.152,2.476,2.525,5.886,2.53h.016c6.207,0,10.844-4.074,13.776-12.1.777-2.123,1.8-6.089-.07-8.764ZM22.2,24.172c-1.93,5.307-3.339,6.636-5.457,6.636-2.064,0-2.787-1.3-.858-6.582,1.437-3.94,3.307-6.459,5.564-6.459,2.144,0,2.637,1.249.75,6.406Z" transform="translate(19.454 -12.653)" fill="#fff"/>
      <path id="Path_148" data-name="Path 148" d="M23.962,13.917a5.881,5.881,0,0,1,.938,4.165h4.165L22.793,35.32h6.266l6.277-17.239h8.051l1.957-5.366H22.82A5.63,5.63,0,0,1,23.962,13.917Z" transform="translate(83.303 -12.379)" fill="#fff"/>
      <path id="Path_149" data-name="Path 149" d="M40.844,14.935c-1.029-1.49-3.13-2.219-6.416-2.219H26.816l-8.228,22.6h6.99l2.991-7.955c.15.327,1.914,7.955,1.914,7.955h7.349a71.233,71.233,0,0,0-2.321-7.869,12.392,12.392,0,0,0-.868-1.78,10.306,10.306,0,0,0,6.33-5.784c.767-2.064.724-3.731-.129-4.953ZM34.76,19.92a4.029,4.029,0,0,1-4.17,2.927h-1.2l2.032-5.467h1.152c2.112,0,2.895.622,2.182,2.546Z" transform="translate(64.968 -12.378)" fill="#fff"/>
      <path id="Path_150" data-name="Path 150" d="M35.83,15.092c-1.126-1.613-3.055-2.439-5.752-2.439a11.811,11.811,0,0,0-5.065,1.158A15.853,15.853,0,0,0,18.956,19.1a22.832,22.832,0,0,0-2.787,5.382c-1.388,3.811-1.372,6.9.054,8.941.8,1.152,2.482,2.525,5.891,2.53h.011c6.213,0,10.849-4.074,13.776-12.1.783-2.123,1.8-6.089-.064-8.764Zm-6.647,9.08c-1.93,5.307-3.339,6.636-5.457,6.636-2.064,0-2.787-1.3-.858-6.582,1.442-3.94,3.307-6.459,5.564-6.459,2.144,0,2.637,1.249.75,6.406Z" transform="translate(49.934 -12.653)" fill="#fff"/>
    </g>
  </g>
</svg>
