<svg width="875" height="58" viewBox="0 0 875 58" fill="none" xmlns="http://www.w3.org/2000/svg">
    <path d="M243.473 41.866C254.319 41.866 263.111 33.1656 263.111 22.433C263.111 11.7005 254.319 3 243.473 3C232.628 3 223.836 11.7005 223.836 22.433C223.836 33.1656 232.628 41.866 243.473 41.866Z" fill="#F5B300"/>
    <path d="M238.145 12.5022C238.826 12.6862 239.509 12.8092 240.19 12.9922C240.871 13.1752 241.553 13.2992 242.234 13.4822C242.42 13.5432 242.482 13.4822 242.544 13.2982C242.792 12.2562 243.039 11.2752 243.288 10.2332C243.35 10.0492 243.412 9.98823 243.598 10.0492C244.218 10.2332 244.775 10.3562 245.395 10.4782C245.581 10.5392 245.581 10.6012 245.519 10.7232C245.272 11.7042 245.024 12.7462 244.775 13.7232C244.778 13.809 244.757 13.8938 244.714 13.9682C245.209 14.0912 245.767 14.2132 246.263 14.3362C246.325 14.3362 246.387 14.2132 246.449 14.1522C246.635 13.3522 246.821 12.6192 247.068 11.8222L247.254 11.0862C247.254 10.9632 247.316 10.9022 247.44 10.9632C248.06 11.1472 248.679 11.2702 249.36 11.4532C249.422 11.4532 249.422 11.5142 249.484 11.5142C249.299 12.3142 249.113 13.0472 248.927 13.7822C248.873 14.0959 248.79 14.4039 248.679 14.7022C248.617 14.8862 248.679 14.9472 248.865 15.0092L250.909 15.9292C251.545 16.3021 252.094 16.8033 252.52 17.4002C252.777 17.8302 252.942 18.3074 253.006 18.8028C253.07 19.2982 253.031 19.8012 252.892 20.2812C252.748 20.9453 252.427 21.5592 251.962 22.0592C251.57 22.418 251.105 22.6907 250.599 22.8592C250.537 22.8592 250.475 22.9202 250.352 22.9202C250.599 23.1042 250.847 23.2272 251.095 23.4102C251.815 23.9184 252.339 24.6531 252.582 25.4942C252.695 26.1895 252.653 26.901 252.457 27.5782C252.253 28.4034 251.874 29.1763 251.346 29.8462C250.708 30.6045 249.798 31.0882 248.806 31.1952C247.547 31.3392 246.274 31.2978 245.027 31.0722C244.991 31.0543 244.951 31.045 244.911 31.045C244.87 31.045 244.831 31.0543 244.795 31.0721C244.758 31.09 244.727 31.1159 244.703 31.1479C244.679 31.1798 244.662 31.2169 244.655 31.2562C244.408 32.2372 244.16 33.2792 243.911 34.2562C243.85 34.5012 243.85 34.5632 243.54 34.4402C242.982 34.3172 242.362 34.1332 241.804 34.0112C241.619 33.9502 241.619 33.8882 241.68 33.7662C241.928 32.7242 242.175 31.6822 242.489 30.7012C242.489 30.5782 242.55 30.5172 242.427 30.4562C241.932 30.3332 241.436 30.2112 240.878 30.0882C240.754 30.6402 240.568 31.1882 240.444 31.7432C240.321 32.2982 240.134 32.8432 240.011 33.3982C239.949 33.5212 239.949 33.5822 239.763 33.5212C239.144 33.3372 238.524 33.2142 237.905 33.0922C237.719 33.0312 237.719 32.9692 237.781 32.8472C238.028 31.8052 238.276 30.7632 238.589 29.7822C238.589 29.7212 238.651 29.6592 238.651 29.5372C237.226 29.1692 235.801 28.8012 234.314 28.4372C234.439 28.1922 234.5 28.0082 234.625 27.7632C234.872 27.2112 235.12 26.6632 235.306 26.1692C235.367 25.9852 235.43 25.9852 235.616 25.9852C236.063 26.1166 236.519 26.2192 236.979 26.2922C237.077 26.3293 237.182 26.3439 237.286 26.3349C237.39 26.326 237.49 26.2937 237.58 26.2405C237.67 26.1873 237.746 26.1146 237.803 26.0279C237.86 25.9412 237.896 25.8428 237.909 25.7402C238.717 22.6142 239.52 19.4872 240.263 16.2992C240.316 16.0399 240.269 15.7707 240.131 15.544C239.993 15.3173 239.776 15.1494 239.52 15.0732C238.962 14.8892 238.408 14.7662 237.909 14.6442C237.785 14.6442 237.723 14.5832 237.785 14.4602C237.971 13.7862 238.156 13.0502 238.342 12.3762C238.095 12.5602 238.095 12.5602 238.156 12.4992L238.145 12.5022ZM241.305 27.6442C241.352 27.6505 241.396 27.6719 241.43 27.7052C242.441 28.0034 243.478 28.2086 244.527 28.3182C245.234 28.4125 245.954 28.3497 246.634 28.1342C246.911 28.0338 247.161 27.8734 247.367 27.6647C247.574 27.456 247.73 27.2043 247.825 26.9281C247.92 26.6518 247.951 26.3581 247.917 26.0682C247.882 25.7784 247.783 25.5 247.625 25.2532C247.282 24.7931 246.837 24.4168 246.325 24.1532C245.17 23.6034 243.938 23.2324 242.669 23.0532C242.484 22.9922 242.484 23.0532 242.422 23.2372C242.298 23.8502 242.112 24.4022 241.988 25.0152C241.739 25.8642 241.554 26.7242 241.305 27.6442ZM246.509 21.3912C246.74 21.3696 246.968 21.3284 247.191 21.2682C247.468 21.2081 247.727 21.0842 247.946 20.9065C248.166 20.7288 248.34 20.5024 248.455 20.2457C248.569 19.9889 248.621 19.709 248.606 19.4287C248.591 19.1483 248.509 18.8755 248.368 18.6322C248.032 18.1026 247.532 17.6942 246.943 17.4672C246.076 17.1362 245.186 16.8689 244.279 16.6672C244.093 16.6062 244.032 16.6672 243.969 16.8512C243.659 18.1382 243.35 19.3642 242.978 20.6512C242.916 20.7742 242.978 20.8352 243.102 20.8962C243.35 20.9572 243.536 21.0192 243.783 21.0802C244.684 21.2465 245.596 21.3491 246.512 21.3872L246.509 21.3912Z" fill="white"/>
    <path d="M294.16 3V17.284C294.158 17.3159 294.144 17.346 294.121 17.3686C294.098 17.3913 294.068 17.4049 294.036 17.407C293.602 17.591 293.227 17.775 292.797 17.959C292.239 18.204 291.62 18.449 291.062 18.759L289.017 19.679L287.345 20.415L285.301 21.335C284.743 21.58 284.189 21.825 283.566 22.135C283.132 22.319 282.636 22.564 282.203 22.748C282.141 22.748 282.141 22.809 282.078 22.748H282.018C282.204 22.441 282.389 22.196 282.575 21.89C283.567 20.235 284.62 18.58 285.607 16.924C286.666 15.138 287.778 13.36 288.832 11.583C289.823 9.928 290.814 8.273 291.806 6.683C292.549 5.457 293.292 4.292 293.974 3.066C294.098 3.066 294.098 3.005 294.16 3.005V3Z" fill="#8A92B2"/>
    <path d="M306.178 22.7397C305.248 23.3527 304.258 23.9047 303.328 24.4567C300.296 26.2347 297.319 27.9507 294.284 29.7287C294.222 29.7287 294.222 29.7897 294.159 29.7897C294.151 29.7899 294.143 29.7884 294.135 29.7853C294.128 29.7822 294.121 29.7776 294.115 29.7718C294.109 29.766 294.105 29.7591 294.102 29.7515C294.099 29.744 294.097 29.7359 294.098 29.7277V17.4057C294.098 17.3447 294.159 17.3447 294.222 17.3447C294.47 17.4677 294.717 17.5897 295.03 17.7127C295.774 18.0807 296.58 18.3867 297.322 18.7547C298.003 19.0617 298.623 19.3677 299.305 19.6127C299.986 19.9197 300.605 20.2257 301.288 20.5327C301.845 20.7777 302.465 21.0227 303.023 21.3327C303.58 21.5777 304.2 21.8227 304.758 22.1327C305.191 22.3167 305.625 22.5617 306.121 22.7457C306.116 22.6777 306.116 22.7397 306.178 22.7397Z" fill="#454A75"/>
    <path d="M294.159 41.8053C294.097 41.8053 294.097 41.8053 294.035 41.7443C292.796 40.0283 291.619 38.3723 290.38 36.6563L286.663 31.5063C285.486 29.8513 284.247 28.1963 283.069 26.4793L282.14 25.1923C282.14 25.1313 282.078 25.1313 282.078 25.0693C282.14 25.0693 282.14 25.1303 282.202 25.1303C283.875 26.1113 285.61 27.0923 287.282 28.0733C289.202 29.2383 291.185 30.3413 293.106 31.5063C293.416 31.6903 293.787 31.8743 294.097 32.0583C294.159 32.0583 294.159 32.1193 294.159 32.1813V41.8053Z" fill="#8A92B2"/>
    <path d="M282.143 22.8012C282.762 22.4942 283.381 22.2492 284.001 21.9432L286.417 20.8432C287.037 20.5362 287.656 20.2912 288.275 19.9852C289.142 19.5562 290.072 19.1852 290.939 18.7592C291.559 18.5142 292.178 18.2072 292.798 17.9592C293.243 17.78 293.677 17.5753 294.098 17.3462C294.16 17.3462 294.16 17.2852 294.222 17.2852V29.7902C294.161 29.8512 294.161 29.7902 294.098 29.7902C293.925 29.7018 293.759 29.5991 293.603 29.4832L282.267 22.8632C282.235 22.8278 282.19 22.8057 282.143 22.8012Z" fill="#62688F"/>
    <path d="M306.117 25.0693C306.117 25.1303 306.117 25.1303 306.055 25.1923C302.462 30.2193 298.868 35.1843 295.272 40.2113C294.9 40.7633 294.528 41.2533 294.16 41.8053V32.0583C294.969 31.5683 295.771 31.0773 296.576 30.6483L306.054 25.1313C306.054 25.1233 306.055 25.1153 306.058 25.1078C306.062 25.1004 306.066 25.0936 306.072 25.0879C306.078 25.0822 306.084 25.0777 306.092 25.0747C306.099 25.0717 306.108 25.0702 306.116 25.0703L306.117 25.0693Z" fill="#62688F"/>
    <path d="M294.16 17.3445V3.06055L306.054 22.5555C306.116 22.6165 306.178 22.6785 306.178 22.7395C305.931 22.6165 305.683 22.4945 305.37 22.3715C305.057 22.2485 304.75 22.0645 304.44 21.9425C304.238 21.8503 304.031 21.7685 303.821 21.6975C303.511 21.5745 303.14 21.3905 302.829 21.2685C302.644 21.2075 302.458 21.0845 302.272 21.0235L300.971 20.4715C300.724 20.3485 300.538 20.2875 300.29 20.1645C299.98 20.0415 299.671 19.8575 299.36 19.7355C299.174 19.6745 298.988 19.5515 298.803 19.4905L297.502 18.9385C297.254 18.8155 297.068 18.7545 296.821 18.6315C296.511 18.5085 296.201 18.3245 295.891 18.2025C295.705 18.0795 295.458 18.0185 295.272 17.8955L294.16 17.3435V17.3445Z" fill="#62688F"/>
    <path d="M344.848 41.866C355.694 41.866 364.486 33.1656 364.486 22.433C364.486 11.7005 355.694 3 344.848 3C334.003 3 325.211 11.7005 325.211 22.433C325.211 33.1656 334.003 41.866 344.848 41.866Z" fill="#00A478"/>
    <path d="M342.619 20.5944V15.6294H335.99V11.2764H354.513V15.6904H347.884V20.5904L342.619 20.5944Z" fill="white"/>
    <path d="M345.097 18.6316C352.035 18.6316 355.629 20.5316 356.062 21.1446C355.629 21.7576 352.098 22.6776 345.097 22.6776C338.159 22.6776 334.565 21.7576 334.132 21.1446C334.565 20.4716 338.159 18.6316 345.097 18.6316ZM345.097 18.1416C338.468 18.1416 333.141 19.4906 333.141 21.1416C333.141 22.7926 338.468 24.1416 345.097 24.1416C351.726 24.1416 357.054 22.7926 357.054 21.1416C357.054 19.4906 351.725 18.1416 345.097 18.1416Z" fill="white"/>
    <path d="M347.884 22.1273V18.6943C347.016 18.6323 346.087 18.5713 345.157 18.5713C344.29 18.5713 343.488 18.5713 342.68 18.6323V22.0653C343.423 22.0653 344.29 22.1263 345.157 22.1263C346.066 22.1877 346.978 22.1877 347.886 22.1263L347.884 22.1273Z" fill="white"/>
    <path d="M345.095 24.1503C344.228 24.1503 343.423 24.1503 342.617 24.0893V33.2273H347.821V24.0273C346.953 24.0883 346.025 24.1503 345.095 24.1503Z" fill="white"/>
    <path fill-rule="evenodd" clip-rule="evenodd" d="M582.317 12.5889C579.974 12.7023 577.651 13.0749 575.391 13.6999L574.83 17.9599C576.703 17.295 578.652 16.8585 580.632 16.6599C582.878 16.6599 584.188 17.0299 583.814 19.0679C577.076 19.0679 572.584 20.3679 571.648 24.8099C570.335 32.2189 578.574 32.4039 581.754 29.0699L581.38 31.1069H587.369L589.99 19.0679C590.926 14.0709 586.439 12.4039 582.317 12.5889ZM582.69 24.9979C582.317 26.4799 581.006 27.0349 579.508 27.2209C578.195 27.2209 577.075 26.4799 577.824 24.9979C578.573 23.8869 580.257 23.8869 581.563 23.8869H583.06C582.873 23.7019 582.686 24.4429 582.686 24.9979H582.69Z" fill="white"/>
    <path fill-rule="evenodd" clip-rule="evenodd" d="M574.83 17.9614C576.703 17.2966 578.652 16.86 580.632 16.6614C582.878 16.6614 584.188 17.0314 583.814 19.0694C577.076 19.0694 572.584 20.3694 571.648 24.8114C570.335 32.2204 578.574 32.4054 581.754 29.0714L581.38 31.1084H587.369L589.991 19.0754C591.113 14.0754 586.434 12.7754 582.317 12.7754M582.69 24.9994C582.317 26.4814 581.006 27.0364 579.508 27.2224C578.195 27.2224 577.075 26.4814 577.824 24.9994C578.573 23.8884 580.257 23.8884 581.563 23.8884H583.06C582.878 23.7034 582.69 24.4444 582.69 24.9994Z" fill="white"/>
    <path fill-rule="evenodd" clip-rule="evenodd" d="M595.045 7.0332L590.178 31.1112H596.167L601.22 7.0332H595.045Z" fill="white"/>
    <path fill-rule="evenodd" clip-rule="evenodd" d="M599.35 7.0332L590.178 31.1112H596.167L601.22 7.0332H599.35Z" fill="white"/>
    <path fill-rule="evenodd" clip-rule="evenodd" d="M567.157 7.0332H556.115L551.248 31.1112H557.799L559.484 23.7022H564.163C566.316 23.8032 568.434 23.1264 570.121 21.7977C571.808 20.469 572.95 18.5789 573.334 16.4792C574.27 11.1082 570.339 7.0332 567.157 7.0332ZM566.97 15.3682C566.745 16.1756 566.257 16.8864 565.58 17.3892C564.903 17.892 564.077 18.1582 563.231 18.1462H560.232L561.545 12.5902H564.727C565.084 12.5495 565.446 12.5992 565.778 12.7346C566.111 12.87 566.403 13.0867 566.627 13.3643C566.852 13.642 567.001 13.9715 567.062 14.322C567.123 14.6725 567.092 15.0325 566.974 15.3682H566.97Z" fill="white"/>
    <path fill-rule="evenodd" clip-rule="evenodd" d="M567.157 7.0332H559.67L551.061 31.1112H557.612L559.296 23.7022H563.975C566.129 23.8032 568.246 23.1264 569.934 21.7977C571.621 20.469 572.763 18.5789 573.147 16.4792C574.269 11.1082 570.338 7.0332 567.157 7.0332ZM566.97 15.3682C566.746 16.1756 566.257 16.8864 565.58 17.3892C564.904 17.892 564.077 18.1582 563.231 18.1462H560.232L561.546 12.5902H564.728C565.085 12.5495 565.446 12.5992 565.779 12.7346C566.111 12.87 566.403 13.0867 566.628 13.3643C566.852 13.642 567.002 13.9715 567.062 14.322C567.123 14.6725 567.093 15.0325 566.974 15.3682H566.97Z" fill="white"/>
    <path fill-rule="evenodd" clip-rule="evenodd" d="M523.922 12.589C521.639 12.684 519.375 13.0571 517.184 13.7L516.622 17.96C518.489 17.2731 520.441 16.8359 522.425 16.66C524.671 16.66 525.981 17.03 525.607 19.068C519.055 19.068 514.564 20.368 513.628 24.81C512.314 32.219 520.366 32.404 523.547 29.07L523.173 31.107H529.163L531.783 19.068C532.719 14.068 528.044 12.4 523.922 12.585V12.589ZM524.484 24.998C524.11 26.48 522.799 27.035 521.302 27.221C519.988 27.221 518.869 26.48 519.804 24.998C520.553 23.883 522.238 23.883 523.364 23.883H524.862C524.675 23.698 524.488 24.439 524.488 24.994L524.484 24.998Z" fill="white"/>
    <path fill-rule="evenodd" clip-rule="evenodd" d="M516.81 17.9614C518.677 17.2745 520.628 16.8373 522.612 16.6614C524.858 16.6614 526.168 17.0314 525.794 19.0694C519.243 19.0694 514.751 20.3694 513.815 24.8114C512.502 32.2204 520.554 32.4054 523.735 29.0714L523.173 31.1084H529.162L531.783 19.0754C532.905 14.0754 528.227 12.7754 524.109 12.7754M524.483 24.9994C524.109 26.4814 522.798 27.0364 521.3 27.2224C519.987 27.2224 518.867 26.4814 519.803 24.9994C520.552 23.8884 522.236 23.8884 523.359 23.8884H524.856C524.671 23.7034 524.483 24.4444 524.483 24.9994Z" fill="white"/>
    <path fill-rule="evenodd" clip-rule="evenodd" d="M534.215 12.5889H540.205L541.14 22.9609L547.13 12.5889H553.306L539.082 38.5189H532.344L536.649 30.7399L534.215 12.5889Z" fill="white"/>
    <path fill-rule="evenodd" clip-rule="evenodd" d="M540.205 12.9589L541.14 23.1459L547.13 12.5889H553.306L539.082 38.5189H532.344L536.649 30.9249" fill="white"/>
    <path fill-rule="evenodd" clip-rule="evenodd" d="M509.136 7.0332H497.906L493.039 31.1112H499.59L501.275 23.7022H505.954C508.107 23.8032 510.225 23.1264 511.912 21.7977C513.599 20.469 514.741 18.5789 515.125 16.4792C516.248 11.1082 512.317 7.0332 509.136 7.0332ZM508.949 15.3682C508.724 16.1756 508.236 16.8864 507.559 17.3892C506.882 17.892 506.056 18.1582 505.21 18.1462H502.211L503.524 12.5902H506.706C507.063 12.5505 507.424 12.6009 507.755 12.7367C508.087 12.8725 508.378 13.0892 508.602 13.3667C508.826 13.6442 508.975 13.9734 509.036 14.3234C509.096 14.6734 509.067 15.0329 508.949 15.3682Z" fill="white"/>
    <path fill-rule="evenodd" clip-rule="evenodd" d="M509.136 7.0332H504.083L493.039 31.1112H499.59L501.275 23.7022H505.954C508.107 23.8032 510.225 23.1264 511.912 21.7977C513.599 20.469 514.741 18.5789 515.125 16.4792C516.248 11.1082 512.317 7.0332 509.136 7.0332ZM508.949 15.3682C508.724 16.1756 508.236 16.8864 507.559 17.3892C506.882 17.892 506.056 18.1582 505.21 18.1462H502.211L503.524 12.5902H506.706C507.063 12.5505 507.424 12.6009 507.755 12.7367C508.087 12.8725 508.378 13.0892 508.602 13.3667C508.826 13.6442 508.975 13.9734 509.036 14.3234C509.096 14.6734 509.067 15.0329 508.949 15.3682Z" fill="white"/>
    <path fill-rule="evenodd" clip-rule="evenodd" d="M522.798 19.0723C517.745 19.4423 514.375 20.9243 513.626 24.6283C512.312 32.0373 520.364 32.2223 523.545 28.8883L523.171 31.1113H529.161L530.097 26.6663L522.798 19.0723ZM524.482 24.9993C524.108 26.4813 522.798 27.0363 521.3 27.2223C519.986 27.2223 518.867 26.4813 519.802 24.9993C520.551 23.8883 522.236 23.8883 523.358 23.8883H524.856C524.669 23.7033 524.482 24.4443 524.482 24.9993Z" fill="white"/>
    <path fill-rule="evenodd" clip-rule="evenodd" d="M541.515 22.7759L541.141 23.3319L545.072 27.0319L553.306 12.5889H547.13L541.515 22.7759Z" fill="white"/>
    <path fill-rule="evenodd" clip-rule="evenodd" d="M499.591 31.1111L501.275 23.7021L493.602 31.1111H499.591Z" fill="white"/>
    <path fill-rule="evenodd" clip-rule="evenodd" d="M557.612 31.111L559.297 23.332V23.517L551.623 31.111H557.612Z" fill="white"/>
    <path fill-rule="evenodd" clip-rule="evenodd" d="M581.008 19.0723C575.955 19.4423 572.585 20.9243 571.836 24.6283C570.522 32.0373 578.761 32.2223 581.941 28.8883L581.379 31.1113H587.369L588.305 26.6663L581.008 19.0723ZM582.692 24.9993C582.318 26.4813 581.008 27.0363 579.51 27.2223C578.196 27.2223 577.077 26.4813 577.825 24.9993C578.574 23.8883 580.259 23.8883 581.564 23.8883H583.062C582.88 23.7023 582.692 24.4433 582.692 24.9993Z" fill="white"/>
    <path fill-rule="evenodd" clip-rule="evenodd" d="M594.483 20.1836L590.178 31.1116H596.167L597.852 23.7026L594.483 20.1836Z" fill="white"/>
    <path d="M602.531 10.922V8.32899H601.596V7.95898H604.029V8.32899H603.093V10.922H602.531Z" fill="white"/>
    <path d="M604.402 10.9234V7.95944H604.964L605.713 9.99644C605.733 10.1367 605.798 10.2667 605.9 10.3664C605.9 10.1814 605.9 10.1814 606.087 9.81044L606.836 7.77344H607.398V10.7364H607.024V8.14444L606.088 10.7374H605.526L604.59 8.14444V10.7374H604.402V10.9234Z" fill="white"/>
    <path d="M455.036 9.92121L462.332 8.6212V36.6332H455.036V9.92121ZM466.708 9.92121V36.6332H474.004V8.6212L466.708 9.92121ZM444.821 36.6332H452.117V16.4182H444.821V36.6332ZM394.921 19.1622C393.899 19.1622 391.71 19.0182 391.71 16.9962C391.71 14.6862 394.921 14.6862 396.088 14.6862C398.367 14.777 400.624 15.1654 402.8 15.8412L404.988 16.5632H405.281V10.0632L404.988 9.9192C401.797 8.83226 398.441 8.29579 395.066 8.3332C386.603 8.6212 383.539 13.5332 383.539 17.7182C383.539 20.1732 384.561 25.8042 394.337 26.5262C395.212 26.5262 397.4 26.6702 397.4 28.6922C397.4 30.4252 395.358 31.2922 392.293 31.2922C388.937 31.2922 386.456 30.4262 383.539 29.7042V36.3462C386.932 37.1443 390.411 37.5322 393.899 37.5012C402.216 37.5012 406.009 32.8802 406.009 28.2602C406.009 23.0602 401.924 19.7412 394.92 19.1602L394.921 19.1622ZM440.299 15.9852C433.295 16.1292 430.231 19.3062 430.231 25.3702V36.6332H437.527V27.5332C437.527 23.9232 437.527 22.3332 441.905 22.1912V16.1332C441.904 15.8412 440.299 15.9852 440.299 15.9852ZM420.018 16.4182C418.835 18.9331 417.366 21.3067 415.64 23.4932V8.6212L408.344 10.2092V36.6332H415.64V28.8332C417.476 31.0857 418.684 33.775 419.142 36.6332H428.48C427.605 33.7452 423.52 26.2332 423.52 26.2332C427.168 21.7572 428.774 16.4142 428.918 16.4142L420.018 16.4182ZM448.469 14.2532C449.191 14.2532 449.896 14.0415 450.496 13.6448C451.096 13.2481 451.564 12.6843 451.84 12.0247C452.116 11.3651 452.188 10.6392 452.047 9.93893C451.907 9.23866 451.559 8.59542 451.049 8.09055C450.539 7.58568 449.889 7.24186 449.181 7.10257C448.473 6.96328 447.74 7.03477 447.073 7.308C446.407 7.58123 445.837 8.04393 445.436 8.6376C445.035 9.23126 444.821 9.92921 444.821 10.6432C444.817 11.1186 444.908 11.5901 445.089 12.0302C445.271 12.4703 445.54 12.8701 445.879 13.2063C446.219 13.5424 446.623 13.8082 447.068 13.9879C447.513 14.1677 447.989 14.2579 448.469 14.2532Z" fill="white"/>
    <path d="M457.954 9.3432L462.332 8.6212V36.6332H455.04L457.954 9.3432ZM469.336 9.4872L466.708 36.6332H474.004V8.6212L469.336 9.4872ZM444.822 36.6332H452.118V16.4182H449.053L444.822 36.6332ZM383.539 17.7182C383.539 20.1732 384.561 25.8042 394.191 26.5262C395.066 26.5262 398.569 26.6702 398.569 28.6922C398.569 30.4252 395.067 31.2922 392.149 31.2922C388.793 31.2922 386.312 30.4262 383.395 29.7042V36.3462C386.788 37.1443 390.267 37.5322 393.754 37.5012C402.071 37.5012 405.865 32.8802 405.865 28.2602C405.865 23.0602 401.779 19.7412 394.775 19.1602C393.753 19.1602 391.711 19.0162 391.711 16.9942C391.711 14.6842 394.922 14.6842 396.089 14.6842C398.366 14.7761 400.621 15.1651 402.796 15.8412L404.984 16.5632H405.276V10.0632L404.984 9.9192C401.794 8.83271 398.44 8.29625 395.066 8.3332M430.232 25.0822V36.6332H437.528V27.5332C437.528 23.9232 437.528 22.3332 441.906 22.1912V16.1332C441.906 15.9892 440.301 15.9892 440.301 15.9892M408.344 36.6332H415.64V28.8332C418.559 32.1542 421.915 36.6332 421.915 36.6332H428.335C427.46 33.7452 423.374 26.2332 423.374 26.2332C427.022 21.7572 428.629 16.4142 428.772 16.4142H424.395C421.16 18.3604 418.214 20.7414 415.64 23.4892V9.1992M448.471 14.2532C449.439 14.2532 450.367 13.8729 451.051 13.1959C451.735 12.5189 452.119 11.6006 452.119 10.6432C452.119 9.68577 451.735 8.76755 451.051 8.09055C450.367 7.41354 449.439 7.0332 448.471 7.0332" fill="white"/>
    <path d="M772.585 9.58956C771.476 9.5569 770.379 9.82748 769.415 10.3716C768.819 10.7511 768.303 11.2423 767.896 11.8176V10.0766H763.977V29.7566H767.896V22.6236C768.487 23.2931 769.222 23.8228 770.047 24.1736C770.872 24.5245 771.767 24.6874 772.664 24.6506C774.198 24.6863 775.702 24.2256 776.948 23.3386C778.051 22.5521 778.879 21.4442 779.315 20.1696C779.581 20.9272 779.978 21.6332 780.489 22.2556C781.114 23.0315 781.913 23.6525 782.824 24.0691C783.734 24.4857 784.73 24.6865 785.732 24.6556C786.692 24.6698 787.641 24.4575 788.501 24.0363C789.362 23.6151 790.108 22.9971 790.679 22.2336V24.1596H794.597V10.9176L799.279 23.8236L797.903 27.7236C798.581 27.5843 799.284 27.6243 799.942 27.8395C800.599 28.0548 801.188 28.4376 801.648 28.9496L808.823 10.0776H804.659L801.337 18.4456L798.456 10.0776H790.675V11.8606C790.205 11.2861 789.645 10.7892 789.017 10.3886C788.108 9.85504 787.066 9.58125 786.009 9.59756C784.724 9.58029 783.461 9.9213 782.363 10.5816C781.311 11.1948 780.451 12.0857 779.881 13.1546C779.672 13.5404 779.493 13.9416 779.346 14.3546C778.848 12.8734 777.856 11.6038 776.532 10.7546C775.366 9.97503 773.987 9.56712 772.58 9.58556L772.585 9.58956ZM771.804 12.8436C772.319 12.8324 772.83 12.9342 773.3 13.1416C773.77 13.3491 774.188 13.6572 774.523 14.0436C775.278 14.9427 775.663 16.0895 775.603 17.2566C775.626 18.2063 775.353 19.1401 774.821 19.9306C774.482 20.441 774.015 20.8558 773.466 21.1344C772.917 21.4129 772.304 21.5456 771.688 21.5196C771.179 21.5359 770.673 21.4442 770.204 21.2504C769.734 21.0567 769.312 20.7655 768.966 20.3966C768.215 19.539 767.832 18.4261 767.896 17.2936C767.862 16.3054 768.128 15.3299 768.661 14.4936C768.995 13.972 769.461 13.5456 770.013 13.2566C770.564 12.9676 771.182 12.8259 771.806 12.8456L771.804 12.8436ZM786.83 12.8686C787.407 12.8462 787.98 12.9618 788.503 13.2055C789.025 13.4492 789.48 13.8138 789.83 14.2686C790.448 15.0842 790.769 16.0833 790.739 17.1026C790.755 18.1746 790.398 19.2194 789.729 20.0626C789.393 20.5206 788.951 20.8924 788.441 21.1466C787.93 21.4008 787.365 21.5301 786.793 21.5236C786.322 21.5305 785.854 21.4408 785.419 21.2599C784.984 21.079 784.592 20.8109 784.267 20.4726C783.848 20.0426 783.523 19.5328 783.31 18.9742C783.098 18.4155 783.002 17.8199 783.03 17.2236C783.007 16.1711 783.325 15.1391 783.94 14.2796C784.264 13.8241 784.698 13.4562 785.202 13.2094C785.707 12.9626 786.266 12.8447 786.829 12.8666L786.83 12.8686ZM798.336 29.1346C797.701 29.1399 797.084 29.3434 796.573 29.7162C796.062 30.0889 795.683 30.6119 795.489 31.2105C795.296 31.8091 795.299 32.4528 795.497 33.0498C795.695 33.6468 796.079 34.1667 796.593 34.5353C797.108 34.9038 797.726 35.1023 798.361 35.1025C798.996 35.1026 799.615 34.9043 800.13 34.5359C800.644 34.1675 801.028 33.6478 801.226 33.0509C801.425 32.4539 801.428 31.8102 801.235 31.2116C801.037 30.6059 800.649 30.0782 800.128 29.7048C799.607 29.3314 798.98 29.1317 798.336 29.1346ZM772.722 32.4566C772.215 32.4588 771.721 32.6196 771.312 32.9159C770.903 33.2122 770.598 33.6289 770.443 34.1065C770.287 34.5841 770.288 35.0981 770.445 35.5753C770.602 36.0524 770.907 36.4682 771.318 36.7633C771.728 37.0584 772.222 37.2177 772.729 37.2185C773.236 37.2193 773.73 37.0615 774.141 36.7677C774.552 36.4738 774.859 36.059 775.018 35.5823C775.176 35.1057 775.179 34.5916 775.025 34.1136C774.87 33.6299 774.563 33.208 774.149 32.9098C773.734 32.6116 773.234 32.4527 772.722 32.4566ZM790.22 33.5836C789.342 33.5898 788.489 33.8701 787.781 34.3845C787.074 34.899 786.549 35.6213 786.281 36.4484C786.013 37.2756 786.015 38.1654 786.288 38.9911C786.561 39.8167 787.09 40.536 787.801 41.0464C788.511 41.5568 789.366 41.8322 790.244 41.8335C791.122 41.8347 791.978 41.5616 792.689 41.0532C793.401 40.5448 793.933 39.827 794.208 39.0022C794.483 38.1773 794.488 37.2875 794.223 36.4596C793.952 35.621 793.417 34.8899 792.697 34.3727C791.977 33.8554 791.11 33.579 790.22 33.5836ZM780.183 35.2996C779.551 35.3022 778.936 35.5025 778.426 35.8716C777.916 36.2408 777.537 36.76 777.342 37.3552C777.148 37.9503 777.149 38.5911 777.344 39.1858C777.54 39.7806 777.92 40.299 778.431 40.6671C778.942 41.0352 779.558 41.2342 780.19 41.2355C780.822 41.2369 781.438 41.0406 781.951 40.6748C782.463 40.3089 782.846 39.7921 783.044 39.1982C783.242 38.6043 783.246 37.9636 783.054 37.3676C782.859 36.7659 782.475 36.2413 781.959 35.8695C781.442 35.4976 780.82 35.2977 780.181 35.2986L780.183 35.2996Z" fill="white"/>
    <path d="M831.36 9.65673H827.438V6.69273H831.36V9.65673ZM821.838 4.34473V11.6377C821.259 10.9929 820.554 10.4716 819.764 10.1057C818.932 9.76092 818.039 9.58413 817.137 9.58573C815.331 9.57886 813.594 10.2728 812.3 11.5187C811.527 12.2558 810.924 13.1481 810.53 14.1355C810.136 15.123 809.961 16.1825 810.016 17.2427C809.93 19.1195 810.557 20.9601 811.773 22.4027C812.43 23.1436 813.245 23.7298 814.161 24.1182C815.076 24.5067 816.067 24.6876 817.062 24.6477C818.135 24.6696 819.196 24.4189 820.143 23.9197C820.821 23.5139 821.4 22.9661 821.841 22.3147V24.1577H825.763V4.34473H821.838ZM820.906 20.0987C820.579 20.5511 820.145 20.9175 819.642 21.1662C819.14 21.4149 818.583 21.5383 818.021 21.5257C817.52 21.5319 817.024 21.4346 816.563 21.24C816.103 21.0454 815.688 20.7579 815.346 20.3957C814.948 19.9776 814.638 19.4842 814.437 18.945C814.235 18.4058 814.146 17.8319 814.174 17.2577C814.155 16.2956 814.421 15.3491 814.941 14.5357C815.26 14.0052 815.717 13.5684 816.263 13.2705C816.81 12.9726 817.427 12.8242 818.05 12.8407C818.57 12.8297 819.085 12.9366 819.556 13.1531C820.028 13.3696 820.443 13.69 820.77 14.0897C821.502 14.9708 821.881 16.0871 821.836 17.2267C821.861 18.26 821.533 19.2714 820.904 20.0967M831.358 24.1557H827.436V10.0767H831.358V24.1557ZM871.001 13.2557V20.0067C870.983 20.1372 870.997 20.27 871.041 20.3942C871.085 20.5184 871.159 20.6303 871.256 20.7207C871.516 20.8668 871.814 20.9339 872.113 20.9137H874.74V24.1557H869.661C869.295 24.1852 868.926 24.1411 868.577 24.0262C868.229 23.9112 867.907 23.7277 867.632 23.4867C867.201 22.9038 867.003 22.1835 867.076 21.4647V5.01673H870.998V10.0027H874.737V13.2587L871.001 13.2557ZM866.704 10.0737H862.181L858.2 15.4737V5.06473H854.278V14.7147C854 13.8053 853.542 12.9598 852.93 12.2277C852.205 11.358 851.287 10.6663 850.246 10.2072C849.206 9.74809 848.072 9.53399 846.934 9.58173C845.549 9.55879 844.181 9.89785 842.97 10.5647C842.431 10.8673 841.939 11.2433 841.506 11.6817V10.0307H837.039C836.262 10.0906 835.503 10.2984 834.805 10.6427C834.216 10.9497 833.696 11.3707 833.275 11.8807C832.772 12.5278 832.521 13.3325 832.568 14.1477V24.1347H836.493V14.6207C836.559 14.3921 836.679 14.1823 836.843 14.0087C837.026 13.837 837.237 13.6962 837.466 13.5917C837.792 13.4502 838.146 13.3838 838.502 13.3977H840.283C839.705 14.5465 839.409 15.8143 839.42 17.0977C839.344 19.0015 840.035 20.8572 841.34 22.2577C842.084 23.0432 842.989 23.6628 843.995 24.0754C845 24.488 846.082 24.6841 847.17 24.6507C848.9 24.6625 850.582 24.0853 851.933 23.0157C852.841 22.2977 853.575 21.3882 854.082 20.3537L850.506 19.3727C850.265 19.8277 849.914 20.2161 849.484 20.5027C848.818 20.961 848.026 21.2054 847.215 21.2027C846.668 21.2188 846.124 21.1121 845.625 20.8906C845.125 20.6691 844.682 20.3385 844.33 19.9237C843.875 19.3855 843.583 18.731 843.488 18.0357H854.273V24.1617H858.195V18.3137L862.161 24.1577H866.699L861.849 16.8267L866.704 10.0737ZM843.478 15.8137C843.587 15.1616 843.861 14.5473 844.275 14.0287C844.607 13.644 845.023 13.3386 845.491 13.1353C845.96 12.932 846.469 12.8361 846.98 12.8547C847.51 12.8331 848.038 12.9271 848.527 13.13C849.016 13.3329 849.453 13.6397 849.809 14.0287C850.246 14.5346 850.527 15.1543 850.618 15.8137H843.478Z" fill="white"/>
    <path d="M675.457 17.6358C675.573 17.3639 675.769 17.1335 676.021 16.9755C676.273 16.8175 676.568 16.7395 676.865 16.7518H684.108C684.161 16.6629 684.219 16.5771 684.282 16.4948C685.83 14.4319 687.778 12.6954 690.012 11.3868H676.665C674.948 11.3101 673.252 11.7936 671.839 12.763C670.426 13.7324 669.374 15.1342 668.844 16.7528L662.506 33.9898H669.444L672.705 25.1288H678.842L680.586 20.3848H674.468L675.46 17.6348L675.457 17.6358Z" fill="white"/>
    <path d="M638.817 20.1606C638.817 20.1606 638.466 20.0536 638.048 19.9406L636.91 19.6186C636.542 19.5226 636.223 19.2931 636.017 18.9756C635.924 18.8255 635.864 18.6578 635.841 18.4833C635.818 18.3088 635.832 18.1315 635.882 17.9626C635.94 17.7723 636.036 17.5954 636.164 17.4425C636.293 17.2897 636.451 17.1639 636.63 17.0726C637.082 16.8459 637.585 16.7352 638.092 16.7506H646.479C646.532 16.6617 646.59 16.5759 646.653 16.4936C648.088 14.4438 649.931 12.7056 652.069 11.3856H638.965C636.963 11.2211 634.949 11.5317 633.093 12.2916C631.3 13.1916 629.712 14.9986 628.489 18.6116C628.251 19.2635 628.109 19.9458 628.066 20.6376C628.037 21.1576 628.143 21.6763 628.376 22.1436C628.688 22.7107 629.125 23.2016 629.654 23.5806C630.239 24.0149 630.897 24.3433 631.598 24.5506L632.465 24.7976L633.787 25.1836C634.001 25.2438 634.207 25.3301 634.399 25.4406C634.579 25.5289 634.73 25.6649 634.836 25.8333C634.943 26.0018 634.999 26.1961 635.001 26.3946C635.004 26.577 634.975 26.7585 634.914 26.9306C634.853 27.1568 634.739 27.3654 634.581 27.5393C634.423 27.7132 634.225 27.8473 634.004 27.9306C633.267 28.1486 632.498 28.2392 631.729 28.1986H618.261L616.127 33.9896H630.551C632.674 34.0756 634.793 33.7355 636.78 32.9896C638.233 32.3725 639.509 31.4078 640.492 30.1821C641.476 28.9565 642.136 27.5083 642.414 25.9676C642.611 25.3598 642.682 24.7189 642.623 24.0832C642.565 23.4476 642.377 22.8301 642.072 22.2676C641.296 21.1821 640.132 20.429 638.816 20.1606H638.817Z" fill="white"/>
    <path d="M664.932 13.5035C663.794 11.8905 661.845 11.0645 659.119 11.0645C657.348 11.0709 655.6 11.4664 654.001 12.2225C651.534 13.4342 649.426 15.256 647.88 17.5115C646.704 19.1739 645.756 20.9842 645.063 22.8945C643.654 26.7055 643.677 29.7945 645.118 31.8355C645.926 32.9875 647.62 34.3605 651.066 34.3655H651.082C657.354 34.3655 662.04 30.2915 665.003 22.2655C665.788 20.1425 666.822 16.1765 664.932 13.5015V13.5035ZM658.22 22.5835C656.27 27.8905 654.846 29.2195 652.706 29.2195C650.62 29.2195 649.889 27.9195 651.839 22.6375C653.291 18.6975 655.18 16.1785 657.461 16.1785C659.628 16.1785 660.126 17.4275 658.219 22.5845L658.22 22.5835Z" fill="white"/>
    <path d="M724.521 12.6024C725.353 13.8242 725.691 15.3106 725.469 16.7674H729.678L723.34 34.0054H729.672L736.015 16.7664H744.151L746.128 11.4004H723.367C723.81 11.7425 724.199 12.1476 724.521 12.6024Z" fill="white"/>
    <path d="M723.053 13.6213C722.013 12.1313 719.89 11.4023 716.569 11.4023H708.877L700.562 34.0023H707.626L710.649 26.0473C710.8 26.3743 712.583 34.0023 712.583 34.0023H720.009C719.381 31.3369 718.598 28.7096 717.664 26.1333C717.42 25.5178 717.126 24.9226 716.787 24.3533C718.21 23.9001 719.518 23.149 720.622 22.1509C721.725 21.1529 722.599 19.9313 723.183 18.5693C723.958 16.5053 723.915 14.8383 723.053 13.6163V13.6213ZM716.905 18.6063C716.651 19.4999 716.092 20.2793 715.325 20.8126C714.557 21.346 713.626 21.6005 712.691 21.5333H711.478L713.532 16.0663H714.696C716.83 16.0663 717.621 16.6883 716.901 18.6123L716.905 18.6063Z" fill="white"/>
    <path d="M702.794 13.5035C701.656 11.8905 699.707 11.0645 696.981 11.0645C695.209 11.0697 693.461 11.4653 691.863 12.2225C689.397 13.4356 687.289 15.2572 685.742 17.5115C684.566 19.1736 683.619 20.9836 682.926 22.8935C681.523 26.7045 681.539 29.7935 682.98 31.8345C683.789 32.9865 685.488 34.3595 688.933 34.3645H688.944C695.223 34.3645 699.908 30.2905 702.865 22.2645C703.657 20.1415 704.684 16.1755 702.801 13.5005L702.794 13.5035ZM696.077 22.5835C694.126 27.8905 692.703 29.2195 690.562 29.2195C688.477 29.2195 687.746 27.9195 689.695 22.6375C691.152 18.6975 693.037 16.1785 695.318 16.1785C697.484 16.1785 697.983 17.4275 696.076 22.5845L696.077 22.5835Z" fill="white"/>
    <path d="M137.025 57.5774V53.8569C137.025 52.4337 136.158 51.5018 134.67 51.5018C133.926 51.5018 133.117 51.7474 132.561 52.5566C132.127 51.8775 131.506 51.5018 130.574 51.5018C129.953 51.5018 129.331 51.6897 128.84 52.3687V51.6246H127.54V57.5774H128.84V54.2904C128.84 53.2356 129.396 52.7372 130.263 52.7372C131.13 52.7372 131.564 53.2934 131.564 54.2904V57.5774H132.864V54.2904C132.864 53.2356 133.485 52.7372 134.287 52.7372C135.154 52.7372 135.588 53.2934 135.588 54.2904V57.5774H137.025ZM156.314 51.6246H154.204V49.8258H152.904V51.6246H151.727V52.8022H152.904V55.5329C152.904 56.8983 153.46 57.7002 154.949 57.7002C155.505 57.7002 156.126 57.5124 156.56 57.2668L156.184 56.147C155.808 56.3926 155.375 56.4576 155.064 56.4576C154.443 56.4576 154.197 56.082 154.197 55.4679V52.8022H156.307V51.6246H156.314ZM167.353 51.4946C166.608 51.4946 166.11 51.8703 165.799 52.3615V51.6174H164.499V57.5702H165.799V54.2181C165.799 53.2284 166.233 52.6649 167.042 52.6649C167.288 52.6649 167.598 52.7299 167.851 52.7877L168.227 51.5452C167.967 51.4946 167.598 51.4946 167.353 51.4946ZM150.672 52.1159C150.051 51.6824 149.184 51.4946 148.252 51.4946C146.763 51.4946 145.774 52.2387 145.774 53.4162C145.774 54.406 146.518 54.9695 147.818 55.1501L148.44 55.2151C149.119 55.3379 149.494 55.5257 149.494 55.8364C149.494 56.2698 148.996 56.5805 148.129 56.5805C147.262 56.5805 146.576 56.2698 146.142 55.9592L145.521 56.9489C146.2 57.4474 147.132 57.693 148.064 57.693C149.798 57.693 150.795 56.8839 150.795 55.7713C150.795 54.7166 149.986 54.1603 148.75 53.9725L148.129 53.9075C147.573 53.8425 147.139 53.7197 147.139 53.3512C147.139 52.9178 147.573 52.6721 148.259 52.6721C149.003 52.6721 149.747 52.9828 150.123 53.1706L150.672 52.1159ZM185.269 51.4946C184.525 51.4946 184.026 51.8703 183.715 52.3615V51.6174H182.415V57.5702H183.715V54.2181C183.715 53.2284 184.149 52.6649 184.958 52.6649C185.204 52.6649 185.514 52.7299 185.767 52.7877L186.143 51.5596C185.89 51.4946 185.522 51.4946 185.269 51.4946ZM168.653 54.601C168.653 56.3999 169.896 57.7002 171.817 57.7002C172.684 57.7002 173.305 57.5124 173.927 57.0211L173.305 55.9664C172.807 56.3421 172.316 56.5227 171.752 56.5227C170.697 56.5227 169.953 55.7786 169.953 54.601C169.953 53.4813 170.697 52.7372 171.752 52.6794C172.308 52.6794 172.807 52.8672 173.305 53.2356L173.927 52.1809C173.305 51.6824 172.684 51.5018 171.817 51.5018C169.896 51.4946 168.653 52.8022 168.653 54.601ZM180.681 54.601V51.6246H179.381V52.3687C178.947 51.8125 178.326 51.5018 177.517 51.5018C175.841 51.5018 174.541 52.8022 174.541 54.601C174.541 56.3999 175.841 57.7002 177.517 57.7002C178.384 57.7002 179.005 57.3896 179.381 56.8333V57.5774H180.681V54.601ZM175.906 54.601C175.906 53.5463 176.585 52.6794 177.705 52.6794C178.76 52.6794 179.504 53.4885 179.504 54.601C179.504 55.6558 178.76 56.5227 177.705 56.5227C176.592 56.4576 175.906 55.6485 175.906 54.601ZM160.345 51.4946C158.611 51.4946 157.369 52.7372 157.369 54.5938C157.369 56.4576 158.611 57.693 160.41 57.693C161.277 57.693 162.144 57.4474 162.83 56.8839L162.209 55.952C161.71 56.3276 161.089 56.5732 160.475 56.5732C159.666 56.5732 158.864 56.1976 158.676 55.1501H163.076C163.076 54.9622 163.076 54.8394 163.076 54.6516C163.134 52.7372 162.014 51.4946 160.345 51.4946ZM160.345 52.6144C161.154 52.6144 161.71 53.1128 161.833 54.0375H158.734C158.857 53.2356 159.413 52.6144 160.345 52.6144ZM192.652 54.601V49.2695H191.351V52.3687C190.918 51.8125 190.297 51.5018 189.488 51.5018C187.812 51.5018 186.511 52.8022 186.511 54.601C186.511 56.3999 187.812 57.7002 189.488 57.7002C190.355 57.7002 190.976 57.3896 191.351 56.8333V57.5774H192.652V54.601ZM187.877 54.601C187.877 53.5463 188.556 52.6794 189.675 52.6794C190.73 52.6794 191.474 53.4885 191.474 54.601C191.474 55.6558 190.73 56.5227 189.675 56.5227C188.556 56.4576 187.877 55.6485 187.877 54.601ZM144.343 54.601V51.6246H143.043V52.3687C142.61 51.8125 141.988 51.5018 141.179 51.5018C139.503 51.5018 138.203 52.8022 138.203 54.601C138.203 56.3999 139.503 57.7002 141.179 57.7002C142.046 57.7002 142.667 57.3896 143.043 56.8333V57.5774H144.343V54.601ZM139.51 54.601C139.51 53.5463 140.189 52.6794 141.309 52.6794C142.364 52.6794 143.108 53.4885 143.108 54.601C143.108 55.6558 142.364 56.5227 141.309 56.5227C140.189 56.4576 139.51 55.6485 139.51 54.601Z" fill="white"/>
    <path d="M169.83 4.77539H150.296V39.8707H169.83V4.77539Z" fill="#FF5A00"/>
    <path d="M151.597 22.3229C151.597 15.1926 154.949 8.86414 160.092 4.77522C156.307 1.79884 151.532 0 146.323 0C133.984 0 124 9.9839 124 22.3229C124 34.6619 133.984 44.6458 146.323 44.6458C151.532 44.6458 156.307 42.847 160.092 39.8706C154.941 35.8394 151.597 29.4532 151.597 22.3229Z" fill="#EB001B"/>
    <path d="M196.185 22.3229C196.185 34.6619 186.201 44.6458 173.862 44.6458C168.653 44.6458 163.878 42.847 160.092 39.8706C165.301 35.7744 168.588 29.4532 168.588 22.3229C168.588 15.1926 165.236 8.86414 160.092 4.77522C163.871 1.79884 168.646 0 173.854 0C186.201 0 196.185 10.0489 196.185 22.3229Z" fill="#F79E1B"/>
    <mask id="mask0_4687_333" style="mask-type:luminance" maskUnits="userSpaceOnUse" x="0" y="10" width="91" height="30">
        <path d="M47.063 20.0085C47.0111 24.1019 50.711 26.3863 53.4982 27.7444C56.362 29.138 57.3238 30.0316 57.3129 31.2776C57.291 33.185 55.0285 34.0266 52.9107 34.0594C49.2163 34.1168 47.0685 33.062 45.3606 32.2641L44.0299 38.4916C45.7432 39.2813 48.9157 39.9699 52.2057 40C59.928 40 64.9805 36.1881 65.0078 30.2775C65.0379 22.7766 54.6322 22.3613 54.7033 19.0084C54.7279 17.9919 55.6979 16.9071 57.8239 16.6311C58.8759 16.4917 61.7807 16.3851 65.0734 17.9017L66.3659 11.8764C64.5952 11.2315 62.319 10.614 59.4853 10.614C52.2167 10.614 47.104 14.4778 47.063 20.0085ZM78.7854 11.1331C77.3754 11.1331 76.1867 11.9556 75.6566 13.2181L64.6253 39.5573H72.342L73.8777 35.3136H83.3078L84.1986 39.5573H91L85.0649 11.1331H78.7854ZM79.8648 18.8117L82.0918 29.4851H75.9927L79.8648 18.8117ZM37.7067 11.1331L31.624 39.5573H38.9773L45.0573 11.1331H37.7067ZM26.8284 11.1331L19.1744 30.4797L16.0784 14.0297C15.715 12.1934 14.2804 11.1331 12.6873 11.1331H0.1749L0 11.9584C2.56861 12.5158 5.48699 13.4148 7.25497 14.3767C8.33706 14.9642 8.64584 15.4779 9.00107 16.8743L14.8652 39.5573H22.6366L34.5506 11.1331H26.8284Z" fill="white"/>
    </mask>
    <g mask="url(#mask0_4687_333)">
        <path d="M-9.5293 14.1235L80.1326 -18.8969L100.53 36.4914L10.8693 69.5117" fill="white"/>
    </g>
</svg>
