<svg id="Group_1524" data-name="Group 1524" xmlns="http://www.w3.org/2000/svg" width="114.72" height="20.779" viewBox="0 0 114.72 20.779">
  <path id="Path_145" data-name="Path 145" d="M22.991,18.286a1.291,1.291,0,0,1,1.243-.789h6.391a2.393,2.393,0,0,1,.153-.229,17.226,17.226,0,0,1,5.057-4.555H24.057a6.927,6.927,0,0,0-6.9,4.785L11.562,32.87h6.123l2.878-7.9h5.416l1.539-4.23h-5.4l.875-2.452Z" transform="translate(29.364 -12.427)" fill="#f80"/>
  <path id="Path_146" data-name="Path 146" d="M23.023,20.538s-.311-.1-.679-.2l-1-.287a1.343,1.343,0,0,1-.789-.574,1.123,1.123,0,0,1-.12-.9,1.324,1.324,0,0,1,.66-.793,2.677,2.677,0,0,1,1.291-.287h7.4a2.389,2.389,0,0,1,.153-.229,16.333,16.333,0,0,1,4.78-4.555H23.157a11.142,11.142,0,0,0-5.182.808c-1.582.8-2.983,2.414-4.063,5.636a6.469,6.469,0,0,0-.373,1.807,2.7,2.7,0,0,0,.272,1.343,3.875,3.875,0,0,0,1.128,1.281,5.47,5.47,0,0,0,1.716.865l.765.22,1.166.344a2.366,2.366,0,0,1,.54.229.956.956,0,0,1,.531.851,1.362,1.362,0,0,1-.076.478,1.314,1.314,0,0,1-.8.894,5.909,5.909,0,0,1-2.008.239H4.883L3,32.87H15.729a13.894,13.894,0,0,0,5.5-.894A8.425,8.425,0,0,0,26.2,25.715a4.241,4.241,0,0,0-.3-3.3,4.675,4.675,0,0,0-2.873-1.879Z" transform="translate(-3 -12.427)" fill="#f80"/>
  <path id="Path_147" data-name="Path 147" d="M26.6,14.828c-1-1.439-2.725-2.175-5.129-2.175a10.564,10.564,0,0,0-4.517,1.032,14.1,14.1,0,0,0-5.4,4.718,20.361,20.361,0,0,0-2.486,4.8c-1.243,3.4-1.224,6.157.048,7.973.717,1.028,2.208,2.251,5.248,2.256h.014c5.535,0,9.67-3.633,12.285-10.788.693-1.893,1.606-5.43-.062-7.815Zm-5.927,8.1c-1.721,4.732-2.978,5.918-4.866,5.918-1.84,0-2.486-1.162-.765-5.87,1.281-3.513,2.949-5.76,4.962-5.76,1.912,0,2.352,1.114.669,5.712Z" transform="translate(16.466 -12.653)" fill="#f80"/>
  <path id="Path_148" data-name="Path 148" d="M23.835,13.787a5.244,5.244,0,0,1,.836,3.714h3.714L22.793,32.873h5.588l5.6-15.372h7.18L42.9,12.716H22.817A5.021,5.021,0,0,1,23.835,13.787Z" transform="translate(71.817 -12.415)" fill="#f80"/>
  <path id="Path_149" data-name="Path 149" d="M38.435,14.695c-.918-1.329-2.792-1.979-5.722-1.979H25.925L18.588,32.868h6.233l2.667-7.094c.134.292,1.706,7.094,1.706,7.094h6.553a63.521,63.521,0,0,0-2.07-7.017,11.051,11.051,0,0,0-.774-1.587,9.19,9.19,0,0,0,5.645-5.158c.684-1.84.645-3.327-.115-4.417ZM33.009,19.14a3.593,3.593,0,0,1-3.719,2.61H28.224l1.812-4.876h1.028c1.883,0,2.581.554,1.945,2.271Z" transform="translate(55.922 -12.415)" fill="#f80"/>
  <path id="Path_150" data-name="Path 150" d="M33.59,14.828c-1-1.439-2.725-2.175-5.129-2.175a10.532,10.532,0,0,0-4.517,1.032,14.137,14.137,0,0,0-5.4,4.718,20.361,20.361,0,0,0-2.486,4.8c-1.238,3.4-1.224,6.157.048,7.973.717,1.028,2.213,2.251,5.253,2.256h.01c5.54,0,9.675-3.633,12.285-10.788.7-1.893,1.606-5.43-.057-7.815Zm-5.927,8.1c-1.721,4.732-2.978,5.918-4.866,5.918-1.84,0-2.486-1.162-.765-5.87,1.286-3.513,2.949-5.76,4.962-5.76,1.912,0,2.352,1.114.669,5.712Z" transform="translate(42.889 -12.653)" fill="#f80"/>
</svg>
