<svg id="Group_1523" data-name="Group 1523" xmlns="http://www.w3.org/2000/svg" width="99.434" height="27.666" viewBox="0 0 99.434 27.666">
  <path id="Path_152" data-name="Path 152" d="M53.223,27a27.321,27.321,0,0,0-6.021.976l-.488,3.743a21.316,21.316,0,0,1,5.045-1.139c1.953,0,3.092.325,2.767,2.116-5.859,0-9.764,1.139-10.578,5.045-1.139,6.51,6.021,6.672,8.788,3.743l-.325,1.79h5.208L59.9,32.7c.814-4.394-3.092-5.859-6.672-5.7Zm.325,10.9c-.325,1.3-1.465,1.79-2.767,1.953-1.139,0-2.116-.651-1.465-1.953.651-.976,2.116-.976,3.255-.976h1.3C53.711,36.769,53.549,37.42,53.549,37.908Z" transform="translate(24.403 -22.123)" fill="#0955c8" fill-rule="evenodd"/>
  <path id="Path_153" data-name="Path 153" d="M46.713,31.657a21.317,21.317,0,0,1,5.045-1.139c1.953,0,3.092.325,2.767,2.116-5.859,0-9.764,1.139-10.578,5.045-1.139,6.51,6.021,6.672,8.788,3.743l-.325,1.79h5.208L59.9,32.633c.976-4.394-3.092-5.533-6.672-5.533m.325,10.741c-.325,1.3-1.465,1.79-2.767,1.953-1.139,0-2.116-.651-1.465-1.953.651-.976,2.116-.976,3.255-.976h1.3C53.711,36.7,53.549,37.353,53.549,37.841Z" transform="translate(24.403 -22.055)" fill="#0955c8" fill-rule="evenodd"/>
  <path id="Path_154" data-name="Path 154" d="M58.031,24,53.8,45.156h5.208L63.4,24Z" transform="translate(30.661 -24)" fill="#0955c8" fill-rule="evenodd"/>
  <path id="Path_155" data-name="Path 155" d="M61.774,24,53.8,45.156h5.208L63.4,24H61.774Z" transform="translate(30.661 -24)" fill="#0955c8" fill-rule="evenodd"/>
  <path id="Path_156" data-name="Path 156" d="M46.833,24h-9.6L33,45.156h5.7l1.465-6.51h4.068A7.735,7.735,0,0,0,52.2,32.3c.814-4.719-2.6-8.3-5.37-8.3Zm-.163,7.323a3.322,3.322,0,0,1-3.255,2.441h-2.6l1.139-4.882h2.767a1.842,1.842,0,0,1,1.953,2.441Z" transform="translate(17.612 -24)" fill="#0955c8" fill-rule="evenodd"/>
  <path id="Path_157" data-name="Path 157" d="M46.9,24h-6.51L32.9,45.156h5.7l1.465-6.51h4.068A7.735,7.735,0,0,0,52.1,32.3C53.08,27.58,49.662,24,46.9,24Zm-.163,7.323a3.322,3.322,0,0,1-3.255,2.441h-2.6l1.139-4.882H44.78a1.842,1.842,0,0,1,1.953,2.441Z" transform="translate(17.549 -24)" fill="#0955c8" fill-rule="evenodd"/>
  <path id="Path_158" data-name="Path 158" d="M21.9,27a24.188,24.188,0,0,0-5.859.976l-.488,3.743A19.462,19.462,0,0,1,20.6,30.585c1.953,0,3.092.325,2.767,2.116-5.7,0-9.6,1.139-10.415,5.045-1.139,6.51,5.859,6.672,8.625,3.743l-.325,1.79h5.208L28.734,32.7c.814-4.394-3.255-5.859-6.835-5.7Zm.488,10.9c-.325,1.3-1.465,1.79-2.767,1.953-1.139,0-2.116-.651-1.3-1.953.651-.976,2.116-.976,3.092-.976h1.3c-.163-.163-.325.488-.325.976Z" transform="translate(4.953 -22.123)" fill="#0955c8" fill-rule="evenodd"/>
  <path id="Path_159" data-name="Path 159" d="M15.652,31.657A19.462,19.462,0,0,1,20.7,30.518c1.953,0,3.092.325,2.767,2.116-5.7,0-9.6,1.139-10.415,5.045-1.139,6.51,5.859,6.672,8.625,3.743l-.488,1.79h5.208l2.278-10.578C29.647,28.239,25.579,27.1,22,27.1m.325,10.741c-.325,1.3-1.465,1.79-2.767,1.953-1.139,0-2.116-.651-1.3-1.953.651-.976,2.116-.976,3.092-.976h1.3C22.487,36.7,22.324,37.353,22.324,37.841Z" transform="translate(5.016 -22.055)" fill="#0955c8" fill-rule="evenodd"/>
  <path id="Path_160" data-name="Path 160" d="M24.527,27h5.208l.814,9.113L35.756,27h5.37L28.759,49.783H22.9l3.743-6.835Z" transform="translate(11.275 -22.118)" fill="#0955c8" fill-rule="evenodd"/>
  <path id="Path_161" data-name="Path 161" d="M29.735,27.325l.814,8.951L35.756,27h5.37L28.759,49.783H22.9l3.743-6.672" transform="translate(11.275 -22.118)" fill="#0955c8" fill-rule="evenodd"/>
  <path id="Path_162" data-name="Path 162" d="M15.9,24H6.131L1.9,45.156H7.6l1.465-6.51h4.068A7.735,7.735,0,0,0,21.1,32.3C22.08,27.58,18.662,24,15.9,24Zm-.163,7.323a3.322,3.322,0,0,1-3.255,2.441h-2.6l1.139-4.882H13.78A1.842,1.842,0,0,1,15.733,31.323Z" transform="translate(-1.9 -24)" fill="#0955c8" fill-rule="evenodd"/>
  <g id="Group_336" data-name="Group 336" transform="translate(0 0)">
    <path id="Path_163" data-name="Path 163" d="M15.9,24H11.5L1.9,45.156H7.6l1.465-6.51h4.068A7.735,7.735,0,0,0,21.1,32.3C22.08,27.58,18.662,24,15.9,24Zm-.163,7.323a3.322,3.322,0,0,1-3.255,2.441h-2.6l1.139-4.882H13.78A1.842,1.842,0,0,1,15.733,31.323Z" transform="translate(-1.9 -24)" fill="#0955c8" fill-rule="evenodd"/>
  </g>
  <g id="Group_337" data-name="Group 337" transform="translate(17.777 10.578)">
    <path id="Path_164" data-name="Path 164" d="M20.922,30.5c-4.394.325-7.323,1.627-7.974,4.882-1.139,6.51,5.859,6.672,8.625,3.743l-.325,1.953h5.208l.814-3.906Zm1.465,5.208c-.325,1.3-1.465,1.79-2.767,1.953-1.139,0-2.116-.651-1.3-1.953.651-.976,2.116-.976,3.092-.976h1.3c-.163-.163-.325.488-.325.976Z" transform="translate(-12.824 -30.5)" fill="#0955c8" fill-rule="evenodd"/>
  </g>
  <g id="Group_338" data-name="Group 338" transform="translate(41.824 4.882)">
    <path id="Path_165" data-name="Path 165" d="M27.925,35.951l-.325.488,3.418,3.255L38.178,27h-5.37Z" transform="translate(-27.6 -27)" fill="#0955c8" fill-rule="evenodd"/>
  </g>
  <g id="Group_339" data-name="Group 339" transform="translate(0.488 14.647)">
    <path id="Path_166" data-name="Path 166" d="M7.408,39.51,8.872,33,2.2,39.51Z" transform="translate(-2.2 -33)" fill="#0955c8" fill-rule="evenodd"/>
  </g>
  <g id="Group_340" data-name="Group 340" transform="translate(50.937 14.321)">
    <path id="Path_167" data-name="Path 167" d="M38.408,39.635,39.872,32.8v.163L33.2,39.635Z" transform="translate(-33.2 -32.8)" fill="#0955c8" fill-rule="evenodd"/>
  </g>
  <g id="Group_341" data-name="Group 341" transform="translate(68.391 10.578)">
    <path id="Path_168" data-name="Path 168" d="M52.021,30.5c-4.394.325-7.323,1.627-7.974,4.882-1.139,6.51,6.021,6.672,8.788,3.743l-.488,1.953h5.208l.814-3.906Zm1.465,5.208c-.325,1.3-1.465,1.79-2.767,1.953-1.139,0-2.116-.651-1.465-1.953.651-.976,2.116-.976,3.255-.976h1.3C53.649,34.568,53.486,35.219,53.486,35.708Z" transform="translate(-43.925 -30.5)" fill="#0955c8" fill-rule="evenodd"/>
  </g>
  <g id="Group_342" data-name="Group 342" transform="translate(84.461 11.554)">
    <path id="Path_169" data-name="Path 169" d="M57.543,31.1,53.8,40.7h5.208l1.465-6.51Z" transform="translate(-53.8 -31.1)" fill="#0955c8" fill-rule="evenodd"/>
  </g>
  <g id="Group_343" data-name="Group 343" transform="translate(94.388 0.651)">
    <path id="Path_170" data-name="Path 170" d="M60.714,27.1V24.825H59.9V24.5h2.116v.325H61.2V27.1Z" transform="translate(-59.9 -24.337)" fill="#0955c8"/>
    <path id="Path_171" data-name="Path 171" d="M61.4,27.167v-2.6h.488l.651,1.79a.568.568,0,0,0,.163.325c0-.163,0-.163.163-.488l.651-1.79H64V27h-.325V24.725L62.865,27h-.488l-.814-2.278V27H61.4Z" transform="translate(-58.959 -24.4)" fill="#0955c8"/>
  </g>
</svg>
