<svg xmlns="http://www.w3.org/2000/svg" width="37.231" height="26.593" viewBox="0 0 37.231 26.593">
  <g id="Group_1589" data-name="Group 1589" transform="translate(-6410.871 -16382.281)">
    <path id="Path_5" data-name="Path 5" d="M35.242,6H29.923a3.989,3.989,0,0,0-3.989,3.989H3.33A1.33,1.33,0,0,0,2,11.319V27.275A1.33,1.33,0,0,0,3.33,28.6h7.978v1.33H9.978a1.33,1.33,0,0,0,0,2.659H20.615a1.33,1.33,0,0,0,0-2.659h-1.33V28.6h6.648v2.659a1.33,1.33,0,0,0,1.33,1.33H37.9a1.33,1.33,0,0,0,1.33-1.33V9.989A3.989,3.989,0,0,0,35.242,6ZM16.626,29.934H13.967V28.6h2.659ZM4.659,25.945v-13.3H25.934v13.3Zm31.912,3.989H28.593V9.989a1.33,1.33,0,0,1,1.33-1.33h5.319a1.33,1.33,0,0,1,1.33,1.33Z" transform="translate(6408.871 16376.281)" fill="#d87008"/>
    <path id="Path_6" data-name="Path 6" d="M31.266,22.31h0a1.33,1.33,0,1,0,1.33,1.33A1.33,1.33,0,0,0,31.266,22.31ZM19.684,13.388l-5.319,5.319a1.335,1.335,0,1,0,1.888,1.888l5.319-5.319a1.335,1.335,0,0,0-1.888-1.888Zm-6.09,0a1.33,1.33,0,0,0-1.888,0L6.388,18.706a1.335,1.335,0,1,0,1.888,1.888l5.319-5.319a1.33,1.33,0,0,0,0-1.888Z" transform="translate(6410.188 16378.587)" fill="#d87008"/>
  </g>
</svg>
