<svg width="13" height="13" viewBox="0 0 13 13" fill="none" xmlns="http://www.w3.org/2000/svg">
<path d="M12.6953 3.20893L9.79058 0.304697C9.69401 0.208097 9.57935 0.131469 9.45316 0.079189C9.32697 0.0269086 9.19172 0 9.05513 0C8.91854 0 8.78329 0.0269086 8.6571 0.079189C8.53091 0.131469 8.41626 0.208097 8.31969 0.304697L0.304843 8.31994C0.207854 8.41617 0.130958 8.53071 0.0786257 8.65692C0.0262933 8.78312 -0.000431219 8.91848 5.26152e-06 9.0551V11.96C5.26152e-06 12.2358 0.109572 12.5003 0.304603 12.6954C0.499633 12.8904 0.764151 13 1.03997 13H11.9595C12.0975 13 12.2297 12.9452 12.3272 12.8477C12.4247 12.7502 12.4795 12.6179 12.4795 12.48C12.4795 12.3421 12.4247 12.2098 12.3272 12.1123C12.2297 12.0148 12.0975 11.96 11.9595 11.96H5.4156L12.6953 4.6799C12.7919 4.58332 12.8685 4.46866 12.9208 4.34247C12.9731 4.21627 13 4.08101 13 3.94441C13 3.80782 12.9731 3.67256 12.9208 3.54636C12.8685 3.42017 12.7919 3.30551 12.6953 3.20893ZM3.9447 11.96H1.03997V9.0551L6.75975 3.33503L9.66448 6.23992L3.9447 11.96ZM10.3996 5.50476L7.49552 2.59987L9.05546 1.03986L11.9595 3.94474L10.3996 5.50476Z" fill="white"/>
</svg>
