<svg width="35" height="14" viewBox="0 0 35 14" fill="none" xmlns="http://www.w3.org/2000/svg">
    <path d="M0.411 13V1.1H5.562C6.62733 1.1 7.54533 1.27567 8.316 1.627C9.08667 1.967 9.68167 2.46 10.101 3.106C10.5203 3.752 10.73 4.52267 10.73 5.418C10.73 6.302 10.5203 7.067 10.101 7.713C9.68167 8.359 9.08667 8.85767 8.316 9.209C7.54533 9.549 6.62733 9.719 5.562 9.719H1.941L3.165 8.478V13H0.411ZM3.165 8.784L1.941 7.475H5.409C6.259 7.475 6.89367 7.29367 7.313 6.931C7.73233 6.56833 7.942 6.064 7.942 5.418C7.942 4.76067 7.73233 4.25067 7.313 3.888C6.89367 3.52533 6.259 3.344 5.409 3.344H1.941L3.165 2.035V8.784ZM16.7722 13.204C15.8202 13.204 14.9078 13.0793 14.0352 12.83C13.1625 12.5693 12.4598 12.235 11.9272 11.827L12.8622 9.753C13.3722 10.1157 13.9728 10.416 14.6642 10.654C15.3668 10.8807 16.0752 10.994 16.7892 10.994C17.3332 10.994 17.7695 10.943 18.0982 10.841C18.4382 10.7277 18.6875 10.5747 18.8462 10.382C19.0048 10.1893 19.0842 9.96833 19.0842 9.719C19.0842 9.40167 18.9595 9.15233 18.7102 8.971C18.4608 8.77833 18.1322 8.62533 17.7242 8.512C17.3162 8.38733 16.8628 8.274 16.3642 8.172C15.8768 8.05867 15.3838 7.92267 14.8852 7.764C14.3978 7.60533 13.9502 7.40133 13.5422 7.152C13.1342 6.90267 12.7998 6.574 12.5392 6.166C12.2898 5.758 12.1652 5.23667 12.1652 4.602C12.1652 3.922 12.3465 3.30433 12.7092 2.749C13.0832 2.18233 13.6385 1.73467 14.3752 1.406C15.1232 1.066 16.0582 0.896 17.1802 0.896C17.9282 0.896 18.6648 0.986666 19.3902 1.168C20.1155 1.338 20.7558 1.59867 21.3112 1.95L20.4612 4.041C19.9058 3.72367 19.3505 3.49133 18.7952 3.344C18.2398 3.18533 17.6958 3.106 17.1632 3.106C16.6305 3.106 16.1942 3.16833 15.8542 3.293C15.5142 3.41767 15.2705 3.582 15.1232 3.786C14.9758 3.97867 14.9022 4.20533 14.9022 4.466C14.9022 4.772 15.0268 5.02133 15.2762 5.214C15.5255 5.39533 15.8542 5.54267 16.2622 5.656C16.6702 5.76933 17.1178 5.88267 17.6052 5.996C18.1038 6.10933 18.5968 6.23967 19.0842 6.387C19.5828 6.53433 20.0362 6.73267 20.4442 6.982C20.8522 7.23133 21.1808 7.56 21.4302 7.968C21.6908 8.376 21.8212 8.89167 21.8212 9.515C21.8212 10.1837 21.6342 10.7957 21.2602 11.351C20.8862 11.9063 20.3252 12.354 19.5772 12.694C18.8405 13.034 17.9055 13.204 16.7722 13.204ZM22.985 10.501V8.648L28.595 1.1H31.485L25.994 8.648L24.651 8.257H34.018V10.501H22.985ZM29.394 13V10.501L29.479 8.257V6.03H32.08V13H29.394Z" fill="white"/>
</svg>
