<svg xmlns="http://www.w3.org/2000/svg" width="34.057" height="26.218" viewBox="0 0 34.057 26.218">
  <g id="Group_1587" data-name="Group 1587" transform="translate(-5884.274 -16380.949)">
    <path id="Path_354" data-name="Path 354" d="M94.1,0V24.46l5.545,1.758V5.7c0-.948.427-1.6,1.12-1.379.907.251,1.083,1.137,1.083,2.094v8.193c3.456,1.668,6.172,0,6.172-4.4,0-4.511-1.586-6.511-6.267-8.108A67.641,67.641,0,0,0,94.1,0Z" transform="translate(5802.744 16380.949)" fill="#1349c3"/>
    <path id="Path_355" data-name="Path 355" d="M19.326,118.144l8.929-3.2c1.012-.362,1.169-.882.347-1.149a6.033,6.033,0,0,0-3.326.172l-5.95,2.1v-3.338l.342-.114a20.484,20.484,0,0,1,4.139-.887,17.682,17.682,0,0,1,7.7.921c2.618.835,2.913,2.056,2.248,2.9a6.244,6.244,0,0,1-2.3,1.431l-12.132,4.388Zm-16.787-.268c-2.672-.759-3.116-2.337-1.888-3.254a13.159,13.159,0,0,1,3.04-1.474l7.908-2.862v3.235l-5.665,2.061c-1.006.362-1.157.878-.345,1.15a5.951,5.951,0,0,0,3.3-.172l2.729-1v2.924l-.543.086a17.679,17.679,0,0,1-8.5-.692" transform="translate(5884.273 16285.395)" fill="#1349c3"/>
  </g>
</svg>
