<svg id="Component_6_1" data-name="Component 6 – 1" xmlns="http://www.w3.org/2000/svg" width="18.427" height="14.186" viewBox="0 0 18.427 14.186">
  <path id="Path_354" data-name="Path 354" d="M94.1,0V13.235l3,.951V3.084c0-.513.231-.867.606-.746.491.136.586.615.586,1.133V7.9c1.87.9,3.339,0,3.339-2.379,0-2.441-.858-3.523-3.391-4.387A36.594,36.594,0,0,0,94.1,0Z" transform="translate(-87.297)" fill="#fff"/>
  <path id="Path_355" data-name="Path 355" d="M10.457,114.538l4.831-1.729c.548-.2.633-.477.188-.622a3.265,3.265,0,0,0-1.8.093l-3.219,1.135v-1.806l.185-.062a11.086,11.086,0,0,1,2.24-.48,9.567,9.567,0,0,1,4.165.5c1.417.452,1.576,1.112,1.216,1.569a3.378,3.378,0,0,1-1.242.774l-6.564,2.374Zm-9.083-.145c-1.446-.41-1.686-1.265-1.022-1.76a7.12,7.12,0,0,1,1.645-.8l4.279-1.549v1.75l-3.065,1.115c-.544.2-.626.475-.186.622a3.219,3.219,0,0,0,1.788-.093l1.476-.542v1.582l-.294.046a9.565,9.565,0,0,1-4.6-.374" transform="translate(0 -102.314)" fill="#fff"/>
</svg>
