<svg width="22" height="22" viewBox="0 0 22 22" fill="none" xmlns="http://www.w3.org/2000/svg">
<path d="M9.9 14.3H12.1V16.5H9.9V14.3ZM9.9 5.50001H12.1V12.1H9.9V5.50001ZM10.989 1.18395e-05C8.81388 0.00218696 6.68822 0.649174 4.88073 1.85919C3.07324 3.06921 1.66505 4.78793 0.834176 6.79811C0.0032988 8.80828 -0.212969 11.0197 0.21271 13.1527C0.638388 15.2858 1.6869 17.2448 3.22572 18.7821C4.76453 20.3193 6.72456 21.3659 8.85805 21.7894C10.9915 22.213 13.2027 21.9945 15.2121 21.1616C17.2214 20.3287 18.9387 18.9188 20.1469 17.1101C21.3551 15.3014 22 13.1751 22 11C22.0007 9.55435 21.7162 8.12275 21.163 6.78715C20.6097 5.45154 19.7985 4.23816 18.7758 3.21644C17.753 2.19471 16.5389 1.38471 15.2027 0.8328C13.8665 0.280885 12.4347 -0.0021096 10.989 1.18395e-05ZM11 19.8C9.25953 19.8 7.55814 19.2839 6.11099 18.3169C4.66383 17.35 3.53592 15.9756 2.86986 14.3676C2.20381 12.7596 2.02954 10.9902 2.36909 9.28321C2.70864 7.57618 3.54676 6.00817 4.77746 4.77747C6.00817 3.54677 7.57618 2.70865 9.28321 2.3691C10.9902 2.02955 12.7596 2.20382 14.3676 2.86987C15.9756 3.53592 17.35 4.66384 18.3169 6.11099C19.2839 7.55814 19.8 9.25953 19.8 11C19.8 13.3339 18.8729 15.5722 17.2225 17.2225C15.5722 18.8729 13.3339 19.8 11 19.8Z" fill="#F70000"/>
</svg>
