<svg width="23" height="17" viewBox="0 0 23 17" fill="none" xmlns="http://www.w3.org/2000/svg">
<g clip-path="url(#clip0_1066_194)">
<path d="M14.6367 8.50054C15.4637 8.50054 16.2722 8.25129 16.9599 7.78432C17.6476 7.31735 18.1835 6.65363 18.5 5.87708C18.8165 5.10053 18.8993 4.24604 18.738 3.42167C18.5766 2.59729 18.1784 1.84005 17.5936 1.24571C17.0087 0.651368 16.2636 0.246616 15.4525 0.0826368C14.6413 -0.0813419 13.8005 0.00281785 13.0364 0.324474C12.2723 0.64613 11.6192 1.19083 11.1598 1.88971C10.7003 2.58858 10.455 3.41023 10.455 4.25076C10.4549 4.80888 10.563 5.36156 10.7731 5.87722C10.9832 6.39288 11.2912 6.86141 11.6795 7.25606C12.0679 7.65072 12.5289 7.96375 13.0363 8.17728C13.5437 8.39081 14.0875 8.50066 14.6367 8.50054ZM14.6367 2.12587C15.0502 2.12587 15.4544 2.25049 15.7983 2.48398C16.1421 2.71746 16.4101 3.04933 16.5684 3.4376C16.7266 3.82587 16.768 4.25312 16.6873 4.6653C16.6067 5.07749 16.4075 5.45611 16.1151 5.75328C15.8227 6.05045 15.4502 6.25283 15.0446 6.33482C14.639 6.41681 14.2186 6.37473 13.8366 6.2139C13.4545 6.05307 13.128 5.78072 12.8982 5.43128C12.6685 5.08185 12.5458 4.67102 12.5458 4.25076C12.5472 3.68755 12.7679 3.14779 13.1597 2.74946C13.5515 2.35113 14.0825 2.12749 14.6367 2.12587ZM14.6367 10.6263C11.8454 10.6263 6.27249 12.0499 6.27249 14.8761V17.001H23.0009V14.8752C23.0009 12.0491 17.4279 10.6263 14.6367 10.6263ZM8.36419 14.8761C8.5942 14.1107 11.823 12.7512 14.6367 12.7512C17.4504 12.7512 20.7008 14.1221 20.9092 14.8761H8.36419ZM5.22708 11.6879V8.50054H8.36332V6.37477H5.22708V3.18743H3.13625V6.37477H0V8.49966H3.13625V11.6879H5.22708Z" fill="white"/>
</g>
<defs>
<clipPath id="clip0_1066_194">
<rect width="23" height="17" fill="white"/>
</clipPath>
</defs>
</svg>
