<svg width="15" height="13" viewBox="0 0 15 13" fill="none" xmlns="http://www.w3.org/2000/svg">
<path d="M8.03643 6.75933V10.3997C8.03643 10.5376 7.97999 10.6699 7.87952 10.7675C7.77905 10.865 7.64279 10.9198 7.50071 10.9198C7.35863 10.9198 7.22237 10.865 7.12191 10.7675C7.02144 10.6699 6.965 10.5376 6.965 10.3997V6.75933C6.965 6.6214 7.02144 6.48912 7.12191 6.39159C7.22237 6.29406 7.35863 6.23927 7.50071 6.23927C7.64279 6.23927 7.77905 6.29406 7.87952 6.39159C7.97999 6.48912 8.03643 6.6214 8.03643 6.75933ZM14.9913 5.33633L14.0632 12.0977C14.0288 12.3476 13.9021 12.5768 13.7066 12.7428C13.5111 12.9088 13.2602 13.0002 13.0005 13H2.00096C1.74126 13.0002 1.49034 12.9088 1.29486 12.7428C1.09938 12.5768 0.972648 12.3476 0.938238 12.0977L0.00944685 5.33698C-0.0107931 5.18999 0.00157631 5.04051 0.0457255 4.89855C0.0898747 4.75659 0.164783 4.62543 0.265426 4.51388C0.36607 4.40232 0.490121 4.31295 0.629261 4.25175C0.768401 4.19055 0.919412 4.15895 1.07217 4.15905H3.50765L7.09893 0.176071C7.1492 0.120734 7.21103 0.0764144 7.2803 0.0460572C7.34958 0.0157 7.42471 0 7.50071 0C7.57672 0 7.65185 0.0157 7.72113 0.0460572C7.7904 0.0764144 7.85223 0.120734 7.9025 0.176071L11.4938 4.15905H13.9293C14.0818 4.15914 14.2326 4.19087 14.3716 4.25211C14.5105 4.31335 14.6343 4.40269 14.7348 4.51415C14.8353 4.62561 14.9101 4.75662 14.9542 4.89841C14.9983 5.0402 15.0108 5.1895 14.9906 5.33633H14.9913ZM4.9313 4.15905H10.0701L7.50071 1.30849L4.9313 4.15905ZM13.9293 5.19916H1.07217L2.00096 11.9599H13.0005L13.9293 5.19916ZM10.5034 6.70732L10.1284 10.3477C10.121 10.4159 10.1275 10.4848 10.1476 10.5505C10.1677 10.6162 10.201 10.6774 10.2456 10.7305C10.2902 10.7837 10.3451 10.8278 10.4073 10.8602C10.4694 10.8927 10.5376 10.913 10.6078 10.9198C10.6259 10.9207 10.644 10.9207 10.6621 10.9198C10.7948 10.9196 10.9227 10.8717 11.021 10.7852C11.1194 10.6987 11.1812 10.5799 11.1945 10.4517L11.5694 6.81133C11.5837 6.6741 11.5411 6.537 11.4512 6.43021C11.3613 6.32341 11.2314 6.25567 11.09 6.24187C10.9486 6.22808 10.8074 6.26937 10.6974 6.35666C10.5874 6.44395 10.5176 6.57009 10.5034 6.70732ZM4.49805 6.70732C4.48384 6.57009 4.41405 6.44395 4.30404 6.35666C4.19403 6.26937 4.05281 6.22808 3.91144 6.24187C3.77007 6.25567 3.64014 6.32341 3.55022 6.43021C3.4603 6.537 3.41777 6.6741 3.43198 6.81133L3.80698 10.4517C3.8203 10.5805 3.88257 10.6997 3.98163 10.7863C4.08069 10.8728 4.20942 10.9204 4.34269 10.9198C4.36076 10.9207 4.37886 10.9207 4.39693 10.9198C4.46693 10.9129 4.53486 10.8928 4.59684 10.8605C4.65882 10.8282 4.71363 10.7843 4.75815 10.7314C4.80268 10.6786 4.83603 10.6177 4.85632 10.5523C4.87661 10.4869 4.88343 10.4183 4.87639 10.3503L4.49805 6.70732Z" fill="white"/>
</svg>
