<svg width="20" height="20" viewBox="0 0 20 20" fill="none" xmlns="http://www.w3.org/2000/svg">
    <path d="M13.8414 3.0793C13.8414 2.87513 13.9225 2.67932 14.0669 2.53495C14.2113 2.39058 14.4071 2.30948 14.6112 2.30948H16.1509V0.769833C16.1509 0.565664 16.232 0.369856 16.3764 0.225487C16.5207 0.0811169 16.7165 1.09388e-05 16.9207 1.09388e-05C17.1249 1.09388e-05 17.3207 0.0811169 17.465 0.225487C17.6094 0.369856 17.6905 0.565664 17.6905 0.769833V2.30948H19.2302C19.4343 2.30948 19.6301 2.39058 19.7745 2.53495C19.9189 2.67932 20 2.87513 20 3.0793C20 3.28347 19.9189 3.47928 19.7745 3.62365C19.6301 3.76802 19.4343 3.84912 19.2302 3.84912H17.6905V5.38877C17.6905 5.59294 17.6094 5.78874 17.465 5.93311C17.3207 6.07748 17.1249 6.15859 16.9207 6.15859C16.7165 6.15859 16.5207 6.07748 16.3764 5.93311C16.232 5.78874 16.1509 5.59294 16.1509 5.38877V3.84912H14.6112C14.4071 3.84912 14.2113 3.76802 14.0669 3.62365C13.9225 3.47928 13.8414 3.28347 13.8414 3.0793ZM19.8614 8.34103C20.2131 10.4316 19.8913 12.5799 18.9425 14.4757C17.9936 16.3715 16.4668 17.9167 14.5826 18.8882C12.6983 19.8597 10.554 20.2072 8.45934 19.8806C6.36467 19.554 4.42799 18.5701 2.92894 17.0711C1.42989 15.572 0.446024 13.6353 0.119406 11.5407C-0.207212 9.44599 0.140315 7.30172 1.11181 5.41744C2.08331 3.53316 3.6285 2.00637 5.52429 1.05753C7.42008 0.108685 9.56836 -0.213119 11.659 0.138579C11.8588 0.173918 12.0366 0.286734 12.1537 0.452484C12.2708 0.618235 12.3177 0.823513 12.2842 1.02366C12.2507 1.22382 12.1395 1.40265 11.9749 1.52127C11.8102 1.63988 11.6054 1.68868 11.4049 1.65705C10.1907 1.45279 8.94646 1.51557 7.75893 1.84105C6.5714 2.16652 5.46905 2.74686 4.5286 3.54167C3.58816 4.33649 2.83221 5.32669 2.31336 6.44337C1.79451 7.56004 1.52523 8.77637 1.52426 10.0077C1.52243 12.0806 2.28431 14.0816 3.66436 15.6284C4.52294 14.3842 5.7302 13.4217 7.13434 12.8618C6.38009 12.2677 5.82971 11.4534 5.55973 10.532C5.28976 9.61067 5.31361 8.62807 5.62797 7.72089C5.94234 6.81371 6.53158 6.02703 7.31377 5.47026C8.09595 4.91349 9.0322 4.6143 9.9923 4.6143C10.9524 4.6143 11.8887 4.91349 12.6708 5.47026C13.453 6.02703 14.0423 6.81371 14.3566 7.72089C14.671 8.62807 14.6948 9.61067 14.4249 10.532C14.1549 11.4534 13.6045 12.2677 12.8503 12.8618C14.2544 13.4217 15.4617 14.3842 16.3202 15.6284C17.7003 14.0816 18.4622 12.0806 18.4603 10.0077C18.4604 9.53439 18.4211 9.06189 18.3429 8.59507C18.3252 8.49493 18.3275 8.39228 18.3497 8.29303C18.3719 8.19379 18.4136 8.09992 18.4722 8.01686C18.5309 7.9338 18.6055 7.86319 18.6916 7.8091C18.7777 7.75501 18.8737 7.71853 18.974 7.70175C19.0743 7.68497 19.1769 7.68822 19.2759 7.71133C19.375 7.73444 19.4685 7.77695 19.551 7.83639C19.6335 7.89583 19.7034 7.97103 19.7567 8.05765C19.81 8.14427 19.8456 8.24058 19.8614 8.34103ZM9.9923 12.3172C10.6013 12.3172 11.1967 12.1366 11.7031 11.7982C12.2094 11.4599 12.6041 10.9789 12.8372 10.4163C13.0703 9.8536 13.1312 9.23446 13.0124 8.63714C12.8936 8.03981 12.6003 7.49114 12.1697 7.06049C11.739 6.62984 11.1904 6.33657 10.593 6.21776C9.99572 6.09894 9.37658 6.15992 8.81391 6.39298C8.25124 6.62605 7.77032 7.02073 7.43197 7.52712C7.09361 8.0335 6.91301 8.62885 6.91301 9.23788C6.91301 10.0546 7.23744 10.8378 7.81492 11.4153C8.39239 11.9927 9.17562 12.3172 9.9923 12.3172ZM9.9923 18.4757C11.872 18.4776 13.6983 17.851 15.1809 16.6955C14.624 15.8246 13.8568 15.1078 12.95 14.6113C12.0433 14.1148 11.0261 13.8546 9.9923 13.8546C8.9585 13.8546 7.94134 14.1148 7.03457 14.6113C6.1278 15.1078 5.3606 15.8246 4.8037 16.6955C6.28628 17.851 8.11263 18.4776 9.9923 18.4757Z" fill="#201D56"/>
</svg>
