<svg xmlns="http://www.w3.org/2000/svg" width="73" height="13.732" viewBox="0 0 73 13.732">
  <path id="Path_472" data-name="Path 472" d="M63.6,17.931H61.858a.521.521,0,0,1-.521-.608V7.068H56.992a.521.521,0,0,1-.521-.521V4.982a.5.5,0,0,1,.521-.521H68.463a.5.5,0,0,1,.521.521V6.546a.561.561,0,0,1-.521.521H64.118V17.322a.5.5,0,0,1-.521.521Zm-11.471,0h-8a.521.521,0,0,1-.435-.608V15.758a.487.487,0,0,1,.435-.521h8.517a.871.871,0,0,0,.869-.869v-1.13a.935.935,0,0,0-.869-.869H47a4.349,4.349,0,0,1-3.129-.869A3.781,3.781,0,0,1,43,8.545V8.371A3.573,3.573,0,0,1,43.869,5.5,3.981,3.981,0,0,1,47,4.547h7.561a.461.461,0,0,1,.521.521V6.633a.5.5,0,0,1-.521.521h-8a.869.869,0,0,0-.869.869V9.066a.871.871,0,0,0,.869.869h5.562a4.2,4.2,0,0,1,3.215.956,3.782,3.782,0,0,1,.869,2.868v.348a3.913,3.913,0,0,1-.869,2.868A4.2,4.2,0,0,1,52.125,17.931Zm41.8-11.906a6.374,6.374,0,0,0-4.693-1.564H83.15a.461.461,0,0,0-.521.521V17.409a.411.411,0,0,0,.435.435h6.17a6.374,6.374,0,0,0,4.693-1.564c1.217-1.13,1.564-2.52,1.564-5.04v-.087C95.49,8.545,95.143,7.242,93.926,6.025Zm-1.217,5.214c0,1.738,0,2.52-.782,3.215a3.6,3.6,0,0,1-2.607.869H85.409V6.981h3.824a3.35,3.35,0,0,1,2.694.869c.7.608.869,1.477.869,3.215Zm6.779,6.692H97.75a.521.521,0,0,1-.521-.608V4.982a.5.5,0,0,1,.521-.521h1.738a.461.461,0,0,1,.521.521v12.34c0,.348-.174.521-.435.521Zm-18.076-.869L75.676,5.33a1.725,1.725,0,0,0-3.129-.087L66.812,17.062a.451.451,0,0,0,.435.7h1.912a.732.732,0,0,0,.608-.348l.869-1.912h6.952l.869,1.912a.732.732,0,0,0,.608.348h1.912a.475.475,0,0,0,.435-.7Zm-7.3-9.212,2.346,5.3H71.765l2.346-5.3ZM116,17.062,110.264,5.243a1.76,1.76,0,0,0-3.215,0l-5.736,11.819c-.174.348.087.7.521.7h1.825a.732.732,0,0,0,.608-.348l.869-1.912h6.952l.869,1.912a.9.9,0,0,0,.7.348h1.825a.475.475,0,0,0,.435-.7Zm-7.387-9.3,2.346,5.3h-4.693l2.346-5.3Z" transform="translate(-43 -4.199)" fill="#fff"/>
</svg>
