<svg width="39" height="39" viewBox="0 0 39 39" fill="none" xmlns="http://www.w3.org/2000/svg">
    <g clip-path="url(#clip0_4933_87)">
        <path d="M19.5 39C30.2696 39 39 30.2696 39 19.5C39 8.73045 30.2696 0 19.5 0C8.73045 0 0 8.73045 0 19.5C0 30.2696 8.73045 39 19.5 39Z" fill="white"/>
        <path d="M8.92294 19.0771L27.7242 11.828C28.5968 11.5127 29.3589 12.0409 29.0762 13.3604L29.0778 13.3587L25.8766 28.4404C25.6393 29.5096 25.0039 29.7696 24.1151 29.2659L19.2401 25.673L16.8887 27.9382C16.6287 28.1982 16.4093 28.4176 15.9056 28.4176L16.2517 23.4565L25.2867 15.2941C25.6799 14.948 25.1989 14.753 24.6806 15.0975L13.5152 22.1272L8.70194 20.6257C7.65706 20.2942 7.63431 19.5809 8.92294 19.0771Z" fill="#201D56"/>
    </g>
    <defs>
        <clipPath id="clip0_4933_87">
            <rect width="39" height="39" fill="white"/>
        </clipPath>
    </defs>
</svg>
