<svg width="19" height="19" viewBox="0 0 19 19" fill="none" xmlns="http://www.w3.org/2000/svg">
    <path d="M9.5 0C7.62108 0 5.78435 0.557165 4.22209 1.60104C2.65982 2.64491 1.44218 4.12861 0.723149 5.86451C0.0041162 7.6004 -0.184015 9.51054 0.182544 11.3534C0.549104 13.1962 1.45389 14.8889 2.78249 16.2175C4.11109 17.5461 5.80383 18.4509 7.64665 18.8175C9.48946 19.184 11.3996 18.9959 13.1355 18.2769C14.8714 17.5578 16.3551 16.3402 17.399 14.7779C18.4428 13.2156 19 11.3789 19 9.5C18.9973 6.98126 17.9956 4.56644 16.2146 2.78542C14.4336 1.0044 12.0187 0.00265983 9.5 0ZM4.57462 15.8486C5.10327 15.0218 5.83155 14.3414 6.69232 13.8701C7.55309 13.3987 8.51865 13.1517 9.5 13.1517C10.4814 13.1517 11.4469 13.3987 12.3077 13.8701C13.1685 14.3414 13.8967 15.0218 14.4254 15.8486C13.0171 16.9438 11.284 17.5384 9.5 17.5384C7.71599 17.5384 5.98287 16.9438 4.57462 15.8486ZM6.57693 8.76923C6.57693 8.1911 6.74836 7.62595 7.06955 7.14526C7.39075 6.66456 7.84727 6.2899 8.38139 6.06866C8.91551 5.84742 9.50325 5.78953 10.0703 5.90232C10.6373 6.01511 11.1581 6.2935 11.5669 6.7023C11.9757 7.1111 12.2541 7.63194 12.3669 8.19897C12.4797 8.76599 12.4218 9.35372 12.2006 9.88784C11.9793 10.422 11.6047 10.8785 11.124 11.1997C10.6433 11.5209 10.0781 11.6923 9.5 11.6923C8.72475 11.6923 7.98126 11.3843 7.43307 10.8362C6.88489 10.288 6.57693 9.54448 6.57693 8.76923ZM15.5069 14.8355C14.6919 13.6545 13.5459 12.7408 12.213 12.2093C12.929 11.6454 13.4514 10.8724 13.7077 9.99774C13.964 9.12311 13.9413 8.19036 13.6429 7.3292C13.3445 6.46804 12.7852 5.72127 12.0427 5.19274C11.3002 4.66422 10.4114 4.38021 9.5 4.38021C8.5886 4.38021 7.69985 4.66422 6.95735 5.19274C6.21484 5.72127 5.65549 6.46804 5.35708 7.3292C5.05866 8.19036 5.03602 9.12311 5.2923 9.99774C5.54858 10.8724 6.07104 11.6454 6.78702 12.2093C5.45412 12.7408 4.3081 13.6545 3.49308 14.8355C2.46321 13.6774 1.79009 12.2463 1.55476 10.7144C1.31942 9.18262 1.53192 7.61543 2.16666 6.20158C2.8014 4.78773 3.83131 3.58751 5.13238 2.74544C6.43345 1.90338 7.95021 1.45537 9.5 1.45537C11.0498 1.45537 12.5666 1.90338 13.8676 2.74544C15.1687 3.58751 16.1986 4.78773 16.8333 6.20158C17.4681 7.61543 17.6806 9.18262 17.4452 10.7144C17.2099 12.2463 16.5368 13.6774 15.5069 14.8355Z" fill="#201D56"/>
</svg>
