<svg width="19" height="19" viewBox="0 0 19 19" fill="none" xmlns="http://www.w3.org/2000/svg">
    <path d="M9.5 0C7.62108 0 5.78435 0.557165 4.22209 1.60104C2.65982 2.64491 1.44218 4.12861 0.723149 5.86451C0.0041162 7.6004 -0.184015 9.51054 0.182544 11.3534C0.549104 13.1962 1.45389 14.8889 2.78249 16.2175C4.11109 17.5461 5.80383 18.4509 7.64665 18.8175C9.48946 19.184 11.3996 18.9959 13.1355 18.2769C14.8714 17.5578 16.3551 16.3402 17.399 14.7779C18.4428 13.2156 19 11.3789 19 9.5C18.9973 6.98126 17.9956 4.56644 16.2146 2.78542C14.4336 1.0044 12.0187 0.00265983 9.5 0ZM9.5 17.5385C7.91015 17.5385 6.35599 17.067 5.03407 16.1837C3.71216 15.3005 2.68185 14.045 2.07343 12.5762C1.46502 11.1073 1.30583 9.49108 1.616 7.93177C1.92616 6.37246 2.69175 4.94015 3.81595 3.81595C4.94015 2.69175 6.37247 1.92616 7.93178 1.61599C9.49109 1.30583 11.1074 1.46502 12.5762 2.07343C14.045 2.68184 15.3005 3.71215 16.1837 5.03407C17.067 6.35599 17.5385 7.91014 17.5385 9.5C17.536 11.6312 16.6884 13.6744 15.1814 15.1814C13.6744 16.6884 11.6312 17.536 9.5 17.5385ZM9.5 4.38461C8.77745 4.38477 8.07117 4.59915 7.47044 5.00065C6.86971 5.40215 6.40151 5.97274 6.12503 6.6403C5.84854 7.30786 5.77618 8.0424 5.9171 8.75107C6.05802 9.45975 6.40589 10.1107 6.91673 10.6217L5.92471 13.1137C5.85851 13.2799 5.83401 13.4598 5.85334 13.6377C5.87268 13.8156 5.93526 13.986 6.03563 14.1341C6.136 14.2823 6.27111 14.4036 6.42916 14.4874C6.5872 14.5713 6.76338 14.6153 6.94231 14.6154H12.0577C12.2366 14.6153 12.4128 14.5713 12.5708 14.4874C12.7289 14.4036 12.864 14.2823 12.9644 14.1341C13.0647 13.986 13.1273 13.8156 13.1467 13.6377C13.166 13.4598 13.1415 13.2799 13.0753 13.1137L12.0833 10.6217C12.5941 10.1107 12.942 9.45975 13.0829 8.75107C13.2238 8.0424 13.1515 7.30786 12.875 6.6403C12.5985 5.97274 12.1303 5.40215 11.5296 5.00065C10.9288 4.59915 10.2226 4.38477 9.5 4.38461ZM10.5331 10.6784L11.5188 13.1538H7.48125L8.46688 10.6784C8.52706 10.5273 8.53513 10.3604 8.48979 10.2042C8.44446 10.048 8.34831 9.91144 8.21659 9.81606C7.8408 9.54471 7.56069 9.16123 7.41649 8.72071C7.27228 8.2802 7.27142 7.80531 7.41401 7.36427C7.5566 6.92323 7.83531 6.53873 8.2101 6.26601C8.58489 5.99329 9.03648 5.84637 9.5 5.84637C9.96352 5.84637 10.4151 5.99329 10.7899 6.26601C11.1647 6.53873 11.4434 6.92323 11.586 7.36427C11.7286 7.80531 11.7277 8.2802 11.5835 8.72071C11.4393 9.16123 11.1592 9.54471 10.7834 9.81606C10.6517 9.91144 10.5555 10.048 10.5102 10.2042C10.4649 10.3604 10.4729 10.5273 10.5331 10.6784Z" fill="#201D56"/>
</svg>
