<svg width="13" height="13" viewBox="0 0 13 13" fill="none" xmlns="http://www.w3.org/2000/svg">
<path d="M9.28578 8.14649L9.34828 8.14668C9.34875 7.98869 9.31788 7.83218 9.25745 7.6862C9.19702 7.54025 9.10825 7.40773 8.99626 7.29632C8.79965 7.09968 8.54094 6.97729 8.26422 6.94999C7.98745 6.92268 7.70978 6.99218 7.47852 7.14664C7.24725 7.3011 7.0767 7.53097 6.99592 7.79708C6.91514 8.06318 6.92913 8.34907 7.0355 8.60602C7.14188 8.86297 7.33406 9.07509 7.5793 9.20623C7.82455 9.33737 8.10767 9.37943 8.38045 9.32524C8.65322 9.27104 8.89877 9.12394 9.07525 8.90901C9.25172 8.69408 9.34822 8.42461 9.34828 8.14651L9.28578 8.14649ZM9.28578 8.14649C9.28623 7.99677 9.25697 7.84845 9.1997 7.71011C9.14243 7.57177 9.05828 7.44617 8.95213 7.34058C8.76573 7.15413 8.52045 7.03807 8.25808 7.01219C7.99571 6.9863 7.73247 7.05218 7.51323 7.19861C7.29399 7.34504 7.1323 7.56296 7.05572 7.81523C6.97914 8.0675 6.99241 8.33852 7.09325 8.58211C7.1941 8.8257 7.37629 9.02679 7.60878 9.15111C7.84127 9.27544 8.10968 9.31531 8.36827 9.26393C8.62686 9.21256 8.85964 9.07311 9.02694 8.86935C9.19424 8.66559 9.28572 8.41013 9.28578 8.14649ZM9.00266 4.4441L9.02096 4.42579V4.42382C9.06867 4.3671 9.0951 4.29513 9.09507 4.22044C9.09503 4.13669 9.06172 4.05639 9.00248 3.9972C8.94323 3.93801 8.8629 3.90478 8.77915 3.90482C8.69541 3.90485 8.6151 3.93816 8.55591 3.9974L3.99755 8.55559C3.93831 8.61483 3.90503 8.69517 3.90503 8.77894C3.90503 8.86272 3.93831 8.94306 3.99755 9.0023C4.05679 9.06154 4.13714 9.09482 4.22092 9.09482C4.30469 9.09482 4.38504 9.06154 4.44428 9.0023L9.00266 4.4441ZM8.71679 8.14648V8.14665C8.71698 8.22155 8.70231 8.29574 8.67363 8.36494C8.64496 8.43413 8.60284 8.49695 8.54973 8.54976L8.54961 8.54988C8.45624 8.64321 8.33341 8.70129 8.20202 8.7142C8.07064 8.72712 7.93885 8.69409 7.82909 8.62073C7.71934 8.54737 7.63842 8.43823 7.60012 8.31189C7.56182 8.18556 7.56851 8.04986 7.61905 7.92791C7.66959 7.80596 7.76086 7.7053 7.8773 7.6431C7.99374 7.58089 8.12814 7.56098 8.25762 7.58676C8.38709 7.61254 8.50362 7.68241 8.58735 7.78448C8.67107 7.88654 8.71682 8.01447 8.71679 8.14648ZM3.65186 4.85386C3.65182 5.17269 3.77845 5.47847 4.00388 5.70393C4.22931 5.92939 4.53507 6.05608 4.85391 6.05611C5.17274 6.05614 5.47853 5.92952 5.704 5.7041C5.92947 5.47868 6.05616 5.17292 6.05619 4.8541C6.05622 4.53527 5.9296 4.2295 5.70417 4.00403C5.47874 3.77857 5.17298 3.65189 4.85414 3.65186C4.53531 3.65182 4.22952 3.77845 4.00405 4.00387C3.77857 4.22929 3.65189 4.53504 3.65186 4.85386ZM4.35098 5.12328C4.3067 5.04058 4.28349 4.94822 4.28342 4.85441C4.28333 4.74153 4.31672 4.63115 4.37938 4.53726C4.44204 4.44336 4.53114 4.37016 4.63541 4.32691C4.73969 4.28366 4.85445 4.27231 4.96517 4.2943C5.0759 4.31629 5.17761 4.37063 5.25744 4.45043C5.3238 4.51676 5.37277 4.59843 5.40002 4.6882C5.42728 4.77797 5.43198 4.87308 5.4137 4.9651C5.39543 5.05712 5.35474 5.14321 5.29525 5.21576C5.23576 5.28831 5.1593 5.34506 5.07263 5.38101C4.98597 5.41695 4.89178 5.43097 4.79841 5.42183C4.70503 5.41268 4.61535 5.38065 4.53731 5.32858C4.45927 5.27651 4.39527 5.20599 4.35098 5.12328ZM8.73137 8.38887C8.76321 8.31204 8.7795 8.22966 8.77929 8.14649L8.63567 7.74483C8.54277 7.63159 8.41348 7.55407 8.26982 7.52546C8.12617 7.49686 7.97704 7.51895 7.84785 7.58797C7.71865 7.65699 7.61739 7.76867 7.56131 7.90398C7.50524 8.03929 7.49781 8.18986 7.54031 8.33003C7.5828 8.4702 7.67259 8.5913 7.79436 8.67269C7.91614 8.75408 8.06237 8.79074 8.20814 8.7764C8.35391 8.76207 8.4902 8.69764 8.59379 8.59408C8.65277 8.53545 8.69953 8.46569 8.73137 8.38887Z" fill="white" stroke="white" stroke-width="0.125"/>
<path d="M12.1794 5.03866C11.9606 4.81 11.7342 4.57437 11.6489 4.36719C11.57 4.17741 11.5654 3.86286 11.5607 3.55817C11.552 2.99174 11.5427 2.34987 11.0964 1.90357C10.6501 1.45728 10.0083 1.44799 9.44183 1.43929C9.13714 1.43464 8.82259 1.43 8.63281 1.35107C8.42562 1.26576 8.19 1.03942 7.96134 0.820625C7.56031 0.435848 7.10589 0 6.5 0C5.89411 0 5.43969 0.435848 5.03866 0.820625C4.81 1.03942 4.57437 1.26576 4.36719 1.35107C4.17857 1.43 3.86286 1.43464 3.55817 1.43929C2.99174 1.44799 2.34987 1.45728 1.90357 1.90357C1.45728 2.34987 1.45089 2.99174 1.43929 3.55817C1.43464 3.86286 1.43 4.17741 1.35107 4.36719C1.26576 4.57437 1.03942 4.81 0.820625 5.03866C0.435848 5.43911 0 5.89411 0 6.5C0 7.10589 0.435848 7.56031 0.820625 7.96134C1.03942 8.19 1.26576 8.42562 1.35107 8.63281C1.43 8.82259 1.43464 9.13714 1.43929 9.44183C1.44799 10.0083 1.45728 10.6501 1.90357 11.0964C2.34987 11.5427 2.99174 11.552 3.55817 11.5607C3.86286 11.5654 4.17741 11.57 4.36719 11.6489C4.57379 11.7342 4.81 11.9606 5.03866 12.1794C5.43969 12.5642 5.89411 13 6.5 13C7.10589 13 7.56031 12.5642 7.96134 12.1794C8.19 11.9606 8.42562 11.7342 8.63281 11.6489C8.82259 11.57 9.13714 11.5654 9.44183 11.5607C10.0083 11.552 10.6501 11.5427 11.0964 11.0964C11.5427 10.6501 11.552 10.0083 11.5607 9.44183C11.5654 9.13714 11.57 8.82259 11.6489 8.63281C11.7342 8.42621 11.9606 8.19 12.1794 7.96134C12.5642 7.56089 13 7.10589 13 6.5C13 5.89411 12.5642 5.43969 12.1794 5.03866ZM11.5091 7.31888C11.2311 7.60906 10.9432 7.90911 10.7906 8.27763C10.6443 8.63165 10.6379 9.03616 10.6321 9.4279C10.6263 9.83415 10.62 10.2596 10.4395 10.4395C10.259 10.6194 9.83647 10.6263 9.4279 10.6321C9.03616 10.6379 8.63165 10.6443 8.27763 10.7906C7.90911 10.9432 7.60906 11.2311 7.31888 11.5091C7.02871 11.7871 6.73214 12.0714 6.5 12.0714C6.26786 12.0714 5.96955 11.7859 5.68112 11.5091C5.39268 11.2322 5.09089 10.9432 4.72237 10.7906C4.36835 10.6443 3.96384 10.6379 3.5721 10.6321C3.16585 10.6263 2.74045 10.62 2.56054 10.4395C2.38062 10.259 2.37366 9.83647 2.36786 9.4279C2.36205 9.03616 2.35567 8.63165 2.20942 8.27763C2.05679 7.90911 1.76893 7.60906 1.49094 7.31888C1.21295 7.02871 0.928571 6.73214 0.928571 6.5C0.928571 6.26786 1.21411 5.96955 1.49094 5.68112C1.76777 5.39268 2.05679 5.09089 2.20942 4.72237C2.35567 4.36835 2.36205 3.96384 2.36786 3.5721C2.37366 3.16585 2.38004 2.74045 2.56054 2.56054C2.74103 2.38062 3.16353 2.37366 3.5721 2.36786C3.96384 2.36205 4.36835 2.35567 4.72237 2.20942C5.09089 2.05679 5.39094 1.76893 5.68112 1.49094C5.97129 1.21295 6.26786 0.928571 6.5 0.928571C6.73214 0.928571 7.03045 1.21411 7.31888 1.49094C7.60732 1.76777 7.90911 2.05679 8.27763 2.20942C8.63165 2.35567 9.03616 2.36205 9.4279 2.36786C9.83415 2.37366 10.2596 2.38004 10.4395 2.56054C10.6194 2.74103 10.6263 3.16353 10.6321 3.5721C10.6379 3.96384 10.6443 4.36835 10.7906 4.72237C10.9432 5.09089 11.2311 5.39094 11.5091 5.68112C11.7871 5.97129 12.0714 6.26786 12.0714 6.5C12.0714 6.73214 11.7859 7.03045 11.5091 7.31888Z" fill="white"/>
</svg>
