<svg xmlns="http://www.w3.org/2000/svg" width="33.86" height="33.557" viewBox="0 0 33.86 33.557">
  <g id="Group_1588" data-name="Group 1588" transform="translate(-6064.85 -16378.799)">
    <path id="path10" d="M14.11-24.387a18.7,18.7,0,0,0-3.906.926,10.028,10.028,0,0,0-2.532,1.249c0,.083.248.156.651.2a20.737,20.737,0,0,1,6.561,2.748,6.411,6.411,0,0,0,1.271.645,5.9,5.9,0,0,0,1.261-.645,31.214,31.214,0,0,1,4.722-2.311,13.3,13.3,0,0,1,1.664-.406c.537-.073.816-.167.816-.25,0-.3-2.408-1.332-4.081-1.749A17,17,0,0,0,14.11-24.387Z" transform="translate(6065.635 16403.324)" fill="#fff"/>
    <path id="path12" d="M7.067-20.905A16.346,16.346,0,0,0,2.3-11.068,15.685,15.685,0,0,0,2.52-5.676,16.472,16.472,0,0,0,4.814-.055c.682,1.02.8,1.01.878-.083.32-4.1,3.482-9.733,8.742-15.521a6.866,6.866,0,0,0,.837-1.051A22.165,22.165,0,0,0,12.543-19.4c-1.55-1.332-3.565-2.571-4.154-2.571C8.162-21.967,7.873-21.728,7.067-20.905Z" transform="translate(6062.686 16404.693)" fill="#fff"/>
    <path id="path14" d="M21.772-21.665a20.66,20.66,0,0,0-4.784,3.623,8.447,8.447,0,0,0-1.24,1.353,9.267,9.267,0,0,0,1.126,1.416c4.464,5.007,7.3,9.785,8.173,13.782A8.929,8.929,0,0,1,25.254.07c0,.583.021.656.2.656a8.139,8.139,0,0,0,1.767-2.759,15.531,15.531,0,0,0,1.519-7.724,15.621,15.621,0,0,0-2.945-8.973c-.878-1.249-2.811-3.237-3.141-3.237A3.178,3.178,0,0,0,21.772-21.665Z" transform="translate(6069.958 16404.693)" fill="#fff"/>
    <path id="path16" d="M16.486-15.486A68.435,68.435,0,0,0,8.963-7.627C7.01-5.149,4.913-1.8,4.913-1.173A10.041,10.041,0,0,0,6.979.961,17.118,17.118,0,0,0,20.154,4.469,17.509,17.509,0,0,0,29.846-.4c.424-.406.486-.52.486-.9-.01-1.915-3.74-6.662-9.909-12.606a18.561,18.561,0,0,0-2.749-2.436A4.454,4.454,0,0,0,16.486-15.486Z" transform="translate(6064.158 16407.705)" fill="#fff"/>
  </g>
</svg>
