<svg width="47" height="47" viewBox="0 0 47 47" fill="none" xmlns="http://www.w3.org/2000/svg">
    <path d="M29.3725 14.6849C29.3725 14.1038 29.5448 13.5358 29.8675 13.0527C30.1903 12.5696 30.649 12.1931 31.1857 11.9707C31.7224 11.7484 32.313 11.6902 32.8828 11.8036C33.4526 11.9169 33.9759 12.1967 34.3867 12.6076C34.7975 13.0184 35.0772 13.5419 35.1906 14.1117C35.3039 14.6816 35.2457 15.2723 35.0234 15.8091C34.8011 16.3459 34.4246 16.8047 33.9416 17.1275C33.4586 17.4503 32.8907 17.6226 32.3098 17.6226C31.5307 17.6226 30.7836 17.3131 30.2328 16.7622C29.682 16.2112 29.3725 15.464 29.3725 14.6849ZM26.4353 23.4981C27.0162 23.4981 27.5841 23.3258 28.0671 23.003C28.5501 22.6802 28.9266 22.2214 29.1489 21.6846C29.3712 21.1478 29.4294 20.5571 29.3161 19.9872C29.2027 19.4173 28.923 18.8939 28.5122 18.483C28.1014 18.0722 27.5781 17.7924 27.0083 17.679C26.4385 17.5657 25.8479 17.6239 25.3112 17.8462C24.7745 18.0686 24.3158 18.4451 23.993 18.9282C23.6703 19.4113 23.498 19.9793 23.498 20.5603C23.498 21.3395 23.8075 22.0867 24.3583 22.6376C24.9091 23.1886 25.6562 23.4981 26.4353 23.4981ZM20.5608 29.3736C21.1417 29.3736 21.7096 29.2013 22.1926 28.8785C22.6756 28.5557 23.0521 28.0968 23.2744 27.56C23.4967 27.0232 23.5549 26.4326 23.4416 25.8627C23.3282 25.2928 23.0485 24.7694 22.6377 24.3585C22.2269 23.9477 21.7036 23.6679 21.1338 23.5545C20.564 23.4412 19.9734 23.4993 19.4367 23.7217C18.9 23.944 18.4413 24.3206 18.1185 24.8037C17.7958 25.2868 17.6235 25.8548 17.6235 26.4358C17.6235 27.215 17.933 27.9622 18.4838 28.5131C19.0346 29.064 19.7817 29.3736 20.5608 29.3736ZM46.6847 6.95469L46.5378 7.36401C43.299 16.3515 40.2051 24.8436 33.0754 32.2192C32.5457 37.2706 30.2586 41.9752 26.6134 45.5115C25.6145 46.4625 24.2896 46.9951 22.9106 47C22.2162 47 21.5287 46.8632 20.8873 46.5975C20.2458 46.3317 19.663 45.9422 19.172 45.4512C18.6811 44.9602 18.2917 44.3772 18.026 43.7357C17.7603 43.0941 17.6235 42.4065 17.6235 41.7121V38.5178C16.4733 38.0956 15.4077 37.4715 14.4767 36.6748L10.8894 40.2647C10.3383 40.8159 9.59101 41.1255 8.81175 41.1255C8.03249 41.1255 7.28515 40.8159 6.73414 40.2647C6.18312 39.7136 5.87356 38.9662 5.87356 38.1868C5.87356 37.4074 6.18312 36.6599 6.73414 36.1088L10.3254 32.5169C9.12549 31.0535 8.34998 29.2888 8.08331 27.4151H5.28705C3.88484 27.4151 2.54006 26.8579 1.54854 25.8663C0.557027 24.8746 0 23.5296 0 22.1271C0.0054107 20.7485 0.537861 19.4242 1.48821 18.4256C3.52714 16.3421 5.95798 14.6825 8.64079 13.5423C11.3236 12.4022 14.2054 11.8041 17.1203 11.7824C23.9268 6.11645 31.5833 3.36085 39.6392 0.454446L40.0465 0.307559C40.9738 -0.0266498 41.9771 -0.0899945 42.9391 0.124927C43.901 0.339849 44.782 0.824161 45.479 1.52127C46.176 2.21837 46.6602 3.09948 46.8751 4.06162C47.09 5.02377 47.0266 6.02721 46.6925 6.95469H46.6847ZM40.6672 6.32601C32.1374 9.40672 24.7414 12.2172 18.4068 18.547C17.0585 20.0694 15.8023 21.671 14.6451 23.3434C14.0287 24.22 13.7419 25.2863 13.8354 26.3539C13.9289 27.4215 14.3968 28.4217 15.1562 29.1777L17.9446 31.9588C18.7009 32.716 19.7002 33.1818 20.7663 33.2743C21.8324 33.3667 22.8969 33.0798 23.7721 32.4641C25.4421 31.3133 27.0069 30.017 28.4482 28.5902C34.777 22.2544 37.5968 14.8572 40.6672 6.32601Z" fill="white"/>
</svg>
