<svg width="64" height="64" viewBox="0 0 64 64" fill="none" xmlns="http://www.w3.org/2000/svg">
<rect x="1.5" y="1.5" width="61" height="61" rx="30.5" fill="white" stroke="#201D56" stroke-width="3"/>
<path d="M35.1226 27.0589C35.1226 26.7005 35.2288 26.3501 35.428 26.0521C35.6271 25.754 35.9101 25.5218 36.2413 25.3846C36.5724 25.2474 36.9368 25.2115 37.2884 25.2815C37.6399 25.3514 37.9628 25.524 38.2163 25.7774C38.4697 26.0309 38.6423 26.3538 38.7122 26.7054C38.7822 27.0569 38.7463 27.4213 38.6091 27.7524C38.472 28.0836 38.2397 28.3666 37.9417 28.5657C37.6436 28.7649 37.2932 28.8712 36.9348 28.8712C36.4542 28.8712 35.9932 28.6802 35.6534 28.3404C35.3135 28.0005 35.1226 27.5395 35.1226 27.0589ZM33.3103 32.4957C33.6687 32.4957 34.0191 32.3894 34.3171 32.1903C34.6152 31.9911 34.8474 31.7081 34.9846 31.3769C35.1218 31.0458 35.1577 30.6814 35.0877 30.3299C35.0178 29.9783 34.8452 29.6554 34.5918 29.402C34.3383 29.1485 34.0154 28.9759 33.6639 28.906C33.3123 28.8361 32.9479 28.8719 32.6168 29.0091C32.2856 29.1463 32.0026 29.3786 31.8035 29.6766C31.6043 29.9746 31.498 30.325 31.498 30.6834C31.498 31.1641 31.689 31.625 32.0288 31.9649C32.3687 32.3047 32.8297 32.4957 33.3103 32.4957ZM29.6858 36.1202C30.0442 36.1202 30.3946 36.0139 30.6926 35.8148C30.9907 35.6156 31.2229 35.3326 31.3601 35.0014C31.4973 34.6703 31.5332 34.3059 31.4632 33.9544C31.3933 33.6028 31.2207 33.2799 30.9672 33.0265C30.7138 32.773 30.3909 32.6004 30.0393 32.5305C29.6878 32.4606 29.3234 32.4965 28.9923 32.6336C28.6611 32.7708 28.3781 33.0031 28.179 33.3011C27.9798 33.5991 27.8735 33.9495 27.8735 34.3079C27.8735 34.7886 28.0645 35.2495 28.4043 35.5894C28.7442 35.9293 29.2052 36.1202 29.6858 36.1202ZM45.804 22.2903L45.7134 22.5428C43.7151 28.0871 41.8062 33.3257 37.4072 37.8757C37.0804 40.9918 35.6692 43.894 33.4202 46.0755C32.8039 46.6621 31.9865 46.9907 31.1356 46.9937C30.7072 46.9937 30.283 46.9093 29.8873 46.7454C29.4915 46.5815 29.1319 46.3412 28.829 46.0383C28.5261 45.7354 28.2858 45.3758 28.1218 44.98C27.9579 44.5842 27.8735 44.16 27.8735 43.7317V41.7611C27.1639 41.5007 26.5064 41.1157 25.932 40.6242L23.7186 42.8388C23.3787 43.1788 22.9176 43.3698 22.4368 43.3698C21.956 43.3698 21.4949 43.1788 21.1549 42.8388C20.8149 42.4988 20.6239 42.0377 20.6239 41.557C20.6239 41.0762 20.8149 40.6151 21.1549 40.2751L23.3707 38.0593C22.6303 37.1565 22.1519 36.0679 21.9873 34.912H20.2621C19.3969 34.912 18.5672 34.5683 17.9554 33.9566C17.3437 33.3448 17 32.5151 17 31.65C17.0033 30.7995 17.3319 29.9825 17.9182 29.3665C19.1762 28.0812 20.676 27.0574 22.3313 26.3541C23.9866 25.6508 25.7646 25.2818 27.563 25.2684C31.7626 21.7732 36.4866 20.0733 41.457 18.2803L41.7083 18.1897C42.2804 17.9836 42.8995 17.9445 43.493 18.0771C44.0865 18.2096 44.6301 18.5084 45.0601 18.9385C45.4901 19.3685 45.7889 19.912 45.9215 20.5056C46.0541 21.0991 46.015 21.7181 45.8088 22.2903H45.804ZM42.0913 21.9024C36.8285 23.8029 32.2652 25.5366 28.3568 29.4414C27.5249 30.3806 26.7499 31.3686 26.0359 32.4002C25.6556 32.941 25.4786 33.5988 25.5363 34.2574C25.594 34.916 25.8827 35.533 26.3512 35.9994L28.0717 37.715C28.5383 38.1821 29.1548 38.4695 29.8126 38.5265C30.4704 38.5835 31.1271 38.4065 31.6672 38.0267C32.6975 37.3168 33.663 36.5171 34.5523 35.6369C38.4571 31.7285 40.1969 27.1652 42.0913 21.9024Z" fill="#150B53"/>
</svg>
