<svg width="64" height="64" viewBox="0 0 64 64" fill="none" xmlns="http://www.w3.org/2000/svg">
<rect x="1.5" y="1.5" width="61" height="61" rx="30.5" fill="white" stroke="#201D56" stroke-width="3"/>
<path d="M45.7014 19H19.0045C17.9425 19 16.9239 19.4238 16.1729 20.1782C15.4219 20.9326 15 21.9558 15 23.0227V41.7955C15 42.8624 15.4219 43.8855 16.1729 44.64C16.9239 45.3944 17.9425 45.8182 19.0045 45.8182H45.7014C46.7634 45.8182 47.782 45.3944 48.533 44.64C49.284 43.8855 49.7059 42.8624 49.7059 41.7955V23.0227C49.7059 21.9558 49.284 20.9326 48.533 20.1782C47.782 19.4238 46.7634 19 45.7014 19ZM17.6697 27.0455H47.0362V29.7273H38.892C38.2766 29.7276 37.6802 29.9415 37.2038 30.3328C36.7273 30.724 36.4001 31.2686 36.2774 31.8744C36.0904 32.7802 35.5983 33.5936 34.8841 34.1775C34.1699 34.7615 33.2772 35.0803 32.3563 35.0803C31.4354 35.0803 30.5427 34.7615 29.8284 34.1775C29.1142 33.5936 28.6222 32.7802 28.4352 31.8744C28.3123 31.2675 27.984 30.722 27.5062 30.3306C27.0284 29.9393 26.4304 29.7261 25.8139 29.7273H17.6697V27.0455ZM19.0045 21.6818H45.7014C46.0554 21.6818 46.3949 21.8231 46.6452 22.0746C46.8956 22.326 47.0362 22.6671 47.0362 23.0227V24.3636H17.6697V23.0227C17.6697 22.6671 17.8103 22.326 18.0606 22.0746C18.311 21.8231 18.6505 21.6818 19.0045 21.6818ZM45.7014 43.1364H19.0045C18.6505 43.1364 18.311 42.9951 18.0606 42.7436C17.8103 42.4922 17.6697 42.1511 17.6697 41.7955V32.4091H25.8122C26.1194 33.9238 26.9382 35.2854 28.1299 36.2633C29.3217 37.2412 30.8133 37.7753 32.3521 37.7753C33.8909 37.7753 35.3825 37.2412 36.5743 36.2633C37.766 35.2854 38.5848 33.9238 38.892 32.4091H47.0362V41.7955C47.0362 42.1511 46.8956 42.4922 46.6452 42.7436C46.3949 42.9951 46.0554 43.1364 45.7014 43.1364Z" fill="#150B53"/>
</svg>
