<svg width="64" height="64" viewBox="0 0 64 64" fill="none" xmlns="http://www.w3.org/2000/svg">
<rect x="1.5" y="1.5" width="61" height="61" rx="30.5" fill="white" stroke="#201D56" stroke-width="3"/>
<path d="M40.7804 25.8861V25C40.7804 21.01 34.8092 18 26.8902 18C18.9712 18 13 21.01 13 25V31.3636C13 34.687 17.1434 37.328 23.102 38.1186V39C23.102 42.99 29.0732 46 36.9922 46C44.9111 46 50.8824 42.99 50.8824 39V32.6364C50.8824 29.3432 46.87 26.6991 40.7804 25.8861ZM48.3569 32.6364C48.3569 34.7395 43.4969 37.0909 36.9922 37.0909C36.4034 37.0909 35.8194 37.0702 35.2433 37.032C38.6479 35.7816 40.7804 33.75 40.7804 31.3636V28.4586C45.4952 29.1666 48.3569 31.0884 48.3569 32.6364ZM23.102 35.5398V31.755C24.358 31.92 25.6235 32.0018 26.8902 32C28.1569 32.0018 29.4223 31.92 30.6784 31.755V35.5398C29.4242 35.7265 28.158 35.8196 26.8902 35.8182C25.6224 35.8196 24.3562 35.7265 23.102 35.5398ZM38.2549 29.1252V31.3636C38.2549 32.6984 36.2961 34.1318 33.2039 35.002V31.2841C35.2417 30.7861 36.9669 30.0448 38.2549 29.1252ZM26.8902 20.5455C33.3949 20.5455 38.2549 22.8968 38.2549 25C38.2549 27.1032 33.3949 29.4545 26.8902 29.4545C20.3855 29.4545 15.5255 27.1032 15.5255 25C15.5255 22.8968 20.3855 20.5455 26.8902 20.5455ZM15.5255 31.3636V29.1252C16.8135 30.0448 18.5387 30.7861 20.5765 31.2841V35.002C17.4843 34.1318 15.5255 32.6984 15.5255 31.3636ZM25.6275 39V38.3366C26.0426 38.3525 26.4624 38.3636 26.8902 38.3636C27.5026 38.3636 28.1009 38.343 28.688 38.308C29.3403 38.5433 30.0048 38.743 30.6784 38.9061V42.6384C27.5863 41.7682 25.6275 40.3348 25.6275 39ZM33.2039 43.1761V39.3818C34.4596 39.5519 35.7252 39.637 36.9922 39.6364C38.2589 39.6382 39.5243 39.5563 40.7804 39.3914V43.1761C38.2683 43.5473 35.716 43.5473 33.2039 43.1761ZM43.3059 42.6384V38.9205C45.3436 38.4225 47.0689 37.6811 48.3569 36.7616V39C48.3569 40.3348 46.398 41.7682 43.3059 42.6384Z" fill="#150B53"/>
</svg>
