<svg width="64" height="64" viewBox="0 0 64 64" fill="none" xmlns="http://www.w3.org/2000/svg">
    <rect x="1.5" y="1.5" width="61" height="61" rx="30.5" fill="white" stroke="#201D56" stroke-width="3"/>
    <path d="M25.5547 29.4286C24.9085 29.4286 24.3828 28.9159 24.3828 28.2857C24.3828 27.6555 24.9085 27.1428 25.5547 27.1428C26.2009 27.1428 26.7266 27.6555 26.7266 28.2857C26.7266 28.9159 26.2009 29.4286 25.5547 29.4286ZM38.7383 30H41.6679V27.7142H38.7383V30ZM25.5547 31.1428C24.0822 31.1428 22.8373 32.1108 22.4538 33.4286H28.6555C28.2721 32.1108 27.0272 31.1428 25.5547 31.1428ZM47 22.8572V41.1428C47 41.3702 46.9074 41.5882 46.7426 41.7489C46.5777 41.9097 46.3542 42 46.1211 42H17.8789C17.6458 42 17.4223 41.9097 17.2574 41.7489C17.0926 41.5882 17 41.3702 17 41.1428V22.8572C17 22.6298 17.0926 22.4118 17.2574 22.2511C17.4223 22.0903 17.6458 22 17.8789 22H46.1212C46.3543 22 46.5778 22.0903 46.7426 22.2511C46.9074 22.4118 47 22.6299 47 22.8572ZM32.2929 34.2857C32.2929 34.5131 32.3856 34.7311 32.5504 34.8918C32.7152 35.0526 32.9388 35.1429 33.1719 35.1429H34.3438C34.5769 35.1429 34.8004 35.0526 34.9653 34.8918C35.1301 34.7311 35.2227 34.5131 35.2227 34.2857C35.2227 34.0584 35.1301 33.8404 34.9653 33.6796C34.8004 33.5189 34.5769 33.4286 34.3438 33.4286H33.1719C32.9388 33.4286 32.7152 33.5189 32.5504 33.6796C32.3856 33.8404 32.2929 34.0584 32.2929 34.2857ZM30.5352 37.7142C30.5352 37.6017 30.5124 37.4902 30.4683 37.3862C30.4241 37.2822 30.3593 37.1877 30.2777 37.1081C30.1961 37.0285 30.0992 36.9654 29.9926 36.9223C29.8859 36.8792 29.7717 36.8571 29.6562 36.8571H21.4531C21.22 36.8571 20.9964 36.9474 20.8316 37.1081C20.6668 37.2689 20.5742 37.4869 20.5742 37.7142C20.5742 37.9416 20.6668 38.1596 20.8316 38.3203C20.9964 38.4811 21.22 38.5714 21.4531 38.5714H29.6562C29.8893 38.5714 30.1129 38.4811 30.2777 38.3203C30.4426 38.1596 30.5352 37.9416 30.5352 37.7142ZM30.5352 34.2857C30.5352 32.4327 29.4652 30.8192 27.8965 30.0005C28.2786 29.5066 28.4851 28.9045 28.4844 28.2857C28.4844 26.7103 27.1702 25.4286 25.5548 25.4286C23.9393 25.4286 22.6251 26.7103 22.6251 28.2857C22.6245 28.9045 22.8309 29.5066 23.2131 30.0005C21.6443 30.8192 20.5744 32.4327 20.5744 34.2857C20.5744 34.5131 20.667 34.7311 20.8318 34.8918C20.9966 35.0526 21.2202 35.1429 21.4533 35.1429H29.6564C29.8895 35.1429 30.113 35.0525 30.2778 34.8918C30.4426 34.731 30.5352 34.513 30.5352 34.2857ZM43.4258 37.7142C43.4258 37.6017 43.4031 37.4902 43.3589 37.3862C43.3148 37.2822 43.25 37.1877 43.1684 37.1081C43.0868 37.0285 42.9899 36.9654 42.8832 36.9223C42.7766 36.8792 42.6623 36.8571 42.5469 36.8571H33.1719C32.9388 36.8571 32.7152 36.9474 32.5504 37.1081C32.3856 37.2689 32.2929 37.4869 32.2929 37.7142C32.2929 37.9416 32.3856 38.1596 32.5504 38.3203C32.7152 38.4811 32.9388 38.5714 33.1719 38.5714H42.5469C42.78 38.5714 43.0036 38.4811 43.1684 38.3203C43.3332 38.1596 43.4258 37.9416 43.4258 37.7142ZM43.4258 34.2857C43.4258 34.0584 43.3332 33.8404 43.1684 33.6796C43.0036 33.5189 42.78 33.4286 42.5469 33.4286H37.8593C37.6262 33.4286 37.4027 33.5189 37.2378 33.6796C37.073 33.8404 36.9804 34.0584 36.9804 34.2857C36.9804 34.5131 37.073 34.7311 37.2378 34.8918C37.4027 35.0526 37.6262 35.1429 37.8593 35.1429H42.5469C42.78 35.1429 43.0035 35.0525 43.1683 34.8918C43.3332 34.731 43.4258 34.5131 43.4258 34.2857ZM43.4258 26.8572C43.4258 26.7446 43.4031 26.6331 43.3589 26.5291C43.3148 26.4251 43.25 26.3306 43.1684 26.251C43.0868 26.1714 42.9899 26.1083 42.8832 26.0652C42.7766 26.0222 42.6623 26 42.5469 26H37.8593C37.7439 26 37.6296 26.0222 37.523 26.0652C37.4163 26.1083 37.3194 26.1714 37.2378 26.251C37.1562 26.3306 37.0915 26.4251 37.0473 26.5291C37.0031 26.6331 36.9804 26.7446 36.9804 26.8572V30.8571C36.9804 30.9697 37.0031 31.0812 37.0473 31.1852C37.0915 31.2892 37.1562 31.3837 37.2378 31.4632C37.3194 31.5428 37.4163 31.606 37.523 31.6491C37.6296 31.6921 37.7439 31.7143 37.8593 31.7143H42.5469C42.78 31.7143 43.0036 31.624 43.1684 31.4632C43.3332 31.3025 43.4258 31.0845 43.4258 30.8571V26.8572Z" fill="#201D56"/>
</svg>
