<svg width="64" height="64" viewBox="0 0 64 64" fill="none" xmlns="http://www.w3.org/2000/svg">
    <rect x="1.5" y="1.5" width="61" height="61" rx="30.5" fill="white" stroke="#201D56" stroke-width="3"/>
    <g clip-path="url(#clip0_4031_228)">
        <path d="M39.5681 45.4386H39.5626V40.8058C39.5626 39.2387 38.5423 37.2825 37.2615 36.3525L32.3437 32.7949V32.1899L37.2613 28.6322C38.5423 27.7023 39.5624 25.746 39.5624 24.1789V19.5462H39.5679C40.4209 19.5462 41.1092 18.863 41.1092 18.0231V17.7691C41.1092 16.9292 40.4209 16.2461 39.5679 16.2461H22.5479C21.6948 16.2461 21 16.9292 21 17.7691V18.0229C21 18.8628 21.6943 19.5459 22.5473 19.5459L22.5544 24.1787C22.5544 25.746 23.5565 27.701 24.8401 28.6289L29.7658 32.1925V32.7918L24.8361 36.3556C23.5531 37.2835 22.5468 39.2385 22.5468 40.8058V45.4386H22.5479C21.6948 45.4386 21 46.1217 21 46.9616V47.2154C21 48.0553 21.6948 48.7384 22.5479 48.7384H39.5681C40.4212 48.7384 41.1095 48.0553 41.1095 47.2154V46.9616C41.1095 46.1217 40.4212 45.4386 39.5681 45.4386ZM38.5313 45.4389H37.2421V41.4572C37.2421 40.3001 36.5046 38.8555 35.5581 38.169L31.3733 35.1302C31.2851 35.0658 31.1782 35.0309 31.0684 35.0308C30.9585 35.0307 30.8515 35.0652 30.7631 35.1294L26.5564 38.1711C25.6088 38.8565 24.8671 40.2999 24.8671 41.4572V45.4386H23.5779V40.8058C23.5779 39.5693 24.4373 37.9063 25.4495 37.1741L30.5874 33.4584C30.6524 33.4112 30.7053 33.3495 30.7417 33.2784C30.778 33.2073 30.7968 33.1287 30.7966 33.0491V31.9356C30.7966 31.7739 30.7215 31.622 30.5895 31.5264L25.4482 27.8106C24.4357 27.0785 23.5779 25.4154 23.5779 24.1789V19.5462H38.5313V24.1789C38.5313 25.416 37.6607 27.0811 36.6492 27.8153L31.5302 31.5248C31.3985 31.6205 31.3123 31.7719 31.3123 31.9333V33.0515C31.3123 33.2126 31.3901 33.3643 31.5218 33.4599L36.6495 37.1698C37.6604 37.9039 38.5313 39.5691 38.5313 40.8061V45.4389Z" fill="#201D56"/>
        <path d="M35.745 26.2487C35.711 26.1471 35.6454 26.0587 35.5574 25.996C35.4694 25.9333 35.3636 25.8995 35.2549 25.8996L26.8613 25.897C26.7527 25.897 26.6468 25.9308 26.5589 25.9936C26.4709 26.0563 26.4052 26.1448 26.3713 26.2464C26.3375 26.3481 26.3372 26.4578 26.3704 26.5597C26.4036 26.6616 26.4686 26.7506 26.5562 26.814L30.7632 29.8554C30.8517 29.9194 30.9586 29.954 31.0684 29.9539C31.1757 29.9539 31.2834 29.9209 31.3743 29.8546L35.5611 26.8158C35.6485 26.7524 35.7134 26.6634 35.7464 26.5616C35.7794 26.4598 35.7789 26.3503 35.745 26.2487Z" fill="#201D56"/>
    </g>
    <defs>
        <clipPath id="clip0_4031_228">
            <rect width="33" height="32.4923" fill="white" transform="translate(15 16)"/>
        </clipPath>
    </defs>
</svg>
