<svg width="64" height="64" viewBox="0 0 64 64" fill="none" xmlns="http://www.w3.org/2000/svg">
    <rect x="1.5" y="1.5" width="61" height="61" rx="30.5" fill="white" stroke="#201D56" stroke-width="3"/>
    <g clip-path="url(#clip0_4032_236)">
        <path d="M45.8795 38.1094C45.6495 38.1094 45.4181 38.1727 45.1919 38.2975C43.3987 39.2872 41.1005 40.0707 39.0441 40.3932C38.7446 40.4401 38.3957 40.464 38.0072 40.464C37.0037 40.464 35.8434 40.3072 34.9034 40.0442C34.0618 39.8089 33.6038 39.5401 33.4693 39.3382C33.6659 39.3509 34.009 39.4153 34.3998 39.4885C35.2055 39.6395 36.3088 39.8463 37.3371 39.8463C37.8366 39.8463 38.2771 39.7964 38.6466 39.6978C39.6005 39.4432 39.9303 38.8194 39.9209 38.3204C39.9115 37.823 39.5846 37.403 39.1259 37.299C38.9123 37.2505 38.3998 37.0857 37.7511 36.8771C35.9087 36.2848 32.8252 35.2934 31.26 35.2471C30.2769 35.217 27.9126 35.5748 26.6267 35.7844C26.5849 35.7912 26.5448 35.7972 26.5063 35.8029C26.1722 35.8529 25.8268 35.9046 25.7947 36.3944C25.741 37.2183 25.6632 38.4376 25.5825 39.7013C25.4875 41.1901 25.3886 42.7404 25.3205 43.7775C25.3178 43.817 25.3329 44.0483 25.4676 44.1921C25.5376 44.267 25.6275 44.3066 25.7276 44.3066C25.8498 44.3066 25.9778 44.2481 26.119 44.1277C26.7814 43.5628 27.3423 43.3263 27.7837 43.4261C28.6796 43.6294 36.1062 44.9998 38.2624 44.9999H38.2627C38.4666 44.9999 38.618 44.9877 38.7256 44.9628C40.442 44.5638 45.2873 41.7205 46.2871 40.76C46.9305 40.1418 47.1706 39.4152 46.9295 38.8164C46.7543 38.3803 46.3518 38.1094 45.8795 38.1094ZM23.5916 35.7122L19.0524 35.4886C18.6148 35.4643 18.1817 35.7915 18.0745 36.21L18.0713 36.2221L17.2459 43.7166C17.1958 43.9271 17.2351 44.1386 17.3546 44.2989C17.4766 44.4625 17.6737 44.5613 17.8951 44.5699L17.9021 44.57L22.9259 44.5694C22.9364 44.5697 22.947 44.57 22.9575 44.57C23.395 44.57 23.7641 44.2284 23.7978 43.7924L24.3501 36.5724C24.3588 36.4657 24.3457 36.3584 24.3118 36.2569C24.278 36.1554 24.2239 36.0618 24.1529 35.9817C24.0823 35.9013 23.9962 35.8359 23.8998 35.7896C23.8033 35.7433 23.6985 35.717 23.5916 35.7122ZM21.9864 42.1423C21.9864 42.7355 21.5038 43.2181 20.9105 43.2181C20.3174 43.2181 19.8348 42.7355 19.8348 42.1423C19.8348 41.5491 20.3174 41.0665 20.9105 41.0665C21.5038 41.0665 21.9864 41.5491 21.9864 42.1423Z" fill="#201D56"/>
        <path d="M40.9792 23.4655C41.0918 23.2909 41.1594 23.0825 41.1594 22.8572V22.7108C40.568 23.1614 39.8302 23.4205 39.036 23.4205H38.777C37.9828 23.4205 37.245 23.1614 36.6536 22.7108V22.8572C36.6536 23.0825 36.7212 23.2909 36.8338 23.4655C34.3837 24.9187 32.7109 28.6754 32.7109 31.3057C32.7109 32.3759 32.9813 33.1644 33.5389 33.722C34.5471 34.7189 36.2199 34.702 38.1687 34.6908C38.6474 34.6851 39.1656 34.6851 39.6443 34.6908H40.3371C41.9874 34.6908 43.3898 34.595 44.2741 33.722C44.8317 33.1644 45.1021 32.3759 45.1021 31.3057C45.1021 28.6754 43.4293 24.9187 40.9792 23.4655ZM38.6249 28.4896H39.1543C39.5278 28.4896 39.8859 28.6379 40.15 28.902C40.4141 29.166 40.5624 29.5242 40.5624 29.8976C40.5624 30.5848 40.0949 31.148 39.4697 31.2945V31.869C39.4697 32.1787 39.2163 32.4322 38.9065 32.4322C38.5967 32.4322 38.3433 32.1787 38.3433 31.869V31.3283H37.78C37.4703 31.3283 37.2168 31.0804 37.2168 30.765C37.2168 30.4552 37.4703 30.2018 37.78 30.2018H39.1543C39.312 30.2018 39.4359 30.0779 39.4359 29.9202C39.4359 29.7399 39.312 29.616 39.1543 29.616H38.6249C38.2757 29.6164 37.9388 29.487 37.6797 29.2529C37.4205 29.0189 37.2576 28.6969 37.2225 28.3495C37.1874 28.002 37.2827 27.654 37.4898 27.3728C37.6969 27.0917 38.0011 26.8975 38.3433 26.828V26.2366C38.3433 25.9268 38.5967 25.6734 38.9065 25.6734C39.2163 25.6734 39.4697 25.9268 39.4697 26.2366V26.7999H39.9992C40.309 26.7999 40.5624 27.0533 40.5624 27.3631C40.5624 27.6729 40.309 27.9263 39.9992 27.9263H38.6249C38.4672 27.9263 38.3433 28.0502 38.3433 28.2079C38.3433 28.3656 38.4672 28.4896 38.6249 28.4896ZM41.396 20.2945C41.3266 20.7422 41.1268 21.1595 40.8215 21.4942C40.3878 21.9898 39.7457 22.294 39.036 22.294H38.777C38.4396 22.2954 38.1058 22.2247 37.7979 22.0868C37.49 21.9489 37.2151 21.7469 36.9915 21.4942C36.6986 21.1619 36.4902 20.7507 36.417 20.2776C36.3325 19.9453 36.4339 19.551 36.693 19.2582C36.9408 18.9878 37.3069 18.8583 37.6618 18.9033C37.7012 18.9146 37.7406 18.9146 37.78 18.9146C37.78 18.9146 38.0391 18.9146 38.2644 18.7569C38.6587 18.4922 39.1769 18.4922 39.5486 18.7569C39.7007 18.8639 39.864 18.9146 40.033 18.9146C40.0442 18.9146 40.0837 18.9146 40.14 18.9033C40.5061 18.847 40.8778 18.9766 41.1313 19.2525C41.3904 19.5342 41.4861 19.9228 41.396 20.2945Z" fill="#201D56"/>
    </g>
    <defs>
        <clipPath id="clip0_4032_236">
            <rect width="30" height="30" fill="white" transform="translate(17 15)"/>
        </clipPath>
    </defs>
</svg>
