<svg width="44" height="44" viewBox="0 0 44 44" fill="none" xmlns="http://www.w3.org/2000/svg">
    <rect x="1.03125" y="1.03125" width="41.9375" height="41.9375" rx="20.9688" fill="white" stroke="#201D56" stroke-width="2.0625"/>
    <g clip-path="url(#clip0_4094_238)">
        <path d="M27.2031 31.239H27.1993V28.054C27.1993 26.9766 26.4978 25.6317 25.6173 24.9924L22.2363 22.5465V22.1305L25.6171 19.6846C26.4978 19.0453 27.1991 17.7004 27.1991 16.623V13.438H27.2029C27.7894 13.438 28.2626 12.9683 28.2626 12.3909V12.2163C28.2626 11.6388 27.7894 11.1692 27.2029 11.1692H15.5017C14.9152 11.1692 14.4375 11.6388 14.4375 12.2163V12.3907C14.4375 12.9682 14.9148 13.4378 15.5013 13.4378L15.5062 16.6228C15.5062 17.7004 16.1951 19.0444 17.0776 19.6823L20.464 22.1323V22.5443L17.0749 24.9945C16.1927 25.6324 15.5009 26.9764 15.5009 28.054V31.239H15.5017C14.9152 31.239 14.4375 31.7087 14.4375 32.2861V32.4606C14.4375 33.038 14.9152 33.5077 15.5017 33.5077H27.2031C27.7896 33.5077 28.2628 33.038 28.2628 32.4606V32.2861C28.2628 31.7087 27.7896 31.239 27.2031 31.239ZM26.4902 31.2392H25.604V28.5018C25.604 27.7063 25.0969 26.7132 24.4462 26.2412L21.5692 24.152C21.5085 24.1077 21.435 24.0838 21.3595 24.0837C21.284 24.0836 21.2104 24.1073 21.1496 24.1515L18.2575 26.2426C17.606 26.7139 17.0961 27.7062 17.0961 28.5018V31.239H16.2098V28.054C16.2098 27.2039 16.8006 26.0606 17.4966 25.5572L21.0288 23.0026C21.0736 22.9702 21.1099 22.9278 21.1349 22.8789C21.1599 22.83 21.1728 22.776 21.1727 22.7213V21.9557C21.1727 21.8446 21.121 21.7402 21.0303 21.6744L17.4957 19.1198C16.7995 18.6165 16.2098 17.4731 16.2098 16.623V13.438H26.4902V16.623C26.4902 17.4735 25.8917 18.6182 25.1963 19.123L21.677 21.6733C21.5865 21.7391 21.5272 21.8432 21.5272 21.9541V22.7229C21.5272 22.8337 21.5807 22.9379 21.6713 23.0037L25.1965 25.5542C25.8915 26.059 26.4902 27.2037 26.4902 28.0542V31.2392Z" fill="#201D56"/>
        <path d="M24.5753 18.046C24.5519 17.9762 24.5068 17.9154 24.4463 17.8723C24.3858 17.8292 24.3131 17.806 24.2384 17.806L18.4678 17.8042C18.3931 17.8042 18.3203 17.8275 18.2598 17.8706C18.1993 17.9137 18.1542 17.9746 18.1309 18.0444C18.1076 18.1144 18.1074 18.1897 18.1302 18.2598C18.1531 18.3299 18.1978 18.3911 18.258 18.4346L21.1503 20.5256C21.2111 20.5696 21.2846 20.5934 21.3601 20.5933C21.4339 20.5933 21.5079 20.5706 21.5704 20.5251L24.4489 18.4359C24.509 18.3923 24.5535 18.3311 24.5762 18.2611C24.5989 18.1911 24.5986 18.1158 24.5753 18.046Z" fill="#201D56"/>
    </g>
    <defs>
        <clipPath id="clip0_4094_238">
            <rect width="22.6875" height="22.3385" fill="white" transform="translate(10.3125 11)"/>
        </clipPath>
    </defs>
</svg>
