<svg width="30" height="40" viewBox="0 0 30 40" fill="none" xmlns="http://www.w3.org/2000/svg">
    <path d="M20.7129 7.14286V0.185714C21.4097 0.379308 22.0455 0.747607 22.56 1.25571L28.0286 6.72429C28.5374 7.23859 28.9062 7.87444 29.1 8.57143H22.1415C21.7627 8.57105 21.3996 8.42042 21.1317 8.15259C20.8639 7.88476 20.7133 7.52162 20.7129 7.14286ZM29.2843 11.4286V35.7143C29.2832 36.8506 28.8313 37.94 28.0278 38.7435C27.2243 39.547 26.1349 39.9989 24.9986 40H4.9986C3.86231 39.9989 2.77288 39.547 1.9694 38.7435C1.16592 37.94 0.714025 36.8506 0.712891 35.7143V4.28571C0.714025 3.14942 1.16592 2.05999 1.9694 1.25651C2.77288 0.453028 3.86231 0.00113459 4.9986 0H17.8557V7.14286C17.8569 8.27915 18.3088 9.36858 19.1123 10.1721C19.9157 10.9755 21.0052 11.4274 22.1415 11.4286H29.2843ZM7.85575 27.1429C7.85575 26.8603 7.77196 26.5841 7.61499 26.3492C7.45802 26.1143 7.2349 25.9312 6.97387 25.823C6.71283 25.7149 6.42559 25.6866 6.14848 25.7417C5.87136 25.7969 5.61681 25.9329 5.41702 26.1327C5.21724 26.3325 5.08118 26.587 5.02605 26.8642C4.97093 27.1413 4.99922 27.4285 5.10735 27.6895C5.21547 27.9506 5.39858 28.1737 5.6335 28.3307C5.86843 28.4876 6.14463 28.5714 6.42718 28.5714C6.80606 28.5714 7.16942 28.4209 7.43733 28.153C7.70524 27.8851 7.85575 27.5217 7.85575 27.1429ZM7.85575 21.4286C7.85575 21.146 7.77196 20.8698 7.61499 20.6349C7.45802 20.4 7.2349 20.2169 6.97387 20.1087C6.71283 20.0006 6.42559 19.9723 6.14848 20.0275C5.87136 20.0826 5.61681 20.2186 5.41702 20.4184C5.21724 20.6182 5.08118 20.8728 5.02605 21.1499C4.97093 21.427 4.99922 21.7142 5.10735 21.9753C5.21547 22.2363 5.39858 22.4594 5.6335 22.6164C5.86843 22.7734 6.14463 22.8571 6.42718 22.8571C6.80606 22.8571 7.16942 22.7066 7.43733 22.4387C7.70524 22.1708 7.85575 21.8075 7.85575 21.4286ZM7.85575 15.7143C7.85575 15.4317 7.77196 15.1555 7.61499 14.9206C7.45802 14.6857 7.2349 14.5026 6.97387 14.3945C6.71283 14.2863 6.42559 14.258 6.14848 14.3132C5.87136 14.3683 5.61681 14.5043 5.41702 14.7041C5.21724 14.9039 5.08118 15.1585 5.02605 15.4356C4.97093 15.7127 4.99922 15.9999 5.10735 16.261C5.21547 16.522 5.39858 16.7451 5.6335 16.9021C5.86843 17.0591 6.14463 17.1429 6.42718 17.1429C6.80606 17.1429 7.16942 16.9923 7.43733 16.7244C7.70524 16.4565 7.85575 16.0932 7.85575 15.7143ZM24.9986 27.1429C24.9986 26.764 24.8481 26.4006 24.5802 26.1327C24.3123 25.8648 23.9489 25.7143 23.57 25.7143H10.7129C10.334 25.7143 9.97065 25.8648 9.70274 26.1327C9.43483 26.4006 9.28432 26.764 9.28432 27.1429C9.28432 27.5217 9.43483 27.8851 9.70274 28.153C9.97065 28.4209 10.334 28.5714 10.7129 28.5714H23.57C23.9489 28.5714 24.3123 28.4209 24.5802 28.153C24.8481 27.8851 24.9986 27.5217 24.9986 27.1429ZM24.9986 21.4286C24.9986 21.0497 24.8481 20.6863 24.5802 20.4184C24.3123 20.1505 23.9489 20 23.57 20H10.7129C10.334 20 9.97065 20.1505 9.70274 20.4184C9.43483 20.6863 9.28432 21.0497 9.28432 21.4286C9.28432 21.8075 9.43483 22.1708 9.70274 22.4387C9.97065 22.7066 10.334 22.8571 10.7129 22.8571H23.57C23.9489 22.8571 24.3123 22.7066 24.5802 22.4387C24.8481 22.1708 24.9986 21.8075 24.9986 21.4286ZM24.9986 15.7143C24.9986 15.3354 24.8481 14.972 24.5802 14.7041C24.3123 14.4362 23.9489 14.2857 23.57 14.2857H10.7129C10.334 14.2857 9.97065 14.4362 9.70274 14.7041C9.43483 14.972 9.28432 15.3354 9.28432 15.7143C9.28432 16.0932 9.43483 16.4565 9.70274 16.7244C9.97065 16.9923 10.334 17.1429 10.7129 17.1429H23.57C23.9489 17.1429 24.3123 16.9923 24.5802 16.7244C24.8481 16.4565 24.9986 16.0932 24.9986 15.7143Z" fill="url(#paint0_linear_1986_540)"/>
    <defs>
        <linearGradient id="paint0_linear_1986_540" x1="14.9986" y1="40" x2="14.9986" y2="0" gradientUnits="userSpaceOnUse">
            <stop stop-color="#201D56"/>
            <stop offset="1" stop-color="#7771DE"/>
        </linearGradient>
    </defs>
</svg>
