<svg width="41" height="40" viewBox="0 0 41 40" fill="none" xmlns="http://www.w3.org/2000/svg">
    <path d="M40.2674 14.5313L38.1696 11.7344L37.0032 19.8992C36.8964 20.6471 36.5432 21.3533 36.0088 21.8877L21.6462 36.2504C20.3934 37.5034 18.7258 38.1934 16.9507 38.1934C16.4272 38.1934 15.9056 38.132 15.3965 38.0106C16.1605 39.2051 17.4978 39.9994 19.0179 39.9994H36.205C38.5742 39.9994 40.5017 38.0719 40.5017 35.7026V15.2344C40.5017 14.9809 40.4195 14.7342 40.2674 14.5313Z" fill="url(#paint0_linear_1986_636)"/>
    <path d="M24.6855 19.4677C25.3327 19.4677 25.8574 18.9431 25.8574 18.2959C25.8574 17.6487 25.3327 17.124 24.6855 17.124C24.0383 17.124 23.5137 17.6487 23.5137 18.2959C23.5137 18.9431 24.0383 19.4677 24.6855 19.4677Z" fill="url(#paint1_linear_1986_636)"/>
    <path d="M11.4218 19.4677C12.069 19.4677 12.5937 18.9431 12.5937 18.2959C12.5937 17.6487 12.069 17.124 11.4218 17.124C10.7747 17.124 10.25 17.6487 10.25 18.2959C10.25 18.9431 10.7747 19.4677 11.4218 19.4677Z" fill="url(#paint2_linear_1986_636)"/>
    <path d="M19.9861 34.5928L34.3488 20.23C34.5281 20.0508 34.6444 19.8182 34.6803 19.5672L36.3376 7.96648C36.3633 7.78638 36.3468 7.60277 36.2892 7.43018C36.2317 7.25759 36.1348 7.10077 36.0061 6.97213L33.5202 4.48626L30.2058 7.80078L31.0345 8.62943C31.4921 9.087 31.4921 9.82901 31.0345 10.2867C30.8056 10.5155 30.5057 10.6299 30.2059 10.6299C29.906 10.6299 29.6061 10.5155 29.3773 10.2867L26.0628 6.97213C25.6052 6.51457 25.6052 5.77256 26.0628 5.31491C26.5204 4.85735 27.2624 4.85735 27.72 5.31491L28.5487 6.14356L31.8631 2.82904L29.3772 0.343175C29.2485 0.214611 29.0917 0.117737 28.9191 0.0602081C28.7466 0.00267955 28.563 -0.0139275 28.3829 0.0116994L16.7821 1.669C16.5311 1.70487 16.2985 1.82118 16.1192 2.00047L1.75651 16.3632C0.0811639 18.0385 0.0811639 20.7645 1.75651 22.4398L13.9095 34.5928C14.7472 35.4305 15.8475 35.8492 16.9478 35.8492C18.0481 35.8492 19.1485 35.4305 19.9861 34.5928ZM24.6816 14.7811C26.62 14.7811 28.1971 16.3582 28.1971 18.2967C28.1971 20.2351 26.62 21.8122 24.6816 21.8122C22.7431 21.8122 21.1661 20.2351 21.1661 18.2967C21.1661 16.3582 22.7431 14.7811 24.6816 14.7811ZM11.4237 21.8122C9.4852 21.8122 7.90814 20.2351 7.90814 18.2967C7.90814 16.3582 9.4852 14.7811 11.4237 14.7811C13.3621 14.7811 14.9392 16.3582 14.9392 18.2967C14.9392 20.2351 13.3622 21.8122 11.4237 21.8122ZM15.2907 27.755C15.1679 27.755 15.0429 27.7355 14.9201 27.6946C14.3061 27.4899 13.9743 26.8264 14.1789 26.2123L19.703 9.63987C19.9076 9.0259 20.5713 8.69412 21.1853 8.89872C21.7992 9.1034 22.131 9.76698 21.9264 10.381L16.4024 26.9535C16.2386 27.4444 15.7814 27.755 15.2907 27.755Z" fill="url(#paint3_linear_1986_636)"/>
    <path d="M36.0043 2.00039C36.462 1.54283 36.462 0.800818 36.0043 0.343174C35.5468 -0.114391 34.8048 -0.114391 34.3471 0.343174L31.8613 2.82904L33.5185 4.48626L36.0043 2.00039Z" fill="url(#paint4_linear_1986_636)"/>
    <defs>
        <linearGradient id="paint0_linear_1986_636" x1="27.9491" y1="39.9994" x2="27.9491" y2="11.7344" gradientUnits="userSpaceOnUse">
            <stop stop-color="#201D56"/>
            <stop offset="1" stop-color="#7771DE"/>
        </linearGradient>
        <linearGradient id="paint1_linear_1986_636" x1="24.6855" y1="19.4677" x2="24.6855" y2="17.124" gradientUnits="userSpaceOnUse">
            <stop stop-color="#201D56"/>
            <stop offset="1" stop-color="#7771DE"/>
        </linearGradient>
        <linearGradient id="paint2_linear_1986_636" x1="11.4218" y1="19.4677" x2="11.4218" y2="17.124" gradientUnits="userSpaceOnUse">
            <stop stop-color="#201D56"/>
            <stop offset="1" stop-color="#7771DE"/>
        </linearGradient>
        <linearGradient id="paint3_linear_1986_636" x1="18.4247" y1="35.8492" x2="18.4247" y2="0" gradientUnits="userSpaceOnUse">
            <stop stop-color="#201D56"/>
            <stop offset="1" stop-color="#7771DE"/>
        </linearGradient>
        <linearGradient id="paint4_linear_1986_636" x1="34.1045" y1="4.48626" x2="34.1045" y2="0" gradientUnits="userSpaceOnUse">
            <stop stop-color="#201D56"/>
            <stop offset="1" stop-color="#7771DE"/>
        </linearGradient>
    </defs>
</svg>
