<svg width="41" height="40" viewBox="0 0 41 40" fill="none" xmlns="http://www.w3.org/2000/svg">
    <path d="M26.7793 31.8449C26.9132 31.9777 27.0195 32.1357 27.0921 32.3098C27.1646 32.4839 27.2019 32.6707 27.2019 32.8593C27.2019 33.0479 27.1646 33.2346 27.0921 33.4087C27.0195 33.5828 26.9132 33.7408 26.7793 33.8736C26.5936 33.9879 20.6932 40.1312 20.5932 39.8883C20.333 39.9977 20.0463 40.0276 19.7691 39.9742C19.492 39.9208 19.2369 39.7865 19.036 39.5883L13.3213 33.8736C11.9927 32.5878 14.0499 30.5163 15.35 31.8449L18.6217 35.1308V27.1446C18.6217 26.7657 18.7722 26.4023 19.0401 26.1344C19.308 25.8665 19.6714 25.716 20.0503 25.716C20.4292 25.716 20.7926 25.8665 21.0605 26.1344C21.3285 26.4023 21.479 26.7657 21.479 27.1446V35.1308L24.7506 31.8449C24.8834 31.711 25.0415 31.6047 25.2156 31.5322C25.3896 31.4597 25.5764 31.4223 25.765 31.4223C25.9536 31.4223 26.1403 31.4597 26.3144 31.5322C26.4885 31.6047 26.6465 31.711 26.7793 31.8449ZM40.0516 7.14332V20.0013C40.0516 21.138 39.6001 22.2282 38.7963 23.0319C37.9925 23.8357 36.9023 24.2873 35.7656 24.2873H4.33502C0.163325 24.0587 -0.165267 20.5585 0.0490323 17.144V4.28599C0.0490323 3.14928 0.500591 2.05912 1.30437 1.25534C2.10815 0.451559 3.19831 0 4.33502 0H35.7656C39.9373 0.228586 40.2659 3.72881 40.0516 7.14332ZM5.76369 21.43C5.61877 20.734 5.26943 20.097 4.7604 19.6007C4.25137 19.1044 3.60581 18.7713 2.90636 18.6441C2.90636 19.7584 2.80635 21.43 4.33502 21.43H5.76369ZM5.76369 2.85733C4.5779 2.85733 2.90636 2.75732 2.90636 4.28599V5.71466C3.61544 5.58259 4.26793 5.23894 4.77795 4.72892C5.28797 4.2189 5.63163 3.56641 5.76369 2.85733ZM20.0503 7.14332C13.4785 7.25761 13.4785 17.0297 20.0503 17.144C26.6222 17.0297 26.6222 7.25761 20.0503 7.14332ZM37.1943 18.6441C36.5079 18.7841 35.8778 19.1228 35.3825 19.6181C34.8871 20.1135 34.5484 20.7436 34.4084 21.43C35.5228 21.43 37.1943 21.53 37.1943 20.0013V18.6441ZM35.7656 2.85733H34.4084C34.5357 3.55678 34.8688 4.20234 35.3651 4.71137C35.8614 5.2204 36.4983 5.56973 37.1943 5.71466C37.1943 4.52886 37.2943 2.85733 35.7656 2.85733Z" fill="url(#paint0_linear_1986_685)"/>
    <defs>
        <linearGradient id="paint0_linear_1986_685" x1="20.0503" y1="40" x2="20.0503" y2="0" gradientUnits="userSpaceOnUse">
            <stop stop-color="#201D56"/>
            <stop offset="1" stop-color="#7771DE"/>
        </linearGradient>
    </defs>
</svg>
