<svg
        width="28"
        height="28"
        viewBox="0 0 28 28"
        fill="none"
        xmlns="http://www.w3.org/2000/svg"
>
    <path
            d="M14 0C11.2311 0 8.52431 0.821086 6.22202 2.35943C3.91973 3.89776 2.12532 6.08427 1.06569 8.64243C0.00606598 11.2006 -0.271181 14.0155 0.269012 16.7313C0.809205 19.447 2.14258 21.9416 4.10051 23.8995C6.05845 25.8574 8.55301 27.1908 11.2687 27.731C13.9845 28.2712 16.7994 27.9939 19.3576 26.9343C21.9157 25.8747 24.1022 24.0803 25.6406 21.778C27.1789 19.4757 28 16.7689 28 14C27.9961 10.2882 26.5198 6.72949 23.8952 4.10483C21.2705 1.48017 17.7118 0.00391976 14 0ZM14 25.8461C11.6571 25.8461 9.36672 25.1514 7.41863 23.8497C5.47054 22.548 3.95219 20.6979 3.05559 18.5333C2.15898 16.3687 1.92439 13.9869 2.38147 11.6889C2.83856 9.391 3.9668 7.28022 5.62351 5.6235C7.28022 3.96679 9.39101 2.83855 11.6889 2.38147C13.9869 1.92438 16.3687 2.15897 18.5333 3.05558C20.6979 3.95219 22.548 5.47054 23.8497 7.41863C25.1514 9.36672 25.8462 11.6571 25.8462 14C25.8426 17.1407 24.5934 20.1517 22.3726 22.3726C20.1518 24.5934 17.1407 25.8426 14 25.8461ZM20.4615 14C20.4615 14.2856 20.3481 14.5595 20.1461 14.7615C19.9442 14.9635 19.6702 15.0769 19.3846 15.0769H15.0769V19.3846C15.0769 19.6702 14.9635 19.9442 14.7615 20.1461C14.5595 20.3481 14.2856 20.4615 14 20.4615C13.7144 20.4615 13.4405 20.3481 13.2385 20.1461C13.0365 19.9442 12.9231 19.6702 12.9231 19.3846V15.0769H8.61539C8.32977 15.0769 8.05585 14.9635 7.85389 14.7615C7.65193 14.5595 7.53847 14.2856 7.53847 14C7.53847 13.7144 7.65193 13.4405 7.85389 13.2385C8.05585 13.0365 8.32977 12.9231 8.61539 12.9231H12.9231V8.61538C12.9231 8.32977 13.0365 8.05585 13.2385 7.85388C13.4405 7.65192 13.7144 7.53846 14 7.53846C14.2856 7.53846 14.5595 7.65192 14.7615 7.85388C14.9635 8.05585 15.0769 8.32977 15.0769 8.61538V12.9231H19.3846C19.6702 12.9231 19.9442 13.0365 20.1461 13.2385C20.3481 13.4405 20.4615 13.7144 20.4615 14Z"
            fill="#35BBB8"
    />
</svg>