<svg width="23" height="23" viewBox="0 0 23 23" fill="none" xmlns="http://www.w3.org/2000/svg">
    <path d="M5.91797 10.5499C5.91797 8.01005 5.91797 6.74015 6.70699 5.95113C7.49601 5.16211 8.76591 5.16211 11.3057 5.16211H13.9996C16.5394 5.16211 17.8093 5.16211 18.5983 5.95113C19.3874 6.74015 19.3874 8.01005 19.3874 10.5499V15.0397C19.3874 17.5795 19.3874 18.8494 18.5983 19.6384C17.8093 20.4274 16.5394 20.4274 13.9996 20.4274H11.3057C8.76591 20.4274 7.49601 20.4274 6.70699 19.6384C5.91797 18.8494 5.91797 17.5795 5.91797 15.0397V10.5499Z" stroke="white" stroke-width="1.34694"/>
    <path d="M5.91653 17.7341C4.42875 17.7341 3.22266 16.528 3.22266 15.0402V9.65242C3.22266 6.26601 3.22266 4.5728 4.27468 3.52077C5.32671 2.46875 7.01991 2.46875 10.4063 2.46875H13.9982C15.486 2.46875 16.692 3.67484 16.692 5.16263" stroke="white" stroke-width="1.34694"/>
</svg>
