<svg
        width="80"
        height="80"
        viewBox="0 0 80 80"
        fill="none"
        xmlns="http://www.w3.org/2000/svg"
>
    <g clip-path="url(#clip0_1855_235)">
        <path
                d="M40 80C62.0914 80 80 62.0914 80 40C80 17.9086 62.0914 0 40 0C17.9086 0 0 17.9086 0 40C0 62.0914 17.9086 80 40 80Z"
                fill="url(#paint0_linear_1855_235)"
        />
        <path
                d="M18.0794 28.9405C18.0794 27.4134 19.3172 26.1756 20.8442 26.1756C22.3713 26.1756 23.6091 27.4134 23.6091 28.9405C23.6091 30.4675 22.3713 31.7053 20.8442 31.7053C19.3172 31.7053 18.0794 30.4675 18.0794 28.9405ZM55.6406 27.1244C57.1677 27.1244 58.4055 25.8866 58.4055 24.3595C58.4055 22.8325 57.1677 21.5947 55.6406 21.5947C54.1136 21.5947 52.8758 22.8325 52.8758 24.3595C52.8758 25.8864 54.1136 27.1244 55.6406 27.1244ZM51.0595 56.3908C49.5325 56.3908 48.2947 57.6286 48.2947 59.1556C48.2947 60.6827 49.5325 61.9205 51.0595 61.9205C52.5866 61.9205 53.8244 60.6827 53.8244 59.1556C53.8244 57.6286 52.5866 56.3908 51.0595 56.3908ZM40 24.7931C38.5761 24.7931 36.687 27.8798 35.7461 33.0878H44.2537C43.313 27.8798 41.4239 24.7931 40 24.7931ZM47.0595 33.0878H53.5431C51.7156 29.5217 48.5198 26.7686 44.6539 25.5228C45.0297 26.1883 45.3778 26.943 45.6933 27.7842C46.278 29.3431 46.7377 31.1397 47.0595 33.0878ZM34.3067 27.7842C34.6222 26.943 34.9703 26.1884 35.3461 25.5228C31.48 26.7686 28.2844 29.5216 26.4569 33.0878H32.9405C33.2623 31.1397 33.722 29.3431 34.3067 27.7842ZM44.8386 40C44.8386 38.5298 44.7666 37.1442 44.6377 35.8527H35.3623C35.2334 37.1442 35.1614 38.5298 35.1614 40C35.1614 41.4702 35.2334 42.8558 35.3623 44.1473H44.6377C44.7666 42.8558 44.8386 41.4702 44.8386 40ZM55.2069 40C55.2078 38.5976 55.0144 37.2019 54.632 35.8527H47.4139C47.5389 37.1955 47.6034 38.5856 47.6034 40C47.6034 41.4144 47.5389 42.8045 47.4139 44.1473H54.632C55.0145 42.7981 55.2079 41.4024 55.2069 40ZM24.7931 40C24.7922 41.4024 24.9856 42.7981 25.368 44.1473H32.5861C32.4611 42.8045 32.3966 41.4144 32.3966 40C32.3966 38.5856 32.4611 37.1955 32.5861 35.8527H25.368C24.9855 37.2019 24.7921 38.5976 24.7931 40ZM35.3461 54.4772C34.9703 53.8117 34.6222 53.057 34.3067 52.2158C33.722 50.6569 33.2625 48.8603 32.9405 46.9122H26.4569C28.2844 50.4784 31.48 53.2314 35.3461 54.4772ZM40 55.2069C41.4239 55.2069 43.313 52.1202 44.2539 46.9122H35.7463C36.687 52.1202 38.5761 55.2069 40 55.2069ZM53.5431 46.9122H47.0595C46.7377 48.8603 46.278 50.6569 45.6933 52.2158C45.3778 53.057 45.0297 53.8116 44.6539 54.4772C48.52 53.2314 51.7156 50.4784 53.5431 46.9122ZM25.1123 25.4281C29.0144 21.4234 34.3123 19.1711 40 19.1711C43.7906 19.1711 47.4114 20.1658 50.6081 22.0681C51.0019 21.2084 51.6084 20.4632 52.3702 19.903C48.663 17.6081 44.4338 16.4062 40 16.4062C36.2477 16.4062 32.6597 17.2617 29.3358 18.9488C26.9272 20.1713 24.7238 21.8223 22.8588 23.7905C23.7368 24.1361 24.5124 24.6997 25.1123 25.4281ZM40 60.8289C28.5148 60.8289 19.1711 51.4852 19.1711 40C19.1711 38.0845 19.4266 36.2083 19.9327 34.3952C18.9992 34.2392 18.1218 33.8453 17.3848 33.2516C16.7347 35.4297 16.4062 37.6902 16.4062 40C16.4062 46.302 18.8605 52.227 23.3167 56.6833C27.773 61.1395 33.698 63.5938 40 63.5938C42.3098 63.5938 44.5703 63.2653 46.7484 62.615C46.1547 61.8781 45.7609 61.0006 45.605 60.0672C43.7917 60.5734 41.9153 60.8289 40 60.8289ZM60.0972 27.6298C59.5369 28.3916 58.7917 28.998 57.932 29.3919C59.8342 32.5886 60.8289 36.2095 60.8289 40C60.8289 45.6877 58.5766 50.9856 54.5719 54.8877C55.3003 55.4876 55.8639 56.2632 56.2095 57.1413C58.1777 55.2764 59.8288 53.0728 61.0513 50.6642C62.7384 47.3403 63.5938 43.7523 63.5938 40C63.5938 35.5662 62.392 31.337 60.0972 27.6298Z"
                fill="url(#paint1_linear_1855_235)"
        />
    </g>
    <defs>
        <linearGradient
                id="paint0_linear_1855_235"
                x1="40"
                y1="80"
                x2="40"
                y2="-13.3333"
                gradientUnits="userSpaceOnUse"
        >
            <stop stop-color="#35BBB8" />
            <stop offset="0.503" stop-color="#E6FFFE" />
            <stop offset="1" stop-color="#E6F8F7" />
        </linearGradient>
        <linearGradient
                id="paint1_linear_1855_235"
                x1="40"
                y1="63.5938"
                x2="40"
                y2="16.4062"
                gradientUnits="userSpaceOnUse"
        >
            <stop stop-color="#016765" />
            <stop offset="0.794792" stop-color="#35BBB8" />
        </linearGradient>
        <clipPath id="clip0_1855_235">
            <rect width="80" height="80" fill="white" />
        </clipPath>
    </defs>
</svg>