<svg width="22" height="26" viewBox="0 0 22 26" fill="none" xmlns="http://www.w3.org/2000/svg">
  <path d="M9.06799 6.109C9.19825 6.04699 9.34072 6.01487 9.48499 6.015H15.53C16.1974 6.01051 16.8642 6.059 17.524 6.16C17.6947 6.18734 17.8643 6.22067 18.033 6.26C18.2723 6.31267 18.5083 6.37734 18.741 6.454C19.029 6.54826 19.3086 6.66633 19.577 6.807C19.7721 6.03845 19.7788 5.23417 19.5967 4.46244C19.4146 3.6907 19.0491 2.97429 18.531 2.374C17.381 1.061 15.305 0.500004 12.648 0.500004H4.93699C4.67402 0.499273 4.41948 0.592778 4.21952 0.763573C4.01955 0.934368 3.88739 1.17115 3.84699 1.431L0.635992 21.793C0.621123 21.8874 0.626869 21.9839 0.652836 22.0759C0.678803 22.1679 0.724375 22.2531 0.78642 22.3258C0.848465 22.3985 0.925512 22.4569 1.01227 22.497C1.09902 22.537 1.19343 22.5579 1.28899 22.558H6.05099L8.53099 6.829C8.55535 6.6743 8.61696 6.52783 8.71051 6.40223C8.80406 6.27663 8.92674 6.17565 9.06799 6.108V6.109Z" fill="#27346A"/>
  <path d="M18.5139 6.38003C18.3553 6.33403 18.1953 6.29302 18.0339 6.25702C17.8726 6.22102 17.7029 6.18769 17.5249 6.15703C16.8652 6.05538 16.1984 6.00656 15.5309 6.01102H9.48594C9.2561 6.01129 9.03389 6.09349 8.85922 6.24287C8.68455 6.39225 8.56886 6.59902 8.53294 6.82603L7.24794 14.976L7.21094 15.213C7.25123 14.9539 7.38282 14.7176 7.58195 14.5469C7.78108 14.3762 8.03465 14.2823 8.29694 14.282H10.5599C15.0039 14.282 18.4829 12.477 19.4999 7.25603C19.5299 7.10203 19.5559 6.95602 19.5789 6.80402C19.3105 6.66348 19.0309 6.54542 18.7429 6.45103C18.6669 6.42569 18.5899 6.40203 18.5139 6.38003Z" fill="#1F264F"/>
  <path d="M9.06799 6.109C9.19825 6.04699 9.34072 6.01487 9.48499 6.015H15.53C16.1974 6.01051 16.8642 6.059 17.524 6.16C17.6947 6.18734 17.8643 6.22067 18.033 6.26C18.2723 6.31267 18.5083 6.37734 18.741 6.454C19.029 6.54826 19.3086 6.66633 19.577 6.807C19.7721 6.03845 19.7788 5.23417 19.5967 4.46244C19.4146 3.6907 19.0491 2.97429 18.531 2.374C17.381 1.061 15.305 0.500004 12.648 0.500004H4.93699C4.67402 0.499273 4.41948 0.592778 4.21952 0.763573C4.01955 0.934368 3.88739 1.17115 3.84699 1.431L0.635992 21.793C0.621123 21.8874 0.626869 21.9839 0.652836 22.0759C0.678803 22.1679 0.724375 22.2531 0.78642 22.3258C0.848465 22.3985 0.925512 22.4569 1.01227 22.497C1.09902 22.537 1.19343 22.5579 1.28899 22.558H6.05099L8.53099 6.829C8.55535 6.6743 8.61696 6.52783 8.71051 6.40223C8.80406 6.27663 8.92674 6.17565 9.06799 6.108V6.109Z" fill="#27346A"/>
  <path d="M19.499 7.25613C18.483 12.4771 14.999 14.2831 10.559 14.2831H8.29699C8.0347 14.2834 7.78113 14.3773 7.582 14.548C7.38287 14.7187 7.25129 14.955 7.21099 15.2141L5.72399 24.6421C5.71083 24.7248 5.71577 24.8094 5.73846 24.89C5.76116 24.9706 5.80107 25.0454 5.85545 25.1091C5.90982 25.1728 5.97737 25.2239 6.05343 25.259C6.12949 25.294 6.21224 25.3122 6.29599 25.3121H10.309C10.5388 25.3119 10.761 25.2297 10.9357 25.0803C11.1104 24.9309 11.2261 24.7241 11.262 24.4971L11.301 24.2971L12.057 19.5041L12.106 19.2391C12.1417 19.012 12.2574 18.8052 12.4321 18.6557C12.6068 18.5063 12.8291 18.4242 13.059 18.4241H13.659C17.546 18.4241 20.59 16.8451 21.48 12.2771C21.851 10.3681 21.659 8.77713 20.68 7.65513C20.368 7.30785 19.9952 7.02047 19.58 6.80713C19.555 6.95213 19.53 7.10113 19.499 7.25613Z" fill="#2790C3"/>
  </svg>