<svg width="18" height="18" viewBox="0 0 18 18" fill="none" xmlns="http://www.w3.org/2000/svg">
    <g clip-path="url(#clip0_1986_514)">
        <path d="M6.29688 5.79299C6.30549 4.24498 6.37414 3.40663 6.92102 2.85975C7.54639 2.23438 8.55292 2.23438 10.566 2.23438H11.2777C13.2908 2.23438 14.2973 2.23438 14.9227 2.85975C15.5481 3.48513 15.5481 4.49166 15.5481 6.50472V12.1985C15.5481 14.2116 15.5481 15.2181 14.9227 15.8435C14.2973 16.4689 13.2908 16.4689 11.2777 16.4689H10.566C8.55292 16.4689 7.54639 16.4689 6.92102 15.8435C6.37414 15.2966 6.30549 14.4583 6.29688 12.9102" stroke="white" stroke-width="1.06759" stroke-linecap="round"/>
        <path d="M6.2969 14.6895C4.61935 14.6895 3.78058 14.6895 3.25943 14.1684C2.73828 13.6472 2.73828 12.8085 2.73828 11.1309V7.57229C2.73828 5.89474 2.73828 5.05597 3.25943 4.53482C3.78058 4.01367 4.61935 4.01367 6.2969 4.01367" stroke="white" stroke-width="1.06759"/>
        <path d="M11.2805 9.35216L4.875 9.35216M4.875 9.35216L6.29845 10.7756M4.875 9.35216L6.29845 7.92871" stroke="white" stroke-width="1.06759" stroke-linecap="round" stroke-linejoin="round"/>
    </g>
    <defs>
        <clipPath id="clip0_1986_514">
            <rect x="0.601562" y="0.810547" width="17.0814" height="17.0814" rx="3.55862" fill="white"/>
        </clipPath>
    </defs>
</svg>
