<svg
        width="80"
        height="80"
        viewBox="0 0 80 80"
        fill="none"
        xmlns="http://www.w3.org/2000/svg"
>
    <g clip-path="url(#clip0_1855_219)">
        <path
                d="M40 80C62.0914 80 80 62.0914 80 40C80 17.9086 62.0914 0 40 0C17.9086 0 0 17.9086 0 40C0 62.0914 17.9086 80 40 80Z"
                fill="url(#paint0_linear_1855_219)"
        />
        <path
                d="M29.862 35.8523C28.8456 35.8523 28.0188 35.0255 28.0188 34.0091C28.0188 32.9927 28.8456 32.1658 29.862 32.1658C30.8784 32.1658 31.7053 32.9927 31.7053 34.0091C31.7053 35.0255 30.8784 35.8523 29.862 35.8523ZM50.5988 36.7739H55.2069V33.0873H50.5988V36.7739ZM29.862 38.6172C27.5459 38.6172 25.5878 40.1784 24.9847 42.3038H34.7394C34.1362 40.1784 32.1781 38.6172 29.862 38.6172ZM63.5938 25.2536V54.7458C63.5938 55.1124 63.4481 55.4641 63.1888 55.7234C62.9296 55.9826 62.5779 56.1283 62.2113 56.1283H17.7887C17.4221 56.1283 17.0704 55.9826 16.8112 55.7234C16.5519 55.4641 16.4063 55.1124 16.4062 54.7458V25.2536C16.4062 24.8869 16.5519 24.5353 16.8112 24.276C17.0704 24.0168 17.4221 23.8711 17.7887 23.8711H62.2114C62.578 23.8711 62.9296 24.0168 63.1889 24.2761C63.4481 24.5353 63.5938 24.887 63.5938 25.2536ZM40.4608 43.6863C40.4608 44.0529 40.6064 44.4046 40.8657 44.6638C41.125 44.9231 41.4766 45.0688 41.8433 45.0688H43.6866C44.0532 45.0688 44.4049 44.9231 44.6641 44.6638C44.9234 44.4046 45.0691 44.0529 45.0691 43.6863C45.0691 43.3196 44.9234 42.9679 44.6641 42.7087C44.4049 42.4494 44.0532 42.3038 43.6866 42.3038H41.8433C41.4766 42.3038 41.125 42.4494 40.8657 42.7087C40.6064 42.9679 40.4608 43.3196 40.4608 43.6863ZM37.6959 49.2159C37.6959 49.0344 37.6602 48.8546 37.5907 48.6869C37.5212 48.5191 37.4194 48.3667 37.291 48.2384C37.1626 48.11 37.0102 48.0082 36.8425 47.9387C36.6748 47.8692 36.495 47.8334 36.3134 47.8334H23.4106C23.044 47.8334 22.6923 47.9791 22.433 48.2384C22.1738 48.4976 22.0281 48.8493 22.0281 49.2159C22.0281 49.5826 22.1738 49.9342 22.433 50.1935C22.6923 50.4528 23.044 50.5984 23.4106 50.5984H36.3134C36.6801 50.5984 37.0317 50.4528 37.291 50.1935C37.5503 49.9342 37.6959 49.5826 37.6959 49.2159ZM37.6959 43.6863C37.6959 40.6975 36.013 38.0952 33.5455 36.7748C34.1466 35.9782 34.4713 35.0071 34.4703 34.0091C34.4703 31.4681 32.4031 29.4009 29.8622 29.4009C27.3212 29.4009 25.2541 31.4681 25.2541 34.0091C25.253 35.0071 25.5778 35.9782 26.1789 36.7748C23.7114 38.0952 22.0284 40.6975 22.0284 43.6863C22.0284 44.0529 22.1741 44.4046 22.4334 44.6638C22.6926 44.9231 23.0443 45.0688 23.4109 45.0688H36.3138C36.6804 45.0687 37.0319 44.923 37.2911 44.6637C37.5503 44.4045 37.6959 44.0529 37.6959 43.6863ZM57.9719 49.2159C57.9719 49.0344 57.9361 48.8546 57.8666 48.6869C57.7972 48.5191 57.6953 48.3667 57.5669 48.2384C57.4386 48.11 57.2862 48.0082 57.1184 47.9387C56.9507 47.8692 56.7709 47.8334 56.5894 47.8334H41.8433C41.4766 47.8334 41.125 47.9791 40.8657 48.2384C40.6064 48.4976 40.4608 48.8493 40.4608 49.2159C40.4608 49.5826 40.6064 49.9342 40.8657 50.1935C41.125 50.4528 41.4766 50.5984 41.8433 50.5984H56.5894C56.956 50.5984 57.3077 50.4528 57.5669 50.1935C57.8262 49.9342 57.9719 49.5826 57.9719 49.2159ZM57.9719 43.6863C57.9719 43.3196 57.8262 42.9679 57.5669 42.7087C57.3077 42.4494 56.956 42.3038 56.5894 42.3038H49.2163C48.8496 42.3038 48.4979 42.4494 48.2387 42.7087C47.9794 42.9679 47.8337 43.3196 47.8337 43.6863C47.8337 44.0529 47.9794 44.4046 48.2387 44.6638C48.4979 44.9231 48.8496 45.0688 49.2163 45.0688H56.5894C56.956 45.0687 57.3076 44.923 57.5669 44.6637C57.8261 44.4045 57.9718 44.0529 57.9719 43.6863ZM57.9719 31.705C57.9719 31.5234 57.9361 31.3437 57.8666 31.1759C57.7972 31.0082 57.6953 30.8558 57.5669 30.7274C57.4386 30.599 57.2862 30.4972 57.1184 30.4277C56.9507 30.3583 56.7709 30.3225 56.5894 30.3225H49.2163C49.0347 30.3225 48.8549 30.3583 48.6872 30.4277C48.5195 30.4972 48.3671 30.599 48.2387 30.7274C48.1103 30.8558 48.0085 31.0082 47.939 31.1759C47.8695 31.3437 47.8337 31.5234 47.8337 31.705V38.1564C47.8337 38.338 47.8695 38.5177 47.939 38.6855C48.0085 38.8532 48.1103 39.0056 48.2387 39.134C48.3671 39.2624 48.5195 39.3642 48.6872 39.4337C48.8549 39.5031 49.0347 39.5389 49.2163 39.5389H56.5894C56.956 39.5389 57.3077 39.3933 57.5669 39.134C57.8262 38.8747 57.9719 38.5231 57.9719 38.1564V31.705Z"
                fill="url(#paint1_linear_1855_219)"
        />
    </g>
    <defs>
        <linearGradient
                id="paint0_linear_1855_219"
                x1="40"
                y1="80"
                x2="40"
                y2="-13.3333"
                gradientUnits="userSpaceOnUse"
        >
            <stop stop-color="#35BBB8" />
            <stop offset="0.503" stop-color="#E6FFFE" />
            <stop offset="1" stop-color="#E6F8F7" />
        </linearGradient>
        <linearGradient
                id="paint1_linear_1855_219"
                x1="40"
                y1="56.1283"
                x2="40"
                y2="23.8711"
                gradientUnits="userSpaceOnUse"
        >
            <stop stop-color="#016765" />
            <stop offset="0.794792" stop-color="#35BBB8" />
        </linearGradient>
        <clipPath id="clip0_1855_219">
            <rect width="80" height="80" fill="white" />
        </clipPath>
    </defs>
</svg>