<svg
        width="80"
        height="80"
        viewBox="0 0 80 80"
        fill="none"
        xmlns="http://www.w3.org/2000/svg"
>
    <g clip-path="url(#clip0_1855_227)">
        <path
                d="M40 80C62.0914 80 80 62.0914 80 40C80 17.9086 62.0914 0 40 0C17.9086 0 0 17.9086 0 40C0 62.0914 17.9086 80 40 80Z"
                fill="url(#paint0_linear_1855_227)"
        />
        <path
                d="M37.2242 41.3878C44.112 41.3878 49.715 35.7848 49.715 28.897C49.715 22.0091 44.112 16.4062 37.2242 16.4062C30.3364 16.4062 24.7334 22.0092 24.7334 28.897C24.7334 35.7848 30.3364 41.3878 37.2242 41.3878ZM37.2242 30.2848C34.9283 30.2848 33.0606 28.4172 33.0606 26.1212C33.0606 23.8253 34.9283 21.9577 37.2242 21.9577C39.5202 21.9577 41.3878 23.8253 41.3878 26.1212C41.3878 26.8884 40.767 27.5091 40 27.5091C39.233 27.5091 38.6122 26.8883 38.6122 26.1212C38.6122 25.3555 37.9902 24.7334 37.2244 24.7334C36.4586 24.7334 35.8366 25.3555 35.8366 26.1212C35.8366 26.887 36.4586 27.5091 37.2244 27.5091C39.5203 27.5091 41.388 29.3767 41.388 31.6727C41.388 33.9686 39.5203 35.8363 37.2244 35.8363C34.9284 35.8363 33.0608 33.9686 33.0608 31.6727C33.0607 31.4904 33.0965 31.3099 33.1662 31.1414C33.2359 30.973 33.3381 30.8199 33.467 30.691C33.5959 30.5621 33.7489 30.4599 33.9174 30.3902C34.0858 30.3205 34.2663 30.2846 34.4486 30.2847C34.6309 30.2846 34.8114 30.3204 34.9798 30.3901C35.1483 30.4599 35.3013 30.5621 35.4302 30.691C35.5591 30.8199 35.6613 30.973 35.731 31.1414C35.8007 31.3098 35.8365 31.4904 35.8364 31.6727C35.8364 32.4384 36.4584 33.0605 37.2242 33.0605C37.99 33.0605 38.612 32.4384 38.612 31.6727C38.6122 30.907 37.99 30.2848 37.2242 30.2848ZM62.2059 30.2848H53.8787C53.6965 30.2847 53.5159 30.3206 53.3475 30.3903C53.1791 30.46 53.026 30.5622 52.8971 30.6912C52.7682 30.8201 52.666 30.9731 52.5963 31.1416C52.5266 31.31 52.4908 31.4905 52.4909 31.6728C52.4908 31.8551 52.5267 32.0356 52.5964 32.204C52.6661 32.3725 52.7683 32.5255 52.8972 32.6544C53.0261 32.7833 53.1791 32.8855 53.3475 32.9552C53.516 33.0249 53.6965 33.0607 53.8787 33.0606H58.8556L40 51.9161L29.8783 41.7944C29.7495 41.6655 29.5965 41.5632 29.4281 41.4934C29.2598 41.4236 29.0793 41.3877 28.897 41.3877C28.7148 41.3877 28.5343 41.4236 28.3659 41.4934C28.1976 41.5632 28.0446 41.6655 27.9158 41.7944L16.8128 52.8973C16.6837 53.026 16.5814 53.179 16.5116 53.3474C16.4418 53.5158 16.406 53.6963 16.4063 53.8786V62.2058C16.4061 62.3881 16.442 62.5686 16.5117 62.737C16.5814 62.9054 16.6836 63.0585 16.8125 63.1873C16.9414 63.3162 17.0944 63.4185 17.2628 63.4882C17.4313 63.5579 17.6118 63.5937 17.7941 63.5936H23.3455C23.5277 63.5937 23.7083 63.5579 23.8767 63.4882C24.0451 63.4185 24.1981 63.3162 24.327 63.1873C24.4559 63.0585 24.5581 62.9054 24.6279 62.737C24.6976 62.5686 24.7334 62.3881 24.7333 62.2058V48.9017L27.5091 46.1259V62.2058C27.509 62.3881 27.5448 62.5686 27.6145 62.737C27.6842 62.9054 27.7864 63.0585 27.9153 63.1873C28.0442 63.3162 28.1972 63.4185 28.3657 63.4882C28.5341 63.5579 28.7146 63.5937 28.8969 63.5936H34.4483C34.6306 63.5937 34.8111 63.5579 34.9795 63.4882C35.1479 63.4185 35.301 63.3162 35.4298 63.1873C35.5587 63.0585 35.661 62.9054 35.7307 62.737C35.8004 62.5686 35.8362 62.3881 35.8361 62.2058V51.6775L38.6119 54.4533V62.2058C38.6118 62.3881 38.6476 62.5686 38.7173 62.737C38.787 62.9054 38.8892 63.0585 39.0181 63.1873C39.147 63.3162 39.3 63.4185 39.4685 63.4882C39.6369 63.5579 39.8174 63.5937 39.9997 63.5936H45.5511C45.7334 63.5937 45.9139 63.5579 46.0823 63.4882C46.2507 63.4185 46.4038 63.3162 46.5327 63.1873C46.6615 63.0585 46.7638 62.9054 46.8335 62.737C46.9032 62.5686 46.939 62.3881 46.9389 62.2058V48.9017L49.7147 46.1259V62.2058C49.7146 62.3881 49.7504 62.5686 49.8201 62.737C49.8898 62.9054 49.9921 63.0585 50.1209 63.1873C50.2498 63.3162 50.4029 63.4185 50.5713 63.4882C50.7397 63.5579 50.9202 63.5937 51.1025 63.5936H56.6539C56.8362 63.5937 57.0167 63.5579 57.1851 63.4882C57.3535 63.4185 57.5066 63.3162 57.6355 63.1873C57.7644 63.0585 57.8666 62.9054 57.9363 62.737C58.006 62.5686 58.0418 62.3881 58.0417 62.2058V37.7989L60.8175 35.0231V40C60.8174 40.1823 60.8532 40.3628 60.9229 40.5312C60.9926 40.6996 61.0949 40.8527 61.2238 40.9816C61.3526 41.1105 61.5057 41.2127 61.6741 41.2824C61.8425 41.3521 62.023 41.3879 62.2053 41.3878C62.3876 41.3879 62.5681 41.3521 62.7365 41.2824C62.9049 41.2127 63.058 41.1105 63.1869 40.9816C63.3158 40.8527 63.418 40.6996 63.4877 40.5312C63.5574 40.3628 63.5932 40.1823 63.5931 40V31.6728C63.5934 31.4905 63.5576 31.31 63.488 31.1416C63.4184 30.9731 63.3162 30.8201 63.1874 30.6911C63.0585 30.5622 62.9055 30.46 62.7371 30.3903C62.5687 30.3205 62.3882 30.2847 62.2059 30.2848Z"
                fill="url(#paint1_linear_1855_227)"
        />
    </g>
    <defs>
        <linearGradient
                id="paint0_linear_1855_227"
                x1="40"
                y1="80"
                x2="40"
                y2="-13.3333"
                gradientUnits="userSpaceOnUse"
        >
            <stop stop-color="#35BBB8" />
            <stop offset="0.503" stop-color="#E6FFFE" />
            <stop offset="1" stop-color="#E6F8F7" />
        </linearGradient>
        <linearGradient
                id="paint1_linear_1855_227"
                x1="39.9997"
                y1="63.5936"
                x2="39.9997"
                y2="16.4062"
                gradientUnits="userSpaceOnUse"
        >
            <stop stop-color="#016765" />
            <stop offset="0.794792" stop-color="#35BBB8" />
        </linearGradient>
        <clipPath id="clip0_1855_227">
            <rect width="80" height="80" fill="white" />
        </clipPath>
    </defs>
</svg>