<svg width="140" height="140" viewBox="0 0 140 140" fill="none" xmlns="http://www.w3.org/2000/svg">
<rect width="140" height="140" />
<path d="M129.167 106.143L129.171 106.15L129.176 106.157C129.715 107.056 130 108.084 130 109.132C130 110.181 129.715 111.209 129.176 112.107L129.171 112.115L129.167 112.122C128.658 113.004 127.926 113.735 127.044 114.242C126.163 114.749 125.163 115.014 124.146 115.01H124.142H104.708H104.138L103.848 115.5L93.9612 132.169L93.9557 132.179C93.7005 132.62 93.378 133.019 92.9998 133.361L92.9877 133.371L92.976 133.383C91.8917 134.429 90.4419 135.009 88.9362 135H88.9302H88.0497C87.2061 134.881 86.399 134.576 85.6865 134.107C84.9588 133.628 84.3488 132.991 83.9022 132.242C83.9009 132.24 83.8997 132.238 83.8984 132.236L70.8367 109.548L69.974 108.05L69.1054 109.545L56.0365 132.042L56.0354 132.044C55.595 132.805 54.9864 133.456 54.2562 133.947C53.5442 134.425 52.7348 134.738 51.8871 134.864H51.014C49.5282 134.858 48.1019 134.279 47.0319 133.247L47.0231 133.239L47.0141 133.23C46.6099 132.859 46.2606 132.432 45.9769 131.963C45.9763 131.962 45.9757 131.961 45.9751 131.96L36.0926 115.297L35.8021 114.807H35.2325L15.7984 114.807L15.7944 114.807C14.7795 114.811 13.7814 114.547 12.9009 114.042C12.0204 113.537 11.2885 112.808 10.7791 111.929C10.2698 111.05 10.001 110.052 10 109.036C9.999 108.02 10.2658 107.022 10.7734 106.142L29.1234 74.431L29.4045 73.9452L29.1363 73.4522C25.4615 66.6983 23.547 59.1264 23.5699 51.4362V51.4332C23.5699 39.1181 28.4586 27.3076 37.1604 18.5997C45.8622 9.89189 57.6642 5 69.9701 5C82.276 5 94.078 9.89189 102.78 18.5997C111.482 27.3076 116.37 39.1181 116.37 51.4332L116.37 51.4362C116.393 59.1264 114.479 66.6983 110.804 73.4522L110.536 73.9452L110.817 74.431L129.167 106.143ZM50.0836 116.523L50.952 117.978L51.806 116.514L62.1663 98.7606L62.8817 97.5348L61.4866 97.2737C52.5767 95.6057 44.35 91.3627 37.8226 85.0686L36.9012 84.18L36.2621 85.2892L26.5789 102.094L25.715 103.593H27.4453H39.1541C40.1442 103.604 41.115 103.87 41.973 104.365C42.8323 104.86 43.5495 105.569 44.0553 106.423L44.057 106.426L50.0836 116.523ZM100.79 103.593L100.798 103.593L112.512 103.39L114.208 103.36L113.361 101.891L103.678 85.0859L103.04 83.9791L102.119 84.8639C95.5951 91.1289 87.3974 95.3688 78.517 97.0712L77.1409 97.335L77.8377 98.5506L88.1303 116.507L88.9804 117.991L89.8566 116.523L95.8832 106.426L95.8849 106.423C96.3907 105.569 97.1079 104.86 97.9672 104.365C98.8265 103.869 99.7988 103.603 100.79 103.593ZM50.6042 80.4354C56.3364 84.2683 63.0758 86.3141 69.9701 86.3141C79.2151 86.3141 88.0812 82.639 94.6182 76.0975C101.155 69.556 104.827 60.684 104.827 51.4332C104.827 44.5346 102.783 37.7908 98.9531 32.0547C95.123 26.3186 89.6791 21.8477 83.3096 19.2076C76.9402 16.5675 69.9314 15.8767 63.1697 17.2226C56.4079 18.5685 50.1969 21.8907 45.322 26.769C40.4472 31.6472 37.1275 37.8623 35.7825 44.6284C34.4376 51.3945 35.1279 58.4078 37.7661 64.7813C40.4042 71.1549 44.8719 76.6026 50.6042 80.4354Z" fill="#D26500" stroke="#D26500" stroke-width="2"/>
</svg>
