<svg width="14" height="10" viewBox="0 0 14 10" fill="none" xmlns="http://www.w3.org/2000/svg">
    <path d="M1.98558 3.90676H4.73892H4.73904V3.96926C4.95221 3.96885 5.15896 4.04048 5.32418 4.17198C5.48939 4.30349 5.60288 4.48676 5.64538 4.69067L1.98558 3.90676ZM1.98558 3.90676V3.13069H12.0144V3.90676H9.26096H9.26093C9.03414 3.90688 8.81417 3.98346 8.63825 4.12384C8.46237 4.2642 8.34126 4.45978 8.29579 4.67768C8.2342 4.96761 8.07206 5.22826 7.83631 5.41556C7.60053 5.60289 7.30559 5.70532 7.00115 5.70532C6.69672 5.70532 6.40178 5.60289 6.166 5.41556C5.93028 5.22828 5.76816 4.96768 5.70655 4.6778L1.98558 3.90676ZM11.6154 0.30249H2.38462C2.0013 0.30249 1.63338 0.451118 1.36189 0.71614C1.09034 0.981213 0.9375 1.34105 0.9375 1.71659V8.02405C0.9375 8.39959 1.09034 8.75943 1.36189 9.0245C1.63338 9.28953 2.0013 9.43815 2.38462 9.43815H11.6154C11.9987 9.43815 12.3666 9.28953 12.6381 9.0245C12.9097 8.75943 13.0625 8.39959 13.0625 8.02405V1.71659C13.0625 1.34105 12.9097 0.981213 12.6381 0.71614C12.3666 0.451118 11.9987 0.30249 11.6154 0.30249ZM2.38462 1.32856H11.6154C11.7217 1.32856 11.8234 1.3698 11.8981 1.44274C11.9728 1.51563 12.0144 1.61417 12.0144 1.71659V2.10462H1.98558V1.71659C1.98558 1.61417 2.02724 1.51563 2.10192 1.44274C2.17664 1.3698 2.2783 1.32856 2.38462 1.32856ZM11.6154 8.41209H2.38462C2.2783 8.41209 2.17664 8.37085 2.10192 8.2979C2.02724 8.22501 1.98558 8.12647 1.98558 8.02405V4.93282H4.68824C4.80514 5.43623 5.09104 5.88737 5.50088 6.21415C5.92414 6.55164 6.45363 6.73583 6.99971 6.73583C7.54579 6.73583 8.07529 6.55164 8.49854 6.21415C8.90838 5.88737 9.19428 5.43623 9.31118 4.93282H12.0144V8.02405C12.0144 8.12647 11.9728 8.22501 11.8981 8.29791C11.8234 8.37085 11.7217 8.41209 11.6154 8.41209Z" fill="white" stroke="#201D57" stroke-width="0.125"/>
</svg>
