<svg width="10" height="11" viewBox="0 0 10 11" fill="none" xmlns="http://www.w3.org/2000/svg">
    <path d="M5 0.163086C4.01109 0.163086 3.0444 0.456331 2.22215 1.00574C1.3999 1.55514 0.759043 2.33604 0.380605 3.24967C0.00216642 4.1633 -0.0968502 5.16863 0.0960758 6.13854C0.289002 7.10844 0.765206 7.99936 1.46447 8.69862C2.16373 9.39788 3.05465 9.87408 4.02455 10.067C4.99445 10.2599 5.99979 10.1609 6.91342 9.78248C7.82705 9.40404 8.60794 8.76318 9.15735 7.94094C9.70676 7.11869 10 6.15199 10 5.16308C9.9986 3.83743 9.47137 2.56648 8.53399 1.6291C7.59661 0.691719 6.32565 0.164486 5 0.163086ZM7.19519 4.28135L4.50289 6.97366C4.46717 7.00942 4.42475 7.03779 4.37806 7.05715C4.33136 7.0765 4.28131 7.08646 4.23077 7.08646C4.18023 7.08646 4.13018 7.0765 4.08349 7.05715C4.03679 7.03779 3.99438 7.00942 3.95866 6.97366L2.80481 5.81982C2.73264 5.74765 2.6921 5.64976 2.6921 5.5477C2.6921 5.44564 2.73264 5.34775 2.80481 5.27558C2.87698 5.20342 2.97486 5.16287 3.07692 5.16287C3.17899 5.16287 3.27687 5.20342 3.34904 5.27558C3.83595 5.76276 4.62566 5.76283 5.11265 5.27574L6.65096 3.73712C6.6867 3.70139 6.72912 3.67304 6.77581 3.6537C6.8225 3.63436 6.87254 3.62441 6.92308 3.62441C6.97361 3.62441 7.02366 3.63436 7.07035 3.6537C7.11703 3.67304 7.15946 3.70139 7.19519 3.73712C7.23093 3.77286 7.25927 3.81528 7.27861 3.86197C7.29795 3.90866 7.30791 3.9587 7.30791 4.00924C7.30791 4.05978 7.29795 4.10982 7.27861 4.15651C7.25927 4.2032 7.23093 4.24562 7.19519 4.28135Z" fill="white"/>
</svg>
