<svg width="32" height="33" viewBox="0 0 32 33" fill="none" xmlns="http://www.w3.org/2000/svg">
    <path d="M29.65 19.4838C29.5665 19.2507 29.4684 19.0232 29.3563 18.8025L24.1575 6.975C24.1083 6.86109 24.0379 6.75758 23.95 6.67C23.5786 6.29847 23.1376 6.00375 22.6522 5.80267C22.1668 5.6016 21.6466 5.49811 21.1213 5.49811C20.5959 5.49811 20.0757 5.6016 19.5903 5.80267C19.1049 6.00375 18.6639 6.29847 18.2925 6.67C18.1056 6.85709 18.0005 7.11057 18 7.375V10.5H14V7.375C14.0001 7.24364 13.9743 7.11355 13.9241 6.99215C13.8739 6.87076 13.8003 6.76044 13.7075 6.6675C13.3361 6.29597 12.8951 6.00125 12.4097 5.80017C11.9243 5.5991 11.4041 5.49561 10.8788 5.49561C10.3534 5.49561 9.83317 5.5991 9.34781 5.80017C8.86244 6.00125 8.42145 6.29597 8.05 6.6675C7.9621 6.75508 7.89168 6.85859 7.8425 6.9725L2.64375 18.8C2.53161 19.0207 2.4335 19.2482 2.35 19.4813C2.05563 20.3049 1.9449 21.183 2.02558 22.054C2.10626 22.9249 2.37639 23.7677 2.81706 24.5233C3.25772 25.2789 3.85826 25.929 4.5766 26.428C5.29494 26.9271 6.11372 27.2631 6.97557 27.4124C7.83742 27.5618 8.7215 27.5209 9.56588 27.2926C10.4103 27.0643 11.1945 26.6542 11.8637 26.0909C12.5329 25.5277 13.0709 24.8249 13.4399 24.0319C13.8089 23.2388 14.0001 22.3747 14 21.5V12.5H18V21.5C17.9996 22.3748 18.1904 23.2391 18.5592 24.0324C18.928 24.8256 19.4658 25.5287 20.1349 26.0922C20.804 26.6558 21.5882 27.0662 22.4326 27.2947C23.277 27.5232 24.1612 27.5643 25.0232 27.4151C25.8852 27.266 26.7041 26.9301 27.4226 26.4311C28.1411 25.9321 28.7418 25.282 29.1826 24.5263C29.6234 23.7707 29.8937 22.9278 29.9744 22.0568C30.0551 21.1857 29.9444 20.3075 29.65 19.4838ZM9.58875 7.96875C9.92215 7.68803 10.3381 7.5239 10.7734 7.50134C11.2086 7.47877 11.6394 7.59901 12 7.84375V17.0325C11.2193 16.3314 10.268 15.8479 9.24147 15.6302C8.21498 15.4126 7.14931 15.4686 6.15125 15.7925L9.58875 7.96875ZM8 25.5C7.20888 25.5 6.43552 25.2654 5.77772 24.8259C5.11992 24.3864 4.60723 23.7616 4.30448 23.0307C4.00173 22.2998 3.92252 21.4956 4.07686 20.7196C4.2312 19.9437 4.61216 19.231 5.17157 18.6716C5.73098 18.1122 6.44372 17.7312 7.21964 17.5769C7.99556 17.4225 8.79983 17.5017 9.53073 17.8045C10.2616 18.1072 10.8864 18.6199 11.3259 19.2777C11.7654 19.9355 12 20.7089 12 21.5C12 22.5609 11.5786 23.5783 10.8284 24.3284C10.0783 25.0786 9.06087 25.5 8 25.5ZM20 7.8425C20.3606 7.59776 20.7914 7.47752 21.2266 7.50009C21.6619 7.52265 22.0779 7.68678 22.4112 7.9675L25.8487 15.79C24.8506 15.4662 23.7849 15.4105 22.7584 15.6283C21.7318 15.8462 20.7806 16.33 20 17.0313V7.8425ZM24 25.5C23.2089 25.5 22.4355 25.2654 21.7777 24.8259C21.1199 24.3864 20.6072 23.7616 20.3045 23.0307C20.0017 22.2998 19.9225 21.4956 20.0769 20.7196C20.2312 19.9437 20.6122 19.231 21.1716 18.6716C21.731 18.1122 22.4437 17.7312 23.2196 17.5769C23.9956 17.4225 24.7998 17.5017 25.5307 17.8045C26.2616 18.1072 26.8864 18.6199 27.3259 19.2777C27.7654 19.9355 28 20.7089 28 21.5C28 22.5609 27.5786 23.5783 26.8284 24.3284C26.0783 25.0786 25.0609 25.5 24 25.5Z" fill="#201D56" stroke="#201D56" stroke-width="0.5"/>
</svg>
