<svg width="20" height="18" viewBox="0 0 20 18" fill="none" xmlns="http://www.w3.org/2000/svg">
    <path d="M9.63965 0C7.76073 0 5.924 0.527841 4.36173 1.51677C2.79947 2.50571 1.58183 3.91131 0.862797 5.55585C0.143765 7.20038 -0.044367 9.00998 0.322193 10.7558C0.688752 12.5016 1.59354 14.1053 2.92214 15.364C4.25074 16.6226 5.94347 17.4798 7.78629 17.8271C9.62911 18.1743 11.5392 17.9961 13.2751 17.3149C15.011 16.6337 16.4947 15.4802 17.5386 14.0001C18.5825 12.5201 19.1396 10.78 19.1396 9C19.137 6.61382 18.1352 4.3261 16.3542 2.63882C14.5732 0.95154 12.1584 0.00251984 9.63965 0ZM14.755 9.69231H9.63965C9.44584 9.69231 9.25996 9.61937 9.12292 9.48953C8.98587 9.3597 8.90888 9.18361 8.90888 9V4.15385C8.90888 3.97023 8.98587 3.79414 9.12292 3.66431C9.25996 3.53448 9.44584 3.46154 9.63965 3.46154C9.83346 3.46154 10.0193 3.53448 10.1564 3.66431C10.2934 3.79414 10.3704 3.97023 10.3704 4.15385V8.30769H14.755C14.9488 8.30769 15.1347 8.38063 15.2718 8.51046C15.4088 8.6403 15.4858 8.81639 15.4858 9C15.4858 9.18361 15.4088 9.3597 15.2718 9.48953C15.1347 9.61937 14.9488 9.69231 14.755 9.69231Z" fill="#201D56"/>
</svg>
