<svg width="31" height="31" viewBox="0 0 31 31" fill="none" xmlns="http://www.w3.org/2000/svg">
    <path d="M21.1128 11.5743L17.1856 15.5L21.1128 19.4257C21.2236 19.5364 21.3114 19.668 21.3714 19.8127C21.4313 19.9574 21.4622 20.1126 21.4622 20.2692C21.4622 20.4259 21.4313 20.581 21.3714 20.7258C21.3114 20.8705 21.2236 21.002 21.1128 21.1128C21.002 21.2236 20.8705 21.3114 20.7258 21.3714C20.581 21.4313 20.4259 21.4622 20.2692 21.4622C20.1126 21.4622 19.9574 21.4313 19.8127 21.3714C19.668 21.3114 19.5365 21.2236 19.4257 21.1128L15.5 17.1856L11.5743 21.1128C11.4636 21.2236 11.332 21.3114 11.1873 21.3714C11.0426 21.4313 10.8874 21.4622 10.7308 21.4622C10.5741 21.4622 10.419 21.4313 10.2742 21.3714C10.1295 21.3114 9.99799 21.2236 9.88722 21.1128C9.77644 21.002 9.68857 20.8705 9.62861 20.7258C9.56866 20.581 9.5378 20.4259 9.5378 20.2692C9.5378 20.1126 9.56866 19.9574 9.62861 19.8127C9.68857 19.668 9.77644 19.5364 9.88722 19.4257L13.8144 15.5L9.88722 11.5743C9.66349 11.3506 9.5378 11.0472 9.5378 10.7308C9.5378 10.4144 9.66349 10.1109 9.88722 9.88721C10.1109 9.66348 10.4144 9.5378 10.7308 9.5378C11.0472 9.5378 11.3506 9.66348 11.5743 9.88721L15.5 13.8144L19.4257 9.88721C19.5365 9.77643 19.668 9.68856 19.8127 9.62861C19.9574 9.56865 20.1126 9.5378 20.2692 9.5378C20.4259 9.5378 20.581 9.56865 20.7258 9.62861C20.8705 9.68856 21.002 9.77643 21.1128 9.88721C21.2236 9.99799 21.3114 10.1295 21.3714 10.2742C21.4313 10.419 21.4622 10.5741 21.4622 10.7308C21.4622 10.8874 21.4313 11.0426 21.3714 11.1873C21.3114 11.332 21.2236 11.4635 21.1128 11.5743ZM31 15.5C31 18.5656 30.0909 21.5624 28.3878 24.1113C26.6846 26.6603 24.2638 28.647 21.4316 29.8201C18.5993 30.9933 15.4828 31.3002 12.4761 30.7022C9.4694 30.1041 6.70756 28.6279 4.53985 26.4601C2.37214 24.2924 0.895906 21.5306 0.297835 18.5239C-0.300236 15.5172 0.00671591 12.4007 1.17987 9.5684C2.35303 6.73615 4.33971 4.31538 6.88867 2.61222C9.43763 0.909059 12.4344 0 15.5 0C19.6095 0.00433973 23.5495 1.63876 26.4554 4.54464C29.3612 7.45051 30.9957 11.3905 31 15.5ZM28.6154 15.5C28.6154 12.906 27.8462 10.3703 26.405 8.21348C24.9639 6.05667 22.9156 4.37564 20.519 3.38296C18.1225 2.39029 15.4855 2.13056 12.9413 2.63662C10.3972 3.14268 8.06025 4.3918 6.22603 6.22602C4.39181 8.06024 3.14269 10.3972 2.63663 12.9413C2.13057 15.4854 2.3903 18.1225 3.38297 20.519C4.37564 22.9156 6.05667 24.9639 8.21349 26.405C10.3703 27.8462 12.906 28.6154 15.5 28.6154C18.9772 28.6114 22.3109 27.2284 24.7696 24.7696C27.2284 22.3109 28.6114 18.9772 28.6154 15.5Z" fill="#201D56"/>
</svg>
