<svg width="26" height="20" viewBox="0 0 26 20" fill="none" xmlns="http://www.w3.org/2000/svg">
    <path fill-rule="evenodd" clip-rule="evenodd" d="M25.5868 14.5406C26.9027 12.2613 22.787 7.42029 16.3939 3.72907C9.99893 0.0379118 3.74975 -1.10633 2.43387 1.17295C1.70303 2.43534 0.974022 3.69957 0.245016 4.96379C-1.07086 7.24314 3.04479 12.0822 9.43973 15.7734C15.8329 19.4646 22.0838 20.6107 23.3998 18.3314C24.1288 17.0672 24.8578 15.8048 25.5868 14.5406Z" fill="#FE9923"/>
    <path fill-rule="evenodd" clip-rule="evenodd" d="M16.394 3.72889C9.99904 0.0376653 3.74986 -1.10657 2.43398 1.1727C1.1181 3.45014 5.23376 8.29112 11.6287 11.9823C18.0219 15.6735 24.2728 16.8197 25.5869 14.5403C26.9028 12.261 22.7871 7.42005 16.394 3.72889Z" fill="#FECD3D"/>
    <path fill-rule="evenodd" clip-rule="evenodd" d="M15.2796 5.65751C10.1931 2.72112 5.50158 1.32402 4.80024 2.53844C4.10074 3.75286 7.65535 7.11736 12.7418 10.0537C17.8283 12.99 22.5198 14.3871 23.2211 13.1728C23.9224 11.9602 20.366 8.59568 15.2796 5.65751Z" fill="#FEA832"/>
    <path d="M20.7945 17.8994L19.8773 19.4866C19.4879 19.4627 19.0726 19.4165 18.6389 19.3464L19.8053 17.3255L20.7945 17.8994ZM7.20175 14.3762C7.51757 14.5895 7.83691 14.7974 8.15963 15L9.21903 13.1655L8.22981 12.597L7.20175 14.3762ZM1.00244 8.58842C1.21837 8.91514 1.46571 9.25099 1.74439 9.59243L2.91084 7.57337L1.91977 7.00122L1.00244 8.58842ZM3.90558 11.8237C4.19453 12.0813 4.48865 12.3329 4.78776 12.5786L5.89882 10.6555L4.90959 10.087L3.90558 11.8237ZM10.7453 16.4949C11.0837 16.672 11.4246 16.8442 11.7678 17.0117L12.7958 15.2325L11.8066 14.6585L10.7453 16.4949ZM14.5306 18.204C14.8926 18.3404 15.2575 18.469 15.6251 18.5897L16.6291 16.8511L15.6399 16.2827L14.5306 18.204Z" fill="#C85929"/>
</svg>
