<svg width="31" height="25" viewBox="0 0 31 25" fill="none" xmlns="http://www.w3.org/2000/svg">
    <path fill-rule="evenodd" clip-rule="evenodd" d="M24.2354 13.7724C25.4818 11.6135 21.5835 7.02816 15.5281 3.53189C9.47084 0.0356782 3.55171 -1.04813 2.30533 1.11077C1.61308 2.30648 0.922578 3.50394 0.232075 4.7014C-1.0143 6.86035 2.88398 11.4439 8.94117 14.9401C14.9967 18.4363 20.9175 19.5219 22.1639 17.363C22.8544 16.1655 23.5449 14.9698 24.2354 13.7724Z" fill="#FE9923"/>
    <path fill-rule="evenodd" clip-rule="evenodd" d="M24.2356 13.7723C25.1866 12.1274 23.1465 9.07165 19.4423 6.16455C18.4406 6.6313 17.4179 7.16271 16.3918 7.75531C12.7908 9.83385 9.86262 12.2515 8.0918 14.4348C8.37245 14.6075 8.65568 14.7759 8.94139 14.9401C12.2908 16.8734 15.5982 18.0692 18.0962 18.3873C19.215 17.8804 20.3618 17.293 21.5138 16.6287C22.074 16.3042 22.6265 15.9668 23.171 15.6166L24.2356 13.7723Z" fill="#CE7C1D"/>
    <path fill-rule="evenodd" clip-rule="evenodd" d="M15.5286 3.53219C9.47132 0.0359201 3.55219 -1.04789 2.30581 1.11101C1.05943 3.26816 4.95771 7.85347 11.0149 11.3497C17.0704 14.8459 22.9912 15.9316 24.2359 13.7726C25.4823 11.6137 21.584 7.0284 15.5286 3.53219Z" fill="#FECD3D"/>
    <path fill-rule="evenodd" clip-rule="evenodd" d="M11.123 11.4124C17.1418 14.858 22.998 15.9173 24.2356 13.7723C25.1866 12.1274 23.1465 9.07165 19.4423 6.16455C18.4407 6.6313 17.418 7.16271 16.3919 7.75531C14.4025 8.9021 12.6194 10.1538 11.123 11.4124Z" fill="#CEA732"/>
    <path fill-rule="evenodd" clip-rule="evenodd" d="M14.4724 5.3588C9.65458 2.57749 5.21088 1.25418 4.54658 2.40446C3.88402 3.55474 7.25089 6.74155 12.0687 9.52279C16.8866 12.304 21.3303 13.6273 21.9945 12.4771C22.6588 11.3286 19.2902 8.14178 14.4724 5.3588Z" fill="#FEA832"/>
    <path fill-rule="evenodd" clip-rule="evenodd" d="M12.9253 10.0034C17.4022 12.4525 21.3704 13.559 21.9945 12.4769C22.5137 11.5767 20.5628 9.42825 17.3795 7.20288C17.0477 7.38235 16.7184 7.5665 16.3918 7.75527C15.1489 8.47204 13.9882 9.22895 12.9253 10.0034Z" fill="#CE8829"/>
    <path d="M19.697 16.954L18.8281 18.4573C18.4593 18.4346 18.066 18.3909 17.6552 18.3245L18.76 16.4103L19.697 16.954ZM6.82209 13.6169C7.12122 13.8188 7.42369 14.0158 7.72937 14.2077L8.73282 12.4701L7.79585 11.9316L6.82209 13.6169ZM0.950195 8.13472C1.15472 8.44418 1.38899 8.7623 1.65296 9.0857L2.7578 7.17328L1.81908 6.63135L0.950195 8.13472ZM3.70001 11.1992C3.97369 11.4431 4.25228 11.6815 4.53559 11.9141L5.58797 10.0926L4.65099 9.55419L3.70001 11.1992ZM10.1785 15.6236C10.499 15.7913 10.8219 15.9545 11.147 16.1131L12.1207 14.4279L11.1837 13.8842L10.1785 15.6236ZM13.7639 17.2424C14.1068 17.3716 14.4524 17.4934 14.8005 17.6078L15.7515 15.961L14.8145 15.4226L13.7639 17.2424Z" fill="#C85929"/>
    <path d="M2.90073 14.7059V15.8002H3.99505V16.6638H2.90073V17.7582H2.03719V16.6638H0.942871V15.8002H2.03719V14.7059H2.90073ZM22.1842 1.65625V2.74883H23.2785V3.61243H22.1842V4.70669H21.3206V3.61243H20.2263V2.74883H21.3206V1.65625H22.1842Z" fill="#FEA832"/>
    <path fill-rule="evenodd" clip-rule="evenodd" d="M6.4747 19.5274C5.22826 17.3685 9.12835 12.785 15.1838 9.28871C21.2393 5.79076 27.1601 4.70689 28.4065 6.86585C29.097 8.0631 29.7881 9.25998 30.4798 10.4565C31.7262 12.6154 27.8261 17.1989 21.7707 20.6969C15.7135 24.1932 9.79439 25.277 8.54795 23.1181C7.85745 21.9223 7.1652 20.7249 6.4747 19.5274Z" fill="#FE9923"/>
    <path fill-rule="evenodd" clip-rule="evenodd" d="M15.1838 9.28871C21.2393 5.79076 27.1601 4.70689 28.4065 6.86585C29.653 9.02475 25.7529 13.6083 19.6975 17.1046C13.6402 20.6025 7.72114 21.6864 6.4747 19.5274C5.22826 17.3685 9.12829 12.785 15.1838 9.28871Z" fill="#FECD3D"/>
    <path fill-rule="evenodd" clip-rule="evenodd" d="M16.2383 11.1151C21.0561 8.33213 25.5016 7.01057 26.1641 8.15904C26.8284 9.30932 23.4615 12.4961 18.6419 15.2774C13.8241 18.0604 9.38044 19.3819 8.71788 18.2335C8.05358 17.0832 11.4205 13.8964 16.2383 11.1151Z" fill="#FEA832"/>
    <path d="M15.8972 21.1772L16.9478 22.997C16.6047 23.1272 16.2585 23.2491 15.9094 23.3623L14.9584 21.7156L15.8972 21.1772ZM18.591 20.1826L19.563 21.8677C19.8887 21.7105 20.2116 21.5473 20.5314 21.3783L19.528 19.6406L18.591 20.1826ZM11.0146 22.7086L11.8817 24.212C12.2523 24.191 12.6439 24.1455 13.0564 24.0791L11.9516 22.1667L11.0146 22.7086ZM28.8909 12.386L27.9539 12.9279L29.0569 14.8403C29.3209 14.517 29.5569 14.2006 29.7597 13.8911L28.8909 12.386ZM21.9788 18.2247L22.9822 19.9641C23.2876 19.771 23.59 19.5734 23.8895 19.3715L22.9158 17.6863L21.9788 18.2247ZM25.1237 15.8472L26.1761 17.6705C26.4663 17.431 26.7442 17.1933 27.0099 16.9538L26.0607 15.3088L25.1237 15.8472Z" fill="#C85929"/>
</svg>
