<svg width="20" height="18" viewBox="0 0 20 18" fill="none" xmlns="http://www.w3.org/2000/svg">
    <path fill-rule="evenodd" clip-rule="evenodd" d="M15.8803 9.98858C16.6589 8.42281 14.2238 5.09726 10.4411 2.56155C6.65734 0.0258761 2.95985 -0.760168 2.18128 0.8056C1.74885 1.67281 1.31752 2.54128 0.886181 3.40975C0.107607 4.97556 2.54274 8.2998 6.32648 10.8355C10.1092 13.3712 13.8077 14.1585 14.5863 12.5927C15.0176 11.7243 15.449 10.857 15.8803 9.98858Z" fill="#FE9923"/>
    <path fill-rule="evenodd" clip-rule="evenodd" d="M15.8804 9.98884C16.4745 8.79581 15.2001 6.5796 12.8862 4.47119C12.2605 4.8097 11.6217 5.19512 10.9807 5.62491C8.73119 7.1324 6.90208 8.88582 5.7959 10.4693C5.97121 10.5945 6.14814 10.7167 6.32661 10.8357C8.41886 12.238 10.4849 13.1052 12.0454 13.3359C12.7442 12.9682 13.4606 12.5423 14.1802 12.0605C14.5301 11.8251 14.8753 11.5804 15.2154 11.3264L15.8804 9.98884Z" fill="#CE7C1D"/>
    <path fill-rule="evenodd" clip-rule="evenodd" d="M10.4409 2.56159C6.65717 0.0258744 2.95968 -0.76017 2.1811 0.805598C1.40253 2.3701 3.83767 5.69565 7.6214 8.23136C11.4041 10.767 15.1026 11.5544 15.8801 9.98857C16.6587 8.42281 14.2236 5.09726 10.4409 2.56159Z" fill="#FECD3D"/>
    <path fill-rule="evenodd" clip-rule="evenodd" d="M7.68945 8.27727C11.4492 10.7762 15.1073 11.5445 15.8805 9.98884C16.4745 8.79581 15.2002 6.5796 12.8862 4.47119C12.2605 4.8097 11.6217 5.19512 10.9807 5.62491C9.73801 6.45664 8.62417 7.36442 7.68945 8.27727Z" fill="#CEA732"/>
    <path fill-rule="evenodd" clip-rule="evenodd" d="M9.78114 3.8865C6.77159 1.86932 3.99575 0.909572 3.58078 1.74383C3.1669 2.57808 5.27008 4.88935 8.27963 6.90648C11.2892 8.92362 14.065 9.88336 14.48 9.04915C14.8949 8.21617 12.7907 5.90489 9.78114 3.8865Z" fill="#FEA832"/>
    <path fill-rule="evenodd" clip-rule="evenodd" d="M8.81543 7.2552C11.612 9.03146 14.0908 9.83398 14.4807 9.0492C14.805 8.39628 13.5864 6.8381 11.5978 5.22412C11.3906 5.35429 11.1849 5.48784 10.9809 5.62475C10.2045 6.14459 9.47938 6.69356 8.81543 7.2552Z" fill="#CE8829"/>
    <path d="M13.0455 12.2962L12.5028 13.3865C12.2724 13.3701 12.0267 13.3384 11.77 13.2902L12.4602 11.9019L13.0455 12.2962ZM5.00295 9.8759C5.18981 10.0224 5.37875 10.1652 5.5697 10.3044L6.19653 9.04417L5.61122 8.65366L5.00295 9.8759ZM1.33496 5.89991C1.46272 6.12435 1.60906 6.35507 1.77396 6.58962L2.46411 5.20261L1.87773 4.80957L1.33496 5.89991ZM3.05268 8.12244C3.22364 8.29935 3.39767 8.47223 3.57465 8.64097L4.23203 7.31987L3.64673 6.9294L3.05268 8.12244ZM7.09959 11.3313C7.29981 11.453 7.50148 11.5713 7.70457 11.6863L8.31281 10.4641L7.72751 10.0698L7.09959 11.3313ZM9.33928 12.5054C9.55346 12.5991 9.76936 12.6874 9.98683 12.7704L10.5809 11.5761L9.99557 11.1855L9.33928 12.5054Z" fill="#C85929"/>
    <path d="M2.5526 10.6656V11.4593H3.23619V12.0856H2.5526V12.8793H2.01318V12.0856H1.32959V11.4593H2.01318V10.6656H2.5526ZM14.5984 1.20117V1.99358H15.282V2.61991H14.5984V3.41354H14.0589V2.61991H13.3753V1.99358H14.0589V1.20117H14.5984Z" fill="#FEA832"/>
    <path fill-rule="evenodd" clip-rule="evenodd" d="M4.78556 14.1624C4.00695 12.5966 6.44321 9.27232 10.2259 6.7366C14.0085 4.19967 17.7071 3.41358 18.4857 4.97939C18.917 5.84772 19.3487 6.71577 19.7808 7.58354C20.5594 9.14931 18.1231 12.4736 14.3405 15.0106C10.5567 17.5462 6.85927 18.3323 6.08066 16.7665C5.64932 15.8993 5.2169 15.0308 4.78556 14.1624Z" fill="#FE9923"/>
    <path fill-rule="evenodd" clip-rule="evenodd" d="M10.2259 6.7366C14.0085 4.19967 17.7071 3.41358 18.4857 4.97939C19.2643 6.54516 16.828 9.86945 13.0454 12.4052C9.26163 14.9421 5.56417 15.7282 4.78556 14.1624C4.00695 12.5966 6.44318 9.27232 10.2259 6.7366Z" fill="#FECD3D"/>
    <path fill-rule="evenodd" clip-rule="evenodd" d="M10.8843 8.0615C13.8938 6.04311 16.6707 5.08462 17.0846 5.91757C17.4996 6.75182 15.3964 9.0631 12.3857 11.0802C9.37622 13.0986 6.60038 14.0571 6.1865 13.2242C5.77154 12.39 7.87471 10.0787 10.8843 8.0615Z" fill="#FEA832"/>
    <path d="M10.671 15.3589L11.3273 16.6787C11.113 16.7731 10.8967 16.8615 10.6787 16.9436L10.0847 15.7493L10.671 15.3589ZM12.3538 14.6375L12.961 15.8597C13.1645 15.7456 13.3662 15.6273 13.5659 15.5047L12.9391 14.2444L12.3538 14.6375ZM7.62109 16.4695L8.16269 17.5599C8.39422 17.5447 8.63882 17.5117 8.89652 17.4635L8.20636 16.0765L7.62109 16.4695ZM18.7878 8.98291L18.2025 9.37595L18.8915 10.763C19.0564 10.5285 19.2039 10.299 19.3305 10.0745L18.7878 8.98291ZM14.4701 13.2175L15.0969 14.479C15.2876 14.339 15.4765 14.1957 15.6636 14.0492L15.0554 12.827L14.4701 13.2175ZM16.4346 11.4932L17.092 12.8156C17.2732 12.6419 17.4469 12.4695 17.6128 12.2958L17.0199 11.1027L16.4346 11.4932Z" fill="#C85929"/>
</svg>
