<svg width="13" height="23" viewBox="0 0 13 23" fill="none" xmlns="http://www.w3.org/2000/svg">
    <path d="M12.396 3.27347L4.46172 11.5L12.396 19.7265C12.5677 19.9046 12.7038 20.116 12.7968 20.3486C12.8897 20.5813 12.9375 20.8306 12.9375 21.0824C12.9375 21.3343 12.8897 21.5836 12.7968 21.8163C12.7038 22.0489 12.5677 22.2603 12.396 22.4384C12.2243 22.6164 12.0205 22.7577 11.7962 22.854C11.5718 22.9504 11.3314 23 11.0886 23C10.8458 23 10.6054 22.9504 10.3811 22.854C10.1568 22.7577 9.95293 22.6164 9.78125 22.4384L0.54195 12.8559C0.370143 12.6779 0.233849 12.4666 0.140856 12.2339C0.0478641 12.0012 0 11.7519 0 11.5C0 11.2481 0.0478641 10.9988 0.140856 10.7661C0.233849 10.5334 0.370143 10.3221 0.54195 10.1441L9.78125 0.561637C9.95293 0.383576 10.1568 0.24233 10.3811 0.145964C10.6054 0.049598 10.8458 0 11.0886 0C11.3314 0 11.5718 0.049598 11.7962 0.145964C12.0205 0.24233 12.2243 0.383576 12.396 0.561637C12.5677 0.739698 12.7038 0.951089 12.7968 1.18374C12.8897 1.41639 12.9375 1.66574 12.9375 1.91755C12.9375 2.16937 12.8897 2.41872 12.7968 2.65137C12.7038 2.88402 12.5677 3.09541 12.396 3.27347Z" fill="#201D56"/>
</svg>
