<svg width="13" height="23" viewBox="0 0 13 23" fill="none" xmlns="http://www.w3.org/2000/svg">
    <path d="M0.541525 19.7265L8.47578 11.5L0.541527 3.27347C0.369842 3.09541 0.233657 2.88402 0.140741 2.65137C0.0478267 2.41872 -8.62773e-08 2.16937 -6.42627e-08 1.91755C-4.22483e-08 1.66574 0.0478267 1.41639 0.140741 1.18374C0.233657 0.951091 0.369843 0.739699 0.541527 0.561637C0.713212 0.383576 0.917033 0.242335 1.14135 0.145968C1.36567 0.0496034 1.60609 9.16725e-07 1.84889 9.37951e-07C2.09169 9.59178e-07 2.33211 0.0496035 2.55643 0.145968C2.78075 0.242335 2.98457 0.383576 3.15625 0.561637L12.3956 10.1441C12.5674 10.3221 12.7037 10.5334 12.7966 10.7661C12.8896 10.9988 12.9375 11.2481 12.9375 11.5C12.9375 11.7519 12.8896 12.0012 12.7966 12.2339C12.7037 12.4666 12.5674 12.6779 12.3956 12.8559L3.15625 22.4384C2.98456 22.6164 2.78074 22.7577 2.55643 22.854C2.33211 22.9504 2.09169 23 1.84889 23C1.60609 23 1.36567 22.9504 1.14135 22.854C0.917031 22.7577 0.71321 22.6164 0.541525 22.4384C0.369841 22.2603 0.233655 22.0489 0.14074 21.8163C0.047825 21.5836 -1.76173e-06 21.3343 -1.73971e-06 21.0824C-1.7177e-06 20.8306 0.0478251 20.5813 0.14074 20.3486C0.233655 20.116 0.369841 19.9046 0.541525 19.7265Z" fill="#201D56"/>
</svg>
