<svg width="26" height="26" viewBox="0 0 26 26" fill="none" xmlns="http://www.w3.org/2000/svg">
    <path d="M13 0C10.4288 0 7.91543 0.762437 5.77759 2.1909C3.63975 3.61935 1.97351 5.64968 0.989572 8.02512C0.0056327 10.4006 -0.251811 13.0144 0.249797 15.5362C0.751405 18.0579 1.98953 20.3743 3.80762 22.1924C5.6257 24.0105 7.94208 25.2486 10.4638 25.7502C12.9856 26.2518 15.5995 25.9944 17.9749 25.0104C20.3503 24.0265 22.3807 22.3603 23.8091 20.2224C25.2376 18.0846 26 15.5712 26 13C25.9964 9.5533 24.6256 6.24882 22.1884 3.81163C19.7512 1.37445 16.4467 0.00363977 13 0ZM13 24C10.8244 24 8.69767 23.3549 6.88873 22.1462C5.07979 20.9375 3.66989 19.2195 2.83733 17.2095C2.00477 15.1995 1.78693 12.9878 2.21137 10.854C2.63581 8.72022 3.68345 6.7602 5.22183 5.22183C6.76021 3.68345 8.72022 2.6358 10.854 2.21136C12.9878 1.78692 15.1995 2.00476 17.2095 2.83733C19.2195 3.66989 20.9375 5.07979 22.1462 6.88873C23.3549 8.69767 24 10.8244 24 13C23.9967 15.9164 22.8367 18.7123 20.7745 20.7745C18.7123 22.8367 15.9164 23.9967 13 24ZM15.7075 8.7075L11.4138 13L15.7075 17.2925C15.8004 17.3854 15.8741 17.4957 15.9244 17.6171C15.9747 17.7385 16.0006 17.8686 16.0006 18C16.0006 18.1314 15.9747 18.2615 15.9244 18.3829C15.8741 18.5043 15.8004 18.6146 15.7075 18.7075C15.6146 18.8004 15.5043 18.8741 15.3829 18.9244C15.2615 18.9747 15.1314 19.0006 15 19.0006C14.8686 19.0006 14.7385 18.9747 14.6171 18.9244C14.4957 18.8741 14.3854 18.8004 14.2925 18.7075L9.29251 13.7075C9.19953 13.6146 9.12577 13.5043 9.07545 13.3829C9.02512 13.2615 8.99922 13.1314 8.99922 13C8.99922 12.8686 9.02512 12.7385 9.07545 12.6171C9.12577 12.4957 9.19953 12.3854 9.29251 12.2925L14.2925 7.2925C14.3854 7.19959 14.4957 7.12589 14.6171 7.07561C14.7385 7.02532 14.8686 6.99944 15 6.99944C15.1314 6.99944 15.2615 7.02532 15.3829 7.07561C15.5043 7.12589 15.6146 7.19959 15.7075 7.2925C15.8004 7.38541 15.8741 7.49571 15.9244 7.6171C15.9747 7.7385 16.0006 7.86861 16.0006 8C16.0006 8.1314 15.9747 8.2615 15.9244 8.3829C15.8741 8.50429 15.8004 8.61459 15.7075 8.7075Z" fill="#201D56"/>
</svg>
