<svg width="7" height="13" viewBox="0 0 7 13" fill="none" xmlns="http://www.w3.org/2000/svg">
    <path d="M6.03433 2.41554L2.17196 6.42019L6.03433 10.4248C6.11791 10.5115 6.1842 10.6144 6.22943 10.7277C6.27466 10.8409 6.29794 10.9623 6.29794 11.0849C6.29794 11.2075 6.27466 11.3289 6.22943 11.4421C6.1842 11.5554 6.11791 11.6583 6.03433 11.745C5.95075 11.8316 5.85154 11.9004 5.74234 11.9473C5.63314 11.9942 5.5161 12.0184 5.39791 12.0184C5.27972 12.0184 5.16268 11.9942 5.05348 11.9473C4.94428 11.9004 4.84506 11.8316 4.76149 11.745L0.26382 7.08025C0.180185 6.9936 0.113837 6.89071 0.0685686 6.77745C0.0233002 6.6642 0 6.5428 0 6.42019C0 6.29759 0.0233002 6.17619 0.0685686 6.06293C0.113837 5.94967 0.180185 5.84678 0.26382 5.76014L4.76149 1.09542C4.84506 1.00875 4.94428 0.939987 5.05348 0.893076C5.16268 0.846166 5.27972 0.822021 5.39791 0.822021C5.5161 0.822021 5.63314 0.846166 5.74234 0.893076C5.85154 0.939987 5.95075 1.00875 6.03433 1.09542C6.11791 1.1821 6.1842 1.28501 6.22943 1.39826C6.27466 1.51151 6.29794 1.6329 6.29794 1.75548C6.29794 1.87807 6.27466 1.99945 6.22943 2.1127C6.1842 2.22596 6.11791 2.32886 6.03433 2.41554Z" fill="#201D56"/>
</svg>
