<svg width="29" height="29" viewBox="0 0 29 29" fill="none" xmlns="http://www.w3.org/2000/svg">
    <path d="M14.5 1C11.83 1 9.21987 1.79176 6.99981 3.27516C4.77974 4.75856 3.04941 6.86697 2.02763 9.33377C1.00585 11.8006 0.738504 14.515 1.2594 17.1337C1.78031 19.7525 3.06606 22.1579 4.95406 24.0459C6.84207 25.9339 9.24754 27.2197 11.8663 27.7406C14.485 28.2615 17.1994 27.9942 19.6662 26.9724C22.133 25.9506 24.2414 24.2203 25.7248 22.0002C27.2082 19.7801 28 17.17 28 14.5C27.9962 10.9207 26.5727 7.48915 24.0418 4.95823C21.5108 2.42731 18.0793 1.00378 14.5 1ZM14.5 25.9231C12.2407 25.9231 10.0322 25.2531 8.15368 23.9979C6.27517 22.7428 4.81104 20.9587 3.94646 18.8714C3.08187 16.7841 2.85566 14.4873 3.29642 12.2715C3.73718 10.0556 4.82512 8.02021 6.42267 6.42266C8.02022 4.82512 10.0556 3.73718 12.2715 3.29641C14.4873 2.85565 16.7841 3.08187 18.8714 3.94645C20.9587 4.81104 22.7428 6.27516 23.9979 8.15368C25.2531 10.0322 25.9231 12.2407 25.9231 14.5C25.9196 17.5285 24.715 20.432 22.5735 22.5735C20.432 24.715 17.5285 25.9196 14.5 25.9231ZM13.4615 15.5385V8.26923C13.4615 7.99381 13.571 7.72968 13.7657 7.53493C13.9604 7.34018 14.2246 7.23077 14.5 7.23077C14.7754 7.23077 15.0396 7.34018 15.2343 7.53493C15.4291 7.72968 15.5385 7.99381 15.5385 8.26923V15.5385C15.5385 15.8139 15.4291 16.078 15.2343 16.2728C15.0396 16.4675 14.7754 16.5769 14.5 16.5769C14.2246 16.5769 13.9604 16.4675 13.7657 16.2728C13.571 16.078 13.4615 15.8139 13.4615 15.5385ZM16.0577 20.2115C16.0577 20.5196 15.9663 20.8208 15.7952 21.0769C15.624 21.3331 15.3807 21.5328 15.0961 21.6507C14.8115 21.7686 14.4983 21.7994 14.1961 21.7393C13.8939 21.6792 13.6164 21.5308 13.3985 21.313C13.1807 21.0951 13.0323 20.8176 12.9722 20.5154C12.9121 20.2133 12.943 19.9001 13.0609 19.6154C13.1788 19.3308 13.3784 19.0875 13.6346 18.9164C13.8908 18.7452 14.1919 18.6538 14.5 18.6538C14.9131 18.6538 15.3093 18.818 15.6015 19.1101C15.8936 19.4022 16.0577 19.7984 16.0577 20.2115Z" fill="#201D56" stroke="#201D56" stroke-width="0.5"/>
</svg>
