<svg width="7" height="13" viewBox="0 0 7 13" fill="none" xmlns="http://www.w3.org/2000/svg">
    <path d="M0.263643 10.4248L4.12602 6.42014L0.263644 2.41548C0.180068 2.3288 0.113773 2.2259 0.0685424 2.11265C0.0233115 1.9994 2.99736e-05 1.87801 2.99843e-05 1.75543C2.9995e-05 1.63284 0.0233116 1.51146 0.0685425 1.39821C0.113773 1.28496 0.180068 1.18205 0.263644 1.09537C0.34722 1.00869 0.446439 0.939934 0.555636 0.893024C0.664834 0.846113 0.781871 0.821967 0.900065 0.821967C1.01826 0.821967 1.1353 0.846113 1.24449 0.893024C1.35369 0.939934 1.45291 1.00869 1.53649 1.09537L6.03415 5.76008C6.11779 5.84673 6.18414 5.94962 6.22941 6.06288C6.27467 6.17614 6.29797 6.29754 6.29797 6.42014C6.29797 6.54274 6.27467 6.66414 6.22941 6.7774C6.18414 6.89066 6.11779 6.99355 6.03415 7.0802L1.53648 11.7449C1.45291 11.8316 1.35369 11.9003 1.24449 11.9473C1.13529 11.9942 1.01826 12.0183 0.900064 12.0183C0.78187 12.0183 0.664833 11.9942 0.555635 11.9473C0.446438 11.9003 0.347219 11.8316 0.263643 11.7449C0.180067 11.6582 0.113772 11.5553 0.0685416 11.4421C0.0233107 11.3288 2.9158e-05 11.2074 2.91687e-05 11.0848C2.91794e-05 10.9623 0.0233108 10.8409 0.0685416 10.7276C0.113773 10.6144 0.180067 10.5115 0.263643 10.4248Z" fill="#201D56"/>
</svg>
