<svg width="26" height="26" viewBox="0 0 26 26" fill="none" xmlns="http://www.w3.org/2000/svg">
    <path d="M13 26C15.5712 26 18.0846 25.2376 20.2224 23.8091C22.3602 22.3806 24.0265 20.3503 25.0104 17.9749C25.9944 15.5994 26.2518 12.9856 25.7502 10.4638C25.2486 7.94207 24.0105 5.62569 22.1924 3.80761C20.3743 1.98953 18.0579 0.751399 15.5362 0.249791C13.0144 -0.251817 10.4006 0.00562621 8.02511 0.989565C5.64967 1.9735 3.61935 3.63975 2.19089 5.77759C0.762433 7.91542 -4.36077e-06 10.4288 -4.58555e-06 13C0.00363489 16.4467 1.37444 19.7512 3.81163 22.1884C6.24881 24.6256 9.5533 25.9964 13 26ZM13 2C15.1756 2 17.3023 2.64514 19.1113 3.85383C20.9202 5.06253 22.3301 6.78049 23.1627 8.79048C23.9952 10.8005 24.2131 13.0122 23.7886 15.146C23.3642 17.2798 22.3165 19.2398 20.7782 20.7782C19.2398 22.3166 17.2798 23.3642 15.146 23.7886C13.0122 24.2131 10.8005 23.9952 8.79048 23.1627C6.78049 22.3301 5.06252 20.9202 3.85383 19.1113C2.64513 17.3023 2 15.1756 2 13C2.0033 10.0836 3.16329 7.28766 5.22548 5.22548C7.28766 3.16329 10.0836 2.00331 13 2ZM10.2925 17.2925L14.5862 13L10.2925 8.7075C10.1996 8.61459 10.1259 8.50429 10.0756 8.3829C10.0253 8.2615 9.99944 8.13139 9.99944 8C9.99944 7.8686 10.0253 7.7385 10.0756 7.6171C10.1259 7.49571 10.1996 7.38541 10.2925 7.2925C10.3854 7.19959 10.4957 7.12589 10.6171 7.07561C10.7385 7.02532 10.8686 6.99944 11 6.99944C11.1314 6.99944 11.2615 7.02532 11.3829 7.07561C11.5043 7.12589 11.6146 7.19959 11.7075 7.2925L16.7075 12.2925C16.8005 12.3854 16.8742 12.4957 16.9246 12.6171C16.9749 12.7385 17.0008 12.8686 17.0008 13C17.0008 13.1314 16.9749 13.2615 16.9246 13.3829C16.8742 13.5043 16.8005 13.6146 16.7075 13.7075L11.7075 18.7075C11.6146 18.8004 11.5043 18.8741 11.3829 18.9244C11.2615 18.9747 11.1314 19.0006 11 19.0006C10.8686 19.0006 10.7385 18.9747 10.6171 18.9244C10.4957 18.8741 10.3854 18.8004 10.2925 18.7075C10.1996 18.6146 10.1259 18.5043 10.0756 18.3829C10.0253 18.2615 9.99944 18.1314 9.99944 18C9.99944 17.8686 10.0253 17.7385 10.0756 17.6171C10.1259 17.4957 10.1996 17.3854 10.2925 17.2925Z" fill="#201D56"/>
</svg>
