<svg width="25" height="13" viewBox="0 0 25 13" fill="none" xmlns="http://www.w3.org/2000/svg">
    <mask id="path-1-inside-1_4439_343" fill="white">
        <path d="M14.9811 8.17171C14.9206 8.1719 14.8608 8.15773 14.8068 8.13037C14.7528 8.103 14.706 8.06322 14.6703 8.01428L13.8522 6.89227C12.7425 5.36894 7.44258 6.16427 5.58113 5.86125V7.30176C5.5813 7.37323 5.56154 7.44333 5.52408 7.50417C5.48662 7.56502 5.43295 7.61419 5.3691 7.64615C5.30525 7.67811 5.23376 7.6916 5.16267 7.6851C5.09158 7.67859 5.02371 7.65236 4.9667 7.60934L0.36851 4.15047C0.320734 4.11471 0.281947 4.06829 0.255229 4.0149C0.228511 3.96151 0.2146 3.90261 0.2146 3.84289C0.2146 3.78317 0.228511 3.72427 0.255229 3.67088C0.281947 3.61749 0.320734 3.57107 0.36851 3.53531L4.97397 0.0773515C5.03098 0.0343331 5.09885 0.00809617 5.16994 0.00159311C5.24103 -0.00490995 5.31252 0.00857878 5.37637 0.0405417C5.44022 0.0725046 5.4939 0.121673 5.53135 0.182515C5.56881 0.243357 5.58857 0.313457 5.5884 0.384928V2.01381C9.12589 2.57982 15.3647 3.81559 15.3647 7.40277V7.78679C15.3644 7.86761 15.3388 7.9463 15.2913 8.01165C15.2438 8.07701 15.1769 8.12569 15.1002 8.15078C15.0616 8.16272 15.0215 8.16915 14.9811 8.16989V8.17171Z"/>
    </mask>
    <path d="M14.9811 8.17171L14.9845 9.29671L16.1061 9.29328V8.17171H14.9811ZM14.6703 8.01428L13.7612 8.67704L13.7616 8.67757L14.6703 8.01428ZM13.8522 6.89227L12.9429 7.55471L12.9432 7.55502L13.8522 6.89227ZM5.58113 5.86125L5.76189 4.75086L4.45613 4.5383V5.86125H5.58113ZM5.58113 7.30176H4.45612L4.45613 7.30443L5.58113 7.30176ZM4.9667 7.60934L5.64435 6.71133L5.64298 6.7103L4.9667 7.60934ZM0.36851 4.15047L1.04479 3.25142L1.0426 3.24978L0.36851 4.15047ZM0.2146 3.84289H1.3396H0.2146ZM0.36851 3.53531L1.0426 4.436L1.04399 4.43495L0.36851 3.53531ZM4.97397 0.0773515L5.64946 0.976992L5.65162 0.97536L4.97397 0.0773515ZM5.5884 0.384928L4.4634 0.382259V0.384928H5.5884ZM5.5884 2.01381H4.4634V2.97311L5.41065 3.12468L5.5884 2.01381ZM15.3647 7.78679L16.4897 7.78986V7.78679H15.3647ZM15.2913 8.01165L14.3812 7.35033L15.2913 8.01165ZM15.1002 8.15078L15.4326 9.22554L15.4412 9.22288L15.4498 9.22008L15.1002 8.15078ZM14.9811 8.16989L14.9606 7.04508L13.8561 7.06525V8.16989H14.9811ZM14.9777 7.04672C15.0949 7.04636 15.2106 7.0738 15.3151 7.12674L14.2985 9.134C14.5111 9.24165 14.7462 9.29744 14.9845 9.29671L14.9777 7.04672ZM15.3151 7.12674C15.4196 7.17967 15.51 7.25655 15.5789 7.351L13.7616 8.67757C13.902 8.8699 14.086 9.02634 14.2985 9.134L15.3151 7.12674ZM15.5793 7.35153L14.7613 6.22951L12.9432 7.55502L13.7612 8.67704L15.5793 7.35153ZM14.7615 6.22983C14.225 5.4934 13.3228 5.18641 12.5865 5.03053C11.797 4.86339 10.886 4.80939 10.0181 4.79431C9.14912 4.77922 8.24154 4.80315 7.49091 4.81103C6.6963 4.81937 6.11493 4.80834 5.76189 4.75086L5.40037 6.97163C5.97805 7.06567 6.75721 7.06886 7.51454 7.0609C8.31585 7.05249 9.15162 7.02961 9.97902 7.04398C10.8075 7.05836 11.5458 7.11009 12.1204 7.23174C12.4053 7.29205 12.6151 7.36259 12.7602 7.43359C12.9059 7.50488 12.9435 7.5554 12.9429 7.55471L14.7615 6.22983ZM4.45613 5.86125V7.30176H6.70613V5.86125H4.45613ZM4.45613 7.30443C4.4558 7.1668 4.49384 7.03172 4.56609 6.91437L6.48208 8.09398C6.62924 7.85495 6.70679 7.57966 6.70612 7.29909L4.45613 7.30443ZM4.56609 6.91437C4.63834 6.79702 4.74198 6.70199 4.86551 6.64016L5.87269 8.65214C6.12392 8.52638 6.33491 8.33302 6.48208 8.09398L4.56609 6.91437ZM4.86551 6.64016C4.98905 6.57831 5.12746 6.55218 5.26515 6.56477L5.06018 8.80542C5.34005 8.83102 5.62145 8.77791 5.87269 8.65214L4.86551 6.64016ZM5.26515 6.56477C5.40284 6.57737 5.53416 6.62818 5.64435 6.71133L4.28905 8.50735C4.51326 8.67654 4.78031 8.77982 5.06018 8.80542L5.26515 6.56477ZM5.64298 6.7103L1.04479 3.25143L-0.30777 5.04951L4.29042 8.50838L5.64298 6.7103ZM1.0426 3.24978C1.13494 3.31889 1.20979 3.40852 1.2613 3.51146L-0.750842 4.51833C-0.645892 4.72807 -0.493466 4.91053 -0.305578 5.05115L1.0426 3.24978ZM1.2613 3.51146C1.31281 3.61441 1.3396 3.72788 1.3396 3.84289H-0.9104C-0.9104 4.07734 -0.855789 4.3086 -0.750842 4.51833L1.2613 3.51146ZM1.3396 3.84289C1.3396 3.9579 1.31281 4.07137 1.2613 4.17431L-0.750842 3.16745C-0.855789 3.37717 -0.9104 3.60844 -0.9104 3.84289H1.3396ZM1.2613 4.17431C1.20979 4.27726 1.13494 4.36689 1.0426 4.436L-0.305578 2.63463C-0.493468 2.77525 -0.645893 2.95771 -0.750842 3.16745L1.2613 4.17431ZM1.04399 4.43495L5.64946 0.976989L4.29849 -0.822286L-0.306973 2.63568L1.04399 4.43495ZM5.65162 0.97536C5.54143 1.05851 5.41011 1.10932 5.27242 1.12192L5.06746 -1.11873C4.78759 -1.09313 4.52053 -0.989846 4.29633 -0.820657L5.65162 0.97536ZM5.27242 1.12192C5.13473 1.13451 4.99631 1.10837 4.87278 1.04653L5.87996 -0.96545C5.62873 -1.09122 5.34733 -1.14433 5.06746 -1.11873L5.27242 1.12192ZM4.87278 1.04653C4.74926 0.984699 4.64561 0.889674 4.57336 0.772319L6.48935 -0.407289C6.34218 -0.646328 6.13119 -0.839689 5.87996 -0.96545L4.87278 1.04653ZM4.57336 0.772319C4.50111 0.654978 4.46307 0.519896 4.4634 0.382259L6.71339 0.387597C6.71406 0.107018 6.63651 -0.168264 6.48935 -0.407289L4.57336 0.772319ZM4.4634 0.384928V2.01381H6.7134V0.384928H4.4634ZM5.41065 3.12468C7.17719 3.40733 9.50475 3.84208 11.3731 4.61492C13.3455 5.43082 14.2397 6.37493 14.2397 7.40277H16.4897C16.4897 4.84344 14.2645 3.37606 12.2331 2.53578C10.0977 1.65244 7.5371 1.1863 5.76614 0.90294L5.41065 3.12468ZM14.2397 7.40277V7.78679H16.4897V7.40277H14.2397ZM14.2397 7.78372C14.2401 7.6281 14.2895 7.47644 14.3812 7.35033L16.2014 8.67297C16.388 8.41615 16.4888 8.10711 16.4897 7.78986L14.2397 7.78372ZM14.3812 7.35033C14.4728 7.22422 14.602 7.13005 14.7506 7.08148L15.4498 9.22008C15.7518 9.12134 16.0148 8.92979 16.2014 8.67297L14.3812 7.35033ZM14.7677 7.07603C14.8302 7.0567 14.8951 7.04628 14.9606 7.04508L15.0017 9.2947C15.1479 9.29203 15.2929 9.26875 15.4326 9.22554L14.7677 7.07603ZM13.8561 8.16989V8.17171H16.1061V8.16989H13.8561Z" fill="white" mask="url(#path-1-inside-1_4439_343)"/>
    <mask id="path-3-inside-2_4439_343" fill="white">
        <path d="M9.68735 4.54997C9.7479 4.54978 9.80763 4.56395 9.86166 4.59131C9.91568 4.61868 9.96248 4.65845 9.9982 4.7074L10.8162 5.82941C11.926 7.35274 17.2259 6.55741 19.0873 6.86043V5.41992C19.0872 5.34845 19.1069 5.27835 19.1444 5.2175C19.1818 5.15666 19.2355 5.10749 19.2994 5.07553C19.3632 5.04357 19.4347 5.03008 19.5058 5.03658C19.5769 5.04309 19.6447 5.06932 19.7018 5.11234L24.2999 8.57121C24.3477 8.60697 24.3865 8.65339 24.4132 8.70678C24.4399 8.76017 24.4539 8.81907 24.4539 8.87879C24.4539 8.93851 24.4399 8.99741 24.4132 9.0508C24.3865 9.10419 24.3477 9.15061 24.2999 9.18637L19.6945 12.6443C19.6375 12.6873 19.5696 12.7136 19.4985 12.7201C19.4274 12.7266 19.3559 12.7131 19.2921 12.6811C19.2282 12.6492 19.1746 12.6 19.1371 12.5392C19.0996 12.4783 19.0799 12.4082 19.0801 12.3368V10.7079C15.5426 10.1419 9.30379 8.90609 9.30379 5.31891V4.93489C9.30401 4.85407 9.32969 4.77538 9.37718 4.71003C9.42467 4.64467 9.49155 4.59599 9.56828 4.5709C9.60688 4.55896 9.64696 4.55253 9.68735 4.55179V4.54997Z"/>
    </mask>
    <path d="M9.68735 4.54997L9.68391 3.42497L8.56235 3.4284V4.54997H9.68735ZM9.9982 4.7074L10.9073 4.04464L10.9069 4.04411L9.9982 4.7074ZM10.8162 5.82941L11.7255 5.16697L11.7253 5.16666L10.8162 5.82941ZM19.0873 6.86043L18.9066 7.97082L20.2123 8.18338V6.86043H19.0873ZM19.0873 5.41992H20.2123L20.2123 5.41725L19.0873 5.41992ZM19.7018 5.11234L19.0241 6.01035L19.0255 6.01138L19.7018 5.11234ZM24.2999 8.57121L23.6237 9.47026L23.6259 9.4719L24.2999 8.57121ZM24.4539 8.87879H23.3289H24.4539ZM24.2999 9.18637L23.6259 8.28568L23.6245 8.28673L24.2999 9.18637ZM19.6945 12.6443L19.019 11.7447L19.0168 11.7463L19.6945 12.6443ZM19.0801 12.3368L20.2051 12.3394V12.3368H19.0801ZM19.0801 10.7079H20.2051V9.74856L19.2578 9.597L19.0801 10.7079ZM9.30379 4.93489L8.17879 4.93182V4.93489H9.30379ZM9.37718 4.71003L10.2873 5.37135L9.37718 4.71003ZM9.56828 4.5709L9.23583 3.49614L9.22723 3.4988L9.21868 3.5016L9.56828 4.5709ZM9.68735 4.55179L9.7079 5.6766L10.8124 5.65642L10.8124 4.55179H9.68735ZM9.69079 5.67496C9.57352 5.67532 9.45789 5.64788 9.35337 5.59494L10.3699 3.58768C10.1574 3.48003 9.92227 3.42424 9.68391 3.42497L9.69079 5.67496ZM9.35337 5.59494C9.24886 5.54201 9.15848 5.46513 9.08953 5.37068L10.9069 4.04411C10.7665 3.85178 10.5825 3.69534 10.3699 3.58768L9.35337 5.59494ZM9.08915 5.37015L9.90717 6.49217L11.7253 5.16666L10.9073 4.04464L9.08915 5.37015ZM9.90694 6.49185C10.4434 7.22828 11.3457 7.53527 12.082 7.69115C12.8714 7.85829 13.7825 7.91229 14.6504 7.92736C15.5193 7.94246 16.4269 7.91853 17.1775 7.91065C17.9722 7.90231 18.5535 7.91334 18.9066 7.97082L19.2681 5.75005C18.6904 5.65601 17.9113 5.65282 17.1539 5.66078C16.3526 5.66919 15.5168 5.69207 14.6894 5.6777C13.861 5.66332 13.1226 5.61159 12.548 5.48994C12.2631 5.42963 12.0534 5.35909 11.9083 5.28809C11.7625 5.2168 11.725 5.16628 11.7255 5.16697L9.90694 6.49185ZM20.2123 6.86043V5.41992H17.9623V6.86043H20.2123ZM20.2123 5.41725C20.2127 5.55488 20.1746 5.68996 20.1024 5.80731L18.1864 4.6277C18.0392 4.86673 17.9617 5.14201 17.9623 5.42259L20.2123 5.41725ZM20.1024 5.80731C20.0301 5.92466 19.9265 6.01969 19.8029 6.08152L18.7958 4.06954C18.5445 4.1953 18.3335 4.38866 18.1864 4.6277L20.1024 5.80731ZM19.8029 6.08152C19.6794 6.14337 19.541 6.1695 19.4033 6.15691L19.6083 3.91626C19.3284 3.89066 19.047 3.94377 18.7958 4.06954L19.8029 6.08152ZM19.4033 6.15691C19.2656 6.14431 19.1343 6.0935 19.0241 6.01035L20.3794 4.21433C20.1552 4.04514 19.8881 3.94186 19.6083 3.91626L19.4033 6.15691ZM19.0255 6.01138L23.6237 9.47025L24.9762 7.67217L20.378 4.2133L19.0255 6.01138ZM23.6259 9.4719C23.5335 9.40279 23.4587 9.31316 23.4072 9.21022L25.4193 8.20335C25.3143 7.99361 25.1619 7.81115 24.974 7.67053L23.6259 9.4719ZM23.4072 9.21022C23.3556 9.10727 23.3289 8.9938 23.3289 8.87879H25.5789C25.5789 8.64434 25.5242 8.41307 25.4193 8.20335L23.4072 9.21022ZM23.3289 8.87879C23.3289 8.76378 23.3556 8.65031 23.4072 8.54736L25.4193 9.55423C25.5242 9.3445 25.5789 9.11324 25.5789 8.87879H23.3289ZM23.4072 8.54736C23.4587 8.44442 23.5335 8.35479 23.6259 8.28568L24.974 10.0871C25.1619 9.94643 25.3143 9.76397 25.4193 9.55423L23.4072 8.54736ZM23.6245 8.28673L19.019 11.7447L20.37 13.544L24.9754 10.086L23.6245 8.28673ZM19.0168 11.7463C19.127 11.6632 19.2583 11.6124 19.396 11.5998L19.601 13.8404C19.8809 13.8148 20.1479 13.7115 20.3721 13.5423L19.0168 11.7463ZM19.396 11.5998C19.5337 11.5872 19.6721 11.6133 19.7957 11.6751L18.7885 13.6871C19.0397 13.8129 19.3211 13.866 19.601 13.8404L19.396 11.5998ZM19.7957 11.6751C19.9192 11.737 20.0228 11.832 20.0951 11.9494L18.1791 13.129C18.3263 13.368 18.5373 13.5614 18.7885 13.6871L19.7957 11.6751ZM20.0951 11.9494C20.1673 12.0667 20.2054 12.2018 20.2051 12.3394L17.9551 12.3341C17.9544 12.6147 18.0319 12.8899 18.1791 13.129L20.0951 11.9494ZM20.2051 12.3368V10.7079H17.9551V12.3368H20.2051ZM19.2578 9.597C17.4913 9.31435 15.1637 8.8796 13.2954 8.10676C11.323 7.29086 10.4288 6.34675 10.4288 5.31891H8.17879C8.17879 7.87824 10.404 9.34562 12.4353 10.1859C14.5708 11.0692 17.1314 11.5354 18.9023 11.8187L19.2578 9.597ZM10.4288 5.31891V4.93489H8.17879V5.31891H10.4288ZM10.4288 4.93796C10.4284 5.09358 10.3789 5.24524 10.2873 5.37135L8.46708 4.04871C8.28047 4.30553 8.17966 4.61457 8.17879 4.93182L10.4288 4.93796ZM10.2873 5.37135C10.1957 5.49746 10.0664 5.59163 9.91788 5.6402L9.21868 3.5016C8.91666 3.60034 8.6537 3.79189 8.46708 4.04871L10.2873 5.37135ZM9.90074 5.64565C9.83825 5.66498 9.77332 5.6754 9.7079 5.6766L9.66681 3.42698C9.5206 3.42965 9.37551 3.45293 9.23583 3.49614L9.90074 5.64565ZM10.8124 4.55179V4.54997H8.56235V4.55179H10.8124Z" fill="white" mask="url(#path-3-inside-2_4439_343)"/>
    <path d="M12.0305 11.4825C14.8517 11.4825 17.1376 9.19292 17.1376 6.37002C17.1376 3.54712 14.8517 1.25757 12.0305 1.25757C9.20934 1.25757 6.92346 3.54712 6.92346 6.37002C6.92346 9.19292 9.20934 11.4825 12.0305 11.4825Z" fill="#201D57" stroke="white" stroke-width="1.125"/>
    <path d="M12.0305 2.57839C11.2815 2.57839 10.5493 2.80077 9.92651 3.2174C9.30371 3.63403 8.81831 4.2262 8.53167 4.91903C8.24503 5.61185 8.17003 6.37422 8.31616 7.10973C8.46229 7.84523 8.82298 8.52083 9.35262 9.0511C9.88226 9.58137 10.5571 9.94249 11.2917 10.0888C12.0263 10.2351 12.7878 10.16 13.4798 9.87302C14.1718 9.58604 14.7633 9.10006 15.1794 8.47653C15.5956 7.853 15.8177 7.11993 15.8177 6.37002C15.8165 5.36479 15.4171 4.40107 14.7071 3.69026C13.9971 2.97946 13.0346 2.5796 12.0305 2.57839ZM12.0305 1.82007C12.9294 1.82007 13.808 2.08692 14.5554 2.58687C15.3027 3.08683 15.8852 3.79743 16.2292 4.62883C16.5731 5.46022 16.6631 6.37506 16.4878 7.25767C16.3124 8.14027 15.8796 8.951 15.244 9.58732C14.6084 10.2236 13.7987 10.657 12.9171 10.8325C12.0356 11.0081 11.1218 10.918 10.2914 10.5736C9.46099 10.2292 8.75122 9.64607 8.25186 8.89783C7.7525 8.1496 7.48596 7.26991 7.48596 6.37002C7.48596 5.1633 7.96476 4.006 8.81703 3.15272C9.66931 2.29944 10.8252 1.82007 12.0305 1.82007Z" fill="#201D57"/>
</svg>
