<svg width="44" height="22" viewBox="0 0 44 22" fill="none" xmlns="http://www.w3.org/2000/svg">
    <mask id="path-1-inside-1_4498_668" fill="white">
        <path d="M25.3488 13.8358C25.2449 13.8361 25.1423 13.8121 25.0496 13.7657C24.9569 13.7194 24.8765 13.6521 24.8152 13.5692L23.4109 11.6695C21.5058 9.0903 12.4079 10.4369 9.21241 9.92384V12.3628C9.2127 12.4838 9.17879 12.6025 9.11449 12.7055C9.05018 12.8085 8.95805 12.8918 8.84844 12.9459C8.73883 13 8.6161 13.0229 8.49406 13.0118C8.37203 13.0008 8.25552 12.9564 8.15766 12.8836L0.264209 7.02727C0.182196 6.96673 0.115611 6.88814 0.0697461 6.79774C0.0238812 6.70733 0 6.60761 0 6.5065C0 6.40539 0.0238812 6.30567 0.0697461 6.21527C0.115611 6.12487 0.182196 6.04628 0.264209 5.98574L8.17014 0.130966C8.26801 0.0581303 8.38451 0.0137078 8.50655 0.00269733C8.62858 -0.00831317 8.75131 0.014525 8.86092 0.0686423C8.97053 0.12276 9.06266 0.206008 9.12697 0.309021C9.19127 0.412034 9.22518 0.530722 9.22489 0.651732V3.40964C15.2975 4.36797 26.0073 6.46028 26.0073 12.5338V13.184C26.0069 13.3209 25.9628 13.4541 25.8813 13.5647C25.7997 13.6754 25.6849 13.7578 25.5532 13.8003C25.487 13.8205 25.4182 13.8314 25.3488 13.8327V13.8358Z"/>
    </mask>
    <path d="M25.3488 13.8358L25.3549 15.8357L27.3488 15.8297V13.8358H25.3488ZM24.8152 13.5692L23.2069 14.758L23.2076 14.759L24.8152 13.5692ZM23.4109 11.6695L21.8022 12.8578L21.8026 12.8583L23.4109 11.6695ZM9.21241 9.92384L9.52947 7.94913L7.21241 7.5771V9.92384H9.21241ZM9.21241 12.3628H7.2124L7.21242 12.3676L9.21241 12.3628ZM8.15766 12.8836L9.35178 11.2792L9.34934 11.2774L8.15766 12.8836ZM0.264209 7.02727L1.45589 5.42106L1.45199 5.41817L0.264209 7.02727ZM0 6.5065H2H0ZM0.264209 5.98574L1.45199 7.59483L1.45447 7.59299L0.264209 5.98574ZM8.17014 0.130966L9.36041 1.73823L9.36426 1.73536L8.17014 0.130966ZM9.22489 0.651732L7.22489 0.646921V0.651732H9.22489ZM9.22489 3.40964H7.22489V5.11876L8.91313 5.38519L9.22489 3.40964ZM26.0073 13.184L28.0073 13.1896V13.184H26.0073ZM25.5532 13.8003L26.1368 15.7133L26.152 15.7086L26.167 15.7038L25.5532 13.8003ZM25.3488 13.8327L25.3128 11.833L23.3488 11.8684V13.8327H25.3488ZM25.3428 11.8358C25.5503 11.8351 25.756 11.883 25.9433 11.9765L24.1559 15.555C24.5287 15.7412 24.9395 15.837 25.3549 15.8357L25.3428 11.8358ZM25.9433 11.9765C26.1308 12.0702 26.2956 12.2075 26.4228 12.3794L23.2076 14.759C23.4575 15.0966 23.7829 15.3687 24.1559 15.555L25.9433 11.9765ZM26.4235 12.3804L25.0193 10.4806L21.8026 12.8583L23.2069 14.758L26.4235 12.3804ZM25.0197 10.4812C24.0797 9.20866 22.509 8.68655 21.2469 8.42301C19.8875 8.13917 18.3204 8.04769 16.8298 8.02216C15.3373 7.9966 13.778 8.03712 12.4904 8.05045C11.1256 8.06459 10.1313 8.04576 9.52947 7.94913L8.89535 11.8985C9.89127 12.0585 11.2325 12.0637 12.5318 12.0502C13.9083 12.036 15.3417 11.9973 16.7613 12.0216C18.1828 12.0459 19.4471 12.1335 20.4293 12.3386C20.9163 12.4403 21.272 12.5587 21.5158 12.6763C21.7614 12.7948 21.8143 12.8741 21.8022 12.8578L25.0197 10.4812ZM7.21241 9.92384V12.3628H11.2124V9.92384H7.21241ZM7.21242 12.3676C7.2118 12.1112 7.28378 11.8613 7.41789 11.6465L10.8111 13.7646C11.0738 13.3437 11.2136 12.8565 11.2124 12.358L7.21242 12.3676ZM7.41789 11.6465C7.55184 11.4319 7.74157 11.2619 7.96301 11.1526L9.73386 14.7392C10.1745 14.5217 10.5485 14.1852 10.8111 13.7646L7.41789 11.6465ZM7.96301 11.1526C8.18425 11.0433 8.4302 10.998 8.67378 11.0199L8.31435 15.0038C8.80201 15.0478 9.2934 14.9567 9.73386 14.7392L7.96301 11.1526ZM8.67378 11.0199C8.91742 11.0419 9.15233 11.1307 9.35177 11.2792L6.96355 14.488C7.35872 14.7821 7.82664 14.9598 8.31435 15.0038L8.67378 11.0199ZM9.34934 11.2774L1.45589 5.42106L-0.927469 8.63348L6.96598 14.4898L9.34934 11.2774ZM1.45199 5.41817C1.61927 5.54166 1.75736 5.70368 1.85333 5.89284L-1.71384 7.70263C-1.52614 8.0726 -1.25488 8.3918 -0.923569 8.63636L1.45199 5.41817ZM1.85333 5.89284C1.94936 6.08212 2 6.29233 2 6.5065H-2C-2 6.9229 -1.90159 7.33255 -1.71384 7.70263L1.85333 5.89284ZM2 6.5065C2 6.72068 1.94936 6.93089 1.85333 7.12016L-1.71384 5.31038C-1.90159 5.68046 -2 6.0901 -2 6.5065H2ZM1.85333 7.12016C1.75736 7.30932 1.61928 7.47134 1.45199 7.59483L-0.923569 4.37664C-1.25488 4.62121 -1.52614 4.94041 -1.71384 5.31038L1.85333 7.12016ZM1.45447 7.59299L9.3604 1.73822L6.97988 -1.47629L-0.926052 4.37848L1.45447 7.59299ZM9.36426 1.73536C9.16481 1.88381 8.9299 1.97262 8.68626 1.99461L8.32683 -1.98921C7.83912 -1.94521 7.3712 -1.76755 6.97603 -1.47343L9.36426 1.73536ZM8.68626 1.99461C8.44267 2.01658 8.19673 1.9712 7.97549 1.86197L9.74635 -1.72468C9.30589 -1.94215 8.81449 -2.03321 8.32683 -1.98921L8.68626 1.99461ZM7.97549 1.86197C7.75405 1.75264 7.56433 1.58266 7.43037 1.36806L10.8236 -0.750019C10.561 -1.17064 10.187 -1.50712 9.74635 -1.72468L7.97549 1.86197ZM7.43037 1.36806C7.29627 1.15323 7.22428 0.903407 7.2249 0.646921L11.2249 0.656543C11.2261 0.158038 11.0863 -0.329163 10.8236 -0.750019L7.43037 1.36806ZM7.22489 0.651732V3.40964H11.2249V0.651732H7.22489ZM8.91313 5.38519C11.9458 5.86378 15.9365 6.59926 19.1378 7.90534C20.7386 8.55846 22.0058 9.30139 22.8469 10.1167C23.6527 10.8977 24.0073 11.6765 24.0073 12.5338H28.0073C28.0073 10.3544 27.0231 8.59403 25.631 7.2446C24.2743 5.92949 22.4845 4.95066 20.6488 4.20172C16.977 2.70367 12.5766 1.91382 9.53666 1.43409L8.91313 5.38519ZM24.0073 12.5338V13.184H28.0073V12.5338H24.0073ZM24.0073 13.1785C24.0081 12.8883 24.1017 12.6084 24.2711 12.3785L27.4915 14.751C27.8239 14.2998 28.0057 13.7534 28.0072 13.1896L24.0073 13.1785ZM24.2711 12.3785C24.4401 12.149 24.675 11.9821 24.9394 11.8968L26.167 15.7038C26.6948 15.5336 27.1593 15.2018 27.4915 14.751L24.2711 12.3785ZM24.9696 11.8874C25.0812 11.8533 25.1967 11.8351 25.3128 11.833L25.3848 15.8323C25.6396 15.8278 25.8928 15.7877 26.1368 15.7133L24.9696 11.8874ZM23.3488 13.8327V13.8358H27.3488V13.8327H23.3488Z" fill="white" mask="url(#path-1-inside-1_4498_668)"/>
    <mask id="path-3-inside-2_4498_668" fill="white">
        <path d="M17.9168 7.7038C18.0207 7.70349 18.1233 7.72748 18.216 7.7738C18.3088 7.82013 18.3891 7.88748 18.4504 7.97035L19.8547 9.87007C21.7598 12.4492 30.8578 11.1026 34.0532 11.6157V9.17674C34.0529 9.05573 34.0868 8.93704 34.1511 8.83403C34.2154 8.73101 34.3076 8.64776 34.4172 8.59365C34.5268 8.53953 34.6495 8.51669 34.7716 8.5277C34.8936 8.53871 35.0101 8.58313 35.108 8.65597L43.0014 14.5123C43.0834 14.5728 43.15 14.6514 43.1959 14.7418C43.2417 14.8322 43.2656 14.9319 43.2656 15.033C43.2656 15.1342 43.2417 15.2339 43.1959 15.3243C43.15 15.4147 43.0834 15.4933 43.0014 15.5538L35.0955 21.4086C34.9976 21.4814 34.8811 21.5258 34.7591 21.5369C34.637 21.5479 34.5143 21.525 34.4047 21.4709C34.2951 21.4168 34.203 21.3335 34.1387 21.2305C34.0744 21.1275 34.0404 21.0088 34.0407 20.8878V18.1299C27.9681 17.1716 17.2584 15.0793 17.2584 9.00572V8.35553C17.2587 8.21869 17.3028 8.08546 17.3844 7.9748C17.4659 7.86415 17.5807 7.78171 17.7124 7.73924C17.7787 7.71902 17.8475 7.70813 17.9168 7.70688V7.7038Z"/>
    </mask>
    <path d="M17.9168 7.7038L17.9108 5.70381L15.9168 5.70982L15.9168 7.7038H17.9168ZM18.4504 7.97035L20.0587 6.7815L20.058 6.78057L18.4504 7.97035ZM19.8547 9.87007L21.4634 8.68179L21.463 8.68122L19.8547 9.87007ZM34.0532 11.6157L33.7362 13.5904L36.0532 13.9624V11.6157L34.0532 11.6157ZM34.0532 9.17674L36.0532 9.17674L36.0532 9.17193L34.0532 9.17674ZM35.108 8.65597L33.9138 10.2604L33.9163 10.2622L35.108 8.65597ZM43.0014 14.5123L41.8097 16.1185L41.8136 16.1214L43.0014 14.5123ZM43.2656 15.033H41.2656H43.2656ZM43.0014 15.5538L41.8136 13.9447L41.8112 13.9466L43.0014 15.5538ZM35.0955 21.4086L33.9052 19.8013L33.9014 19.8042L35.0955 21.4086ZM34.0407 20.8878L36.0407 20.8926V20.8878H34.0407ZM34.0407 18.1299H36.0407V16.4208L34.3525 16.1544L34.0407 18.1299ZM17.2584 8.35553L15.2584 8.35V8.35553H17.2584ZM17.7124 7.73924L17.1288 5.82629L17.1137 5.8309L17.0986 5.83575L17.7124 7.73924ZM17.9168 7.70688L17.9528 9.70656L19.9168 9.67117V7.70688H17.9168ZM17.9228 9.70379C17.7153 9.70442 17.5096 9.65659 17.3223 9.56301L19.1098 5.9846C18.7369 5.79836 18.3262 5.70256 17.9108 5.70381L17.9228 9.70379ZM17.3223 9.56301C17.1349 9.46938 16.97 9.33201 16.8428 9.16013L20.058 6.78057C19.8082 6.44295 19.4827 6.17088 19.1098 5.9846L17.3223 9.56301ZM16.8421 9.15919L18.2464 11.0589L21.463 8.68122L20.0587 6.7815L16.8421 9.15919ZM18.246 11.0583C19.1859 12.3309 20.7567 12.853 22.0187 13.1165C23.3781 13.4004 24.9453 13.4919 26.4358 13.5174C27.9283 13.543 29.4876 13.5024 30.7752 13.4891C32.14 13.475 33.1344 13.4938 33.7362 13.5904L34.3703 9.641C33.3744 9.4811 32.0332 9.47586 30.7338 9.48931C29.3573 9.50357 27.9239 9.54229 26.5043 9.51798C25.0828 9.49363 23.8186 9.40609 22.8364 9.20099C22.3493 9.09929 21.9936 8.98088 21.7498 8.86325C21.5042 8.74474 21.4513 8.66547 21.4634 8.68179L18.246 11.0583ZM36.0532 11.6157V9.17674L32.0532 9.17674V11.6157L36.0532 11.6157ZM36.0532 9.17193C36.0538 9.4284 35.9818 9.67823 35.8477 9.89307L32.4545 7.77499C32.1918 8.19585 32.052 8.68306 32.0532 9.18155L36.0532 9.17193ZM35.8477 9.89307C35.7138 10.1077 35.5241 10.2776 35.3026 10.387L33.5318 6.80032C33.0911 7.01789 32.7171 7.35437 32.4545 7.77499L35.8477 9.89307ZM35.3026 10.387C35.0814 10.4962 34.8354 10.5416 34.5918 10.5196L34.9513 6.53579C34.4636 6.4918 33.9722 6.58285 33.5318 6.80032L35.3026 10.387ZM34.5918 10.5196C34.3482 10.4976 34.1133 10.4088 33.9139 10.2604L36.3021 7.05157C35.9069 6.75746 35.439 6.5798 34.9513 6.53579L34.5918 10.5196ZM33.9163 10.2622L41.8097 16.1185L44.1931 12.9061L36.2996 7.04976L33.9163 10.2622ZM41.8136 16.1214C41.6464 15.9979 41.5083 15.8359 41.4123 15.6467L44.9795 13.8369C44.7918 13.467 44.5205 13.1478 44.1892 12.9032L41.8136 16.1214ZM41.4123 15.6467C41.3163 15.4574 41.2656 15.2472 41.2656 15.033H45.2656C45.2656 14.6166 45.1672 14.207 44.9795 13.8369L41.4123 15.6467ZM41.2656 15.033C41.2656 14.8189 41.3163 14.6087 41.4123 14.4194L44.9795 16.2292C45.1672 15.8591 45.2656 15.4494 45.2656 15.033H41.2656ZM41.4123 14.4194C41.5083 14.2302 41.6463 14.0682 41.8136 13.9447L44.1892 17.1629C44.5205 16.9183 44.7918 16.5991 44.9795 16.2292L41.4123 14.4194ZM41.8112 13.9466L33.9052 19.8013L36.2857 23.0158L44.1917 17.1611L41.8112 13.9466ZM33.9014 19.8042C34.1008 19.6557 34.3357 19.5669 34.5794 19.5449L34.9388 23.5288C35.4265 23.4848 35.8944 23.3071 36.2896 23.013L33.9014 19.8042ZM34.5794 19.5449C34.823 19.523 35.0689 19.5683 35.2901 19.6776L33.5193 23.2642C33.9597 23.4817 34.4511 23.5728 34.9388 23.5288L34.5794 19.5449ZM35.2901 19.6776C35.5116 19.7869 35.7013 19.9569 35.8353 20.1715L32.4421 22.2896C32.7046 22.7102 33.0786 23.0467 33.5193 23.2642L35.2901 19.6776ZM35.8353 20.1715C35.9694 20.3863 36.0413 20.6361 36.0407 20.8926L32.0407 20.883C32.0395 21.3815 32.1794 21.8687 32.4421 22.2896L35.8353 20.1715ZM36.0407 20.8878V18.1299H32.0407V20.8878H36.0407ZM34.3525 16.1544C31.3198 15.6758 27.3291 14.9403 24.1278 13.6342C22.527 12.9811 21.2598 12.2382 20.4187 11.4228C19.613 10.6418 19.2584 9.86301 19.2584 9.00572H15.2584C15.2584 11.1852 16.2425 12.9455 17.6346 14.295C18.9914 15.6101 20.7811 16.5889 22.6168 17.3378C26.2886 18.8359 30.689 19.6257 33.729 20.1055L34.3525 16.1544ZM19.2584 9.00572V8.35553H15.2584V9.00572H19.2584ZM19.2584 8.36106C19.2576 8.65123 19.1639 8.93118 18.9946 9.16109L15.7742 6.78852C15.4417 7.23973 15.2599 7.78616 15.2584 8.35L19.2584 8.36106ZM18.9946 9.16109C18.8255 9.39058 18.5906 9.55747 18.3262 9.64272L17.0986 5.83575C16.5708 6.00596 16.1063 6.33772 15.7742 6.78852L18.9946 9.16109ZM18.296 9.65219C18.1845 9.68622 18.069 9.70446 17.9528 9.70656L17.8808 5.70721C17.626 5.7118 17.3729 5.75182 17.1288 5.82629L18.296 9.65219ZM19.9168 7.70688V7.7038H15.9168V7.70688H19.9168Z" fill="white" mask="url(#path-3-inside-2_4498_668)"/>
    <path d="M21.9391 19.4888C26.788 19.4888 30.7405 15.6039 30.7405 10.7852C30.7405 5.96645 26.788 2.08154 21.9391 2.08154C17.0901 2.08154 13.1377 5.96645 13.1377 10.7852C13.1377 15.6039 17.0901 19.4888 21.9391 19.4888Z" fill="white" stroke="white" stroke-width="2"/>
    <path d="M21.9391 4.36548C20.6533 4.36548 19.3963 4.74199 18.3272 5.4474C17.2581 6.1528 16.4249 7.15543 15.9328 8.32847C15.4407 9.50152 15.312 10.7923 15.5628 12.0376C15.8137 13.2829 16.4329 14.4268 17.3421 15.3246C18.2513 16.2224 19.4097 16.8338 20.6708 17.0815C21.9319 17.3292 23.239 17.2021 24.427 16.7162C25.6149 16.2303 26.6303 15.4075 27.3446 14.3518C28.059 13.2961 28.4403 12.0549 28.4403 10.7852C28.4382 9.0832 27.7526 7.45151 26.5338 6.24802C25.3151 5.04454 23.6627 4.36752 21.9391 4.36548ZM21.9391 3.08154C23.4821 3.08154 24.9904 3.53335 26.2733 4.37984C27.5562 5.22633 28.5562 6.42947 29.1466 7.83713C29.7371 9.24479 29.8916 10.7937 29.5906 12.2881C29.2896 13.7825 28.5466 15.1551 27.4555 16.2325C26.3645 17.3099 24.9744 18.0436 23.4611 18.3408C21.9477 18.6381 20.3791 18.4855 18.9536 17.9024C17.5281 17.3194 16.3097 16.332 15.4525 15.0651C14.5952 13.7982 14.1377 12.3088 14.1377 10.7852C14.1377 8.74205 14.9596 6.7826 16.4227 5.33789C17.8857 3.89317 19.87 3.08154 21.9391 3.08154Z" fill="white"/>
</svg>
