<svg width="61" height="61" viewBox="0 0 61 61" fill="none" xmlns="http://www.w3.org/2000/svg">
    <rect width="61" height="61" rx="30.5" fill="#F8F8F8"/>
    <path d="M27.7708 35.2373L26.1562 12H35.8438L34.2292 35.2373H27.7708ZM31 48C29.5417 48 28.3438 47.5424 27.4063 46.6271C26.4688 45.7119 26 44.6271 26 43.3729C26 42.0847 26.4688 41.017 27.4063 40.1695C28.3438 39.2881 29.5417 38.8475 31 38.8475C32.4931 38.8475 33.691 39.2881 34.5938 40.1695C35.5312 41.017 36 42.0847 36 43.3729C36 44.6271 35.5312 45.7119 34.5938 46.6271C33.691 47.5424 32.4931 48 31 48Z" fill="#EC2323"/>
</svg>
