<svg id="Group_418" data-name="Group 418" xmlns="http://www.w3.org/2000/svg" width="17.995" height="20.233" viewBox="0 0 17.995 20.233">
  <g id="icon-comfort-trade">
    <path id="Path_65" data-name="Path 65" d="M55.349,181.449a1.251,1.251,0,0,0-1.279,1.221v5.887H41.192V182.67a1.281,1.281,0,0,0-2.559,0v8.973a1.213,1.213,0,0,0,.658,1.068v1.8h1.242v-1.647H54.728v1.647H55.97v-1.8a1.213,1.213,0,0,0,.658-1.068V182.67A1.251,1.251,0,0,0,55.349,181.449Z" transform="translate(-38.633 -174.279)"/>
    <path id="Path_66" data-name="Path 66" d="M72.058,11.244H82.453v1.85H72.058Zm0-2.852v1.666H82.453V8.392a2.469,2.469,0,0,1,2.521-2.407V1.221A1.251,1.251,0,0,0,83.694,0H70.816a1.251,1.251,0,0,0-1.279,1.221V5.985A2.469,2.469,0,0,1,72.058,8.392Z" transform="translate(-68.258 0)"/>
  </g>
</svg>
