<svg id="Group_419" data-name="Group 419" xmlns="http://www.w3.org/2000/svg" width="25.762" height="26.122" viewBox="0 0 25.762 26.122">
  <g id="icon-player">
    <path id="Path_67" data-name="Path 67" d="M22.081,103.863l-4.729-4.091a1.378,1.378,0,0,0-.462-.264l-4.9-1.654L12,94.029l2.379.936a1.151,1.151,0,0,0,1.1-.138l3.414-2.469a1.151,1.151,0,1,0-1.349-1.865l-2.9,2.1-2.707-1.065a1.572,1.572,0,0,0-.333-.58,3.068,3.068,0,0,1-2.79-.517h-.76a3.859,3.859,0,0,0-1.248.208L2.4,92.142a1.151,1.151,0,0,0-.7.659L.087,96.811a1.169,1.169,0,0,0,.6,1.511A1.151,1.151,0,0,0,2.212,97.7L3.64,94.15l2.386-.814L6.017,100.1l2.454,5.6L7,109.957a1.381,1.381,0,1,0,2.611.9l1.642-4.749a1.381,1.381,0,0,0-.025-.97L9.185,100.1h.837l5.729,1.935,4.524,3.913a1.381,1.381,0,1,0,1.807-2.089Zm0,0" transform="translate(-0.001 -85.668)" fill="#000000"/>
    <path id="Path_68" data-name="Path 68" d="M181.2,12.385a2.336,2.336,0,1,0-1.414,2.986,2.336,2.336,0,0,0,1.414-2.986Zm-14.926-7.71a2.337,2.337,0,1,0-2.307-1.983A2.338,2.338,0,0,0,166.273,4.675Zm0,0" transform="translate(-155.575)" fill="#000000"/>
  </g>
</svg>
