<svg width="104" height="104" viewBox="0 0 104 104" fill="none" xmlns="http://www.w3.org/2000/svg">
<path d="M52 17C45.0777 17 38.3108 19.0527 32.5551 22.8986C26.7993 26.7444 22.3133 32.2107 19.6642 38.6061C17.0152 45.0015 16.322 52.0388 17.6725 58.8282C19.023 65.6175 22.3564 71.8539 27.2513 76.7487C32.1461 81.6436 38.3825 84.977 45.1718 86.3275C51.9612 87.6779 58.9985 86.9848 65.3939 84.3358C71.7893 81.6867 77.2556 77.2007 81.1014 71.4449C84.9473 65.6892 87 58.9223 87 52C86.9902 42.7204 83.2996 33.8237 76.7379 27.2621C70.1763 20.7004 61.2796 17.0098 52 17ZM52 73.5384C51.2013 73.5384 50.4205 73.3016 49.7564 72.8578C49.0922 72.4141 48.5746 71.7834 48.269 71.0454C47.9633 70.3075 47.8833 69.4955 48.0391 68.7121C48.195 67.9287 48.5796 67.2092 49.1444 66.6444C49.7092 66.0796 50.4288 65.6949 51.2121 65.5391C51.9955 65.3833 52.8075 65.4633 53.5455 65.7689C54.2834 66.0746 54.9141 66.5922 55.3579 67.2563C55.8016 67.9205 56.0385 68.7013 56.0385 69.5C56.0385 70.5711 55.613 71.5982 54.8556 72.3556C54.0983 73.113 53.0711 73.5384 52 73.5384ZM54.6923 57.1423V57.3846C54.6923 58.0986 54.4087 58.7835 53.9038 59.2884C53.3989 59.7933 52.7141 60.0769 52 60.0769C51.286 60.0769 50.6012 59.7933 50.0963 59.2884C49.5914 58.7835 49.3077 58.0986 49.3077 57.3846V54.6923C49.3077 53.9783 49.5914 53.2935 50.0963 52.7885C50.6012 52.2836 51.286 52 52 52C56.4524 52 60.0769 48.9711 60.0769 45.2692C60.0769 41.5673 56.4524 38.5385 52 38.5385C47.5476 38.5385 43.9231 41.5673 43.9231 45.2692V46.6154C43.9231 47.3294 43.6394 48.0142 43.1345 48.5191C42.6296 49.024 41.9448 49.3077 41.2308 49.3077C40.5167 49.3077 39.8319 49.024 39.327 48.5191C38.8221 48.0142 38.5385 47.3294 38.5385 46.6154V45.2692C38.5385 38.5889 44.576 33.1538 52 33.1538C59.424 33.1538 65.4615 38.5889 65.4615 45.2692C65.4615 51.1183 60.8308 56.0149 54.6923 57.1423Z" fill="white"/>
</svg>
