<svg width="104" height="104" viewBox="0 0 104 104" fill="none" xmlns="http://www.w3.org/2000/svg">
<path d="M52 17C45.0777 17 38.3108 19.0527 32.5551 22.8986C26.7993 26.7444 22.3133 32.2107 19.6642 38.6061C17.0152 45.0015 16.322 52.0388 17.6725 58.8282C19.023 65.6175 22.3564 71.8539 27.2513 76.7487C32.1461 81.6436 38.3825 84.977 45.1718 86.3275C51.9612 87.6779 58.9985 86.9848 65.3939 84.3358C71.7893 81.6867 77.2556 77.2007 81.1014 71.4449C84.9473 65.6892 87 58.9223 87 52C86.9902 42.7204 83.2996 33.8237 76.7379 27.2621C70.1763 20.7004 61.2796 17.0098 52 17ZM67.3663 45.8279L48.5202 64.674C48.2702 64.9243 47.9732 65.1229 47.6464 65.2584C47.3195 65.3939 46.9692 65.4636 46.6154 65.4636C46.2616 65.4636 45.9112 65.3939 45.5844 65.2584C45.2576 65.1229 44.9606 64.9243 44.7106 64.674L36.6337 56.5971C36.1285 56.0919 35.8447 55.4067 35.8447 54.6923C35.8447 53.9779 36.1285 53.2927 36.6337 52.7875C37.1388 52.2823 37.824 51.9985 38.5385 51.9985C39.2529 51.9985 39.9381 52.2823 40.4433 52.7875L46.6154 58.963L63.5567 42.0183C63.8069 41.7681 64.1038 41.5697 64.4307 41.4343C64.7575 41.2989 65.1078 41.2293 65.4615 41.2293C65.8153 41.2293 66.1656 41.2989 66.4924 41.4343C66.8192 41.5697 67.1162 41.7681 67.3663 42.0183C67.6165 42.2684 67.8149 42.5654 67.9503 42.8922C68.0857 43.219 68.1553 43.5693 68.1553 43.9231C68.1553 44.2768 68.0857 44.6271 67.9503 44.9539C67.8149 45.2808 67.6165 45.5777 67.3663 45.8279Z" fill="white"/>
</svg>
