<svg width="104" height="104" viewBox="0 0 104 104" fill="none" xmlns="http://www.w3.org/2000/svg">
<path d="M52 17C45.0777 17 38.3108 19.0527 32.5551 22.8986C26.7993 26.7444 22.3133 32.2107 19.6642 38.6061C17.0152 45.0015 16.322 52.0388 17.6725 58.8282C19.023 65.6175 22.3564 71.8539 27.2513 76.7487C32.1461 81.6436 38.3825 84.977 45.1718 86.3275C51.9612 87.6779 58.9985 86.9848 65.3939 84.3358C71.7893 81.6867 77.2556 77.2007 81.1014 71.4449C84.9473 65.6892 87 58.9223 87 52C86.9902 42.7204 83.2996 33.8237 76.7379 27.2621C70.1763 20.7004 61.2796 17.0098 52 17ZM50.6539 33.1538C51.4526 33.1538 52.2334 33.3907 52.8975 33.8344C53.5616 34.2782 54.0792 34.9089 54.3849 35.6469C54.6906 36.3848 54.7705 37.1968 54.6147 37.9802C54.4589 38.7636 54.0743 39.4831 53.5095 40.0479C52.9447 40.6127 52.2251 40.9973 51.4417 41.1532C50.6583 41.309 49.8463 41.229 49.1084 40.9234C48.3705 40.6177 47.7397 40.1001 47.296 39.4359C46.8522 38.7718 46.6154 37.991 46.6154 37.1923C46.6154 36.1212 47.0409 35.094 47.7982 34.3367C48.5556 33.5793 49.5828 33.1538 50.6539 33.1538ZM54.6923 70.8461C53.2642 70.8461 51.8946 70.2788 50.8848 69.269C49.875 68.2592 49.3077 66.8896 49.3077 65.4615V52C48.5937 52 47.9089 51.7163 47.404 51.2114C46.899 50.7065 46.6154 50.0217 46.6154 49.3077C46.6154 48.5936 46.899 47.9088 47.404 47.4039C47.9089 46.899 48.5937 46.6154 49.3077 46.6154C50.7358 46.6154 52.1054 47.1827 53.1152 48.1925C54.125 49.2023 54.6923 50.5719 54.6923 52V65.4615C55.4064 65.4615 56.0912 65.7452 56.5961 66.2501C57.101 66.755 57.3846 67.4398 57.3846 68.1538C57.3846 68.8679 57.101 69.5527 56.5961 70.0576C56.0912 70.5625 55.4064 70.8461 54.6923 70.8461Z" fill="white"/>
</svg>
