<svg width="122" height="132" viewBox="0 0 122 132" fill="none" xmlns="http://www.w3.org/2000/svg">
<path d="M120.167 102.143L120.171 102.15L120.176 102.157C120.715 103.056 121 104.084 121 105.132C121 106.181 120.715 107.209 120.176 108.107L120.171 108.115L120.167 108.122C119.658 109.004 118.926 109.735 118.044 110.242C117.163 110.749 116.163 111.014 115.146 111.01H115.142H95.7077H95.1381L94.8476 111.5L84.9612 128.169L84.9557 128.179C84.7005 128.62 84.378 129.019 83.9998 129.361L83.9877 129.371L83.976 129.383C82.8917 130.429 81.4419 131.009 79.9362 131H79.9302H79.0497C78.2061 130.881 77.399 130.576 76.6865 130.107C75.9588 129.628 75.3488 128.991 74.9022 128.242C74.9009 128.24 74.8997 128.238 74.8984 128.236L61.8367 105.548L60.974 104.05L60.1054 105.545L47.0365 128.042L47.0354 128.044C46.595 128.805 45.9864 129.456 45.2562 129.947C44.5442 130.425 43.7348 130.738 42.8871 130.864H42.014C40.5282 130.858 39.1019 130.279 38.0319 129.247L38.0231 129.239L38.0141 129.23C37.6099 128.859 37.2606 128.432 36.9769 127.963C36.9763 127.962 36.9757 127.961 36.9751 127.96L27.0926 111.297L26.8021 110.807H26.2325L6.79841 110.807L6.79443 110.807C5.77951 110.811 4.78145 110.547 3.90091 110.042C3.02037 109.537 2.28847 108.808 1.77912 107.929C1.26977 107.05 1.00101 106.052 1 105.036C0.999 104.02 1.26579 103.022 1.77341 102.142L20.1234 70.431L20.4045 69.9452L20.1363 69.4522C16.4615 62.6983 14.547 55.1264 14.5699 47.4362V47.4332C14.5699 35.1181 19.4586 23.3076 28.1604 14.5997C36.8622 5.89189 48.6642 1 60.9701 1C73.276 1 85.078 5.89189 93.7798 14.5997C102.482 23.3076 107.37 35.1181 107.37 47.4332L107.37 47.4362C107.393 55.1264 105.479 62.6983 101.804 69.4522L101.536 69.9452L101.817 70.431L120.167 102.143ZM41.0836 112.523L41.952 113.978L42.806 112.514L53.1663 94.7606L53.8817 93.5348L52.4866 93.2737C43.5767 91.6057 35.35 87.3627 28.8226 81.0686L27.9012 80.18L27.2621 81.2892L17.5789 98.0941L16.715 99.5933H18.4453H30.1541C31.1442 99.6042 32.115 99.8698 32.973 100.365C33.8323 100.86 34.5495 101.569 35.0553 102.423L35.057 102.426L41.0836 112.523ZM91.7905 99.5933L91.7976 99.5932L103.512 99.3899L105.208 99.3605L104.361 97.8908L94.6782 81.0859L94.0404 79.9791L93.119 80.8639C86.5951 87.1289 78.3974 91.3688 69.517 93.0712L68.1409 93.335L68.8377 94.5506L79.1303 112.507L79.9804 113.991L80.8566 112.523L86.8832 102.426L86.8849 102.423C87.3907 101.569 88.1079 100.86 88.9672 100.365C89.8265 99.8691 90.7988 99.6034 91.7905 99.5933ZM41.6042 76.4354C47.3364 80.2683 54.0758 82.3141 60.9701 82.3141C70.2151 82.3141 79.0812 78.639 85.6182 72.0975C92.1551 65.556 95.8274 56.684 95.8274 47.4332C95.8274 40.5346 93.7832 33.7908 89.9531 28.0547C86.123 22.3186 80.6791 17.8477 74.3096 15.2076C67.9402 12.5675 60.9314 11.8767 54.1697 13.2226C47.4079 14.5685 41.1969 17.8907 36.322 22.769C31.4472 27.6472 28.1275 33.8623 26.7825 40.6284C25.4376 47.3945 26.1279 54.4078 28.7661 60.7813C31.4042 67.1549 35.8719 72.6026 41.6042 76.4354Z" fill="#D26500" stroke="#F7F7F7" stroke-width="2"/>
</svg>
