<svg width="19" height="14" viewBox="0 0 19 14" fill="none" xmlns="http://www.w3.org/2000/svg">
<path d="M13.9333 3.94307V3.5C13.9333 1.505 10.9385 0 6.96667 0C2.99488 0 0 1.505 0 3.5V6.68182C0 8.34352 2.07812 9.66398 5.06667 10.0593V10.5C5.06667 12.495 8.06154 14 12.0333 14C16.0051 14 19 12.495 19 10.5V7.31818C19 5.67159 16.9876 4.34955 13.9333 3.94307ZM17.7333 7.31818C17.7333 8.36977 15.2958 9.54545 12.0333 9.54545C11.738 9.54545 11.4451 9.53511 11.1562 9.51602C12.8638 8.8908 13.9333 7.875 13.9333 6.68182V5.22932C16.298 5.5833 17.7333 6.5442 17.7333 7.31818ZM5.06667 8.76989V6.8775C5.69666 6.95998 6.33135 7.0009 6.96667 7C7.60198 7.0009 8.23668 6.95998 8.86667 6.8775V8.76989C8.23761 8.86326 7.60255 8.90979 6.96667 8.90909C6.33078 8.90979 5.69572 8.86326 5.06667 8.76989ZM12.6667 5.56261V6.68182C12.6667 7.3492 11.6842 8.06591 10.1333 8.50102V6.64205C11.1554 6.39307 12.0207 6.02239 12.6667 5.56261ZM6.96667 1.27273C10.2291 1.27273 12.6667 2.44841 12.6667 3.5C12.6667 4.55159 10.2291 5.72727 6.96667 5.72727C3.70421 5.72727 1.26667 4.55159 1.26667 3.5C1.26667 2.44841 3.70421 1.27273 6.96667 1.27273ZM1.26667 6.68182V5.56261C1.91267 6.02239 2.77796 6.39307 3.8 6.64205V8.50102C2.24913 8.06591 1.26667 7.3492 1.26667 6.68182ZM6.33333 10.5V10.1683C6.54154 10.1762 6.75212 10.1818 6.96667 10.1818C7.27383 10.1818 7.57387 10.1715 7.86837 10.154C8.19554 10.2717 8.52879 10.3715 8.86667 10.4531V12.3192C7.31579 11.8841 6.33333 11.1674 6.33333 10.5ZM10.1333 12.5881V10.6909C10.7631 10.776 11.3979 10.8185 12.0333 10.8182C12.6686 10.8191 13.3033 10.7782 13.9333 10.6957V12.5881C12.6734 12.7737 11.3933 12.7737 10.1333 12.5881ZM15.2 12.3192V10.4602C16.222 10.2112 17.0873 9.84057 17.7333 9.38079V10.5C17.7333 11.1674 16.7509 11.8841 15.2 12.3192Z" fill="#CE9E00"/>
</svg>
