<svg width="25" height="25" viewBox="0 0 25 25" fill="none" xmlns="http://www.w3.org/2000/svg">
    <path d="M12.5 0C10.0277 0 7.61099 0.733112 5.55538 2.10663C3.49976 3.48015 1.89761 5.43238 0.951511 7.71645C0.00541605 10.0005 -0.242126 12.5139 0.24019 14.9386C0.722505 17.3634 1.91301 19.5907 3.66117 21.3388C5.40933 23.087 7.63661 24.2775 10.0614 24.7598C12.4861 25.2421 14.9995 24.9946 17.2835 24.0485C19.5676 23.1024 21.5199 21.5002 22.8934 19.4446C24.2669 17.389 25 14.9723 25 12.5C24.9965 9.18587 23.6784 6.00848 21.335 3.66503C18.9915 1.32158 15.8141 0.00349978 12.5 0ZM6.01924 20.8534C6.71483 19.7655 7.67309 18.8702 8.80568 18.2501C9.93827 17.6299 11.2087 17.3049 12.5 17.3049C13.7913 17.3049 15.0617 17.6299 16.1943 18.2501C17.3269 18.8702 18.2852 19.7655 18.9808 20.8534C17.1278 22.2945 14.8474 23.0768 12.5 23.0768C10.1526 23.0768 7.8722 22.2945 6.01924 20.8534ZM8.65385 11.5385C8.65385 10.7778 8.87942 10.0341 9.30204 9.40165C9.72466 8.76915 10.3254 8.27618 11.0281 7.98508C11.7309 7.69397 12.5043 7.6178 13.2503 7.76621C13.9964 7.91461 14.6817 8.28092 15.2196 8.81882C15.7575 9.35671 16.1238 10.042 16.2723 10.7881C16.4207 11.5342 16.3445 12.3075 16.0534 13.0103C15.7623 13.7131 15.2693 14.3138 14.6368 14.7364C14.0043 15.159 13.2607 15.3846 12.5 15.3846C11.4799 15.3846 10.5017 14.9794 9.78036 14.2581C9.05907 13.5368 8.65385 12.5585 8.65385 11.5385Z" fill="#201D56"/>
</svg>
