<svg width="25" height="19" viewBox="0 0 25 19" fill="none" xmlns="http://www.w3.org/2000/svg">
    <path d="M24.0385 0H0.961538C0.706523 0 0.461951 0.100089 0.281628 0.278249C0.101305 0.456408 0 0.698044 0 0.95V17.1C0 17.6039 0.202609 18.0872 0.563256 18.4435C0.923903 18.7998 1.41305 19 1.92308 19H23.0769C23.587 19 24.0761 18.7998 24.4367 18.4435C24.7974 18.0872 25 17.6039 25 17.1V0.95C25 0.698044 24.8987 0.456408 24.7184 0.278249C24.538 0.100089 24.2935 0 24.0385 0ZM12.5 10.1116L3.43389 1.9H21.5661L12.5 10.1116ZM8.97957 9.5L1.92308 15.8899V3.11006L8.97957 9.5ZM10.4026 10.7884L11.845 12.1006C12.0223 12.2615 12.2544 12.3508 12.4952 12.3508C12.736 12.3508 12.968 12.2615 13.1454 12.1006L14.5877 10.7884L21.5589 17.1H3.43389L10.4026 10.7884ZM16.0204 9.5L23.0769 3.10888V15.8911L16.0204 9.5Z" fill="#201D56"/>
</svg>
