<svg width="24" height="25" viewBox="0 0 24 25" fill="none" xmlns="http://www.w3.org/2000/svg">
    <path d="M11.8302 0.698242C9.4904 0.698242 7.20316 1.39207 5.25769 2.69199C3.31223 3.99191 1.79592 5.83953 0.900525 8.00121C0.00512584 10.1629 -0.229151 12.5416 0.227319 14.8364C0.683789 17.1312 1.81051 19.2392 3.46499 20.8936C5.11947 22.5481 7.22741 23.6748 9.52224 24.1313C11.8171 24.5878 14.1957 24.3535 16.3574 23.4581C18.5191 22.5627 20.3667 21.0464 21.6666 19.1009C22.9665 17.1555 23.6604 14.8682 23.6604 12.5284C23.6571 9.39188 22.4096 6.38475 20.1917 4.16688C17.9739 1.94901 14.9667 0.701554 11.8302 0.698242ZM11.8302 22.5386C9.85037 22.5386 7.91501 21.9515 6.26885 20.8516C4.62268 19.7516 3.33966 18.1883 2.58201 16.3592C1.82437 14.53 1.62613 12.5173 2.01238 10.5755C2.39862 8.63376 3.352 6.85012 4.75194 5.45018C6.15189 4.05023 7.93553 3.09686 9.87731 2.71061C11.8191 2.32437 13.8318 2.5226 15.6609 3.28025C17.49 4.03789 19.0534 5.32092 20.1533 6.96708C21.2533 8.61324 21.8403 10.5486 21.8403 12.5284C21.8373 15.1824 20.7817 17.7267 18.9051 19.6034C17.0285 21.48 14.4841 22.5356 11.8302 22.5386ZM11.8302 6.15833C10.9304 6.15852 10.0509 6.42548 9.30282 6.92546C8.55474 7.42544 7.97169 8.136 7.62739 8.96729C7.28309 9.79859 7.19298 10.7133 7.36847 11.5958C7.54395 12.4783 7.97715 13.289 8.61329 13.9253L7.37795 17.0285C7.2955 17.2355 7.26499 17.4595 7.28907 17.681C7.31314 17.9025 7.39108 18.1148 7.51607 18.2992C7.64106 18.4837 7.80931 18.6347 8.00612 18.7392C8.20293 18.8437 8.42232 18.8984 8.64514 18.8985H15.0152C15.2381 18.8984 15.4575 18.8437 15.6543 18.7392C15.8511 18.6347 16.0193 18.4837 16.1443 18.2992C16.2693 18.1148 16.3472 17.9025 16.3713 17.681C16.3954 17.4595 16.3649 17.2355 16.2824 17.0285L15.0471 13.9253C15.6832 13.289 16.1164 12.4783 16.2919 11.5958C16.4674 10.7133 16.3773 9.79859 16.033 8.96729C15.6887 8.136 15.1056 7.42544 14.3576 6.92546C13.6095 6.42548 12.73 6.15852 11.8302 6.15833ZM13.1167 13.9958L14.3441 17.0785H9.31628L10.5437 13.9958C10.6186 13.8077 10.6286 13.5999 10.5722 13.4054C10.5157 13.2109 10.396 13.0408 10.232 12.922C9.76402 12.5841 9.41519 12.1066 9.23562 11.558C9.05605 11.0094 9.05497 10.4181 9.23254 9.86884C9.4101 9.31962 9.75717 8.84081 10.2239 8.5012C10.6906 8.16158 11.253 7.97863 11.8302 7.97863C12.4074 7.97863 12.9698 8.16158 13.4365 8.5012C13.9032 8.84081 14.2503 9.31962 14.4278 9.86884C14.6054 10.4181 14.6043 11.0094 14.4248 11.558C14.2452 12.1066 13.8964 12.5841 13.4284 12.922C13.2644 13.0408 13.1446 13.2109 13.0882 13.4054C13.0317 13.5999 13.0418 13.8077 13.1167 13.9958Z" fill="#979797"/>
</svg>
