<svg width="25" height="25" viewBox="0 0 25 25" fill="none" xmlns="http://www.w3.org/2000/svg">
    <path d="M17.3018 3.84912C17.3018 3.59391 17.4031 3.34915 17.5836 3.16869C17.7641 2.98823 18.0088 2.88685 18.264 2.88685H20.1886V0.962291C20.1886 0.707079 20.29 0.46232 20.4704 0.281858C20.6509 0.101396 20.8957 1.36736e-05 21.1509 1.36736e-05C21.4061 1.36736e-05 21.6508 0.101396 21.8313 0.281858C22.0118 0.46232 22.1132 0.707079 22.1132 0.962291V2.88685H24.0377C24.2929 2.88685 24.5377 2.98823 24.7181 3.16869C24.8986 3.34915 25 3.59391 25 3.84912C25 4.10434 24.8986 4.3491 24.7181 4.52956C24.5377 4.71002 24.2929 4.8114 24.0377 4.8114H22.1132V6.73596C22.1132 6.99117 22.0118 7.23593 21.8313 7.41639C21.6508 7.59685 21.4061 7.69824 21.1509 7.69824C20.8957 7.69824 20.6509 7.59685 20.4704 7.41639C20.29 7.23593 20.1886 6.99117 20.1886 6.73596V4.8114H18.264C18.0088 4.8114 17.7641 4.71002 17.5836 4.52956C17.4031 4.3491 17.3018 4.10434 17.3018 3.84912ZM24.8268 10.4263C25.2664 13.0395 24.8641 15.7249 23.6781 18.0946C22.492 20.4644 20.5836 22.3959 18.2282 23.6102C15.8729 24.8246 13.1925 25.259 10.5742 24.8507C7.95583 24.4425 5.53499 23.2126 3.66118 21.3388C1.78736 19.465 0.557531 17.0442 0.149258 14.4258C-0.259015 11.8075 0.175394 9.12715 1.38976 6.7718C2.60413 4.41645 4.53562 2.50797 6.90536 1.32191C9.27509 0.135857 11.9605 -0.266399 14.5737 0.173224C14.8235 0.217398 15.0457 0.358417 15.1921 0.565605C15.3385 0.772794 15.3971 1.02939 15.3552 1.27958C15.3134 1.52977 15.1744 1.75331 14.9686 1.90158C14.7628 2.04985 14.5067 2.11085 14.2562 2.07132C12.7383 1.81598 11.1831 1.89447 9.69866 2.30131C8.21425 2.70815 6.83631 3.43357 5.66076 4.42709C4.4852 5.42061 3.54026 6.65837 2.8917 8.05421C2.24314 9.45006 1.90654 10.9705 1.90532 12.5096C1.90304 15.1008 2.85539 17.602 4.58045 19.5355C5.65367 17.9803 7.16275 16.7771 8.91792 16.0773C7.97511 15.3347 7.28714 14.3168 6.94967 13.165C6.6122 12.0133 6.64202 10.7851 7.03497 9.65111C7.42792 8.51713 8.16448 7.53379 9.14221 6.83783C10.1199 6.14186 11.2902 5.76788 12.4904 5.76788C13.6905 5.76788 14.8608 6.14186 15.8385 6.83783C16.8163 7.53379 17.5528 8.51713 17.9458 9.65111C18.3387 10.7851 18.3686 12.0133 18.0311 13.165C17.6936 14.3168 17.0056 15.3347 16.0628 16.0773C17.818 16.7771 19.3271 17.9803 20.4003 19.5355C22.1254 17.602 23.0777 15.1008 23.0754 12.5096C23.0755 11.918 23.0264 11.3274 22.9287 10.7438C22.9065 10.6187 22.9094 10.4903 22.9372 10.3663C22.9649 10.2422 23.017 10.1249 23.0903 10.0211C23.1636 9.91725 23.2568 9.82898 23.3645 9.76137C23.4721 9.69377 23.5921 9.64816 23.7175 9.62718C23.8429 9.60621 23.9711 9.61028 24.0949 9.63917C24.2187 9.66806 24.3356 9.72118 24.4387 9.79549C24.5419 9.86979 24.6293 9.96379 24.6959 10.0721C24.7625 10.1803 24.807 10.3007 24.8268 10.4263ZM12.4904 15.3965C13.2517 15.3965 13.9958 15.1707 14.6288 14.7478C15.2618 14.3248 15.7552 13.7237 16.0465 13.0203C16.3378 12.317 16.414 11.5431 16.2655 10.7964C16.117 10.0498 15.7504 9.36392 15.2121 8.82561C14.6738 8.28731 13.988 7.92071 13.2413 7.77219C12.4946 7.62368 11.7207 7.6999 11.0174 7.99123C10.3141 8.28256 9.7129 8.77591 9.28996 9.40889C8.86701 10.0419 8.64127 10.7861 8.64127 11.5473C8.64127 12.5682 9.0468 13.5472 9.76865 14.2691C10.4905 14.9909 11.4695 15.3965 12.4904 15.3965ZM12.4904 23.0947C14.84 23.097 17.1229 22.3138 18.9761 20.8694C18.28 19.7807 17.321 18.8847 16.1875 18.2641C15.0541 17.6435 13.7826 17.3182 12.4904 17.3182C11.1981 17.3182 9.92667 17.6435 8.79321 18.2641C7.65975 18.8847 6.70075 19.7807 6.00463 20.8694C7.85785 22.3138 10.1408 23.097 12.4904 23.0947Z" fill="#201D56"/>
</svg>
