<svg width="24" height="24" viewBox="0 0 24 24" fill="none" xmlns="http://www.w3.org/2000/svg">
    <path d="M11.8302 0C9.4904 0 7.20316 0.693828 5.25769 1.99375C3.31223 3.29366 1.79592 5.14129 0.900525 7.30297C0.00512582 9.46465 -0.229151 11.8433 0.227319 14.1381C0.683789 16.433 1.81051 18.5409 3.46499 20.1954C5.11947 21.8499 7.22741 22.9766 9.52224 23.4331C11.8171 23.8895 14.1957 23.6553 16.3574 22.7599C18.5191 21.8645 20.3667 20.3481 21.6666 18.4027C22.9665 16.4572 23.6604 14.17 23.6604 11.8302C23.6571 8.69364 22.4096 5.68651 20.1917 3.46864C17.9739 1.25077 14.9667 0.00331225 11.8302 0ZM5.6967 19.7359C6.35502 18.7063 7.26193 17.859 8.33383 17.2721C9.40573 16.6852 10.6081 16.3776 11.8302 16.3776C13.0523 16.3776 14.2547 16.6852 15.3266 17.2721C16.3985 17.859 17.3054 18.7063 17.9637 19.7359C16.21 21.0998 14.0518 21.8403 11.8302 21.8403C9.60859 21.8403 7.45037 21.0998 5.6967 19.7359ZM8.19013 10.9202C8.19013 10.2002 8.40362 9.49647 8.80359 8.89787C9.20357 8.29926 9.77207 7.8327 10.4372 7.5572C11.1023 7.28169 11.8342 7.2096 12.5403 7.35006C13.2464 7.49051 13.895 7.83719 14.4041 8.34626C14.9132 8.85533 15.2599 9.50393 15.4003 10.21C15.5408 10.9161 15.4687 11.648 15.1932 12.3132C14.9177 12.9783 14.4511 13.5468 13.8525 13.9468C13.2539 14.3467 12.5501 14.5602 11.8302 14.5602C10.8648 14.5602 9.93893 14.1767 9.25628 13.4941C8.57364 12.8114 8.19013 11.8856 8.19013 10.9202ZM19.3105 18.4744C18.2956 17.0037 16.8685 15.8659 15.2086 15.2041C16.1002 14.5018 16.7508 13.5392 17.07 12.45C17.3891 11.3609 17.3609 10.1993 16.9893 9.12693C16.6177 8.05454 15.9211 7.1246 14.9965 6.46644C14.0719 5.80827 12.9651 5.4546 11.8302 5.4546C10.6952 5.4546 9.5885 5.80827 8.66387 6.46644C7.73924 7.1246 7.04269 8.05454 6.67108 9.12693C6.29947 10.1993 6.27127 11.3609 6.59041 12.45C6.90955 13.5392 7.56016 14.5018 8.45176 15.2041C6.79192 15.8659 5.3648 17.0037 4.34987 18.4744C3.0674 17.0322 2.22917 15.2501 1.93611 13.3425C1.64306 11.435 1.90768 9.48336 2.6981 7.72272C3.48853 5.96208 4.77107 4.46746 6.39127 3.41885C8.01147 2.37024 9.90026 1.81235 11.8302 1.81235C13.7601 1.81235 15.6489 2.37024 17.2691 3.41885C18.8893 4.46746 20.1719 5.96208 20.9623 7.72272C21.7527 9.48336 22.0173 11.435 21.7243 13.3425C21.4312 15.2501 20.593 17.0322 19.3105 18.4744Z" fill="#979797"/>
</svg>
