<svg xmlns="http://www.w3.org/2000/svg" width="31.4" height="23.518" viewBox="0 0 31.4 23.518">
  <g id="Group_1109" data-name="Group 1109" transform="translate(0)">
    <path id="Path_490" data-name="Path 490" d="M24.3,16.066a1.307,1.307,0,0,0-1.463,1.124,9.146,9.146,0,0,1-9.081,8.022h-7.3l.849-.849a1.307,1.307,0,0,0,0-1.842,9.146,9.146,0,0,1,6.454-15.6,1.307,1.307,0,0,0,0-2.613A11.759,11.759,0,0,0,4.613,23.4l-2.234,2.2a1.315,1.315,0,0,0,.928,2.234H13.759A11.76,11.76,0,0,0,25.426,17.541,1.307,1.307,0,0,0,24.3,16.066Z" transform="translate(-2.002 -4.307)" fill="#201d56"/>
    <path id="Path_491" data-name="Path 491" d="M1.265-4.6a2,2,0,0,1,1.41-.765.739.739,0,0,1,.8.735A1.3,1.3,0,0,1,3-3.69L.615-1.445V0h4.91V-1.705H3.22l1-.95A2.825,2.825,0,0,0,5.385-4.86a2.237,2.237,0,0,0-2.48-2.27A3.394,3.394,0,0,0,.22-5.87Zm9.65-.06H9.62L9.07-3.45v.62H8.2L10.155-7H8.145L6-2.39v1.265H9.07V0h1.845V-1.125h.8V-2.83h-.8ZM14.325-7h-1.78V1.325h1.78ZM20.4-7H15.23V-5.3h2.98L15.545,0h2.21L20.4-5.55Z" transform="translate(11 10.101)" fill="#201d56"/>
  </g>
</svg>
