<svg id="Component_7_1" data-name="Component 7 – 1" xmlns="http://www.w3.org/2000/svg" width="12.753" height="15.018" viewBox="0 0 12.753 15.018">
  <path id="Path_65" data-name="Path 65" d="M50.479,181.449a.907.907,0,0,0-.907.907v4.37H40.446v-4.37a.907.907,0,0,0-1.813,0v6.661a.906.906,0,0,0,.467.793v1.336h.88v-1.222H50.039v1.222h.88v-1.336a.906.906,0,0,0,.467-.793v-6.661A.907.907,0,0,0,50.479,181.449Z" transform="translate(-38.633 -176.127)" fill="#fff"/>
  <path id="Path_66" data-name="Path 66" d="M71.324,8.346H78.69V9.719H71.324Zm0-2.117V7.466H78.69V6.229a1.789,1.789,0,0,1,1.787-1.787V.907A.907.907,0,0,0,79.57,0H70.444a.907.907,0,0,0-.907.907V4.443A1.789,1.789,0,0,1,71.324,6.229Z" transform="translate(-68.631)" fill="#fff"/>
</svg>
