<svg xmlns="http://www.w3.org/2000/svg" width="24.325" height="13.887" viewBox="0 0 24.325 13.887">
  <path id="Icon_ionic-ios-arrow-round-forward" data-name="Icon ionic-ios-arrow-round-forward" d="M23.388,11.518a.852.852,0,0,0-.008,1.331l5.137,4.4H8.965a.95.95,0,1,0,0,1.88H28.508l-5.137,4.4a.857.857,0,0,0,.008,1.331,1.228,1.228,0,0,0,1.546-.007l6.962-6h0a1.058,1.058,0,0,0,.228-.3A.787.787,0,0,0,32.2,18.2a.877.877,0,0,0-.313-.658l-6.962-6A1.207,1.207,0,0,0,23.388,11.518Z" transform="translate(-7.875 -11.252)" fill="#fff"/>
</svg>
