<svg xmlns="http://www.w3.org/2000/svg" width="25.771" height="25.771" viewBox="0 0 25.771 25.771">
  <path id="Icon_awesome-phone-alt" data-name="Icon awesome-phone-alt" d="M25.037,18.211,19.4,15.8a1.208,1.208,0,0,0-1.409.347l-2.5,3.05a18.657,18.657,0,0,1-8.919-8.919l3.05-2.5a1.205,1.205,0,0,0,.347-1.409L7.555.73a1.216,1.216,0,0,0-1.384-.7L.936,1.239A1.208,1.208,0,0,0,0,2.416,23.353,23.353,0,0,0,23.356,25.772a1.208,1.208,0,0,0,1.178-.936L25.742,19.6a1.223,1.223,0,0,0-.705-1.389Z" fill="#fff"/>
</svg>
