<svg xmlns="http://www.w3.org/2000/svg" width="18.849" height="23.553" viewBox="0 0 18.849 23.553">
  <path id="Path_588" data-name="Path 588" d="M22.413,3.943a1.178,1.178,0,0,0-.99-.236,9.424,9.424,0,0,1-7.327-1.5,1.178,1.178,0,0,0-1.343,0,9.424,9.424,0,0,1-7.327,1.5A1.176,1.176,0,0,0,4,4.862v8.776a10.6,10.6,0,0,0,4.441,8.635l4.3,3.063a1.178,1.178,0,0,0,1.367,0l4.3-3.063a10.6,10.6,0,0,0,4.441-8.635V4.862A1.178,1.178,0,0,0,22.413,3.943Zm-1.92,9.7a8.246,8.246,0,0,1-3.452,6.715l-3.617,2.58-3.617-2.58a8.246,8.246,0,0,1-3.452-6.715V6.217A11.781,11.781,0,0,0,13.424,4.58a11.781,11.781,0,0,0,7.068,1.637Z" transform="translate(-4 -2.002)" fill="#fff"/>
</svg>
