<svg xmlns="http://www.w3.org/2000/svg" width="23.45" height="23.59" viewBox="0 0 23.45 23.59">
  <path id="Path_589" data-name="Path 589" d="M19.2,16.141c-.236-.118-1.767-.825-2-.942a.555.555,0,0,0-.707.118c-.236.236-.707.942-.942,1.178-.118.236-.353.236-.589.118A9.63,9.63,0,0,1,12.6,15.2a13.56,13.56,0,0,1-1.649-2,.518.518,0,0,1,.118-.589c.118-.118.236-.353.471-.471a.893.893,0,0,0,.236-.471.358.358,0,0,0,0-.471,20.94,20.94,0,0,1-.942-2.12c-.118-.825-.353-.825-.589-.825H9.657A1.344,1.344,0,0,0,8.95,8.6a3.39,3.39,0,0,0-1.06,2.474,6.171,6.171,0,0,0,1.178,3.063A12.56,12.56,0,0,0,14.016,18.5a9.233,9.233,0,0,0,1.649.589,3.365,3.365,0,0,0,1.885.118,3.052,3.052,0,0,0,2-1.414,1.97,1.97,0,0,0,.118-1.414l-.471-.236m2.945-10.72a11.742,11.742,0,0,0-18.5,14.136L2,25.565l6.244-1.649a11.64,11.64,0,0,0,17.2-10.249,11.474,11.474,0,0,0-3.3-8.246M18.964,21.913a9.887,9.887,0,0,1-5.183,1.531,10.331,10.331,0,0,1-4.948-1.3l-.353-.236-3.652.942.942-3.534-.236-.353A9.891,9.891,0,0,1,8.715,5.421,9.583,9.583,0,0,1,22.027,8.484a9.72,9.72,0,0,1-3.063,13.429" transform="translate(-2 -1.975)" fill="#fff"/>
</svg>
