<svg xmlns="http://www.w3.org/2000/svg" xmlns:xlink="http://www.w3.org/1999/xlink" width="20.132" height="20.131" viewBox="0 0 20.132 20.131">
  <defs>
    <clipPath id="clip-path">
      <rect id="Rectangle_6030" data-name="Rectangle 6030" width="20.132" height="20.131" fill="#fff"/>
    </clipPath>
  </defs>
  <g id="Group_1598" data-name="Group 1598" clip-path="url(#clip-path)">
    <path id="Path_734" data-name="Path 734" d="M551.33,288.418h-3.365c-3.17,0-4.757,0-5.742.983-.678.675-.889,1.637-.955,3.2a1.219,1.219,0,0,0,.038.57,2.587,2.587,0,0,0,.753.491,1.676,1.676,0,0,1,0,2.93,2.587,2.587,0,0,0-.753.491,1.22,1.22,0,0,0-.038.57c.066,1.564.277,2.525.955,3.2.985.983,2.571.983,5.742.983h3.365c3.171,0,4.757,0,5.742-.983.678-.677.889-1.637.955-3.2a1.22,1.22,0,0,0-.038-.57,2.588,2.588,0,0,0-.752-.491,1.677,1.677,0,0,1,0-2.93,2.588,2.588,0,0,0,.752-.491,1.22,1.22,0,0,0,.038-.57c-.066-1.564-.277-2.526-.955-3.2C556.087,288.418,554.5,288.418,551.33,288.418Z" transform="translate(-539.581 -285.325)" fill="none" stroke="#35bbb8" stroke-width="1"/>
    <path id="Path_735" data-name="Path 735" d="M544.824,296l5.033-5.033" transform="translate(-537.274 -283.678)" fill="none" stroke="#35bbb8" stroke-linecap="round" stroke-width="1"/>
    <path id="Path_736" data-name="Path 736" d="M548.794,294.094a.839.839,0,1,1-.838-.838A.838.838,0,0,1,548.794,294.094Z" transform="translate(-535.791 -282.195)" fill="#35bbb8"/>
    <path id="Path_737" data-name="Path 737" d="M546.248,291.547a.839.839,0,1,1-.839-.838A.839.839,0,0,1,546.248,291.547Z" transform="translate(-537.439 -283.843)" fill="#35bbb8"/>
  </g>
</svg>
