<svg id="Group_1857" data-name="Group 1857" xmlns="http://www.w3.org/2000/svg" width="21.861" height="13.742" viewBox="0 0 21.861 13.742">
  <path id="Rectangle_610" data-name="Rectangle 610" d="M1,0H20.861a1,1,0,0,1,1,1V3.748a0,0,0,0,1,0,0H0a0,0,0,0,1,0,0V1A1,1,0,0,1,1,0Z" fill="#1962af"/>
  <path id="Rectangle_611" data-name="Rectangle 611" d="M0,0H21.861a0,0,0,0,1,0,0V2.748a1,1,0,0,1-1,1H1a1,1,0,0,1-1-1V0A0,0,0,0,1,0,0Z" transform="translate(0 9.994)" fill="#fdb625"/>
  <g id="Group_704" data-name="Group 704" transform="translate(4.838 4.894)">
    <g id="Group_703" data-name="Group 703" transform="translate(0)">
      <path id="Path_324" data-name="Path 324" d="M16.509,55.406h-.994l.621-3.819h.994Zm-1.831-3.819-.948,2.627-.112-.566h0l-.335-1.718a.426.426,0,0,0-.472-.344H11.244l-.018.065a3.72,3.72,0,0,1,1.04.437l.864,3.318h1.036l1.582-3.819ZM22.5,55.406h.913l-.8-3.819h-.8a.457.457,0,0,0-.459.285l-1.483,3.535h1.037l.207-.567h1.264ZM21.4,54.055l.522-1.429.294,1.429Zm-1.452-1.55.142-.82a2.87,2.87,0,0,0-.894-.167c-.493,0-1.665.216-1.665,1.264,0,.987,1.375,1,1.375,1.517s-1.234.425-1.641.1l-.148.858a2.786,2.786,0,0,0,1.122.216c.679,0,1.7-.351,1.7-1.308,0-.993-1.388-1.085-1.388-1.517s.968-.376,1.394-.142Z" transform="translate(-11.226 -51.519)" fill="#2566af"/>
    </g>
    <path id="Path_327" data-name="Path 327" d="M13.618,54.247l-.335-1.718a.426.426,0,0,0-.472-.344H11.244l-.018.065a3.852,3.852,0,0,1,1.476.741A2.978,2.978,0,0,1,13.618,54.247Z" transform="translate(-11.226 -52.118)" fill="#e6a540"/>
  </g>
  <path id="Rectangle_612" data-name="Rectangle 612" d="M1.249.312a.938.938,0,0,0-.937.937V12.493a.938.938,0,0,0,.937.937H20.612a.938.938,0,0,0,.937-.937V1.249a.938.938,0,0,0-.937-.937H1.249m0-.312H20.612a1.249,1.249,0,0,1,1.249,1.249V12.493a1.249,1.249,0,0,1-1.249,1.249H1.249A1.249,1.249,0,0,1,0,12.493V1.249A1.249,1.249,0,0,1,1.249,0Z" transform="translate(0 0)"/>
</svg>
