<svg id="Group_891" data-name="Group 891" xmlns="http://www.w3.org/2000/svg" width="167.305" height="36.266" viewBox="0 0 167.305 36.266">
  <path id="Icon_ionic-logo-whatsapp" data-name="Icon ionic-logo-whatsapp" d="M20.712,2.25a17.735,17.735,0,0,0-17.8,17.666,17.483,17.483,0,0,0,2.555,9.122L2.25,38.516l9.857-3.131A17.834,17.834,0,0,0,38.516,19.916,17.735,17.735,0,0,0,20.712,2.25Zm8.853,24.375a4.6,4.6,0,0,1-3.149,2.03c-.835.044-.859.647-5.411-1.33s-7.29-6.787-7.506-7.1A8.731,8.731,0,0,1,11.82,15.5a5.045,5.045,0,0,1,1.733-3.7,1.744,1.744,0,0,1,1.233-.519c.358-.006.591-.011.856,0s.663-.055,1.008.861,1.169,3.169,1.275,3.4a.825.825,0,0,1,.008.791,3.092,3.092,0,0,1-.483.735c-.238.255-.5.57-.712.765-.236.216-.483.451-.235.912a13.624,13.624,0,0,0,2.411,3.217,12.422,12.422,0,0,0,3.57,2.373c.446.243.713.216.99-.075s1.185-1.275,1.505-1.714.62-.354,1.031-.189,2.6,1.34,3.05,1.583.744.367.851.559A3.739,3.739,0,0,1,29.565,26.625Z" transform="translate(-2.25 -2.25)" fill="#fff"/>
  <path id="Icon_awesome-instagram" data-name="Icon awesome-instagram" d="M18.136,11.072a9.3,9.3,0,1,0,9.3,9.3A9.283,9.283,0,0,0,18.136,11.072Zm0,15.343a6.045,6.045,0,1,1,6.045-6.045,6.056,6.056,0,0,1-6.045,6.045ZM29.983,10.692a2.169,2.169,0,1,1-2.169-2.169A2.164,2.164,0,0,1,29.983,10.692Zm6.158,2.2c-.138-2.905-.8-5.478-2.929-7.6s-4.694-2.784-7.6-2.929c-2.994-.17-11.969-.17-14.963,0-2.9.138-5.47.8-7.6,2.921S.268,9.98.122,12.885c-.17,2.994-.17,11.968,0,14.963.138,2.905.8,5.478,2.929,7.6s4.694,2.784,7.6,2.929c2.994.17,11.969.17,14.963,0,2.905-.138,5.478-.8,7.6-2.929s2.784-4.694,2.929-7.6c.17-2.994.17-11.96,0-14.955ZM32.273,31.06a6.12,6.12,0,0,1-3.447,3.447c-2.387.947-8.052.728-10.69.728s-8.311.21-10.69-.728A6.12,6.12,0,0,1,4,31.06c-.947-2.387-.728-8.052-.728-10.69S3.06,12.06,4,9.681A6.12,6.12,0,0,1,7.446,6.233C9.833,5.286,15.5,5.5,18.136,5.5s8.311-.21,10.69.728a6.12,6.12,0,0,1,3.447,3.447c.947,2.387.728,8.052.728,10.69S33.22,28.681,32.273,31.06Z" transform="translate(65.414 -2.238)" fill="#fff"/>
  <path id="Icon_awesome-facebook" data-name="Icon awesome-facebook" d="M37.048,18.805A18.243,18.243,0,1,0,15.955,36.828V24.079H11.321V18.805h4.634V14.786c0-4.572,2.722-7.1,6.89-7.1a28.075,28.075,0,0,1,4.084.356v4.487h-2.3a2.637,2.637,0,0,0-2.973,2.849v3.424h5.059l-.809,5.274h-4.25V36.828A18.249,18.249,0,0,0,37.048,18.805Z" transform="translate(130.256 -0.563)" fill="#fff"/>
</svg>
