<svg xmlns="http://www.w3.org/2000/svg" width="27.925" height="27.925" viewBox="0 0 27.925 27.925">
  <path id="Icon_awesome-google-plus" data-name="Icon awesome-google-plus" d="M13.963.563A13.963,13.963,0,1,0,27.925,14.525,13.968,13.968,0,0,0,13.963.563ZM9.982,21.507a6.981,6.981,0,0,1,0-13.963,6.743,6.743,0,0,1,4.673,1.819L12.763,11.2a3.961,3.961,0,0,0-2.781-1.075,4.4,4.4,0,0,0,0,8.794,3.784,3.784,0,0,0,3.947-3H9.982v-2.4h6.582a6.148,6.148,0,0,1,.107,1.165,6.44,6.44,0,0,1-6.689,6.824Zm12.961-5.979v2h-2v-2h-2v-2h2v-2h2v2h1.982v2Z" transform="translate(0 -0.563)" fill="#bb2024"/>
</svg>
