<svg id="Group_1110" data-name="Group 1110" xmlns="http://www.w3.org/2000/svg" width="22.097" height="27.007" viewBox="0 0 22.097 27.007">
  <path id="Icon_ionic-ios-key" data-name="Icon ionic-ios-key" d="M9.139,5.237a3.477,3.477,0,0,0-1.151.126C6.43,4.036,2.313.533,2,.206A.621.621,0,0,0,1.537,0,1.027,1.027,0,0,0,.882.3C.669.5-.134,1.367.019,1.527.481,2,.6,2.1.8,2.291c.286.292.871-.031,1.108.071a.454.454,0,0,1,.32.385,5.754,5.754,0,0,1-.092.73.77.77,0,0,0,.283.585.648.648,0,0,0,.48.268c.277.006.643-.394.936-.1s-.191.73-.154,1.047a1.163,1.163,0,0,0,.665.742c.188.04.671-.36.945-.3a.642.642,0,0,1,.339.351c.031.142-.212.77-.182.911a2.165,2.165,0,0,0,.32.536A3.468,3.468,0,0,0,5.475,8.99a3.746,3.746,0,0,0,3.67,3.818A3.741,3.741,0,0,0,12.809,8.99,3.69,3.69,0,0,0,9.139,5.237Zm.714,5.6a.985.985,0,1,1,.985-.985A.984.984,0,0,1,9.853,10.838Z" transform="translate(11.364 4.452) rotate(47)" fill="#201d56"/>
  <path id="Icon_feather-shield" data-name="Icon feather-shield" d="M15.548,28.507a1.227,1.227,0,0,1-.549-.13,27.192,27.192,0,0,1-5.17-3.55,18.5,18.5,0,0,1-3.613-4.155A10.755,10.755,0,0,1,4.5,15V6.41a1.228,1.228,0,0,1,.8-1.149l9.821-3.683a1.228,1.228,0,0,1,.862,0L25.8,5.261a1.228,1.228,0,0,1,.8,1.149V15a10.755,10.755,0,0,1-1.717,5.669,18.5,18.5,0,0,1-3.613,4.155,27.192,27.192,0,0,1-5.17,3.55A1.227,1.227,0,0,1,15.548,28.507ZM6.955,7.261V15a8.345,8.345,0,0,0,1.352,4.382,16.071,16.071,0,0,0,3.139,3.594,25.641,25.641,0,0,0,4.1,2.9c1.974-1.124,8.595-5.31,8.595-10.879V7.261L15.548,4.039Z" transform="translate(-4.5 -1.5)" fill="#201d56"/>
</svg>
