<svg xmlns="http://www.w3.org/2000/svg" width="16.745" height="19.638" viewBox="0 0 16.745 19.638">
  <g id="Group_274" data-name="Group 274" transform="translate(0 0)">
    <path id="Path_62" data-name="Path 62" d="M-5687.291-2718.078l2.245-1.612,4.653.224,2.558,1.761v2.4l2.759.22,2.362.89.947,1.727v3.167l-.154,2.661-1.505,1.5-3.774.415-1.115.325-.188,1.7-2.694,1.135-4.269-.479-1.856-1.363v-2.594l.184-2.044,1.676-.66.79-.934-1.95-.736-.668-1.041Z" transform="translate(5687.989 2720.535)" fill="#1f1d53"/>
    <g id="Group_98" data-name="Group 98" transform="translate(0.152)">
      <path id="Path_59" data-name="Path 59" d="M10.1,11.785V14.83a2.371,2.371,0,0,0,1.18,1.914A7.482,7.482,0,0,0,15.352,17.8a7.482,7.482,0,0,0,4.072-1.054A2.371,2.371,0,0,0,20.6,14.83V11.785a.685.685,0,0,0-1.37,0V14.83c0,.305-.247.554-.582.782a6.089,6.089,0,0,1-3.3.816,6.089,6.089,0,0,1-3.3-.816c-.336-.228-.582-.477-.582-.782V11.785a.685.685,0,0,0-1.37,0Z" transform="translate(-10.1 -8.817)" fill="#fff" fill-rule="evenodd"/>
      <path id="Path_60" data-name="Path 60" d="M10.1,15.785V18.83a2.371,2.371,0,0,0,1.18,1.914A7.482,7.482,0,0,0,15.352,21.8a7.482,7.482,0,0,0,4.072-1.054A2.371,2.371,0,0,0,20.6,18.83V15.785a.685.685,0,0,0-1.37,0V18.83c0,.305-.247.554-.582.782a6.089,6.089,0,0,1-3.3.816,6.089,6.089,0,0,1-3.3-.816c-.336-.228-.582-.477-.582-.782V15.785a.685.685,0,0,0-1.37,0Z" transform="translate(-10.1 -9.772)" fill="#fff" fill-rule="evenodd"/>
      <path id="Path_61" data-name="Path 61" d="M15.352,8.1a7.482,7.482,0,0,0-4.071,1.054A2.372,2.372,0,0,0,10.1,11.068a2.372,2.372,0,0,0,1.181,1.914,7.482,7.482,0,0,0,4.071,1.054,7.482,7.482,0,0,0,4.071-1.054A2.372,2.372,0,0,0,20.6,11.068a2.372,2.372,0,0,0-1.181-1.914A7.482,7.482,0,0,0,15.352,8.1Zm0,1.37a6.1,6.1,0,0,1,3.3.816c.336.229.582.477.582.782s-.247.553-.582.782a6.1,6.1,0,0,1-3.3.816,6.1,6.1,0,0,1-3.3-.816c-.336-.229-.582-.477-.582-.782s.247-.553.582-.782A6.1,6.1,0,0,1,15.352,9.47Z" transform="translate(-10.1 -8.1)" fill="#fff" fill-rule="evenodd"/>
    </g>
    <path id="Path_63" data-name="Path 63" d="M0,0H6.089V6.089H0Z" transform="translate(7.003 5.937)" fill="#1f1d53"/>
    <g id="Group_99" data-name="Group 99" transform="translate(6.242 4.567)">
      <path id="Path_59-2" data-name="Path 59" d="M10.1,11.785V14.83a2.371,2.371,0,0,0,1.18,1.914A7.482,7.482,0,0,0,15.352,17.8a7.482,7.482,0,0,0,4.072-1.054A2.371,2.371,0,0,0,20.6,14.83V11.785a.685.685,0,0,0-1.37,0V14.83c0,.305-.247.554-.582.782a6.089,6.089,0,0,1-3.3.816,6.089,6.089,0,0,1-3.3-.816c-.336-.228-.582-.477-.582-.782V11.785a.685.685,0,0,0-1.37,0Z" transform="translate(-10.1 -8.817)" fill="#fff" fill-rule="evenodd"/>
      <path id="Path_60-2" data-name="Path 60" d="M10.1,15.785V18.83a2.371,2.371,0,0,0,1.18,1.914A7.482,7.482,0,0,0,15.352,21.8a7.482,7.482,0,0,0,4.072-1.054A2.371,2.371,0,0,0,20.6,18.83V15.785a.685.685,0,0,0-1.37,0V18.83c0,.305-.247.554-.582.782a6.089,6.089,0,0,1-3.3.816,6.089,6.089,0,0,1-3.3-.816c-.336-.228-.582-.477-.582-.782V15.785a.685.685,0,0,0-1.37,0Z" transform="translate(-10.1 -9.772)" fill="#fff" fill-rule="evenodd"/>
      <path id="Path_61-2" data-name="Path 61" d="M15.352,8.1a7.482,7.482,0,0,0-4.071,1.054A2.372,2.372,0,0,0,10.1,11.068a2.372,2.372,0,0,0,1.181,1.914,7.482,7.482,0,0,0,4.071,1.054,7.482,7.482,0,0,0,4.071-1.054A2.372,2.372,0,0,0,20.6,11.068a2.372,2.372,0,0,0-1.181-1.914A7.482,7.482,0,0,0,15.352,8.1Zm0,1.37a6.1,6.1,0,0,1,3.3.816c.336.229.582.477.582.782s-.247.553-.582.782a6.1,6.1,0,0,1-3.3.816,6.1,6.1,0,0,1-3.3-.816c-.336-.229-.582-.477-.582-.782s.247-.553.582-.782A6.1,6.1,0,0,1,15.352,9.47Z" transform="translate(-10.1 -8.1)" fill="#fff" fill-rule="evenodd"/>
    </g>
    <path id="Path_64" data-name="Path 64" d="M0,0H7.611V5.328H0Z" transform="translate(1.522 12.026)" fill="#1f1d53"/>
    <g id="Group_100" data-name="Group 100" transform="translate(0 10.656)">
      <path id="Path_59-3" data-name="Path 59" d="M10.1,11.785V14.83a2.371,2.371,0,0,0,1.18,1.914A7.482,7.482,0,0,0,15.352,17.8a7.482,7.482,0,0,0,4.072-1.054A2.371,2.371,0,0,0,20.6,14.83V11.785a.685.685,0,0,0-1.37,0V14.83c0,.305-.247.554-.582.782a6.089,6.089,0,0,1-3.3.816,6.089,6.089,0,0,1-3.3-.816c-.336-.228-.582-.477-.582-.782V11.785a.685.685,0,0,0-1.37,0Z" transform="translate(-10.1 -8.817)" fill="#fff" fill-rule="evenodd"/>
      <path id="Path_61-3" data-name="Path 61" d="M15.352,8.1a7.482,7.482,0,0,0-4.071,1.054A2.372,2.372,0,0,0,10.1,11.068a2.372,2.372,0,0,0,1.181,1.914,7.482,7.482,0,0,0,4.071,1.054,7.482,7.482,0,0,0,4.071-1.054A2.372,2.372,0,0,0,20.6,11.068a2.372,2.372,0,0,0-1.181-1.914A7.482,7.482,0,0,0,15.352,8.1Zm0,1.37a6.1,6.1,0,0,1,3.3.816c.336.229.582.477.582.782s-.247.553-.582.782a6.1,6.1,0,0,1-3.3.816,6.1,6.1,0,0,1-3.3-.816c-.336-.229-.582-.477-.582-.782s.247-.553.582-.782A6.1,6.1,0,0,1,15.352,9.47Z" transform="translate(-10.1 -8.1)" fill="#fff" fill-rule="evenodd"/>
    </g>
  </g>
</svg>
