<svg xmlns="http://www.w3.org/2000/svg" width="75.972" height="25.813" viewBox="0 0 75.972 25.813">
  <g id="Group_590" data-name="Group 590" transform="translate(0 0)">
    <path id="Path_172" data-name="Path 172" d="M60.946,23.947l6.117-1.1V46.579H60.946Zm9.787,0V46.579H76.85V22.846ZM52.382,46.579H58.5V29.452H52.382Zm-41.84-14.8c-.856,0-2.691-.122-2.691-1.835,0-1.957,2.691-1.957,3.67-1.957a21.712,21.712,0,0,1,5.628.979l1.835.612h.245V24.069l-.245-.122A24.712,24.712,0,0,0,10.665,22.6C3.569,22.846,1,27.005,1,30.553c0,2.08.856,6.851,9.053,7.463.734,0,2.569.122,2.569,1.835,0,1.468-1.713,2.2-4.282,2.2A27.9,27.9,0,0,1,1,40.707v5.628a36.161,36.161,0,0,0,8.686.979c6.973,0,10.154-3.915,10.154-7.83,0-4.4-3.425-7.218-9.3-7.707ZM48.59,29.085c-5.872.122-8.441,2.814-8.441,7.952v9.542h6.117V38.872c0-3.058,0-4.4,3.67-4.527V29.207C49.935,28.963,48.59,29.085,48.59,29.085Zm-17.005.367a31,31,0,0,1-3.67,5.995v-12.6L21.8,24.191V46.579h6.117V39.973a14.026,14.026,0,0,1,2.936,6.606h7.83a79.946,79.946,0,0,0-4.16-8.808,33.716,33.716,0,0,0,4.527-8.319Zm23.856-1.835a3.058,3.058,0,1,0-3.058-3.058A3.029,3.029,0,0,0,55.441,27.617Z" transform="translate(-0.878 -21.5)" fill="#b73091"/>
    <path id="Path_173" data-name="Path 173" d="M63.415,23.457l3.67-.612V46.579H60.968Zm9.542.122-2.2,23h6.117V22.846Zm-20.553,23h6.117V29.452H55.952ZM1.022,30.553c0,2.08.856,6.851,8.931,7.463.734,0,3.67.122,3.67,1.835,0,1.468-2.936,2.2-5.383,2.2A27.9,27.9,0,0,1,.9,40.707v5.628a36.161,36.161,0,0,0,8.686.979c6.973,0,10.154-3.915,10.154-7.83,0-4.4-3.425-7.218-9.3-7.707-.856,0-2.569-.122-2.569-1.835,0-1.957,2.691-1.957,3.67-1.957a21.712,21.712,0,0,1,5.628.979l1.835.612h.245V24.069l-.245-.122A24.712,24.712,0,0,0,10.687,22.6M40.171,36.792v9.787h6.117V38.872c0-3.058,0-4.4,3.67-4.527V29.207c0-.122-1.346-.122-1.346-.122M21.82,46.579h6.117V39.973c2.447,2.814,5.261,6.606,5.261,6.606H38.58a79.946,79.946,0,0,0-4.16-8.808,33.716,33.716,0,0,0,4.527-8.319h-3.67a34.3,34.3,0,0,0-7.34,5.995V23.335m27.526,4.282a3.058,3.058,0,0,0,0-6.117" transform="translate(-0.9 -21.5)" fill="#862165"/>
  </g>
</svg>
