<svg xmlns="http://www.w3.org/2000/svg" width="146.8" height="20.367" viewBox="0 0 146.8 20.367">
  <g id="Group_1526" data-name="Group 1526" transform="translate(0 0.4)">
    <g id="Group_708" data-name="Group 708" transform="translate(0 0)">
      <path id="Path_925" data-name="Path 925" d="M0,0H31.764V5.445H0Z" fill="#102b9a"/>
      <rect id="Rectangle_611" data-name="Rectangle 611" width="31.764" height="5.445" transform="translate(0 14.521)" fill="#ffdc11"/>
      <g id="Group_704" data-name="Group 704" transform="translate(7.029 7.111)">
        <g id="Group_703" data-name="Group 703" transform="translate(0)">
          <path id="Path_324" data-name="Path 324" d="M18.9,57.167H17.457l.9-5.549H19.8Zm-2.66-5.549-1.377,3.817-.163-.822h0l-.486-2.5a.618.618,0,0,0-.685-.5H11.253l-.027.094a5.4,5.4,0,0,1,1.511.634l1.255,4.821H15.5l2.3-5.549ZM27.6,57.167h1.327l-1.157-5.549H26.613a.664.664,0,0,0-.667.414l-2.155,5.136H25.3l.3-.824h1.837ZM26.015,55.2l.759-2.077L27.2,55.2ZM23.9,52.953l.206-1.192a4.17,4.17,0,0,0-1.3-.242c-.717,0-2.42.313-2.42,1.837,0,1.434,2,1.451,2,2.2s-1.792.618-2.384.143l-.215,1.246a4.049,4.049,0,0,0,1.631.313c.986,0,2.473-.51,2.473-1.9,0-1.443-2.016-1.577-2.016-2.2s1.407-.547,2.025-.206Z" transform="translate(-11.226 -51.519)" fill="#ffdc11"/>
        </g>
        <path id="Path_327" data-name="Path 327" d="M14.7,55.181l-.486-2.5a.618.618,0,0,0-.685-.5H11.253l-.027.094a5.6,5.6,0,0,1,2.144,1.077A4.327,4.327,0,0,1,14.7,55.181Z" transform="translate(-11.226 -52.087)" fill="#ffdc11"/>
      </g>
      <g id="Rectangle_612" data-name="Rectangle 612" fill="none" stroke="#bfbfbf" stroke-width="0.5">
        <rect width="31.764" height="19.966" stroke="none"/>
        <rect x="0.25" y="0.25" width="31.264" height="19.466" fill="none"/>
      </g>
    </g>
    <g id="Layer_x0020_1" transform="translate(39.024 0)">
      <g id="_235782456" transform="translate(0 0)">
        <path id="Path_337" data-name="Path 337" d="M1.918,0H29.312A1.918,1.918,0,0,1,31.23,1.918V18.048a1.918,1.918,0,0,1-1.918,1.918H1.918A1.918,1.918,0,0,1,0,18.048V1.918A1.918,1.918,0,0,1,1.918,0Z" fill="#062367"/>
        <path id="Path_328" data-name="Path 328" d="M546.586,1260.948l.139-.549c.534-.161,1.625-.234,1.83.344a9.1,9.1,0,0,1-.285,2.144l-.52.007c-.117-.146-.022.125-.1-.234-.5.446-1.559.373-1.478-.527s.856-.776,1.7-.908c-.015-.571-.732-.417-1.288-.286Zm3.916-.088c-.476,0-.549-.1-.966.081.051.52.322.315.7.564.71.468-.051,1.918-1.742,1.3l.1-.527c.476.1.717.19,1.083-.015.088-.739-1.222-.256-.856-1.442.2-.644,1.069-.556,1.786-.49l-.1.534Zm-7.29-1.12,1.12.036.117,1.756.607-1.405c.2-.505.066-.4,1.354-.38l-.578,3.14-.629-.007.344-2.254-.93,2.269-.754-.022a16.337,16.337,0,0,0-.176-2.276l-.381,2.284-.659-.007Zm10.678,6.667.307-.366c-.615-.081-.725.1-1-.4l1.413-.015a4.1,4.1,0,0,0,.307-.454c-1.61-.11-2.064.3-2.32-.4h2.584l.285-.447-3.191-.015-.146-.373,3.44-.015c.2-.11.2-.234.249-.461l-3.257-.007c-.585.007-.622.139-.732-.4h4.1l.132-.454-1.2-.015-.059.307-.688-.029.432-2.554.651.088c0,.015.015.066.015.088s.007.037.007.044l.037.132a.744.744,0,0,1,.725-.366l-.22.593c-.124.161-.49-.022-.644.417l.717.029a4.618,4.618,0,0,1,.3-.973l.007-.22-4.487.007-.015.161c.242,0,.234-.044.373.073l-.066.432c-.454.11-.439-.161-.483.432.066.11-.015.051.124.088l.285.007a1.252,1.252,0,0,1,2.152-.7c.168.249.337,1.069-.081,1.135l-1.4.015c.066.739.915.585,1.464.4-.022.307,0,.556-.285.659a2.194,2.194,0,0,1-.951,0,1.042,1.042,0,0,1-.922-1.112l-.263-.007c-.242-.11-.051,0-.176-.3-.1.615-.381,1.01.381.922-.044.366.007.49-.4.534-1.171.139-.79-.644-.6-1.691.3-1.669.066-1.464.915-1.449l4.362.007-.088-.454-4.216-.015.08-.366,3.989-.022c-.1-.622-.124-.469-1.573-.469h-2.21c.154-.534.073-.388,1.508-.388H555.5l-.2-.461-2.81-.007.19-.381,2.349-.015c-.3-.615-.285-.439-1.947-.469.212-.527.585-.4,1.237-.4-.183-.293-.315-.271-.424-.52a7.63,7.63,0,0,1-.783-.578,7.115,7.115,0,1,0-2.708,12.867c2.093-.359,2.62-1.208,3.484-1.683Z" transform="translate(-538.258 -1251.156)" fill="#fff" fill-rule="evenodd"/>
        <path id="Path_329" data-name="Path 329" d="M1872.012,1264.731c2.269-.461,1.9.659,1.713,1.566-.059.271-.059.805-.271.951a3.2,3.2,0,0,1-.381-.007c-.2-.081-.11.161-.139-.212-.615.351-1.588.432-1.471-.549.1-.783.885-.908,1.691-.871-.029-.578-.556-.483-1.288-.3l.154-.578Zm2.24-.066.607.007a.138.138,0,0,1,.015.051l.095.271a.745.745,0,0,1,.637-.322l-.088.52-.3.117c-.6.2-.564.951-.725,1.94h-.681Zm3.227-.556h.622l-.534,3.147c-.7.007-.527.044-.747-.22-.454.673-1.815.051-1.4-1.339.307-1.039,1.347-1.317,1.859-.7l.2-.893Zm-10.239-3.952c.11.249.249.227.424.52-.651,0-1.025-.139-1.237.4,1.661.029,1.647-.146,1.947.468l-2.349.015-.19.381,2.811.007.2.461h-1.94c-1.427,0-1.354-.139-1.508.388h2.21c1.449,0,1.471-.153,1.574.469l-3.989.022-.08.366,4.216.015.088.454-4.362-.007-.059.41,4.487-.007-.007.22c.337-.322.278-.49.908-.673a2.465,2.465,0,0,1,1.361.073l-.11.673c-.878-.264-1.449-.2-1.654.71-.227.973.542,1.339,1.354.951-.073.71-.19.886-1.024.776a1.306,1.306,0,0,1-1.01-.7h-1.047l-.058.4,1.2.015-.132.454h-4.1c.11.534.146.4.732.4l3.257.007c-.058.22-.051.351-.249.461l-3.44.015.146.373,3.191.015-.286.446h-2.584c.256.7.71.293,2.32.4a4.1,4.1,0,0,1-.307.454l-1.412.015c.271.49.388.322,1,.4l-.307.366a7.163,7.163,0,0,0,7.927,1.069,7.113,7.113,0,0,0-.044-12.772,7.335,7.335,0,0,0-6.345.044,9.809,9.809,0,0,0-1.522,1.054Z" transform="translate(-1851.599 -1255.509)" fill="#fff" fill-rule="evenodd"/>
        <path id="Path_330" data-name="Path 330" d="M634,2031.27l.659.007.38-2.283a16.354,16.354,0,0,1,.176,2.276l.754.022.93-2.269-.344,2.254.629.007.578-3.14c-1.288-.015-1.149-.125-1.354.38l-.607,1.405-.117-1.756-1.12-.037Zm20.391-.578c-.549-.564-.081-1.5.432-1.376S655.232,2030.677,654.391,2030.692Zm.893-1.661c-.512-.615-1.544-.337-1.859.7-.417,1.383.944,2.013,1.4,1.339.22.263.051.22.747.22l.534-3.147h-.622l-.2.893Zm-5.028,1.669c-.1-.49.351-.681.783-.593A.545.545,0,0,1,650.255,2030.7Zm-.234-1.925-.154.578c.732-.176,1.266-.271,1.288.3-.805-.037-1.6.088-1.691.871-.124.981.856.9,1.471.549.029.373-.066.132.139.212a3.174,3.174,0,0,0,.381.007c.22-.139.22-.681.271-.951.19-.915.556-2.027-1.713-1.566Zm-10.92,1.31a.608.608,0,0,1-.19.564c-.11.08-.439.176-.571.051-.41-.373.359-.622.754-.615Zm-1.164-.746c.556-.132,1.273-.285,1.288.285-.842.132-1.617.015-1.7.907s.973.974,1.478.527c.081.359-.015.088.1.234l.52-.007a9.157,9.157,0,0,0,.285-2.144c-.2-.585-1.288-.512-1.83-.344l-.139.549Zm6.067.366c.1-.373.256-.527.688-.469.154.22.154.154.183.469Zm-.776.037-.029.4a1.052,1.052,0,0,0,.922,1.112,2.194,2.194,0,0,0,.951,0c.285-.1.263-.351.285-.659-.549.183-1.4.337-1.464-.4l1.4-.015c.417-.066.249-.878.081-1.134a1.252,1.252,0,0,0-2.152.7Zm4.26-.974a4.624,4.624,0,0,0-.3.974v.4l.124.446a1.306,1.306,0,0,0,1.01.7c.834.11.951-.066,1.025-.776-.82.388-1.581.022-1.354-.951.212-.915.783-.974,1.654-.71l.11-.673a2.608,2.608,0,0,0-1.361-.073c-.629.176-.571.351-.908.673Zm-5.54-.051c-.717-.058-1.588-.154-1.786.49-.366,1.186.937.7.856,1.442-.373.2-.607.11-1.083.015l-.1.527c1.691.622,2.445-.82,1.742-1.3-.373-.249-.644-.036-.7-.563.417-.19.483-.08.966-.08l.1-.534Z" transform="translate(-629.609 -2019.545)" fill="#a7a7a7" fill-rule="evenodd"/>
        <path id="Path_331" data-name="Path 331" d="M1719.608,2042.605l.051-.176c.044-.593.029-.322.483-.432l.066-.432c-.139-.117-.132-.073-.373-.073l.015-.161.059-.41c-.849-.014-.615-.219-.915,1.449-.19,1.047-.571,1.83.6,1.691.4-.044.351-.168.4-.534C1719.235,2043.615,1719.513,2043.22,1719.608,2042.605Zm3.44,1.164.059-.4.073-.439.132-.439c.161-.439.527-.256.644-.417l.22-.593a.731.731,0,0,0-.725.366l-.037-.132c0-.007-.007-.03-.007-.044s-.015-.073-.015-.088l-.651-.088-.432,2.554.688.029.058-.307Zm5.614.293h.681c.161-.988.124-1.742.724-1.939l.3-.117.088-.52a.744.744,0,0,0-.637.322l-.1-.271c-.007-.015-.007-.037-.015-.051l-.607-.007Z" transform="translate(-1706.449 -2032.322)" fill="#a7a7a7" fill-rule="evenodd"/>
        <path id="Path_332" data-name="Path 332" d="M3386.382,2202.85c.849-.015.944-1.252.432-1.376S3385.833,2202.287,3386.382,2202.85Z" transform="translate(-3361.6 -2191.704)" fill="#a7a7a7" fill-rule="evenodd"/>
        <path id="Path_333" data-name="Path 333" d="M1212.895,2307.978c-.4-.007-1.164.242-.754.615.132.117.461.022.571-.051a.619.619,0,0,0,.19-.564Zm7.165.5,1.046.008-.124-.447h-.849Z" transform="translate(-1203.402 -2297.439)" fill="#a7a7a7" fill-rule="evenodd"/>
        <path id="Path_334" data-name="Path 334" d="M2323.916,2257a.546.546,0,0,0,.783-.593C2324.26,2256.322,2323.813,2256.512,2323.916,2257Zm-3.916-.556h.849v-.4l-.717-.037Z" transform="translate(-2303.269 -2245.842)" fill="#a7a7a7" fill-rule="evenodd"/>
        <path id="Path_335" data-name="Path 335" d="M2001,2190.828h.871c-.022-.307-.029-.249-.183-.468C2001.256,2190.3,2001.1,2190.455,2001,2190.828Z" transform="translate(-1986.604 -2180.669)" fill="#a7a7a7" fill-rule="evenodd"/>
        <path id="Path_336" data-name="Path 336" d="M1832,2248.183c.125.3-.066.191.176.3l.263.007.029-.4-.286-.007c-.146-.029-.066.022-.124-.088l-.051.176Z" transform="translate(-1818.841 -2237.9)" fill="#a7a7a7" fill-rule="evenodd"/>
      </g>
    </g>
    <g id="Group_706" data-name="Group 706" transform="translate(78.049)">
      <rect id="Rectangle_614" data-name="Rectangle 614" width="30.316" height="19.525" rx="1" fill="#f9f9f9" stroke="#093da5" stroke-linecap="round" stroke-linejoin="round" stroke-width="0.8"/>
      <g id="Group_705" data-name="Group 705" transform="translate(1.881 7.615)">
        <path id="Path_338" data-name="Path 338" d="M-132.836,429.138h1.381a2.3,2.3,0,0,1,.713.085,1.239,1.239,0,0,1,.564.41,2.05,2.05,0,0,1,.358.72,3.874,3.874,0,0,1,.122,1.051,3.458,3.458,0,0,1-.114.947,2.055,2.055,0,0,1-.4.786,1.3,1.3,0,0,1-.531.355,1.947,1.947,0,0,1-.669.094h-1.423Zm.756.753v2.946h.564a1.721,1.721,0,0,0,.457-.043.664.664,0,0,0,.3-.185,1,1,0,0,0,.2-.429,3.432,3.432,0,0,0,.077-.816,3.132,3.132,0,0,0-.077-.791,1.067,1.067,0,0,0-.214-.431.685.685,0,0,0-.35-.209,2.857,2.857,0,0,0-.62-.043Zm3,3.7v-4.448h.755v4.448Zm1.282-1.447.736-.085a1.144,1.144,0,0,0,.269.646.731.731,0,0,0,.548.207.75.75,0,0,0,.55-.184.585.585,0,0,0,.185-.429.456.456,0,0,0-.078-.269.614.614,0,0,0-.272-.192q-.133-.055-.6-.195a1.919,1.919,0,0,1-.853-.44,1.262,1.262,0,0,1-.344-.9,1.3,1.3,0,0,1,.162-.635,1.073,1.073,0,0,1,.467-.451,1.609,1.609,0,0,1,.737-.155,1.414,1.414,0,0,1,1.061.367,1.409,1.409,0,0,1,.374.98l-.756.039a.813.813,0,0,0-.208-.493.673.673,0,0,0-.479-.15.763.763,0,0,0-.516.161.346.346,0,0,0-.12.276.368.368,0,0,0,.112.27,1.813,1.813,0,0,0,.7.3,3.271,3.271,0,0,1,.815.32,1.147,1.147,0,0,1,.414.452,1.516,1.516,0,0,1,.15.708,1.5,1.5,0,0,1-.179.716,1.139,1.139,0,0,1-.506.5,1.821,1.821,0,0,1-.814.162,1.456,1.456,0,0,1-1.091-.39,1.837,1.837,0,0,1-.454-1.136Zm6.079-.188.732.276a2.035,2.035,0,0,1-.56,1.082,1.431,1.431,0,0,1-.995.353,1.5,1.5,0,0,1-1.226-.605,2.6,2.6,0,0,1-.48-1.655,2.732,2.732,0,0,1,.482-1.725,1.536,1.536,0,0,1,1.269-.614,1.422,1.422,0,0,1,1.116.483,1.857,1.857,0,0,1,.383.819l-.748.212a.982.982,0,0,0-.277-.546.717.717,0,0,0-.512-.2.8.8,0,0,0-.675.355,1.984,1.984,0,0,0-.259,1.15,2.138,2.138,0,0,0,.255,1.2.782.782,0,0,0,.664.358.692.692,0,0,0,.518-.227,1.414,1.414,0,0,0,.311-.716Zm1.23-.561a3.3,3.3,0,0,1,.172-1.141,2.158,2.158,0,0,1,.348-.61,1.486,1.486,0,0,1,.484-.4,1.774,1.774,0,0,1,.807-.176,1.622,1.622,0,0,1,1.324.61,2.618,2.618,0,0,1,.5,1.7,2.607,2.607,0,0,1-.493,1.685,1.61,1.61,0,0,1-1.318.608,1.624,1.624,0,0,1-1.328-.605,2.569,2.569,0,0,1-.493-1.667Zm.779-.03a1.884,1.884,0,0,0,.294,1.145.9.9,0,0,0,.745.39.889.889,0,0,0,.742-.387,1.922,1.922,0,0,0,.29-1.161,1.9,1.9,0,0,0-.282-1.141.891.891,0,0,0-.75-.376.9.9,0,0,0-.753.381A1.9,1.9,0,0,0-119.707,431.359Zm4.394,2.227-1.338-4.448h.82l.948,3.292.916-3.292h.8l-1.34,4.448Zm2.538,0v-4.448H-110v.753h-2.019v.985h1.879v.75h-1.879v1.211h2.091v.749Zm3.5,0v-4.448h1.591a2.305,2.305,0,0,1,.872.12.91.91,0,0,1,.436.426,1.467,1.467,0,0,1,.163.7,1.329,1.329,0,0,1-.247.827,1.126,1.126,0,0,1-.74.411,1.858,1.858,0,0,1,.4.373,5.235,5.235,0,0,1,.43.722l.458.868h-.9l-.546-.968a6.171,6.171,0,0,0-.4-.653.588.588,0,0,0-.227-.186,1.058,1.058,0,0,0-.381-.05h-.153v1.857Zm.756-2.567h.559a2.463,2.463,0,0,0,.68-.054.422.422,0,0,0,.212-.188.663.663,0,0,0,.077-.334.6.6,0,0,0-.1-.362.446.446,0,0,0-.285-.175,5.259,5.259,0,0,0-.552-.015h-.59Z" transform="translate(132.836 -429.062)" fill="#bababa"/>
      </g>
      <path id="Path_339" data-name="Path 339" d="M-103.241,431.366a2.392,2.392,0,0,1-2.392,2.392,2.392,2.392,0,0,1-2.392-2.392,2.392,2.392,0,0,1,2.392-2.392,2.392,2.392,0,0,1,2.392,2.392Z" transform="translate(121.804 -421.401)" fill="#a7a7a7" fill-rule="evenodd"/>
      <path id="Path_340" data-name="Path 340" d="M-98.485,438.88l-21.851,6.609-.764.4h20.994a1.52,1.52,0,0,0,1.621-1.584Z" transform="translate(128.609 -426.556)" fill="#0d4082"/>
    </g>
    <g id="Group_707" data-name="Group 707" transform="translate(115.258 0)">
      <path id="Path_341" data-name="Path 341" d="M29.423,0H2.1A2.1,2.1,0,0,0,0,2.1V17.862a2.1,2.1,0,0,0,2.1,2.1H29.423a2.1,2.1,0,0,0,2.1-2.1V2.1A2.1,2.1,0,0,0,29.423,0Z" fill="#6b3900" fill-rule="evenodd"/>
      <path id="Path_342" data-name="Path 342" d="M2.844,19.325l-.607-1.479-.6,1.479h1.21Zm13.371-.589a.822.822,0,0,1-.439.076H14.7v-.824h1.092a.906.906,0,0,1,.42.067.339.339,0,0,1,.187.328.379.379,0,0,1-.183.353Zm7.685.589-.614-1.479-.61,1.479Zm-14.325,1.6H8.665l0-2.906L7.376,20.926H6.6L5.308,18.018v2.908H3.5L3.164,20.1H1.318l-.344.828H.011L1.6,17.216H2.916l1.508,3.513V17.216H5.872l1.16,2.517L8.1,17.216H9.574v3.71Zm3.623,0H10.235v-3.71H13.2v.772H11.122v.669h2.025v.761H11.122v.741H13.2v.767Zm4.177-2.711a1.045,1.045,0,0,1-.625.989,1.026,1.026,0,0,1,.439.313,1.066,1.066,0,0,1,.147.68v.729H16.44l0-.468a1.114,1.114,0,0,0-.14-.723.867.867,0,0,0-.646-.159H14.7v1.35h-.887v-3.71h2.04a2.088,2.088,0,0,1,1.074.178.866.866,0,0,1,.449.822h0Zm1.419,2.711h-.905v-3.71h.905Zm10.5,0H28.033l-1.681-2.785v2.785H24.547L24.2,20.1H22.36l-.335.828H20.987a1.864,1.864,0,0,1-1.286-.41,1.867,1.867,0,0,1-.474-1.417,1.974,1.974,0,0,1,.478-1.451,1.8,1.8,0,0,1,1.347-.433h.859v.795H21.07a.853.853,0,0,0-.682.22,1.225,1.225,0,0,0-.255.84,1.287,1.287,0,0,0,.244.871.855.855,0,0,0,.618.191h.4l1.25-2.918h1.329l1.5,3.51v-3.51h1.35L28.382,19.8V17.216h.908v3.71ZM0,21.655H1.515l.342-.824h.765l.341.824H5.944v-.63l.266.633H7.757l.266-.642v.64h7.409l0-1.353h.143c.1,0,.13.013.13.179v1.174h3.832V21.34a3.033,3.033,0,0,0,1.422.315h1.612l.345-.824h.765l.337.824h3.107v-.783l.47.783h2.489V16.48H27.617v.611l-.345-.611H24.744v.611l-.317-.611H21.013a3.067,3.067,0,0,0-1.48.3v-.3H17.177v.3a1.461,1.461,0,0,0-1-.3H7.566l-.578,1.337L6.4,16.48H3.684v.611l-.3-.611H1.074L0,18.941v2.715Zm31.541,2.732H29.925a.614.614,0,0,0-.359.067.289.289,0,0,0-.13.267.28.28,0,0,0,.194.276,1.011,1.011,0,0,0,.342.042l.481.013a1.4,1.4,0,0,1,1.006.3.483.483,0,0,1,.082.092V24.387Zm0,2.447a1.381,1.381,0,0,1-1.2.475H28.626v-.8h1.705a.5.5,0,0,0,.359-.092.326.326,0,0,0,.105-.242.305.305,0,0,0-.108-.246.451.451,0,0,0-.313-.082c-.833-.028-1.871.026-1.871-1.149,0-.538.342-1.1,1.272-1.1h1.766V22.86H29.9a1.848,1.848,0,0,0-1.11.3v-.3H26.363a1.681,1.681,0,0,0-1.059.3v-.3H20.969v.3a2.308,2.308,0,0,0-1.2-.3H16.914v.3a2.023,2.023,0,0,0-1.25-.3h-3.2l-.732.793-.686-.793H6.266v5.178h4.69l.754-.8.711.8,2.891,0V26.822H15.6a3.008,3.008,0,0,0,1.235-.182v1.4h2.385v-1.35h.115c.147,0,.161.006.161.153v1.2h7.244a2.067,2.067,0,0,0,1.207-.332v.332h2.3a3.076,3.076,0,0,0,1.3-.239v-.964ZM28,25.351a1.033,1.033,0,0,1,.265.786c0,.8-.5,1.171-1.393,1.171H25.149v-.8h1.72a.521.521,0,0,0,.363-.092.329.329,0,0,0,.1-.242.318.318,0,0,0-.108-.246.467.467,0,0,0-.316-.082c-.829-.028-1.868.026-1.868-1.149,0-.538.338-1.1,1.268-1.1H28.09v.79H26.463a.6.6,0,0,0-.355.067.311.311,0,0,0,.061.544,1.02,1.02,0,0,0,.345.042l.477.013a1.432,1.432,0,0,1,1.013.3h0Zm-8-.229a.849.849,0,0,1-.438.076H18.488v-.833H19.58a.871.871,0,0,1,.423.067.353.353,0,0,1,.184.334.4.4,0,0,1-.184.356h0Zm.535.462a.962.962,0,0,1,.435.312,1.083,1.083,0,0,1,.147.677v.736h-.89v-.464c0-.223.022-.554-.143-.726a.861.861,0,0,0-.651-.165h-.948v1.356H17.6V23.6h2.047a2.195,2.195,0,0,1,1.067.175.869.869,0,0,1,.456.824,1.04,1.04,0,0,1-.629.988h0Zm1.12-1.987h2.96v.767H22.542v.675h2.026V25.8H22.542v.738l2.076,0v.77h-2.96V23.6ZM15.676,25.31H14.53v-.945h1.156c.32,0,.542.13.542.455s-.212.49-.552.49Zm-2.029,1.661L12.285,25.46,13.647,24Zm-3.516-.436H7.951V25.8H9.9V25.04H7.951v-.675h2.223l.97,1.082-1.013,1.089Zm7.05-1.715c0,1.031-.769,1.244-1.544,1.244H14.53v1.245H12.806L11.714,26.08l-1.135,1.229H7.067V23.6h3.567l1.091,1.216L12.852,23.6h2.834c.7,0,1.494.195,1.494,1.223h0Z" transform="translate(0 -12.151)" fill="#fff" fill-rule="evenodd"/>
    </g>
  </g>
</svg>
