<svg id="PlayStation-PS5-Logo.wine" xmlns="http://www.w3.org/2000/svg" width="20.057" height="13.367" viewBox="0 0 20.057 13.367">
  <path id="Path_354" data-name="Path 354" d="M94.1,0V12.471l3.266.9V2.906c0-.483.252-.817.66-.7.534.128.638.58.638,1.068V7.448c2.035.85,3.635,0,3.635-2.242,0-2.3-.934-3.319-3.691-4.134A44.8,44.8,0,0,0,94.1,0Z" transform="translate(-86.696)" fill="#fff"/>
  <path id="Path_355" data-name="Path 355" d="M11.381,114.292l5.259-1.629c.6-.185.688-.45.2-.586a4.08,4.08,0,0,0-1.959.087l-3.5,1.07v-1.7l.2-.058a13.7,13.7,0,0,1,2.438-.452,11.929,11.929,0,0,1,4.534.469c1.542.425,1.716,1.048,1.324,1.478a3.829,3.829,0,0,1-1.352.729l-7.145,2.237ZM1.5,114.156c-1.574-.387-1.835-1.192-1.112-1.659a8.313,8.313,0,0,1,1.79-.752l4.657-1.459v1.649l-3.336,1.051c-.592.185-.681.447-.2.586a4.024,4.024,0,0,0,1.946-.088l1.607-.511v1.491l-.32.044a11.952,11.952,0,0,1-5-.353" transform="translate(0 -102.776)" fill="#fff"/>
</svg>
