<svg xmlns="http://www.w3.org/2000/svg" width="43.312" height="26.515" viewBox="0 0 43.312 26.515">
  <g id="Group_777" data-name="Group 777" transform="translate(-81.473 -211.951)">
    <g id="PlayStation-PS4-Logo.wine" transform="translate(82.006 211.951)">
      <path id="path88" d="M159.555,13.1h-5.966a2.332,2.332,0,0,0-2.58,2.457v4.225c0,.86-.41,1.479-1.27,1.479h-5.626a.064.064,0,0,0-.064.064v.849a.064.064,0,0,0,.064.064h6.264a2.333,2.333,0,0,0,2.583-2.454V15.557c0-.863.407-1.482,1.267-1.482h5.329a.064.064,0,0,0,.064-.064v-.847a.064.064,0,0,0-.064-.064" transform="translate(-131.042 -13.1)" fill="#fff"/>
      <path id="path90" d="M106.373,13.11H95.565a.064.064,0,0,0-.064.064v.849a.067.067,0,0,0,.067.064h10.156c.86,0,1.267.619,1.267,1.479s-.407,1.482-1.267,1.482H97.687A2.271,2.271,0,0,0,95.5,19.486v2.7a.062.062,0,0,0,.064.064h1.83a.064.064,0,0,0,.064-.064v-2.7c0-.86.5-1.463,1.208-1.463h7.7a2.331,2.331,0,0,0,2.58-2.454,2.333,2.333,0,0,0-2.58-2.457" transform="translate(-95.498 -13.107)" fill="#fff"/>
      <path id="path92" d="M213.938,20.29h-1.83a.067.067,0,0,1-.067-.064V14.077c0-.946-.654-1.254-1.573-.686l-11.024,6.77c-.434.268-.579.565-.474.788s.327.324.8.324H210a.07.07,0,0,1,.059.048v.863a.067.067,0,0,0,.064.067h1.838a.067.067,0,0,0,.064-.067v-.852a.067.067,0,0,1,.064-.067h1.846A.067.067,0,0,0,214,21.2v-.847a.067.067,0,0,0-.067-.064m-3.86-.07a.067.067,0,0,1-.064.067H201.44c-.07,0-.1-.019-.115-.043s0-.07.064-.1l8.53-5.254c.059-.038.158-.029.158.086Z" transform="translate(-171.226 -13.105)" fill="#fff"/>
    </g>
    <g id="PlayStation-PS5-Logo.wine" transform="translate(81.473 229.109)">
      <path id="Path_361" data-name="Path 361" d="M143.138,4.773a2.436,2.436,0,0,0-2.7,2.558v4.013a1.58,1.58,0,0,1-1.5,1.689h-4.694a.067.067,0,0,0-.067.067v.884a.067.067,0,0,0,.067.067h5.534c1.816,0,2.706-.958,2.706-2.4V7.331a1.5,1.5,0,0,1,1.556-1.543h4.721a.067.067,0,0,0,.067-.067V4.84a.067.067,0,0,0-.067-.067Zm-11.02-.043H121.2a.067.067,0,0,0-.067.067v.964a.07.07,0,0,0,.07.067H131.44a1.379,1.379,0,0,1,1.326,1.461,1.436,1.436,0,0,1-1.326,1.464h-8.015a2.442,2.442,0,0,0-2.29,2.618v2.649a.064.064,0,0,0,.067.067h1.915a.067.067,0,0,0,.067-.067V11.369a1.52,1.52,0,0,1,1.42-1.581l7.509.057a2.434,2.434,0,0,0,2.7-2.556,2.436,2.436,0,0,0-2.7-2.559" transform="translate(-121.134 -4.73)" fill="#fff"/>
      <path id="Path_363" data-name="Path 363" d="M692.234,39.543h13.089q.093,0,.093.072v.9q0,.065-.093.059H694.238c-.061,0-.1.021-.114.062V42.8a.693.693,0,0,0,.669.683h8.321a2.648,2.648,0,0,1,2.7,2.667,2.684,2.684,0,0,1-2.488,2.685h-11.1c-.054,0-.08-.009-.08-.075s0-.844,0-.885.017-.064.08-.065h9.791a1.728,1.728,0,0,0,1.743-1.66,1.643,1.643,0,0,0-1.507-1.589h-8.79a1.285,1.285,0,0,1-.937-.444,1.353,1.353,0,0,1-.38-1.107V39.615Q692.154,39.543,692.234,39.543Z" transform="translate(-662.505 -39.5)" fill="#fff" fill-rule="evenodd"/>
    </g>
  </g>
</svg>
