<svg xmlns="http://www.w3.org/2000/svg" width="38.151" height="25.041" viewBox="0 0 38.151 25.041">
  <path id="Path_683" data-name="Path 683" d="M10.349,9.406a29.057,29.057,0,0,1,25.085.418.776.776,0,0,0,1.15-.418l1.463-4.494a.955.955,0,0,0-.523-1.254A35.537,35.537,0,0,0,.419,7.211,1.045,1.045,0,0,0,.106,8.57L3.555,16.2a1.087,1.087,0,0,0,1.359.627A33.585,33.585,0,0,1,20.8,14.737,28.767,28.767,0,0,0,10.767,18.5a1.045,1.045,0,0,0-.314,1.359l2.09,4.808a.651.651,0,0,0,1.045.209,11.7,11.7,0,0,1,2.4-1.881A25.518,25.518,0,0,1,30.1,19.963a1.045,1.045,0,0,0,1.045-.732l1.568-4.7a1,1,0,0,0-.418-1.254A31.879,31.879,0,0,0,10.244,9.406Z" transform="translate(0.024 -0.017)" fill="#fff"/>
</svg>
