<svg xmlns="http://www.w3.org/2000/svg" width="120" height="58.834" viewBox="0 0 120 58.834">
  <g id="Group_1575" data-name="Group 1575" transform="translate(-553.521 -67.941)">
    <g id="logo.11842d83" transform="translate(556.67 67.941)">
      <path id="Path_648" data-name="Path 648" d="M8.695,17.821,8.4,18.2l-.345-.328-.179-.162a28.4,28.4,0,0,0-2.555-1.98A27.313,27.313,0,0,0,0,12.852Q1.967,15.03,3.851,17.28a61.968,61.968,0,0,1,6.4,8.8A70.99,70.99,0,0,1,28.206,0q-1.9,1.132-3.7,2.42A77.079,77.079,0,0,0,8.695,17.821Z" transform="translate(0.246)" fill="#fff"/>
      <path id="Path_649" data-name="Path 649" d="M25.973,45.12c-1.682,0-3.138,1.553-3.873,3.836a21.722,21.722,0,0,1,2.846,1.984c.173.144.308.261.4.341l.134.121.257.244.216-.278q1.563-2,3.278-3.871A3.939,3.939,0,0,0,25.973,45.12Z" transform="translate(-17.088 -35.39)" fill="#fff"/>
      <ellipse id="Ellipse_213" data-name="Ellipse 213" cx="2.029" cy="2.029" rx="2.029" ry="2.029" transform="translate(6.855 5.13)" fill="#fff"/>
      <path id="Path_650" data-name="Path 650" d="M26.114,45.12c-1.654,0-3.09,1.505-3.834,3.726.095.065.194.129.285.194.69.474,1.277.916,1.738,1.283q.608.457,1.182.957l.134.121.254.242.289-.367q1.6-2.041,3.17-3.843a3.9,3.9,0,0,0-3.217-2.314Z" transform="translate(-17.23 -35.39)" fill="#fff"/>
      <path id="Path_651" data-name="Path 651" d="M7.745,22.593c-1.654,0-3.09,1.505-3.834,3.726.095.065.194.129.285.194.69.474,1.277.916,1.738,1.283q.608.457,1.182.957l.134.121.254.242.289-.367q1.6-2.041,3.17-3.843A3.9,3.9,0,0,0,7.745,22.593Zm5.227-2.133a2.03,2.03,0,1,0-2.028-2.03,2.03,2.03,0,0,0,2.028,2.03ZM1.588,22.018A3.5,3.5,0,0,0-1.14,23.59a28.707,28.707,0,0,1,4.451,2.34,7.332,7.332,0,0,1,1.145-2.15,3.606,3.606,0,0,0-2.868-1.762Z" transform="translate(1.14 -12.863)" fill="#fff"/>
      <ellipse id="Ellipse_214" data-name="Ellipse 214" cx="1.751" cy="1.751" rx="1.751" ry="1.751" transform="translate(0.867 5.221)" fill="#fff"/>
      <path id="Path_652" data-name="Path 652" d="M52.286,41.118q1.417-1.617,2.8-3.06a2.842,2.842,0,0,0-1.307-.328,3.628,3.628,0,0,0-2.9,1.8A5.1,5.1,0,0,1,52.286,41.118Z" transform="translate(-39.662 -29.594)" fill="#fff"/>
      <g id="Group_1573" data-name="Group 1573" transform="translate(25.759 7.207)">
        <path id="Path_653" data-name="Path 653" d="M118.31,33.616h8.9V36.64h-2.935V49.725h-3.112V36.64H118.31Zm9.976,4.194h2.564v1.5a3.211,3.211,0,0,1,1.1-1.348,2.668,2.668,0,0,1,1.512-.459,2.823,2.823,0,0,1,1.216.306l-.932,2.575a2.028,2.028,0,0,0-.863-.263,1.372,1.372,0,0,0-1.169.854,7.832,7.832,0,0,0-.474,3.351l.011.58v4.817h-2.969Zm7.862,0h3.023v5.74a7.91,7.91,0,0,0,.231,2.329,2.027,2.027,0,0,0,.742,1.011,2.12,2.12,0,0,0,1.255.362,2.195,2.195,0,0,0,1.268-.358,2.09,2.09,0,0,0,.776-1.044,8.119,8.119,0,0,0,.185-2.2v-5.84h2.989v5.05a12.4,12.4,0,0,1-.492,4.27,4.658,4.658,0,0,1-1.775,2.154,5.446,5.446,0,0,1-2.978.748,5.279,5.279,0,0,1-3.17-.876,4.606,4.606,0,0,1-1.7-2.441,14.821,14.821,0,0,1-.352-3.942v-4.96Zm20.762,1.665-1.85,1.85a3.134,3.134,0,0,0-2.049-1.117,1.274,1.274,0,0,0-.787.216.64.64,0,0,0-.285.53.648.648,0,0,0,.181.442,3.393,3.393,0,0,0,.893.554l1.093.548a6.441,6.441,0,0,1,2.376,1.74,3.628,3.628,0,0,1-.518,4.731,4.471,4.471,0,0,1-3.127,1.061A4.965,4.965,0,0,1,148.677,48l1.839-2.005a4.248,4.248,0,0,0,1.231.992,2.724,2.724,0,0,0,1.255.377,1.491,1.491,0,0,0,.951-.285.826.826,0,0,0,.362-.656q0-.692-1.3-1.348l-1.009-.5q-2.889-1.456-2.89-3.644a3.164,3.164,0,0,1,1.089-2.415,3.958,3.958,0,0,1,2.788-1A4.841,4.841,0,0,1,156.91,39.475Zm2.935-6.055h2.991v4.391h1.77v2.575h-1.773v9.34h-2.991v-9.34h-1.531V37.811h1.531V33.42Z" transform="translate(-118.31 -33.42)" fill="#fff"/>
        <path id="Path_654" data-name="Path 654" d="M347.229,52.665h2.991V64.58h-2.991V63.32a5.863,5.863,0,0,1-1.755,1.2,4.917,4.917,0,0,1-1.908.367,5.3,5.3,0,0,1-3.992-1.79,6.252,6.252,0,0,1-1.684-4.451,6.407,6.407,0,0,1,1.63-4.524,5.186,5.186,0,0,1,3.959-1.762,5.052,5.052,0,0,1,2.012.405,5.49,5.49,0,0,1,1.738,1.214Zm-3.142,2.454a3.023,3.023,0,0,0-2.3.979,3.915,3.915,0,0,0,.017,5.055,3.023,3.023,0,0,0,2.3,1,3.082,3.082,0,0,0,2.335-.981,3.579,3.579,0,0,0,.927-2.566,3.486,3.486,0,0,0-.927-2.521A3.126,3.126,0,0,0,344.088,55.119Zm9.133-2.454h2.991v1.369a5.121,5.121,0,0,1,1.7-1.259,4.981,4.981,0,0,1,2.044-.416,3.794,3.794,0,0,1,2.014.548,3.959,3.959,0,0,1,1.447,1.6,4.816,4.816,0,0,1,1.747-1.6,4.755,4.755,0,0,1,2.264-.548,4.188,4.188,0,0,1,2.236.591,3.418,3.418,0,0,1,1.387,1.544,8.282,8.282,0,0,1,.42,3.1V64.58h-3.01V58.535a5.165,5.165,0,0,0-.5-2.743,1.72,1.72,0,0,0-1.51-.718,2.3,2.3,0,0,0-1.376.438,2.588,2.588,0,0,0-.9,1.212,7.538,7.538,0,0,0-.3,2.48V64.58h-3.01V58.809a8.113,8.113,0,0,0-.237-2.316,2.088,2.088,0,0,0-.707-1.067,1.861,1.861,0,0,0-1.143-.352,2.264,2.264,0,0,0-1.354.444,2.646,2.646,0,0,0-.912,1.244,7.7,7.7,0,0,0-.3,2.519v5.3H353.22Z" transform="translate(-290.539 -48.275)" fill="#fff"/>
      </g>
      <path id="Path_655" data-name="Path 655" d="M505.26,53.48h2.982V65.412H505.26Z" transform="translate(-396.058 -41.947)" fill="#fff" fill-rule="evenodd"/>
    </g>
    <rect id="Rectangle_6013" data-name="Rectangle 6013" width="19.322" height="19.322" rx="3" transform="translate(556.67 96.223)" fill="#18a085"/>
    <path id="Icon_awesome-star" data-name="Icon awesome-star" d="M7.041.417,5.51,3.522l-3.426.5A.751.751,0,0,0,1.669,5.3L4.148,7.717l-.586,3.412a.75.75,0,0,0,1.088.79l3.065-1.611,3.065,1.611a.751.751,0,0,0,1.088-.79l-.586-3.412L13.76,5.3a.751.751,0,0,0-.415-1.28l-3.426-.5L8.387.417a.751.751,0,0,0-1.346,0Z" transform="translate(558.684 99.867)" fill="#fff"/>
    <rect id="Rectangle_6013-2" data-name="Rectangle 6013" width="19.322" height="19.322" rx="3" transform="translate(580.079 96.223)" fill="#18a085"/>
    <path id="Icon_awesome-star-2" data-name="Icon awesome-star" d="M7.041.417,5.51,3.522l-3.426.5A.751.751,0,0,0,1.669,5.3L4.148,7.717l-.586,3.412a.75.75,0,0,0,1.088.79l3.065-1.611,3.065,1.611a.751.751,0,0,0,1.088-.79l-.586-3.412L13.76,5.3a.751.751,0,0,0-.415-1.28l-3.426-.5L8.387.417a.751.751,0,0,0-1.346,0Z" transform="translate(582.191 99.867)" fill="#fff"/>
    <rect id="Rectangle_6013-3" data-name="Rectangle 6013" width="19.322" height="19.322" rx="3" transform="translate(603.86 96.223)" fill="#18a085"/>
    <path id="Icon_awesome-star-3" data-name="Icon awesome-star" d="M7.041.417,5.51,3.522l-3.426.5A.751.751,0,0,0,1.669,5.3L4.148,7.717l-.586,3.412a.75.75,0,0,0,1.088.79l3.065-1.611,3.065,1.611a.751.751,0,0,0,1.088-.79l-.586-3.412L13.76,5.3a.751.751,0,0,0-.415-1.28l-3.426-.5L8.387.417a.751.751,0,0,0-1.346,0Z" transform="translate(605.698 99.867)" fill="#fff"/>
    <g id="Group_1574" data-name="Group 1574" transform="translate(627.27 96.223)">
      <rect id="Rectangle_6013-4" data-name="Rectangle 6013" width="19.322" height="19.322" rx="3" transform="translate(0 0)" fill="#18a085"/>
      <path id="Icon_awesome-star-4" data-name="Icon awesome-star" d="M7.041.417,5.51,3.522l-3.426.5A.751.751,0,0,0,1.669,5.3L4.148,7.717l-.586,3.412a.75.75,0,0,0,1.088.79l3.065-1.611,3.065,1.611a.751.751,0,0,0,1.088-.79l-.586-3.412L13.76,5.3a.751.751,0,0,0-.415-1.28l-3.426-.5L8.387.417a.751.751,0,0,0-1.346,0Z" transform="translate(1.937 3.644)" fill="#fff"/>
    </g>
    <rect id="Rectangle_6013-5" data-name="Rectangle 6013" width="19.322" height="19.322" rx="3" transform="translate(650.679 96.223)" fill="#18a085"/>
    <path id="Icon_awesome-star-5" data-name="Icon awesome-star" d="M7.041.417,5.51,3.522l-3.426.5A.751.751,0,0,0,1.669,5.3L4.148,7.717l-.586,3.412a.75.75,0,0,0,1.088.79l3.065-1.611,3.065,1.611a.751.751,0,0,0,1.088-.79l-.586-3.412L13.76,5.3a.751.751,0,0,0-.415-1.28l-3.426-.5L8.387.417a.751.751,0,0,0-1.346,0Z" transform="translate(652.714 99.867)" fill="#fff"/>
    <text id="_75_519_Reviews_-_99.90_Positive_" data-name="75,519 Reviews - 99.90% Positive " transform="translate(553.521 124.775)" fill="#fff" font-size="7" font-family="Montserrat-Bold, Montserrat" font-weight="700"><tspan x="0" y="0">75,519 Reviews - 99.90% Positive </tspan></text>
  </g>
</svg>
