<svg width="152" height="18" viewBox="0 0 152 18" fill="none" xmlns="http://www.w3.org/2000/svg">
  <path d="M0.051 14L5.168 6.945V8.951L0.272 2.1H3.4L6.783 6.877L5.474 6.894L8.806 2.1H11.798L6.936 8.832V6.86L12.087 14H8.908L5.406 8.951H6.664L3.213 14H0.051ZM13.1649 14V2.1H18.9789C20.4749 2.1 21.5969 2.38333 22.3449 2.95C23.1042 3.51667 23.4839 4.26467 23.4839 5.194C23.4839 5.81733 23.3309 6.36133 23.0249 6.826C22.7189 7.27933 22.2996 7.63067 21.7669 7.88C21.2342 8.12933 20.6222 8.254 19.9309 8.254L20.2539 7.557C21.0019 7.557 21.6649 7.68167 22.2429 7.931C22.8209 8.169 23.2686 8.526 23.5859 9.002C23.9146 9.478 24.0789 10.0617 24.0789 10.753C24.0789 11.773 23.6766 12.572 22.8719 13.15C22.0672 13.7167 20.8829 14 19.3189 14H13.1649ZM15.9019 11.926H19.1149C19.8289 11.926 20.3672 11.8127 20.7299 11.586C21.1039 11.348 21.2909 10.974 21.2909 10.464C21.2909 9.96533 21.1039 9.597 20.7299 9.359C20.3672 9.10967 19.8289 8.985 19.1149 8.985H15.6979V6.979H18.6389C19.3076 6.979 19.8176 6.86567 20.1689 6.639C20.5316 6.401 20.7129 6.044 20.7129 5.568C20.7129 5.10333 20.5316 4.75767 20.1689 4.531C19.8176 4.293 19.3076 4.174 18.6389 4.174H15.9019V11.926ZM31.9439 14.204C31.0033 14.204 30.1306 14.051 29.3259 13.745C28.5326 13.439 27.8413 13.0083 27.2519 12.453C26.6739 11.8977 26.2206 11.246 25.8919 10.498C25.5746 9.75 25.4159 8.934 25.4159 8.05C25.4159 7.166 25.5746 6.35 25.8919 5.602C26.2206 4.854 26.6796 4.20233 27.2689 3.647C27.8583 3.09167 28.5496 2.661 29.3429 2.355C30.1363 2.049 30.9976 1.896 31.9269 1.896C32.8676 1.896 33.7289 2.049 34.5109 2.355C35.3043 2.661 35.9899 3.09167 36.5679 3.647C37.1573 4.20233 37.6163 4.854 37.9449 5.602C38.2736 6.33867 38.4379 7.15467 38.4379 8.05C38.4379 8.934 38.2736 9.75567 37.9449 10.515C37.6163 11.263 37.1573 11.9147 36.5679 12.47C35.9899 13.014 35.3043 13.439 34.5109 13.745C33.7289 14.051 32.8733 14.204 31.9439 14.204ZM31.9269 11.858C32.4596 11.858 32.9469 11.7673 33.3889 11.586C33.8423 11.4047 34.2389 11.144 34.5789 10.804C34.9189 10.464 35.1796 10.0617 35.3609 9.597C35.5536 9.13233 35.6499 8.61667 35.6499 8.05C35.6499 7.48333 35.5536 6.96767 35.3609 6.503C35.1796 6.03833 34.9189 5.636 34.5789 5.296C34.2503 4.956 33.8593 4.69533 33.4059 4.514C32.9526 4.33267 32.4596 4.242 31.9269 4.242C31.3943 4.242 30.9013 4.33267 30.4479 4.514C30.0059 4.69533 29.6149 4.956 29.2749 5.296C28.9349 5.636 28.6686 6.03833 28.4759 6.503C28.2946 6.96767 28.2039 7.48333 28.2039 8.05C28.2039 8.60533 28.2946 9.121 28.4759 9.597C28.6686 10.0617 28.9293 10.464 29.2579 10.804C29.5979 11.144 29.9946 11.4047 30.4479 11.586C30.9013 11.7673 31.3943 11.858 31.9269 11.858ZM38.716 14L43.833 6.945V8.951L38.937 2.1H42.065L45.448 6.877L44.139 6.894L47.471 2.1H50.463L45.601 8.832V6.86L50.752 14H47.573L44.071 8.951H45.329L41.878 14H38.716ZM60.9362 14.204C59.9842 14.204 59.0719 14.0793 58.1992 13.83C57.3266 13.5693 56.6239 13.235 56.0912 12.827L57.0262 10.753C57.5362 11.1157 58.1369 11.416 58.8282 11.654C59.5309 11.8807 60.2392 11.994 60.9532 11.994C61.4972 11.994 61.9336 11.943 62.2622 11.841C62.6022 11.7277 62.8516 11.5747 63.0102 11.382C63.1689 11.1893 63.2482 10.9683 63.2482 10.719C63.2482 10.4017 63.1236 10.1523 62.8742 9.971C62.6249 9.77833 62.2962 9.62533 61.8882 9.512C61.4802 9.38733 61.0269 9.274 60.5282 9.172C60.0409 9.05867 59.5479 8.92267 59.0492 8.764C58.5619 8.60533 58.1142 8.40133 57.7062 8.152C57.2982 7.90267 56.9639 7.574 56.7032 7.166C56.4539 6.758 56.3292 6.23667 56.3292 5.602C56.3292 4.922 56.5106 4.30433 56.8732 3.749C57.2472 3.18233 57.8026 2.73467 58.5392 2.406C59.2872 2.066 60.2222 1.896 61.3442 1.896C62.0922 1.896 62.8289 1.98667 63.5542 2.168C64.2796 2.338 64.9199 2.59867 65.4752 2.95L64.6252 5.041C64.0699 4.72367 63.5146 4.49133 62.9592 4.344C62.4039 4.18533 61.8599 4.106 61.3272 4.106C60.7946 4.106 60.3582 4.16833 60.0182 4.293C59.6782 4.41767 59.4346 4.582 59.2872 4.786C59.1399 4.97867 59.0662 5.20533 59.0662 5.466C59.0662 5.772 59.1909 6.02133 59.4402 6.214C59.6896 6.39533 60.0182 6.54267 60.4262 6.656C60.8342 6.76933 61.2819 6.88267 61.7692 6.996C62.2679 7.10933 62.7609 7.23967 63.2482 7.387C63.7469 7.53433 64.2002 7.73267 64.6082 7.982C65.0162 8.23133 65.3449 8.56 65.5942 8.968C65.8549 9.376 65.9852 9.89167 65.9852 10.515C65.9852 11.1837 65.7982 11.7957 65.4242 12.351C65.0502 12.9063 64.4892 13.354 63.7412 13.694C63.0046 14.034 62.0696 14.204 60.9362 14.204ZM72.2191 14.136C71.1764 14.136 70.2584 13.932 69.4651 13.524C68.6831 13.116 68.0767 12.5607 67.6461 11.858C67.2154 11.144 67.0001 10.3337 67.0001 9.427C67.0001 8.509 67.2097 7.69867 67.6291 6.996C68.0597 6.282 68.6434 5.72667 69.3801 5.33C70.1167 4.922 70.9497 4.718 71.8791 4.718C72.7744 4.718 73.5791 4.91067 74.2931 5.296C75.0184 5.67 75.5907 6.214 76.0101 6.928C76.4294 7.63067 76.6391 8.475 76.6391 9.461C76.6391 9.563 76.6334 9.682 76.6221 9.818C76.6107 9.94267 76.5994 10.0617 76.5881 10.175H69.1591V8.628H75.1941L74.1741 9.087C74.1741 8.611 74.0777 8.19733 73.8851 7.846C73.6924 7.49467 73.4261 7.22267 73.0861 7.03C72.7461 6.826 72.3494 6.724 71.8961 6.724C71.4427 6.724 71.0404 6.826 70.6891 7.03C70.3491 7.22267 70.0827 7.50033 69.8901 7.863C69.6974 8.21433 69.6011 8.63367 69.6011 9.121V9.529C69.6011 10.0277 69.7087 10.4697 69.9241 10.855C70.1507 11.229 70.4624 11.518 70.8591 11.722C71.2671 11.9147 71.7431 12.011 72.2871 12.011C72.7744 12.011 73.1994 11.9373 73.5621 11.79C73.9361 11.6427 74.2761 11.4217 74.5821 11.127L75.9931 12.657C75.5737 13.133 75.0467 13.5013 74.4121 13.762C73.7774 14.0113 73.0464 14.136 72.2191 14.136ZM78.4047 14V4.854H80.9377V7.438L80.5807 6.69C80.8527 6.044 81.289 5.55667 81.8897 5.228C82.4903 4.888 83.2213 4.718 84.0827 4.718V7.166C83.9693 7.15467 83.8673 7.149 83.7767 7.149C83.686 7.13767 83.5897 7.132 83.4877 7.132C82.7623 7.132 82.173 7.34167 81.7197 7.761C81.2777 8.169 81.0567 8.80933 81.0567 9.682V14H78.4047ZM85.6761 14V4.854H88.3281V14H85.6761ZM87.0021 3.579C86.5148 3.579 86.1181 3.43733 85.8121 3.154C85.5061 2.87067 85.3531 2.51933 85.3531 2.1C85.3531 1.68067 85.5061 1.32933 85.8121 1.046C86.1181 0.762666 86.5148 0.620999 87.0021 0.620999C87.4895 0.620999 87.8861 0.756999 88.1921 1.029C88.4981 1.28967 88.6511 1.62967 88.6511 2.049C88.6511 2.491 88.4981 2.85933 88.1921 3.154C87.8975 3.43733 87.5008 3.579 87.0021 3.579ZM95.3284 14.136C94.2858 14.136 93.3678 13.932 92.5744 13.524C91.7924 13.116 91.1861 12.5607 90.7554 11.858C90.3248 11.144 90.1094 10.3337 90.1094 9.427C90.1094 8.509 90.3191 7.69867 90.7384 6.996C91.1691 6.282 91.7528 5.72667 92.4894 5.33C93.2261 4.922 94.0591 4.718 94.9884 4.718C95.8838 4.718 96.6884 4.91067 97.4024 5.296C98.1278 5.67 98.7001 6.214 99.1194 6.928C99.5388 7.63067 99.7484 8.475 99.7484 9.461C99.7484 9.563 99.7428 9.682 99.7314 9.818C99.7201 9.94267 99.7088 10.0617 99.6974 10.175H92.2684V8.628H98.3034L97.2834 9.087C97.2834 8.611 97.1871 8.19733 96.9944 7.846C96.8018 7.49467 96.5354 7.22267 96.1954 7.03C95.8554 6.826 95.4588 6.724 95.0054 6.724C94.5521 6.724 94.1498 6.826 93.7984 7.03C93.4584 7.22267 93.1921 7.50033 92.9994 7.863C92.8068 8.21433 92.7104 8.63367 92.7104 9.121V9.529C92.7104 10.0277 92.8181 10.4697 93.0334 10.855C93.2601 11.229 93.5718 11.518 93.9684 11.722C94.3764 11.9147 94.8524 12.011 95.3964 12.011C95.8838 12.011 96.3088 11.9373 96.6714 11.79C97.0454 11.6427 97.3854 11.4217 97.6914 11.127L99.1024 12.657C98.6831 13.133 98.1561 13.5013 97.5214 13.762C96.8868 14.0113 96.1558 14.136 95.3284 14.136ZM104.591 14.136C103.809 14.136 103.055 14.0453 102.33 13.864C101.616 13.6713 101.049 13.4333 100.63 13.15L101.514 11.246C101.933 11.5067 102.426 11.722 102.993 11.892C103.571 12.0507 104.138 12.13 104.693 12.13C105.305 12.13 105.736 12.0563 105.985 11.909C106.246 11.7617 106.376 11.5577 106.376 11.297C106.376 11.0817 106.274 10.923 106.07 10.821C105.877 10.7077 105.617 10.6227 105.288 10.566C104.959 10.5093 104.597 10.4527 104.2 10.396C103.815 10.3393 103.424 10.2657 103.027 10.175C102.63 10.073 102.268 9.92567 101.939 9.733C101.61 9.54033 101.344 9.27967 101.14 8.951C100.947 8.62233 100.851 8.19733 100.851 7.676C100.851 7.098 101.015 6.588 101.344 6.146C101.684 5.704 102.171 5.35833 102.806 5.109C103.441 4.84833 104.2 4.718 105.084 4.718C105.707 4.718 106.342 4.786 106.988 4.922C107.634 5.058 108.172 5.25633 108.603 5.517L107.719 7.404C107.277 7.14333 106.829 6.96767 106.376 6.877C105.934 6.775 105.503 6.724 105.084 6.724C104.495 6.724 104.064 6.80333 103.792 6.962C103.52 7.12067 103.384 7.32467 103.384 7.574C103.384 7.80067 103.48 7.97067 103.673 8.084C103.877 8.19733 104.143 8.288 104.472 8.356C104.801 8.424 105.158 8.48633 105.543 8.543C105.94 8.58833 106.336 8.662 106.733 8.764C107.13 8.866 107.487 9.01333 107.804 9.206C108.133 9.38733 108.399 9.64233 108.603 9.971C108.807 10.2883 108.909 10.7077 108.909 11.229C108.909 11.7957 108.739 12.3 108.399 12.742C108.059 13.1727 107.566 13.5127 106.92 13.762C106.285 14.0113 105.509 14.136 104.591 14.136ZM114.187 14L119.304 6.945V8.951L114.408 2.1H117.536L120.919 6.877L119.61 6.894L122.942 2.1H125.934L121.072 8.832V6.86L126.223 14H123.044L119.542 8.951H120.8L117.349 14H114.187ZM132.497 17.298V1.386H134.928V17.298H132.497ZM146.467 14.204C145.515 14.204 144.603 14.0793 143.73 13.83C142.858 13.5693 142.155 13.235 141.622 12.827L142.557 10.753C143.067 11.1157 143.668 11.416 144.359 11.654C145.062 11.8807 145.77 11.994 146.484 11.994C147.028 11.994 147.465 11.943 147.793 11.841C148.133 11.7277 148.383 11.5747 148.541 11.382C148.7 11.1893 148.779 10.9683 148.779 10.719C148.779 10.4017 148.655 10.1523 148.405 9.971C148.156 9.77833 147.827 9.62533 147.419 9.512C147.011 9.38733 146.558 9.274 146.059 9.172C145.572 9.05867 145.079 8.92267 144.58 8.764C144.093 8.60533 143.645 8.40133 143.237 8.152C142.829 7.90267 142.495 7.574 142.234 7.166C141.985 6.758 141.86 6.23667 141.86 5.602C141.86 4.922 142.042 4.30433 142.404 3.749C142.778 3.18233 143.334 2.73467 144.07 2.406C144.818 2.066 145.753 1.896 146.875 1.896C147.623 1.896 148.36 1.98667 149.085 2.168C149.811 2.338 150.451 2.59867 151.006 2.95L150.156 5.041C149.601 4.72367 149.046 4.49133 148.49 4.344C147.935 4.18533 147.391 4.106 146.858 4.106C146.326 4.106 145.889 4.16833 145.549 4.293C145.209 4.41767 144.966 4.582 144.818 4.786C144.671 4.97867 144.597 5.20533 144.597 5.466C144.597 5.772 144.722 6.02133 144.971 6.214C145.221 6.39533 145.549 6.54267 145.957 6.656C146.365 6.76933 146.813 6.88267 147.3 6.996C147.799 7.10933 148.292 7.23967 148.779 7.387C149.278 7.53433 149.731 7.73267 150.139 7.982C150.547 8.23133 150.876 8.56 151.125 8.968C151.386 9.376 151.516 9.89167 151.516 10.515C151.516 11.1837 151.329 11.7957 150.955 12.351C150.581 12.9063 150.02 13.354 149.272 13.694C148.536 14.034 147.601 14.204 146.467 14.204Z" fill="white"/>
</svg>
