<svg width="60" height="59" viewBox="0 0 60 59" fill="none" xmlns="http://www.w3.org/2000/svg">
  <g opacity="0.786">
    <path d="M59.8051 29.5792C59.8049 35.398 58.061 41.0861 54.794 45.9241C51.527 50.7621 46.8836 54.5328 41.4511 56.7593C36.0185 58.9858 30.0407 59.5681 24.2737 58.4326C18.5067 57.297 13.2095 54.4947 9.05191 50.3799C4.89436 46.2651 2.06322 41.0226 0.91652 35.3156C-0.230182 29.6085 0.359057 23.693 2.60972 18.3173C4.86038 12.9417 8.67138 8.34715 13.5608 5.11484C18.4502 1.88253 24.1984 0.15761 30.0784 0.158203C33.9825 0.158466 37.8482 0.919671 41.4549 2.39836C45.0617 3.87704 48.3388 6.04425 51.0992 8.77624C53.8596 11.5082 56.0491 14.7515 57.5429 18.3209C59.0367 21.8903 59.8054 25.7158 59.8051 29.5792Z" fill="white"/>
    <path d="M59.8051 29.5792C59.8049 35.398 58.061 41.0861 54.794 45.9241C51.527 50.7621 46.8836 54.5328 41.4511 56.7593C36.0185 58.9858 30.0407 59.5681 24.2737 58.4326C18.5067 57.297 13.2095 54.4947 9.05191 50.3799C4.89436 46.2651 2.06322 41.0226 0.91652 35.3156C-0.230182 29.6085 0.359057 23.693 2.60972 18.3173C4.86038 12.9417 8.67138 8.34715 13.5608 5.11484C18.4502 1.88253 24.1984 0.15761 30.0784 0.158203C33.9825 0.158466 37.8482 0.919671 41.4549 2.39836C45.0617 3.87704 48.3388 6.04425 51.0992 8.77624C53.8596 11.5082 56.0491 14.7515 57.5429 18.3209C59.0367 21.8903 59.8054 25.7158 59.8051 29.5792Z" fill="white"/>
  </g>
  <path d="M28.0214 12.9394C26.6759 13.107 25.3526 13.4174 24.0743 13.8654C23.1661 14.1602 22.3047 14.5807 21.5156 15.1144C21.5156 15.1974 21.7662 15.2704 22.1735 15.3144C24.5269 15.8456 26.77 16.7753 28.8035 18.0624C29.2061 18.3239 29.6369 18.5403 30.0879 18.7074C30.5373 18.5438 30.9651 18.3272 31.3622 18.0624C32.8843 17.1606 34.4805 16.3875 36.1339 15.7514C36.685 15.5804 37.2467 15.4448 37.8154 15.3454C38.3581 15.2724 38.64 15.1784 38.64 15.0954C38.64 14.7954 36.2067 13.7634 34.516 13.3464C32.3971 12.8024 30.1927 12.6643 28.0214 12.9394Z" fill="#107C10"/>
  <path d="M17.924 17.7896C15.2251 20.4244 13.5242 23.8977 13.1069 27.6266C12.8656 29.4232 12.9408 31.2475 13.3292 33.0186C13.7433 35.0182 14.5293 36.9243 15.6473 38.6396C16.3365 39.6596 16.4557 39.6496 16.5346 38.5566C16.8579 34.4566 20.0532 28.8236 25.3686 23.0356C25.6846 22.7135 25.9679 22.3615 26.2144 21.9846C25.3757 21.0109 24.4533 20.1109 23.4577 19.2946C21.8914 17.9626 19.8552 16.7236 19.26 16.7236C19.0306 16.7276 18.7385 16.9666 17.924 17.7896Z" fill="#107C10"/>
  <path d="M40.1323 17.0295C38.3513 17.9979 36.7227 19.2185 35.298 20.6525C34.8319 21.0572 34.4117 21.5108 34.0449 22.0055C34.3766 22.5131 34.7577 22.9874 35.1828 23.4215C39.6938 28.4285 42.5596 33.2065 43.4418 37.2035C43.5579 37.7168 43.6278 38.2391 43.651 38.7645C43.651 39.3475 43.6722 39.4205 43.8531 39.4205C44.6311 38.6302 45.2386 37.6915 45.6387 36.6615C46.8122 34.26 47.3408 31.5999 47.1737 28.9375C47.141 25.7143 46.1014 22.5801 44.1977 19.9645C43.3104 18.7155 41.3571 16.7275 41.0236 16.7275C40.7131 16.7843 40.4128 16.8861 40.1323 17.0295Z" fill="#107C10"/>
  <path d="M28.9302 26.2212C26.1894 28.6371 23.6473 31.2651 21.328 34.0802C19.3544 36.5582 17.2354 39.9072 17.2354 40.5342C17.8205 41.3441 18.5241 42.0633 19.3231 42.6682C21.181 44.1243 23.3215 45.1871 25.6118 45.7905C27.902 46.394 30.2931 46.5253 32.6368 46.1762C36.34 45.62 39.7692 43.9152 42.4308 41.3072C42.8593 40.9012 42.9219 40.7872 42.9219 40.4072C42.9118 38.4922 39.1426 33.7452 32.9086 27.8012C32.0663 26.9003 31.1358 26.0843 30.1307 25.3652C29.6855 25.5831 29.2799 25.8723 28.9302 26.2212Z" fill="#107C10"/>
</svg>
