<svg xmlns="http://www.w3.org/2000/svg" width="81.674" height="25.695" viewBox="0 0 81.674 25.695">
  <g id="Group_1548" data-name="Group 1548" transform="translate(-354.617 -382)">
    <path id="polygon14" d="M84.057,6.329l2.929,3.979,2.927-3.979h1.346l-3.591,4.878L91.6,16.575H90.259l-3.272-4.443-3.27,4.443H82.368L86.3,11.208,82.71,6.329Z" transform="translate(322.128 375.907)" fill="#fff"/>
    <path id="path16-7" d="M46.182,8.86a2.943,2.943,0,0,0-.671-.427,2.321,2.321,0,0,0,1.231-2.051c0-.656-.242-2.787-3.331-2.787h-4.16V8.012H37.865c-.18.234-.588.8-.744,1.028h2.13v4.8h4.16c2.254,0,3.654-1.145,3.654-2.991a2.532,2.532,0,0,0-.884-1.989M40.4,4.664h3.01c.815,0,2.179.2,2.179,1.628,0,1.078-.8,1.72-2.179,1.72H40.4V4.664Zm3.01,8.108H40.4V9.041h3.01c1.142,0,2.507.315,2.507,1.786,0,1.691-1.57,1.944-2.507,1.944" transform="translate(348.188 378.643)" fill="#fff"/>
    <path id="path18" d="M58.959,3.211c-2.877,0-4.889,2.2-4.889,5.353s2.011,5.356,4.889,5.356,4.881-2.2,4.881-5.356-2.005-5.353-4.881-5.353m0,9.626c-2.192,0-3.728-1.757-3.728-4.273s1.536-4.27,3.728-4.27,3.717,1.757,3.717,4.27-1.528,4.273-3.717,4.273" transform="translate(341.707 378.789)" fill="#fff"/>
    <path id="polygon20" d="M39.234,6.33l3.592,4.878-3.938,5.367h1.349l3.269-4.442,3.271,4.442h1.348l-3.938-5.367L47.78,6.33H46.433L43.5,10.31,40.577,6.33Z" transform="translate(338.754 375.907)" fill="#fff"/>
    <g id="Group_1071" data-name="Group 1071" transform="translate(390.017 396.887)">
      <path id="path2" d="M25.448,71.511a4.4,4.4,0,0,0-2.669.747,2.409,2.409,0,0,0-.961,2.028,2.5,2.5,0,0,0,.8,1.975,5.029,5.029,0,0,0,2.4,1.067l.855.213a6.706,6.706,0,0,1,1.814.641A1.24,1.24,0,0,1,28.17,79.2a1.622,1.622,0,0,1-.587,1.28,3.3,3.3,0,0,1-1.762.427,3.33,3.33,0,0,1-2.081-.587,2.038,2.038,0,0,1-.694-1.709H21.551a3.269,3.269,0,0,0,1.175,2.723,4.714,4.714,0,0,0,3.149.907,4.794,4.794,0,0,0,2.936-.8A2.757,2.757,0,0,0,29.878,79.2a2.46,2.46,0,0,0-.8-1.922,5.218,5.218,0,0,0-2.562-1.067l-.907-.213a4.894,4.894,0,0,1-1.762-.641,1.208,1.208,0,0,1-.481-1.067,1.185,1.185,0,0,1,.534-1.067,2.557,2.557,0,0,1,1.548-.373,2.9,2.9,0,0,1,1.868.481,2.028,2.028,0,0,1,.64,1.441h1.6a3,3,0,0,0-1.067-2.4A4.6,4.6,0,0,0,25.448,71.511Zm37.978,0a4.4,4.4,0,0,0-2.669.747,2.409,2.409,0,0,0-.96,2.028,2.5,2.5,0,0,0,.8,1.975A5.029,5.029,0,0,0,63,77.329l.854.213a6.716,6.716,0,0,1,1.815.641,1.239,1.239,0,0,1,.48,1.014,1.622,1.622,0,0,1-.587,1.28A3.3,3.3,0,0,1,63.8,80.9a3.333,3.333,0,0,1-2.082-.587,2.038,2.038,0,0,1-.694-1.709H59.476a3.269,3.269,0,0,0,1.175,2.723,4.714,4.714,0,0,0,3.149.907,4.794,4.794,0,0,0,2.936-.8A2.757,2.757,0,0,0,67.8,79.2a2.09,2.09,0,0,0-.694-1.922,5.219,5.219,0,0,0-2.562-1.067l-.907-.213a4.894,4.894,0,0,1-1.762-.641,1.207,1.207,0,0,1-.48-1.067,1.185,1.185,0,0,1,.534-1.067,2.553,2.553,0,0,1,1.547-.373,2.9,2.9,0,0,1,1.868.481,2.029,2.029,0,0,1,.641,1.441h1.548a3,3,0,0,0-1.068-2.4A4.6,4.6,0,0,0,63.426,71.511Zm-32.8.267v10.3h7.313V80.637H32.179V77.488H37.3V76.154H32.179V73.165h5.765V71.777Zm8.333,0v10.3h1.547V77.862H43.5a1.755,1.755,0,0,1,1.28.426,1.956,1.956,0,0,1,.427,1.388l.053,1.122a2.347,2.347,0,0,0,.32,1.334h1.6a4.45,4.45,0,0,1-.32-1.334l-.106-1.6a2.668,2.668,0,0,0-.374-1.389,1.719,1.719,0,0,0-1.067-.693,2.152,2.152,0,0,0,1.228-.908,2.594,2.594,0,0,0,.481-1.6,2.442,2.442,0,0,0-.961-2.081,4.232,4.232,0,0,0-2.616-.747Zm9.239,0v10.3h1.548v-10.3Zm3.261,0v10.3H58.83V80.637H53.012V77.488h5.124V76.154H53.012V73.165H58.83V71.777ZM40.618,73.112h2.775a2.374,2.374,0,0,1,1.495.426,1.563,1.563,0,0,1,.534,1.228,1.651,1.651,0,0,1-.481,1.281,1.907,1.907,0,0,1-1.388.481H40.618Z" transform="translate(-21.551 -71.511)" fill="#fff"/>
    </g>
    <g id="Group_1075" data-name="Group 1075" transform="translate(354.617 396.887)">
      <path id="polygon8" d="M118.985,8.331l6.069,8.228H126.2V6.325h-1.141v8.408l-6.193-8.414-1.015,0V16.553h1.139Z" transform="translate(-107.035 -6.087)" fill="#fff"/>
      <path id="path10-1" d="M91.05,3.21c-2.878,0-4.89,2.2-4.89,5.353s2.012,5.358,4.89,5.358,4.881-2.2,4.881-5.358S93.925,3.21,91.05,3.21m0,9.626c-2.192,0-3.73-1.757-3.73-4.273s1.537-4.271,3.73-4.271,3.717,1.757,3.717,4.271-1.527,4.273-3.717,4.273" transform="translate(-86.159 -3.21)" fill="#fff"/>
      <path id="polygon12" d="M140.605,7.32v-1h-7.167V16.563h7.237v-1h-6.089V11.773h5.635v-1h-5.635V7.32Z" transform="translate(-112.998 -6.088)" fill="#fff"/>
    </g>
    <path id="Path_473" data-name="Path 473" d="M-1472.958,603v10.308" transform="translate(1859.114 -206.113)" fill="#fff" stroke="#fff" stroke-linecap="round" stroke-width="1"/>
  </g>
</svg>
