<svg width="32" height="32" viewBox="0 0 32 32" fill="none" xmlns="http://www.w3.org/2000/svg">
<path d="M32 16C32 7.16344 24.8366 0 16 0C7.16344 0 0 7.16344 0 16C0 24.8366 7.16344 32 16 32C24.8366 32 32 24.8366 32 16Z" fill="#5865F2"/>
<path d="M23.0948 10.2318C21.8649 9.65634 20.5498 9.23813 19.175 9C19.0061 9.30528 18.8088 9.71588 18.6728 10.0425C17.2113 9.82271 15.7632 9.82271 14.3286 10.0425C14.1926 9.71588 13.9909 9.30528 13.8205 9C12.4441 9.23813 11.1276 9.65787 9.89765 10.2348C7.41693 13.9835 6.74444 17.6391 7.08068 21.2428C8.72603 22.4715 10.3206 23.2179 11.8882 23.7063C12.2753 23.1736 12.6205 22.6074 12.9178 22.0106C12.3515 21.7954 11.809 21.5298 11.2964 21.2215C11.4324 21.1207 11.5654 21.0154 11.6939 20.907C14.8202 22.3693 18.217 22.3693 21.306 20.907C21.436 21.0154 21.569 21.1207 21.7035 21.2215C21.1894 21.5313 20.6455 21.7969 20.0791 22.0121C20.3765 22.6074 20.7202 23.1752 21.1087 23.7079C22.6779 23.2194 24.2739 22.473 25.9192 21.2428C26.3138 17.0652 25.2453 13.4432 23.0948 10.2318ZM13.3438 19.0266C12.4053 19.0266 11.6356 18.1504 11.6356 17.0835C11.6356 16.0166 12.3888 15.139 13.3438 15.139C14.2987 15.139 15.0683 16.0151 15.0519 17.0835C15.0534 18.1504 14.2987 19.0266 13.3438 19.0266ZM19.6562 19.0266C18.7177 19.0266 17.9481 18.1504 17.9481 17.0835C17.9481 16.0166 18.7012 15.139 19.6562 15.139C20.6111 15.139 21.3807 16.0151 21.3643 17.0835C21.3643 18.1504 20.6111 19.0266 19.6562 19.0266Z" fill="white"/>
</svg>
