<svg width="40" height="40" viewBox="0 0 32 32" fill="none" xmlns="http://www.w3.org/2000/svg">
    <rect width="32" height="32" rx="16" fill="#E8E8E8"/>
    <path d="M24.3077 9H7.69231C7.5087 9 7.33261 9.07375 7.20277 9.20503C7.07294 9.3363 7 9.51435 7 9.7V21.6C7 21.9713 7.14588 22.3274 7.40554 22.5899C7.66521 22.8525 8.01739 23 8.38462 23H23.6154C23.9826 23 24.3348 22.8525 24.5945 22.5899C24.8541 22.3274 25 21.9713 25 21.6V9.7C25 9.51435 24.9271 9.3363 24.7972 9.20503C24.6674 9.07375 24.4913 9 24.3077 9ZM16 16.4506L9.4724 10.4H22.5276L16 16.4506ZM13.4653 16L8.38462 20.7084V11.2916L13.4653 16ZM14.4899 16.9494L15.5284 17.9162C15.6561 18.0348 15.8232 18.1006 15.9965 18.1006C16.1699 18.1006 16.337 18.0348 16.4647 17.9162L17.5032 16.9494L22.5224 21.6H9.4724L14.4899 16.9494ZM18.5347 16L23.6154 11.2908V20.7093L18.5347 16Z" fill="black"/>
</svg>
