<svg width="32" height="32" viewBox="0 0 32 32" fill="none" xmlns="http://www.w3.org/2000/svg">
    <g clip-path="url(#clip0_4871_89)">
        <path d="M16 32C24.8366 32 32 24.8366 32 16C32 7.16344 24.8366 0 16 0C7.16344 0 0 7.16344 0 16C0 24.8366 7.16344 32 16 32Z" fill="#039BE5"/>
        <path d="M7.32168 15.6534L22.7484 9.70537C23.4643 9.4467 24.0897 9.88003 23.8577 10.9627L23.859 10.9614L21.2323 23.336C21.0377 24.2134 20.5163 24.4267 19.787 24.0134L15.787 21.0654L13.8577 22.924C13.6443 23.1374 13.4643 23.3174 13.051 23.3174L13.335 19.2467L20.7483 12.5494C21.071 12.2654 20.6763 12.1054 20.251 12.388L11.0897 18.156L7.14035 16.924C6.28302 16.652 6.26435 16.0667 7.32168 15.6534Z" fill="white"/>
    </g>
    <defs>
        <clipPath id="clip0_4871_89">
            <rect width="32" height="32" fill="white"/>
        </clipPath>
    </defs>
</svg>
