<svg width="32" height="32" viewBox="0 0 32 32" fill="none" xmlns="http://www.w3.org/2000/svg">
    <path d="M32 16C32 7.16344 24.8366 0 16 0C7.16344 0 0 7.16344 0 16C0 24.8366 7.16344 32 16 32C24.8366 32 32 24.8366 32 16Z" fill="#0DC143"/>
    <path d="M23.1667 8.80759C21.4513 7.04179 19.0802 6.08325 16.6585 6.08325C11.5126 6.08325 7.37566 10.2707 7.42613 15.3661C7.42613 16.9805 7.8802 18.5445 8.63693 19.9571L7.3252 24.7499L12.2189 23.4887C13.5811 24.2454 15.0946 24.5986 16.6081 24.5986C21.7036 24.5986 25.8405 20.4112 25.8405 15.3157C25.8405 12.8436 24.882 10.5229 23.1667 8.80759ZM16.6585 23.0346C15.2964 23.0346 13.9342 22.6814 12.7739 21.9751L12.4711 21.8238L9.54506 22.5805L10.3018 19.7049L10.1 19.4022C7.8802 15.8202 8.9396 11.0779 12.5721 8.85805C16.2045 6.63821 20.8964 7.69765 23.1162 11.3301C25.336 14.9625 24.2766 19.6545 20.6441 21.8743C19.4838 22.631 18.0711 23.0346 16.6585 23.0346ZM21.0982 17.4346L20.5433 17.1823C20.5433 17.1823 19.736 16.8292 19.2315 16.5769C19.1811 16.5769 19.1306 16.5265 19.0802 16.5265C18.9288 16.5265 18.8279 16.5769 18.727 16.6274C18.727 16.6274 18.6766 16.6779 17.9703 17.4851C17.9198 17.586 17.8189 17.6364 17.718 17.6364H17.6675C17.6171 17.6364 17.5162 17.586 17.4657 17.5355L17.2135 17.4346C16.6585 17.1823 16.1541 16.8797 15.7505 16.4761C15.6495 16.3751 15.4982 16.2743 15.3973 16.1733C15.0441 15.8202 14.691 15.4166 14.4387 14.9625L14.3883 14.8617C14.3378 14.8112 14.3378 14.7607 14.2874 14.6599C14.2874 14.5589 14.2874 14.4581 14.3378 14.4076C14.3378 14.4076 14.5396 14.1553 14.691 14.004C14.7919 13.9031 14.8423 13.7517 14.9433 13.6509C15.0441 13.4995 15.0946 13.2977 15.0441 13.1463C14.9937 12.8941 14.3883 11.5319 14.2369 11.2292C14.136 11.0779 14.0351 11.0274 13.8838 10.9769H13.7324C13.6315 10.9769 13.4802 10.9769 13.3288 10.9769C13.2279 10.9769 13.127 11.0274 13.0261 11.0274L12.9757 11.0779C12.8747 11.1283 12.7739 11.2292 12.6729 11.2797C12.5721 11.3805 12.5216 11.4815 12.4207 11.5823C12.0675 12.0364 11.8657 12.5914 11.8657 13.1463C11.8657 13.5499 11.9667 13.9535 12.118 14.3067L12.1685 14.4581C12.6225 15.4166 13.2279 16.2743 14.0351 17.031L14.2369 17.2328C14.3883 17.3842 14.5396 17.4851 14.6405 17.6364C15.7 18.5445 16.9108 19.2004 18.2729 19.5535C18.4243 19.604 18.6261 19.604 18.7775 19.6545C18.9288 19.6545 19.1306 19.6545 19.282 19.6545C19.5342 19.6545 19.8369 19.5535 20.0387 19.4527C20.1901 19.3517 20.291 19.3517 20.3919 19.2509L20.4928 19.1499C20.5937 19.049 20.6946 18.9986 20.7955 18.8977C20.8964 18.7968 20.9973 18.6959 21.0477 18.595C21.1487 18.3932 21.1991 18.1409 21.2495 17.8887C21.2495 17.7878 21.2495 17.6364 21.2495 17.5355C21.2495 17.5355 21.1991 17.4851 21.0982 17.4346Z" fill="white"/>
</svg>
