<svg width="25" height="20" viewBox="0 0 25 20" fill="none" xmlns="http://www.w3.org/2000/svg">
    <path d="M22.1154 0H2.88462C2.11957 0 1.38585 0.316071 0.844884 0.87868C0.303914 1.44129 0 2.20435 0 3V17C0 17.7956 0.303914 18.5587 0.844884 19.1213C1.38585 19.6839 2.11957 20 2.88462 20H22.1154C22.8804 20 23.6141 19.6839 24.1551 19.1213C24.6961 18.5587 25 17.7956 25 17V3C25 2.20435 24.6961 1.44129 24.1551 0.87868C23.6141 0.316071 22.8804 0 22.1154 0ZM15.3269 9.60125C15.1922 10.2768 14.8378 10.8833 14.3233 11.3188C13.8088 11.7543 13.1657 11.9921 12.5024 11.9921C11.8391 11.9921 11.196 11.7543 10.6815 11.3188C10.167 10.8833 9.81258 10.2768 9.67788 9.60125C9.58934 9.14864 9.35289 8.74186 9.0087 8.44997C8.6645 8.15809 8.23378 7.9991 7.78966 8H1.92308V6H23.0769V8H17.2103C16.767 8.00025 16.3375 8.15977 15.9942 8.45156C15.651 8.74334 15.4153 9.14948 15.3269 9.60125ZM2.88462 2H22.1154C22.3704 2 22.615 2.10536 22.7953 2.29289C22.9756 2.48043 23.0769 2.73478 23.0769 3V4H1.92308V3C1.92308 2.73478 2.02438 2.48043 2.20471 2.29289C2.38503 2.10536 2.6296 2 2.88462 2Z" fill="white"/>
</svg>
