<svg width="25" height="20" viewBox="0 0 25 20" fill="none" xmlns="http://www.w3.org/2000/svg">
    <path fill-rule="evenodd" clip-rule="evenodd" d="M19.8722 11.0213C20.859 9.31197 17.7724 5.68143 12.9779 2.91317C8.18189 0.144948 3.49526 -0.713184 2.50841 0.996181C1.96031 1.94292 1.41358 2.89104 0.866857 3.83916C-0.119997 5.54857 2.96658 9.17768 7.76251 11.9459C12.5571 14.7142 17.2451 15.5737 18.232 13.8643C18.7787 12.9162 19.3254 11.9694 19.8722 11.0213Z" fill="#FE9923"/>
    <path fill-rule="evenodd" clip-rule="evenodd" d="M19.8721 11.0214C20.6251 9.71891 19.0098 7.29945 16.0769 4.99768C15.2838 5.36724 14.4741 5.788 13.6616 6.25721C10.8104 7.90295 8.49194 9.81717 7.08984 11.5459C7.31206 11.6826 7.53631 11.816 7.76253 11.9459C10.4145 13.4767 13.0332 14.4235 15.0111 14.6754C15.897 14.274 16.8049 13.8089 17.7171 13.283C18.1606 13.0261 18.5981 12.7588 19.0292 12.4816L19.8721 11.0214Z" fill="#CE7C1D"/>
    <path fill-rule="evenodd" clip-rule="evenodd" d="M12.9779 2.91346C8.18194 0.145191 3.49531 -0.712942 2.50846 0.996423C1.5216 2.70441 4.60818 6.33494 9.40411 9.10321C14.1987 11.8714 18.8867 12.731 19.8722 11.0216C20.8591 9.31221 17.7725 5.68167 12.9779 2.91346Z" fill="#FECD3D"/>
    <path fill-rule="evenodd" clip-rule="evenodd" d="M9.49023 9.15281C14.2558 11.8809 18.8925 12.7197 19.8725 11.0214C20.6254 9.71891 19.0102 7.29945 16.0772 4.99768C15.2842 5.36724 14.4744 5.788 13.662 6.25721C12.0868 7.16521 10.675 8.15625 9.49023 9.15281Z" fill="#CEA732"/>
    <path fill-rule="evenodd" clip-rule="evenodd" d="M12.1422 4.35962C8.32756 2.15745 4.80914 1.10969 4.28316 2.02045C3.75856 2.93121 6.42438 5.45445 10.239 7.65658C14.0537 9.8587 17.5721 10.9065 18.098 9.99575C18.624 9.08637 15.9568 6.56313 12.1422 4.35962Z" fill="#FEA832"/>
    <path fill-rule="evenodd" clip-rule="evenodd" d="M10.9175 8.03706C14.4622 9.97622 17.6041 10.8523 18.0983 9.99558C18.5094 9.28278 16.9647 7.5817 14.4442 5.8197C14.1815 5.96181 13.9208 6.10761 13.6622 6.25707C12.6781 6.82459 11.7591 7.4239 10.9175 8.03706Z" fill="#CE8829"/>
    <path d="M16.2793 13.5404L15.5914 14.7307C15.2993 14.7128 14.9879 14.6782 14.6626 14.6255L15.5374 13.1099L16.2793 13.5404ZM6.08526 10.8981C6.32211 11.0581 6.5616 11.214 6.80363 11.366L7.59814 9.99015L6.85626 9.56382L6.08526 10.8981ZM1.43604 6.55752C1.59797 6.80255 1.78347 7.05442 1.99247 7.31049L2.86725 5.79628L2.124 5.36719L1.43604 6.55752ZM3.61327 8.98388C3.82997 9.17701 4.05055 9.36575 4.27487 9.54997L5.10811 8.10771L4.36624 7.68143L3.61327 8.98388ZM8.74279 12.4871C8.99656 12.6199 9.25219 12.749 9.5096 12.8746L10.2806 11.5403L9.53868 11.1099L8.74279 12.4871ZM11.5816 13.7688C11.8531 13.8711 12.1268 13.9675 12.4024 14.0581L13.1554 12.7542L12.4135 12.3279L11.5816 13.7688Z" fill="#C85929"/>
    <path d="M2.97987 11.7605V12.627H3.84633V13.3108H2.97987V14.1772H2.29615V13.3108H1.42969V12.627H2.29615V11.7605H2.97987ZM18.2481 1.4281V2.29318H19.1145V2.97695H18.2481V3.84337H17.5643V2.97695H16.6979V2.29318H17.5643V1.4281H18.2481Z" fill="#FEA832"/>
    <path fill-rule="evenodd" clip-rule="evenodd" d="M5.80968 15.5781C4.82278 13.8687 7.91078 10.2395 12.7053 7.47127C17.4999 4.70167 22.1879 3.84349 23.1748 5.55291C23.7215 6.50086 24.2687 7.44852 24.8164 8.39588C25.8033 10.1052 22.7153 13.7344 17.9207 16.504C13.1247 19.2723 8.43814 20.1304 7.45124 18.421C6.90451 17.4743 6.35641 16.5262 5.80968 15.5781Z" fill="#FE9923"/>
    <path fill-rule="evenodd" clip-rule="evenodd" d="M12.7053 7.47127C17.4999 4.70167 22.1879 3.84349 23.1748 5.55291C24.1617 7.26227 21.0737 10.8914 16.2792 13.6597C11.4832 16.4293 6.79659 17.2875 5.80969 15.5781C4.82278 13.8686 7.91074 10.2395 12.7053 7.47127Z" fill="#FECD3D"/>
    <path fill-rule="evenodd" clip-rule="evenodd" d="M13.5402 8.91751C17.3548 6.714 20.8747 5.66762 21.3992 6.57695C21.9252 7.48772 19.2594 10.011 15.4433 12.2131C11.6287 14.4166 8.11033 15.463 7.58573 14.5536C7.05975 13.6429 9.72556 11.1197 13.5402 8.91751Z" fill="#FEA832"/>
    <path d="M13.2701 16.8844L14.102 18.3252C13.8304 18.4284 13.5562 18.5248 13.2799 18.6145L12.5269 17.3107L13.2701 16.8844ZM15.4031 16.0969L16.1727 17.4311C16.4306 17.3066 16.6862 17.1774 16.9395 17.0436L16.145 15.6678L15.4031 16.0969ZM9.4043 18.0969L10.0908 19.2873C10.3843 19.2706 10.6943 19.2346 11.0209 19.182L10.1461 17.6678L9.4043 18.0969ZM23.5583 9.92371L22.8164 10.3528L23.6897 11.867C23.8987 11.611 24.0856 11.3604 24.2462 11.1154L23.5583 9.92371ZM18.0855 14.5467L18.88 15.9239C19.1217 15.771 19.3612 15.6146 19.5983 15.4547L18.8274 14.1204L18.0855 14.5467ZM20.5755 12.6642L21.4088 14.1079C21.6385 13.9182 21.8586 13.73 22.069 13.5404L21.3174 12.2379L20.5755 12.6642Z" fill="#C85929"/>
</svg>
