<svg width="40" height="40" viewBox="0 0 40 40" fill="none" xmlns="http://www.w3.org/2000/svg">
    <path d="M17.077 23.0727L14.08 20.074L14.0799 20.0739C13.7119 19.7059 13.2128 19.4992 12.6923 19.4992C12.1719 19.4992 11.6727 19.7059 11.3047 20.0739C10.9367 20.442 10.73 20.9411 10.73 21.4615C10.73 21.982 10.9367 22.4811 11.3047 22.8491L15.6891 27.2335C15.6892 27.2336 15.6893 27.2337 15.6893 27.2337C15.8715 27.416 16.0877 27.5606 16.3258 27.6593C16.5639 27.758 16.8192 27.8088 17.0769 27.8088C17.3347 27.8088 17.59 27.758 17.8281 27.6593C18.0662 27.5606 18.2825 27.4159 18.4647 27.2335L28.6951 17.0032C28.8775 16.821 29.0222 16.6047 29.1209 16.3665C29.2196 16.1284 29.2704 15.8732 29.2704 15.6154C29.2704 15.3576 29.2196 15.1024 29.1209 14.8642C29.0222 14.6263 28.8777 14.4101 28.6955 14.228C28.6954 14.2279 28.6952 14.2277 28.6951 14.2276L28.3417 14.5813L17.077 23.0727ZM17.077 23.0727L25.9199 14.228C25.92 14.2279 25.92 14.2279 25.9201 14.2278L17.077 23.0727ZM39.5 20V19.9995C39.4945 14.8296 37.4384 9.87297 33.7827 6.21729C30.127 2.56161 25.1704 0.50546 20.0005 0.5H20C16.1433 0.5 12.3731 1.64365 9.16639 3.78634C5.95963 5.92903 3.46027 8.97451 1.98436 12.5377C0.508449 16.1008 0.122284 20.0216 0.874696 23.8043C1.62711 27.5869 3.4843 31.0615 6.21143 33.7886C8.93855 36.5157 12.4131 38.3729 16.1957 39.1253C19.9784 39.8777 23.8992 39.4916 27.4623 38.0156C31.0255 36.5397 34.071 34.0404 36.2137 30.8336C38.3563 27.6269 39.5 23.8567 39.5 20ZM32.9517 11.3459C34.6632 13.9074 35.5768 16.9188 35.5769 19.9994C35.5722 24.1294 33.9295 28.0889 31.0092 31.0092C28.0889 33.9295 24.1294 35.5722 19.9994 35.5769C16.9188 35.5768 13.9074 34.6632 11.3459 32.9517C8.78432 31.2401 6.78779 28.8073 5.60881 25.961C4.42983 23.1147 4.12135 19.9827 4.72239 16.9611C5.32343 13.9395 6.80699 11.1639 8.98546 8.98545C11.1639 6.80698 13.9395 5.32342 16.9611 4.72238C19.9827 4.12134 23.1147 4.42982 25.961 5.6088C28.8073 6.78778 31.2401 8.78431 32.9517 11.3459Z" fill="#18A085" stroke="#18A085"/>
</svg>
