<svg width="23" height="23" viewBox="0 0 23 23" fill="none" xmlns="http://www.w3.org/2000/svg">
    <path d="M21.5443 11.1112L11.889 1.45598C11.7451 1.31091 11.5738 1.19589 11.385 1.11761C11.1962 1.03933 10.9938 0.999355 10.7894 1.00001H1.77779C1.57151 1.00001 1.37368 1.08195 1.22782 1.22782C1.08195 1.37368 1.00001 1.57151 1.00001 1.77779V10.7894C0.999355 10.9938 1.03933 11.1962 1.11761 11.385C1.19589 11.5738 1.31091 11.7451 1.45598 11.889L11.1112 21.5443C11.2557 21.6887 11.4272 21.8034 11.6159 21.8816C11.8047 21.9598 12.007 22 12.2113 22C12.4156 22 12.6179 21.9598 12.8067 21.8816C12.9954 21.8034 13.1669 21.6887 13.3114 21.5443L21.5443 13.3114C21.6887 13.1669 21.8034 12.9954 21.8816 12.8067C21.9598 12.6179 22 12.4156 22 12.2113C22 12.007 21.9598 11.8047 21.8816 11.6159C21.8034 11.4272 21.6887 11.2557 21.5443 11.1112ZM12.2108 20.4447L2.55558 10.7894V2.55558H10.7894L20.4447 12.2108L12.2108 20.4447ZM7.2223 6.05562C7.2223 6.28637 7.15387 6.51193 7.02568 6.70379C6.89748 6.89565 6.71527 7.04519 6.50209 7.13349C6.2889 7.22179 6.05432 7.2449 5.82801 7.19988C5.6017 7.15486 5.39381 7.04375 5.23065 6.88059C5.06749 6.71742 4.95637 6.50954 4.91136 6.28323C4.86634 6.05691 4.88944 5.82233 4.97775 5.60915C5.06605 5.39597 5.21559 5.21376 5.40745 5.08556C5.59931 4.95736 5.82487 4.88894 6.05562 4.88894C6.36504 4.88894 6.66179 5.01186 6.88059 5.23065C7.09938 5.44945 7.2223 5.7462 7.2223 6.05562Z" fill="#201D56" stroke="#201D56" stroke-width="0.5"/>
</svg>
