<svg viewBox="0 0 38 30" fill="none" xmlns="http://www.w3.org/2000/svg">
    <path fill-rule="evenodd" clip-rule="evenodd" d="M29.5942 16.9987C31.1075 14.3774 26.3744 8.81024 19.0222 4.56528C11.6679 0.320387 4.48122 -0.995505 2.96794 1.6257C2.12745 3.07747 1.28909 4.53135 0.450717 5.98523C-1.06256 8.60651 3.67051 14.1715 11.0248 18.4165C18.377 22.6614 25.5657 23.9795 27.0791 21.3582C27.9174 19.9043 28.7558 18.4525 29.5942 16.9987Z" fill="#FE9923"/>
    <path fill-rule="evenodd" clip-rule="evenodd" d="M29.594 16.9987C30.7486 15.0014 28.2717 11.2913 23.7742 7.76172C22.5581 8.32841 21.3164 8.97363 20.0706 9.69313C15.6984 12.2168 12.1432 15.1521 9.99316 17.803C10.3339 18.0126 10.6778 18.2171 11.0247 18.4164C15.0913 20.7638 19.107 22.2156 22.14 22.6019C23.4983 21.9864 24.8906 21.2732 26.2894 20.4667C26.9695 20.0727 27.6404 19.663 28.3015 19.2378L29.594 16.9987Z" fill="#CE7C1D"/>
    <path fill-rule="evenodd" clip-rule="evenodd" d="M19.0226 4.56559C11.6682 0.320629 4.48158 -0.995264 2.9683 1.62594C1.45501 4.24503 6.18808 9.81223 13.5424 14.0572C20.8946 18.3021 28.0833 19.6202 29.5945 16.9989C31.1078 14.3777 26.3747 8.81048 19.0226 4.56559Z" fill="#FECD3D"/>
    <path fill-rule="evenodd" clip-rule="evenodd" d="M13.6738 14.1334C20.9815 18.3167 28.0917 19.6029 29.5944 16.9987C30.749 15.0014 28.272 11.2913 23.7746 7.76172C22.5585 8.32841 21.3168 8.97363 20.0709 9.69313C17.6555 11.0855 15.4906 12.6052 13.6738 14.1334Z" fill="#CEA732"/>
    <path fill-rule="evenodd" clip-rule="evenodd" d="M17.7403 6.78339C11.8907 3.4065 6.49546 1.79982 5.68891 3.19641C4.88447 4.59301 8.97233 8.46225 14.8219 11.8391C20.6714 15.2159 26.0667 16.8226 26.8732 15.4261C27.6797 14.0316 23.5897 10.1623 17.7403 6.78339Z" fill="#FEA832"/>
    <path fill-rule="evenodd" clip-rule="evenodd" d="M15.8623 12.4225C21.2979 15.3961 26.1159 16.7396 26.8736 15.4258C27.504 14.3328 25.1354 11.7242 21.2704 9.02234C20.8675 9.24025 20.4677 9.46383 20.0711 9.69302C18.5621 10.5633 17.1528 11.4823 15.8623 12.4225Z" fill="#CE8829"/>
    <path d="M24.0845 20.8615L23.0296 22.6868C22.5818 22.6592 22.1042 22.6062 21.6054 22.5255L22.9468 20.2014L24.0845 20.8615ZM8.45255 16.8098C8.81574 17.055 9.18298 17.2942 9.55412 17.5272L10.7725 15.4174L9.63483 14.7637L8.45255 16.8098ZM1.32324 10.1537C1.57156 10.5294 1.85601 10.9157 2.1765 11.3083L3.51793 8.98638L2.37819 8.3284L1.32324 10.1537ZM4.6619 13.8744C4.99419 14.1705 5.33244 14.4599 5.67642 14.7424L6.95415 12.5308L5.81653 11.8771L4.6619 13.8744ZM12.5277 19.2463C12.9168 19.4499 13.3088 19.648 13.7036 19.8406L14.8858 17.7945L13.7482 17.1344L12.5277 19.2463ZM16.8809 21.2117C17.2972 21.3686 17.7168 21.5165 18.1395 21.6553L19.2941 19.656L18.1565 19.0022L16.8809 21.2117Z" fill="#C85929"/>
    <path d="M3.69059 18.1322V19.4609H5.01925V20.5094H3.69059V21.8381H2.64214V20.5094H1.31348V19.4609H2.64214V18.1322H3.69059ZM27.1035 2.28812V3.61466H28.4321V4.66319H27.1035V5.99178H26.0549V4.66319H24.7263V3.61466H26.0549V2.28812H27.1035Z" fill="#FEA832"/>
    <path fill-rule="evenodd" clip-rule="evenodd" d="M8.02975 23.9858C6.5164 21.3646 11.2517 15.7995 18.6038 11.5546C25.956 7.30757 33.1447 5.99161 34.6581 8.61289C35.4964 10.0665 36.3355 11.5197 37.1753 12.9724C38.6887 15.5936 33.9534 21.1587 26.6013 25.4058C19.2469 29.6507 12.0603 30.9666 10.547 28.3454C9.7086 26.8936 8.86812 25.4397 8.02975 23.9858Z" fill="#FE9923"/>
    <path fill-rule="evenodd" clip-rule="evenodd" d="M18.6038 11.5546C25.956 7.30757 33.1448 5.99161 34.6581 8.61289C36.1715 11.2341 31.4362 16.7992 24.084 21.0441C16.7297 25.2912 9.54311 26.6071 8.02976 23.9858C6.5164 21.3646 11.2516 15.7995 18.6038 11.5546Z" fill="#FECD3D"/>
    <path fill-rule="evenodd" clip-rule="evenodd" d="M19.8847 13.7727C25.7341 10.3937 31.1316 8.78915 31.936 10.1836C32.7425 11.5802 28.6547 15.4494 22.803 18.8262C16.9536 22.2052 11.5583 23.8097 10.7539 22.4153C9.9473 21.0188 14.0352 17.1495 19.8847 13.7727Z" fill="#FEA832"/>
    <path d="M19.47 25.9894L20.7457 28.1988C20.3291 28.357 19.9087 28.5049 19.4849 28.6424L18.3303 26.6431L19.47 25.9894ZM22.7408 24.7817L23.9209 26.8278C24.3164 26.6368 24.7084 26.4387 25.0967 26.2335L23.8784 24.1237L22.7408 24.7817ZM13.542 27.8486L14.5947 29.674C15.0447 29.6485 15.5201 29.5933 16.021 29.5127L14.6795 27.1907L13.542 27.8486ZM35.2462 15.3156L34.1086 15.9736L35.4479 18.2955C35.7683 17.9029 36.0549 17.5187 36.3011 17.143L35.2462 15.3156ZM26.854 22.4046L28.0723 24.5165C28.443 24.282 28.8103 24.0422 29.1739 23.797L27.9917 21.7509L26.854 22.4046ZM30.6724 19.518L31.9501 21.7317C32.3024 21.4409 32.6399 21.1523 32.9625 20.8616L31.81 18.8643L30.6724 19.518Z" fill="#C85929"/>
</svg>
