<svg width="27" height="27" viewBox="0 0 27 27" fill="none" xmlns="http://www.w3.org/2000/svg">
    <path d="M19.427 9.6499C19.5236 9.74635 19.6002 9.86088 19.6524 9.98694C19.7047 10.113 19.7316 10.2481 19.7316 10.3846C19.7316 10.5211 19.7047 10.6562 19.6524 10.7823C19.6002 10.9083 19.5236 11.0229 19.427 11.1193L12.1578 18.3886C12.0613 18.4851 11.9468 18.5617 11.8207 18.614C11.6947 18.6662 11.5596 18.6931 11.4231 18.6931C11.2866 18.6931 11.1515 18.6662 11.0254 18.614C10.8993 18.5617 10.7848 18.4851 10.6884 18.3886L7.57298 15.2732C7.37813 15.0783 7.26866 14.814 7.26866 14.5385C7.26866 14.2629 7.37813 13.9986 7.57298 13.8037C7.76784 13.6089 8.03213 13.4994 8.3077 13.4994C8.58327 13.4994 8.84755 13.6089 9.04241 13.8037L11.4231 16.1857L17.9576 9.6499C18.054 9.55335 18.1686 9.47675 18.2946 9.42449C18.4207 9.37223 18.5558 9.34534 18.6923 9.34534C18.8288 9.34534 18.9639 9.37223 19.09 9.42449C19.216 9.47675 19.3306 9.55335 19.427 9.6499ZM27 13.5C27 16.17 26.2082 18.7801 24.7248 21.0002C23.2414 23.2203 21.133 24.9506 18.6662 25.9724C16.1994 26.9942 13.485 27.2615 10.8663 26.7406C8.24754 26.2197 5.84207 24.9339 3.95406 23.0459C2.06606 21.1579 0.780305 18.7525 0.259405 16.1337C-0.261496 13.515 0.0058493 10.8006 1.02763 8.33377C2.04942 5.86697 3.77974 3.75856 5.99981 2.27516C8.21987 0.791761 10.83 0 13.5 0C17.0793 0.00377976 20.5108 1.42731 23.0418 3.95823C25.5727 6.48915 26.9962 9.92073 27 13.5ZM24.9231 13.5C24.9231 11.2407 24.2531 9.03219 22.9979 7.15368C21.7428 5.27516 19.9587 3.81104 17.8714 2.94645C15.7841 2.08187 13.4873 1.85565 11.2715 2.29641C9.05561 2.73718 7.02022 3.82512 5.42267 5.42266C3.82512 7.02021 2.73718 9.05561 2.29642 11.2715C1.85566 13.4873 2.08187 15.7841 2.94646 17.8714C3.81104 19.9587 5.27517 21.7428 7.15368 22.9979C9.0322 24.2531 11.2407 24.9231 13.5 24.9231C16.5285 24.9196 19.432 23.715 21.5735 21.5735C23.715 19.432 24.9196 16.5285 24.9231 13.5Z" fill="white"/>
</svg>
