<svg width="31" height="31" viewBox="0 0 31 31" fill="none" xmlns="http://www.w3.org/2000/svg">
    <path d="M30.15 15.5V15.4998C30.1459 11.6157 28.6011 7.89186 25.8546 5.14537C23.1081 2.39888 19.3843 0.854102 15.5002 0.85H15.5C12.6025 0.85 9.77008 1.70921 7.3609 3.31897C4.95172 4.92873 3.07399 7.21675 1.96517 9.89369C0.856348 12.5706 0.566229 15.5162 1.1315 18.3581C1.69678 21.1999 3.09205 23.8103 5.14089 25.8591C7.18973 27.908 9.80011 29.3032 12.6419 29.8685C15.4838 30.4338 18.4294 30.1437 21.1063 29.0348C23.7833 27.926 26.0713 26.0483 27.681 23.6391C29.2908 21.2299 30.15 18.3975 30.15 15.5ZM17.0158 23.7628C17.2162 23.463 17.3231 23.1106 17.3231 22.75C17.3231 22.2665 17.131 21.8028 16.7891 21.4609C16.4472 21.119 15.9835 20.9269 15.5 20.9269C15.1394 20.9269 14.787 21.0338 14.4872 21.2342C14.1874 21.4345 13.9537 21.7192 13.8157 22.0523C13.6777 22.3855 13.6416 22.752 13.712 23.1057C13.7823 23.4593 13.9559 23.7841 14.2109 24.0391C14.4659 24.2941 14.7907 24.4677 15.1443 24.538C15.498 24.6084 15.8645 24.5723 16.1977 24.4343C16.5308 24.2963 16.8155 24.0626 17.0158 23.7628ZM15.5 7.54231C12.3567 7.54231 9.77308 9.84668 9.77308 12.7115V13.2692C9.77308 13.6048 9.9064 13.9267 10.1437 14.164C10.381 14.4013 10.7029 14.5346 11.0385 14.5346C11.3741 14.5346 11.6959 14.4013 11.9332 14.164C12.1705 13.9267 12.3039 13.6048 12.3039 13.2692V12.7115C12.3039 11.2851 13.7116 10.0731 15.5 10.0731C17.2884 10.0731 18.6962 11.2851 18.6962 12.7115C18.6962 14.138 17.2884 15.35 15.5 15.35C15.1644 15.35 14.8425 15.4833 14.6052 15.7206C14.3679 15.9579 14.2346 16.2798 14.2346 16.6154V17.7308C14.2346 18.0664 14.3679 18.3882 14.6052 18.6255C14.8425 18.8628 15.1644 18.9962 15.5 18.9962C15.8356 18.9962 16.1575 18.8628 16.3948 18.6255C16.6266 18.3937 16.7591 18.0813 16.7652 17.7541C19.3061 17.2343 21.2269 15.1797 21.2269 12.7115C21.2269 9.84668 18.6433 7.54231 15.5 7.54231ZM25.5768 8.76691C26.9084 10.7599 27.6192 13.1029 27.6192 15.4998C27.6156 18.713 26.3376 21.7935 24.0655 24.0655C21.7935 26.3375 18.713 27.6156 15.4998 27.6192C13.1029 27.6192 10.7599 26.9084 8.76692 25.5768C6.77392 24.2451 5.22057 22.3523 4.3033 20.1378C3.38602 17.9233 3.14602 15.4866 3.61364 13.1357C4.08127 10.7848 5.23551 8.62531 6.93042 6.93041C8.62532 5.2355 10.7848 4.08126 13.1357 3.61364C15.4866 3.14601 17.9233 3.38601 20.1378 4.30329C22.3523 5.22057 24.2451 6.77392 25.5768 8.76691Z" fill="#201D56" stroke="#201D56" stroke-width="0.3"/>
</svg>
