<svg viewBox="0 0 22 23" fill="none" xmlns="http://www.w3.org/2000/svg">
    <path d="M21.0625 11.5V11.4999C21.0597 8.70047 19.9993 6.01593 18.1132 4.03552C16.227 2.05501 13.6689 0.940459 11.0001 0.9375H11C9.00913 0.9375 7.06324 1.5574 5.40841 2.7184C3.75362 3.87938 2.46431 5.5292 1.70307 7.45889C0.941837 9.38855 0.742706 11.5117 1.13074 13.5601C1.51878 15.6084 2.47666 17.4904 3.88368 18.9677C5.29073 20.4451 7.0838 21.4516 9.03632 21.8594C10.9889 22.2672 13.0127 22.0579 14.8518 21.258C16.6908 20.4582 18.2621 19.104 19.3674 17.367C20.4727 15.6301 21.0625 13.5884 21.0625 11.5ZM12.0121 17.4566C12.1454 17.2472 12.2163 17.0013 12.2163 16.75C12.2163 16.4131 12.0889 16.0893 11.8612 15.8502C11.6333 15.611 11.3236 15.476 11 15.476C10.7587 15.476 10.5232 15.5511 10.3231 15.6915C10.123 15.8318 9.96754 16.031 9.87585 16.2634C9.78416 16.4958 9.76021 16.7514 9.80692 16.998C9.85363 17.2446 9.96899 17.4714 10.1389 17.6498C10.3087 17.8282 10.5256 17.95 10.7621 17.9994C10.9987 18.0488 11.2439 18.0235 11.4665 17.9266C11.6891 17.8298 11.8788 17.6661 12.0121 17.4566ZM11 5.78365C8.84771 5.78365 7.09135 7.43888 7.09135 9.48077V9.88461C7.09135 10.1144 7.17827 10.3354 7.33389 10.4988C7.48961 10.6623 7.70148 10.7548 7.92308 10.7548C8.14468 10.7548 8.35655 10.6623 8.51227 10.4988C8.66789 10.3354 8.75481 10.1144 8.75481 9.88461V9.48077C8.75481 8.41224 9.75436 7.52404 11 7.52404C12.2456 7.52404 13.2452 8.41224 13.2452 9.48077C13.2452 10.5493 12.2456 11.4375 11 11.4375C10.7784 11.4375 10.5665 11.53 10.4108 11.6935C10.2552 11.8569 10.1683 12.0779 10.1683 12.3077V13.1154C10.1683 13.3452 10.2552 13.5662 10.4108 13.7296C10.5665 13.8931 10.7784 13.9856 11 13.9856C11.2216 13.9856 11.4335 13.8931 11.5892 13.7296C11.7448 13.5662 11.8317 13.3452 11.8317 13.1154V13.094C13.5868 12.7324 14.9087 11.2515 14.9087 9.48077C14.9087 7.43888 13.1523 5.78365 11 5.78365ZM17.9828 6.59753C18.9061 8.04839 19.399 9.75445 19.399 11.4999C19.3965 13.8399 18.5101 16.0826 16.9351 17.7363C15.3603 19.3899 13.2257 20.3195 10.9999 20.3221C9.33948 20.3221 7.71605 19.8051 6.33492 18.8361C4.95373 17.8671 3.87677 16.4894 3.2407 14.8771C2.60462 13.2646 2.43815 11.4902 2.76246 9.77833C3.08676 8.06643 3.88718 6.49435 5.06205 5.26073C6.23689 4.02715 7.73335 3.18744 9.36202 2.84728C10.9907 2.50713 12.6788 2.68167 14.2132 3.349C15.7476 4.01634 17.0595 5.14667 17.9828 6.59753Z" fill="#201D56" stroke="#201D56" stroke-width="0.125"/>
</svg>
