<svg width="23" height="20" viewBox="0 0 23 20" fill="none" xmlns="http://www.w3.org/2000/svg">
    <path d="M21.4368 6.7708C21.2256 6.54105 20.9659 6.35707 20.675 6.23107C20.384 6.10507 20.0685 6.03994 19.7493 6.04H14.4995V4.6C14.4995 3.64522 14.1045 2.72955 13.4012 2.05442C12.698 1.37928 11.7442 1 10.7497 1C10.6103 0.999904 10.4737 1.03707 10.3552 1.10734C10.2366 1.1776 10.1408 1.27818 10.0784 1.3978L6.53668 8.2H2.49995C2.10214 8.2 1.72062 8.35171 1.43932 8.62177C1.15803 8.89182 1 9.25809 1 9.64V17.56C1 17.9419 1.15803 18.3082 1.43932 18.5782C1.72062 18.8483 2.10214 19 2.49995 19H18.6244C19.1725 19.0002 19.7019 18.8083 20.113 18.4602C20.5242 18.1122 20.7889 17.6321 20.8574 17.11L21.9824 8.47C22.0223 8.16582 21.9942 7.85698 21.9002 7.564C21.8061 7.27103 21.6481 7.00063 21.4368 6.7708ZM2.49995 9.64H6.24982V17.56H2.49995V9.64ZM20.4937 8.29L19.3687 16.93C19.3459 17.104 19.2577 17.2641 19.1206 17.3801C18.9835 17.4961 18.8071 17.5601 18.6244 17.56H7.74976V9.0901L11.1912 2.4814C11.7013 2.57941 12.1602 2.84406 12.4899 3.23033C12.8196 3.6166 12.9997 4.10061 12.9996 4.6V6.76C12.9996 6.95096 13.0786 7.13409 13.2192 7.26912C13.3599 7.40414 13.5506 7.48 13.7496 7.48H19.7493C19.8558 7.47997 19.961 7.50168 20.058 7.54369C20.155 7.5857 20.2416 7.64706 20.312 7.72367C20.3824 7.80029 20.435 7.89041 20.4663 7.98806C20.4977 8.0857 20.507 8.18863 20.4937 8.29Z" fill="white" stroke="white" stroke-width="0.5"/>
</svg>
