<svg viewBox="0 0 27 20" fill="none" xmlns="http://www.w3.org/2000/svg">
    <path fill-rule="evenodd" clip-rule="evenodd" d="M26.1542 14.7739C27.4701 12.4946 23.3544 7.65363 16.9613 3.96241C10.5663 0.271249 4.31713 -0.87299 3.00126 1.40629C2.27041 2.66868 1.5414 3.9329 0.812399 5.19713C-0.50348 7.47647 3.61218 12.3156 10.0071 16.0068C16.4003 19.6979 22.6512 20.8441 23.9672 18.5647C24.6962 17.3005 25.4252 16.0381 26.1542 14.7739Z" fill="#FE9923"/>
    <path fill-rule="evenodd" clip-rule="evenodd" d="M16.9619 3.96223C10.5669 0.271003 4.31773 -0.873237 3.00185 1.40604C1.68597 3.68348 5.80163 8.52446 12.1966 12.2157C18.5897 15.9068 24.8407 17.053 26.1548 14.7736C27.4707 12.4944 23.355 7.65339 16.9619 3.96223Z" fill="#FECD3D"/>
    <path fill-rule="evenodd" clip-rule="evenodd" d="M15.8474 5.89085C10.7609 2.95446 6.06945 1.55736 5.36811 2.77178C4.66861 3.98619 8.22322 7.3507 13.3097 10.287C18.3962 13.2234 23.0877 14.6205 23.7889 13.4061C24.4903 12.1935 20.9338 8.82902 15.8474 5.89085Z" fill="#FEA832"/>
    <path d="M21.3614 18.1328L20.4442 19.72C20.0548 19.6961 19.6395 19.6499 19.2058 19.5798L20.3722 17.5589L21.3614 18.1328ZM7.76865 14.6096C8.08446 14.8229 8.4038 15.0308 8.72653 15.2334L9.78593 13.3989L8.7967 12.8304L7.76865 14.6096ZM1.56934 8.82182C1.78526 9.14854 2.0326 9.48439 2.31129 9.82583L3.47773 7.80677L2.48667 7.23462L1.56934 8.82182ZM4.47248 12.0571C4.76142 12.3147 5.05554 12.5663 5.35466 12.812L6.46571 10.8888L5.47649 10.3204L4.47248 12.0571ZM11.3122 16.7283C11.6506 16.9054 11.9915 17.0776 12.3347 17.2451L13.3627 15.4659L12.3735 14.8919L11.3122 16.7283ZM15.0975 18.4374C15.4595 18.5738 15.8244 18.7024 16.192 18.8231L17.196 17.0845L16.2068 16.5161L15.0975 18.4374Z" fill="#C85929"/>
</svg>
