<svg viewBox="0 0 33 23" fill="none" xmlns="http://www.w3.org/2000/svg">
    <path d="M32.9202 8.34807L30.9952 3.55819C30.8319 3.15293 30.5501 2.80581 30.1863 2.56181C29.8225 2.3178 29.3934 2.18816 28.9547 2.18966H24.2V1.09483C24.2 0.804462 24.0841 0.525989 23.8778 0.320668C23.6715 0.115348 23.3917 0 23.1 0H2.2C1.61652 0 1.05695 0.230695 0.644365 0.641336C0.231785 1.05198 0 1.60892 0 2.18966V17.5173C0 18.098 0.231785 18.6549 0.644365 19.0656C1.05695 19.4762 1.61652 19.7069 2.2 19.7069H4.5375C4.77983 20.6489 5.33027 21.4839 6.10204 22.0801C6.87381 22.6764 7.82301 23 8.8 23C9.77699 23 10.7262 22.6764 11.498 22.0801C12.2697 21.4839 12.8202 20.6489 13.0625 19.7069H19.9375C20.1798 20.6489 20.7303 21.4839 21.502 22.0801C22.2738 22.6764 23.223 23 24.2 23C25.177 23 26.1262 22.6764 26.898 22.0801C27.6697 21.4839 28.2202 20.6489 28.4625 19.7069H30.8C31.3835 19.7069 31.9431 19.4762 32.3556 19.0656C32.7682 18.6549 33 18.098 33 17.5173V8.75863C33.0004 8.61793 32.9733 8.4785 32.9202 8.34807ZM24.2 4.37932H28.9547L30.2747 7.6638H24.2V4.37932ZM2.2 2.18966H22V10.9483H2.2V2.18966ZM8.8 20.8018C8.36488 20.8018 7.93953 20.6733 7.57774 20.4327C7.21596 20.1921 6.93398 19.8502 6.76746 19.45C6.60095 19.0499 6.55738 18.6097 6.64227 18.1849C6.72716 17.7602 6.93669 17.37 7.24436 17.0638C7.55204 16.7575 7.94404 16.549 8.3708 16.4645C8.79756 16.38 9.23991 16.4234 9.6419 16.5891C10.0439 16.7548 10.3875 17.0355 10.6292 17.3956C10.871 17.7557 11 18.179 11 18.6121C11 19.1928 10.7682 19.7498 10.3556 20.1604C9.94305 20.5711 9.38348 20.8018 8.8 20.8018ZM19.9375 17.5173H13.0625C12.8202 16.5753 12.2697 15.7403 11.498 15.1441C10.7262 14.5478 9.77699 14.2242 8.8 14.2242C7.82301 14.2242 6.87381 14.5478 6.10204 15.1441C5.33027 15.7403 4.77983 16.5753 4.5375 17.5173H2.2V13.138H22V14.8226C21.4942 15.1136 21.0514 15.5016 20.6974 15.9642C20.3433 16.4267 20.0851 16.9546 19.9375 17.5173ZM24.2 20.8018C23.7649 20.8018 23.3395 20.6733 22.9777 20.4327C22.616 20.1921 22.334 19.8502 22.1675 19.45C22.0009 19.0499 21.9574 18.6097 22.0423 18.1849C22.1272 17.7602 22.3367 17.37 22.6444 17.0638C22.952 16.7575 23.344 16.549 23.7708 16.4645C24.1976 16.38 24.6399 16.4234 25.0419 16.5891C25.4439 16.7548 25.7875 17.0355 26.0292 17.3956C26.271 17.7557 26.4 18.179 26.4 18.6121C26.4 19.1928 26.1682 19.7498 25.7556 20.1604C25.3431 20.5711 24.7835 20.8018 24.2 20.8018ZM30.8 17.5173H28.4625C28.2173 16.5776 27.6658 15.7453 26.8944 15.151C26.1231 14.5566 25.1755 14.2337 24.2 14.2328V9.85346H30.8V17.5173Z" fill="#A09FA4"/>
</svg>
