<svg  viewBox="0 0 53 28" fill="none" xmlns="http://www.w3.org/2000/svg">
    <path d="M24.5427 8.86547C28.5963 10.5403 31.1648 12.6946 31.4358 15.4714L30.4541 14.1264C30.4541 14.1264 30.454 14.1264 30.454 14.1263C30.4539 14.1262 30.4539 14.1262 30.4538 14.1261C29.5668 12.9102 27.9993 12.3228 26.4669 11.9987C24.8752 11.6621 22.9988 11.5469 21.1456 11.5147C19.7821 11.4911 18.3822 11.5124 17.0817 11.5322C16.6135 11.5394 16.1583 11.5463 15.7222 11.5509C14.0262 11.5687 12.6672 11.549 11.7872 11.4059L10.3365 11.17V12.6397V14.9034L1.53087 8.28744L10.3522 1.67185V4.34275V5.40884L11.405 5.57709C15.2213 6.187 20.3688 7.14097 24.5427 8.86547ZM10.3365 15.7491C10.3365 15.7481 10.3365 15.7471 10.3365 15.7461L10.3365 15.7491Z" stroke="#A9A9A9" stroke-width="2.5"/>
    <path d="M27.7893 18.5686C23.7358 16.8938 21.1672 14.7395 20.8962 11.9627L21.8779 13.3076C21.878 13.3077 21.878 13.3077 21.878 13.3078C21.8781 13.3078 21.8781 13.3079 21.8782 13.308C22.7653 14.5239 24.3328 15.1113 25.8652 15.4354C27.4569 15.7719 29.3333 15.8872 31.1864 15.9194C32.5499 15.943 33.9499 15.9217 35.2504 15.9018C35.7185 15.8947 36.1738 15.8878 36.6098 15.8832C38.3058 15.8654 39.6648 15.8851 40.5449 16.0282L41.9955 16.2641V14.7944V12.5306L50.8012 19.1466L41.9798 25.7622V23.0913V22.0252L40.9271 21.857C37.1107 21.2471 31.9632 20.2931 27.7893 18.5686ZM41.9955 11.685C41.9955 11.686 41.9955 11.687 41.9955 11.6879L41.9955 11.685Z" stroke="#A9A9A9" stroke-width="2.5"/>
    <path d="M25.5111 24.7986C31.6204 24.7986 36.573 19.846 36.573 13.7367C36.573 7.62741 31.6204 2.67484 25.5111 2.67484C19.4018 2.67484 14.4492 7.62741 14.4492 13.7367C14.4492 19.846 19.4018 24.7986 25.5111 24.7986Z" fill="#150B53" stroke="#A9A9A9" stroke-width="2.5"/>
    <path d="M25.5111 5.56015C23.8939 5.56015 22.3131 6.0397 20.9684 6.93815C19.6238 7.83661 18.5758 9.11361 17.9569 10.6077C17.3381 12.1018 17.1761 13.7458 17.4916 15.3319C17.8071 16.918 18.5859 18.3749 19.7294 19.5184C20.8729 20.662 22.3298 21.4407 23.9159 21.7562C25.502 22.0717 27.1461 21.9098 28.6402 21.2909C30.1342 20.672 31.4112 19.624 32.3097 18.2794C33.2081 16.9348 33.6877 15.3539 33.6877 13.7367C33.6851 11.569 32.8228 9.49073 31.29 7.95788C29.7571 6.42504 27.6789 5.56275 25.5111 5.56015ZM25.5111 3.92484C27.4517 3.92484 29.3487 4.50029 30.9623 5.57844C32.5759 6.65658 33.8335 8.18899 34.5761 9.98188C35.3188 11.7748 35.5131 13.7476 35.1345 15.6509C34.7559 17.5543 33.8214 19.3026 32.4492 20.6748C31.0769 22.047 29.3286 22.9815 27.4253 23.3601C25.522 23.7387 23.5492 23.5444 21.7563 22.8017C19.9634 22.0591 18.431 20.8015 17.3528 19.1879C16.2747 17.5744 15.6992 15.6773 15.6992 13.7367C15.6992 11.1345 16.733 8.63876 18.5731 6.79867C20.4131 4.95859 22.9088 3.92484 25.5111 3.92484Z" fill="#150B53"/>
</svg>
