<svg viewBox="0 0 31 26" fill="none" xmlns="http://www.w3.org/2000/svg">
<path d="M8.53692 1.24545L8.53691 1.24546L4.62561 4.77788L3.1309 3.42717L3.13086 3.42714C2.88478 3.20498 2.55303 3.08169 2.20898 3.08169C1.86493 3.08169 1.53317 3.20498 1.28709 3.42714C1.04067 3.6496 0.9 3.95365 0.9 4.27313C0.9 4.59262 1.04067 4.89667 1.28709 5.11913L3.70366 7.30078C3.82556 7.41095 3.96977 7.49787 4.12783 7.55702C4.28588 7.61617 4.455 7.64652 4.62559 7.64652C4.79618 7.64652 4.96529 7.61617 5.12335 7.55702C5.2814 7.49787 5.42562 7.41095 5.54752 7.30078L10.3807 2.93745C10.6271 2.71498 10.7678 2.41093 10.7678 2.09145C10.7678 1.77197 10.6271 1.46792 10.3807 1.24545C10.1346 1.02329 9.80286 0.9 9.45881 0.9C9.11476 0.9 8.783 1.02329 8.53692 1.24545ZM8.53692 9.97219L8.53691 9.9722L4.62561 13.5046L3.1309 12.1539L3.13086 12.1539C2.88478 11.9317 2.55303 11.8084 2.20898 11.8084C1.86493 11.8084 1.53317 11.9317 1.28709 12.1539C1.04067 12.3763 0.9 12.6804 0.9 12.9999C0.9 13.1578 0.934481 13.314 1.00114 13.4593C1.06778 13.6045 1.16513 13.7358 1.28709 13.8459L3.70366 16.0275C3.82556 16.1377 3.96977 16.2246 4.12783 16.2838C4.28588 16.3429 4.455 16.3733 4.62559 16.3733C4.79618 16.3733 4.96529 16.3429 5.12335 16.2838C5.28139 16.2246 5.42559 16.1377 5.54747 16.0276C5.54749 16.0275 5.5475 16.0275 5.54752 16.0275L10.3807 11.6642C10.6271 11.4417 10.7678 11.1377 10.7678 10.8182C10.7678 10.4987 10.6271 10.1947 10.3807 9.97219C10.1346 9.75003 9.80286 9.62674 9.45881 9.62674C9.11476 9.62674 8.783 9.75003 8.53692 9.97219ZM8.53692 18.6989L8.53691 18.6989L4.62561 22.2314L3.1309 20.8806L3.13086 20.8806C3.00893 20.7705 2.8647 20.6837 2.70666 20.6246C2.54862 20.5655 2.37953 20.5352 2.20898 20.5352C2.03842 20.5352 1.86933 20.5655 1.71129 20.6246C1.55325 20.6837 1.40903 20.7705 1.28709 20.8806C1.16513 20.9907 1.06778 21.122 1.00114 21.2672C0.934481 21.4125 0.9 21.5686 0.9 21.7266C0.9 21.8846 0.934481 22.0407 1.00114 22.186C1.06778 22.3312 1.16513 22.4625 1.28709 22.5726L3.70366 24.7543C3.70367 24.7543 3.70369 24.7543 3.7037 24.7543C3.82559 24.8645 3.96979 24.9514 4.12783 25.0105C4.28588 25.0697 4.455 25.1 4.62559 25.1C4.79618 25.1 4.96529 25.0697 5.12335 25.0105C5.28139 24.9514 5.42559 24.8645 5.54747 24.7543C5.54749 24.7543 5.5475 24.7543 5.54752 24.7543L10.3807 20.3909C10.6271 20.1685 10.7678 19.8644 10.7678 19.5449C10.7678 19.2254 10.6271 18.9214 10.3807 18.6989C10.1346 18.4768 9.80286 18.3535 9.45881 18.3535C9.11476 18.3535 8.783 18.4768 8.53692 18.6989ZM29.7131 13.8454C29.9594 13.6231 30.1 13.3192 30.1 12.9999C30.1 12.6806 29.9594 12.3767 29.7131 12.1543C29.4672 11.9323 29.1356 11.809 28.7917 11.809H15.5003C15.1565 11.809 14.8249 11.9323 14.5789 12.1543C14.3326 12.3767 14.192 12.6806 14.192 12.9999C14.192 13.3192 14.3326 13.6231 14.5789 13.8454C14.8249 14.0675 15.1565 14.1907 15.5003 14.1907H28.7917C29.1356 14.1907 29.4672 14.0675 29.7131 13.8454ZM15.5003 5.46398H28.7917C29.1356 5.46398 29.4672 5.34075 29.7131 5.1187C29.9594 4.89635 30.1 4.59246 30.1 4.27313C30.1 3.95381 29.9594 3.64992 29.7131 3.42757C29.4672 3.20552 29.1356 3.08229 28.7917 3.08229H15.5003C15.1565 3.08229 14.8249 3.20552 14.5789 3.42757C14.3326 3.64992 14.192 3.95381 14.192 4.27313C14.192 4.59246 14.3326 4.89635 14.5789 5.1187C14.8249 5.34075 15.1565 5.46398 15.5003 5.46398ZM28.7917 20.5358H15.5003C15.1565 20.5358 14.8249 20.659 14.5789 20.881C14.3326 21.1034 14.192 21.4073 14.192 21.7266C14.192 22.0459 14.3326 22.3498 14.5789 22.5722C14.8249 22.7942 15.1565 22.9175 15.5003 22.9175H28.7917C29.1356 22.9175 29.4672 22.7942 29.7131 22.5722C29.9594 22.3498 30.1 22.0459 30.1 21.7266C30.1 21.4073 29.9594 21.1034 29.7131 20.881C29.4672 20.659 29.1356 20.5358 28.7917 20.5358Z" fill="white" stroke="white" stroke-width="0.2"/>
</svg>
