<svg width="30" height="29" viewBox="0 0 30 29" fill="none" xmlns="http://www.w3.org/2000/svg">
    <path d="M15 0C12.0333 0 9.13319 0.85041 6.66645 2.44369C4.19971 4.03697 2.27713 6.30156 1.14181 8.95109C0.00649927 11.6006 -0.290551 14.5161 0.288227 17.3288C0.867006 20.1415 2.29562 22.7252 4.3934 24.753C6.49119 26.7809 9.16393 28.1619 12.0736 28.7214C14.9834 29.2809 17.9994 28.9937 20.7403 27.8962C23.4811 26.7988 25.8238 24.9403 27.472 22.5558C29.1203 20.1712 30 17.3678 30 14.5C29.9958 10.6556 28.4141 6.96983 25.602 4.25143C22.7898 1.53304 18.977 0.00405975 15 0ZM7.22308 24.1899C8.0578 22.928 9.2077 21.8894 10.5668 21.1701C11.9259 20.4507 13.4505 20.0737 15 20.0737C16.5495 20.0737 18.0741 20.4507 19.4332 21.1701C20.7923 21.8894 21.9422 22.928 22.7769 24.1899C20.5534 25.8616 17.8169 26.7691 15 26.7691C12.1831 26.7691 9.44664 25.8616 7.22308 24.1899ZM10.3846 13.3846C10.3846 12.5022 10.6553 11.6396 11.1625 10.9059C11.6696 10.1722 12.3904 9.60037 13.2338 9.26269C14.0771 8.925 15.0051 8.83665 15.9004 9.0088C16.7957 9.18095 17.6181 9.60587 18.2636 10.2298C18.909 10.8538 19.3486 11.6488 19.5267 12.5142C19.7048 13.3797 19.6134 14.2767 19.2641 15.092C18.9147 15.9072 18.3232 16.604 17.5642 17.0942C16.8052 17.5845 15.9128 17.8461 15 17.8461C13.7759 17.8461 12.602 17.3761 11.7364 16.5394C10.8709 15.7027 10.3846 14.5679 10.3846 13.3846ZM24.4846 22.6437C23.1977 20.8411 21.3882 19.4465 19.2837 18.6353C20.4142 17.7745 21.2391 16.5947 21.6437 15.2597C22.0484 13.9247 22.0126 12.5011 21.5415 11.1867C21.0703 9.87227 20.1871 8.73246 19.0147 7.92577C17.8423 7.11907 16.4391 6.68558 15 6.68558C13.5609 6.68558 12.1577 7.11907 10.9853 7.92577C9.81291 8.73246 8.92972 9.87227 8.45854 11.1867C7.98736 12.5011 7.95161 13.9247 8.35626 15.2597C8.76091 16.5947 9.58585 17.7745 10.7164 18.6353C8.61176 19.4465 6.80226 20.8411 5.51539 22.6437C3.88929 20.876 2.82646 18.6917 2.45488 16.3536C2.0833 14.0156 2.41882 11.6235 3.42104 9.46557C4.42326 7.30759 6.04944 5.47567 8.10376 4.19041C10.1581 2.90515 12.553 2.22135 15 2.22135C17.447 2.22135 19.8419 2.90515 21.8962 4.19041C23.9506 5.47567 25.5767 7.30759 26.579 9.46557C27.5812 11.6235 27.9167 14.0156 27.5451 16.3536C27.1736 18.6917 26.1107 20.876 24.4846 22.6437Z" fill="white"/>
</svg>
