<svg width="35" height="35" viewBox="0 0 35 35" fill="none" xmlns="http://www.w3.org/2000/svg">
    <path d="M34.8972 16.9846C34.7954 16.7386 34.6229 16.5283 34.4016 16.3804C34.1802 16.2324 33.92 16.1534 33.6538 16.1534H26.9232V12.115C26.9232 11.758 26.7814 11.4156 26.529 11.1632C26.2765 10.9107 25.9341 10.7689 25.5771 10.7689H9.42382C9.06681 10.7689 8.72442 10.9107 8.47198 11.1632C8.21953 11.4156 8.07771 11.758 8.07771 12.115V16.1534H1.34717C1.08078 16.1531 0.820318 16.232 0.598756 16.3799C0.377195 16.5278 0.204497 16.7381 0.102526 16.9842C0.000555262 17.2303 -0.0261039 17.5011 0.0259237 17.7624C0.0779514 18.0236 0.206326 18.2636 0.394797 18.4518L16.5481 34.6052C16.6731 34.7304 16.8216 34.8297 16.985 34.8974C17.1484 34.9651 17.3236 35 17.5005 35C17.6774 35 17.8525 34.9651 18.016 34.8974C18.1794 34.8297 18.3278 34.7304 18.4528 34.6052L34.6062 18.4518C34.7943 18.2635 34.9225 18.0235 34.9743 17.7624C35.0261 17.5012 34.9993 17.2305 34.8972 16.9846ZM17.5005 31.7498L4.59634 18.8456H9.42382C9.78083 18.8456 10.1232 18.7038 10.3757 18.4513C10.6281 18.1989 10.7699 17.8565 10.7699 17.4995V13.4611H24.231V17.4995C24.231 17.8565 24.3728 18.1989 24.6253 18.4513C24.8777 18.7038 25.2201 18.8456 25.5771 18.8456H30.4046L17.5005 31.7498ZM8.07771 1.34611C8.07771 0.989102 8.21953 0.646713 8.47198 0.394268C8.72442 0.141823 9.06681 0 9.42382 0H25.5771C25.9341 0 26.2765 0.141823 26.529 0.394268C26.7814 0.646713 26.9232 0.989102 26.9232 1.34611C26.9232 1.70312 26.7814 2.04551 26.529 2.29796C26.2765 2.5504 25.9341 2.69223 25.5771 2.69223H9.42382C9.06681 2.69223 8.72442 2.5504 8.47198 2.29796C8.21953 2.04551 8.07771 1.70312 8.07771 1.34611ZM8.07771 6.73057C8.07771 6.37355 8.21953 6.03117 8.47198 5.77872C8.72442 5.52628 9.06681 5.38445 9.42382 5.38445H25.5771C25.9341 5.38445 26.2765 5.52628 26.529 5.77872C26.7814 6.03117 26.9232 6.37355 26.9232 6.73057C26.9232 7.08758 26.7814 7.42997 26.529 7.68241C26.2765 7.93486 25.9341 8.07668 25.5771 8.07668H9.42382C9.06681 8.07668 8.72442 7.93486 8.47198 7.68241C8.21953 7.42997 8.07771 7.08758 8.07771 6.73057Z" fill="#5F5F5F"/>
</svg>
