<svg width="20" height="20" viewBox="0 0 20 20" fill="none" xmlns="http://www.w3.org/2000/svg">
    <path d="M16.4166 14.0712L12.9017 11.0341C12.8012 10.9469 12.6848 10.8801 12.5588 10.8374L8.91737 9.60763V6.7645L10.6854 7.4672C10.8189 7.51983 10.9636 7.53803 11.1061 7.5201C11.2485 7.50217 11.3841 7.4487 11.5005 7.36461L14.0415 5.51931C14.1325 5.45342 14.2098 5.37024 14.2687 5.27452C14.3276 5.17879 14.3671 5.07239 14.3849 4.96139C14.4028 4.8504 14.3985 4.73699 14.3725 4.62763C14.3465 4.51826 14.2992 4.41509 14.2333 4.32401C14.1674 4.23293 14.0842 4.15573 13.9885 4.09679C13.8928 4.03786 13.7864 3.99836 13.6754 3.98054C13.5644 3.96273 13.451 3.96695 13.3416 3.99297C13.2323 4.01899 13.1291 4.06629 13.038 4.13218L10.8807 5.69358L8.86819 4.90233C8.81767 4.74242 8.73331 4.59527 8.62084 4.47088C8.26962 4.57846 7.89761 4.59964 7.53645 4.53259C7.17529 4.46555 6.83567 4.31228 6.54646 4.0858H5.9843C5.66872 4.08596 5.35532 4.13819 5.05674 4.2404L1.78778 5.36471C1.67139 5.4045 1.56494 5.46891 1.47569 5.55356C1.38644 5.6382 1.31649 5.74108 1.27059 5.8552L0.066159 8.82903C-0.0202609 9.03759 -0.0220822 9.27159 0.0610808 9.48147C0.144244 9.69134 0.305856 9.86059 0.511671 9.95335C0.616495 9.99878 0.729354 10.0228 0.843595 10.0239C0.957836 10.025 1.07115 10.0033 1.17685 9.95992C1.28255 9.91657 1.3785 9.8525 1.45905 9.77148C1.53959 9.69045 1.6031 9.59411 1.64583 9.48816L2.70691 6.85303L4.48052 6.2473V11.2744L6.30755 15.4358L5.20149 18.6022C5.15178 18.7309 5.12852 18.8684 5.1331 19.0063C5.13768 19.1443 5.17001 19.2799 5.22816 19.4051C5.2863 19.5302 5.36908 19.6424 5.47153 19.7349C5.57399 19.8274 5.69403 19.8982 5.82448 19.9433C5.95494 19.9883 6.09313 20.0067 6.23082 19.9971C6.36851 19.9876 6.50286 19.9504 6.62587 19.8878C6.74887 19.8252 6.858 19.7385 6.94674 19.6328C7.03548 19.5271 7.10201 19.4046 7.14235 19.2726L8.36224 15.7422C8.44361 15.5076 8.43711 15.2514 8.34397 15.0212L6.82614 11.2772H7.45014L11.7099 12.7206L15.073 15.6298C15.1742 15.7235 15.2931 15.7959 15.4228 15.8426C15.5525 15.8894 15.6902 15.9096 15.8279 15.902C15.9655 15.8944 16.1003 15.8592 16.224 15.7984C16.3478 15.7377 16.458 15.6526 16.5482 15.5484C16.6384 15.4441 16.7067 15.3228 16.749 15.1916C16.7914 15.0603 16.8068 14.922 16.7946 14.7847C16.7823 14.6473 16.7425 14.5139 16.6775 14.3923C16.6126 14.2707 16.5239 14.1634 16.4166 14.0768V14.0712Z" fill="#08135C"/>
    <path d="M19.0509 9.75421C18.9355 9.43055 18.7267 9.14839 18.4509 8.94343C18.1751 8.73848 17.8447 8.61993 17.5015 8.60278C17.1583 8.58564 16.8177 8.67066 16.5228 8.84711C16.228 9.02355 15.992 9.28349 15.8449 9.59403C15.6978 9.90458 15.6461 10.2518 15.6964 10.5917C15.7466 10.9316 15.8966 11.249 16.1272 11.5037C16.3579 11.7584 16.6589 11.939 16.9922 12.0226C17.3255 12.1062 17.6761 12.089 17.9997 11.9733C18.4333 11.8183 18.7875 11.4975 18.9846 11.0814C19.1818 10.6652 19.2056 10.1879 19.0509 9.75421ZM7.95529 4.02298C8.3102 4.02349 8.65674 3.91527 8.94829 3.71289C9.23985 3.51052 9.46243 3.22369 9.58606 2.89101C9.70969 2.55833 9.72845 2.19576 9.63982 1.8521C9.55118 1.50843 9.35941 1.20016 9.0903 0.968774C8.82119 0.737384 8.48766 0.593977 8.13459 0.557852C7.78153 0.521726 7.42587 0.594616 7.11547 0.766711C6.80508 0.938807 6.55484 1.20185 6.39845 1.52044C6.24205 1.83904 6.18701 2.19789 6.2407 2.54871C6.30376 2.95879 6.51138 3.33279 6.82608 3.60316C7.14078 3.87353 7.5404 4.02243 7.95529 4.02298Z" fill="#08135C"/>
</svg>
