<svg width="26" height="26" viewBox="0 0 26 26" fill="none" xmlns="http://www.w3.org/2000/svg">
    <path d="M9.41237 11.7657C13.7445 11.7657 17.2564 10.1853 17.2564 8.23586C17.2564 6.2864 13.7445 4.70605 9.41237 4.70605C5.08024 4.70605 1.56836 6.2864 1.56836 8.23586C1.56836 10.1853 5.08024 11.7657 9.41237 11.7657Z" stroke="black" stroke-width="2" stroke-linecap="round" stroke-linejoin="round"/>
    <path d="M1.56836 8.23633V12.1583C1.56836 14.1095 5.07855 15.6881 9.41237 15.6881C13.7462 15.6881 17.2564 14.1095 17.2564 12.1583V8.23633" stroke="black" stroke-width="2" stroke-linecap="round" stroke-linejoin="round"/>
    <path d="M6.27539 11.4727V15.3947" stroke="black" stroke-width="2" stroke-linecap="round" stroke-linejoin="round"/>
    <path d="M17.2571 9.48145C20.8359 9.81482 23.5323 11.2365 23.5323 12.9426C23.5323 14.8938 20.0221 16.4724 15.6883 16.4724C13.7665 16.4724 12.0016 16.1587 10.6387 15.6488" stroke="black" stroke-width="2" stroke-linecap="round" stroke-linejoin="round"/>
    <path d="M7.84375 15.6201V16.8654C7.84375 18.8166 11.3539 20.3952 15.6878 20.3952C20.0216 20.3952 23.5318 18.8166 23.5318 16.8654V12.9434" stroke="black" stroke-width="2" stroke-linecap="round" stroke-linejoin="round"/>
    <path d="M18.8242 16.1787V20.1007" stroke="black" stroke-width="2" stroke-linecap="round" stroke-linejoin="round"/>
    <path d="M12.5508 11.4727V20.1011" stroke="black" stroke-width="2" stroke-linecap="round" stroke-linejoin="round"/>
</svg>
