<svg width="118" height="21" viewBox="0 0 118 21" fill="none" xmlns="http://www.w3.org/2000/svg">
    <path d="M21.4503 9.56567L17.0239 13.3928L18.3498 19.0907C18.42 19.3886 18.4 19.7003 18.2923 19.987C18.1846 20.2736 17.994 20.5225 17.7443 20.7024C17.4946 20.8823 17.1969 20.9853 16.8884 20.9985C16.58 21.0118 16.2744 20.9346 16.01 20.7767L10.9936 17.7625L5.98805 20.7767C5.72361 20.9346 5.41806 21.0118 5.1096 20.9985C4.80114 20.9853 4.50345 20.8823 4.25377 20.7024C4.00408 20.5225 3.81347 20.2736 3.70576 19.987C3.59805 19.7003 3.57803 19.3886 3.6482 19.0907L4.97222 13.3986L0.544745 9.56567C0.310572 9.36559 0.14124 9.10146 0.0579842 8.80642C-0.0252714 8.51137 -0.0187445 8.19855 0.0767463 7.90716C0.172237 7.61578 0.352441 7.35881 0.59476 7.16848C0.837079 6.97816 1.13073 6.86294 1.43888 6.83729L7.27478 6.33653L9.5528 0.95367C9.67176 0.671221 9.87242 0.429956 10.1295 0.260254C10.3866 0.090552 10.6886 0 10.9975 0C11.3065 0 11.6085 0.090552 11.8656 0.260254C12.1227 0.429956 12.3233 0.671221 12.4423 0.95367L14.7272 6.33653L20.5611 6.83729C20.8693 6.86294 21.1629 6.97816 21.4052 7.16848C21.6476 7.35881 21.8278 7.61578 21.9233 7.90716C22.0187 8.19855 22.0253 8.51137 21.942 8.80642C21.8588 9.10146 21.6894 9.36559 21.4553 9.56567H21.4503Z" fill="#FFCE00"/>
    <path d="M45.4503 9.56567L41.0239 13.3928L42.3498 19.0907C42.42 19.3886 42.4 19.7003 42.2923 19.987C42.1846 20.2736 41.994 20.5225 41.7443 20.7024C41.4946 20.8823 41.1969 20.9853 40.8884 20.9985C40.58 21.0118 40.2744 20.9346 40.01 20.7767L34.9936 17.7625L29.9881 20.7767C29.7236 20.9346 29.4181 21.0118 29.1096 20.9985C28.8011 20.9853 28.5035 20.8823 28.2538 20.7024C28.0041 20.5225 27.8135 20.2736 27.7058 19.987C27.5981 19.7003 27.578 19.3886 27.6482 19.0907L28.9722 13.3986L24.5447 9.56567C24.3106 9.36559 24.1412 9.10146 24.058 8.80642C23.9747 8.51137 23.9813 8.19855 24.0767 7.90716C24.1722 7.61578 24.3524 7.35881 24.5948 7.16848C24.8371 6.97816 25.1307 6.86294 25.4389 6.83729L31.2748 6.33653L33.5528 0.95367C33.6718 0.671221 33.8724 0.429956 34.1295 0.260254C34.3866 0.090552 34.6886 0 34.9975 0C35.3065 0 35.6085 0.090552 35.8656 0.260254C36.1227 0.429956 36.3233 0.671221 36.4423 0.95367L38.7272 6.33653L44.5611 6.83729C44.8693 6.86294 45.1629 6.97816 45.4052 7.16848C45.6476 7.35881 45.8278 7.61578 45.9233 7.90716C46.0187 8.19855 46.0253 8.51137 45.942 8.80642C45.8588 9.10146 45.6894 9.36559 45.4553 9.56567H45.4503Z" fill="#FFCE00"/>
    <path d="M69.4503 9.56567L65.0239 13.3928L66.3498 19.0907C66.42 19.3886 66.4 19.7003 66.2923 19.987C66.1846 20.2736 65.994 20.5225 65.7443 20.7024C65.4946 20.8823 65.1969 20.9853 64.8884 20.9985C64.58 21.0118 64.2744 20.9346 64.01 20.7767L58.9936 17.7625L53.9881 20.7767C53.7236 20.9346 53.4181 21.0118 53.1096 20.9985C52.8011 20.9853 52.5035 20.8823 52.2538 20.7024C52.0041 20.5225 51.8135 20.2736 51.7058 19.987C51.5981 19.7003 51.578 19.3886 51.6482 19.0907L52.9722 13.3986L48.5447 9.56567C48.3106 9.36559 48.1412 9.10146 48.058 8.80642C47.9747 8.51137 47.9813 8.19855 48.0767 7.90716C48.1722 7.61578 48.3524 7.35881 48.5948 7.16848C48.8371 6.97816 49.1307 6.86294 49.4389 6.83729L55.2748 6.33653L57.5528 0.95367C57.6718 0.671221 57.8724 0.429956 58.1295 0.260254C58.3866 0.090552 58.6886 0 58.9975 0C59.3065 0 59.6085 0.090552 59.8656 0.260254C60.1227 0.429956 60.3233 0.671221 60.4423 0.95367L62.7272 6.33653L68.5611 6.83729C68.8693 6.86294 69.1629 6.97816 69.4052 7.16848C69.6476 7.35881 69.8278 7.61578 69.9233 7.90716C70.0187 8.19855 70.0253 8.51137 69.942 8.80642C69.8588 9.10146 69.6894 9.36559 69.4553 9.56567H69.4503Z" fill="#FFCE00"/>
    <path d="M93.4503 9.56567L89.0239 13.3928L90.3498 19.0907C90.42 19.3886 90.4 19.7003 90.2923 19.987C90.1846 20.2736 89.994 20.5225 89.7443 20.7024C89.4946 20.8823 89.1969 20.9853 88.8884 20.9985C88.58 21.0118 88.2744 20.9346 88.01 20.7767L82.9936 17.7625L77.9881 20.7767C77.7236 20.9346 77.4181 21.0118 77.1096 20.9985C76.8011 20.9853 76.5035 20.8823 76.2538 20.7024C76.0041 20.5225 75.8135 20.2736 75.7058 19.987C75.5981 19.7003 75.578 19.3886 75.6482 19.0907L76.9722 13.3986L72.5447 9.56567C72.3106 9.36559 72.1412 9.10146 72.058 8.80642C71.9747 8.51137 71.9813 8.19855 72.0767 7.90716C72.1722 7.61578 72.3524 7.35881 72.5948 7.16848C72.8371 6.97816 73.1307 6.86294 73.4389 6.83729L79.2748 6.33653L81.5528 0.95367C81.6718 0.671221 81.8724 0.429956 82.1295 0.260254C82.3866 0.090552 82.6886 0 82.9975 0C83.3065 0 83.6085 0.090552 83.8656 0.260254C84.1227 0.429956 84.3233 0.671221 84.4423 0.95367L86.7272 6.33653L92.5611 6.83729C92.8693 6.86294 93.1629 6.97816 93.4052 7.16848C93.6476 7.35881 93.8278 7.61578 93.9233 7.90716C94.0187 8.19855 94.0253 8.51137 93.942 8.80642C93.8588 9.10146 93.6894 9.36559 93.4553 9.56567H93.4503Z" fill="#FFCE00"/>
    <path d="M117.45 9.56567L113.024 13.3928L114.35 19.0907C114.42 19.3886 114.4 19.7003 114.292 19.987C114.185 20.2736 113.994 20.5225 113.744 20.7024C113.495 20.8823 113.197 20.9853 112.888 20.9985C112.58 21.0118 112.274 20.9346 112.01 20.7767L106.994 17.7625L101.988 20.7767C101.724 20.9346 101.418 21.0118 101.11 20.9985C100.801 20.9853 100.503 20.8823 100.254 20.7024C100.004 20.5225 99.8135 20.2736 99.7058 19.987C99.5981 19.7003 99.578 19.3886 99.6482 19.0907L100.972 13.3986L96.5447 9.56567C96.3106 9.36559 96.1412 9.10146 96.058 8.80642C95.9747 8.51137 95.9813 8.19855 96.0767 7.90716C96.1722 7.61578 96.3524 7.35881 96.5948 7.16848C96.8371 6.97816 97.1307 6.86294 97.4389 6.83729L103.275 6.33653L105.553 0.95367C105.672 0.671221 105.872 0.429956 106.13 0.260254C106.387 0.090552 106.689 0 106.998 0C107.306 0 107.608 0.090552 107.866 0.260254C108.123 0.429956 108.323 0.671221 108.442 0.95367L110.727 6.33653L116.561 6.83729C116.869 6.86294 117.163 6.97816 117.405 7.16848C117.648 7.35881 117.828 7.61578 117.923 7.90716C118.019 8.19855 118.025 8.51137 117.942 8.80642C117.859 9.10146 117.689 9.36559 117.455 9.56567H117.45Z" fill="#FFCE00"/>
</svg>