<svg width="60" height="62" viewBox="0 0 60 62" fill="none" xmlns="http://www.w3.org/2000/svg">
<path d="M26.166 52.0833C26.166 52.5917 25.9641 53.0792 25.6047 53.4386C25.2452 53.7981 24.7578 54 24.2494 54H10.8332C9.81658 54 8.84159 53.5961 8.12272 52.8772C7.40385 52.1584 7 51.1833 7 50.1667V11.8333C7 10.8167 7.40385 9.84165 8.12272 9.12276C8.84159 8.40387 9.81658 8 10.8332 8H24.2494C24.7578 8 25.2452 8.20193 25.6047 8.56138C25.9641 8.92082 26.166 9.40834 26.166 9.91667C26.166 10.425 25.9641 10.9125 25.6047 11.272C25.2452 11.6314 24.7578 11.8333 24.2494 11.8333H10.8332V50.1667H24.2494C24.7578 50.1667 25.2452 50.3686 25.6047 50.728C25.9641 51.0875 26.166 51.575 26.166 52.0833ZM52.4379 29.644L42.8549 20.0606C42.5868 19.7923 42.2452 19.6095 41.8732 19.5354C41.5012 19.4613 41.1156 19.4993 40.7652 19.6445C40.4148 19.7897 40.1154 20.0356 39.9048 20.351C39.6942 20.6665 39.582 21.0374 39.5823 21.4167V29.0833H24.2494C23.7411 29.0833 23.2536 29.2853 22.8942 29.6447C22.5348 30.0042 22.3328 30.4917 22.3328 31C22.3328 31.5083 22.5348 31.9958 22.8942 32.3553C23.2536 32.7147 23.7411 32.9167 24.2494 32.9167H39.5823V40.5833C39.582 40.9626 39.6942 41.3335 39.9048 41.649C40.1154 41.9644 40.4148 42.2103 40.7652 42.3555C41.1156 42.5007 41.5012 42.5387 41.8732 42.4646C42.2452 42.3905 42.5868 42.2077 42.8549 41.9394L52.4379 32.356C52.6161 32.178 52.7575 31.9666 52.8539 31.734C52.9504 31.5013 53 31.2519 53 31C53 30.7481 52.9504 30.4987 52.8539 30.266C52.7575 30.0334 52.6161 29.822 52.4379 29.644Z" fill="white" stroke="white"/>
</svg>
