<svg width="71" height="32" viewBox="0 0 71 32" fill="none" xmlns="http://www.w3.org/2000/svg">
<path d="M38 22.8434V10.1566H43.5608C44.2618 10.1566 44.8975 10.2494 45.4679 10.4351C46.0501 10.6207 46.5432 10.8934 46.9472 11.253C47.3512 11.6011 47.6601 12.0361 47.874 12.5582C48.0997 13.0687 48.2126 13.6546 48.2126 14.3159C48.2126 15.1513 48.0284 15.888 47.6601 16.5261C47.2918 17.1526 46.763 17.6457 46.0738 18.0054C45.3847 18.3534 44.547 18.5274 43.5608 18.5274L40.5309 18.51V16.4043L43.0974 16.4217C43.5133 16.4217 43.8935 16.3637 44.2381 16.2477C44.5826 16.12 44.8619 15.9112 45.0758 15.6212C45.2896 15.3311 45.3966 14.9308 45.3966 14.4203C45.3966 13.9215 45.2837 13.527 45.0579 13.2369C44.8441 12.9469 44.5648 12.7439 44.2202 12.6278C43.8875 12.5118 43.5133 12.4538 43.0974 12.4538H40.4239L40.7804 12.0884V22.8434H38Z" fill="#E16C00"/>
<path d="M55.9402 23C54.9658 23 54.0806 22.855 53.2845 22.5649C52.4884 22.2749 51.7993 21.8514 51.217 21.2945C50.6348 20.7376 50.1893 20.0589 49.8803 19.2584C49.5714 18.4462 49.4169 17.5239 49.4169 16.4913C49.4169 15.4703 49.5714 14.5596 49.8803 13.759C50.1893 12.9469 50.6348 12.2624 51.217 11.7055C51.7993 11.1486 52.4884 10.7251 53.2845 10.4351C54.0806 10.145 54.9658 10 55.9402 10C57.0571 10 58.0492 10.1914 58.9166 10.5743C59.784 10.9456 60.485 11.4676 61.0197 12.1406C61.5544 12.8135 61.8812 13.6082 62 14.5248H59.184C59.077 14.0839 58.875 13.701 58.578 13.3762C58.2809 13.0397 57.9066 12.7787 57.4551 12.593C57.0155 12.4074 56.5105 12.3146 55.9402 12.3146C55.1916 12.3146 54.544 12.4712 53.9974 12.7845C53.4509 13.0861 53.0291 13.5502 52.732 14.1767C52.435 14.7916 52.2864 15.5631 52.2864 16.4913C52.2864 17.199 52.3696 17.8139 52.536 18.336C52.7142 18.8581 52.9578 19.2932 53.2667 19.6412C53.5875 19.9893 53.9737 20.2503 54.4252 20.4244C54.8767 20.5984 55.3817 20.6854 55.9402 20.6854C56.4986 20.6854 57.0036 20.5926 57.4551 20.407C57.9066 20.2213 58.2809 19.9603 58.578 19.6238C58.8869 19.2874 59.0889 18.8987 59.184 18.4578H62C61.8931 19.3744 61.5663 20.1749 61.0197 20.8594C60.4732 21.5324 59.7662 22.0602 58.8988 22.4431C58.0314 22.8144 57.0452 23 55.9402 23Z" fill="#E16C00"/>
<path d="M27.8017 8H24.4707C23.8088 8.00024 23.1741 8.25428 22.7062 8.70628C22.2383 9.15828 21.9754 9.77122 21.9754 10.4103H7.82839C7.60869 10.4103 7.39798 10.4946 7.24263 10.6446C7.08728 10.7946 7 10.9981 7 11.2102V20.8533C7 21.0654 7.08728 21.2689 7.24263 21.4189C7.39798 21.5689 7.60869 21.6531 7.82839 21.6531H12.8236V22.453H11.9952C11.7745 22.453 11.5629 22.5377 11.4068 22.6884C11.2508 22.839 11.1631 23.0434 11.1631 23.2565C11.1631 23.4696 11.2508 23.6739 11.4068 23.8246C11.5629 23.9753 11.7745 24.0599 11.9952 24.0599H18.6508C18.8715 24.0599 19.0831 23.9753 19.2392 23.8246C19.3952 23.6739 19.4829 23.4696 19.4829 23.2565C19.4829 23.0434 19.3952 22.839 19.2392 22.6884C19.0831 22.5377 18.8715 22.453 18.6508 22.453H17.8224V21.6531H21.9754V23.26C21.9754 23.4722 22.0627 23.6756 22.218 23.8256C22.3734 23.9756 22.5841 24.0599 22.8038 24.0599H29.4585C29.6782 24.0599 29.8889 23.9756 30.0442 23.8256C30.1996 23.6756 30.2869 23.4722 30.2869 23.26V10.4103C30.2869 9.77291 30.0254 9.16144 29.5597 8.70973C29.0939 8.25801 28.4618 8.00282 27.8017 8ZM16.1518 22.4601H14.4877V21.6603H16.1518V22.4601ZM8.66414 20.0498V12.0163H21.9754V20.0498H8.66414ZM28.6301 22.4601H23.6395V10.4103C23.6395 10.1982 23.7268 9.99472 23.8822 9.84472C24.0375 9.69471 24.2482 9.61044 24.4679 9.61044H27.8017C28.0214 9.61044 28.2321 9.69471 28.3875 9.84472C28.5428 9.99472 28.6301 10.1982 28.6301 10.4103V22.4601Z" fill="#E16C00"/>
<path d="M26.2372 19.2486C26.0713 19.2486 25.9092 19.2955 25.7712 19.3834C25.6333 19.4713 25.5258 19.5962 25.4624 19.7423C25.3989 19.8884 25.3823 20.0492 25.4146 20.2044C25.447 20.3595 25.5269 20.502 25.6442 20.6138C25.7614 20.7257 25.9109 20.8018 26.0736 20.8327C26.2362 20.8635 26.4049 20.8477 26.5581 20.7872C26.7113 20.7267 26.8423 20.6242 26.9345 20.4926C27.0266 20.3611 27.0758 20.2065 27.0758 20.0483C27.0758 19.8362 26.9874 19.6328 26.8302 19.4829C26.6729 19.3329 26.4596 19.2486 26.2372 19.2486ZM18.9009 13.8603L15.5315 17.0725C15.449 17.1466 15.3829 17.2357 15.3372 17.3345C15.2914 17.4334 15.267 17.54 15.2653 17.648C15.2636 17.756 15.2847 17.8633 15.3273 17.9634C15.3699 18.0635 15.4331 18.1544 15.5133 18.2308C15.5934 18.3072 15.6888 18.3674 15.7939 18.4079C15.8989 18.4485 16.0114 18.4685 16.1246 18.4668C16.2379 18.4651 16.3497 18.4417 16.4533 18.398C16.557 18.3544 16.6503 18.2913 16.7279 18.2126L20.0974 15.0004C20.248 14.8476 20.3302 14.6449 20.3268 14.4352C20.3233 14.2255 20.2344 14.0254 20.0788 13.8772C19.9233 13.7289 19.7133 13.6443 19.4935 13.6412C19.2736 13.638 19.0611 13.7166 18.9009 13.8603ZM15.0432 13.8603C14.9651 13.7846 14.872 13.7244 14.7693 13.6833C14.6666 13.6423 14.5563 13.6211 14.445 13.6211C14.3336 13.6211 14.2233 13.6423 14.1206 13.6833C14.0179 13.7244 13.9248 13.7846 13.8467 13.8603L10.4791 17.0725C10.3966 17.1466 10.3305 17.2357 10.2848 17.3345C10.2391 17.4334 10.2147 17.54 10.213 17.648C10.2113 17.756 10.2324 17.8633 10.275 17.9634C10.3175 18.0635 10.3808 18.1544 10.4609 18.2308C10.5411 18.3072 10.6365 18.3674 10.7415 18.4079C10.8465 18.4485 10.959 18.4685 11.0723 18.4668C11.1856 18.4651 11.2974 18.4417 11.401 18.398C11.5046 18.3544 11.598 18.2913 11.6756 18.2126L15.045 15.0004C15.1244 14.926 15.1873 14.8372 15.2303 14.7394C15.2733 14.6415 15.2955 14.5365 15.2955 14.4304C15.2955 14.3243 15.2733 14.2192 15.2303 14.1214C15.1873 14.0235 15.1244 13.9348 15.045 13.8603H15.0432Z" fill="#E16C00"/>
</svg>
