<svg width="111" height="32" viewBox="0 0 111 32" fill="none" xmlns="http://www.w3.org/2000/svg">
<path d="M53.6043 13.2599H48.89C48.6235 13.2308 48.3539 13.2603 48.1 13.3462C47.8461 13.4322 47.614 13.5726 47.4199 13.7575C47.2258 13.9425 47.0744 14.1676 46.9762 14.4172C46.8781 14.6668 46.8355 14.9348 46.8515 15.2025V18.5429C46.8515 19.2228 46.5279 19.7117 45.8485 19.7117H41.4081C41.3947 19.7117 41.3818 19.717 41.3723 19.7266C41.3628 19.7361 41.3574 19.749 41.3574 19.7624V20.4337C41.3574 20.4472 41.3628 20.4601 41.3723 20.4696C41.3818 20.4791 41.3947 20.4845 41.4081 20.4845H46.3565C46.6231 20.5137 46.8928 20.4843 47.1469 20.3984C47.401 20.3126 47.6332 20.1722 47.8275 19.9873C48.0218 19.8023 48.1735 19.5771 48.2718 19.3275C48.3702 19.0778 48.4129 18.8097 48.3971 18.5418V15.2025C48.3971 14.5205 48.7206 14.0315 49.3979 14.0315H53.6043C53.6109 14.0315 53.6175 14.0302 53.6236 14.0277C53.6298 14.0251 53.6354 14.0214 53.6401 14.0167C53.6448 14.012 53.6485 14.0064 53.6511 14.0002C53.6536 13.9941 53.6549 13.9875 53.6549 13.9808V13.3117C53.6549 13.2982 53.6496 13.2853 53.6401 13.2758C53.6306 13.2663 53.6177 13.2599 53.6043 13.2599Z" fill="#1349C3"/>
<path d="M39.6667 13.262H31.1279C31.1144 13.262 31.1015 13.2673 31.092 13.2769C31.0825 13.2864 31.0772 13.2993 31.0772 13.3127V13.984C31.0777 13.9977 31.0835 14.0106 31.0934 14.02C31.1033 14.0295 31.1164 14.0348 31.13 14.0348H39.1544C39.8338 14.0348 40.1552 14.5237 40.1552 15.2036C40.1552 15.8835 39.8317 16.3746 39.1544 16.3746H32.8028C32.5615 16.3832 32.3244 16.4405 32.1058 16.543C31.8871 16.6455 31.6913 16.791 31.5302 16.971C31.3691 17.151 31.2459 17.3616 31.1681 17.5904C31.0902 17.8191 31.0593 18.0612 31.0772 18.3022V20.4326C31.0769 20.4394 31.078 20.4461 31.0804 20.4524C31.0829 20.4587 31.0866 20.4644 31.0913 20.4692C31.0961 20.4739 31.1018 20.4777 31.1081 20.4801C31.1144 20.4825 31.1211 20.4837 31.1279 20.4833H32.5731C32.5866 20.4833 32.5995 20.478 32.609 20.4685C32.6185 20.459 32.6238 20.4461 32.6238 20.4326V18.3011C32.6238 17.6211 33.0175 17.1441 33.5783 17.1441H39.6634C39.9299 17.1732 40.1995 17.1437 40.4534 17.0577C40.7073 16.9718 40.9394 16.8314 41.1335 16.6464C41.3276 16.4615 41.479 16.2363 41.5772 15.9868C41.6753 15.7372 41.7179 15.4692 41.7019 15.2014C41.7177 14.9337 41.675 14.6658 41.5768 14.4163C41.4785 14.1669 41.3271 13.9418 41.1331 13.7569C40.939 13.5719 40.707 13.4316 40.4532 13.3455C40.1994 13.2595 39.9299 13.2299 39.6634 13.2588" fill="#1349C3"/>
<path d="M64.8217 18.9405H63.3765C63.3628 18.9406 63.3497 18.9353 63.3399 18.9258C63.33 18.9164 63.3242 18.9035 63.3236 18.8898V14.0331C63.3236 13.2852 62.807 13.0424 62.0812 13.4935L53.3709 18.8456C53.0279 19.0614 52.9136 19.2924 52.9966 19.4683C53.0797 19.6442 53.2544 19.7241 53.6319 19.7241H61.7134C61.7239 19.7252 61.7339 19.7294 61.7422 19.7361C61.7504 19.7428 61.7565 19.7518 61.7598 19.7619V20.444C61.7598 20.4576 61.765 20.4708 61.7745 20.4806C61.7839 20.4905 61.7968 20.4963 61.8105 20.4968H63.2622C63.2758 20.4963 63.2887 20.4905 63.2982 20.4806C63.3076 20.4708 63.3129 20.4576 63.3128 20.444V19.7705C63.3128 19.7568 63.3181 19.7437 63.3276 19.7338C63.337 19.724 63.3499 19.7182 63.3636 19.7176H64.8217C64.8354 19.7176 64.8485 19.7124 64.8584 19.7029C64.8682 19.6934 64.874 19.6805 64.8746 19.6669V18.9977C64.874 18.9841 64.8682 18.9712 64.8584 18.9617C64.8485 18.9523 64.8354 18.947 64.8217 18.947M61.7716 18.892C61.7716 18.9056 61.7664 18.9188 61.7569 18.9286C61.7475 18.9385 61.7346 18.9443 61.7209 18.9449H54.9477C54.8927 18.9449 54.8646 18.9298 54.8571 18.9114C54.8495 18.8931 54.8571 18.8564 54.9078 18.8283L61.6476 14.6742C61.694 14.6451 61.7727 14.6505 61.7727 14.7422L61.7716 18.892Z" fill="#1349C3"/>
<path d="M92.1446 13.0672C91.8663 13.036 91.5846 13.0659 91.3191 13.1548C91.0537 13.2438 90.8108 13.3897 90.6074 13.5822C90.4041 13.7748 90.2452 14.0095 90.1418 14.2699C90.0385 14.5302 89.9932 14.81 90.009 15.0897V18.2628C90.0206 18.4288 89.9989 18.5954 89.9452 18.7529C89.8915 18.9104 89.8069 19.0556 89.6964 19.18C89.5859 19.3043 89.4517 19.4053 89.3017 19.4771C89.1516 19.5488 88.9888 19.5899 88.8226 19.5978H85.1135C85.0995 19.5978 85.0861 19.6034 85.0762 19.6133C85.0663 19.6232 85.0607 19.6367 85.0607 19.6507V20.3501C85.0607 20.3641 85.0663 20.3775 85.0762 20.3875C85.0861 20.3974 85.0995 20.403 85.1135 20.403H89.4859C90.9204 20.403 91.6236 19.6475 91.6236 18.5078V15.0897C91.6191 14.9274 91.6479 14.7659 91.7082 14.6152C91.7685 14.4645 91.8591 14.3277 91.9743 14.2134C92.0896 14.0991 92.227 14.0097 92.3782 13.9506C92.5293 13.8916 92.691 13.8642 92.8532 13.8702H96.5827C96.5897 13.8702 96.5965 13.8688 96.603 13.8662C96.6094 13.8635 96.6152 13.8596 96.6201 13.8547C96.625 13.8498 96.6289 13.844 96.6316 13.8375C96.6342 13.8311 96.6356 13.8242 96.6356 13.8173V13.1201C96.6356 13.1132 96.6342 13.1063 96.6316 13.0999C96.6289 13.0934 96.625 13.0876 96.6201 13.0827C96.6152 13.0778 96.6094 13.0739 96.603 13.0712C96.5965 13.0686 96.5897 13.0672 96.5827 13.0672H92.1446ZM83.4375 13.0327H74.8146C74.8005 13.0327 74.7871 13.0382 74.7772 13.0482C74.7673 13.0581 74.7617 13.0715 74.7617 13.0856V13.8475C74.7623 13.8617 74.7683 13.8752 74.7786 13.8851C74.7888 13.8949 74.8025 13.9004 74.8167 13.9004H82.9058C83.0509 13.9058 83.1934 13.9401 83.3251 14.0013C83.4567 14.0626 83.5748 14.1496 83.6724 14.2572C83.7699 14.3648 83.845 14.4908 83.8932 14.6278C83.9414 14.7649 83.9618 14.9102 83.953 15.0552C83.9597 15.3457 83.8548 15.6276 83.66 15.8431C83.4652 16.0585 83.1953 16.191 82.9058 16.2133H76.5737C76.3175 16.2279 76.0668 16.2934 75.8363 16.4062C75.6057 16.5189 75.4 16.6765 75.2311 16.8698C75.0621 17.063 74.9334 17.2881 74.8525 17.5317C74.7715 17.7753 74.7399 18.0327 74.7596 18.2887V20.3835C74.7593 20.3906 74.7604 20.3976 74.763 20.4041C74.7655 20.4107 74.7694 20.4166 74.7744 20.4216C74.7793 20.4266 74.7853 20.4305 74.7918 20.433C74.7984 20.4356 74.8054 20.4367 74.8124 20.4364H76.3224C76.3364 20.4364 76.3498 20.4308 76.3597 20.4209C76.3696 20.411 76.3752 20.3976 76.3752 20.3835V18.2811C76.3619 17.9674 76.4718 17.661 76.6814 17.4274C76.8911 17.1938 77.1838 17.0517 77.4969 17.0313L83.4289 17.0767C83.7076 17.1085 83.9899 17.0789 84.256 16.99C84.5221 16.9011 84.7655 16.755 84.9692 16.562C85.1729 16.3689 85.3319 16.1337 85.4351 15.8726C85.5383 15.6116 85.5831 15.3311 85.5665 15.0509C85.5824 14.7714 85.5371 14.4918 85.4338 14.2316C85.3306 13.9714 85.1719 13.7368 84.9688 13.5443C84.7657 13.3517 84.5231 13.2058 84.2579 13.1167C83.9927 13.0276 83.7112 12.9975 83.4332 13.0284" fill="#1349C3"/>
<path fill-rule="evenodd" clip-rule="evenodd" d="M98.2476 13.0664H108.589C108.638 13.0664 108.662 13.0855 108.662 13.1236V13.8327C108.662 13.8672 108.638 13.8827 108.589 13.8791H99.8309C99.7835 13.8791 99.7533 13.8953 99.7414 13.9277V15.6394C99.7435 15.78 99.7996 15.9144 99.8979 16.0148C99.9963 16.1153 100.129 16.174 100.27 16.179H106.849C107.129 16.1732 107.406 16.2236 107.666 16.3271C107.926 16.4306 108.162 16.5852 108.361 16.7817C108.561 16.9782 108.718 17.2126 108.825 17.4711C108.932 17.7296 108.986 18.007 108.984 18.2868C108.986 18.8238 108.784 19.3415 108.42 19.7355C108.055 20.1294 107.555 20.3704 107.019 20.4097H98.253C98.2099 20.4097 98.1894 20.4032 98.1894 20.3503C98.1894 20.2975 98.1894 19.6834 98.1894 19.6499C98.1894 19.6164 98.2034 19.5992 98.253 19.5992H105.988C106.343 19.6025 106.686 19.4674 106.943 19.2224C107.2 18.9774 107.352 18.6418 107.366 18.2868C107.357 17.968 107.231 17.6635 107.012 17.4316C106.794 17.1998 106.497 17.057 106.179 17.0305H99.2345C99.0936 17.0266 98.9551 16.9934 98.8277 16.933C98.7003 16.8726 98.5869 16.7864 98.4946 16.6798C98.3823 16.5656 98.2971 16.4278 98.2452 16.2763C98.1934 16.1248 98.1761 15.9635 98.1948 15.8045V13.1279C98.184 13.0858 98.2056 13.0664 98.2476 13.0664Z" fill="#1349C3"/>
<path d="M69.9258 11.5234V21.984" stroke="#1349C3" stroke-linecap="round"/>
<path d="M9.49609 8V22.5992L12.8035 23.6481V11.399C12.8035 10.8338 13.0588 10.4434 13.4722 10.5755C14.0128 10.725 14.1176 11.2553 14.1176 11.8253V16.7199C16.1789 17.7153 17.7987 16.7199 17.7987 14.0978C17.7987 11.4058 16.8524 10.2132 14.0603 9.2586C12.5649 8.75003 11.0408 8.32977 9.49609 8Z" fill="#1349C3"/>
<path d="M13.5272 21.4807L18.8533 19.5733C19.4569 19.3568 19.5501 19.047 19.06 18.8877C18.4023 18.7348 17.7149 18.7702 17.0763 18.9897L13.5272 20.2425V18.2497L13.731 18.1817C14.5335 17.9204 15.3609 17.743 16.1999 17.6524C17.7525 17.4934 19.321 17.6811 20.7923 18.2021C22.3538 18.7003 22.5295 19.4286 22.1335 19.9327C21.7449 20.3139 21.2775 20.6053 20.7642 20.7863L13.5272 23.4084V21.4807ZM3.5146 21.3204C1.92104 20.8679 1.6561 19.9249 2.38785 19.3781C2.95217 19.0081 3.56181 18.7123 4.20171 18.4983L8.91831 16.79V18.7207L5.53905 19.9511C4.93928 20.1677 4.84903 20.4746 5.33331 20.6377C5.98684 20.7906 6.6703 20.7549 7.30438 20.5348L8.9319 19.9365V21.6846L8.60776 21.7361C6.90978 22.0144 5.16954 21.8727 3.53886 21.3233" fill="#1349C3"/>
</svg>
