<svg width="14" height="24" viewBox="0 0 14 24" fill="none" xmlns="http://www.w3.org/2000/svg">
    <path d="M4.70598 11.826L13.0746 20.286C13.2557 20.4691 13.3993 20.6865 13.4973 20.9257C13.5953 21.165 13.6458 21.4214 13.6458 21.6804C13.6458 21.9393 13.5953 22.1958 13.4973 22.435C13.3993 22.6743 13.2557 22.8917 13.0746 23.0748C12.8935 23.2579 12.6785 23.4031 12.4419 23.5022C12.2053 23.6013 11.9517 23.6523 11.6957 23.6523C11.4396 23.6523 11.186 23.6013 10.9494 23.5022C10.7128 23.4031 10.4978 23.2579 10.3167 23.0748L0.571621 13.2204C0.390408 13.0374 0.246651 12.82 0.148568 12.5807C0.0504853 12.3415 0 12.085 0 11.826C0 11.567 0.0504853 11.3106 0.148568 11.0713C0.246651 10.832 0.390408 10.6147 0.571621 10.4316L10.3167 0.577269C10.4978 0.394154 10.7128 0.248901 10.9494 0.149801C11.186 0.0507011 11.4396 -0.00030899 11.6957 -0.00030899C11.9517 -0.00030899 12.2053 0.0507011 12.4419 0.149801C12.6785 0.248901 12.8935 0.394154 13.0746 0.577269C13.2557 0.760384 13.3993 0.977772 13.4973 1.21702C13.5953 1.45627 13.6458 1.7127 13.6458 1.97166C13.6458 2.23062 13.5953 2.48705 13.4973 2.7263C13.3993 2.96555 13.2557 3.18294 13.0746 3.36605L4.70598 11.826Z" fill="black"/>
</svg>
