<svg width="14" height="24" viewBox="0 0 14 24" fill="none" xmlns="http://www.w3.org/2000/svg">
    <path d="M9.29402 11.8263L0.925412 3.36636C0.744328 3.18325 0.600686 2.96586 0.502684 2.72661C0.404682 2.48736 0.354239 2.23093 0.354239 1.97197C0.354239 1.71301 0.404682 1.45658 0.502684 1.21733C0.600686 0.978079 0.744328 0.76069 0.925411 0.577576C1.10649 0.394462 1.32147 0.249208 1.55807 0.150107C1.79467 0.0510066 2.04825 1.04485e-06 2.30434 1.02247e-06C2.56044 1.00008e-06 2.81402 0.0510065 3.05062 0.150107C3.28721 0.249208 3.50219 0.394462 3.68328 0.577576L13.4284 10.4319C13.6096 10.615 13.7533 10.8323 13.8514 11.0716C13.9495 11.3109 14 11.5673 14 11.8263C14 12.0853 13.9495 12.3418 13.8514 12.5811C13.7533 12.8203 13.6096 13.0377 13.4284 13.2207L3.68328 23.0751C3.5022 23.2582 3.28722 23.4034 3.05062 23.5025C2.81402 23.6016 2.56044 23.6527 2.30435 23.6527C2.04826 23.6527 1.79467 23.6016 1.55807 23.5025C1.32148 23.4034 1.1065 23.2582 0.925413 23.0751C0.74433 22.892 0.600688 22.6746 0.502686 22.4353C0.404684 22.1961 0.35424 21.9396 0.35424 21.6807C0.35424 21.4217 0.404684 21.1653 0.502685 20.926C0.600688 20.6868 0.744329 20.4694 0.925413 20.2863L9.29402 11.8263Z" fill="black"/>
</svg>
