<svg width="100" height="32" viewBox="0 0 100 32" fill="none" xmlns="http://www.w3.org/2000/svg">
<path d="M11.7966 14.1523C14.3826 12.9672 17.2013 12.3767 20.0455 12.424C22.8897 12.4714 25.6871 13.1555 28.2322 14.426C28.2978 14.467 28.3718 14.4925 28.4486 14.5007C28.5255 14.5088 28.6032 14.4993 28.6758 14.4729C28.7485 14.4465 28.8142 14.404 28.8679 14.3484C28.9216 14.2928 28.962 14.2258 28.986 14.1523L29.945 11.2077C29.9771 11.1313 29.9937 11.0494 29.9938 10.9665C29.994 10.8837 29.9776 10.8016 29.9458 10.7251C29.914 10.6486 29.8673 10.5792 29.8084 10.5209C29.7495 10.4626 29.6796 10.4166 29.6028 10.3856C25.7323 8.48418 21.4098 7.69501 17.117 8.106C12.8243 8.517 8.73006 10.112 5.29061 12.7133C5.15264 12.8103 5.05538 12.9549 5.01749 13.1193C4.9796 13.2836 5.00375 13.4562 5.08531 13.6039L7.34554 18.6034C7.41314 18.7729 7.54321 18.91 7.70893 18.9864C7.87464 19.0628 8.06335 19.0726 8.23614 19.014C11.5447 17.7242 15.1162 17.2543 18.6458 17.6443C16.3192 18.0472 14.089 18.8835 12.0713 20.1099C11.9347 20.2069 11.8385 20.3507 11.8008 20.5139C11.7632 20.6772 11.7867 20.8486 11.867 20.9957L13.2366 24.1455C13.2643 24.2082 13.3066 24.2634 13.36 24.3063C13.4135 24.3492 13.4765 24.3786 13.5437 24.392C13.6109 24.4055 13.6804 24.4025 13.7462 24.3834C13.812 24.3643 13.8723 24.3297 13.9219 24.2824C14.3908 23.8045 14.9203 23.39 15.4968 23.0496C18.3234 21.512 21.5335 20.8225 24.7421 21.0641C24.8936 21.0709 25.043 21.0273 25.167 20.94C25.291 20.8528 25.3826 20.727 25.4274 20.5822L26.4549 17.4978C26.5165 17.3509 26.5227 17.1866 26.4724 17.0354C26.422 16.8842 26.3186 16.7564 26.1812 16.6757C21.8271 14.1146 16.6925 13.2181 11.7282 14.1523H11.7966Z" fill="#DA3138"/>
<path d="M52.1043 20.9776H50.7448C50.6851 20.9784 50.6261 20.9669 50.5717 20.9441C50.5174 20.9212 50.4691 20.8875 50.4303 20.8454C50.3915 20.8032 50.3631 20.7536 50.3472 20.7001C50.3313 20.6466 50.3282 20.5905 50.3382 20.5358V13.0842H46.9471C46.8392 13.0842 46.7358 13.0444 46.6596 12.9734C46.5833 12.9024 46.5405 12.8061 46.5405 12.7057V11.5685C46.5381 11.5182 46.5471 11.468 46.5667 11.4211C46.5863 11.3742 46.6162 11.3316 46.6544 11.296C46.6926 11.2604 46.7384 11.2326 46.7888 11.2143C46.8392 11.1961 46.8931 11.1878 46.9471 11.1899H55.8996C55.9537 11.1878 56.0076 11.1961 56.058 11.2143C56.1083 11.2326 56.1541 11.2604 56.1923 11.296C56.2306 11.3316 56.2604 11.3742 56.28 11.4211C56.2997 11.468 56.3086 11.5182 56.3063 11.5685V12.7049C56.299 12.8031 56.2538 12.8955 56.1791 12.9651C56.1043 13.0347 56.0051 13.0767 55.8996 13.0835H52.5086V20.5351C52.5109 20.5854 52.502 20.6355 52.4824 20.6824C52.4628 20.7294 52.4329 20.772 52.3947 20.8076C52.3564 20.8431 52.3107 20.871 52.2603 20.8892C52.2099 20.9075 52.156 20.9158 52.102 20.9136L52.1043 20.9776ZM43.1517 20.9776H36.9081C36.8543 20.97 36.8027 20.9525 36.7563 20.926C36.7099 20.8996 36.6697 20.8647 36.6381 20.8235C36.6064 20.7823 36.5839 20.7356 36.572 20.6862C36.5601 20.6368 36.5589 20.5856 36.5686 20.5358V19.3986C36.5612 19.3068 36.5925 19.2159 36.6559 19.1452C36.7193 19.0745 36.8098 19.0296 36.9081 19.02H43.5552C43.735 19.0197 43.9073 18.953 44.0344 18.8347C44.1615 18.7163 44.233 18.556 44.2335 18.3886V17.5675C44.2214 17.4037 44.1461 17.2496 44.0214 17.1335C43.8967 17.0174 43.7311 16.9473 43.5552 16.9361H39.1488C38.2778 17.0271 37.4027 16.8008 36.7068 16.3046C36.4379 16.0112 36.2385 15.6684 36.1214 15.2984C36.0042 14.9285 35.9721 14.5397 36.027 14.1575V14.031C35.9709 13.6583 36.0025 13.2787 36.1196 12.9185C36.2367 12.5583 36.4365 12.2261 36.7052 11.9449C37.0365 11.6748 37.4258 11.4734 37.847 11.354C38.2683 11.2347 38.7121 11.2 39.1488 11.2524H45.0498C45.105 11.2451 45.1613 11.2499 45.2142 11.2664C45.2671 11.2828 45.3152 11.3105 45.3546 11.3472C45.394 11.3839 45.4237 11.4287 45.4414 11.4779C45.4591 11.5272 45.4642 11.5796 45.4564 11.631V12.7682C45.4587 12.8184 45.4498 12.8686 45.4302 12.9155C45.4106 12.9625 45.3807 13.0051 45.3425 13.0407C45.3043 13.0762 45.2585 13.1041 45.2081 13.1223C45.1577 13.1406 45.1038 13.1489 45.0498 13.1467H38.8062C38.6263 13.1467 38.4538 13.2133 38.3266 13.3317C38.1994 13.4501 38.128 13.6107 38.128 13.7782V14.536C38.1284 14.7034 38.2 14.8638 38.3271 14.9821C38.4542 15.1004 38.6264 15.1671 38.8062 15.1675H43.1471C43.5941 15.1166 44.0476 15.152 44.4794 15.2715C44.9111 15.391 45.3117 15.5921 45.6562 15.8621C45.9158 16.1481 46.1099 16.4805 46.2265 16.8389C46.3431 17.1973 46.3798 17.574 46.3344 17.9461V18.199C46.374 18.5708 46.3345 18.9462 46.2181 19.3038C46.1017 19.6614 45.9108 19.9941 45.6562 20.2829C45.3119 20.5528 44.9115 20.7538 44.4801 20.8733C44.0487 20.9928 43.5954 21.0283 43.1486 20.9776H43.1517ZM75.7746 12.3264C75.2763 11.9193 74.6955 11.609 74.0666 11.4138C73.4376 11.2187 72.773 11.1426 72.112 11.1899H67.3621C67.3069 11.1827 67.2506 11.1874 67.1978 11.2039C67.1449 11.2203 67.0968 11.248 67.0574 11.2847C67.0179 11.3215 66.9882 11.3662 66.9705 11.4154C66.9529 11.4647 66.9477 11.5171 66.9555 11.5685V20.5983C66.9528 20.6404 66.9597 20.6827 66.9758 20.7222C66.9919 20.7617 67.0168 20.7976 67.0489 20.8274C67.081 20.8573 67.1195 20.8805 67.1619 20.8955C67.2044 20.9105 67.2497 20.9169 67.295 20.9144H72.1104C72.7715 20.9617 73.436 20.8856 74.065 20.6904C74.694 20.4953 75.2747 20.185 75.7731 19.7779C76.7229 18.9568 76.9937 17.9468 76.9937 16.1157V16.0525C76.9929 14.1575 76.7221 13.2107 75.7723 12.3264H75.7746ZM74.8248 16.115C74.8248 17.3779 74.8248 17.9461 74.2145 18.4511C73.6527 18.9038 72.9211 19.1308 72.1799 19.0825H69.1252V13.021H72.1096C72.4884 12.977 72.8728 13.0107 73.2361 13.1198C73.5993 13.2289 73.9325 13.4107 74.2122 13.6525C74.7585 14.0942 74.8904 14.7257 74.8904 15.9886L74.8248 16.115ZM80.1155 20.9776H78.7567C78.6971 20.9784 78.638 20.9669 78.5837 20.9441C78.5294 20.9212 78.4811 20.8875 78.4423 20.8454C78.4035 20.8032 78.3751 20.7536 78.3592 20.7001C78.3433 20.6466 78.3402 20.5905 78.3501 20.5358V11.5685C78.3478 11.5182 78.3567 11.468 78.3764 11.4211C78.396 11.3742 78.4258 11.3316 78.4641 11.296C78.5023 11.2604 78.5481 11.2326 78.5984 11.2143C78.6488 11.1961 78.7027 11.1878 78.7567 11.1899H80.1132C80.1684 11.1827 80.2247 11.1874 80.2776 11.2039C80.3305 11.2203 80.3785 11.248 80.418 11.2847C80.4574 11.3215 80.4871 11.3662 80.5048 11.4154C80.5225 11.4647 80.5276 11.5171 80.5198 11.5685V20.5351C80.5198 20.7879 80.384 20.9136 80.1803 20.9136L80.1155 20.9776ZM66.0081 20.3461L61.5291 11.8214C61.4276 11.6017 61.2608 11.4137 61.0483 11.2794C60.8357 11.1451 60.5864 11.0703 60.3297 11.0636C60.073 11.057 59.8196 11.1188 59.5994 11.2419C59.3792 11.365 59.2014 11.5441 59.087 11.7581L54.6111 20.3461C54.5729 20.3986 54.5518 20.4602 54.5505 20.5236C54.5491 20.5869 54.5675 20.6493 54.6034 20.7031C54.6393 20.757 54.6913 20.7999 54.7529 20.8268C54.8145 20.8538 54.8832 20.8635 54.9506 20.8548H56.4428C56.5383 20.8529 56.6318 20.8288 56.7147 20.7846C56.7976 20.7404 56.8673 20.6776 56.9174 20.6019L57.5956 19.2126H63.0213L63.6995 20.6019C63.7496 20.6776 63.8192 20.7404 63.9021 20.7846C63.985 20.8288 64.0785 20.8529 64.174 20.8548H65.6662C65.7314 20.8569 65.7961 20.843 65.8537 20.8144C65.9113 20.7859 65.9598 20.7436 65.9942 20.692C66.0287 20.6404 66.0479 20.5812 66.0499 20.5205C66.0519 20.4598 66.0367 20.3996 66.0057 20.3461H66.0081ZM60.3108 13.6525L62.1417 17.5036H58.4767L60.3076 13.6525H60.3108ZM93 20.3461L88.5233 11.7581C88.4152 11.5324 88.2392 11.3407 88.0166 11.2062C87.7939 11.0716 87.5342 11 87.2688 11C87.0033 11 86.7436 11.0716 86.5209 11.2062C86.2983 11.3407 86.1223 11.5324 86.0142 11.7581L81.5375 20.3461C81.4017 20.599 81.6054 20.8548 81.9441 20.8548H83.3684C83.4639 20.8529 83.5574 20.8288 83.6403 20.7846C83.7232 20.7404 83.7929 20.6776 83.843 20.6019L84.5212 19.2126H89.9469L90.6251 20.6019C90.6899 20.6796 90.7726 20.7427 90.8672 20.7864C90.9618 20.8302 91.0658 20.8536 91.1714 20.8548H92.5957C92.661 20.8569 92.7256 20.843 92.7832 20.8144C92.8408 20.7859 92.8893 20.7436 92.9237 20.692C92.9582 20.6404 92.9774 20.5812 92.9794 20.5205C92.9814 20.4598 92.9662 20.3996 92.9352 20.3461H93ZM87.2348 13.5885L89.0657 17.4396H85.4031L87.2348 13.5885Z" fill="#DA3138"/>
</svg>
