<svg width="111" height="32" viewBox="0 0 111 32" fill="none" xmlns="http://www.w3.org/2000/svg">
<path d="M13.3162 7.07667C12.5726 7.17024 11.8412 7.3436 11.1347 7.59375C10.6328 7.75849 10.1568 7.9934 9.7207 8.2915C9.7207 8.33807 9.85881 8.37901 10.0844 8.4023C11.3853 8.69913 12.625 9.21851 13.749 9.93749C13.9714 10.0837 14.2095 10.2046 14.4588 10.298C14.7071 10.2065 14.9435 10.0855 15.1629 9.93749C16.0043 9.43399 16.8866 9.00236 17.8005 8.64719C18.105 8.55184 18.4153 8.47621 18.7295 8.42077C19.0298 8.37982 19.1856 8.32763 19.1856 8.28106C18.499 7.80587 17.7238 7.47382 16.9061 7.3047C15.7349 7.0006 14.5164 6.9232 13.3162 7.07667Z" fill="#107C10"/>
<path d="M7.73708 9.78522C6.24634 11.257 5.30712 13.1967 5.07698 15.2788C4.94307 16.2822 4.9841 17.3012 5.19822 18.2906C5.42816 19.4077 5.86379 20.4723 6.48291 21.4301C6.86349 22.0001 6.92692 21.9921 6.97349 21.3835C7.15255 19.0927 8.91818 15.9477 11.8561 12.7119C12.0307 12.532 12.1872 12.3354 12.3234 12.1249C11.8591 11.5819 11.3487 11.0801 10.7978 10.6251C10.13 9.99414 9.34077 9.50569 8.47818 9.18945C8.3489 9.19266 8.18752 9.32675 7.73708 9.78522Z" fill="#107C10"/>
<path d="M20.0107 9.36295C19.0263 9.90376 18.1261 10.5854 17.3386 11.3863C17.0812 11.6123 16.8491 11.8656 16.6465 12.1419C16.8298 12.4254 17.0403 12.6903 17.2752 12.9328C19.7642 15.7293 21.3492 18.3975 21.8398 20.6304C21.904 20.9171 21.9426 21.2089 21.9554 21.5024C21.9554 21.8276 21.9667 21.8685 22.0654 21.8685C22.495 21.4273 22.8305 20.9033 23.0514 20.3285C23.7002 18.9873 23.9925 17.5015 23.9001 16.0144C23.8823 14.2141 23.3079 12.4634 22.2557 11.0025C21.775 10.3069 21.1822 9.69583 20.5013 9.19434C20.3304 9.22622 20.1651 9.28303 20.0107 9.36295Z" fill="#107C10"/>
<path d="M13.819 14.4963C12.3042 15.8457 10.8992 17.3135 9.61731 18.8859C8.69775 19.9751 7.93632 21.1885 7.35547 22.4902C7.67888 22.9424 8.06773 23.344 8.50927 23.6818C9.53611 24.4949 10.7191 25.0885 11.9848 25.4255C13.2506 25.7625 14.572 25.8358 15.8673 25.6409C17.9143 25.3298 19.8097 24.377 21.2806 22.9198C21.5175 22.6934 21.552 22.6291 21.552 22.4196C21.5464 21.3501 19.4644 18.6988 16.0174 15.3787C15.5519 14.8757 15.0377 14.4201 14.4822 14.0186C14.2363 14.1402 14.0123 14.3016 13.819 14.4963Z" fill="#107C10"/>
<path d="M54.473 6.20215L56.9833 9.60896L59.492 6.20215H60.6456L57.5678 10.3787L60.9378 14.9748H59.7885L56.9842 11.1707L54.1816 14.9748H53.0254L56.3954 10.3795L53.3185 6.20215H54.473Z" fill="#107C10" stroke="#107C10" stroke-width="0.3"/>
<path d="M44.3479 10.712C44.1737 10.5647 43.9802 10.4417 43.7728 10.3464C44.0917 10.1769 44.3584 9.92396 44.5442 9.61459C44.7301 9.30522 44.8282 8.95114 44.8279 8.59032C44.8279 8.02866 44.6205 6.2041 41.973 6.2041H38.4076V9.98593H37.2197C37.0654 10.1863 36.7157 10.6709 36.582 10.8661H38.4076V14.9758H41.973C43.9048 14.9758 45.1047 13.9955 45.1047 12.415C45.1131 12.0927 45.0495 11.7726 44.9184 11.478C44.7873 11.1834 44.593 10.9217 44.3479 10.712ZM39.3924 7.11938H41.9721C42.6706 7.11938 43.8397 7.29062 43.8397 8.51327C43.8397 9.43625 43.154 9.98593 41.9721 9.98593H39.3924V7.11938ZM41.9721 14.0614H39.3924V10.867H41.9721C42.9509 10.867 44.1208 11.1367 44.1208 12.3961C44.1208 13.844 42.7752 14.0606 41.9721 14.0606" fill="#107C10"/>
<path d="M41.9721 14.0614H39.3924V10.867H41.9721C42.9509 10.867 44.1208 11.1367 44.1208 12.3961C44.1208 13.844 42.7752 14.0606 41.9721 14.0606M44.3479 10.712C44.1737 10.5647 43.9802 10.4417 43.7728 10.3464C44.0917 10.1769 44.3584 9.92396 44.5442 9.61459C44.7301 9.30522 44.8282 8.95114 44.8279 8.59032C44.8279 8.02866 44.6205 6.2041 41.973 6.2041H38.4076V9.98593H37.2197C37.0654 10.1863 36.7157 10.6709 36.582 10.8661H38.4076V14.9758H41.973C43.9048 14.9758 45.1047 13.9955 45.1047 12.415C45.1131 12.0927 45.0495 11.7726 44.9184 11.478C44.7873 11.1834 44.593 10.9217 44.3479 10.712ZM39.3924 7.11938H41.9721C42.6706 7.11938 43.8397 7.29062 43.8397 8.51327C43.8397 9.43625 43.154 9.98593 41.9721 9.98593H39.3924V7.11938Z" stroke="#107C10" stroke-width="0.3"/>
<path d="M49.7429 6C47.2772 6 45.5527 7.88363 45.5527 10.5832C45.5527 13.2828 47.2763 15.169 49.7429 15.169C52.2096 15.169 53.9263 13.2854 53.9263 10.5832C53.9263 7.88107 52.2079 6 49.7429 6ZM49.7429 14.2418C47.8642 14.2418 46.5478 12.7374 46.5478 10.5832C46.5478 8.42903 47.8642 6.92726 49.7429 6.92726C51.6216 6.92726 52.9286 8.4316 52.9286 10.5832C52.9286 12.7349 51.619 14.2418 49.7429 14.2418Z" fill="#107C10" stroke="#107C10" stroke-width="0.3"/>
<path d="M30.3063 6.20312L33.3849 10.3797L30.0098 14.9749H31.1659L33.9677 11.1716L36.7712 14.9749H37.9265L34.5514 10.3797L37.6308 6.20312H36.4763L33.9626 9.61079L31.4573 6.20312H30.3063Z" fill="#107C10" stroke="#107C10" stroke-width="0.3"/>
<path d="M63.6894 17.011C62.8778 16.9725 62.0755 17.1968 61.4019 17.6506C61.1338 17.8515 60.9188 18.1146 60.7753 18.4171C60.6318 18.7196 60.5642 19.0525 60.5782 19.387C60.5607 19.7019 60.6131 20.0168 60.7317 20.3091C60.8502 20.6014 61.0319 20.864 61.2639 21.0779C61.8564 21.5591 62.5663 21.8744 63.3208 21.9915L64.0536 22.1739C64.5956 22.2812 65.1192 22.4661 65.6083 22.7227C65.7413 22.825 65.8482 22.9573 65.9201 23.1088C65.9921 23.2603 66.0271 23.4267 66.0223 23.5943C66.0263 23.803 65.9831 24.0099 65.896 24.1997C65.8089 24.3894 65.6801 24.5571 65.5192 24.6902C65.0599 24.9506 64.5367 25.0772 64.0091 25.0558C63.3751 25.0912 62.7475 24.9143 62.2255 24.5533C62.0182 24.3733 61.8563 24.1469 61.7529 23.8927C61.6496 23.6385 61.6077 23.3635 61.6307 23.09H60.3494C60.3214 23.5304 60.398 23.9712 60.573 24.3764C60.748 24.7816 61.0165 25.1397 61.3564 25.4214C62.1342 25.9944 63.0917 26.2699 64.0553 26.198C64.9463 26.2487 65.8296 26.0083 66.5717 25.5131C66.8637 25.2869 67.0985 24.9955 67.2573 24.6623C67.4161 24.3291 67.4945 23.9633 67.4862 23.5943C67.4993 23.2866 67.4447 22.9798 67.3262 22.6955C67.2077 22.4112 67.0283 22.1562 66.8005 21.9487C66.1646 21.4517 65.4058 21.1361 64.6047 21.0351L63.8274 20.8528C63.2933 20.7688 62.7805 20.5824 62.3172 20.3039C62.1766 20.199 62.065 20.0602 61.9929 19.9004C61.9208 19.7406 61.8906 19.5651 61.905 19.3904C61.8935 19.2113 61.9299 19.0323 62.0103 18.8719C62.0907 18.7114 62.2123 18.5751 62.3626 18.4768C62.7596 18.232 63.2244 18.1201 63.6894 18.1575C64.2544 18.1082 64.8194 18.2535 65.2904 18.5693C65.4596 18.7279 65.5954 18.9188 65.6896 19.1307C65.7838 19.3426 65.8346 19.5713 65.8389 19.8031H67.2102C67.2237 19.4137 67.1485 19.0264 66.99 18.6703C66.8316 18.3143 66.5942 17.999 66.2957 17.7482C65.5414 17.2027 64.618 16.9415 63.6894 17.011ZM96.239 17.011C95.4275 16.9725 94.6251 17.1968 93.9515 17.6506C93.6836 17.8516 93.4687 18.1147 93.3254 18.4172C93.1821 18.7197 93.1146 19.0526 93.1287 19.387C93.1112 19.7019 93.1636 20.0168 93.2822 20.3091C93.4007 20.6014 93.5824 20.864 93.8144 21.0779C94.4076 21.5598 95.1184 21.8754 95.8739 21.9924L96.6058 22.1747C97.1481 22.2821 97.672 22.4669 98.1614 22.7236C98.2935 22.8257 98.3996 22.9576 98.4711 23.1085C98.5426 23.2593 98.5774 23.4249 98.5728 23.5917C98.5768 23.8004 98.5336 24.0074 98.4465 24.1971C98.3594 24.3868 98.2306 24.5545 98.0697 24.6877C97.61 24.9468 97.0869 25.0723 96.5596 25.0498C95.9254 25.0852 95.2975 24.9083 94.7751 24.5473C94.5678 24.3673 94.4059 24.141 94.3026 23.8867C94.1992 23.6325 94.1573 23.3575 94.1803 23.084H92.8536C92.8256 23.5244 92.9022 23.9652 93.0773 24.3704C93.2523 24.7756 93.5207 25.1337 93.8607 25.4154C94.6384 25.9884 95.5959 26.2639 96.5596 26.192C97.4505 26.2428 98.3338 26.0023 99.0759 25.5071C99.3666 25.2813 99.6004 24.9907 99.7587 24.6586C99.9171 24.3265 99.9955 23.9621 99.9878 23.5943C100.038 23.2921 100.01 22.9821 99.9055 22.6939C99.8013 22.4058 99.6249 22.1492 99.393 21.9487C98.757 21.4518 97.9983 21.1361 97.1972 21.0351L96.4199 20.8528C95.8858 20.7688 95.373 20.5824 94.9097 20.3039C94.7692 20.199 94.6578 20.0601 94.5858 19.9003C94.5138 19.7405 94.4837 19.565 94.4983 19.3904C94.4869 19.2113 94.5233 19.0323 94.6037 18.8719C94.6841 18.7114 94.8056 18.5751 94.956 18.4768C95.3526 18.232 95.8171 18.1201 96.2819 18.1575C96.8469 18.1082 97.4119 18.2535 97.8829 18.5693C98.0522 18.7279 98.1881 18.9188 98.2825 19.1307C98.3768 19.3426 98.4278 19.5712 98.4322 19.8031H99.759C99.7724 19.4136 99.697 19.0262 99.5384 18.6702C99.3798 18.3142 99.1422 17.9989 98.8436 17.7482C98.0897 17.2031 97.1671 16.9419 96.239 17.011ZM68.1273 17.2396V26.0585H74.395V24.8247H69.4583V22.1285H73.8473V20.9863H69.4583V18.4272H74.3993V17.2388L68.1273 17.2396ZM75.2692 17.2396V26.0585H76.5951V22.4487H79.1611C79.359 22.4342 79.5578 22.459 79.7461 22.5216C79.9344 22.5842 80.1084 22.6834 80.2582 22.8135C80.5283 23.148 80.6593 23.5735 80.6241 24.0019L80.6696 24.9625C80.6451 25.362 80.7406 25.7597 80.9438 26.1047H82.3151C82.1652 25.7404 82.0726 25.3551 82.0409 24.9625L81.95 23.5926C81.9542 23.1743 81.8433 22.763 81.6295 22.4033C81.4118 22.096 81.0846 21.8837 80.715 21.81C81.1492 21.6881 81.5236 21.4115 81.7675 21.0326C82.0524 20.6338 82.1973 20.1522 82.1797 19.6627C82.1988 19.321 82.1338 18.9799 81.9902 18.6692C81.8466 18.3586 81.6288 18.0879 81.3561 17.8809C80.6995 17.427 79.9114 17.2022 79.114 17.2413L75.2692 17.2396ZM83.1876 17.2396V26.0585H84.5144V17.2396H83.1876ZM85.9825 17.2396V26.0585H92.2999V24.8247H87.3135V22.1285H91.7051V20.9863H87.3135V18.4272H92.2999V17.2388L85.9825 17.2396ZM76.6911 18.3818H79.0694C79.5254 18.3563 79.9767 18.4847 80.3507 18.7465C80.5002 18.877 80.6188 19.0389 80.698 19.2208C80.7771 19.4026 80.8149 19.5998 80.8084 19.7979C80.8222 19.9996 80.7925 20.2018 80.7214 20.391C80.6503 20.5802 80.5394 20.752 80.3962 20.8947C80.235 21.0385 80.0468 21.149 79.8426 21.2197C79.6384 21.2903 79.4222 21.3199 79.2066 21.3066H76.6911V18.3818Z" fill="#107C10"/>
<path d="M40.2512 18.9317L45.4527 25.9764H46.4349V17.2141H45.457V24.413L40.1492 17.209H39.2793V25.9713H40.2555L40.2512 18.9317Z" fill="#107C10"/>
<path d="M34.2008 17.0107C31.7342 17.0107 30.0098 18.8944 30.0098 21.594C30.0098 24.2936 31.7342 26.1815 34.2008 26.1815C36.6675 26.1815 38.3842 24.2978 38.3842 21.594C38.3842 18.8901 36.6649 17.0107 34.2008 17.0107ZM34.2008 25.2525C32.3221 25.2525 31.004 23.7482 31.004 21.594C31.004 19.4398 32.3213 17.9371 34.2008 17.9371C36.0804 17.9371 37.3865 19.4415 37.3865 21.594C37.3865 23.7464 36.0778 25.2525 34.2008 25.2525Z" fill="#107C10"/>
<path d="M53.6699 18.0652V17.209H47.5273V25.979H53.7299V25.1228H48.5113V21.8778H53.3408V21.0216H48.5113V18.0652H53.6699Z" fill="#107C10"/>
<path d="M57.0391 17.0107V25.8364Z" fill="#107C10"/>
<path d="M57.0391 17.0107V25.8364" stroke="#107C10" stroke-linecap="round"/>
</svg>
