<svg width="106" height="100" viewBox="0 0 106 100" fill="none" xmlns="http://www.w3.org/2000/svg">
<path d="M92.7314 39.281C90.9702 34.7553 88.2172 30.5097 85.9327 26.2333C84.3129 23.2254 82.3092 17.3109 77.7735 19.1386C75.9369 19.8798 74.6304 21.7439 73.2857 23.1272L68.2956 28.2656C66.6298 29.9776 64.9736 31.7006 63.3271 33.4345C61.7331 35.1 60.0139 36.3947 60.0674 38.8685C60.0986 40.3115 61.1212 41.9034 62.7674 41.8727C66.4261 41.791 68.6649 38.2302 71.0265 35.7559C73.7436 32.9037 76.4128 30.0282 79.1134 27.1903C79.337 26.9511 80.9207 25.672 80.8744 25.3264C78.2938 24.5638 77.4585 24.7065 78.3685 25.7544C78.6774 26.1922 78.9695 26.6087 79.2689 27.0395L82.5691 31.7441C84.8385 34.992 86.9534 38.4975 89.6195 41.4357C91.1546 43.1291 93.474 41.1885 92.7193 39.2574L92.7314 39.281Z" fill="white"/>
<path d="M77.8494 24.8843C79.9865 35.7745 76.013 46.8728 70.5897 56.246C66.8945 62.6228 57.251 78.2121 48.0497 71.6018C45.502 69.7763 40.0537 62.5241 44.8911 60.1673C46.9511 59.1631 48.2731 61.6621 48.9222 63.2719C49.8461 65.6416 49.9362 68.2532 49.1778 70.6804C48.4298 72.953 46.9596 74.9214 44.9894 76.2883C43.0192 77.6553 40.656 78.3465 38.2566 78.2577C33.3411 78.058 29.2428 74.4279 26.4544 70.6827C19.8884 61.8395 19.8495 50.67 23.8738 40.832C25.2253 37.5336 19.8624 34.9661 18.1671 38.1541C11.8998 49.9532 14.2319 65.5436 22.7473 75.6423C27.0653 80.7681 33.3308 84.5899 40.2479 83.8926C47.039 83.2061 53.1214 78.3198 54.8007 71.6622C56.2446 65.9526 54.7723 57.0513 48.549 54.5777C41.9482 51.9514 36.4499 58.8439 37.285 64.9739C38.1313 71.265 43.9732 77.4349 50.2676 78.4669C57.227 79.606 63.1995 74.6687 67.3129 69.6623C72.6945 63.03 76.8059 55.4685 79.4418 47.3551C81.8933 39.8745 83.2704 31.5609 80.2987 24.0326C79.7469 22.6351 77.5807 23.491 77.8542 24.8937L77.8494 24.8843Z" fill="white"/>
</svg>
