<svg width="542" height="421" viewBox="0 0 542 421" fill="none" xmlns="http://www.w3.org/2000/svg">
<g filter="url(#filter0_i_3802_2752)">
<rect width="542" height="69.1141" rx="6" fill="#150B53"/>
</g>
<rect opacity="0.3" x="7.27539" y="4.54688" width="100.943" height="59.1107" rx="6" fill="white"/>
<g opacity="0.8">
<path d="M139.213 57.3398V48.2398H140.955L144.829 54.6618H143.906L147.715 48.2398H149.444L149.47 57.3398H147.494L147.481 51.2688H147.845L144.803 56.3778H143.854L140.747 51.2688H141.189V57.3398H139.213ZM154.957 57.4438C154.16 57.4438 153.458 57.2878 152.851 56.9758C152.253 56.6638 151.79 56.2392 151.46 55.7018C151.131 55.1558 150.966 54.5362 150.966 53.8428C150.966 53.1408 151.127 52.5212 151.447 51.9838C151.777 51.4378 152.223 51.0132 152.786 50.7098C153.35 50.3978 153.987 50.2418 154.697 50.2418C155.382 50.2418 155.997 50.3892 156.543 50.6838C157.098 50.9698 157.536 51.3858 157.856 51.9318C158.177 52.4692 158.337 53.1148 158.337 53.8688C158.337 53.9468 158.333 54.0378 158.324 54.1418C158.316 54.2372 158.307 54.3282 158.298 54.4148H152.617V53.2318H157.232L156.452 53.5828C156.452 53.2188 156.379 52.9025 156.231 52.6338C156.084 52.3652 155.88 52.1572 155.62 52.0098C155.36 51.8538 155.057 51.7758 154.71 51.7758C154.364 51.7758 154.056 51.8538 153.787 52.0098C153.527 52.1572 153.324 52.3695 153.176 52.6468C153.029 52.9155 152.955 53.2362 152.955 53.6088V53.9208C152.955 54.3022 153.038 54.6402 153.202 54.9348C153.376 55.2208 153.614 55.4418 153.917 55.5978C154.229 55.7452 154.593 55.8188 155.009 55.8188C155.382 55.8188 155.707 55.7625 155.984 55.6498C156.27 55.5372 156.53 55.3682 156.764 55.1428L157.843 56.3128C157.523 56.6768 157.12 56.9585 156.634 57.1578C156.149 57.3485 155.59 57.4438 154.957 57.4438ZM162.547 57.4438C161.724 57.4438 161.083 57.2358 160.623 56.8198C160.164 56.3952 159.934 55.7668 159.934 54.9348V48.7988H161.962V54.9088C161.962 55.2035 162.04 55.4332 162.196 55.5978C162.352 55.7538 162.565 55.8318 162.833 55.8318C163.154 55.8318 163.427 55.7452 163.652 55.5718L164.198 57.0018C163.99 57.1492 163.739 57.2618 163.444 57.3398C163.158 57.4092 162.859 57.4438 162.547 57.4438ZM158.855 52.0618V50.5018H163.704V52.0618H158.855ZM169.588 50.2418C170.143 50.2418 170.637 50.3545 171.07 50.5798C171.512 50.7965 171.859 51.1345 172.11 51.5938C172.361 52.0445 172.487 52.6252 172.487 53.3358V57.3398H170.459V53.6478C170.459 53.0845 170.333 52.6685 170.082 52.3998C169.839 52.1312 169.493 51.9968 169.042 51.9968C168.721 51.9968 168.431 52.0662 168.171 52.2048C167.92 52.3348 167.72 52.5385 167.573 52.8158C167.434 53.0932 167.365 53.4485 167.365 53.8818V57.3398H165.337V47.6938H167.365V52.2828L166.91 51.6978C167.161 51.2298 167.521 50.8702 167.989 50.6188C168.457 50.3675 168.99 50.2418 169.588 50.2418ZM177.704 57.4438C176.959 57.4438 176.296 57.2878 175.715 56.9758C175.143 56.6638 174.688 56.2392 174.35 55.7018C174.021 55.1558 173.856 54.5362 173.856 53.8428C173.856 53.1408 174.021 52.5212 174.35 51.9838C174.688 51.4378 175.143 51.0132 175.715 50.7098C176.296 50.3978 176.959 50.2418 177.704 50.2418C178.441 50.2418 179.099 50.3978 179.68 50.7098C180.261 51.0132 180.716 51.4335 181.045 51.9708C181.374 52.5082 181.539 53.1322 181.539 53.8428C181.539 54.5362 181.374 55.1558 181.045 55.7018C180.716 56.2392 180.261 56.6638 179.68 56.9758C179.099 57.2878 178.441 57.4438 177.704 57.4438ZM177.704 55.7798C178.042 55.7798 178.345 55.7018 178.614 55.5458C178.883 55.3898 179.095 55.1688 179.251 54.8828C179.407 54.5882 179.485 54.2415 179.485 53.8428C179.485 53.4355 179.407 53.0888 179.251 52.8028C179.095 52.5168 178.883 52.2958 178.614 52.1398C178.345 51.9838 178.042 51.9058 177.704 51.9058C177.366 51.9058 177.063 51.9838 176.794 52.1398C176.525 52.2958 176.309 52.5168 176.144 52.8028C175.988 53.0888 175.91 53.4355 175.91 53.8428C175.91 54.2415 175.988 54.5882 176.144 54.8828C176.309 55.1688 176.525 55.3898 176.794 55.5458C177.063 55.7018 177.366 55.7798 177.704 55.7798ZM185.897 57.4438C185.239 57.4438 184.645 57.2965 184.116 57.0018C183.588 56.6985 183.167 56.2782 182.855 55.7408C182.552 55.2035 182.4 54.5708 182.4 53.8428C182.4 53.1062 182.552 52.4692 182.855 51.9318C183.167 51.3945 183.588 50.9785 184.116 50.6838C184.645 50.3892 185.239 50.2418 185.897 50.2418C186.487 50.2418 187.002 50.3718 187.444 50.6318C187.886 50.8918 188.229 51.2862 188.471 51.8148C188.714 52.3435 188.835 53.0195 188.835 53.8428C188.835 54.6575 188.718 55.3335 188.484 55.8708C188.25 56.3995 187.912 56.7938 187.47 57.0538C187.037 57.3138 186.513 57.4438 185.897 57.4438ZM186.248 55.7798C186.578 55.7798 186.877 55.7018 187.145 55.5458C187.414 55.3898 187.626 55.1688 187.782 54.8828C187.947 54.5882 188.029 54.2415 188.029 53.8428C188.029 53.4355 187.947 53.0888 187.782 52.8028C187.626 52.5168 187.414 52.2958 187.145 52.1398C186.877 51.9838 186.578 51.9058 186.248 51.9058C185.91 51.9058 185.607 51.9838 185.338 52.1398C185.07 52.2958 184.853 52.5168 184.688 52.8028C184.532 53.0888 184.454 53.4355 184.454 53.8428C184.454 54.2415 184.532 54.5882 184.688 54.8828C184.853 55.1688 185.07 55.3898 185.338 55.5458C185.607 55.7018 185.91 55.7798 186.248 55.7798ZM188.081 57.3398V55.9098L188.12 53.8298L187.99 51.7628V47.6938H190.018V57.3398H188.081Z" fill="#A9A9A9"/>
<path d="M184.745 19.3709C184.745 18.9657 184.552 18.5844 184.225 18.341L173.305 10.2352C172.908 9.94115 172.375 9.89331 171.927 10.11C171.481 10.3281 171.2 10.7741 171.2 11.2651V14.7419H162.42C161.696 14.7419 161.107 15.3173 161.107 16.0321V22.714C161.107 23.4273 161.696 24.0042 162.42 24.0042H171.2V27.4781C171.2 27.9692 171.481 28.4152 171.929 28.6333C172.114 28.7233 172.314 28.7683 172.514 28.7683C172.795 28.7683 173.074 28.6797 173.306 28.5066L184.226 20.398C184.552 20.1532 184.745 19.7747 184.745 19.3709ZM173.827 24.8864V22.714C173.827 22.002 173.239 21.4237 172.513 21.4237H163.734V17.3209H172.513C173.239 17.3209 173.827 16.744 173.827 16.0321V13.8554L181.254 19.3709L173.827 24.8864Z" fill="#A9A9A9"/>
<path d="M143.55 30.6291C143.55 31.0343 143.743 31.4156 144.07 31.659L154.99 39.7648C155.387 40.0589 155.92 40.1067 156.368 39.89C156.814 39.6719 157.095 39.2259 157.095 38.7349L157.095 35.2581L165.875 35.2581C166.599 35.2581 167.188 34.6827 167.188 33.9679L167.188 27.286C167.188 26.5727 166.599 25.9958 165.875 25.9958L157.095 25.9958L157.095 22.5219C157.095 22.0308 156.814 21.5848 156.366 21.3667C156.18 21.2767 155.981 21.2317 155.781 21.2317C155.499 21.2317 155.221 21.3203 154.989 21.4934L144.069 29.602C143.743 29.8468 143.55 30.2253 143.55 30.6291ZM154.468 25.1136L154.468 27.286C154.468 27.998 155.056 28.5762 155.782 28.5762L164.561 28.5763L164.561 32.6791L155.782 32.6791C155.056 32.6791 154.468 33.256 154.468 33.9679L154.468 36.1446L147.041 30.6291L154.468 25.1136Z" fill="#A9A9A9"/>
</g>
<g opacity="0.8">
<path d="M242.56 55.9248L246.616 46.8248H248.696L252.765 55.9248H250.555L247.227 47.8908H248.059L244.718 55.9248H242.56ZM244.588 53.9748L245.147 52.3758H249.827L250.399 53.9748H244.588ZM262.523 48.8268C263.078 48.8268 263.568 48.9395 263.992 49.1648C264.426 49.3815 264.764 49.7195 265.006 50.1788C265.258 50.6295 265.383 51.2101 265.383 51.9208V55.9248H263.355V52.2328C263.355 51.6695 263.238 51.2535 263.004 50.9848C262.77 50.7161 262.441 50.5818 262.016 50.5818C261.722 50.5818 261.457 50.6511 261.223 50.7898C260.989 50.9198 260.807 51.1191 260.677 51.3878C260.547 51.6565 260.482 51.9988 260.482 52.4148V55.9248H258.454V52.2328C258.454 51.6695 258.337 51.2535 258.103 50.9848C257.878 50.7161 257.553 50.5818 257.128 50.5818C256.834 50.5818 256.569 50.6511 256.335 50.7898C256.101 50.9198 255.919 51.1191 255.789 51.3878C255.659 51.6565 255.594 51.9988 255.594 52.4148V55.9248H253.566V48.9308H255.503V50.8418L255.139 50.2828C255.382 49.8061 255.724 49.4465 256.166 49.2038C256.617 48.9525 257.128 48.8268 257.7 48.8268C258.342 48.8268 258.901 48.9915 259.377 49.3208C259.863 49.6415 260.183 50.1355 260.339 50.8028L259.624 50.6078C259.858 50.0618 260.231 49.6285 260.742 49.3078C261.262 48.9871 261.856 48.8268 262.523 48.8268ZM270.58 56.0288C269.835 56.0288 269.172 55.8728 268.591 55.5608C268.019 55.2488 267.564 54.8241 267.226 54.2868C266.897 53.7408 266.732 53.1211 266.732 52.4278C266.732 51.7258 266.897 51.1061 267.226 50.5688C267.564 50.0228 268.019 49.5981 268.591 49.2948C269.172 48.9828 269.835 48.8268 270.58 48.8268C271.317 48.8268 271.975 48.9828 272.556 49.2948C273.137 49.5981 273.592 50.0185 273.921 50.5558C274.25 51.0931 274.415 51.7171 274.415 52.4278C274.415 53.1211 274.25 53.7408 273.921 54.2868C273.592 54.8241 273.137 55.2488 272.556 55.5608C271.975 55.8728 271.317 56.0288 270.58 56.0288ZM270.58 54.3648C270.918 54.3648 271.221 54.2868 271.49 54.1308C271.759 53.9748 271.971 53.7538 272.127 53.4678C272.283 53.1731 272.361 52.8265 272.361 52.4278C272.361 52.0205 272.283 51.6738 272.127 51.3878C271.971 51.1018 271.759 50.8808 271.49 50.7248C271.221 50.5688 270.918 50.4908 270.58 50.4908C270.242 50.4908 269.939 50.5688 269.67 50.7248C269.401 50.8808 269.185 51.1018 269.02 51.3878C268.864 51.6738 268.786 52.0205 268.786 52.4278C268.786 52.8265 268.864 53.1731 269.02 53.4678C269.185 53.7538 269.401 53.9748 269.67 54.1308C269.939 54.2868 270.242 54.3648 270.58 54.3648ZM278.721 56.0288C278.141 56.0288 277.621 55.9161 277.161 55.6908C276.711 55.4655 276.36 55.1231 276.108 54.6638C275.857 54.1958 275.731 53.6021 275.731 52.8828V48.9308H277.759V52.5838C277.759 53.1645 277.881 53.5935 278.123 53.8708C278.375 54.1395 278.726 54.2738 279.176 54.2738C279.488 54.2738 279.766 54.2088 280.008 54.0788C280.251 53.9401 280.442 53.7321 280.58 53.4548C280.719 53.1688 280.788 52.8135 280.788 52.3888V48.9308H282.816V55.9248H280.892V54.0008L281.243 54.5598C281.009 55.0451 280.663 55.4135 280.203 55.6648C279.753 55.9075 279.259 56.0288 278.721 56.0288ZM288.946 48.8268C289.501 48.8268 289.995 48.9395 290.428 49.1648C290.87 49.3815 291.217 49.7195 291.468 50.1788C291.72 50.6295 291.845 51.2101 291.845 51.9208V55.9248H289.817V52.2328C289.817 51.6695 289.692 51.2535 289.44 50.9848C289.198 50.7161 288.851 50.5818 288.4 50.5818C288.08 50.5818 287.789 50.6511 287.529 50.7898C287.278 50.9198 287.079 51.1235 286.931 51.4008C286.793 51.6781 286.723 52.0335 286.723 52.4668V55.9248H284.695V48.9308H286.632V50.8678L286.268 50.2828C286.52 49.8148 286.879 49.4551 287.347 49.2038C287.815 48.9525 288.348 48.8268 288.946 48.8268ZM296.544 56.0288C295.72 56.0288 295.079 55.8208 294.62 55.4048C294.16 54.9801 293.931 54.3518 293.931 53.5198V47.3838H295.959V53.4938C295.959 53.7885 296.037 54.0181 296.193 54.1828C296.349 54.3388 296.561 54.4168 296.83 54.4168C297.15 54.4168 297.423 54.3301 297.649 54.1568L298.195 55.5868C297.987 55.7341 297.735 55.8468 297.441 55.9248C297.155 55.9941 296.856 56.0288 296.544 56.0288ZM292.852 50.6468V49.0868H297.701V50.6468H292.852Z" fill="#A9A9A9"/>
<path d="M279.04 18.5643V17.7582C279.04 14.1287 273.608 11.3906 266.405 11.3906C259.201 11.3906 253.77 14.1287 253.77 17.7582V23.5469C253.77 26.5701 257.539 28.9724 262.959 29.6917V30.4934C262.959 34.1229 268.391 36.861 275.594 36.861C282.798 36.861 288.229 34.1229 288.229 30.4934V24.7047C288.229 21.709 284.58 19.3038 279.04 18.5643ZM285.932 24.7047C285.932 26.6179 281.511 28.7568 275.594 28.7568C275.059 28.7568 274.527 28.738 274.003 28.7032C277.1 27.5658 279.04 25.7177 279.04 23.5469V20.9044C283.329 21.5484 285.932 23.2966 285.932 24.7047ZM262.959 27.3458V23.9029C264.101 24.053 265.253 24.1275 266.405 24.1258C267.557 24.1275 268.708 24.053 269.851 23.9029V27.3458C268.71 27.5157 267.558 27.6003 266.405 27.599C265.252 27.6003 264.1 27.5157 262.959 27.3458ZM276.743 21.5108V23.5469C276.743 24.7611 274.961 26.065 272.148 26.8566V23.4746C274.002 23.0216 275.571 22.3472 276.743 21.5108ZM266.405 13.7061C272.322 13.7061 276.743 15.845 276.743 17.7582C276.743 19.6714 272.322 21.8103 266.405 21.8103C260.488 21.8103 256.067 19.6714 256.067 17.7582C256.067 15.845 260.488 13.7061 266.405 13.7061ZM256.067 23.5469V21.5108C257.238 22.3472 258.808 23.0216 260.662 23.4746V26.8566C257.849 26.065 256.067 24.7611 256.067 23.5469ZM265.256 30.4934V29.8899C265.634 29.9044 266.016 29.9145 266.405 29.9145C266.962 29.9145 267.506 29.8957 268.04 29.8639C268.634 30.078 269.238 30.2596 269.851 30.408V33.8031C267.038 33.0115 265.256 31.7076 265.256 30.4934ZM272.148 34.2923V30.8407C273.29 30.9955 274.442 31.0728 275.594 31.0723C276.746 31.0739 277.898 30.9995 279.04 30.8494V34.2923C276.755 34.6299 274.433 34.6299 272.148 34.2923ZM281.337 33.8031V30.421C283.191 29.9681 284.76 29.2937 285.932 28.4572V30.4934C285.932 31.7076 284.15 33.0115 281.337 33.8031Z" fill="#A9A9A9"/>
</g>
<g opacity="0.8">
<path d="M349.925 56.0808C349.223 56.0808 348.568 55.9681 347.962 55.7428C347.364 55.5088 346.844 55.1795 346.402 54.7548C345.96 54.3301 345.613 53.8318 345.362 53.2598C345.119 52.6878 344.998 52.0595 344.998 51.3748C344.998 50.6901 345.119 50.0618 345.362 49.4898C345.613 48.9178 345.96 48.4195 346.402 47.9948C346.852 47.5701 347.377 47.2451 347.975 47.0198C348.573 46.7858 349.227 46.6688 349.938 46.6688C350.726 46.6688 351.437 46.8075 352.07 47.0848C352.711 47.3535 353.248 47.7521 353.682 48.2808L352.33 49.5288C352.018 49.1735 351.671 48.9091 351.29 48.7358C350.908 48.5538 350.492 48.4628 350.042 48.4628C349.617 48.4628 349.227 48.5321 348.872 48.6708C348.516 48.8095 348.209 49.0088 347.949 49.2688C347.689 49.5288 347.485 49.8365 347.338 50.1918C347.199 50.5471 347.13 50.9415 347.13 51.3748C347.13 51.8081 347.199 52.2025 347.338 52.5578C347.485 52.9131 347.689 53.2208 347.949 53.4808C348.209 53.7408 348.516 53.9401 348.872 54.0788C349.227 54.2175 349.617 54.2868 350.042 54.2868C350.492 54.2868 350.908 54.2001 351.29 54.0268C351.671 53.8448 352.018 53.5718 352.33 53.2078L353.682 54.4558C353.248 54.9845 352.711 55.3875 352.07 55.6648C351.437 55.9421 350.722 56.0808 349.925 56.0808ZM359.212 48.8268C359.767 48.8268 360.261 48.9395 360.694 49.1648C361.136 49.3815 361.483 49.7195 361.734 50.1788C361.985 50.6295 362.111 51.2101 362.111 51.9208V55.9248H360.083V52.2328C360.083 51.6695 359.957 51.2535 359.706 50.9848C359.463 50.7161 359.117 50.5818 358.666 50.5818C358.345 50.5818 358.055 50.6511 357.795 50.7898C357.544 50.9198 357.344 51.1235 357.197 51.4008C357.058 51.6781 356.989 52.0335 356.989 52.4668V55.9248H354.961V46.2788H356.989V50.8678L356.534 50.2828C356.785 49.8148 357.145 49.4551 357.613 49.2038C358.081 48.9525 358.614 48.8268 359.212 48.8268ZM367.471 56.0288C366.674 56.0288 365.972 55.8728 365.365 55.5608C364.767 55.2488 364.303 54.8241 363.974 54.2868C363.645 53.7408 363.48 53.1211 363.48 52.4278C363.48 51.7258 363.64 51.1061 363.961 50.5688C364.29 50.0228 364.737 49.5981 365.3 49.2948C365.863 48.9828 366.5 48.8268 367.211 48.8268C367.896 48.8268 368.511 48.9741 369.057 49.2688C369.612 49.5548 370.049 49.9708 370.37 50.5168C370.691 51.0541 370.851 51.6998 370.851 52.4538C370.851 52.5318 370.847 52.6228 370.838 52.7268C370.829 52.8221 370.821 52.9131 370.812 52.9998H365.131V51.8168H369.746L368.966 52.1678C368.966 51.8038 368.892 51.4875 368.745 51.2188C368.598 50.9501 368.394 50.7421 368.134 50.5948C367.874 50.4388 367.571 50.3608 367.224 50.3608C366.877 50.3608 366.57 50.4388 366.301 50.5948C366.041 50.7421 365.837 50.9545 365.69 51.2318C365.543 51.5005 365.469 51.8211 365.469 52.1938V52.5058C365.469 52.8871 365.551 53.2251 365.716 53.5198C365.889 53.8058 366.128 54.0268 366.431 54.1828C366.743 54.3301 367.107 54.4038 367.523 54.4038C367.896 54.4038 368.221 54.3475 368.498 54.2348C368.784 54.1221 369.044 53.9531 369.278 53.7278L370.357 54.8978C370.036 55.2618 369.633 55.5435 369.148 55.7428C368.663 55.9335 368.104 56.0288 367.471 56.0288ZM375.581 56.0288C374.827 56.0288 374.155 55.8771 373.566 55.5738C372.977 55.2618 372.513 54.8328 372.175 54.2868C371.846 53.7408 371.681 53.1211 371.681 52.4278C371.681 51.7258 371.846 51.1061 372.175 50.5688C372.513 50.0228 372.977 49.5981 373.566 49.2948C374.155 48.9828 374.827 48.8268 375.581 48.8268C376.318 48.8268 376.959 48.9828 377.505 49.2948C378.051 49.5981 378.454 50.0358 378.714 50.6078L377.141 51.4528C376.959 51.1235 376.729 50.8808 376.452 50.7248C376.183 50.5688 375.889 50.4908 375.568 50.4908C375.221 50.4908 374.909 50.5688 374.632 50.7248C374.355 50.8808 374.134 51.1018 373.969 51.3878C373.813 51.6738 373.735 52.0205 373.735 52.4278C373.735 52.8351 373.813 53.1818 373.969 53.4678C374.134 53.7538 374.355 53.9748 374.632 54.1308C374.909 54.2868 375.221 54.3648 375.568 54.3648C375.889 54.3648 376.183 54.2911 376.452 54.1438C376.729 53.9878 376.959 53.7408 377.141 53.4028L378.714 54.2608C378.454 54.8241 378.051 55.2618 377.505 55.5738C376.959 55.8771 376.318 56.0288 375.581 56.0288ZM381.521 54.4948L381.573 52.0248L384.836 48.9308H387.254L384.121 52.1158L383.068 52.9738L381.521 54.4948ZM379.844 55.9248V46.2788H381.872V55.9248H379.844ZM385.057 55.9248L382.691 52.9868L383.965 51.4138L387.514 55.9248H385.057ZM391.462 56.0288C390.716 56.0288 390.053 55.8728 389.473 55.5608C388.901 55.2488 388.446 54.8241 388.108 54.2868C387.778 53.7408 387.614 53.1211 387.614 52.4278C387.614 51.7258 387.778 51.1061 388.108 50.5688C388.446 50.0228 388.901 49.5981 389.473 49.2948C390.053 48.9828 390.716 48.8268 391.462 48.8268C392.198 48.8268 392.857 48.9828 393.438 49.2948C394.018 49.5981 394.473 50.0185 394.803 50.5558C395.132 51.0931 395.297 51.7171 395.297 52.4278C395.297 53.1211 395.132 53.7408 394.803 54.2868C394.473 54.8241 394.018 55.2488 393.438 55.5608C392.857 55.8728 392.198 56.0288 391.462 56.0288ZM391.462 54.3648C391.8 54.3648 392.103 54.2868 392.372 54.1308C392.64 53.9748 392.853 53.7538 393.009 53.4678C393.165 53.1731 393.243 52.8265 393.243 52.4278C393.243 52.0205 393.165 51.6738 393.009 51.3878C392.853 51.1018 392.64 50.8808 392.372 50.7248C392.103 50.5688 391.8 50.4908 391.462 50.4908C391.124 50.4908 390.82 50.5688 390.552 50.7248C390.283 50.8808 390.066 51.1018 389.902 51.3878C389.746 51.6738 389.668 52.0205 389.668 52.4278C389.668 52.8265 389.746 53.1731 389.902 53.4678C390.066 53.7538 390.283 53.9748 390.552 54.1308C390.82 54.2868 391.124 54.3648 391.462 54.3648ZM399.603 56.0288C399.023 56.0288 398.503 55.9161 398.043 55.6908C397.593 55.4655 397.242 55.1231 396.99 54.6638C396.739 54.1958 396.613 53.6021 396.613 52.8828V48.9308H398.641V52.5838C398.641 53.1645 398.763 53.5935 399.005 53.8708C399.257 54.1395 399.608 54.2738 400.058 54.2738C400.37 54.2738 400.648 54.2088 400.89 54.0788C401.133 53.9401 401.324 53.7321 401.462 53.4548C401.601 53.1688 401.67 52.8135 401.67 52.3888V48.9308H403.698V55.9248H401.774V54.0008L402.125 54.5598C401.891 55.0451 401.545 55.4135 401.085 55.6648C400.635 55.9075 400.141 56.0288 399.603 56.0288ZM408.437 56.0288C407.614 56.0288 406.972 55.8208 406.513 55.4048C406.054 54.9801 405.824 54.3518 405.824 53.5198V47.3838H407.852V53.4938C407.852 53.7885 407.93 54.0181 408.086 54.1828C408.242 54.3388 408.454 54.4168 408.723 54.4168C409.044 54.4168 409.317 54.3301 409.542 54.1568L410.088 55.5868C409.88 55.7341 409.629 55.8468 409.334 55.9248C409.048 55.9941 408.749 56.0288 408.437 56.0288ZM404.745 50.6468V49.0868H409.594V50.6468H404.745Z" fill="#A9A9A9"/>
<path d="M390.078 11.3906H364.723C363.715 11.3906 362.747 11.7931 362.034 12.5096C361.321 13.2261 360.92 14.1979 360.92 15.2112V33.0404C360.92 34.0537 361.321 35.0255 362.034 35.742C362.747 36.4585 363.715 36.861 364.723 36.861H390.078C391.087 36.861 392.054 36.4585 392.768 35.742C393.481 35.0255 393.882 34.0537 393.882 33.0404V15.2112C393.882 14.1979 393.481 13.2261 392.768 12.5096C392.054 11.7931 391.087 11.3906 390.078 11.3906ZM363.455 19.0317H391.346V21.5788H383.611C383.027 21.5791 382.46 21.7822 382.008 22.1538C381.555 22.5254 381.244 23.0427 381.128 23.618C380.95 24.4783 380.483 25.2508 379.805 25.8054C379.126 26.36 378.279 26.6628 377.404 26.6628C376.529 26.6628 375.681 26.36 375.003 25.8054C374.325 25.2508 373.857 24.4783 373.68 23.618C373.563 23.0416 373.251 22.5235 372.798 22.1518C372.344 21.7801 371.776 21.5776 371.19 21.5788H363.455V19.0317ZM364.723 13.9377H390.078C390.415 13.9377 390.737 14.0718 390.975 14.3107C391.213 14.5495 391.346 14.8734 391.346 15.2112V16.4847H363.455V15.2112C363.455 14.8734 363.589 14.5495 363.827 14.3107C364.065 14.0718 364.387 13.9377 364.723 13.9377ZM390.078 34.314H364.723C364.387 34.314 364.065 34.1798 363.827 33.941C363.589 33.7021 363.455 33.3782 363.455 33.0404V24.1258H371.189C371.48 25.5644 372.258 26.8575 373.39 27.7863C374.522 28.715 375.938 29.2224 377.4 29.2224C378.861 29.2224 380.278 28.715 381.41 27.7863C382.542 26.8575 383.319 25.5644 383.611 24.1258H391.346V33.0404C391.346 33.3782 391.213 33.7021 390.975 33.941C390.737 34.1798 390.415 34.314 390.078 34.314Z" fill="#A9A9A9"/>
</g>
<g opacity="0.8">
<path d="M456.865 54.5088V45.4088H460.999C461.987 45.4088 462.858 45.5995 463.612 45.9808C464.366 46.3535 464.955 46.8778 465.38 47.5538C465.804 48.2298 466.017 49.0315 466.017 49.9588C466.017 50.8775 465.804 51.6791 465.38 52.3638C464.955 53.0398 464.366 53.5685 463.612 53.9498C462.858 54.3225 461.987 54.5088 460.999 54.5088H456.865ZM458.971 52.7798H460.895C461.501 52.7798 462.026 52.6671 462.468 52.4418C462.918 52.2078 463.265 51.8785 463.508 51.4538C463.759 51.0291 463.885 50.5308 463.885 49.9588C463.885 49.3781 463.759 48.8798 463.508 48.4638C463.265 48.0391 462.918 47.7141 462.468 47.4888C462.026 47.2548 461.501 47.1378 460.895 47.1378H458.971V52.7798ZM470.933 54.6128C470.136 54.6128 469.434 54.4568 468.827 54.1448C468.229 53.8328 467.765 53.4081 467.436 52.8708C467.107 52.3248 466.942 51.7051 466.942 51.0118C466.942 50.3098 467.102 49.6901 467.423 49.1528C467.752 48.6068 468.199 48.1821 468.762 47.8788C469.325 47.5668 469.962 47.4108 470.673 47.4108C471.358 47.4108 471.973 47.5581 472.519 47.8528C473.074 48.1388 473.511 48.5548 473.832 49.1008C474.153 49.6381 474.313 50.2838 474.313 51.0378C474.313 51.1158 474.309 51.2068 474.3 51.3108C474.291 51.4061 474.283 51.4971 474.274 51.5838H468.593V50.4008H473.208L472.428 50.7518C472.428 50.3878 472.354 50.0715 472.207 49.8028C472.06 49.5341 471.856 49.3261 471.596 49.1788C471.336 49.0228 471.033 48.9448 470.686 48.9448C470.339 48.9448 470.032 49.0228 469.763 49.1788C469.503 49.3261 469.299 49.5385 469.152 49.8158C469.005 50.0845 468.931 50.4051 468.931 50.7778V51.0898C468.931 51.4711 469.013 51.8091 469.178 52.1038C469.351 52.3898 469.59 52.6108 469.893 52.7668C470.205 52.9141 470.569 52.9878 470.985 52.9878C471.358 52.9878 471.683 52.9315 471.96 52.8188C472.246 52.7061 472.506 52.5371 472.74 52.3118L473.819 53.4818C473.498 53.8458 473.095 54.1275 472.61 54.3268C472.125 54.5175 471.566 54.6128 470.933 54.6128ZM475.663 54.5088V44.8628H477.691V54.5088H475.663ZM479.573 54.5088V47.5148H481.601V54.5088H479.573ZM480.587 46.5398C480.215 46.5398 479.911 46.4315 479.677 46.2148C479.443 45.9981 479.326 45.7295 479.326 45.4088C479.326 45.0881 479.443 44.8195 479.677 44.6028C479.911 44.3861 480.215 44.2778 480.587 44.2778C480.96 44.2778 481.263 44.3818 481.497 44.5898C481.731 44.7891 481.848 45.0491 481.848 45.3698C481.848 45.7078 481.731 45.9895 481.497 46.2148C481.272 46.4315 480.969 46.5398 480.587 46.5398ZM485.381 54.5088L482.443 47.5148H484.536L486.98 53.5338H485.94L488.475 47.5148H490.425L487.474 54.5088H485.381ZM494.533 54.6128C493.736 54.6128 493.034 54.4568 492.427 54.1448C491.829 53.8328 491.366 53.4081 491.036 52.8708C490.707 52.3248 490.542 51.7051 490.542 51.0118C490.542 50.3098 490.703 49.6901 491.023 49.1528C491.353 48.6068 491.799 48.1821 492.362 47.8788C492.926 47.5668 493.563 47.4108 494.273 47.4108C494.958 47.4108 495.573 47.5581 496.119 47.8528C496.674 48.1388 497.112 48.5548 497.432 49.1008C497.753 49.6381 497.913 50.2838 497.913 51.0378C497.913 51.1158 497.909 51.2068 497.9 51.3108C497.892 51.4061 497.883 51.4971 497.874 51.5838H492.193V50.4008H496.808L496.028 50.7518C496.028 50.3878 495.955 50.0715 495.807 49.8028C495.66 49.5341 495.456 49.3261 495.196 49.1788C494.936 49.0228 494.633 48.9448 494.286 48.9448C493.94 48.9448 493.632 49.0228 493.363 49.1788C493.103 49.3261 492.9 49.5385 492.752 49.8158C492.605 50.0845 492.531 50.4051 492.531 50.7778V51.0898C492.531 51.4711 492.614 51.8091 492.778 52.1038C492.952 52.3898 493.19 52.6108 493.493 52.7668C493.805 52.9141 494.169 52.9878 494.585 52.9878C494.958 52.9878 495.283 52.9315 495.56 52.8188C495.846 52.7061 496.106 52.5371 496.34 52.3118L497.419 53.4818C497.099 53.8458 496.696 54.1275 496.21 54.3268C495.725 54.5175 495.166 54.6128 494.533 54.6128ZM499.264 54.5088V47.5148H501.201V49.4908L500.928 48.9188C501.136 48.4248 501.469 48.0521 501.929 47.8008C502.388 47.5408 502.947 47.4108 503.606 47.4108V49.2828C503.519 49.2741 503.441 49.2698 503.372 49.2698C503.302 49.2611 503.229 49.2568 503.151 49.2568C502.596 49.2568 502.145 49.4171 501.799 49.7378C501.461 50.0498 501.292 50.5395 501.292 51.2068V54.5088H499.264ZM505.937 57.1348C505.573 57.1348 505.213 57.0785 504.858 56.9658C504.502 56.8531 504.212 56.6971 503.987 56.4978L504.728 55.0548C504.884 55.1935 505.061 55.3018 505.261 55.3798C505.469 55.4578 505.672 55.4968 505.872 55.4968C506.158 55.4968 506.383 55.4275 506.548 55.2888C506.721 55.1588 506.877 54.9378 507.016 54.6258L507.38 53.7678L507.536 53.5468L510.045 47.5148H511.995L508.836 54.9378C508.61 55.5011 508.35 55.9431 508.056 56.2638C507.77 56.5845 507.449 56.8098 507.094 56.9398C506.747 57.0698 506.361 57.1348 505.937 57.1348ZM507.133 54.7818L504.013 47.5148H506.106L508.524 53.3648L507.133 54.7818Z" fill="#A9A9A9"/>
<path d="M487.259 20.32C487.259 20.0227 487.347 19.732 487.513 19.4847C487.678 19.2375 487.913 19.0448 488.187 18.931C488.462 18.8172 488.764 18.7874 489.056 18.8454C489.348 18.9035 489.616 19.0466 489.826 19.2569C490.036 19.4672 490.179 19.7351 490.237 20.0267C490.295 20.3184 490.265 20.6206 490.152 20.8954C490.038 21.1701 489.845 21.4049 489.598 21.5701C489.351 21.7353 489.06 21.8235 488.763 21.8235C488.364 21.8235 487.982 21.6651 487.7 21.3831C487.418 21.1012 487.259 20.7188 487.259 20.32ZM485.756 24.8304C486.053 24.8304 486.344 24.7422 486.591 24.577C486.838 24.4118 487.031 24.177 487.145 23.9023C487.259 23.6276 487.288 23.3253 487.23 23.0336C487.172 22.742 487.029 22.4741 486.819 22.2638C486.609 22.0536 486.341 21.9104 486.049 21.8524C485.757 21.7944 485.455 21.8241 485.18 21.9379C484.906 22.0517 484.671 22.2444 484.506 22.4917C484.34 22.7389 484.252 23.0296 484.252 23.3269C484.252 23.7257 484.411 24.1081 484.693 24.39C484.975 24.672 485.357 24.8304 485.756 24.8304ZM482.749 27.8373C483.046 27.8373 483.337 27.7491 483.584 27.5839C483.831 27.4187 484.024 27.1839 484.138 26.9092C484.252 26.6345 484.281 26.3322 484.223 26.0405C484.165 25.7489 484.022 25.481 483.812 25.2708C483.602 25.0605 483.334 24.9173 483.042 24.8593C482.75 24.8013 482.448 24.831 482.173 24.9448C481.899 25.0586 481.664 25.2513 481.499 25.4986C481.334 25.7458 481.245 26.0365 481.245 26.3339C481.245 26.7326 481.404 27.115 481.686 27.397C481.968 27.6789 482.35 27.8373 482.749 27.8373ZM496.121 16.3639L496.045 16.5734C494.388 21.173 492.804 25.519 489.155 29.2937C488.883 31.8788 487.713 34.2865 485.847 36.0963C485.336 36.583 484.657 36.8556 483.952 36.8581C483.596 36.8581 483.244 36.7881 482.916 36.6521C482.588 36.5161 482.289 36.3167 482.038 36.0654C481.787 35.8141 481.587 35.5158 481.451 35.1875C481.315 34.8591 481.245 34.5072 481.245 34.1518V32.5171C480.657 32.301 480.111 31.9816 479.635 31.5739L477.798 33.4111C477.516 33.6932 477.134 33.8516 476.735 33.8516C476.336 33.8516 475.954 33.6932 475.672 33.4111C475.389 33.1291 475.231 32.7466 475.231 32.3477C475.231 31.9488 475.389 31.5663 475.672 31.2842L477.51 29.446C476.896 28.6971 476.499 27.7939 476.362 26.835H474.931C474.213 26.835 473.525 26.5499 473.017 26.0424C472.51 25.5349 472.225 24.8465 472.225 24.1288C472.227 23.4232 472.5 22.7455 472.986 22.2344C474.03 21.1681 475.274 20.3188 476.647 19.7353C478.021 19.1518 479.496 18.8457 480.988 18.8346C484.472 15.9349 488.391 14.5247 492.514 13.0373L492.723 12.9621C493.197 12.791 493.711 12.7586 494.203 12.8686C494.696 12.9786 495.147 13.2265 495.503 13.5832C495.86 13.94 496.108 14.3909 496.218 14.8833C496.328 15.3757 496.296 15.8893 496.125 16.3639H496.121ZM493.041 16.0422C488.674 17.6188 484.889 19.0571 481.646 22.2966C480.956 23.0757 480.313 23.8954 479.721 24.7512C479.405 25.1998 479.259 25.7455 479.306 26.2919C479.354 26.8383 479.594 27.3502 479.982 27.7371L481.41 29.1604C481.797 29.5479 482.308 29.7863 482.854 29.8336C483.4 29.8809 483.945 29.7341 484.393 29.419C485.247 28.83 486.048 28.1666 486.786 27.4364C490.026 24.1939 491.469 20.4082 493.041 16.0422Z" fill="#A9A9A9"/>
</g>
<path d="M36.5043 56.7878C35.8023 56.7878 35.148 56.6752 34.5413 56.4498C33.9433 56.2158 33.4233 55.8865 32.9813 55.4618C32.5393 55.0372 32.1926 54.5388 31.9413 53.9668C31.6986 53.3948 31.5773 52.7665 31.5773 52.0818C31.5773 51.3972 31.6986 50.7688 31.9413 50.1968C32.1926 49.6248 32.5393 49.1265 32.9813 48.7018C33.432 48.2772 33.9563 47.9522 34.5543 47.7268C35.1523 47.4928 35.8066 47.3758 36.5173 47.3758C37.306 47.3758 38.0166 47.5145 38.6493 47.7918C39.2906 48.0605 39.828 48.4592 40.2613 48.9878L38.9093 50.2358C38.5973 49.8805 38.2506 49.6162 37.8693 49.4428C37.488 49.2608 37.072 49.1698 36.6213 49.1698C36.1966 49.1698 35.8066 49.2392 35.4513 49.3778C35.096 49.5165 34.7883 49.7158 34.5283 49.9758C34.2683 50.2358 34.0646 50.5435 33.9173 50.8988C33.7786 51.2542 33.7093 51.6485 33.7093 52.0818C33.7093 52.5152 33.7786 52.9095 33.9173 53.2648C34.0646 53.6202 34.2683 53.9278 34.5283 54.1878C34.7883 54.4478 35.096 54.6472 35.4513 54.7858C35.8066 54.9245 36.1966 54.9938 36.6213 54.9938C37.072 54.9938 37.488 54.9072 37.8693 54.7338C38.2506 54.5518 38.5973 54.2788 38.9093 53.9148L40.2613 55.1628C39.828 55.6915 39.2906 56.0945 38.6493 56.3718C38.0166 56.6492 37.3016 56.7878 36.5043 56.7878ZM44.6273 56.7358C43.8819 56.7358 43.2189 56.5798 42.6383 56.2678C42.0663 55.9558 41.6113 55.5312 41.2733 54.9938C40.9439 54.4478 40.7793 53.8282 40.7793 53.1348C40.7793 52.4328 40.9439 51.8132 41.2733 51.2758C41.6113 50.7298 42.0663 50.3052 42.6383 50.0018C43.2189 49.6898 43.8819 49.5338 44.6273 49.5338C45.3639 49.5338 46.0226 49.6898 46.6033 50.0018C47.1839 50.3052 47.6389 50.7255 47.9683 51.2628C48.2976 51.8002 48.4623 52.4242 48.4623 53.1348C48.4623 53.8282 48.2976 54.4478 47.9683 54.9938C47.6389 55.5312 47.1839 55.9558 46.6033 56.2678C46.0226 56.5798 45.3639 56.7358 44.6273 56.7358ZM44.6273 55.0718C44.9653 55.0718 45.2686 54.9938 45.5373 54.8378C45.8059 54.6818 46.0183 54.4608 46.1743 54.1748C46.3303 53.8802 46.4083 53.5335 46.4083 53.1348C46.4083 52.7275 46.3303 52.3808 46.1743 52.0948C46.0183 51.8088 45.8059 51.5878 45.5373 51.4318C45.2686 51.2758 44.9653 51.1978 44.6273 51.1978C44.2893 51.1978 43.9859 51.2758 43.7173 51.4318C43.4486 51.5878 43.2319 51.8088 43.0673 52.0948C42.9113 52.3808 42.8333 52.7275 42.8333 53.1348C42.8333 53.5335 42.9113 53.8802 43.0673 54.1748C43.2319 54.4608 43.4486 54.6818 43.7173 54.8378C43.9859 54.9938 44.2893 55.0718 44.6273 55.0718ZM54.0688 49.5338C54.6235 49.5338 55.1175 49.6465 55.5508 49.8718C55.9928 50.0885 56.3395 50.4265 56.5908 50.8858C56.8422 51.3365 56.9678 51.9172 56.9678 52.6278V56.6318H54.9398V52.9398C54.9398 52.3765 54.8142 51.9605 54.5628 51.6918C54.3202 51.4232 53.9735 51.2888 53.5228 51.2888C53.2022 51.2888 52.9118 51.3582 52.6518 51.4968C52.4005 51.6268 52.2012 51.8305 52.0538 52.1078C51.9152 52.3852 51.8458 52.7405 51.8458 53.1738V56.6318H49.8178V49.6378H51.7548V51.5748L51.3908 50.9898C51.6422 50.5218 52.0018 50.1622 52.4698 49.9108C52.9378 49.6595 53.4708 49.5338 54.0688 49.5338ZM61.1591 56.7358C60.5611 56.7358 59.9848 56.6665 59.4301 56.5278C58.8841 56.3805 58.4508 56.1985 58.1301 55.9818L58.8061 54.5258C59.1268 54.7252 59.5038 54.8898 59.9371 55.0198C60.3791 55.1412 60.8125 55.2018 61.2371 55.2018C61.7051 55.2018 62.0345 55.1455 62.2251 55.0328C62.4245 54.9202 62.5241 54.7642 62.5241 54.5648C62.5241 54.4002 62.4461 54.2788 62.2901 54.2008C62.1428 54.1142 61.9435 54.0492 61.6921 54.0058C61.4408 53.9625 61.1635 53.9192 60.8601 53.8758C60.5655 53.8325 60.2665 53.7762 59.9631 53.7068C59.6598 53.6288 59.3825 53.5162 59.1311 53.3688C58.8798 53.2215 58.6761 53.0222 58.5201 52.7708C58.3728 52.5195 58.2991 52.1945 58.2991 51.7958C58.2991 51.3538 58.4248 50.9638 58.6761 50.6258C58.9361 50.2878 59.3088 50.0235 59.7941 49.8328C60.2795 49.6335 60.8601 49.5338 61.5361 49.5338C62.0128 49.5338 62.4981 49.5858 62.9921 49.6898C63.4861 49.7938 63.8978 49.9455 64.2271 50.1448L63.5511 51.5878C63.2131 51.3885 62.8708 51.2542 62.5241 51.1848C62.1861 51.1068 61.8568 51.0678 61.5361 51.0678C61.0855 51.0678 60.7561 51.1285 60.5481 51.2498C60.3401 51.3712 60.2361 51.5272 60.2361 51.7178C60.2361 51.8912 60.3098 52.0212 60.4571 52.1078C60.6131 52.1945 60.8168 52.2638 61.0681 52.3158C61.3195 52.3678 61.5925 52.4155 61.8871 52.4588C62.1905 52.4935 62.4938 52.5498 62.7971 52.6278C63.1005 52.7058 63.3735 52.8185 63.6161 52.9658C63.8675 53.1045 64.0711 53.2995 64.2271 53.5508C64.3831 53.7935 64.4611 54.1142 64.4611 54.5128C64.4611 54.9462 64.3311 55.3318 64.0711 55.6698C63.8111 55.9992 63.4341 56.2592 62.9401 56.4498C62.4548 56.6405 61.8611 56.7358 61.1591 56.7358ZM69.0404 56.7358C68.295 56.7358 67.632 56.5798 67.0514 56.2678C66.4794 55.9558 66.0244 55.5312 65.6864 54.9938C65.357 54.4478 65.1924 53.8282 65.1924 53.1348C65.1924 52.4328 65.357 51.8132 65.6864 51.2758C66.0244 50.7298 66.4794 50.3052 67.0514 50.0018C67.632 49.6898 68.295 49.5338 69.0404 49.5338C69.777 49.5338 70.4357 49.6898 71.0164 50.0018C71.597 50.3052 72.052 50.7255 72.3814 51.2628C72.7107 51.8002 72.8754 52.4242 72.8754 53.1348C72.8754 53.8282 72.7107 54.4478 72.3814 54.9938C72.052 55.5312 71.597 55.9558 71.0164 56.2678C70.4357 56.5798 69.777 56.7358 69.0404 56.7358ZM69.0404 55.0718C69.3784 55.0718 69.6817 54.9938 69.9504 54.8378C70.219 54.6818 70.4314 54.4608 70.5874 54.1748C70.7434 53.8802 70.8214 53.5335 70.8214 53.1348C70.8214 52.7275 70.7434 52.3808 70.5874 52.0948C70.4314 51.8088 70.219 51.5878 69.9504 51.4318C69.6817 51.2758 69.3784 51.1978 69.0404 51.1978C68.7024 51.1978 68.399 51.2758 68.1304 51.4318C67.8617 51.5878 67.645 51.8088 67.4804 52.0948C67.3244 52.3808 67.2464 52.7275 67.2464 53.1348C67.2464 53.5335 67.3244 53.8802 67.4804 54.1748C67.645 54.4608 67.8617 54.6818 68.1304 54.8378C68.399 54.9938 68.7024 55.0718 69.0404 55.0718ZM74.2309 56.6318V46.9858H76.2589V56.6318H74.2309ZM81.6121 56.7358C80.8147 56.7358 80.1127 56.5798 79.5061 56.2678C78.9081 55.9558 78.4444 55.5312 78.1151 54.9938C77.7857 54.4478 77.6211 53.8282 77.6211 53.1348C77.6211 52.4328 77.7814 51.8132 78.1021 51.2758C78.4314 50.7298 78.8777 50.3052 79.4411 50.0018C80.0044 49.6898 80.6414 49.5338 81.3521 49.5338C82.0367 49.5338 82.6521 49.6812 83.1981 49.9758C83.7527 50.2618 84.1904 50.6778 84.5111 51.2238C84.8317 51.7612 84.9921 52.4068 84.9921 53.1608C84.9921 53.2388 84.9877 53.3298 84.9791 53.4338C84.9704 53.5292 84.9617 53.6202 84.9531 53.7068H79.2721V52.5238H83.8871L83.1071 52.8748C83.1071 52.5108 83.0334 52.1945 82.8861 51.9258C82.7387 51.6572 82.5351 51.4492 82.2751 51.3018C82.0151 51.1458 81.7117 51.0678 81.3651 51.0678C81.0184 51.0678 80.7107 51.1458 80.4421 51.3018C80.1821 51.4492 79.9784 51.6615 79.8311 51.9388C79.6837 52.2075 79.6101 52.5282 79.6101 52.9008V53.2128C79.6101 53.5942 79.6924 53.9322 79.8571 54.2268C80.0304 54.5128 80.2687 54.7338 80.5721 54.8898C80.8841 55.0372 81.2481 55.1108 81.6641 55.1108C82.0367 55.1108 82.3617 55.0545 82.6391 54.9418C82.9251 54.8292 83.1851 54.6602 83.4191 54.4348L84.4981 55.6048C84.1774 55.9688 83.7744 56.2505 83.2891 56.4498C82.8037 56.6405 82.2447 56.7358 81.6121 56.7358Z" fill="white"/>
<path fill-rule="evenodd" clip-rule="evenodd" d="M53.1514 31.1707H62.4619C63.0813 33.3142 64.507 35.1374 66.4432 36.2553C68.4285 37.4015 70.788 37.7121 73.0024 37.1188C73.004 37.1183 73.0057 37.1179 73.0073 37.1174C75.2217 36.5241 77.1097 35.0754 78.256 33.09C79.4022 31.1047 79.7128 28.7452 79.1195 26.5308C78.3205 23.5489 77.3889 20.0723 76.5899 17.0903C75.9966 14.8759 74.5479 12.9879 72.5625 11.8417C70.5771 10.6954 68.2177 10.3848 66.0033 10.9781C66.0016 10.9786 66 10.979 65.9983 10.9795C64.7244 11.3208 63.5584 11.9453 62.5796 12.7923C62.5802 12.7917 53.033 12.7917 53.033 12.7917C52.0554 11.9456 50.8892 11.3209 49.6149 10.9794C49.6133 10.979 49.6116 10.9786 49.61 10.9781C47.3956 10.3848 45.0362 10.6954 43.0508 11.8417C41.0654 12.9879 39.6167 14.8759 39.0234 17.0903C38.2244 20.0723 37.2928 23.5489 36.4938 26.5308C35.9004 28.7452 36.2111 31.1047 37.3573 33.09C38.5036 35.0754 40.3916 36.5241 42.606 37.1174C42.6076 37.1179 42.6093 37.1183 42.6109 37.1188C44.8253 37.7121 47.1847 37.4015 49.1701 36.2553C51.1062 35.1374 52.532 33.3142 53.1514 31.1707ZM64.9815 29.3697C64.6513 28.2367 63.5947 28.2687 63.5731 28.2687C57.7607 28.2869 52.0402 28.2687 52.0402 28.2687C51.2884 28.2868 50.7866 28.7849 50.6318 29.3697C50.5333 29.742 50.4757 29.9515 50.4001 30.2347C50.2781 30.6913 50.2777 30.6912 50.3945 30.2555C50.0003 31.7265 49.038 32.9807 47.7191 33.7421C46.4003 34.5035 44.833 34.7098 43.362 34.3157L43.357 34.3144C41.886 33.9202 40.6319 32.9579 39.8705 31.639C39.109 30.3202 38.9027 28.7529 39.2969 27.2819C40.0958 24.3 41.0274 20.8233 41.8264 17.8414C42.2206 16.3704 43.1829 15.1163 44.5018 14.3548C45.8206 13.5934 47.3879 13.387 48.8589 13.7812L48.8638 13.7825C49.8459 14.0457 50.7313 14.562 51.4379 15.2687C51.71 15.5408 52.0791 15.6936 52.4639 15.6936H63.1494C63.5342 15.6936 63.9033 15.5408 64.1754 15.2687C64.882 14.562 65.7674 14.0457 66.7494 13.7825L66.7544 13.7812C68.2254 13.387 69.7927 13.5934 71.1115 14.3548C72.4303 15.1163 73.3927 16.3704 73.7869 17.8414C74.5859 20.8233 75.5174 24.3 76.3164 27.2819C76.7106 28.7529 76.5042 30.3202 75.7428 31.639C74.9814 32.9579 73.7272 33.9202 72.2562 34.3144L72.2513 34.3157C70.7803 34.7098 69.213 34.5035 67.8941 33.7421C66.5883 32.9881 65.632 31.7512 65.2306 30.2989L64.9815 29.3697ZM53.1428 31.1707H53.1421L53.1382 31.1813L53.1078 31.2507C53.1203 31.2245 53.132 31.1978 53.1428 31.1707ZM46.1989 20.3463H44.7583C43.9575 20.3463 43.3073 20.9965 43.3073 21.7973C43.3073 22.5981 43.9575 23.2482 44.7583 23.2482H46.1989V24.6888C46.1989 25.4896 46.849 26.1398 47.6499 26.1398C48.4507 26.1398 49.1008 25.4896 49.1008 24.6888V23.2482H50.5414C51.3422 23.2482 51.9923 22.5981 51.9923 21.7973C51.9923 20.9965 51.3422 20.3463 50.5414 20.3463H49.1008V18.9057C49.1008 18.1049 48.4507 17.4548 47.6499 17.4548C46.849 17.4548 46.1989 18.1049 46.1989 18.9057V20.3463Z" fill="white"/>
<path fill-rule="evenodd" clip-rule="evenodd" d="M66.4397 24.6035C66.4397 23.756 67.1278 23.0678 67.9753 23.0678C68.8229 23.0678 69.5109 23.756 69.5109 24.6035C69.5109 25.451 68.8229 26.1391 67.9753 26.1391C67.1278 26.1391 66.4397 25.451 66.4397 24.6035ZM70.7822 20.261C71.6297 20.261 72.3178 20.9491 72.3178 21.7966C72.3178 22.6442 71.6297 23.3322 70.7822 23.3322C69.9347 23.3322 69.2466 22.6442 69.2466 21.7966C69.2466 20.9491 69.9347 20.261 70.7822 20.261ZM65.1685 20.261C66.016 20.261 66.7041 20.9491 66.7041 21.7966C66.7041 22.6442 66.016 23.3322 65.1685 23.3322C64.3209 23.3322 63.6328 22.6442 63.6328 21.7966C63.6328 20.9491 64.3209 20.261 65.1685 20.261ZM66.4397 18.9898C66.4397 18.1422 67.1278 17.4541 67.9753 17.4541C68.8229 17.4541 69.5109 18.1422 69.5109 18.9898C69.5109 19.8373 68.8229 20.5254 67.9753 20.5254C67.1278 20.5254 66.4397 19.8373 66.4397 18.9898Z" fill="white"/>
<rect x="1" y="81" width="262" height="163" rx="7" fill="#1349C3"/>
<path d="M102.674 195.53H94.389C93.9207 195.479 93.4469 195.531 93.0006 195.682C92.5544 195.833 92.1465 196.079 91.8054 196.404C91.4642 196.73 91.1981 197.125 91.0256 197.564C90.853 198.003 90.7782 198.474 90.8064 198.944V204.815C90.8064 206.01 90.2377 206.869 89.0435 206.869H81.2395C81.2159 206.869 81.1932 206.878 81.1765 206.895C81.1598 206.912 81.1504 206.935 81.1504 206.958V208.138C81.1504 208.162 81.1598 208.184 81.1765 208.201C81.1932 208.218 81.2159 208.227 81.2395 208.227H89.9363C90.4049 208.279 90.8789 208.227 91.3255 208.076C91.772 207.925 92.1803 207.678 92.5218 207.353C92.8633 207.028 93.1298 206.633 93.3026 206.194C93.4755 205.755 93.5506 205.284 93.5227 204.813V198.944C93.5227 197.745 94.0914 196.886 95.2818 196.886H102.674C102.686 196.886 102.698 196.884 102.709 196.879C102.719 196.875 102.729 196.868 102.737 196.86C102.746 196.852 102.752 196.842 102.757 196.831C102.761 196.82 102.764 196.809 102.764 196.797V195.621C102.764 195.597 102.754 195.575 102.737 195.558C102.721 195.541 102.698 195.53 102.674 195.53Z" fill="white"/>
<path d="M78.1791 195.533H63.1719C63.1483 195.533 63.1257 195.543 63.1089 195.559C63.0922 195.576 63.0829 195.599 63.0829 195.622V196.802C63.0838 196.826 63.094 196.849 63.1114 196.866C63.1287 196.882 63.1518 196.891 63.1757 196.891H77.2787C78.4729 196.891 79.0378 197.751 79.0378 198.946C79.0378 200.141 78.4691 201.004 77.2787 201.004H66.1157C65.6916 201.019 65.275 201.12 64.8906 201.3C64.5063 201.48 64.1623 201.736 63.8791 202.052C63.5959 202.368 63.3794 202.739 63.2426 203.141C63.1058 203.543 63.0515 203.968 63.0829 204.391V208.136C63.0823 208.148 63.0843 208.16 63.0885 208.171C63.0928 208.182 63.0994 208.192 63.1077 208.2C63.1161 208.208 63.1262 208.215 63.1372 208.219C63.1483 208.224 63.1601 208.226 63.1719 208.225H65.712C65.7356 208.225 65.7583 208.216 65.775 208.199C65.7917 208.182 65.8011 208.159 65.8011 208.136V204.39C65.8011 203.195 66.493 202.356 67.4787 202.356H78.1734C78.6417 202.407 79.1155 202.355 79.5617 202.204C80.008 202.053 80.4159 201.807 80.757 201.482C81.0981 201.156 81.3642 200.761 81.5368 200.322C81.7093 199.883 81.7841 199.412 81.756 198.942C81.7838 198.471 81.7088 198.001 81.5361 197.562C81.3635 197.124 81.0973 196.728 80.7563 196.403C80.4152 196.078 80.0075 195.831 79.5614 195.68C79.1153 195.529 78.6416 195.477 78.1734 195.528" fill="white"/>
<path d="M122.391 205.513H119.851C119.827 205.513 119.804 205.504 119.787 205.487C119.769 205.471 119.759 205.448 119.758 205.424V196.888C119.758 195.574 118.85 195.147 117.574 195.94L102.266 205.346C101.663 205.726 101.462 206.131 101.608 206.441C101.754 206.75 102.061 206.89 102.725 206.89H116.928C116.946 206.892 116.964 206.9 116.979 206.911C116.993 206.923 117.004 206.939 117.009 206.957V208.155C117.009 208.179 117.019 208.202 117.035 208.22C117.052 208.237 117.075 208.247 117.099 208.248H119.65C119.674 208.247 119.697 208.237 119.713 208.22C119.73 208.202 119.739 208.179 119.739 208.155V206.972C119.739 206.948 119.748 206.925 119.765 206.907C119.782 206.89 119.804 206.88 119.828 206.879H122.391C122.415 206.879 122.438 206.87 122.455 206.853C122.473 206.836 122.483 206.814 122.484 206.79V205.614C122.483 205.59 122.473 205.567 122.455 205.55C122.438 205.534 122.415 205.524 122.391 205.524M117.03 205.428C117.03 205.452 117.021 205.475 117.004 205.492C116.988 205.509 116.965 205.52 116.941 205.521H105.037C104.94 205.521 104.891 205.494 104.878 205.462C104.865 205.43 104.878 205.365 104.967 205.316L116.812 198.015C116.894 197.964 117.032 197.973 117.032 198.134L117.03 205.428Z" fill="white"/>
<path d="M171.117 195.19C170.628 195.135 170.133 195.187 169.666 195.344C169.2 195.5 168.773 195.756 168.416 196.095C168.058 196.433 167.779 196.846 167.597 197.303C167.416 197.761 167.336 198.253 167.364 198.744V204.321C167.384 204.613 167.346 204.905 167.252 205.182C167.157 205.459 167.009 205.714 166.815 205.933C166.62 206.151 166.384 206.329 166.121 206.455C165.857 206.581 165.571 206.653 165.279 206.667H158.76C158.735 206.667 158.712 206.677 158.694 206.694C158.677 206.712 158.667 206.736 158.667 206.76V207.989C158.667 208.014 158.677 208.038 158.694 208.055C158.712 208.072 158.735 208.082 158.76 208.082H166.445C168.966 208.082 170.202 206.754 170.202 204.751V198.744C170.194 198.459 170.244 198.175 170.35 197.91C170.456 197.645 170.615 197.405 170.818 197.204C171.021 197.003 171.262 196.846 171.528 196.742C171.793 196.638 172.078 196.59 172.363 196.601H178.917C178.93 196.601 178.942 196.598 178.953 196.594C178.964 196.589 178.974 196.582 178.983 196.574C178.992 196.565 178.999 196.555 179.003 196.543C179.008 196.532 179.01 196.52 179.01 196.508V195.282C179.01 195.27 179.008 195.258 179.003 195.247C178.999 195.236 178.992 195.225 178.983 195.217C178.974 195.208 178.964 195.201 178.953 195.197C178.942 195.192 178.93 195.19 178.917 195.19H171.117ZM155.814 195.129H140.659C140.635 195.129 140.611 195.139 140.594 195.156C140.576 195.173 140.566 195.197 140.566 195.222V196.561C140.567 196.586 140.578 196.61 140.596 196.627C140.614 196.644 140.638 196.654 140.663 196.654H154.88C155.135 196.663 155.385 196.724 155.617 196.831C155.848 196.939 156.056 197.092 156.227 197.281C156.399 197.47 156.531 197.692 156.615 197.932C156.7 198.173 156.736 198.429 156.72 198.683C156.732 199.194 156.548 199.69 156.205 200.068C155.863 200.447 155.389 200.68 154.88 200.719H143.751C143.301 200.744 142.86 200.86 142.455 201.058C142.05 201.256 141.688 201.533 141.391 201.873C141.094 202.212 140.868 202.608 140.726 203.036C140.584 203.464 140.528 203.916 140.563 204.366V208.048C140.562 208.06 140.564 208.073 140.569 208.084C140.573 208.096 140.58 208.106 140.589 208.115C140.597 208.124 140.608 208.131 140.619 208.135C140.631 208.14 140.643 208.142 140.656 208.141H143.309C143.334 208.141 143.358 208.131 143.375 208.114C143.392 208.096 143.402 208.073 143.402 208.048V204.353C143.379 203.802 143.572 203.263 143.94 202.853C144.309 202.442 144.823 202.192 145.374 202.157L155.799 202.236C156.289 202.292 156.785 202.24 157.253 202.084C157.72 201.928 158.148 201.671 158.506 201.332C158.864 200.992 159.144 200.579 159.325 200.12C159.506 199.661 159.585 199.168 159.556 198.676C159.584 198.185 159.504 197.693 159.323 197.236C159.142 196.779 158.863 196.366 158.506 196.028C158.149 195.69 157.722 195.433 157.256 195.277C156.79 195.12 156.295 195.067 155.807 195.121" fill="white"/>
<path fill-rule="evenodd" clip-rule="evenodd" d="M181.844 195.188H200.019C200.104 195.188 200.147 195.221 200.147 195.288V196.534C200.147 196.595 200.104 196.622 200.019 196.616H184.627C184.543 196.616 184.49 196.644 184.469 196.701V199.71C184.473 199.957 184.572 200.193 184.744 200.369C184.917 200.546 185.151 200.649 185.398 200.658H196.961C197.452 200.648 197.941 200.736 198.397 200.918C198.854 201.1 199.269 201.372 199.619 201.717C199.969 202.063 200.246 202.475 200.434 202.929C200.623 203.383 200.718 203.871 200.714 204.362C200.717 205.306 200.363 206.216 199.722 206.909C199.081 207.601 198.201 208.024 197.26 208.094H181.853C181.778 208.094 181.742 208.082 181.742 207.989C181.742 207.896 181.742 206.817 181.742 206.758C181.742 206.699 181.766 206.669 181.853 206.669H195.448C196.072 206.675 196.674 206.437 197.126 206.007C197.578 205.576 197.844 204.986 197.869 204.362C197.854 203.802 197.633 203.267 197.248 202.859C196.864 202.452 196.342 202.201 195.784 202.155H183.578C183.331 202.148 183.087 202.089 182.863 201.983C182.64 201.877 182.44 201.725 182.278 201.538C182.081 201.337 181.931 201.095 181.84 200.829C181.749 200.563 181.718 200.279 181.751 200V195.296C181.732 195.222 181.77 195.188 181.844 195.188Z" fill="white"/>
<path d="M131.361 192.477V210.861" stroke="white" stroke-linecap="round"/>
<circle opacity="0.3" cx="132.021" cy="144.547" r="29.5467" fill="white"/>
<path d="M126.941 129.069V155.51L132.932 157.41V135.225C132.932 134.202 133.394 133.495 134.143 133.734C135.122 134.005 135.311 134.965 135.311 135.997V144.862C139.045 146.665 141.978 144.862 141.978 140.113C141.978 135.238 140.265 133.078 135.208 131.349C132.499 130.428 129.739 129.667 126.941 129.069Z" fill="white"/>
<path d="M134.242 153.483L143.888 150.029C144.982 149.637 145.15 149.076 144.263 148.787C143.071 148.511 141.827 148.575 140.67 148.972L134.242 151.241V147.632L134.611 147.509C136.065 147.036 137.563 146.714 139.083 146.55C141.895 146.262 144.735 146.602 147.4 147.546C150.228 148.448 150.546 149.767 149.829 150.68C149.125 151.37 148.279 151.898 147.349 152.226L134.242 156.975V153.483ZM116.108 153.193C113.222 152.374 112.742 150.666 114.068 149.676C115.09 149.005 116.194 148.47 117.353 148.082L125.895 144.988V148.485L119.775 150.713C118.689 151.106 118.525 151.661 119.402 151.957C120.586 152.234 121.824 152.169 122.972 151.77L125.92 150.687V153.853L125.333 153.946C122.257 154.45 119.106 154.193 116.152 153.199" fill="white"/>
<rect x="279" y="81" width="262" height="163" rx="7" fill="#107C10"/>
<path d="M424.375 185.704L428.227 190.937L432.077 185.704H433.847L429.124 192.119L434.295 199.179H432.532L428.229 193.336L423.928 199.179H422.154L427.325 192.12L422.604 185.704H424.375Z" fill="white"/>
<path d="M408.84 192.63C408.573 192.404 408.276 192.215 407.957 192.068C408.447 191.808 408.856 191.42 409.141 190.944C409.426 190.469 409.577 189.925 409.576 189.371C409.576 188.509 409.258 185.706 405.196 185.706H399.725V191.515H397.902C397.666 191.823 397.129 192.567 396.924 192.867H399.725V199.179H405.196C408.16 199.179 410.001 197.673 410.001 195.246C410.014 194.751 409.916 194.259 409.715 193.807C409.514 193.354 409.216 192.952 408.84 192.63ZM401.236 187.112H405.194C406.266 187.112 408.06 187.375 408.06 189.253C408.06 190.671 407.008 191.515 405.194 191.515H401.236V187.112ZM405.194 197.775H401.236V192.868H405.194C406.696 192.868 408.491 193.282 408.491 195.217C408.491 197.441 406.427 197.773 405.194 197.773" fill="white"/>
<path d="M417.117 185.394C413.333 185.394 410.688 188.287 410.688 192.433C410.688 196.58 413.332 199.477 417.117 199.477C420.902 199.477 423.536 196.584 423.536 192.433C423.536 188.283 420.899 185.394 417.117 185.394ZM417.117 198.053C414.234 198.053 412.214 195.742 412.214 192.433C412.214 189.124 414.234 186.818 417.117 186.818C420 186.818 422.005 189.128 422.005 192.433C422.005 195.738 419.996 198.053 417.117 198.053Z" fill="white"/>
<path d="M387.295 185.704L392.019 192.119L386.84 199.177H388.614L392.913 193.336L397.215 199.177H398.987L393.809 192.119L398.534 185.704H396.762L392.905 190.938L389.061 185.704H387.295Z" fill="white"/>
<circle opacity="0.3" cx="411.133" cy="145.284" r="29.5897" fill="white"/>
<path d="M408.817 129.68C407.501 129.845 406.208 130.152 404.958 130.594C404.07 130.886 403.228 131.301 402.457 131.828C402.457 131.911 402.701 131.983 403.1 132.024C405.401 132.549 407.594 133.468 409.582 134.74C409.976 134.998 410.397 135.212 410.838 135.377C411.277 135.216 411.695 135.002 412.083 134.74C413.571 133.849 415.132 133.086 416.749 132.457C417.287 132.289 417.836 132.155 418.392 132.057C418.923 131.985 419.199 131.892 419.199 131.81C417.984 130.969 416.613 130.382 415.167 130.083C413.095 129.545 410.94 129.408 408.817 129.68Z" fill="white"/>
<path d="M398.951 134.471C396.314 137.074 394.653 140.505 394.246 144.188C394.009 145.963 394.081 147.765 394.46 149.515C394.867 151.491 395.637 153.374 396.732 155.068C397.406 156.076 397.518 156.062 397.6 154.986C397.917 150.934 401.04 145.371 406.236 139.647C406.545 139.329 406.822 138.982 407.063 138.609C406.242 137.649 405.339 136.761 404.365 135.956C403.183 134.84 401.787 133.976 400.262 133.417C400.033 133.423 399.747 133.66 398.951 134.471Z" fill="white"/>
<path d="M420.662 133.721C418.92 134.678 417.328 135.883 415.935 137.3C415.48 137.7 415.069 138.148 414.711 138.636C415.035 139.138 415.408 139.606 415.823 140.035C420.226 144.982 423.029 149.701 423.897 153.651C424.01 154.158 424.079 154.674 424.101 155.193C424.101 155.768 424.121 155.841 424.296 155.841C425.056 155.06 425.649 154.134 426.04 153.117C427.188 150.745 427.705 148.116 427.541 145.486C427.51 142.302 426.494 139.205 424.633 136.621C423.782 135.391 422.734 134.31 421.529 133.423C421.227 133.479 420.935 133.58 420.662 133.721Z" fill="white"/>
<path d="M409.71 142.802C407.031 145.189 404.545 147.785 402.278 150.566C400.652 152.493 399.305 154.639 398.277 156.942C398.849 157.742 399.537 158.452 400.318 159.049C402.134 160.488 404.227 161.537 406.466 162.134C408.705 162.73 411.042 162.859 413.333 162.515C416.954 161.964 420.306 160.279 422.908 157.702C423.327 157.301 423.388 157.187 423.388 156.817C423.378 154.925 419.696 150.235 413.599 144.363C412.775 143.473 411.866 142.667 410.883 141.957C410.448 142.172 410.052 142.458 409.71 142.802Z" fill="white"/>
<path d="M408.233 210.016C406.988 209.957 405.757 210.301 404.723 210.998C404.312 211.307 403.982 211.711 403.762 212.176C403.542 212.64 403.438 213.152 403.459 213.665C403.433 214.149 403.513 214.633 403.695 215.082C403.877 215.531 404.156 215.934 404.511 216.263C405.421 217.002 406.51 217.486 407.668 217.666L408.792 217.946C409.624 218.111 410.427 218.395 411.178 218.789C411.382 218.946 411.546 219.149 411.656 219.382C411.767 219.615 411.82 219.87 411.813 220.128C411.819 220.448 411.753 220.766 411.619 221.058C411.485 221.349 411.288 221.607 411.041 221.811C410.336 222.211 409.533 222.405 408.724 222.373C407.751 222.427 406.788 222.155 405.987 221.601C405.669 221.324 405.42 220.977 405.262 220.586C405.103 220.196 405.039 219.773 405.074 219.353H403.108C403.065 220.03 403.183 220.707 403.451 221.329C403.72 221.951 404.132 222.501 404.653 222.934C405.847 223.814 407.316 224.237 408.795 224.127C410.162 224.205 411.517 223.836 412.656 223.075C413.104 222.727 413.464 222.28 413.708 221.768C413.952 221.256 414.072 220.694 414.059 220.128C414.079 219.655 413.995 219.184 413.814 218.747C413.632 218.31 413.356 217.919 413.007 217.6C412.031 216.837 410.867 216.352 409.638 216.197L408.445 215.917C407.625 215.788 406.839 215.502 406.128 215.074C405.912 214.913 405.741 214.699 405.63 214.454C405.519 214.208 405.473 213.939 405.495 213.671C405.478 213.395 405.533 213.121 405.657 212.874C405.78 212.628 405.967 212.418 406.197 212.267C406.807 211.891 407.52 211.72 408.233 211.777C409.1 211.701 409.967 211.924 410.69 212.409C410.949 212.653 411.158 212.946 411.302 213.272C411.447 213.597 411.525 213.948 411.531 214.304H413.636C413.656 213.706 413.541 213.111 413.298 212.565C413.055 212.018 412.69 211.533 412.232 211.148C411.075 210.31 409.658 209.909 408.233 210.016ZM458.178 210.016C456.933 209.957 455.702 210.301 454.668 210.998C454.257 211.307 453.927 211.711 453.707 212.176C453.487 212.641 453.384 213.152 453.405 213.665C453.379 214.149 453.459 214.633 453.641 215.082C453.823 215.531 454.102 215.934 454.457 216.263C455.368 217.003 456.458 217.488 457.618 217.667L458.741 217.947C459.573 218.112 460.377 218.396 461.128 218.79C461.33 218.947 461.493 219.15 461.603 219.381C461.713 219.613 461.766 219.867 461.759 220.124C461.765 220.444 461.699 220.762 461.565 221.054C461.431 221.345 461.234 221.603 460.987 221.807C460.282 222.205 459.479 222.398 458.67 222.363C457.697 222.418 456.733 222.146 455.932 221.591C455.614 221.315 455.365 220.967 455.207 220.577C455.048 220.186 454.984 219.764 455.019 219.344H452.983C452.94 220.02 453.058 220.697 453.326 221.32C453.595 221.942 454.007 222.492 454.529 222.925C455.722 223.805 457.191 224.228 458.67 224.118C460.037 224.196 461.392 223.826 462.531 223.066C462.977 222.719 463.336 222.273 463.579 221.762C463.822 221.252 463.942 220.693 463.93 220.128C464.007 219.663 463.964 219.187 463.804 218.745C463.644 218.302 463.373 217.908 463.017 217.6C462.042 216.837 460.877 216.352 459.648 216.197L458.455 215.917C457.636 215.788 456.849 215.502 456.138 215.074C455.923 214.913 455.752 214.699 455.641 214.454C455.531 214.208 455.485 213.939 455.507 213.671C455.489 213.395 455.545 213.121 455.669 212.874C455.792 212.628 455.979 212.418 456.209 212.267C456.818 211.891 457.531 211.719 458.244 211.777C459.111 211.701 459.978 211.924 460.7 212.409C460.96 212.653 461.169 212.946 461.313 213.272C461.458 213.597 461.536 213.948 461.543 214.304H463.579C463.6 213.706 463.484 213.111 463.241 212.564C462.997 212.018 462.633 211.533 462.174 211.148C461.018 210.311 459.602 209.91 458.178 210.016ZM415.043 210.367V223.913H424.66V222.017H417.085V217.876H423.82V216.122H417.085V212.191H424.667V210.366L415.043 210.367ZM426.001 210.367V223.913H428.036V218.368H431.973C432.277 218.346 432.582 218.384 432.871 218.48C433.16 218.576 433.427 218.729 433.657 218.928C434.071 219.442 434.272 220.096 434.218 220.754L434.288 222.229C434.25 222.843 434.397 223.454 434.709 223.984H436.813C436.583 223.424 436.441 222.832 436.392 222.229L436.253 220.125C436.259 219.483 436.089 218.851 435.761 218.298C435.427 217.826 434.925 217.5 434.358 217.387C435.024 217.2 435.598 216.775 435.973 216.193C436.41 215.581 436.632 214.841 436.605 214.089C436.634 213.564 436.535 213.04 436.314 212.563C436.094 212.086 435.76 211.67 435.341 211.352C434.334 210.655 433.125 210.31 431.901 210.37L426.001 210.367ZM438.152 210.367V223.913H440.187V210.367H438.152ZM442.44 210.367V223.913H452.134V222.017H444.482V217.876H451.221V216.122H444.482V212.191H452.134V210.366L442.44 210.367ZM428.183 212.121H431.833C432.532 212.082 433.225 212.28 433.799 212.682C434.028 212.882 434.21 213.131 434.331 213.41C434.453 213.689 434.511 213.992 434.501 214.297C434.522 214.606 434.476 214.917 434.367 215.208C434.258 215.498 434.088 215.762 433.868 215.981C433.621 216.202 433.332 216.372 433.019 216.48C432.706 216.589 432.374 216.634 432.043 216.614H428.183V212.121Z" fill="white"/>
<path d="M372.273 212.967L380.254 223.788H381.761V210.329H380.26V221.387L372.116 210.321H370.781V223.78H372.279L372.273 212.967Z" fill="white"/>
<path d="M362.989 210.017C359.205 210.017 356.559 212.91 356.559 217.056C356.559 221.203 359.205 224.103 362.989 224.103C366.774 224.103 369.408 221.209 369.408 217.056C369.408 212.903 366.77 210.017 362.989 210.017ZM362.989 222.676C360.107 222.676 358.084 220.365 358.084 217.056C358.084 213.748 360.105 211.44 362.989 211.44C365.873 211.44 367.878 213.75 367.878 217.056C367.878 220.362 365.869 222.676 362.989 222.676Z" fill="white"/>
<path d="M392.863 211.636V210.321H383.438V223.792H392.955V222.477H384.947V217.493H392.358V216.177H384.947V211.636H392.863Z" fill="white"/>
<path d="M398.031 210.017V223.573Z" fill="white"/>
<path d="M398.031 210.017V223.573" stroke="white" stroke-linecap="round"/>
<rect x="1" y="257" width="262" height="162" rx="7" fill="url(#paint0_linear_3802_2752)"/>
<circle opacity="0.3" cx="132.164" cy="320.638" r="29.3726" fill="white"/>
<path d="M123.522 318.854C127.436 317.06 131.702 316.167 136.007 316.238C140.312 316.31 144.547 317.345 148.399 319.268C148.498 319.331 148.61 319.369 148.726 319.381C148.843 319.394 148.96 319.379 149.07 319.339C149.18 319.3 149.28 319.235 149.361 319.151C149.442 319.067 149.503 318.965 149.54 318.854L150.991 314.397C151.04 314.282 151.065 314.158 151.065 314.032C151.065 313.907 151.041 313.783 150.992 313.667C150.944 313.551 150.874 313.446 150.784 313.358C150.695 313.269 150.59 313.2 150.473 313.153C144.615 310.275 138.072 309.08 131.575 309.702C125.077 310.325 118.88 312.739 113.674 316.676C113.465 316.823 113.318 317.042 113.261 317.291C113.203 317.539 113.24 317.801 113.363 318.024L116.785 325.591C116.887 325.848 117.084 326.055 117.335 326.171C117.585 326.287 117.871 326.302 118.133 326.213C123.14 324.261 128.546 323.549 133.889 324.14C130.367 324.749 126.992 326.015 123.938 327.872C123.731 328.018 123.585 328.236 123.528 328.483C123.471 328.73 123.507 328.99 123.628 329.212L125.701 333.98C125.743 334.075 125.807 334.158 125.888 334.223C125.969 334.288 126.064 334.333 126.166 334.353C126.268 334.373 126.373 334.369 126.473 334.34C126.572 334.311 126.664 334.259 126.739 334.187C127.448 333.464 128.25 332.836 129.122 332.321C133.401 329.994 138.26 328.95 143.116 329.316C143.345 329.326 143.572 329.26 143.759 329.128C143.947 328.996 144.086 328.806 144.153 328.586L145.709 323.918C145.802 323.696 145.811 323.447 145.735 323.218C145.659 322.989 145.502 322.796 145.294 322.674C138.704 318.797 130.932 317.44 123.418 318.854H123.522Z" fill="white"/>
<path d="M115.413 386.321H113.576C113.496 386.322 113.416 386.306 113.342 386.273C113.269 386.24 113.204 386.192 113.151 386.131C113.099 386.071 113.061 385.999 113.039 385.922C113.018 385.846 113.013 385.765 113.027 385.686V374.986H108.445C108.299 374.986 108.159 374.929 108.056 374.827C107.953 374.725 107.895 374.587 107.895 374.442V372.81C107.892 372.737 107.904 372.665 107.931 372.598C107.957 372.531 107.997 372.469 108.049 372.418C108.101 372.367 108.163 372.327 108.231 372.301C108.299 372.275 108.372 372.263 108.445 372.266H120.542C120.615 372.263 120.688 372.275 120.756 372.301C120.824 372.327 120.886 372.367 120.937 372.418C120.989 372.469 121.029 372.531 121.056 372.598C121.082 372.665 121.094 372.737 121.091 372.81V374.441C121.081 374.582 121.02 374.715 120.919 374.815C120.818 374.915 120.684 374.975 120.542 374.985H115.96V385.685C115.963 385.758 115.951 385.83 115.924 385.897C115.898 385.964 115.857 386.026 115.806 386.077C115.754 386.128 115.692 386.168 115.624 386.194C115.556 386.22 115.483 386.232 115.41 386.229L115.413 386.321ZM103.316 386.321H94.8795C94.8068 386.31 94.737 386.285 94.6743 386.247C94.6116 386.209 94.5573 386.159 94.5145 386.1C94.4717 386.041 94.4414 385.973 94.4253 385.902C94.4092 385.832 94.4076 385.758 94.4207 385.686V384.054C94.4107 383.922 94.4529 383.791 94.5386 383.69C94.6243 383.588 94.7465 383.524 94.8795 383.51H103.861C104.104 383.509 104.337 383.414 104.509 383.244C104.681 383.074 104.777 382.843 104.778 382.603V381.424C104.762 381.189 104.66 380.967 104.491 380.801C104.323 380.634 104.099 380.533 103.861 380.517H97.9072C96.7302 380.648 95.5477 380.323 94.6074 379.611C94.2441 379.189 93.9746 378.697 93.8163 378.166C93.6581 377.634 93.6146 377.076 93.6888 376.527V376.346C93.613 375.81 93.6557 375.265 93.8139 374.748C93.9722 374.231 94.2422 373.754 94.6053 373.35C95.053 372.962 95.5789 372.673 96.1482 372.502C96.7174 372.33 97.317 372.28 97.9072 372.356H105.881C105.956 372.345 106.032 372.352 106.103 372.376C106.175 372.399 106.239 372.439 106.293 372.492C106.346 372.545 106.386 372.609 106.41 372.679C106.434 372.75 106.441 372.825 106.43 372.899V374.532C106.434 374.604 106.421 374.677 106.395 374.744C106.368 374.811 106.328 374.872 106.276 374.924C106.225 374.975 106.163 375.015 106.095 375.041C106.027 375.067 105.954 375.079 105.881 375.076H97.4442C97.2012 375.076 96.9681 375.171 96.7962 375.341C96.6243 375.511 96.5278 375.742 96.5278 375.983V377.071C96.5283 377.311 96.6251 377.542 96.7968 377.711C96.9686 377.881 97.2013 377.977 97.4442 377.978H103.31C103.914 377.905 104.527 377.955 105.11 378.127C105.693 378.299 106.235 378.587 106.7 378.975C107.051 379.386 107.313 379.863 107.471 380.378C107.629 380.892 107.678 381.433 107.617 381.968V382.331C107.67 382.865 107.617 383.404 107.46 383.917C107.302 384.431 107.044 384.909 106.7 385.323C106.235 385.711 105.694 385.999 105.111 386.171C104.528 386.343 103.916 386.394 103.312 386.321H103.316ZM147.398 373.898C146.725 373.313 145.94 372.868 145.09 372.587C144.24 372.307 143.342 372.198 142.449 372.266H136.031C135.956 372.255 135.88 372.262 135.808 372.286C135.737 372.31 135.672 372.349 135.619 372.402C135.565 372.455 135.525 372.519 135.501 372.59C135.478 372.66 135.471 372.736 135.481 372.81V385.776C135.477 385.837 135.487 385.897 135.509 385.954C135.53 386.011 135.564 386.062 135.607 386.105C135.651 386.148 135.703 386.181 135.76 386.203C135.817 386.225 135.879 386.234 135.94 386.23H142.447C143.34 386.298 144.238 386.189 145.088 385.909C145.938 385.628 146.722 385.183 147.396 384.598C148.679 383.419 149.045 381.969 149.045 379.339V379.249C149.044 376.527 148.678 375.168 147.395 373.898H147.398ZM146.115 379.338C146.115 381.152 146.115 381.968 145.29 382.693C144.531 383.343 143.542 383.669 142.541 383.6H138.413V374.895H142.446C142.957 374.832 143.477 374.881 143.968 375.037C144.459 375.194 144.909 375.455 145.287 375.802C146.025 376.436 146.203 377.343 146.203 379.157L146.115 379.338ZM153.264 386.321H151.428C151.347 386.322 151.267 386.306 151.194 386.273C151.12 386.24 151.055 386.192 151.003 386.131C150.95 386.071 150.912 385.999 150.89 385.922C150.869 385.846 150.865 385.765 150.878 385.686V372.81C150.875 372.737 150.887 372.665 150.914 372.598C150.94 372.531 150.98 372.469 151.032 372.418C151.084 372.367 151.146 372.327 151.214 372.301C151.282 372.275 151.355 372.263 151.428 372.266H153.26C153.335 372.255 153.411 372.262 153.483 372.286C153.554 372.31 153.619 372.349 153.672 372.402C153.726 372.455 153.766 372.519 153.79 372.59C153.813 372.66 153.82 372.736 153.81 372.81V385.685C153.81 386.049 153.626 386.229 153.351 386.229L153.264 386.321ZM134.201 385.414L128.149 373.173C128.011 372.857 127.786 372.587 127.499 372.394C127.212 372.202 126.875 372.094 126.528 372.085C126.181 372.075 125.839 372.164 125.541 372.341C125.244 372.517 125.003 372.774 124.849 373.082L118.801 385.414C118.749 385.489 118.721 385.578 118.719 385.669C118.717 385.76 118.742 385.85 118.79 385.927C118.839 386.004 118.909 386.066 118.992 386.104C119.076 386.143 119.168 386.157 119.259 386.145H121.276C121.405 386.142 121.531 386.107 121.643 386.044C121.755 385.98 121.849 385.89 121.917 385.781L122.833 383.786H130.165L131.081 385.781C131.149 385.89 131.243 385.98 131.355 386.044C131.467 386.107 131.594 386.142 131.723 386.145H133.739C133.827 386.148 133.914 386.128 133.992 386.087C134.07 386.046 134.136 385.985 134.182 385.911C134.229 385.837 134.255 385.752 134.257 385.665C134.26 385.577 134.24 385.491 134.198 385.414H134.201ZM126.502 375.802L128.976 381.332H124.024L126.498 375.802H126.502ZM170.674 385.414L164.625 373.082C164.479 372.758 164.241 372.482 163.94 372.289C163.639 372.096 163.288 371.993 162.929 371.993C162.571 371.993 162.22 372.096 161.919 372.289C161.618 372.482 161.38 372.758 161.234 373.082L155.185 385.414C155.002 385.777 155.277 386.145 155.735 386.145H157.659C157.788 386.142 157.914 386.107 158.026 386.044C158.138 385.98 158.233 385.89 158.3 385.781L159.217 383.786H166.548L167.465 385.781C167.552 385.893 167.664 385.984 167.792 386.046C167.92 386.109 168.06 386.143 168.203 386.145H170.128C170.216 386.148 170.303 386.128 170.381 386.087C170.459 386.046 170.524 385.985 170.571 385.911C170.617 385.837 170.643 385.752 170.646 385.665C170.649 385.577 170.628 385.491 170.586 385.414H170.674ZM162.884 375.71L165.358 381.24H160.408L162.884 375.71Z" fill="white"/>
<rect x="279" y="256" width="262" height="163" rx="7" fill="#E16C00"/>
<circle opacity="0.3" cx="409.799" cy="320.415" r="29.149" fill="white"/>
<path d="M393.528 387.721V370.225H401.016C401.96 370.225 402.816 370.353 403.584 370.609C404.368 370.865 405.032 371.241 405.576 371.737C406.12 372.217 406.536 372.817 406.824 373.537C407.128 374.241 407.28 375.049 407.28 375.961C407.28 377.113 407.032 378.129 406.536 379.009C406.04 379.873 405.328 380.553 404.4 381.049C403.472 381.529 402.344 381.769 401.016 381.769L396.936 381.745V378.841L400.392 378.865C400.952 378.865 401.464 378.785 401.928 378.625C402.392 378.449 402.768 378.161 403.056 377.761C403.344 377.361 403.488 376.809 403.488 376.105C403.488 375.417 403.336 374.873 403.032 374.473C402.744 374.073 402.368 373.793 401.904 373.633C401.456 373.473 400.952 373.393 400.392 373.393H396.792L397.272 372.889V387.721H393.528ZM417.686 387.937C416.374 387.937 415.182 387.737 414.11 387.337C413.038 386.937 412.11 386.353 411.326 385.585C410.542 384.817 409.942 383.881 409.526 382.777C409.11 381.657 408.902 380.385 408.902 378.961C408.902 377.553 409.11 376.297 409.526 375.193C409.942 374.073 410.542 373.129 411.326 372.361C412.11 371.593 413.038 371.009 414.11 370.609C415.182 370.209 416.374 370.009 417.686 370.009C419.19 370.009 420.526 370.273 421.694 370.801C422.862 371.313 423.806 372.033 424.526 372.961C425.246 373.889 425.686 374.985 425.846 376.249H422.054C421.91 375.641 421.638 375.113 421.238 374.665C420.838 374.201 420.334 373.841 419.726 373.585C419.134 373.329 418.454 373.201 417.686 373.201C416.678 373.201 415.806 373.417 415.07 373.849C414.334 374.265 413.766 374.905 413.366 375.769C412.966 376.617 412.766 377.681 412.766 378.961C412.766 379.937 412.878 380.785 413.102 381.505C413.342 382.225 413.67 382.825 414.086 383.305C414.518 383.785 415.038 384.145 415.646 384.385C416.254 384.625 416.934 384.745 417.686 384.745C418.438 384.745 419.118 384.617 419.726 384.361C420.334 384.105 420.838 383.745 421.238 383.281C421.654 382.817 421.926 382.281 422.054 381.673H425.846C425.702 382.937 425.262 384.041 424.526 384.985C423.79 385.913 422.838 386.641 421.67 387.169C420.502 387.681 419.174 387.937 417.686 387.937Z" fill="white"/>
<path d="M423.558 309.403H418.555C417.561 309.404 416.607 309.785 415.905 310.464C415.202 311.143 414.807 312.064 414.807 313.024H393.557C393.227 313.024 392.91 313.15 392.677 313.376C392.444 313.601 392.312 313.907 392.312 314.225V328.71C392.312 329.029 392.444 329.334 392.677 329.56C392.91 329.785 393.227 329.911 393.557 329.911H401.06V331.113H399.816C399.484 331.113 399.166 331.24 398.932 331.466C398.698 331.693 398.566 332 398.566 332.32C398.566 332.64 398.698 332.947 398.932 333.173C399.166 333.4 399.484 333.527 399.816 333.527H409.813C410.144 333.527 410.462 333.4 410.697 333.173C410.931 332.947 411.063 332.64 411.063 332.32C411.063 332 410.931 331.693 410.697 331.466C410.462 331.24 410.144 331.113 409.813 331.113H408.569V329.911H414.807V332.325C414.807 332.644 414.938 332.949 415.171 333.175C415.405 333.4 415.721 333.527 416.051 333.527H426.047C426.377 333.527 426.694 333.4 426.927 333.175C427.16 332.949 427.291 332.644 427.291 332.325V313.024C427.291 312.066 426.899 311.148 426.199 310.469C425.499 309.791 424.55 309.408 423.558 309.403ZM406.059 331.124H403.56V329.922H406.059V331.124ZM394.812 327.503V315.436H414.807V327.503H394.812ZM424.803 331.124H417.306V313.024C417.306 312.705 417.438 312.4 417.671 312.174C417.904 311.949 418.221 311.822 418.551 311.822H423.558C423.888 311.822 424.205 311.949 424.438 312.174C424.672 312.4 424.803 312.705 424.803 313.024V331.124Z" fill="white"/>
<path d="M421.208 326.299C420.959 326.299 420.716 326.369 420.509 326.501C420.301 326.633 420.14 326.821 420.045 327.04C419.949 327.26 419.924 327.501 419.973 327.734C420.022 327.967 420.142 328.181 420.318 328.349C420.494 328.517 420.718 328.632 420.963 328.678C421.207 328.724 421.46 328.701 421.691 328.61C421.921 328.519 422.117 328.365 422.256 328.167C422.394 327.97 422.468 327.738 422.468 327.5C422.468 327.181 422.335 326.876 422.099 326.651C421.863 326.425 421.543 326.299 421.208 326.299ZM410.189 318.205L405.128 323.03C405.004 323.141 404.904 323.275 404.836 323.424C404.767 323.572 404.73 323.732 404.728 323.894C404.725 324.057 404.757 324.218 404.821 324.368C404.885 324.519 404.98 324.655 405.1 324.77C405.221 324.885 405.364 324.975 405.522 325.036C405.679 325.097 405.848 325.127 406.019 325.124C406.189 325.122 406.357 325.087 406.512 325.021C406.668 324.955 406.808 324.861 406.925 324.742L411.986 319.918C412.212 319.688 412.336 319.383 412.331 319.069C412.325 318.754 412.192 318.453 411.958 318.23C411.724 318.008 411.409 317.881 411.079 317.876C410.749 317.871 410.429 317.989 410.189 318.205ZM404.394 318.205C404.277 318.091 404.137 318.001 403.983 317.939C403.829 317.877 403.663 317.846 403.496 317.846C403.328 317.846 403.163 317.877 403.008 317.939C402.854 318.001 402.714 318.091 402.597 318.205L397.539 323.03C397.415 323.141 397.315 323.275 397.247 323.424C397.178 323.572 397.141 323.732 397.139 323.894C397.136 324.057 397.168 324.218 397.232 324.368C397.296 324.519 397.391 324.655 397.511 324.77C397.632 324.885 397.775 324.975 397.933 325.036C398.09 325.097 398.259 325.127 398.43 325.124C398.6 325.122 398.768 325.087 398.923 325.021C399.079 324.955 399.219 324.861 399.336 324.742L404.397 319.918C404.516 319.806 404.611 319.672 404.675 319.525C404.74 319.378 404.773 319.221 404.773 319.061C404.773 318.902 404.74 318.744 404.675 318.597C404.611 318.45 404.516 318.317 404.397 318.205H404.394Z" fill="white"/>
<defs>
<filter id="filter0_i_3802_2752" x="0" y="0" width="542" height="69.1143" filterUnits="userSpaceOnUse" color-interpolation-filters="sRGB">
<feFlood flood-opacity="0" result="BackgroundImageFix"/>
<feBlend mode="normal" in="SourceGraphic" in2="BackgroundImageFix" result="shape"/>
<feColorMatrix in="SourceAlpha" type="matrix" values="0 0 0 0 0 0 0 0 0 0 0 0 0 0 0 0 0 0 127 0" result="hardAlpha"/>
<feOffset/>
<feGaussianBlur stdDeviation="2"/>
<feComposite in2="hardAlpha" operator="arithmetic" k2="-1" k3="1"/>
<feColorMatrix type="matrix" values="0 0 0 0 0 0 0 0 0 0 0 0 0 0 0 0 0 0 0.25 0"/>
<feBlend mode="normal" in2="shape" result="effect1_innerShadow_3802_2752"/>
</filter>
<linearGradient id="paint0_linear_3802_2752" x1="132" y1="257" x2="132" y2="419" gradientUnits="userSpaceOnUse">
<stop stop-color="#BF1D4A"/>
<stop offset="1" stop-color="#F94823"/>
</linearGradient>
</defs>
</svg>
