<svg width="30" height="24" viewBox="0 0 30 24" fill="none" xmlns="http://www.w3.org/2000/svg">
    <path d="M26.5263 6.914H17.1943V3.684C17.2373 3.02167 17.0176 2.36906 16.5828 1.8676C16.148 1.36614 15.5331 1.05622 14.8713 1.005L3.32831 1C2.66699 1.04997 2.05208 1.35882 1.61714 1.85948C1.1822 2.36015 0.962336 3.01219 1.00531 3.674V12.197C0.962291 12.8593 1.182 13.5119 1.61682 14.0134C2.05165 14.5149 2.66656 14.8248 3.32831 14.876H3.75931V16.376C3.75618 16.5008 3.78494 16.6243 3.84286 16.7349C3.90078 16.8455 3.98595 16.9395 4.09031 17.008C4.18802 17.0697 4.3025 17.0995 4.41789 17.0932C4.53328 17.0869 4.64386 17.0449 4.73431 16.973L7.46231 14.873H12.6623V18.11C12.6193 18.7712 12.8386 19.4226 13.2727 19.9232C13.7068 20.4237 14.3207 20.733 14.9813 20.784H22.3943L25.1223 22.891C25.2128 22.9629 25.3233 23.0049 25.4387 23.0112C25.5541 23.0175 25.6686 22.9877 25.7663 22.926C25.8707 22.8575 25.9558 22.7635 26.0138 22.6529C26.0717 22.5423 26.1004 22.4188 26.0973 22.294V20.794H26.5283C27.1899 20.7438 27.8052 20.435 28.2409 19.9346C28.6765 19.4341 28.8976 18.7822 28.8563 18.12V9.598C28.8961 8.93445 28.6742 8.28172 28.2382 7.77992C27.8023 7.27812 27.1869 6.96724 26.5243 6.914H26.5263ZM13.3053 13.44H7.26631C7.14023 13.4404 7.01785 13.4826 6.91831 13.56L5.00531 15.031V14.153C5.01689 13.9757 4.95807 13.8009 4.84162 13.6667C4.72517 13.5325 4.56049 13.4496 4.38331 13.436H3.32831C3.02226 13.4122 2.73788 13.2688 2.53671 13.037C2.33553 12.8051 2.23372 12.5034 2.25331 12.197V3.674C2.23372 3.36765 2.33553 3.0659 2.53671 2.83403C2.73788 2.60216 3.02226 2.45882 3.32831 2.435L14.8703 2.44C15.1764 2.46382 15.4607 2.60716 15.6619 2.83903C15.8631 3.0709 15.9649 3.37265 15.9453 3.679V12.197C15.966 12.504 15.8647 12.8068 15.6634 13.0395C15.4621 13.2723 15.1771 13.4162 14.8703 13.44H13.3053ZM27.6053 18.12C27.6246 18.4269 27.5221 18.7291 27.3202 18.961C27.1182 19.1929 26.833 19.3359 26.5263 19.359H25.4683C25.2911 19.3726 25.1264 19.4555 25.01 19.5897C24.8935 19.7239 24.8347 19.8987 24.8463 20.076V20.954L22.9323 19.474C22.8331 19.3959 22.7105 19.3536 22.5843 19.354H14.9843C14.6766 19.3312 14.3904 19.1876 14.1883 18.9545C13.9861 18.7214 13.8844 18.4178 13.9053 18.11V14.875H14.8663C15.5282 14.824 16.1432 14.5142 16.5781 14.0127C17.013 13.5111 17.2326 12.8584 17.1893 12.196V8.34H26.5213C26.8304 8.36204 27.1182 8.50582 27.3214 8.7398C27.5247 8.97378 27.6268 9.27883 27.6053 9.588V18.12Z" fill="white" stroke="white"/>
    <path d="M10.8637 10.0078C10.8331 9.9809 10.7969 9.96109 10.7577 9.94983C10.7147 9.93583 10.6517 9.91083 10.5747 9.87783C10.4773 9.83356 10.3825 9.78381 10.2907 9.72883C10.155 9.64312 10.0266 9.54646 9.9067 9.43983C10.0059 9.34081 10.0916 9.22918 10.1617 9.10783C10.2412 8.97647 10.304 8.83572 10.3487 8.68883C10.4035 8.52639 10.442 8.3589 10.4637 8.18883C10.4915 7.99913 10.5042 7.80753 10.5017 7.61583C10.5077 7.27039 10.4609 6.92607 10.3627 6.59483C10.2848 6.3283 10.145 6.08398 9.9547 5.88183C9.77213 5.69142 9.54645 5.54772 9.2967 5.46283C9.00644 5.36745 8.70216 5.32181 8.3967 5.32783C8.07336 5.32027 7.75166 5.37598 7.4497 5.49183C7.18835 5.59593 6.95361 5.7572 6.7627 5.96383C6.57337 6.18136 6.43105 6.43568 6.3447 6.71083C6.24884 7.03264 6.20198 7.36706 6.2057 7.70283C6.19926 8.05721 6.24303 8.41072 6.3357 8.75283C6.41069 9.02171 6.54537 9.27021 6.7297 9.47983C6.91062 9.67223 7.13683 9.81627 7.3877 9.89883C7.68574 9.99474 7.99767 10.0404 8.3107 10.0338C8.48178 10.0346 8.65245 10.0169 8.8197 9.98083C8.9536 9.9514 9.084 9.90782 9.2087 9.85083C9.33355 9.99553 9.4737 10.1263 9.6267 10.2408C9.76566 10.3494 9.91351 10.4461 10.0687 10.5298C10.1972 10.601 10.3309 10.6621 10.4687 10.7128C10.5647 10.7497 10.666 10.771 10.7687 10.7758C10.7873 10.7762 10.8057 10.7713 10.8217 10.7618C10.8418 10.7497 10.857 10.731 10.8647 10.7088C10.8814 10.6705 10.8928 10.6302 10.8987 10.5888C10.9091 10.5227 10.9138 10.4558 10.9127 10.3888C10.9156 10.3064 10.9092 10.2239 10.8937 10.1428C10.8797 10.0848 10.8837 10.0318 10.8557 10.0078H10.8637ZM9.4847 8.28783C9.44982 8.46895 9.38203 8.64215 9.2847 8.79883C9.1935 8.94331 9.06589 9.06125 8.9147 9.14083C8.73973 9.23095 8.54434 9.27403 8.3477 9.26583C8.1544 9.27162 7.96228 9.23368 7.7857 9.15483C7.63855 9.08347 7.51499 8.97136 7.4297 8.83183C7.33454 8.67536 7.27101 8.50175 7.2427 8.32083C7.20204 8.09851 7.18262 7.87282 7.1847 7.64683C7.18416 7.4454 7.20359 7.24442 7.2427 7.04683C7.27772 6.86918 7.34554 6.69962 7.4427 6.54683C7.53526 6.40348 7.66253 6.28585 7.8127 6.20483C7.98766 6.11471 8.18306 6.07163 8.3797 6.07983C8.5736 6.07314 8.76629 6.11291 8.9417 6.19583C9.088 6.26998 9.21218 6.38139 9.3017 6.51883C9.39694 6.67175 9.46211 6.84146 9.4937 7.01883C9.53405 7.23175 9.55348 7.44812 9.5517 7.66483C9.54713 7.87402 9.52472 8.08244 9.4847 8.28783ZM22.1177 11.4628C22.1069 11.4229 22.089 11.3853 22.0647 11.3518C22.0374 11.3196 22.0001 11.2974 21.9587 11.2888C21.8935 11.2715 21.8262 11.2634 21.7587 11.2648C21.6727 11.2648 21.5587 11.2648 21.4077 11.2648C21.2827 11.2648 21.1817 11.2648 21.1077 11.2648C21.0478 11.2681 20.9883 11.2761 20.9297 11.2888C20.8914 11.2979 20.8566 11.3181 20.8297 11.3468C20.8064 11.3768 20.7885 11.4107 20.7767 11.4468L19.2967 15.7158C19.2727 15.7834 19.2534 15.8526 19.2387 15.9228C19.2333 15.9433 19.2326 15.9648 19.2368 15.9856C19.2409 16.0064 19.2498 16.026 19.2627 16.0428C19.2805 16.0603 19.3016 16.074 19.3248 16.0831C19.348 16.0922 19.3728 16.0965 19.3977 16.0958C19.4871 16.105 19.5769 16.1084 19.6667 16.1058C19.7727 16.1058 19.8587 16.1058 19.9257 16.0958C19.9782 16.0936 20.03 16.0839 20.0797 16.0668C20.1106 16.0557 20.1375 16.0355 20.1567 16.0088C20.1731 15.9816 20.1859 15.9524 20.1947 15.9218L20.4947 14.9828H22.2947L22.6167 15.9508C22.6244 15.9787 22.6373 16.0048 22.6547 16.0278C22.6764 16.0533 22.7054 16.0714 22.7377 16.0798C22.7912 16.0927 22.8458 16.1007 22.9007 16.1038C22.9727 16.1038 23.0687 16.1038 23.1937 16.1038C23.3187 16.1038 23.4097 16.1038 23.4777 16.0938C23.5295 16.0929 23.5797 16.0762 23.6217 16.0458C23.6368 16.0311 23.6475 16.0124 23.6526 15.9919C23.6577 15.9715 23.6571 15.95 23.6507 15.9298C23.6379 15.8575 23.6184 15.7866 23.5927 15.7178L22.1177 11.4588V11.4628ZM20.7177 14.2428L21.3957 12.1998L22.0737 14.2428H20.7177Z" fill="white" stroke="white"/>
</svg>
