<svg width="448" height="126" viewBox="0 0 448 126" fill="none" xmlns="http://www.w3.org/2000/svg">
    <path d="M34.0369 117.108V113.642L33.7068 112.883V106.677C33.7068 105.576 33.3657 104.718 32.6834 104.102C32.0232 103.485 30.9998 103.177 29.6133 103.177C28.6669 103.177 27.7316 103.331 26.8073 103.64C25.9049 103.926 25.1347 104.322 24.4964 104.828L22.6478 101.23C23.6161 100.547 24.7825 100.019 26.147 99.6451C27.5115 99.2709 28.898 99.0839 30.3065 99.0839C33.0135 99.0839 35.1153 99.7221 36.6118 100.999C38.1084 102.275 38.8566 104.267 38.8566 106.974V117.108H34.0369ZM28.6229 117.372C27.2364 117.372 26.048 117.141 25.0576 116.679C24.0673 116.195 23.308 115.546 22.7798 114.732C22.2516 113.917 21.9875 113.004 21.9875 111.992C21.9875 110.935 22.2406 110.011 22.7468 109.219C23.275 108.426 24.1003 107.81 25.2227 107.37C26.3451 106.908 27.8086 106.677 29.6133 106.677H34.334V109.681H30.1745C28.9641 109.681 28.1277 109.879 27.6656 110.275C27.2254 110.671 27.0053 111.166 27.0053 111.76C27.0053 112.421 27.2584 112.949 27.7646 113.345C28.2928 113.719 29.0081 113.906 29.9104 113.906C30.7687 113.906 31.539 113.708 32.2212 113.312C32.9035 112.894 33.3987 112.289 33.7068 111.496L34.4991 113.873C34.1249 115.018 33.4427 115.887 32.4523 116.481C31.462 117.075 30.1855 117.372 28.6229 117.372ZM59.239 117.108L51.7783 99.3479H57.0932L63.2994 114.632H60.6585L67.0958 99.3479H72.0476L64.5539 117.108H59.239ZM95.6868 117.108V113.642L95.3567 112.883V106.677C95.3567 105.576 95.0155 104.718 94.3333 104.102C93.6731 103.485 92.6497 103.177 91.2632 103.177C90.3168 103.177 89.3815 103.331 88.4572 103.64C87.5548 103.926 86.7845 104.322 86.1463 104.828L84.2976 101.23C85.266 100.547 86.4324 100.019 87.7969 99.6451C89.1614 99.2709 90.5479 99.0839 91.9564 99.0839C94.6634 99.0839 96.7652 99.7221 98.2617 100.999C99.7583 102.275 100.507 104.267 100.507 106.974V117.108H95.6868ZM90.2728 117.372C88.8863 117.372 87.6979 117.141 86.7075 116.679C85.7172 116.195 84.9579 115.546 84.4297 114.732C83.9015 113.917 83.6374 113.004 83.6374 111.992C83.6374 110.935 83.8905 110.011 84.3967 109.219C84.9249 108.426 85.7502 107.81 86.8726 107.37C87.995 106.908 89.4585 106.677 91.2632 106.677H95.9839V109.681H91.8244C90.6139 109.681 89.7776 109.879 89.3155 110.275C88.8753 110.671 88.6552 111.166 88.6552 111.76C88.6552 112.421 88.9083 112.949 89.4145 113.345C89.9427 113.719 90.658 113.906 91.5603 113.906C92.4186 113.906 93.1889 113.708 93.8711 113.312C94.5534 112.894 95.0486 112.289 95.3567 111.496L96.149 113.873C95.7748 115.018 95.0926 115.887 94.1022 116.481C93.1118 117.075 91.8354 117.372 90.2728 117.372ZM116.391 117.108V99.3479H121.541V117.108H116.391ZM118.966 96.872C118.02 96.872 117.25 96.5969 116.656 96.0467C116.061 95.4965 115.764 94.8143 115.764 94C115.764 93.1857 116.061 92.5035 116.656 91.9533C117.25 91.4031 118.02 91.128 118.966 91.128C119.913 91.128 120.683 91.3921 121.277 91.9202C121.871 92.4264 122.169 93.0867 122.169 93.901C122.169 94.7593 121.871 95.4745 121.277 96.0467C120.705 96.5969 119.935 96.872 118.966 96.872ZM137.545 117.108V92.6135H142.695V117.108H137.545ZM169.592 117.108V113.642L169.262 112.883V106.677C169.262 105.576 168.921 104.718 168.239 104.102C167.579 103.485 166.555 103.177 165.169 103.177C164.222 103.177 163.287 103.331 162.363 103.64C161.46 103.926 160.69 104.322 160.052 104.828L158.203 101.23C159.172 100.547 160.338 100.019 161.703 99.6451C163.067 99.2709 164.454 99.0839 165.862 99.0839C168.569 99.0839 170.671 99.7221 172.167 100.999C173.664 102.275 174.412 104.267 174.412 106.974V117.108H169.592ZM164.178 117.372C162.792 117.372 161.603 117.141 160.613 116.679C159.623 116.195 158.863 115.546 158.335 114.732C157.807 113.917 157.543 113.004 157.543 111.992C157.543 110.935 157.796 110.011 158.302 109.219C158.83 108.426 159.656 107.81 160.778 107.37C161.901 106.908 163.364 106.677 165.169 106.677H169.889V109.681H165.73C164.52 109.681 163.683 109.879 163.221 110.275C162.781 110.671 162.561 111.166 162.561 111.76C162.561 112.421 162.814 112.949 163.32 113.345C163.848 113.719 164.564 113.906 165.466 113.906C166.324 113.906 167.094 113.708 167.777 113.312C168.459 112.894 168.954 112.289 169.262 111.496L170.055 113.873C169.68 115.018 168.998 115.887 168.008 116.481C167.017 117.075 165.741 117.372 164.178 117.372ZM200.795 117.372C199.232 117.372 197.89 117.042 196.767 116.382C195.645 115.722 194.787 114.721 194.193 113.378C193.598 112.014 193.301 110.297 193.301 108.228C193.301 106.137 193.609 104.421 194.226 103.078C194.864 101.736 195.744 100.734 196.866 100.074C197.989 99.414 199.298 99.0839 200.795 99.0839C202.468 99.0839 203.964 99.458 205.285 100.206C206.627 100.955 207.683 102.011 208.454 103.375C209.246 104.74 209.642 106.357 209.642 108.228C209.642 110.077 209.246 111.683 208.454 113.048C207.683 114.412 206.627 115.48 205.285 116.25C203.964 116.998 202.468 117.372 200.795 117.372ZM190.297 117.108V92.6135H195.447V102.946L195.117 108.195L195.216 113.477V117.108H190.297ZM199.904 113.147C200.762 113.147 201.521 112.949 202.181 112.553C202.864 112.157 203.403 111.595 203.799 110.869C204.217 110.121 204.426 109.241 204.426 108.228C204.426 107.194 204.217 106.313 203.799 105.587C203.403 104.861 202.864 104.3 202.181 103.904C201.521 103.507 200.762 103.309 199.904 103.309C199.045 103.309 198.275 103.507 197.593 103.904C196.91 104.3 196.371 104.861 195.975 105.587C195.579 106.313 195.381 107.194 195.381 108.228C195.381 109.241 195.579 110.121 195.975 110.869C196.371 111.595 196.91 112.157 197.593 112.553C198.275 112.949 199.045 113.147 199.904 113.147ZM224.314 117.108V92.6135H229.463V117.108H224.314ZM254.281 117.372C252.257 117.372 250.474 116.976 248.933 116.184C247.415 115.392 246.237 114.313 245.401 112.949C244.565 111.562 244.147 109.989 244.147 108.228C244.147 106.446 244.554 104.872 245.368 103.507C246.204 102.121 247.338 101.043 248.768 100.272C250.199 99.48 251.816 99.0839 253.621 99.0839C255.36 99.0839 256.922 99.458 258.309 100.206C259.717 100.933 260.829 101.989 261.643 103.375C262.457 104.74 262.864 106.38 262.864 108.294C262.864 108.492 262.853 108.723 262.831 108.987C262.809 109.23 262.787 109.461 262.765 109.681H248.339V106.677H260.058L258.078 107.568C258.078 106.644 257.891 105.84 257.516 105.158C257.142 104.476 256.625 103.948 255.965 103.573C255.305 103.177 254.534 102.979 253.654 102.979C252.774 102.979 251.992 103.177 251.31 103.573C250.65 103.948 250.133 104.487 249.759 105.191C249.384 105.873 249.197 106.688 249.197 107.634V108.426C249.197 109.395 249.407 110.253 249.825 111.001C250.265 111.727 250.87 112.289 251.64 112.685C252.433 113.059 253.357 113.246 254.413 113.246C255.36 113.246 256.185 113.103 256.889 112.817C257.615 112.531 258.276 112.102 258.87 111.529L261.61 114.5C260.796 115.425 259.772 116.14 258.54 116.646C257.307 117.13 255.888 117.372 254.281 117.372ZM300.566 117.108V95.9807L302.877 98.2916H295.944V94H305.914V117.108H300.566ZM331.056 117.505C329.163 117.505 327.469 117.042 325.972 116.118C324.476 115.172 323.298 113.807 322.44 112.025C321.582 110.242 321.152 108.085 321.152 105.554C321.152 103.023 321.582 100.866 322.44 99.0839C323.298 97.3012 324.476 95.9477 325.972 95.0234C327.469 94.077 329.163 93.6039 331.056 93.6039C332.971 93.6039 334.665 94.077 336.14 95.0234C337.636 95.9477 338.814 97.3012 339.672 99.0839C340.531 100.866 340.96 103.023 340.96 105.554C340.96 108.085 340.531 110.242 339.672 112.025C338.814 113.807 337.636 115.172 336.14 116.118C334.665 117.042 332.971 117.505 331.056 117.505ZM331.056 112.982C331.958 112.982 332.74 112.729 333.4 112.223C334.082 111.716 334.61 110.913 334.985 109.813C335.381 108.712 335.579 107.293 335.579 105.554C335.579 103.816 335.381 102.396 334.985 101.296C334.61 100.195 334.082 99.392 333.4 98.8858C332.74 98.3796 331.958 98.1265 331.056 98.1265C330.176 98.1265 329.394 98.3796 328.712 98.8858C328.052 99.392 327.524 100.195 327.128 101.296C326.754 102.396 326.566 103.816 326.566 105.554C326.566 107.293 326.754 108.712 327.128 109.813C327.524 110.913 328.052 111.716 328.712 112.223C329.394 112.729 330.176 112.982 331.056 112.982ZM351.761 120.41L362.654 89.3123H367.243L356.349 120.41H351.761ZM378.091 117.108V113.642L387.004 105.224C387.708 104.586 388.226 104.014 388.556 103.507C388.886 103.001 389.106 102.539 389.216 102.121C389.348 101.703 389.414 101.318 389.414 100.966C389.414 100.041 389.095 99.3369 388.457 98.8528C387.84 98.3466 386.927 98.0935 385.717 98.0935C384.748 98.0935 383.846 98.2806 383.01 98.6547C382.195 99.0288 381.502 99.612 380.93 100.404L377.035 97.8954C377.915 96.5749 379.147 95.5296 380.732 94.7593C382.316 93.989 384.143 93.6039 386.212 93.6039C387.929 93.6039 389.425 93.89 390.702 94.4622C392 95.0124 393.001 95.7937 393.706 96.806C394.432 97.8184 394.795 99.0288 394.795 100.437C394.795 101.186 394.696 101.934 394.498 102.682C394.322 103.408 393.948 104.179 393.376 104.993C392.825 105.807 392.011 106.721 390.933 107.733L383.538 114.699L382.515 112.751H395.554V117.108H378.091ZM416.479 117.505C414.872 117.505 413.277 117.295 411.692 116.877C410.107 116.437 408.765 115.821 407.665 115.029L409.744 110.935C410.625 111.573 411.648 112.08 412.814 112.454C413.981 112.828 415.158 113.015 416.347 113.015C417.689 113.015 418.746 112.751 419.516 112.223C420.286 111.694 420.671 110.968 420.671 110.044C420.671 109.164 420.33 108.47 419.648 107.964C418.966 107.458 417.865 107.205 416.347 107.205H413.904V103.673L420.341 96.3769L420.935 98.2916H408.82V94H424.996V97.4663L418.591 104.762L415.885 103.21H417.436C420.275 103.21 422.421 103.849 423.873 105.125C425.326 106.402 426.052 108.041 426.052 110.044C426.052 111.342 425.711 112.564 425.029 113.708C424.347 114.831 423.301 115.744 421.893 116.448C420.484 117.152 418.68 117.505 416.479 117.505Z" fill="#F2F2F2"/>
    <path d="M39.0874 35.8082V30.8082L34.0874 35.8082H39.0874ZM59.2474 35.8082H64.2474L59.2474 30.8082V35.8082ZM59.2474 43.6082V48.6082L64.2474 43.6082H59.2474ZM39.0874 43.6082H34.0874L39.0874 48.6082V43.6082ZM39.8074 58.9082V63.9082L44.8074 58.9082H39.8074ZM30.0874 58.9082H25.0874L30.0874 63.9082V58.9082ZM30.0874 16.9082V11.9082L25.0874 16.9082H30.0874ZM61.8274 16.9082H66.8274L61.8274 11.9082V16.9082ZM61.8274 24.7082V29.7082L66.8274 24.7082H61.8274ZM39.8074 24.7082V19.7082L34.8074 24.7082H39.8074ZM39.0874 40.8082H59.2474V30.8082H39.0874V40.8082ZM54.2474 35.8082V43.6082H64.2474V35.8082H54.2474ZM59.2474 38.6082H39.0874V48.6082H59.2474V38.6082ZM44.0874 43.6082V35.8082H34.0874V43.6082H44.0874ZM39.8074 53.9082H30.0874V63.9082H39.8074V53.9082ZM35.0874 58.9082V16.9082H25.0874V58.9082H35.0874ZM30.0874 21.9082H61.8274V11.9082H30.0874V21.9082ZM56.8274 16.9082V24.7082H66.8274V16.9082H56.8274ZM61.8274 19.7082H39.8074V29.7082H61.8274V19.7082ZM34.8074 24.7082V58.9082H44.8074V24.7082H34.8074ZM97.0376 58.0682L95.2156 62.7244L95.256 62.7402L95.2966 62.7553L97.0376 58.0682ZM89.8376 53.5082L86.3734 57.1137L89.8376 53.5082ZM85.0376 46.6082L80.4347 48.561L80.4471 48.5903L80.46 48.6196L85.0376 46.6082ZM85.0376 29.2082L80.46 27.1968L80.4471 27.2261L80.4347 27.2555L85.0376 29.2082ZM89.8376 22.3082L86.4086 18.6693L86.3909 18.6859L86.3734 18.7027L89.8376 22.3082ZM97.0976 17.8082L98.8606 22.4871L98.8902 22.4759L98.9196 22.4644L97.0976 17.8082ZM115.998 18.1082L113.99 22.6875L114.028 22.704L114.066 22.7199L115.998 18.1082ZM123.438 23.6282L126.829 27.3022L127.305 20.4586L123.438 23.6282ZM117.198 29.3882L113.44 32.6872L120.589 33.0622L117.198 29.3882ZM112.398 25.7282L110.244 30.2406L110.286 30.2607L110.329 30.28L112.398 25.7282ZM96.9776 28.1882L100.513 31.7237L96.9776 28.1882ZM94.1576 32.4482L89.5389 30.5331L89.5188 30.5816L89.4997 30.6305L94.1576 32.4482ZM94.1576 43.3682L89.4997 45.1859L89.5188 45.2348L89.5389 45.2833L94.1576 43.3682ZM96.9776 47.6282L93.442 51.1637V51.1637L96.9776 47.6282ZM112.398 50.1482L114.467 54.7L114.509 54.6807L114.551 54.6606L112.398 50.1482ZM117.198 46.3682L120.589 42.6942L113.401 43.1142L117.198 46.3682ZM123.438 52.1282L127.305 55.2978L126.829 48.4542L123.438 52.1282ZM115.998 57.7082L114.013 53.1189L114.002 53.1239L113.99 53.1289L115.998 57.7082ZM106.098 54.6282C103.401 54.6282 100.976 54.1973 98.7785 53.3811L95.2966 62.7553C98.6992 64.0191 102.314 64.6282 106.098 64.6282V54.6282ZM98.8596 53.412C96.681 52.5595 94.8462 51.3866 93.3017 49.9027L86.3734 57.1137C88.909 59.5498 91.8742 61.4169 95.2156 62.7244L98.8596 53.412ZM93.3017 49.9027C91.7429 48.405 90.5171 46.6496 89.6152 44.5968L80.46 48.6196C81.878 51.8469 83.8523 54.6914 86.3734 57.1137L93.3017 49.9027ZM89.6405 44.6555C88.8081 42.6934 88.3576 40.4659 88.3576 37.9082H78.3576C78.3576 41.6705 79.0271 45.243 80.4347 48.561L89.6405 44.6555ZM88.3576 37.9082C88.3576 35.3505 88.8081 33.123 89.6405 31.1609L80.4347 27.2555C79.0271 30.5734 78.3576 34.1459 78.3576 37.9082H88.3576ZM89.6152 31.2196C90.5171 29.1669 91.7429 27.4114 93.3017 25.9137L86.3734 18.7027C83.8523 21.125 81.878 23.9695 80.46 27.1968L89.6152 31.2196ZM93.2666 25.9471C94.85 24.4551 96.699 23.3016 98.8606 22.4871L95.3345 13.1293C91.9762 14.3948 88.9852 16.2413 86.4086 18.6693L93.2666 25.9471ZM98.9196 22.4644C101.04 21.6346 103.435 21.1882 106.158 21.1882V11.1882C102.321 11.1882 98.675 11.8218 95.2756 13.152L98.9196 22.4644ZM106.158 21.1882C109.204 21.1882 111.787 21.7216 113.99 22.6875L118.005 13.5289C114.368 11.9348 110.391 11.1882 106.158 11.1882V21.1882ZM114.066 22.7199C116.286 23.6501 118.097 25.0005 119.571 26.7978L127.305 20.4586C124.778 17.3759 121.629 15.0463 117.929 13.4965L114.066 22.7199ZM120.046 19.9542L113.806 25.7142L120.589 33.0622L126.829 27.3022L120.046 19.9542ZM120.955 26.0892C119.108 23.9854 116.95 22.3052 114.467 21.1764L110.329 30.28C111.365 30.7512 112.408 31.511 113.44 32.6872L120.955 26.0892ZM114.551 21.2158C112.074 20.0337 109.412 19.4682 106.638 19.4682V29.4682C108.023 29.4682 109.201 29.7427 110.244 30.2406L114.551 21.2158ZM106.638 19.4682C104.126 19.4682 101.701 19.88 99.4199 20.7703L103.055 30.0861C104.054 29.6964 105.229 29.4682 106.638 29.4682V19.4682ZM99.4199 20.7703C97.1604 21.652 95.1492 22.9455 93.442 24.6527L100.513 31.7237C101.206 31.0309 102.035 30.4844 103.055 30.0861L99.4199 20.7703ZM93.442 24.6527C91.7569 26.3378 90.4583 28.3156 89.5389 30.5331L98.7763 34.3633C99.2168 33.3008 99.7983 32.4386 100.513 31.7237L93.442 24.6527ZM89.4997 30.6305C88.605 32.9232 88.1976 35.3702 88.1976 37.9082H98.1976C98.1976 36.4462 98.4302 35.2532 98.8155 34.2659L89.4997 30.6305ZM88.1976 37.9082C88.1976 40.4462 88.605 42.8932 89.4997 45.1859L98.8155 41.5505C98.4302 40.5632 98.1976 39.3702 98.1976 37.9082H88.1976ZM89.5389 45.2833C90.4583 47.5008 91.7569 49.4786 93.442 51.1637L100.513 44.0927C99.7983 43.3778 99.2168 42.5156 98.7763 41.4531L89.5389 45.2833ZM93.442 51.1637C95.1492 52.8709 97.1604 54.1644 99.4199 55.0461L103.055 45.7303C102.035 45.332 101.206 44.7855 100.513 44.0927L93.442 51.1637ZM99.4199 55.0461C101.701 55.9364 104.126 56.3482 106.638 56.3482V46.3482C105.229 46.3482 104.054 46.12 103.055 45.7303L99.4199 55.0461ZM106.638 56.3482C109.376 56.3482 112.009 55.8173 114.467 54.7L110.329 45.5964C109.267 46.0791 108.059 46.3482 106.638 46.3482V56.3482ZM114.551 54.6606C117.02 53.4823 119.161 51.7604 120.994 49.6222L113.401 43.1142C112.354 44.336 111.295 45.1341 110.244 45.6358L114.551 54.6606ZM113.806 50.0422L120.046 55.8022L126.829 48.4542L120.589 42.6942L113.806 50.0422ZM119.571 48.9586C118.087 50.768 116.258 52.148 114.013 53.1189L117.982 62.2975C121.657 60.7084 124.788 58.3684 127.305 55.2978L119.571 48.9586ZM113.99 53.1289C111.793 54.0919 109.192 54.6282 106.098 54.6282V64.6282C110.363 64.6282 114.362 63.8845 118.005 62.2875L113.99 53.1289ZM194.034 58.0682L192.212 62.7244L192.252 62.7402L192.293 62.7553L194.034 58.0682ZM186.834 53.5082L183.37 57.1137L186.834 53.5082ZM182.034 46.6082L177.431 48.561L177.443 48.5903L177.456 48.6196L182.034 46.6082ZM182.034 29.2082L177.456 27.1968L177.443 27.2261L177.431 27.2555L182.034 29.2082ZM186.834 22.3082L183.405 18.6693L183.387 18.6859L183.37 18.7027L186.834 22.3082ZM194.094 17.8082L195.857 22.4871L195.886 22.4759L195.916 22.4644L194.094 17.8082ZM212.994 18.1082L210.986 22.6875L211.024 22.704L211.062 22.7199L212.994 18.1082ZM220.434 23.6282L223.825 27.3022L224.301 20.4586L220.434 23.6282ZM214.194 29.3882L210.436 32.6872L217.585 33.0622L214.194 29.3882ZM209.394 25.7282L207.24 30.2406L207.282 30.2607L207.325 30.28L209.394 25.7282ZM193.974 28.1882L197.509 31.7237L193.974 28.1882ZM191.154 32.4482L186.535 30.5331L186.515 30.5816L186.496 30.6305L191.154 32.4482ZM191.154 43.3682L186.496 45.1859L186.515 45.2348L186.535 45.2833L191.154 43.3682ZM193.974 47.6282L190.438 51.1637V51.1637L193.974 47.6282ZM209.394 50.1482L211.463 54.7L211.505 54.6807L211.547 54.6606L209.394 50.1482ZM214.194 46.3682L217.585 42.6942L210.397 43.1142L214.194 46.3682ZM220.434 52.1282L224.301 55.2978L223.825 48.4542L220.434 52.1282ZM212.994 57.7082L211.009 53.1189L210.998 53.1239L210.986 53.1289L212.994 57.7082ZM203.094 54.6282C200.397 54.6282 197.972 54.1973 195.775 53.3811L192.293 62.7553C195.695 64.0191 199.31 64.6282 203.094 64.6282V54.6282ZM195.856 53.412C193.677 52.5595 191.842 51.3866 190.298 49.9027L183.37 57.1137C185.905 59.5498 188.87 61.4169 192.212 62.7244L195.856 53.412ZM190.298 49.9027C188.739 48.405 187.513 46.6496 186.611 44.5968L177.456 48.6196C178.874 51.8469 180.848 54.6914 183.37 57.1137L190.298 49.9027ZM186.637 44.6555C185.804 42.6934 185.354 40.4659 185.354 37.9082H175.354C175.354 41.6705 176.023 45.243 177.431 48.561L186.637 44.6555ZM185.354 37.9082C185.354 35.3505 185.804 33.123 186.637 31.1609L177.431 27.2555C176.023 30.5734 175.354 34.1459 175.354 37.9082H185.354ZM186.611 31.2196C187.513 29.1669 188.739 27.4114 190.298 25.9137L183.37 18.7027C180.848 21.125 178.874 23.9695 177.456 27.1968L186.611 31.2196ZM190.263 25.9471C191.846 24.4551 193.695 23.3016 195.857 22.4871L192.331 13.1293C188.972 14.3948 185.981 16.2413 183.405 18.6693L190.263 25.9471ZM195.916 22.4644C198.036 21.6346 200.431 21.1882 203.154 21.1882V11.1882C199.317 11.1882 195.671 11.8218 192.272 13.152L195.916 22.4644ZM203.154 21.1882C206.2 21.1882 208.783 21.7216 210.986 22.6875L215.001 13.5289C211.365 11.9348 207.387 11.1882 203.154 11.1882V21.1882ZM211.062 22.7199C213.282 23.6501 215.094 25.0005 216.567 26.7978L224.301 20.4586C221.774 17.3759 218.625 15.0463 214.926 13.4965L211.062 22.7199ZM217.042 19.9542L210.802 25.7142L217.585 33.0622L223.825 27.3022L217.042 19.9542ZM217.951 26.0892C216.104 23.9854 213.946 22.3052 211.463 21.1764L207.325 30.28C208.361 30.7512 209.404 31.511 210.436 32.6872L217.951 26.0892ZM211.547 21.2158C209.07 20.0337 206.408 19.4682 203.634 19.4682V29.4682C205.019 29.4682 206.197 29.7427 207.24 30.2406L211.547 21.2158ZM203.634 19.4682C201.122 19.4682 198.697 19.88 196.416 20.7703L200.051 30.0861C201.05 29.6964 202.225 29.4682 203.634 29.4682V19.4682ZM196.416 20.7703C194.157 21.652 192.145 22.9455 190.438 24.6527L197.509 31.7237C198.202 31.0309 199.031 30.4844 200.051 30.0861L196.416 20.7703ZM190.438 24.6527C188.753 26.3378 187.454 28.3156 186.535 30.5331L195.772 34.3633C196.213 33.3008 196.794 32.4386 197.509 31.7237L190.438 24.6527ZM186.496 30.6305C185.601 32.9232 185.194 35.3702 185.194 37.9082H195.194C195.194 36.4462 195.426 35.2532 195.812 34.2659L186.496 30.6305ZM185.194 37.9082C185.194 40.4462 185.601 42.8932 186.496 45.1859L195.812 41.5505C195.426 40.5632 195.194 39.3702 195.194 37.9082H185.194ZM186.535 45.2833C187.454 47.5008 188.753 49.4786 190.438 51.1637L197.509 44.0927C196.794 43.3778 196.213 42.5156 195.772 41.4531L186.535 45.2833ZM190.438 51.1637C192.145 52.8709 194.157 54.1644 196.416 55.0461L200.051 45.7303C199.031 45.332 198.202 44.7855 197.509 44.0927L190.438 51.1637ZM196.416 55.0461C198.697 55.9364 201.122 56.3482 203.634 56.3482V46.3482C202.225 46.3482 201.05 46.12 200.051 45.7303L196.416 55.0461ZM203.634 56.3482C206.372 56.3482 209.005 55.8173 211.463 54.7L207.325 45.5964C206.263 46.0791 205.055 46.3482 203.634 46.3482V56.3482ZM211.547 54.6606C214.016 53.4823 216.157 51.7604 217.99 49.6222L210.397 43.1142C209.35 44.336 208.291 45.1341 207.24 45.6358L211.547 54.6606ZM210.802 50.0422L217.042 55.8022L223.825 48.4542L217.585 42.6942L210.802 50.0422ZM216.567 48.9586C215.084 50.768 213.254 52.148 211.009 53.1189L214.978 62.2975C218.653 60.7084 221.784 58.3684 224.301 55.2978L216.567 48.9586ZM210.986 53.1289C208.789 54.0919 206.189 54.6282 203.094 54.6282V64.6282C207.359 64.6282 211.358 63.8845 215.001 62.2875L210.986 53.1289ZM249.404 57.2282L247.01 61.6177L247.024 61.6252L247.038 61.6327L249.404 57.2282ZM243.104 51.3482L238.823 53.9307L238.847 53.9708L238.872 54.0105L243.104 51.3482ZM243.104 34.1882L238.853 31.5564L238.847 31.5659L238.841 31.5754L243.104 34.1882ZM249.404 28.3082L251.747 32.7255L251.759 32.7191L251.771 32.7127L249.404 28.3082ZM267.704 28.3082L265.338 32.7127L265.363 32.7265L265.389 32.7399L267.704 28.3082ZM274.004 51.3482L278.267 53.961L278.277 53.9459L278.286 53.9307L274.004 51.3482ZM267.704 57.2282L265.338 52.8237L267.704 57.2282ZM262.784 50.6282L265.295 54.9521L262.784 50.6282ZM265.724 47.5682L270.114 49.9625L270.129 49.9351L270.143 49.9076L265.724 47.5682ZM265.724 37.9682L261.335 40.3625V40.3625L265.724 37.9682ZM262.784 34.9082L260.274 39.2321L262.784 34.9082ZM254.384 34.9082L256.895 39.2321L254.384 34.9082ZM251.384 37.9682L247.051 35.4734L247.022 35.5233L246.995 35.5739L251.384 37.9682ZM251.384 47.5682L246.965 49.9076L247.007 49.9861L247.051 50.063L251.384 47.5682ZM254.384 50.6282L256.895 46.3043V46.3043L254.384 50.6282ZM258.584 54.3882C255.861 54.3882 253.633 53.8241 251.771 52.8237L247.038 61.6327C250.536 63.5123 254.428 64.3882 258.584 64.3882V54.3882ZM251.799 52.8387C249.888 51.7967 248.429 50.4229 247.337 48.6859L238.872 54.0105C240.899 57.2335 243.64 59.7797 247.01 61.6177L251.799 52.8387ZM247.386 48.7657C246.377 47.0927 245.824 45.1403 245.824 42.7682H235.824C235.824 46.7961 236.792 50.5637 238.823 53.9307L247.386 48.7657ZM245.824 42.7682C245.824 40.3424 246.383 38.4074 247.367 36.801L238.841 31.5754C236.786 34.929 235.824 38.714 235.824 42.7682H245.824ZM247.356 36.82C248.445 35.0604 249.883 33.7137 251.747 32.7255L247.062 23.8909C243.645 25.7027 240.884 28.276 238.853 31.5564L247.356 36.82ZM251.771 32.7127C253.633 31.7123 255.861 31.1482 258.584 31.1482V21.1482C254.428 21.1482 250.536 22.0241 247.038 23.9037L251.771 32.7127ZM258.584 31.1482C261.257 31.1482 263.468 31.7078 265.338 32.7127L270.071 23.9037C266.581 22.0286 262.712 21.1482 258.584 21.1482V31.1482ZM265.389 32.7399C267.3 33.7384 268.713 35.0637 269.741 36.741L278.267 31.5154C276.255 28.2327 273.468 25.678 270.019 23.8765L265.389 32.7399ZM269.741 36.741C270.72 38.3378 271.284 40.2897 271.284 42.7682H281.284C281.284 38.6867 280.329 34.8786 278.267 31.5154L269.741 36.741ZM271.284 42.7682C271.284 45.1403 270.732 47.0927 269.723 48.7657L278.286 53.9307C280.317 50.5637 281.284 46.7961 281.284 42.7682H271.284ZM269.741 48.7354C268.705 50.4255 267.275 51.7825 265.338 52.8237L270.071 61.6327C273.493 59.7939 276.263 57.2309 278.267 53.961L269.741 48.7354ZM265.338 52.8237C263.468 53.8286 261.257 54.3882 258.584 54.3882V64.3882C262.712 64.3882 266.581 63.5078 270.071 61.6327L265.338 52.8237ZM258.584 56.7082C260.946 56.7082 263.226 56.1535 265.295 54.9521L260.274 46.3043C259.863 46.5429 259.342 46.7082 258.584 46.7082V56.7082ZM265.295 54.9521C267.365 53.7501 268.978 52.0446 270.114 49.9625L261.335 45.1739C261.031 45.7318 260.683 46.0663 260.274 46.3043L265.295 54.9521ZM270.143 49.9076C271.313 47.6985 271.804 45.2649 271.804 42.7682H261.804C261.804 43.9515 261.576 44.7179 261.305 45.2288L270.143 49.9076ZM271.804 42.7682C271.804 40.2575 271.323 37.7901 270.114 35.5739L261.335 40.3625C261.566 40.7863 261.804 41.5189 261.804 42.7682H271.804ZM270.114 35.5739C268.978 33.4918 267.365 31.7863 265.295 30.5843L260.274 39.2321C260.683 39.4701 261.031 39.8046 261.335 40.3625L270.114 35.5739ZM265.295 30.5843C263.226 29.3829 260.946 28.8282 258.584 28.8282V38.8282C259.342 38.8282 259.863 38.9935 260.274 39.2321L265.295 30.5843ZM258.584 28.8282C256.222 28.8282 253.943 29.3829 251.874 30.5843L256.895 39.2321C257.306 38.9935 257.826 38.8282 258.584 38.8282V28.8282ZM251.874 30.5843C249.829 31.7714 248.22 33.4436 247.051 35.4734L255.717 40.463C256.069 39.8528 256.46 39.485 256.895 39.2321L251.874 30.5843ZM246.995 35.5739C245.786 37.7901 245.304 40.2575 245.304 42.7682H255.304C255.304 41.5189 255.543 40.7863 255.774 40.3625L246.995 35.5739ZM245.304 42.7682C245.304 45.2649 245.796 47.6985 246.965 49.9076L255.803 45.2288C255.533 44.7179 255.304 43.9515 255.304 42.7682H245.304ZM247.051 50.063C248.22 52.0928 249.829 53.765 251.874 54.9521L256.895 46.3043C256.46 46.0514 256.069 45.6836 255.717 45.0734L247.051 50.063ZM251.874 54.9521C253.943 56.1535 256.222 56.7082 258.584 56.7082V46.7082C257.826 46.7082 257.306 46.5429 256.895 46.3043L251.874 54.9521ZM300.541 58.9082H295.541L300.541 63.9082V58.9082ZM300.541 26.6282V21.6282L295.541 26.6282H300.541ZM309.901 26.6282H314.901L309.901 21.6282V26.6282ZM309.901 58.9082V63.9082L314.901 58.9082H309.901ZM301.021 20.6282L297.624 24.297V24.297L301.021 20.6282ZM301.021 13.1882L304.418 16.857V16.857L301.021 13.1882ZM309.421 13.1282L306.099 16.8652L306.138 16.9003L306.178 16.9344L309.421 13.1282ZM309.421 20.6282L312.886 24.2324L312.889 24.2298L309.421 20.6282ZM305.541 58.9082V26.6282H295.541V58.9082H305.541ZM300.541 31.6282H309.901V21.6282H300.541V31.6282ZM304.901 26.6282V58.9082H314.901V26.6282H304.901ZM309.901 53.9082H300.541V63.9082H309.901V53.9082ZM305.221 17.1282C304.845 17.1282 304.645 17.0741 304.562 17.0445C304.492 17.0194 304.457 16.9957 304.418 16.9594L297.624 24.297C299.782 26.2952 302.468 27.1282 305.221 27.1282V17.1282ZM304.418 16.9594C304.374 16.919 304.361 16.8992 304.363 16.9031C304.365 16.9046 304.368 16.9101 304.374 16.9193C304.379 16.9285 304.385 16.9396 304.39 16.9519C304.395 16.9641 304.399 16.9754 304.402 16.9848C304.404 16.9893 304.405 16.9929 304.405 16.9956C304.406 16.9982 304.406 16.9996 304.406 16.9996C304.406 16.9995 304.406 16.9979 304.405 16.9946C304.405 16.9912 304.404 16.986 304.404 16.9787C304.402 16.9643 304.401 16.9411 304.401 16.9082H294.401C294.401 19.7723 295.515 22.3448 297.624 24.297L304.418 16.9594ZM304.401 16.9082C304.401 16.8753 304.402 16.8521 304.404 16.8377C304.404 16.8304 304.405 16.8252 304.405 16.8218C304.406 16.8185 304.406 16.8169 304.406 16.8168C304.406 16.8168 304.406 16.8182 304.405 16.8208C304.405 16.8235 304.404 16.8271 304.402 16.8316C304.399 16.841 304.395 16.8523 304.39 16.8645C304.385 16.8768 304.379 16.8879 304.374 16.8971C304.368 16.9063 304.365 16.9118 304.363 16.9133C304.361 16.9172 304.374 16.8974 304.418 16.857L297.624 9.5194C295.515 11.4716 294.401 14.0441 294.401 16.9082H304.401ZM304.418 16.857C304.457 16.8207 304.492 16.797 304.562 16.7719C304.645 16.7423 304.845 16.6882 305.221 16.6882V6.6882C302.468 6.6882 299.782 7.52124 297.624 9.5194L304.418 16.857ZM305.221 16.6882C305.617 16.6882 305.838 16.7432 305.939 16.7779C306.028 16.8083 306.066 16.8363 306.099 16.8652L312.743 9.39116C310.579 7.46794 307.92 6.6882 305.221 6.6882V16.6882ZM306.178 16.9344C306.195 16.9488 306.183 16.9408 306.157 16.9066C306.13 16.8713 306.1 16.8243 306.076 16.77C306.052 16.7162 306.041 16.6755 306.038 16.6583C306.035 16.6427 306.041 16.6628 306.041 16.7282H316.041C316.041 13.8557 314.912 11.238 312.663 9.32199L306.178 16.9344ZM306.041 16.7282C306.041 16.8291 306.032 16.8911 306.026 16.9218C306.021 16.9513 306.016 16.9598 306.018 16.9552C306.02 16.9502 306.022 16.9483 306.018 16.9534C306.014 16.9592 305.996 16.9843 305.952 17.0266L312.889 24.2298C314.991 22.2053 316.041 19.5853 316.041 16.7282H306.041ZM305.955 17.024C305.952 17.0267 305.952 17.0272 305.953 17.0264C305.953 17.0261 305.953 17.0258 305.954 17.0254C305.954 17.0251 305.955 17.0249 305.955 17.025C305.955 17.025 305.954 17.0254 305.953 17.0261C305.951 17.0268 305.949 17.028 305.946 17.0296C305.939 17.0326 305.928 17.0379 305.909 17.0445C305.838 17.0699 305.63 17.1282 305.221 17.1282V27.1282C307.972 27.1282 310.719 26.3167 312.886 24.2324L305.955 17.024ZM363.048 27.7082L360.741 32.1443L360.793 32.1717L360.847 32.1978L363.048 27.7082ZM367.848 32.3882L363.461 34.7883L363.471 34.8059L363.481 34.8235L367.848 32.3882ZM369.588 58.9082V63.9082L374.588 58.9082H369.588ZM360.228 58.9082H355.228L360.228 63.9082V58.9082ZM358.488 36.1082L354.777 39.4596L354.806 39.4921L354.836 39.524L358.488 36.1082ZM349.668 35.2082L351.965 39.6493L351.993 39.6348L352.021 39.62L349.668 35.2082ZM346.908 38.0282L342.492 35.6824L342.463 35.7369L342.435 35.7921L346.908 38.0282ZM345.948 58.9082V63.9082L350.948 58.9082H345.948ZM336.588 58.9082H331.588L336.588 63.9082V58.9082ZM336.588 26.6282V21.6282L331.588 26.6282H336.588ZM345.528 26.6282H350.528L345.528 21.6282V26.6282ZM345.528 35.5682L341.282 38.2097L350.528 35.5682H345.528ZM343.848 32.8682L339.443 30.5026L338.073 33.0524L339.602 35.5097L343.848 32.8682ZM348.828 27.8882L351.193 32.2932L348.828 27.8882ZM356.208 31.1482C358.074 31.1482 359.545 31.5224 360.741 32.1443L365.354 23.2721C362.55 21.814 359.461 21.1482 356.208 21.1482V31.1482ZM360.847 32.1978C361.9 32.7139 362.763 33.5126 363.461 34.7883L372.234 29.9881C370.612 27.0238 368.276 24.7025 365.248 23.2186L360.847 32.1978ZM363.481 34.8235C364.098 35.9307 364.588 37.6942 364.588 40.4282H374.588C374.588 36.6022 373.917 33.0057 372.214 29.9529L363.481 34.8235ZM364.588 40.4282V58.9082H374.588V40.4282H364.588ZM369.588 53.9082H360.228V63.9082H369.588V53.9082ZM365.228 58.9082V41.8682H355.228V58.9082H365.228ZM365.228 41.8682C365.228 38.6536 364.527 35.2457 362.139 32.6924L354.836 39.524C354.768 39.4507 355.228 39.8828 355.228 41.8682H365.228ZM362.198 32.7568C359.906 30.2195 356.81 29.2482 353.688 29.2482V39.2482C354.237 39.2482 354.525 39.3305 354.641 39.3754C354.733 39.4111 354.755 39.4352 354.777 39.4596L362.198 32.7568ZM353.688 29.2482C351.461 29.2482 349.301 29.7368 347.315 30.7964L352.021 39.62C352.434 39.3996 352.954 39.2482 353.688 39.2482V29.2482ZM347.37 30.7671C345.21 31.8848 343.594 33.6077 342.492 35.6824L351.323 40.374C351.581 39.8887 351.806 39.7316 351.965 39.6493L347.37 30.7671ZM342.435 35.7921C341.338 37.9862 340.948 40.4621 340.948 42.9482H350.948C350.948 41.4343 351.197 40.6302 351.38 40.2643L342.435 35.7921ZM340.948 42.9482V58.9082H350.948V42.9482H340.948ZM345.948 53.9082H336.588V63.9082H345.948V53.9082ZM341.588 58.9082V26.6282H331.588V58.9082H341.588ZM336.588 31.6282H345.528V21.6282H336.588V31.6282ZM340.528 26.6282V35.5682H350.528V26.6282H340.528ZM349.773 32.9267L348.093 30.2267L339.602 35.5097L341.282 38.2097L349.773 32.9267ZM348.253 35.2338C348.948 33.9392 349.899 32.9885 351.193 32.2932L346.462 23.4832C343.437 25.1079 341.067 27.4772 339.443 30.5026L348.253 35.2338ZM351.193 32.2932C352.538 31.5707 354.168 31.1482 356.208 31.1482V21.1482C352.727 21.1482 349.437 21.8857 346.462 23.4832L351.193 32.2932ZM398.952 58.4282L397.649 63.2555L397.694 63.2676L397.739 63.2789L398.952 58.4282ZM392.952 55.9082L388.417 53.8026L390.153 60.0511L392.952 55.9082ZM396.072 49.1882L398.712 44.9418L391.537 47.0826L396.072 49.1882ZM401.292 51.4682L399.855 56.2573L399.912 56.2743L399.968 56.2898L401.292 51.4682ZM411.852 51.5282L409.392 47.1754L409.35 47.1991L409.308 47.2236L411.852 51.5282ZM412.152 47.6882L409.617 51.9979L409.764 52.0842L409.916 52.1603L412.152 47.6882ZM409.392 46.7882L408.542 51.7155L409.392 46.7882ZM405.552 46.1882L404.824 51.135L404.835 51.1365L404.845 51.138L405.552 46.1882ZM401.412 45.4082L400.167 50.2507L400.232 50.2675L400.298 50.2825L401.412 45.4082ZM397.572 43.8482L400.101 39.5347V39.5347L397.572 43.8482ZM394.752 41.0882L390.438 43.6168L390.47 43.6713L390.504 43.725L394.752 41.0882ZM395.472 31.1882L391.509 28.1397L391.484 28.172L391.46 28.2047L395.472 31.1882ZM400.632 27.5282L402.46 32.182L402.496 32.1679L402.532 32.1533L400.632 27.5282ZM415.392 26.8682L416.422 21.9755V21.9755L415.392 26.8682ZM421.092 28.9682L425.62 31.0893L423.681 24.6907L421.092 28.9682ZM417.972 35.6282L415.432 39.935L422.5 37.7493L417.972 35.6282ZM413.232 33.7682L412.108 38.6402L412.179 38.6567L412.251 38.6711L413.232 33.7682ZM404.112 34.0682L401.593 29.7493V29.7493L404.112 34.0682ZM403.692 38.0282L401.157 42.3379L401.21 42.3691L401.264 42.399L403.692 38.0282ZM410.292 39.6482L409.564 44.595L409.644 44.6067L409.724 44.6159L410.292 39.6482ZM414.492 40.4282L415.737 35.5857L414.492 40.4282ZM418.272 41.9882L415.677 46.2621L415.766 46.316L415.857 46.3661L418.272 41.9882ZM421.092 44.6882L416.844 47.325L416.865 47.3587L416.886 47.392L421.092 44.6882ZM420.372 54.4682L424.296 57.5664L424.316 57.5417L424.335 57.5168L420.372 54.4682ZM415.152 58.0682L413.352 53.4036L413.338 53.409L413.324 53.4144L415.152 58.0682ZM406.932 54.3882C404.562 54.3882 402.31 54.1139 400.165 53.5775L397.739 63.2789C400.714 64.0225 403.782 64.3882 406.932 64.3882V54.3882ZM400.255 53.6009C398.045 53.0046 396.615 52.3488 395.751 51.7653L390.153 60.0511C392.249 61.4676 394.819 62.4918 397.649 63.2555L400.255 53.6009ZM397.487 58.0138L400.607 51.2938L391.537 47.0826L388.417 53.8026L397.487 58.0138ZM393.432 53.4346C395.353 54.6286 397.513 55.5546 399.855 56.2573L402.729 46.6791C401.071 46.1818 399.751 45.5878 398.712 44.9418L393.432 53.4346ZM399.968 56.2898C402.406 56.9589 404.851 57.3082 407.292 57.3082V47.3082C405.813 47.3082 404.258 47.0975 402.616 46.6466L399.968 56.2898ZM407.292 57.3082C409.554 57.3082 412.27 57.0891 414.396 55.8328L409.308 47.2236C409.588 47.0582 409.643 47.1105 409.209 47.1848C408.813 47.2525 408.192 47.3082 407.292 47.3082V57.3082ZM414.312 55.881C416.521 54.6325 418.232 52.3915 418.232 49.3682H408.232C408.232 48.9506 408.35 48.4122 408.673 47.9063C408.976 47.4333 409.306 47.2237 409.392 47.1754L414.312 55.881ZM418.232 49.3682C418.232 48.1688 417.937 46.8706 417.168 45.6744C416.409 44.4948 415.383 43.7137 414.388 43.2161L409.916 52.1603C409.641 52.0227 409.154 51.7016 408.756 51.082C408.347 50.4458 408.232 49.8076 408.232 49.3682H418.232ZM414.687 43.3785C413.297 42.5611 411.732 42.1179 410.241 41.8609L408.542 51.7155C408.934 51.783 409.214 51.8555 409.402 51.9169C409.593 51.979 409.649 52.0167 409.617 51.9979L414.687 43.3785ZM410.241 41.8609C409.026 41.6513 407.698 41.444 406.259 41.2385L404.845 51.138C406.206 51.3325 407.438 51.5251 408.542 51.7155L410.241 41.8609ZM406.279 41.2414C405.055 41.0613 403.804 40.826 402.526 40.5339L400.298 50.2825C401.82 50.6304 403.329 50.9151 404.824 51.135L406.279 41.2414ZM402.657 40.5657C401.674 40.3129 400.831 39.9626 400.101 39.5347L395.043 48.1617C396.633 49.0938 398.35 49.7835 400.167 50.2507L402.657 40.5657ZM400.101 39.5347C399.653 39.2721 399.299 38.9321 399 38.4514L390.504 43.725C391.645 45.5643 393.171 47.0643 395.043 48.1617L400.101 39.5347ZM399.065 38.5596C398.971 38.3984 398.732 37.8534 398.732 36.5882H388.732C388.732 39.003 389.173 41.458 390.438 43.6168L399.065 38.5596ZM398.732 36.5882C398.732 35.5663 398.999 34.8248 399.484 34.1717L391.46 28.2047C389.625 30.6716 388.732 33.5301 388.732 36.5882H398.732ZM399.435 34.2368C399.971 33.5402 400.876 32.8042 402.46 32.182L398.804 22.8744C395.907 24.0122 393.373 25.7162 391.509 28.1397L399.435 34.2368ZM402.532 32.1533C404.022 31.541 406.024 31.1482 408.672 31.1482V21.1482C405.08 21.1482 401.722 21.6754 398.732 22.9031L402.532 32.1533ZM408.672 31.1482C410.506 31.1482 412.401 31.3481 414.362 31.761L416.422 21.9755C413.823 21.4283 411.238 21.1482 408.672 21.1482V31.1482ZM414.362 31.761C416.253 32.1591 417.588 32.6918 418.503 33.2457L423.681 24.6907C421.556 23.4046 419.091 22.5373 416.422 21.9755L414.362 31.761ZM416.564 26.8471L413.444 33.5071L422.5 37.7493L425.62 31.0893L416.564 26.8471ZM420.512 31.3214C418.522 30.1478 416.419 29.3066 414.213 28.8653L412.251 38.6711C413.245 38.8698 414.302 39.2686 415.432 39.935L420.512 31.3214ZM414.356 28.8962C412.457 28.458 410.56 28.2282 408.672 28.2282V38.2282C409.744 38.2282 410.887 38.3584 412.108 38.6402L414.356 28.8962ZM408.672 28.2282C406.357 28.2282 403.731 28.5018 401.593 29.7493L406.631 38.3871C406.459 38.4877 406.481 38.4286 406.878 38.3555C407.257 38.2856 407.839 38.2282 408.672 38.2282V28.2282ZM401.593 29.7493C399.564 30.9324 397.672 33.0876 397.672 36.2282H407.672C407.672 36.7575 407.51 37.3257 407.192 37.8017C407.05 38.015 406.908 38.1629 406.804 38.2552C406.702 38.3458 406.635 38.3851 406.631 38.3871L401.593 29.7493ZM397.672 36.2282C397.672 38.7693 398.923 41.0241 401.157 42.3379L406.227 33.7185C406.533 33.8984 406.955 34.2453 407.277 34.8131C407.597 35.3777 407.672 35.9038 407.672 36.2282H397.672ZM401.264 42.399C402.573 43.1266 404.041 43.5828 405.499 43.8845L407.525 34.0919C406.663 33.9136 406.251 33.7299 406.12 33.6574L401.264 42.399ZM405.499 43.8845C406.767 44.1469 408.124 44.3831 409.564 44.595L411.019 34.7014C409.74 34.5133 408.577 34.3095 407.525 34.0919L405.499 43.8845ZM409.724 44.6159C410.89 44.7491 412.064 44.9664 413.247 45.2707L415.737 35.5857C414.12 35.17 412.494 34.8673 410.86 34.6805L409.724 44.6159ZM413.247 45.2707C414.22 45.5209 415.017 45.8617 415.677 46.2621L420.867 37.7143C419.286 36.7547 417.564 36.0555 415.737 35.5857L413.247 45.2707ZM415.857 46.3661C416.243 46.5793 416.561 46.8696 416.844 47.325L425.34 42.0514C424.183 40.1868 422.621 38.6771 420.687 37.6103L415.857 46.3661ZM416.886 47.392C416.925 47.4526 417.172 47.8939 417.172 49.1282H427.172C427.172 46.6825 426.699 44.1638 425.298 41.9844L416.886 47.392ZM417.172 49.1282C417.172 50.0448 416.925 50.7489 416.409 51.4197L424.335 57.5168C426.219 55.0675 427.172 52.2116 427.172 49.1282H417.172ZM416.448 51.37C415.93 52.0252 415.012 52.7627 413.352 53.4036L416.952 62.7328C419.852 61.6137 422.414 59.9512 424.296 57.5664L416.448 51.37ZM413.324 53.4144C411.829 54.0014 409.75 54.3882 406.932 54.3882V64.3882C410.594 64.3882 413.994 63.895 416.98 62.722L413.324 53.4144Z" fill="white"/>
</svg>
